<?xml version="1.0" standalone="no"?>
<!DOCTYPE svg PUBLIC "-//W3C//DTD SVG 1.1//EN" "http://www.w3.org/Graphics/SVG/1.1/DTD/svg11.dtd" >
<svg xmlns="http://www.w3.org/2000/svg" width="100%" height="100%">
<metadata>
Created by FontXChange 20110222 at Mon Nov  7 10:00:41 2011
 By James Beall
Copyright (c) 2011 by GM. All rights reserved.
</metadata>
<defs>
<font id="Durant-Italic" horiz-adv-x="582" >
  <font-face 
    font-family="Durant"
    font-weight="425"
    font-style="italic"
    font-stretch="normal"
    units-per-em="1000"
    panose-1="0 0 0 0 0 0 0 0 0 0"
    ascent="750"
    descent="-250"
    x-height="512"
    cap-height="750"
    bbox="-161.288 -289 1263.27 1020"
    underline-thickness="50"
    underline-position="-50"
    stemh="52"
    stemv="90"
    unicode-range="U+0020-FB02"
  />
<missing-glyph 
d="M480 0h-480l210 750h480zM453 82l162 578l-246 -290zM75 91l245 289l-83 288zM417 50l-82 280l-237 -280h319zM355 421l236 279h-317z" />
    <glyph glyph-name="fi" unicode="fi" horiz-adv-x="551" 
d="M546 177l14 -1c6 -1 8 -3 5 -12c-47 -132 -99 -176 -151 -176c-49 0 -72 37 -72 83c0 19 4 43 11 64l98 305c4 12 -3 15 -9 15h-178l-117 -410c-60 -210 -125 -295 -197 -295c-58 0 -96 35 -92 86c2 27 19 48 45 48s42 -20 39 -42c-2 -20 -13 -30 -14 -43
c-1 -11 7 -20 20 -20c34 0 63 60 113 238l122 438h-87c-4 0 -6 3 -5 7l9 31c1 4 5 7 9 7h87l26 93c31 109 86 190 203 190c82 0 135 -44 127 -104c-4 -31 -29 -55 -59 -55s-47 24 -44 50c3 21 17 37 17 48c0 12 -10 27 -42 27c-70 0 -95 -65 -113 -129l-34 -120h200
c10 0 26 -2 37 -10c23 -16 22 -41 13 -68l-103 -320c-15 -46 -6 -66 15 -66c19 0 51 21 94 130c3 9 7 11 13 11z" />
    <glyph glyph-name="fl" unicode="fl" horiz-adv-x="604" 
d="M572 177l14 -1c6 -1 8 -3 5 -12c-47 -132 -99 -176 -151 -176s-83 33 -75 99c1 9 2 18 6 31l153 540c23 81 -15 107 -72 107c-83 0 -120 -73 -138 -137l-37 -128h128c3 0 5 -3 4 -7l-9 -31c-1 -4 -5 -7 -8 -7h-128l-117 -410c-60 -210 -125 -295 -197 -295
c-58 0 -96 35 -92 86c2 27 19 48 45 48s42 -20 39 -42c-2 -20 -13 -30 -14 -43c-1 -11 7 -20 20 -20c34 0 63 60 113 238l122 438h-87c-4 0 -6 3 -5 7l9 31c1 4 5 7 9 7h87l29 103c31 109 103 200 239 200c43 0 82 -20 112 -20c25 0 43 5 63 10c4 1 6 -2 5 -5l-190 -674
c-16 -56 -10 -78 11 -78c19 0 51 21 94 130c3 9 7 11 13 11z" />
    <glyph glyph-name=".notdef" 
d="M480 0h-480l210 750h480zM453 82l162 578l-246 -290zM75 91l245 289l-83 288zM417 50l-82 280l-237 -280h319zM355 421l236 279h-317z" />
    <glyph glyph-name="space" unicode=" " horiz-adv-x="225" 
 />
    <glyph glyph-name="exclam" unicode="!" horiz-adv-x="201" 
d="M101 233l98 494c9 45 33 64 71 59s52 -29 36 -73l-172 -484c-3 -8 -10 -8 -19 -7s-16 3 -14 11zM124 51c-5 -35 -35 -63 -68 -63c-32 0 -55 28 -50 63s36 63 68 63c33 0 55 -28 50 -63z" />
    <glyph glyph-name="quotedbl" unicode="&#x22;" horiz-adv-x="299" 
d="M158 505l29 212c5 37 26 53 57 44c32 -9 41 -33 26 -67l-85 -196c-3 -6 -6 -7 -16 -4c-8 2 -12 5 -11 11zM298 505l29 212c5 37 26 53 57 44c32 -9 41 -33 26 -67l-85 -196c-3 -6 -6 -7 -16 -4c-8 2 -12 5 -11 11z" />
    <glyph glyph-name="numbersign" unicode="#" horiz-adv-x="621" 
d="M404 268l67 214h-151l-67 -214h151zM370 0h-40c-4 0 -7 1 -5 7l63 209h-150l-64 -209c-1 -5 -5 -7 -9 -7h-40c-4 0 -7 1 -5 7l64 209h-128c-3 0 -6 3 -5 7l6 38c1 4 3 7 7 7h135l68 214h-134c-4 0 -7 3 -6 7l5 38c1 4 4 7 8 7h142l65 209c1 4 5 7 9 7h40c4 0 6 -3 5 -7
l-65 -209h150l66 209c1 4 5 7 9 7h40c4 0 6 -3 5 -7l-66 -209h130c3 0 6 -3 5 -7l-5 -38c-1 -5 -4 -7 -7 -7h-138l-67 -214h135c4 0 7 -2 6 -7l-6 -38c-1 -5 -4 -7 -8 -7h-143l-63 -209c-1 -5 -5 -7 -9 -7z" />
    <glyph glyph-name="dollar" unicode="$" horiz-adv-x="514" 
d="M194 -83l-25 4c-4 1 -6 4 -5 8l32 113c-102 19 -163 79 -146 152c9 39 42 57 69 53c31 -5 46 -29 40 -58c-3 -16 -12 -29 -20 -39c-11 -14 -16 -28 -1 -39c18 -13 43 -23 70 -28l80 278c-81 54 -143 116 -112 226c24 84 110 136 213 126l29 104c1 4 4 7 9 6l25 -4
c4 -1 5 -4 4 -8l-30 -105c95 -21 151 -79 135 -149c-9 -39 -42 -57 -69 -53c-31 5 -46 29 -40 58c3 16 12 29 20 39c11 14 16 28 1 39c-16 11 -36 20 -59 25l-67 -236c84 -56 152 -133 122 -237c-29 -102 -122 -164 -234 -156l-33 -113c-1 -4 -4 -7 -8 -6zM321 336l-74 -258
c66 -2 131 46 149 111c17 60 -23 107 -75 147zM313 451l64 220c-56 4 -112 -28 -128 -82c-17 -58 10 -99 64 -138z" />
    <glyph glyph-name="percent" unicode="%" horiz-adv-x="722" 
d="M256 414c-74 0 -114 55 -114 129c0 20 3 42 9 64c25 89 95 155 170 155c73 0 113 -56 113 -129c0 -117 -87 -219 -178 -219zM253 444c41 0 79 46 105 128c12 37 18 69 18 93c0 43 -18 67 -52 67c-42 0 -80 -44 -106 -129c-10 -31 -17 -64 -17 -92c0 -38 14 -67 52 -67z
M154 -12h-42c-2 0 -3 1 -3 3c0 1 1 2 2 4l556 760c3 4 7 7 11 7h42c2 0 3 -1 3 -3c0 -1 -1 -3 -2 -4l-556 -760c-3 -5 -7 -7 -11 -7zM508 -13c-74 0 -114 55 -114 129c0 20 3 42 9 64c25 89 95 155 170 155c73 0 113 -56 113 -129c0 -117 -87 -219 -178 -219zM505 17
c41 0 79 46 105 128c12 37 18 69 18 93c0 43 -18 67 -52 67c-42 0 -80 -44 -106 -129c-10 -31 -17 -64 -17 -92c0 -38 14 -67 52 -67z" />
    <glyph glyph-name="ampersand" unicode="&#x26;" horiz-adv-x="786" 
d="M329 455c86 28 182 109 174 208c-3 34 -19 61 -61 61c-106 0 -134 -176 -113 -269zM432 73c-58 -62 -109 -85 -180 -85c-99 0 -184 60 -196 164c-14 124 66 213 189 270c-5 27 -8 55 -8 83c2 136 74 257 209 257c81 0 136 -51 136 -117c0 -115 -102 -189 -242 -235
c22 -73 57 -148 115 -234c33 46 61 143 108 201c32 39 65 57 109 57s83 -29 84 -75c1 -34 -22 -63 -52 -63c-33 0 -44 28 -50 52c-7 27 -32 23 -53 4c-48 -44 -64 -142 -116 -215c39 -58 84 -90 123 -90c46 0 85 34 112 96c3 7 10 4 17 1s12 -6 9 -14
c-10 -28 -24 -57 -43 -82c-32 -42 -70 -60 -110 -60c-57 0 -115 35 -161 85zM260 377c-81 -38 -124 -110 -124 -182c0 -84 69 -150 147 -150c44 0 94 31 120 63c-62 80 -110 170 -143 269z" />
    <glyph glyph-name="quotesingle" unicode="'" horiz-adv-x="159" 
d="M156 505l29 212c5 37 26 53 57 44c32 -9 41 -33 26 -67l-85 -196c-3 -6 -6 -7 -16 -4c-8 2 -12 5 -11 11z" />
    <glyph glyph-name="parenleft" unicode="(" horiz-adv-x="297" 
d="M179 -173l-12 -8c-3 -2 -6 -2 -7 0c-71 101 -125 313 -59 545c63 223 217 395 349 492c3 2 5 2 7 0l11 -14c2 -3 1 -5 -2 -8c-103 -100 -224 -252 -287 -480c-63 -229 -44 -417 1 -520c1 -3 1 -5 -1 -7z" />
    <glyph glyph-name="parenright" unicode=")" horiz-adv-x="301" 
d="M-70 -183l-10 13c-2 3 -1 5 2 8c103 100 224 252 287 480c63 229 44 417 -1 520c-1 3 -2 5 1 7l12 8c3 2 6 2 7 0c71 -101 125 -313 59 -545c-63 -223 -217 -395 -349 -492c-3 -2 -6 -2 -8 1z" />
    <glyph glyph-name="asterisk" unicode="*" horiz-adv-x="390" 
d="M356 453l-42 107l-71 -107c-15 -23 -33 -28 -50 -14c-18 14 -16 33 4 51l95 86l-115 21c-24 4 -32 19 -22 41c11 23 29 29 50 18l99 -52l1 119c0 25 14 39 37 39c24 0 34 -14 26 -39l-35 -119l117 53c25 12 41 5 44 -17c4 -23 -7 -39 -33 -43l-120 -21l71 -86
c15 -19 11 -35 -10 -49s-38 -10 -46 12z" />
    <glyph glyph-name="plus" unicode="+" horiz-adv-x="585" 
d="M585 310h-229l-70 -246c-1 -4 -5 -7 -9 -7h-40c-4 0 -6 3 -5 7l70 246h-229c-3 0 -5 3 -4 7l13 44c1 4 5 7 8 7h229l71 246c1 4 5 7 9 7h40c4 0 6 -3 5 -7l-71 -246h229c3 0 5 -3 4 -7l-13 -44c-1 -4 -5 -7 -8 -7z" />
    <glyph glyph-name="comma" unicode="," horiz-adv-x="198" 
d="M-39 -147c-5 -1 -6 2 -7 9c-1 6 0 10 3 11c76 22 111 84 117 124c2 12 -3 17 -10 17c-8 0 -13 -4 -28 -4c-26 0 -44 25 -39 57c4 32 30 57 66 57c50 0 72 -46 65 -100c-10 -68 -66 -151 -167 -171z" />
    <glyph glyph-name="hyphen" unicode="-" horiz-adv-x="345" 
d="M339 361l12 -44c1 -4 -1 -7 -5 -7h-241c-3 0 -7 3 -8 7l-12 44c-1 4 1 7 4 7h241c4 0 8 -3 9 -7z" />
    <glyph glyph-name="period" unicode="." horiz-adv-x="199" 
d="M128 56c-5 -38 -37 -68 -72 -68s-58 30 -53 68s37 68 72 68s59 -30 53 -68z" />
    <glyph glyph-name="slash" unicode="/" horiz-adv-x="357" 
d="M3 -113h-47c-4 0 -5 3 -3 7l485 901c3 6 5 7 9 7h48c4 0 6 -3 4 -7l-486 -901c-3 -5 -6 -7 -10 -7z" />
    <glyph glyph-name="zero" unicode="0" horiz-adv-x="610" 
d="M260 42c100 0 189 112 255 321c53 171 71 345 -55 345c-100 0 -190 -112 -255 -320c-54 -172 -71 -346 55 -346zM252 -12c-154 0 -213 173 -151 387s212 387 368 387c154 0 213 -173 151 -387s-212 -387 -368 -387z" />
    <glyph glyph-name="one" unicode="1" horiz-adv-x="372" 
d="M302 0h-321c-2 0 -4 2 -3 5l5 18c1 4 3 6 6 6l97 10c18 2 28 11 36 38l151 528c23 79 10 86 -48 83l-50 -3c-4 0 -5 2 -4 5l6 21c1 3 3 5 7 6c64 9 132 22 203 44c13 4 19 -2 16 -13l-176 -613c-25 -89 -15 -104 42 -105l40 -1c4 0 4 -3 3 -6l-5 -18c-1 -3 -3 -5 -5 -5z
" />
    <glyph glyph-name="two" unicode="2" horiz-adv-x="547" 
d="M485 180h21c4 0 6 -1 5 -6c-26 -151 -82 -186 -148 -186c-94 0 -173 73 -252 73c-33 0 -43 -17 -48 -34c-5 -19 -10 -39 -35 -39c-19 0 -29 16 -29 33c0 19 12 41 30 57l237 206c130 113 194 188 213 273c23 106 -21 157 -94 157s-134 -47 -140 -84c-6 -43 48 -37 40 -87
c-5 -32 -35 -55 -61 -55c-42 0 -61 36 -54 85c16 108 116 189 243 189c123 0 190 -80 164 -196c-18 -83 -86 -166 -198 -257l-207 -169c-9 -7 -2 -12 7 -14c95 -23 133 -73 203 -74c52 -1 74 37 95 122c1 5 5 6 8 6z" />
    <glyph glyph-name="three" unicode="3" horiz-adv-x="505" 
d="M386 401v-2c64 -31 113 -94 91 -195c-30 -141 -146 -216 -275 -216c-69 0 -132 25 -162 74c-14 23 -21 51 -16 86c6 47 37 93 78 93c27 0 47 -19 42 -49c-9 -55 -77 -44 -58 -97c14 -39 59 -59 112 -59c78 0 155 57 187 180c17 65 18 152 -78 159c-18 -1 -61 -6 -80 -6
c-16 0 -18 6 -13 24c6 21 12 27 30 27c23 0 61 -2 75 -3c53 13 132 82 147 167c12 70 -11 132 -89 132c-45 0 -80 -13 -107 -36c-23 -20 -16 -38 -2 -51c8 -8 21 -21 17 -45c-5 -30 -29 -48 -54 -48c-33 0 -55 29 -49 66c14 97 111 160 209 160c117 0 184 -75 162 -178
c-18 -82 -88 -146 -167 -183z" />
    <glyph glyph-name="four" unicode="4" horiz-adv-x="560" 
d="M369 290l106 368c-142 -123 -279 -273 -344 -353c-8 -9 -8 -15 2 -15h236zM367 0h-76c-3 0 -5 2 -4 5l67 233h-293c-19 0 -25 17 -11 36c87 114 312 356 502 499c9 6 20 4 29 1s17 -6 14 -15c-3 -12 -21 -49 -42 -123l-99 -346h118c4 0 4 -3 3 -6l-12 -41
c-1 -3 -3 -5 -5 -5h-119l-67 -233c-1 -3 -3 -5 -5 -5z" />
    <glyph glyph-name="five" unicode="5" horiz-adv-x="537" 
d="M534 670h-260c-9 0 -14 -4 -17 -15l-57 -177c-2 -6 -1 -9 4 -9c4 0 9 2 16 4c38 12 63 21 114 21c133 0 209 -100 178 -242c-31 -146 -149 -264 -295 -264c-116 0 -197 63 -184 156c7 47 35 93 76 93c27 0 45 -19 41 -46c-8 -58 -72 -48 -54 -101c14 -39 65 -57 119 -57
c98 0 177 103 202 218c27 124 -22 189 -119 189c-45 0 -78 -13 -123 -33c-14 -6 -22 -10 -35 -10c-9 0 -13 3 -11 11l102 319c5 15 14 23 29 23h248c32 0 53 10 68 49l11 30c2 5 5 6 8 6h24c3 0 5 -1 4 -6l-31 -112c-8 -28 -32 -47 -58 -47z" />
    <glyph glyph-name="six" unicode="6" horiz-adv-x="567" 
d="M269 -10c-124 0 -195 106 -195 227c0 34 5 69 15 103c62 218 231 400 462 462h3c10 0 14 -10 14 -18c0 -6 -3 -12 -8 -14c-142 -56 -272 -178 -340 -315c-3 -5 0 -14 9 -9c44 25 77 39 126 39c108 0 189 -74 186 -185c-4 -161 -138 -290 -272 -290zM269 43
c132 0 190 183 190 256c0 67 -37 114 -112 114c-74 0 -155 -52 -179 -137c-8 -28 -13 -59 -13 -88c0 -76 32 -145 114 -145z" />
    <glyph glyph-name="seven" unicode="7" horiz-adv-x="512" 
d="M538 672h-269c-31 0 -53 -10 -67 -49l-19 -54c-2 -5 -5 -6 -8 -6h-23c-4 0 -7 1 -6 6l52 170c2 6 7 11 12 11h420c15 0 25 -8 19 -23c-12 -29 -63 -83 -84 -104c-117 -116 -250 -242 -291 -378c-25 -82 -17 -142 -25 -194c-6 -37 -30 -67 -66 -63c-34 4 -55 39 -37 108
c41 151 136 290 252 416c38 41 100 103 145 147c4 4 8 13 -5 13z" />
    <glyph glyph-name="eight" unicode="8" horiz-adv-x="558" 
d="M416 414v-2c62 -31 109 -91 109 -168c0 -148 -132 -256 -276 -256c-125 0 -201 76 -201 179c0 139 110 222 232 255v2c-51 29 -83 77 -83 135c0 128 115 203 227 203c81 0 174 -45 174 -142c0 -102 -84 -179 -182 -206zM348 392c-86 -12 -217 -90 -213 -247
c1 -56 37 -113 109 -113c91 0 197 98 197 227c0 76 -50 126 -93 133zM349 444c52 3 172 69 168 192c-2 48 -30 83 -91 83c-88 0 -151 -88 -151 -172c0 -60 38 -95 74 -103z" />
    <glyph glyph-name="nine" unicode="9" horiz-adv-x="567" 
d="M125 -30h-3c-10 0 -14 10 -14 18c0 6 3 12 8 14c142 56 272 178 340 315c3 5 0 14 -9 9c-44 -25 -77 -39 -126 -39c-108 0 -189 74 -186 185c4 161 138 290 272 290c124 0 195 -106 195 -227c0 -34 -5 -69 -15 -103c-62 -218 -231 -400 -462 -462zM508 476
c8 28 13 59 13 88c0 76 -32 145 -114 145c-132 0 -190 -183 -190 -256c0 -67 37 -114 112 -114c74 0 155 52 179 137z" />
    <glyph glyph-name="colon" unicode=":" horiz-adv-x="219" 
d="M137 56c-5 -38 -37 -68 -72 -68s-58 30 -53 68s37 68 72 68s59 -30 53 -68zM232 386c-5 -38 -37 -68 -72 -68s-58 30 -53 68s37 68 72 68s59 -30 53 -68z" />
    <glyph glyph-name="semicolon" unicode=";" horiz-adv-x="218" 
d="M232 386c-5 -38 -37 -68 -72 -68s-58 30 -53 68s37 68 72 68s59 -30 53 -68zM-28 -147c-5 -1 -6 2 -7 9c-1 6 0 10 3 11c73 20 111 83 117 124c2 12 -3 17 -10 17c-8 0 -13 -4 -28 -4c-26 0 -44 25 -39 57c4 32 30 57 66 57c50 0 72 -46 65 -100
c-10 -68 -66 -151 -167 -171z" />
    <glyph glyph-name="less" unicode="&#x3c;" horiz-adv-x="431" 
d="M359 86l-281 223c-4 4 -4 7 -2 15l9 30c2 8 4 11 10 15l409 223c5 3 10 3 8 -4l-15 -54c-2 -6 -4 -10 -11 -14l-351 -189l243 -189c4 -4 4 -8 2 -14l-11 -38c-2 -7 -7 -7 -10 -4z" />
    <glyph glyph-name="equal" unicode="=" horiz-adv-x="495" 
d="M507 405h-390c-4 0 -6 2 -5 7l12 44c1 4 5 7 9 7h390c4 0 6 -3 5 -7l-12 -44c-1 -4 -5 -7 -9 -7zM452 215h-390c-4 0 -6 3 -5 7l13 44c1 4 5 7 9 7h390c4 0 6 -3 5 -7l-13 -44c-1 -4 -5 -7 -9 -7z" />
    <glyph glyph-name="greater" unicode="&#x3e;" horiz-adv-x="432" 
d="M427 309l-409 -223c-5 -3 -10 -3 -8 4l15 54c2 6 4 10 12 14l351 189l-243 189c-5 4 -5 8 -3 14l11 38c2 7 7 7 10 4l281 -223c4 -4 4 -7 2 -15l-9 -30c-2 -8 -4 -11 -10 -15z" />
    <glyph glyph-name="question" unicode="?" horiz-adv-x="414" 
d="M216 240c-1 -12 -13 -13 -23 -13c-13 0 -20 3 -19 14c17 227 218 223 251 375c2 10 3 20 3 29c0 63 -47 99 -107 99c-41 0 -98 -29 -98 -63c0 -23 32 -27 36 -64c3 -30 -22 -53 -49 -53c-38 0 -54 34 -54 67c0 99 96 158 183 158c122 0 171 -80 171 -152
c0 -12 -1 -23 -3 -34c-37 -172 -275 -175 -291 -363zM215 51c-5 -35 -35 -63 -68 -63s-55 28 -50 63c4 35 34 63 67 63s55 -28 51 -63z" />
    <glyph glyph-name="at" unicode="@" horiz-adv-x="916" 
d="M716 -8l16 -25c-92 -70 -198 -119 -322 -119c-258 0 -373 196 -314 458c58 262 281 456 510 456c246 0 370 -206 287 -454c-40 -118 -161 -268 -287 -268c-49 0 -74 33 -58 99c2 9 6 18 9 27h-4c-71 -87 -127 -126 -182 -126c-96 0 -128 102 -69 245
c69 170 201 279 288 279c44 0 68 -24 84 -63c6 -16 16 -24 35 -1l39 48c3 3 4 4 7 4h14c3 0 4 -1 3 -4l-156 -387c-22 -56 -10 -78 14 -78c62 0 170 82 223 232c78 221 -25 409 -251 409c-198 0 -397 -183 -451 -418c-53 -234 38 -414 264 -414c109 0 218 39 301 100z
M621 354l5 12c34 92 11 154 -35 154c-64 0 -156 -106 -212 -240c-51 -123 -41 -190 15 -190c62 0 163 94 227 264z" />
    <glyph glyph-name="A" unicode="A" horiz-adv-x="697" 
d="M639 0h-243c-3 0 -6 1 -5 5l5 18c1 3 2 5 6 6l52 7c26 4 40 18 38 48l-9 135c0 5 -3 6 -6 6h-258c-3 0 -7 -1 -10 -6l-78 -125c-8 -12 -16 -27 -17 -39s6 -21 29 -23l40 -3c5 0 5 -3 4 -6l-5 -18c-1 -4 -2 -5 -5 -5h-219c-3 0 -5 1 -4 5l5 18c1 3 3 5 7 6l32 5
c27 4 36 13 56 44l423 665c3 5 6 7 11 7h39c5 0 7 -2 7 -7l47 -634c5 -62 13 -75 54 -79l10 -1c5 0 5 -3 4 -6l-5 -18c-1 -4 -2 -5 -5 -5zM481 276l-23 342h-2l-212 -342c-2 -4 -2 -6 2 -6h229c4 0 6 2 6 6z" />
    <glyph glyph-name="B" unicode="B" horiz-adv-x="618" 
d="M253 0h-282c-2 0 -4 1 -3 5l5 18c1 4 2 5 6 6l62 10c19 3 29 11 37 38l151 538c28 99 13 100 -43 105l-17 1c-3 0 -3 2 -2 6l4 18c1 4 3 5 5 5h273c133 0 202 -59 183 -173c-12 -71 -73 -135 -171 -169v-2c94 -29 133 -98 115 -198c-25 -137 -151 -208 -323 -208zM214 44
h44c114 0 191 48 221 162c32 123 -15 175 -134 175h-85c-4 0 -8 -3 -9 -7l-72 -257c-17 -60 -13 -73 35 -73zM273 425h82c95 0 164 48 188 155c24 104 -31 126 -112 126h-31c-48 0 -60 -14 -76 -74l-56 -200c-1 -4 1 -7 5 -7z" />
    <glyph glyph-name="C" unicode="C" horiz-adv-x="658" 
d="M585 165l21 -22c3 -4 1 -6 -2 -10c-69 -86 -158 -145 -255 -145c-190 0 -287 164 -241 388s220 386 394 386c48 0 89 -12 122 -33c18 -11 37 -26 49 -36c7 -5 16 -9 25 7l24 41c2 3 3 4 6 4h19c3 0 4 -1 3 -4l-72 -259c-2 -5 -5 -6 -9 -6h-19c-5 0 -7 1 -6 7
c6 42 4 82 -4 116c-15 66 -70 113 -149 108c-126 -9 -251 -155 -284 -345c-34 -193 21 -311 150 -311c80 0 147 42 218 112c3 3 6 7 10 2z" />
    <glyph glyph-name="D" unicode="D" horiz-adv-x="696" 
d="M220 48h45c156 0 290 147 334 339c51 220 -4 315 -148 315h-36c-50 0 -74 -8 -96 -88l-140 -498c-15 -52 -8 -68 41 -68zM263 0h-291c-3 0 -4 2 -3 5l5 18c1 3 3 5 6 6l62 10c19 3 28 11 36 38l151 538c28 99 13 100 -42 105l-17 1c-4 0 -4 2 -3 6l4 18c1 3 3 5 6 5h276
c209 0 300 -138 249 -362c-52 -224 -226 -388 -439 -388z" />
    <glyph glyph-name="E" unicode="E" horiz-adv-x="626" 
d="M502 0h-531c-2 0 -4 1 -3 5l5 18c1 4 3 5 6 6l62 10c19 3 29 11 37 38l151 538c28 99 13 101 -43 105l-16 1c-3 0 -4 2 -3 6l4 18c1 4 3 5 5 5h522c6 0 9 -5 7 -11l-58 -211c-1 -5 -4 -6 -7 -6h-30c-3 0 -7 1 -6 6l20 99c12 59 1 75 -69 75h-155c-48 0 -59 -10 -76 -70
l-60 -209c-1 -4 2 -7 5 -7h123c34 0 49 9 58 32l23 57c3 7 5 8 9 8h24c3 0 5 -1 4 -5l-68 -242c-1 -3 -3 -4 -6 -4h-25c-4 0 -5 2 -4 8l10 62c4 23 -6 32 -40 32h-123c-3 0 -7 -3 -8 -7l-67 -239c-17 -60 -12 -70 36 -70h169c70 0 94 15 114 75l35 104c2 5 6 6 9 6h30
c5 0 5 -2 4 -6l-61 -216c-2 -6 -7 -11 -13 -11z" />
    <glyph glyph-name="F" unicode="F" horiz-adv-x="592" 
d="M242 0h-270c-2 0 -4 1 -3 5l5 18c1 3 3 5 6 6l62 10c19 3 28 11 36 38l151 538c28 99 13 100 -42 105l-16 1c-4 0 -5 2 -4 6l4 18c1 3 3 5 6 5h523c5 0 9 -5 7 -11l-58 -211c-1 -5 -4 -6 -8 -6h-30c-3 0 -7 1 -6 6l21 99c12 59 0 75 -69 75h-156c-48 0 -60 -10 -77 -70
l-62 -219c-1 -4 1 -7 5 -7h131c30 0 40 9 49 32l25 66c2 7 5 8 9 8h25c2 0 4 -1 3 -4l-73 -261c-1 -3 -3 -4 -6 -4h-25c-4 0 -5 1 -4 8l13 71c4 23 1 32 -30 32h-131c-4 0 -9 -2 -10 -7l-59 -212c-25 -89 -13 -102 43 -105l21 -1c4 0 4 -3 3 -6l-5 -18c-1 -4 -2 -5 -4 -5z
" />
    <glyph glyph-name="G" unicode="G" horiz-adv-x="710" 
d="M574 0h-16c-3 0 -5 1 -5 4l-6 75c0 3 -3 3 -5 1c-73 -69 -135 -92 -218 -92c-179 0 -263 162 -217 386s222 388 397 388c46 0 90 -12 123 -33c18 -11 39 -27 50 -36c6 -5 16 -7 25 9l24 44c2 3 3 4 7 4h17c2 0 4 -1 3 -4l-69 -244c-1 -5 -5 -6 -9 -6h-17c-5 0 -7 1 -7 7
c1 26 2 51 -1 74c-11 83 -65 137 -159 131c-126 -8 -252 -158 -285 -348c-34 -193 6 -312 132 -312c92 0 191 60 220 171l6 23c12 47 2 60 -42 61l-34 1c-5 0 -5 3 -4 6l7 26c1 4 3 5 6 5h229c3 0 5 -1 4 -5l-7 -23c-1 -4 -3 -5 -7 -6l-30 -5c-20 -3 -26 -11 -33 -35
l-74 -263c-1 -3 -2 -4 -5 -4z" />
    <glyph glyph-name="H" unicode="H" horiz-adv-x="707" 
d="M637 0h-260c-3 0 -5 1 -4 5l5 18c1 4 2 5 6 6l63 10c19 3 30 11 37 38l80 289c1 4 0 7 -4 7h-302c-4 0 -8 -1 -10 -7l-64 -231c-25 -89 -13 -100 43 -105l11 -1c3 0 4 -2 3 -6l-5 -18c-1 -4 -3 -5 -6 -5h-258c-3 0 -4 1 -3 5l5 18c1 4 2 5 6 6l62 10c18 3 29 11 36 38
l151 538c28 99 13 100 -42 105l-17 1c-4 0 -4 3 -3 6l4 18c1 4 4 5 6 5h263c3 0 5 -1 4 -5l-4 -18c-1 -4 -2 -5 -6 -6l-62 -10c-19 -3 -30 -11 -37 -38l-67 -241c-1 -4 1 -7 5 -7h302c4 0 8 2 9 7l51 183c28 99 12 100 -43 105l-12 1c-4 0 -4 3 -3 6l4 18c1 4 4 5 6 5h259
c3 0 5 -1 4 -5l-4 -18c-1 -4 -2 -5 -6 -6l-63 -10c-19 -3 -29 -11 -36 -38l-151 -538c-25 -89 -13 -100 42 -105l11 -1c4 0 5 -3 4 -6l-5 -18c-1 -4 -3 -5 -5 -5z" />
    <glyph glyph-name="I" unicode="I" horiz-adv-x="300" 
d="M229 0h-258c-3 0 -4 1 -3 5l5 18c1 3 2 5 6 6l61 10c19 3 29 11 37 38l151 538c28 99 13 100 -43 105l-11 1c-3 0 -4 2 -3 6l4 18c1 4 3 5 6 5h259c2 0 4 -1 3 -5l-4 -18c-1 -4 -2 -5 -6 -6l-63 -10c-18 -3 -29 -11 -36 -38l-151 -538c-25 -89 -13 -100 42 -105l12 -1
c4 0 4 -3 3 -6l-5 -18c-1 -4 -3 -5 -6 -5z" />
    <glyph glyph-name="J" unicode="J" horiz-adv-x="488" 
d="M311 215l112 399c27 99 14 103 -43 105l-37 1c-4 0 -5 3 -4 6l5 19c1 3 4 5 6 5h281c3 0 4 -2 3 -6l-4 -17c-1 -4 -2 -5 -6 -6l-58 -10c-19 -3 -30 -11 -37 -38l-120 -428c-33 -116 -105 -257 -255 -257c-89 0 -164 62 -145 181c7 45 39 92 89 92c32 0 56 -24 51 -60
c-5 -34 -31 -57 -67 -67c-14 -4 -26 -8 -22 -30c8 -40 41 -66 94 -66c83 0 127 73 157 177z" />
    <glyph glyph-name="K" unicode="K" horiz-adv-x="680" 
d="M620 0h-255c-3 0 -6 1 -5 5l5 18c1 3 3 6 7 6l40 2c25 2 33 11 36 22c2 9 -1 22 -5 35l-101 328l-103 -83l-55 -198c-28 -99 -13 -100 43 -105l12 -1c4 0 4 -3 3 -6l-5 -18c-1 -4 -3 -5 -5 -5h-260c-2 0 -4 1 -3 5l5 18c1 3 3 5 6 6l62 10c19 3 28 11 36 38l151 538
c28 99 13 100 -42 105l-16 1c-4 0 -5 2 -4 6l4 18c1 4 4 5 6 5h262c2 0 3 -2 2 -5l-4 -18c-1 -4 -3 -5 -6 -6l-59 -10c-19 -3 -30 -11 -37 -38l-72 -256l306 248c12 10 22 20 25 31c4 15 -6 23 -27 24l-23 1c-5 0 -6 2 -5 6l4 18c1 3 4 5 7 5h245c3 0 4 -2 3 -5l-4 -18
c-1 -4 -3 -5 -7 -6l-30 -5c-42 -7 -66 -21 -119 -64l-226 -180l115 -353c20 -61 41 -80 78 -86l23 -4c4 -1 4 -3 3 -6l-5 -18c-1 -4 -3 -5 -6 -5z" />
    <glyph glyph-name="L" unicode="L" horiz-adv-x="592" 
d="M490 0h-519c-2 0 -4 1 -3 5l5 18c1 3 3 5 6 6l62 10c19 3 29 11 37 38l151 538c28 99 13 101 -43 105l-16 1c-3 0 -4 2 -3 6l4 18c1 3 3 5 6 5h264c3 0 4 -2 3 -5l-4 -18c-1 -4 -2 -5 -6 -6l-63 -10c-19 -3 -29 -11 -36 -38l-156 -555c-17 -60 -12 -70 36 -70h157
c70 0 90 16 111 75l47 136c2 5 5 6 8 6h31c3 0 6 -1 5 -6l-72 -248c-2 -6 -6 -11 -12 -11z" />
    <glyph glyph-name="M" unicode="M" horiz-adv-x="899" 
d="M829 0h-266c-3 0 -6 1 -5 5l5 18c1 3 3 5 7 6l69 10c19 3 29 11 37 38l160 571h-1s-11 -17 -24 -36l-393 -540c-2 -3 -4 -4 -8 -4h-12c-4 0 -4 1 -5 4l-89 540c-3 19 -4 36 -4 36h-1l-144 -513c-28 -99 -13 -102 42 -105l19 -1c5 0 5 -3 4 -6l-5 -18c-1 -4 -2 -5 -5 -5
h-238c-3 0 -4 1 -3 5l5 18c1 3 2 5 6 6l62 10c19 3 28 11 36 38l151 538c28 99 13 100 -43 105l-16 1c-4 0 -4 2 -3 6l4 18c1 3 3 5 6 5h185c5 0 7 -2 8 -7l84 -529l381 529c3 5 7 7 12 7h191c3 0 5 -1 4 -5l-4 -18c-1 -4 -3 -5 -7 -6l-63 -10c-19 -3 -28 -11 -35 -38
l-151 -538c-28 -99 -13 -100 42 -105l12 -1c4 0 4 -3 3 -6l-5 -18c-1 -4 -2 -5 -5 -5z" />
    <glyph glyph-name="N" unicode="N" horiz-adv-x="695" 
d="M542 0h-37c-5 0 -8 2 -9 5l-189 612c-6 19 -8 33 -8 33h-1l-144 -515c-28 -99 -12 -100 42 -105l17 -1c4 0 4 -3 3 -6l-5 -18c-1 -4 -3 -5 -5 -5h-236c-3 0 -4 2 -3 5l5 18c1 3 2 5 6 6l62 10c19 3 29 11 37 38l151 538c28 99 12 100 -43 105l-16 1c-4 0 -4 2 -3 6l4 18
c1 3 2 5 5 5h179c5 0 5 -2 6 -5l166 -534c6 -19 9 -33 9 -33h1l111 397c36 129 23 140 -31 145l-17 1c-4 0 -4 2 -3 6l4 18c1 4 4 5 6 5h235c3 0 4 -2 3 -5l-4 -18c-1 -4 -2 -5 -5 -6l-63 -10c-19 -3 -30 -11 -37 -38l-188 -669c-1 -3 -2 -4 -5 -4z" />
    <glyph glyph-name="O" unicode="O" horiz-adv-x="699" 
d="M321 42c207 0 305 313 305 489c0 117 -52 177 -134 177c-207 0 -305 -313 -305 -489c0 -117 52 -177 134 -177zM325 -12c-152 0 -231 121 -231 278c0 260 185 496 394 496c152 0 231 -121 231 -278c0 -260 -185 -496 -394 -496z" />
    <glyph glyph-name="P" unicode="P" horiz-adv-x="589" 
d="M245 0h-273c-2 0 -4 1 -3 5l5 18c1 4 3 5 6 6l63 10c19 3 27 11 35 38l151 538c28 99 13 100 -42 105l-17 1c-4 0 -4 2 -3 6l4 18c1 4 3 5 5 5h255c152 0 245 -75 217 -218c-26 -135 -152 -212 -315 -212h-97l-50 -177c-28 -99 -16 -111 41 -113l24 -1c5 0 5 -3 4 -6
l-5 -18c-1 -4 -2 -5 -5 -5zM250 368h86c103 0 195 42 218 170c24 135 -40 168 -131 168h-22c-48 0 -59 -10 -76 -70z" />
    <glyph glyph-name="Q" unicode="Q" horiz-adv-x="699" 
d="M629 -14l23 -6c4 -1 5 -3 3 -8c-22 -63 -69 -132 -149 -132c-64 0 -115 39 -143 114l-13 35c-8 -1 -17 -1 -25 -1c-152 0 -231 121 -231 278c0 260 185 496 394 496c152 0 231 -121 231 -278c0 -218 -130 -418 -294 -478l6 -18c16 -46 46 -90 93 -90c46 0 79 40 99 84
c1 3 2 5 6 4zM321 42c207 0 305 313 305 489c0 117 -52 177 -134 177c-207 0 -305 -313 -305 -489c0 -117 52 -177 134 -177z" />
    <glyph glyph-name="R" unicode="R" horiz-adv-x="628" 
d="M261 408h80c101 0 175 60 192 155c20 110 -28 143 -115 143h-17c-48 0 -59 -10 -76 -70zM599 22l-3 -17c-1 -5 -4 -7 -7 -8c-15 -5 -30 -9 -52 -9c-105 0 -113 71 -95 170c26 141 16 202 -97 202h-97l-62 -215c-28 -99 -16 -113 41 -115l24 -1c5 0 5 -3 4 -6l-5 -18
c-1 -4 -3 -5 -6 -5h-271c-3 0 -5 1 -4 5l5 18c1 3 3 5 7 6l62 10c19 3 27 11 35 38l151 538c28 99 13 100 -42 105l-17 1c-4 0 -4 2 -3 6l4 18c1 4 3 5 6 5h245c133 0 229 -55 206 -187c-16 -94 -91 -152 -187 -179v-2c82 -17 111 -87 92 -191c-16 -92 -32 -167 36 -167
c8 0 18 1 24 3s7 0 6 -5z" />
    <glyph glyph-name="S" unicode="S" horiz-adv-x="546" 
d="M567 522h-18c-5 0 -8 1 -7 7c14 127 -42 184 -135 184c-65 0 -130 -38 -142 -110c-15 -87 48 -135 117 -179c75 -48 153 -108 131 -229c-22 -124 -128 -207 -262 -207c-68 0 -127 26 -167 62c-18 16 -26 11 -33 -2l-24 -44c-2 -3 -4 -4 -7 -4h-18c-3 0 -4 1 -3 4l61 228
c1 5 5 6 8 6h16c5 0 8 -1 7 -7c-19 -143 75 -194 154 -194c87 0 165 61 181 146c16 82 -39 130 -100 168c-82 51 -171 108 -147 242c18 103 117 169 227 169c60 0 110 -18 155 -57c6 -5 16 -12 25 4l20 37c1 2 2 4 5 4h21c2 0 3 -1 2 -4l-60 -218c-1 -5 -4 -6 -7 -6z" />
    <glyph glyph-name="T" unicode="T" horiz-adv-x="641" 
d="M410 0h-279c-3 0 -5 1 -4 5l5 19c1 3 3 5 7 6l71 10c19 3 30 11 37 38l162 574c11 40 5 50 -33 50h-51c-69 0 -92 -12 -112 -71l-36 -103c-2 -5 -5 -6 -8 -6h-30c-4 0 -7 1 -6 6l62 211c2 6 7 11 13 11h546c5 0 9 -5 7 -11l-58 -211c-1 -5 -4 -6 -8 -6h-30
c-3 0 -7 1 -6 6l22 103c12 59 -1 71 -70 71h-51c-38 0 -50 -10 -61 -50l-146 -516c-28 -99 -13 -102 42 -105l21 -1c5 0 5 -3 4 -6l-5 -19c-1 -4 -2 -5 -5 -5z" />
    <glyph glyph-name="U" unicode="U" horiz-adv-x="717" 
d="M592 275l96 340c28 99 13 99 -43 105l-10 1c-5 0 -6 3 -5 6l4 18c1 4 3 5 6 5h225c3 0 5 -1 4 -5l-4 -18c-1 -3 -3 -5 -6 -6l-63 -10c-18 -3 -29 -11 -36 -38l-113 -401c-50 -179 -133 -284 -305 -284c-147 0 -273 99 -218 294l95 333c28 99 13 101 -43 105l-15 1
c-4 0 -5 2 -4 6l4 18c1 4 3 5 6 5h263c3 0 5 -1 4 -5l-4 -18c-1 -3 -3 -5 -7 -6l-63 -10c-19 -3 -27 -11 -35 -38l-113 -395c-36 -128 12 -229 142 -229c144 0 201 96 238 226z" />
    <glyph glyph-name="V" unicode="V" horiz-adv-x="699" 
d="M319 0h-38c-5 0 -8 2 -8 7l-47 634c-5 62 -13 75 -54 79l-10 1c-5 0 -5 2 -4 6l4 18c1 4 4 5 8 5h240c3 0 5 -1 4 -5l-4 -18c-1 -4 -3 -5 -7 -6l-50 -7c-26 -4 -40 -18 -38 -48l33 -534h2l325 524c9 15 16 27 18 36c6 19 -6 24 -29 26l-40 3c-5 0 -5 2 -4 6l4 18
c1 3 4 5 7 5h219c3 0 4 -2 3 -5l-4 -18c-1 -4 -3 -5 -7 -6l-33 -5c-27 -4 -36 -13 -56 -44l-423 -665c-4 -6 -6 -7 -11 -7z" />
    <glyph glyph-name="W" unicode="W" horiz-adv-x="1002" 
d="M632 0h-44c-5 0 -8 2 -8 7l-27 343l-218 -343c-3 -5 -4 -7 -10 -7h-42c-6 0 -9 2 -9 7l-48 634c-5 62 -13 75 -54 79l-11 1c-4 0 -4 2 -3 6l4 18c1 4 3 5 6 5h219c3 0 5 -2 4 -5l-4 -17c-1 -3 -3 -5 -7 -6l-35 -6c-26 -5 -36 -20 -34 -50l35 -550h2l198 318l-15 207
c-4 62 -4 75 -45 79l-11 1c-4 0 -4 2 -3 6l4 18c1 3 2 5 5 5h361c3 0 4 -2 3 -5l-4 -18c-1 -4 -4 -6 -7 -6l-19 -2c-27 -3 -37 -15 -57 -47l-134 -211l22 -354h2l332 548c9 16 15 28 17 37c5 19 -7 23 -29 25l-40 4c-3 0 -4 2 -3 6l4 18c1 3 3 5 6 5h218c2 0 4 -1 3 -5
l-4 -18c-1 -4 -3 -5 -6 -6l-33 -5c-28 -4 -37 -13 -57 -44l-413 -665c-3 -5 -5 -7 -11 -7zM617 545l71 116c27 45 29 60 0 60h-46c-25 0 -33 -19 -32 -47z" />
    <glyph glyph-name="X" unicode="X" horiz-adv-x="701" 
d="M636 0h-249c-3 0 -5 1 -4 5l5 18c1 3 2 6 7 6l23 1c39 2 59 17 41 69l-79 227l-207 -230c-36 -40 -42 -65 -4 -66l28 -1c5 0 5 -2 4 -6l-5 -18c-1 -4 -2 -5 -5 -5h-227c-2 0 -4 1 -3 5l7 22c1 4 2 5 7 6l24 3c43 5 61 21 121 86l239 260l-90 260c-19 56 -24 68 -60 72
l-27 3c-3 0 -4 2 -3 6l6 22c1 3 3 5 6 5h249c3 0 4 -2 3 -5l-4 -18c-1 -4 -2 -6 -7 -6l-28 -1c-39 -1 -53 -17 -36 -69l64 -197l180 200c36 40 40 64 -1 66l-19 1c-5 0 -5 2 -4 6l4 18c1 3 2 5 6 5h219c3 0 4 -2 3 -5l-6 -22c-1 -4 -3 -6 -6 -6l-23 -3
c-42 -5 -60 -22 -120 -86l-214 -232l104 -280c24 -65 30 -75 66 -80l24 -3c3 0 4 -2 3 -6l-7 -22c-1 -4 -3 -5 -5 -5z" />
    <glyph glyph-name="Y" unicode="Y" horiz-adv-x="689" 
d="M427 0h-279c-3 0 -4 2 -3 5l5 18c1 3 3 5 7 6l72 10c19 3 28 11 36 38l76 273l-93 284c-22 66 -28 82 -66 85l-21 2c-4 0 -5 2 -4 6l4 18c1 3 3 5 7 5h235c3 0 4 -2 3 -5l-4 -18c-1 -4 -2 -6 -6 -6l-14 -1c-44 -3 -61 -15 -45 -68l73 -244l221 246c36 40 41 65 0 68
l-13 1c-5 0 -6 2 -5 6l4 16c1 3 3 5 7 5h216c3 0 5 -1 4 -5l-4 -20c-1 -4 -3 -5 -7 -6l-23 -3c-42 -5 -61 -24 -121 -88l-258 -278l-63 -225c-25 -91 -10 -92 46 -95l20 -1c5 0 5 -3 4 -6l-5 -18c-1 -4 -3 -5 -6 -5z" />
    <glyph glyph-name="Z" unicode="Z" horiz-adv-x="613" 
d="M503 0h-525l10 39l579 644c13 14 8 19 -4 19h-216c-69 0 -93 -15 -113 -75l-32 -94c-2 -5 -6 -6 -9 -6h-31c-4 0 -7 1 -5 6l60 206c2 7 8 11 14 11h484l-12 -39l-581 -644c-14 -15 -5 -19 5 -19h258c69 0 92 16 113 75l43 124c2 5 5 6 8 6h30c4 0 6 -1 5 -6l-69 -236
c-2 -6 -7 -11 -12 -11z" />
    <glyph glyph-name="bracketleft" unicode="[" horiz-adv-x="285" 
d="M179 -139h-199c-2 0 -4 2 -3 5l285 992c1 3 3 5 6 5h198c2 0 4 -2 3 -5l-7 -22c-1 -3 -3 -6 -6 -6l-57 -1c-49 -1 -64 -6 -86 -85l-219 -764c-23 -79 -10 -84 37 -85l56 -1c4 0 4 -2 3 -6l-6 -22c-1 -3 -3 -5 -5 -5z" />
    <glyph glyph-name="backslash" unicode="\" horiz-adv-x="442" 
d="M285 -113h-45c-4 0 -6 2 -6 7l-57 901c0 4 3 7 7 7h45c4 0 6 -2 6 -7l57 -901c0 -4 -3 -7 -7 -7z" />
    <glyph glyph-name="bracketright" unicode="]" horiz-adv-x="286" 
d="M120 -139h-197c-3 0 -4 2 -3 5l6 22c1 4 3 6 6 6l56 1c49 1 64 6 87 85l219 764c22 79 9 84 -38 85l-56 1c-4 0 -4 2 -3 6l7 22c1 4 3 5 5 5h199c2 0 4 -2 3 -5l-285 -992c-1 -3 -3 -5 -6 -5z" />
    <glyph glyph-name="asciicircum" unicode="^" horiz-adv-x="473" 
d="M500 362h-41c-5 0 -8 2 -9 8l-65 314l-245 -314c-5 -6 -10 -8 -15 -8h-51c-6 0 -5 6 -2 10l296 371c5 6 9 7 16 7h31c7 0 10 -2 11 -7l82 -371c1 -4 -2 -10 -8 -10z" />
    <glyph glyph-name="underscore" unicode="_" horiz-adv-x="502" 
d="M392 -140h-464c-3 0 -5 3 -4 7l13 44c1 4 4 7 8 7h464c4 0 6 -3 5 -7l-13 -44c-1 -4 -5 -7 -9 -7z" />
    <glyph glyph-name="grave" unicode="`" horiz-adv-x="540" 
d="M458 570l-177 83c-27 13 -36 31 -23 54c15 26 36 29 60 10l155 -121c5 -4 5 -9 0 -17c-5 -9 -9 -12 -15 -9z" />
    <glyph glyph-name="a" unicode="a" horiz-adv-x="585" 
d="M410 301l3 13c21 92 -19 154 -69 154c-69 0 -153 -106 -193 -240c-36 -123 -15 -190 45 -190c66 0 175 92 214 263zM557 177l14 -1c6 -1 8 -3 5 -12c-47 -132 -95 -176 -147 -176c-47 0 -73 33 -65 99c1 9 3 18 5 27h-4c-63 -87 -127 -126 -186 -126
c-104 0 -157 102 -116 245c49 170 180 279 277 279c42 0 76 -14 107 -61c9 -14 21 -21 35 1l26 41c3 5 6 7 13 7h19c5 0 7 -2 5 -8l-106 -378c-16 -56 -10 -78 11 -78c19 0 51 21 94 130c3 9 7 11 13 11z" />
    <glyph glyph-name="b" unicode="b" horiz-adv-x="538" 
d="M236 34c78 0 150 104 190 238c36 123 13 190 -55 190c-66 0 -166 -91 -210 -251c-31 -115 3 -177 75 -177zM75 188l137 492c22 79 7 82 -39 85l-15 1c-4 0 -5 3 -4 6l4 16c1 4 4 5 6 5h160c3 0 4 -2 3 -5l-103 -368c-2 -8 2 -8 6 -4c54 67 107 96 158 96
c112 0 168 -102 126 -245c-50 -170 -165 -279 -277 -279c-83 0 -141 57 -161 132c-5 20 -8 42 -1 68z" />
    <glyph glyph-name="c" unicode="c" horiz-adv-x="467" 
d="M401 128l15 -11c3 -2 3 -6 -2 -12c-58 -80 -119 -117 -197 -117c-133 0 -194 117 -145 272c45 145 172 252 288 252c80 0 142 -45 129 -113c-7 -36 -36 -62 -65 -62s-48 26 -42 57c6 28 22 45 22 55c0 4 -1 7 -6 11c-9 7 -23 11 -41 11c-80 0 -159 -95 -195 -207
c-48 -148 -2 -224 83 -224c53 0 103 31 147 85c3 4 6 5 9 3z" />
    <glyph glyph-name="d" unicode="d" horiz-adv-x="596" 
d="M414 277l10 37c7 25 8 50 4 70c-10 53 -41 84 -80 84c-73 0 -156 -106 -196 -240c-39 -133 -13 -190 55 -190c63 0 166 87 207 239zM568 177l14 -1c6 -1 8 -3 5 -12c-47 -132 -95 -176 -147 -176c-47 0 -74 33 -66 99c1 9 3 18 5 27h-3c-63 -87 -127 -126 -186 -126
c-112 0 -171 92 -126 245c50 170 174 279 281 279c41 0 76 -15 105 -64c2 -4 9 -4 11 2l64 230c22 79 7 82 -39 85l-15 1c-4 0 -5 3 -4 6l4 16c1 4 4 5 6 5h160c3 0 4 -2 3 -5l-190 -674c-16 -56 -10 -78 11 -78c19 0 51 21 94 130c3 9 7 11 13 11z" />
    <glyph glyph-name="e" unicode="e" horiz-adv-x="471" 
d="M404 122l15 -13c2 -2 2 -4 -3 -10c-63 -76 -123 -111 -201 -111c-133 0 -193 117 -143 272c48 149 165 252 281 252c86 0 153 -55 131 -140c-18 -72 -105 -168 -340 -176c-15 -103 28 -156 99 -156c53 0 105 31 151 81c5 5 8 3 10 1zM151 237c181 8 244 88 256 145
c10 47 -12 85 -62 85c-99 0 -173 -146 -194 -230z" />
    <glyph glyph-name="f" unicode="f" horiz-adv-x="321" 
d="M61 17l122 438h-87c-4 0 -6 2 -5 7l9 31c1 4 4 7 9 7h87l26 93c31 109 86 190 183 190c65 0 115 -35 107 -94c-4 -30 -29 -55 -59 -55s-47 24 -44 50c3 21 16 36 17 48c1 13 -10 17 -22 17c-50 0 -75 -65 -93 -129l-34 -120h127c4 0 6 -3 5 -7l-9 -31c-1 -5 -4 -7 -8 -7
h-128l-117 -410c-60 -210 -125 -295 -197 -295c-58 0 -96 35 -92 86c2 27 19 48 45 48s42 -20 39 -42c-2 -20 -13 -30 -14 -43c-1 -11 7 -20 20 -20c34 0 63 60 113 238z" />
    <glyph glyph-name="g" unicode="g" horiz-adv-x="501" 
d="M151 90l84 -11c105 -14 185 -54 169 -160c-16 -103 -138 -177 -274 -177c-102 0 -180 45 -179 132c0 68 55 118 117 146c-30 18 -45 48 -37 86c9 43 49 77 118 97c-29 33 -38 78 -29 132c18 99 111 177 211 177c34 0 66 -9 89 -25c-2 61 35 110 95 110
c42 0 74 -26 68 -70c-3 -22 -20 -42 -42 -42c-23 0 -37 18 -34 41c1 11 5 18 5 24c0 5 -3 9 -12 9c-32 0 -47 -29 -47 -60c0 -23 5 -48 14 -65c13 -27 17 -63 11 -99c-16 -99 -114 -177 -215 -177c-33 0 -65 8 -87 23c-34 -8 -66 -27 -70 -48c-4 -22 12 -39 45 -43zM218 -1
l-61 5c-19 1 -39 4 -52 7c-50 -29 -88 -73 -88 -126c0 -57 43 -96 133 -96c89 0 181 46 194 119c11 60 -31 83 -126 91zM265 201c61 0 112 50 133 136c20 83 -11 132 -72 132s-107 -39 -128 -127c-20 -86 6 -141 67 -141z" />
    <glyph glyph-name="h" unicode="h" horiz-adv-x="578" 
d="M553 177l14 -1c6 -1 8 -3 5 -12c-47 -132 -99 -176 -151 -176c-60 0 -82 45 -76 96c7 57 75 228 88 293c12 59 -17 85 -58 85c-64 0 -163 -93 -209 -253l-58 -204c-1 -3 -2 -5 -5 -5h-76c-4 0 -5 2 -4 6l191 674c22 79 7 82 -39 85l-15 1c-4 0 -5 3 -4 6l4 16
c1 4 4 5 6 5h160c3 0 4 -2 3 -5l-102 -370c-2 -8 2 -8 5 -4c56 68 114 98 168 98c76 0 134 -39 117 -134c-10 -55 -86 -246 -93 -304c-4 -27 6 -38 21 -38c20 0 52 21 95 130c4 9 7 11 13 11z" />
    <glyph glyph-name="i" unicode="i" horiz-adv-x="299" 
d="M271 177l14 -1c6 -1 8 -3 5 -12c-47 -132 -99 -176 -151 -176c-49 0 -74 37 -74 83c0 19 4 43 11 64l98 304c8 24 -9 24 -30 17c-15 -5 -37 -13 -50 -19c-8 -4 -11 -2 -14 3l-4 7c-3 5 -3 9 5 14c33 21 90 51 123 51c10 0 26 -2 37 -10c23 -16 24 -41 15 -68l-107 -332
c-15 -46 -6 -66 15 -66c19 0 51 21 94 130c3 9 7 11 13 11zM262 592c-32 0 -57 25 -57 57s25 57 57 57s57 -25 57 -57s-25 -57 -57 -57z" />
    <glyph glyph-name="j" unicode="j" horiz-adv-x="270" 
d="M275 592c-32 0 -57 25 -57 57s25 57 57 57s57 -25 57 -57s-25 -57 -57 -57zM54 -27l132 466c7 24 -9 24 -30 17c-15 -5 -37 -13 -50 -19c-8 -4 -11 -2 -14 3l-4 7c-3 5 -3 9 5 14c33 21 90 51 123 51c10 0 26 -2 37 -10c23 -16 23 -41 15 -68l-122 -434
c-11 -39 -23 -77 -38 -108c-42 -88 -93 -142 -161 -142c-59 0 -108 35 -97 91c6 29 30 52 58 52s45 -23 41 -47c-4 -19 -17 -34 -18 -45c-1 -12 9 -15 17 -15c45 0 74 73 106 187z" />
    <glyph glyph-name="k" unicode="k" horiz-adv-x="538" 
d="M507 177l14 -1c7 -1 8 -5 5 -12c-45 -125 -95 -176 -147 -176c-60 0 -84 45 -78 96c3 27 10 60 15 95c9 60 -14 106 -85 106h-45l-78 -279c-1 -5 -3 -6 -6 -6h-75c-2 0 -5 1 -4 6l190 674c22 79 7 82 -39 85l-15 1c-4 0 -5 3 -4 6l4 16c1 4 4 5 6 5h160c3 0 4 -2 3 -5
l-131 -466h12c64 0 99 33 128 78c37 60 68 112 131 112c46 0 82 -31 78 -78c-3 -34 -27 -58 -56 -58s-44 26 -44 48c0 15 3 22 5 30c2 9 -3 14 -10 14c-14 0 -30 -17 -64 -72c-25 -40 -45 -71 -90 -88c75 -7 118 -47 104 -133c-4 -25 -12 -73 -15 -101c-3 -27 8 -38 23 -38
c19 0 54 29 95 130c3 9 7 11 13 11z" />
    <glyph glyph-name="l" unicode="l" horiz-adv-x="286" 
d="M254 177l14 -1c6 -1 8 -3 5 -12c-47 -132 -99 -176 -151 -176s-83 33 -75 99c1 9 3 18 5 27l160 566c23 79 7 82 -39 85l-15 1c-4 0 -5 3 -4 6l4 16c1 4 4 5 6 5h159c3 0 4 -2 3 -5l-190 -674c-16 -56 -10 -78 11 -78c19 0 51 21 94 130c3 9 7 11 13 11z" />
    <glyph glyph-name="m" unicode="m" horiz-adv-x="866" 
d="M840 177l14 -1c8 -1 7 -5 5 -12c-44 -125 -92 -176 -147 -176c-60 0 -86 45 -80 96c7 57 74 238 89 303c11 49 -10 75 -49 75c-59 0 -158 -93 -204 -253l-58 -204c-1 -3 -2 -5 -5 -5h-76c-4 0 -5 2 -4 5l101 354c19 67 -2 103 -41 103c-59 0 -158 -93 -204 -253l-58 -204
c-1 -4 -3 -5 -5 -5h-77c-3 0 -4 2 -3 5l121 427c7 24 -10 30 -31 23c-15 -5 -34 -12 -47 -18c-8 -4 -11 -2 -14 3l-4 7c-3 5 -3 9 5 14c33 21 90 51 123 51c10 0 25 -2 36 -10c18 -13 16 -32 11 -52l-10 -40c-2 -8 5 -8 8 -4c69 80 126 106 172 106c65 0 104 -32 105 -102
c0 -8 5 -8 8 -4c69 80 128 106 174 106c72 0 125 -39 109 -124c-10 -55 -86 -256 -93 -314c-4 -27 6 -38 21 -38c21 0 56 29 95 130c3 9 7 11 13 11z" />
    <glyph glyph-name="n" unicode="n" horiz-adv-x="594" 
d="M568 177l14 -1c8 -1 7 -5 5 -12c-44 -125 -92 -176 -147 -176c-60 0 -86 45 -80 96c7 57 75 228 88 293c12 59 -14 85 -55 85c-64 0 -166 -93 -212 -253l-58 -204c-1 -4 -3 -5 -5 -5h-77c-3 0 -4 2 -3 5l121 427c7 24 -10 30 -31 23c-15 -5 -34 -12 -47 -18
c-8 -4 -11 -2 -14 3l-4 7c-3 5 -3 9 5 14c33 21 90 51 123 51c10 0 25 -2 36 -10c18 -13 16 -32 11 -52l-10 -40c-2 -8 5 -8 8 -4c69 80 129 106 180 106c75 0 133 -39 116 -134c-10 -55 -85 -246 -93 -304c-4 -27 6 -38 21 -38c21 0 56 29 95 130c3 9 7 11 13 11z" />
    <glyph glyph-name="o" unicode="o" horiz-adv-x="509" 
d="M221 -12c-112 0 -161 93 -161 196c0 138 108 328 268 328c112 0 161 -93 161 -196c0 -138 -108 -328 -268 -328zM220 33c113 0 189 209 189 318c0 58 -21 116 -80 116c-113 0 -189 -206 -189 -315c0 -60 20 -119 80 -119z" />
    <glyph glyph-name="p" unicode="p" horiz-adv-x="551" 
d="M170 198l-3 -12c-6 -25 -7 -50 -3 -70c10 -53 40 -84 79 -84c73 0 156 106 196 240c39 133 13 190 -55 190c-66 0 -171 -94 -214 -264zM125 -256h-234c-2 0 -3 2 -2 5l4 16c1 3 2 5 5 6l48 8c18 3 29 13 36 40l172 613c7 24 -12 30 -33 23c-15 -5 -34 -12 -47 -18
c-8 -4 -11 -2 -14 3l-4 7c-3 5 -3 9 5 14c33 21 88 51 121 51c10 0 24 -2 35 -10c17 -12 15 -32 10 -52l-15 -64h3c64 87 127 126 186 126c112 0 171 -92 126 -245c-50 -170 -174 -279 -281 -279c-40 0 -79 14 -109 64c-2 3 -5 2 -6 -2l-54 -193c-20 -69 -8 -80 35 -84
l20 -2c4 0 4 -3 3 -6l-4 -16c-1 -4 -3 -5 -6 -5z" />
    <glyph glyph-name="q" unicode="q" horiz-adv-x="527" 
d="M448 -194l4 -7c3 -5 3 -9 -5 -14c-33 -21 -92 -51 -125 -51c-10 0 -26 2 -37 10c-23 16 -23 41 -15 68l77 272c2 8 -1 9 -5 4c-56 -69 -113 -100 -166 -100c-104 0 -153 102 -112 245c49 170 180 279 277 279c42 0 76 -14 107 -61c9 -14 21 -21 35 1l26 41c3 5 6 7 13 7
h19c5 0 7 -2 5 -8l-192 -685c-7 -24 9 -24 30 -17c15 5 37 13 50 19c8 4 11 2 14 -3zM411 301l3 13c21 92 -19 154 -69 154c-69 0 -153 -106 -193 -240c-36 -123 -15 -190 45 -190c66 0 175 92 214 263z" />
    <glyph glyph-name="r" unicode="r" horiz-adv-x="417" 
d="M118 0h-76c-4 0 -5 2 -4 6l121 426c7 24 -10 30 -31 23c-15 -5 -34 -12 -47 -18c-8 -4 -11 -2 -14 3l-4 7c-3 5 -3 9 5 14c33 21 90 51 123 51c10 0 25 -2 36 -10c18 -13 14 -32 9 -52l-13 -53l1 -1c56 80 117 116 167 116c44 0 93 -26 86 -83c-4 -39 -31 -63 -61 -63
s-47 25 -44 51c2 18 8 29 8 36c0 9 -12 10 -16 10c-45 0 -132 -74 -176 -230l-65 -228c-1 -3 -2 -5 -5 -5z" />
    <glyph glyph-name="s" unicode="s" horiz-adv-x="433" 
d="M377 127c-7 -90 -87 -139 -184 -139c-39 0 -87 14 -121 39c-31 23 -53 49 -52 83c1 37 25 60 53 60c30 0 49 -22 47 -50c-1 -16 -7 -29 -15 -41c-4 -6 -6 -14 1 -20c15 -14 47 -29 87 -29c69 0 112 41 114 89c2 46 -35 77 -88 110c-56 35 -112 83 -105 159
c8 91 92 124 159 124c32 0 68 -8 98 -25c31 -18 56 -45 56 -82c0 -32 -21 -59 -51 -59c-29 0 -48 23 -46 49c1 14 6 25 15 37c4 6 4 11 -1 15c-16 14 -43 23 -73 23c-51 0 -84 -29 -88 -72c-4 -47 37 -74 86 -106c74 -49 113 -98 108 -165z" />
    <glyph glyph-name="t" unicode="t" horiz-adv-x="333" 
d="M287 177l14 -1c6 -1 8 -3 5 -12c-47 -132 -109 -176 -161 -176s-84 33 -76 99c1 9 3 18 5 27l96 341h-75c-4 0 -6 3 -5 7l9 31c1 5 5 7 9 7h20c59 0 78 15 106 87l23 60c3 8 7 12 15 12h28c8 0 11 -3 9 -11l-41 -148h115c4 0 6 -3 5 -7l-9 -31c-1 -5 -5 -7 -9 -7h-115
l-96 -341c-16 -56 -10 -78 11 -78c19 0 61 21 104 130c3 9 7 11 13 11z" />
    <glyph glyph-name="u" unicode="u" horiz-adv-x="588" 
d="M560 177l14 -1c6 -1 8 -3 5 -12c-47 -132 -95 -176 -147 -176c-47 0 -74 33 -66 99c1 9 3 18 5 27h-4c-63 -87 -130 -126 -189 -126c-78 0 -133 44 -115 144c9 55 78 250 92 307c6 24 -9 24 -30 17c-15 -5 -37 -13 -50 -19c-8 -4 -11 -2 -14 3l-4 7c-3 5 -3 9 5 14
c33 21 90 51 123 51c10 0 26 -2 37 -10c23 -16 22 -40 15 -68c-29 -115 -81 -246 -92 -301c-13 -65 12 -95 53 -95c66 0 167 94 214 263l55 194c1 3 3 5 5 5h77c2 0 4 -2 3 -5l-108 -382c-16 -56 -12 -77 9 -77c19 0 51 21 94 130c3 9 7 11 13 11z" />
    <glyph glyph-name="v" unicode="v" horiz-adv-x="506" 
d="M88 206l67 233c7 24 -9 24 -30 17c-15 -5 -37 -13 -50 -19c-8 -4 -11 -2 -14 3l-4 7c-3 5 -3 9 5 14c33 21 90 51 123 51c10 0 26 -2 37 -10c23 -16 23 -40 15 -68l-70 -247c-31 -111 -27 -155 17 -155c62 0 244 145 276 325c7 37 -3 49 -15 49c-10 0 -17 -4 -30 -4
c-36 0 -51 29 -48 52c4 35 30 58 66 58c73 0 86 -77 78 -144c-20 -163 -207 -380 -341 -380c-121 0 -111 117 -82 218z" />
    <glyph glyph-name="w" unicode="w" horiz-adv-x="777" 
d="M380 153h-2c-56 -93 -136 -165 -211 -165c-118 0 -108 117 -79 218l67 233c7 24 -9 24 -30 17c-15 -5 -37 -13 -50 -19c-8 -4 -11 -2 -14 3l-4 7c-3 5 -3 9 5 14c33 21 90 51 123 51c10 0 26 -2 37 -10c23 -16 23 -40 15 -68l-70 -247c-31 -111 -27 -155 16 -155
c30 0 84 35 136 103c40 53 77 127 110 242l34 118c1 3 3 5 6 5h75c3 0 5 -2 4 -5l-87 -308c-31 -111 -27 -155 17 -155c57 0 221 145 253 325c7 37 -3 50 -15 50c-10 0 -17 -4 -28 -4c-34 0 -49 28 -46 51c4 35 30 58 64 58c71 0 84 -77 76 -144
c-20 -163 -192 -380 -318 -380c-101 0 -102 80 -84 165z" />
    <glyph glyph-name="x" unicode="x" horiz-adv-x="549" 
d="M490 147l13 -1c6 -1 7 -3 4 -12c-40 -112 -94 -146 -136 -146c-51 0 -77 33 -86 90l-19 108l-69 -102c-46 -68 -83 -97 -140 -96c-42 0 -74 26 -74 68c0 36 25 67 56 67c28 0 43 -21 43 -43c0 -20 -8 -27 -8 -37c0 -6 4 -10 10 -10c12 -1 36 9 77 69l96 140l-26 163
c-6 36 -20 51 -37 51c-16 0 -36 -7 -69 -62c-5 -9 -8 -14 -14 -12l-12 4c-3 1 -8 3 -4 12c36 84 83 114 125 114c50 0 76 -33 85 -88l15 -98l63 90c45 66 79 96 138 96c46 0 77 -25 77 -68c0 -36 -27 -67 -56 -67c-31 0 -45 21 -45 45c0 17 6 25 6 35c0 6 -3 10 -10 10
c-12 0 -32 -10 -74 -69l-90 -128l29 -171c6 -33 17 -51 40 -51c21 0 46 12 78 88c4 9 8 11 14 11z" />
    <glyph glyph-name="y" unicode="y" horiz-adv-x="533" 
d="M340 34l22 73h-2c-60 -84 -124 -119 -181 -119c-78 0 -132 44 -115 144c9 55 78 250 92 307c6 24 -9 24 -30 17c-15 -5 -37 -13 -50 -19c-8 -4 -11 -2 -14 3l-4 7c-3 5 -3 9 5 14c33 21 90 51 123 51c10 0 26 -2 37 -10c23 -16 22 -40 15 -68c-29 -115 -81 -246 -92 -301
c-13 -65 12 -95 53 -95c66 0 167 94 214 263l55 194c1 3 3 5 6 5h76c2 0 4 -2 3 -5l-126 -439c-15 -54 -28 -91 -41 -120c-52 -112 -131 -186 -243 -186c-88 0 -157 49 -146 115c6 35 30 65 65 65c25 0 47 -17 41 -49c-6 -33 -35 -43 -38 -54c-2 -6 0 -10 4 -15
c15 -15 42 -25 70 -25c96 0 157 99 201 247z" />
    <glyph glyph-name="z" unicode="z" horiz-adv-x="502" 
d="M119 340h-19c-4 0 -6 1 -5 6l43 158c2 8 8 12 16 10c68 -19 150 -32 237 -32c45 0 69 5 83 15c17 12 12 45 43 45c15 0 28 -8 28 -25c0 -32 -41 -81 -113 -134c-82 -61 -257 -207 -282 -238c-7 -9 -2 -12 7 -14c83 -19 140 -81 227 -82c20 0 32 12 32 26
c0 31 -75 24 -73 76c1 21 17 40 47 37c42 -4 66 -41 66 -84c0 -68 -48 -116 -122 -116c-94 0 -153 73 -232 73c-33 0 -43 -17 -48 -34c-5 -19 -8 -39 -35 -39c-19 0 -29 16 -29 33c0 19 13 40 30 57c87 91 266 240 393 343c6 5 2 9 -4 8c-31 -7 -93 -15 -148 -15
c-50 0 -79 5 -93 5c-12 0 -17 -3 -22 -18l-18 -55c-2 -5 -6 -6 -9 -6z" />
    <glyph glyph-name="braceleft" unicode="{" horiz-adv-x="319" 
d="M199 -187h-43c-88 0 -171 45 -111 183l87 200c34 78 18 127 -30 128h-41c-4 0 -4 3 -3 6l5 16c1 3 2 6 6 6h41c49 1 92 49 103 128l28 200c20 141 108 183 196 183h63c3 0 4 -2 3 -5l-7 -23c-1 -4 -3 -6 -7 -6h-47c-57 0 -107 -38 -120 -142l-24 -200
c-12 -97 -82 -139 -147 -152c58 -13 100 -74 56 -166l-85 -180c-47 -100 -18 -142 39 -142h47c4 0 4 -3 3 -6l-7 -23c-1 -3 -2 -5 -5 -5z" />
    <glyph glyph-name="bar" unicode="|" horiz-adv-x="245" 
d="M36 -207h-50c-4 0 -5 3 -4 7l309 1076c1 4 4 7 8 7h50c4 0 6 -3 5 -7l-309 -1076c-1 -4 -5 -7 -9 -7z" />
    <glyph glyph-name="braceright" unicode="}" horiz-adv-x="322" 
d="M-25 -187h-62c-2 0 -4 2 -3 5l7 23c1 4 3 6 7 6h46c57 0 106 39 119 142l25 200c12 95 82 140 146 153c-57 13 -99 71 -55 165l84 180c47 101 19 142 -38 142h-47c-4 0 -4 3 -3 6l7 23c1 3 3 5 6 5h42c88 0 171 -45 111 -183l-87 -200c-34 -78 -18 -127 29 -128h42
c3 0 4 -3 3 -6l-5 -16c-1 -3 -3 -6 -6 -6h-42c-48 -1 -91 -49 -102 -128l-28 -200c-20 -141 -108 -183 -196 -183z" />
    <glyph glyph-name="asciitilde" unicode="~" horiz-adv-x="559" 
d="M574 474h12c10 0 11 -2 8 -12c-20 -73 -74 -164 -164 -164c-95 0 -126 109 -206 109c-39 0 -80 -25 -106 -92c-4 -11 -7 -12 -15 -12h-13c-9 0 -11 2 -8 12c21 73 73 164 164 164c95 0 127 -109 206 -109c40 0 80 25 106 92c4 11 8 12 16 12z" />
    <glyph glyph-name="uni00A0" unicode="&#xa0;" horiz-adv-x="225" 
 />
    <glyph glyph-name="exclamdown" unicode="&#xa1;" horiz-adv-x="202" 
d="M-59 -213l172 484c3 8 10 8 19 7s16 -3 14 -11l-98 -494c-9 -45 -33 -64 -71 -59s-52 29 -36 73zM241 449c-5 -35 -36 -63 -68 -63c-33 0 -55 28 -50 63s35 63 68 63c32 0 55 -28 50 -63z" />
    <glyph glyph-name="cent" unicode="&#xa2;" horiz-adv-x="471" 
d="M189 -124h-26c-3 0 -5 3 -4 7l30 107c-116 12 -167 124 -121 270c43 138 160 241 271 251l27 95c1 4 5 7 8 7h26c4 0 6 -3 5 -7l-27 -94c75 -4 132 -48 120 -113c-7 -36 -36 -62 -65 -62s-48 26 -42 57c6 28 20 45 22 55c1 4 -1 7 -6 11c-8 7 -22 11 -40 11l-124 -431
c52 1 101 31 145 85c3 4 6 4 9 2l15 -11c3 -3 3 -5 -2 -11c-55 -75 -111 -112 -182 -116l-30 -106c-1 -4 -5 -7 -9 -7zM206 45l120 422c-70 -18 -136 -104 -168 -203c-41 -126 -14 -200 48 -219z" />
    <glyph glyph-name="sterling" unicode="&#xa3;" horiz-adv-x="554" 
d="M149 72c-22 15 -41 27 -66 27s-39 -20 -39 -39c0 -18 12 -34 37 -34c27 0 47 14 68 46zM484 183h20c4 0 6 -1 5 -6c-26 -151 -112 -189 -178 -189c-53 0 -108 25 -150 59c-31 -40 -65 -59 -102 -59c-50 0 -74 35 -74 71c0 40 28 81 85 81c24 0 50 -7 77 -21
c29 82 23 152 18 221h-98c-4 0 -5 3 -4 7l8 28c1 4 4 7 8 7h84c-3 43 -2 92 13 147c34 122 122 194 234 194c88 0 164 -52 155 -136c-4 -42 -34 -89 -78 -89c-28 0 -50 21 -49 53c1 30 24 45 54 56c14 5 15 16 12 25c-10 32 -47 48 -88 48c-69 0 -128 -46 -158 -152
c-16 -56 -17 -102 -17 -146h152c4 0 6 -3 5 -7l-8 -28c-1 -4 -5 -7 -9 -7h-140c0 -61 0 -120 -27 -195c-4 -13 -14 -36 -22 -48c45 -21 80 -40 138 -40c52 0 104 35 125 120c1 5 6 6 9 6z" />
    <glyph glyph-name="yen" unicode="&#xa5;" horiz-adv-x="638" 
d="M393 0h-258c-3 0 -4 2 -3 5l5 18c1 4 2 5 6 6l63 9c19 3 29 11 37 38l29 103h-181c-4 0 -5 3 -4 7l8 28c1 4 4 7 8 7h181l28 102h-181c-4 0 -5 3 -4 7l8 28c1 4 4 7 8 7h163l-75 219c-23 66 -27 82 -60 85l-22 2c-4 0 -4 3 -3 6l5 18c1 3 3 5 6 5h222c3 0 4 -2 3 -5
l-5 -18c-1 -3 -2 -6 -7 -6l-11 -1c-41 -3 -58 -15 -41 -68l66 -215l198 217c47 51 42 63 6 66l-14 1c-5 0 -5 3 -4 6l5 18c1 3 3 5 6 5h194c3 0 5 -2 4 -5l-5 -18c-1 -3 -3 -5 -7 -6l-22 -3c-36 -5 -55 -25 -116 -90l-201 -213h169c4 0 6 -3 5 -7l-8 -28c-1 -4 -5 -7 -9 -7
h-188l-28 -102h188c4 0 6 -3 5 -7l-8 -28c-1 -4 -5 -7 -9 -7h-188l-15 -54c-26 -91 -12 -93 37 -95l21 -1c4 0 5 -2 4 -6l-5 -18c-1 -3 -3 -5 -6 -5z" />
    <glyph glyph-name="brokenbar" unicode="&#xa6;" horiz-adv-x="246" 
d="M37 -207h-50c-4 0 -6 3 -5 7l131 456c1 4 5 7 9 7h50c4 0 6 -3 5 -7l-131 -456c-1 -4 -5 -7 -9 -7zM215 413h-50c-4 0 -6 3 -5 7l131 456c1 4 5 7 9 7h50c4 0 6 -3 5 -7l-131 -456c-1 -4 -5 -7 -9 -7z" />
    <glyph glyph-name="section" unicode="&#xa7;" 
d="M480 0h-480l210 750h480zM453 82l162 578l-246 -290zM75 91l245 289l-83 288zM417 50l-82 280l-237 -280h319zM355 421l236 279h-317z" />
    <glyph glyph-name="dieresis" unicode="&#xa8;" horiz-adv-x="540" 
d="M352 636c-3 -29 -30 -53 -57 -53c-28 0 -46 24 -43 53s30 53 57 53c28 0 46 -24 43 -53zM540 636c-3 -29 -30 -53 -57 -53c-28 0 -46 24 -43 53s30 53 57 53c28 0 46 -24 43 -53z" />
    <glyph glyph-name="copyright" unicode="&#xa9;" horiz-adv-x="863" 
d="M647 241l17 -13c3 -2 3 -6 -1 -11c-40 -59 -96 -96 -165 -96c-120 0 -207 105 -207 248c0 144 85 250 201 250c44 0 79 -16 114 -41c5 -3 10 -4 12 2l9 27c1 4 3 6 7 6h10c6 0 6 -2 6 -7v-160c0 -8 -4 -8 -8 -8h-7c-5 0 -7 0 -9 7c-22 76 -61 134 -131 134
c-81 0 -131 -84 -131 -200c0 -131 59 -211 140 -211c56 0 101 28 133 71c3 4 6 6 10 2zM485 -12c-214 0 -377 173 -377 387s163 387 377 387s377 -173 377 -387s-163 -387 -377 -387zM485 26c192 0 337 155 337 349s-145 349 -337 349s-337 -155 -337 -349
s145 -349 337 -349z" />
    <glyph glyph-name="ordfeminine" unicode="&#xaa;" horiz-adv-x="335" 
d="M340 644l2 8c12 51 -8 85 -34 85c-38 0 -84 -59 -106 -131c-7 -22 -10 -42 -10 -57c0 -31 12 -47 33 -47c36 0 94 49 115 142zM424 577h11c5 0 6 -3 4 -8c-28 -74 -56 -99 -85 -99c-27 0 -38 21 -38 56v6h-1c-33 -40 -69 -62 -100 -62c-46 0 -75 33 -75 86
c0 16 3 33 8 52c26 95 102 155 157 155c25 0 44 -8 61 -34c4 -6 9 -10 15 0l13 22c2 4 3 5 9 5h13c5 0 6 -2 5 -5l-60 -210c-8 -29 -5 -42 4 -42s28 18 50 71c2 5 4 7 9 7z" />
    <glyph glyph-name="guillemotleft" unicode="&#xab;" horiz-adv-x="455" 
d="M199 45h-22c-5 0 -8 2 -10 7l-98 219c-3 6 -2 13 6 21l194 172c5 5 9 7 14 7h28c4 0 5 -3 2 -7l-173 -194l65 -218c1 -3 0 -7 -6 -7zM372 45h-22c-6 0 -8 2 -10 7l-98 219c-3 6 -2 13 6 21l194 172c5 5 8 7 14 7h28c4 0 5 -3 2 -7l-173 -194l65 -218c1 -3 0 -7 -6 -7z
" />
    <glyph glyph-name="logicalnot" unicode="&#xac;" 
d="M480 0h-480l210 750h480zM453 82l162 578l-246 -290zM75 91l245 289l-83 288zM417 50l-82 280l-237 -280h319zM355 421l236 279h-317z" />
    <glyph glyph-name="registered" unicode="&#xae;" horiz-adv-x="477" 
d="M458 469v-13c-4 -2 -12 -4 -19 -4c-34 0 -41 19 -43 55c-2 38 -15 56 -47 56h-29v-58c0 -29 2 -34 20 -34h4c4 0 4 -2 4 -4v-8c0 -2 -1 -3 -4 -3h-83c-2 0 -3 1 -3 3v8c0 3 1 4 3 4l16 2c4 1 6 3 6 10v156c0 30 -2 32 -17 32h-6c-3 0 -4 2 -4 4v7c0 3 1 4 4 4h85
c47 0 81 -14 81 -56c0 -26 -16 -44 -40 -55c25 -7 40 -23 43 -55c3 -28 1 -53 19 -53c4 0 8 1 10 2zM320 584h24c29 0 44 15 44 43c0 31 -19 41 -48 41h-6c-11 0 -14 -3 -14 -20v-64zM349 396c99 0 173 78 173 175s-74 175 -173 175s-173 -78 -173 -175s74 -175 173 -175z
M551 571c0 -112 -89 -201 -202 -201s-202 89 -202 201s89 201 202 201s202 -89 202 -201z" />
    <glyph glyph-name="macron" unicode="&#xaf;" horiz-adv-x="540" 
d="M537 598h-297c-3 0 -6 3 -5 7l6 40c1 4 4 7 7 7h297c3 0 6 -3 5 -7l-6 -40c-1 -4 -4 -7 -7 -7z" />
    <glyph glyph-name="degree" unicode="&#xb0;" horiz-adv-x="281" 
d="M373 660c-8 -57 -57 -102 -110 -102s-88 45 -80 102s56 102 109 102s89 -45 81 -102zM337 660c6 38 -16 68 -49 68c-34 0 -64 -30 -70 -68s13 -68 47 -68c33 0 66 30 72 68z" />
    <glyph glyph-name="plusminus" unicode="&#xb1;" horiz-adv-x="603" 
d="M592 350h-217l-64 -226c-1 -4 -5 -7 -8 -7h-43c-3 0 -5 3 -4 7l64 226h-217c-4 0 -6 3 -5 7l12 44c1 4 5 7 9 7h217l64 226c1 4 5 7 8 7h43c3 0 5 -3 4 -7l-64 -226h217c4 0 6 -3 5 -7l-12 -44c-1 -4 -5 -7 -9 -7zM486 0h-472c-4 0 -6 3 -5 7l13 44c1 4 4 7 8 7h473
c3 0 5 -3 4 -7l-13 -44c-1 -4 -4 -7 -8 -7z" />
    <glyph glyph-name="twosuperior" unicode="&#xb2;" 
d="M480 0h-480l210 750h480zM453 82l162 578l-246 -290zM75 91l245 289l-83 288zM417 50l-82 280l-237 -280h319zM355 421l236 279h-317z" />
    <glyph glyph-name="threesuperior" unicode="&#xb3;" 
d="M480 0h-480l210 750h480zM453 82l162 578l-246 -290zM75 91l245 289l-83 288zM417 50l-82 280l-237 -280h319zM355 421l236 279h-317z" />
    <glyph glyph-name="acute" unicode="&#xb4;" horiz-adv-x="540" 
d="M490 653l-177 -83c-6 -3 -10 0 -15 9c-5 8 -5 13 0 17l155 121c24 19 45 16 60 -10c13 -23 4 -41 -23 -54z" />
    <glyph glyph-name="mu" unicode="&#xb5;" 
d="M480 0h-480l210 750h480zM453 82l162 578l-246 -290zM75 91l245 289l-83 288zM417 50l-82 280l-237 -280h319zM355 421l236 279h-317z" />
    <glyph glyph-name="mu" unicode="&#x3bc;" 
d="M480 0h-480l210 750h480zM453 82l162 578l-246 -290zM75 91l245 289l-83 288zM417 50l-82 280l-237 -280h319zM355 421l236 279h-317z" />
    <glyph glyph-name="paragraph" unicode="&#xb6;" horiz-adv-x="569" 
d="M354 -176h-43c-4 0 -5 3 -4 7l242 862c1 4 -1 7 -5 7h-96c-5 0 -8 -3 -9 -7l-242 -862c-1 -4 -5 -7 -9 -7h-42c-4 0 -6 3 -5 7l160 571h-13c-83 0 -144 49 -117 174s107 174 190 174h332c2 0 4 -2 3 -5l-5 -16c-1 -4 -2 -6 -6 -6l-18 -1c-39 -2 -56 -6 -78 -85l-227 -806
c-1 -4 -5 -7 -8 -7z" />
    <glyph glyph-name="periodcentered" unicode="&#xb7;" horiz-adv-x="197" 
d="M214 356c-5 -38 -36 -68 -72 -68c-35 0 -59 30 -54 68s36 68 72 68c35 0 59 -30 54 -68z" />
    <glyph glyph-name="cedilla" unicode="&#xb8;" horiz-adv-x="542" 
d="M207 14l12 -7c4 -2 3 -5 0 -7c-10 -8 -17 -15 -23 -21c-32 -33 -18 -40 -3 -45c56 -18 97 -45 96 -94c-1 -61 -54 -89 -115 -89c-48 0 -86 18 -107 35c-5 4 -4 8 2 17c6 10 10 11 16 8c15 -9 47 -23 82 -23c40 0 72 20 70 56c-2 35 -31 46 -66 59c-36 13 -57 36 -15 79
c10 10 23 21 40 32c3 2 7 3 11 0z" />
    <glyph glyph-name="onesuperior" unicode="&#xb9;" 
d="M480 0h-480l210 750h480zM453 82l162 578l-246 -290zM75 91l245 289l-83 288zM417 50l-82 280l-237 -280h319zM355 421l236 279h-317z" />
    <glyph glyph-name="ordmasculine" unicode="&#xba;" horiz-adv-x="317" 
d="M325 499c-23 -18 -49 -29 -75 -29c-40 0 -68 23 -82 50c-8 17 -14 40 -14 63c0 54 28 113 75 151c21 16 49 29 75 29c41 0 67 -24 81 -50c8 -17 14 -40 14 -63c0 -55 -26 -114 -74 -151zM248 497c63 0 102 121 102 174c0 29 -9 65 -44 65c-64 0 -103 -121 -103 -174
c0 -29 9 -65 45 -65z" />
    <glyph glyph-name="guillemotright" unicode="&#xbb;" horiz-adv-x="455" 
d="M419 224l-194 -172c-5 -5 -9 -7 -14 -7h-28c-4 0 -5 3 -2 7l173 194l-65 218c-1 3 0 7 6 7h22c5 0 8 -2 10 -7l98 -219c3 -6 2 -13 -6 -21zM246 224l-194 -172c-5 -5 -8 -7 -14 -7h-28c-4 0 -5 3 -2 7l173 194l-65 218c-1 3 0 7 6 7h22c6 0 8 -2 10 -7l98 -219
c3 -6 2 -13 -6 -21z" />
    <glyph glyph-name="onequarter" unicode="&#xbc;" 
d="M480 0h-480l210 750h480zM453 82l162 578l-246 -290zM75 91l245 289l-83 288zM417 50l-82 280l-237 -280h319zM355 421l236 279h-317z" />
    <glyph glyph-name="onehalf" unicode="&#xbd;" 
d="M480 0h-480l210 750h480zM453 82l162 578l-246 -290zM75 91l245 289l-83 288zM417 50l-82 280l-237 -280h319zM355 421l236 279h-317z" />
    <glyph glyph-name="threequarters" unicode="&#xbe;" 
d="M480 0h-480l210 750h480zM453 82l162 578l-246 -290zM75 91l245 289l-83 288zM417 50l-82 280l-237 -280h319zM355 421l236 279h-317z" />
    <glyph glyph-name="questiondown" unicode="&#xbf;" horiz-adv-x="417" 
d="M302 -131c0 -99 -96 -158 -183 -158c-122 0 -171 80 -171 152c0 12 1 23 3 34c37 172 275 175 291 363c1 12 13 13 23 13c13 0 20 -3 19 -14c-17 -227 -218 -223 -251 -375c-2 -10 -3 -20 -3 -29c0 -63 47 -99 107 -99c41 0 98 29 98 63c0 23 -32 27 -36 64
c-3 30 22 53 49 53c38 0 54 -34 54 -67zM361 449c-4 -35 -34 -63 -67 -63s-55 28 -51 63c5 35 35 63 68 63s55 -28 50 -63z" />
    <glyph glyph-name="Agrave" unicode="&#xc0;" horiz-adv-x="697" 
d="M639 0h-243c-3 0 -6 1 -5 5l5 18c1 3 2 5 6 6l52 7c26 4 40 18 38 48l-9 135c0 5 -3 6 -6 6h-258c-3 0 -7 -1 -10 -6l-78 -125c-8 -12 -16 -27 -17 -39s6 -21 29 -23l40 -3c5 0 5 -3 4 -6l-5 -18c-1 -4 -2 -5 -5 -5h-219c-3 0 -5 1 -4 5l5 18c1 3 3 5 7 6l32 5
c27 4 36 13 56 44l423 665c3 5 6 7 11 7h39c5 0 7 -2 7 -7l47 -634c5 -62 13 -75 54 -79l10 -1c5 0 5 -3 4 -6l-5 -18c-1 -4 -2 -5 -5 -5zM481 276l-23 342h-2l-212 -342c-2 -4 -2 -6 2 -6h229c4 0 6 2 6 6zM587 800l-177 83c-27 13 -36 31 -23 54c15 26 36 29 60 10
l155 -121c5 -4 5 -9 0 -17c-5 -9 -9 -12 -15 -9z" />
    <glyph glyph-name="Aacute" unicode="&#xc1;" horiz-adv-x="697" 
d="M639 0h-243c-3 0 -6 1 -5 5l5 18c1 3 2 5 6 6l52 7c26 4 40 18 38 48l-9 135c0 5 -3 6 -6 6h-258c-3 0 -7 -1 -10 -6l-78 -125c-8 -12 -16 -27 -17 -39s6 -21 29 -23l40 -3c5 0 5 -3 4 -6l-5 -18c-1 -4 -2 -5 -5 -5h-219c-3 0 -5 1 -4 5l5 18c1 3 3 5 7 6l32 5
c27 4 36 13 56 44l423 665c3 5 6 7 11 7h39c5 0 7 -2 7 -7l47 -634c5 -62 13 -75 54 -79l10 -1c5 0 5 -3 4 -6l-5 -18c-1 -4 -2 -5 -5 -5zM481 276l-23 342h-2l-212 -342c-2 -4 -2 -6 2 -6h229c4 0 6 2 6 6zM617 883l-177 -83c-6 -3 -10 0 -15 9c-5 8 -5 13 0 17l155 121
c24 19 45 16 60 -10c13 -23 4 -41 -23 -54z" />
    <glyph glyph-name="Acircumflex" unicode="&#xc2;" horiz-adv-x="697" 
d="M639 0h-243c-3 0 -6 1 -5 5l5 18c1 3 2 5 6 6l52 7c26 4 40 18 38 48l-9 135c0 5 -3 6 -6 6h-258c-3 0 -7 -1 -10 -6l-78 -125c-8 -12 -16 -27 -17 -39s6 -21 29 -23l40 -3c5 0 5 -3 4 -6l-5 -18c-1 -4 -2 -5 -5 -5h-219c-3 0 -5 1 -4 5l5 18c1 3 3 5 7 6l32 5
c27 4 36 13 56 44l423 665c3 5 6 7 11 7h39c5 0 7 -2 7 -7l47 -634c5 -62 13 -75 54 -79l10 -1c5 0 5 -3 4 -6l-5 -18c-1 -4 -2 -5 -5 -5zM481 276l-23 342h-2l-212 -342c-2 -4 -2 -6 2 -6h229c4 0 6 2 6 6zM649 782l-122 112l-152 -103c-5 -3 -8 -1 -14 6c-5 7 -7 13 -3 17
l148 135c11 10 16 12 27 12c9 0 16 -3 23 -12l111 -147c4 -5 4 -9 -3 -16s-11 -8 -15 -4z" />
    <glyph glyph-name="Atilde" unicode="&#xc3;" horiz-adv-x="697" 
d="M639 0h-243c-3 0 -6 1 -5 5l5 18c1 3 2 5 6 6l52 7c26 4 40 18 38 48l-9 135c0 5 -3 6 -6 6h-258c-3 0 -7 -1 -10 -6l-78 -125c-8 -12 -16 -27 -17 -39s6 -21 29 -23l40 -3c5 0 5 -3 4 -6l-5 -18c-1 -4 -2 -5 -5 -5h-219c-3 0 -5 1 -4 5l5 18c1 3 3 5 7 6l32 5
c27 4 36 13 56 44l423 665c3 5 6 7 11 7h39c5 0 7 -2 7 -7l47 -634c5 -62 13 -75 54 -79l10 -1c5 0 5 -3 4 -6l-5 -18c-1 -4 -2 -5 -5 -5zM481 276l-23 342h-2l-212 -342c-2 -4 -2 -6 2 -6h229c4 0 6 2 6 6zM689 948l6 -1c6 -1 7 -4 6 -11c-10 -53 -45 -113 -104 -113
c-66 0 -98 70 -146 70c-24 0 -54 -14 -70 -64c-3 -10 -6 -10 -12 -9l-6 1c-6 1 -7 4 -6 11c5 54 46 113 105 113c66 0 98 -70 146 -70c24 0 53 14 69 64c3 10 6 10 12 9z" />
    <glyph glyph-name="Adieresis" unicode="&#xc4;" horiz-adv-x="700" 
d="M640 0h-243c-3 0 -6 1 -5 5l5 18c1 3 2 5 6 6l52 7c26 4 40 18 38 48l-9 135c0 5 -3 6 -6 6h-258c-3 0 -7 -1 -10 -6l-78 -125c-8 -12 -16 -27 -17 -39s6 -21 29 -23l40 -3c5 0 5 -3 4 -6l-5 -18c-1 -4 -2 -5 -5 -5h-219c-3 0 -5 1 -4 5l5 18c1 3 3 5 7 6l32 5
c27 4 36 13 56 44l423 665c3 5 6 7 11 7h39c5 0 7 -2 7 -7l47 -634c5 -62 13 -75 54 -79l10 -1c5 0 5 -3 4 -6l-5 -18c-1 -4 -2 -5 -5 -5zM482 276l-23 342h-2l-212 -342c-2 -4 -2 -6 2 -6h229c4 0 6 2 6 6zM479 866c-3 -29 -30 -53 -57 -53c-28 0 -46 24 -43 53
s30 53 57 53c28 0 46 -24 43 -53zM667 866c-3 -29 -30 -53 -57 -53c-28 0 -46 24 -43 53s30 53 57 53c28 0 46 -24 43 -53z" />
    <glyph glyph-name="Aring" unicode="&#xc5;" horiz-adv-x="697" 
d="M525 782c34 0 62 30 64 68s-22 68 -56 68s-62 -30 -64 -68s22 -68 56 -68zM481 276l-23 342h-2l-212 -342c-2 -4 -2 -6 2 -6h229c4 0 6 2 6 6zM639 0h-243c-3 0 -6 1 -5 5l5 18c1 3 2 5 6 6l52 7c26 4 40 18 38 48l-9 135c0 5 -3 6 -6 6h-258c-3 0 -7 -1 -10 -6l-78 -125
c-8 -12 -16 -27 -17 -39s6 -21 29 -23l40 -3c5 0 5 -3 4 -6l-5 -18c-1 -4 -2 -5 -5 -5h-219c-3 0 -5 1 -4 5l5 18c1 3 3 5 7 6l32 5c27 4 36 13 56 44l431 678c-33 15 -55 51 -52 94c3 57 48 102 102 102s93 -45 90 -102c-3 -54 -43 -96 -92 -102l48 -639
c5 -62 13 -75 54 -79l10 -1c5 0 5 -3 4 -6l-5 -18c-1 -4 -2 -5 -5 -5z" />
    <glyph glyph-name="AE" unicode="&#xc6;" horiz-adv-x="1020" 
d="M894 0h-520c-2 0 -4 2 -3 5l5 18c1 3 2 5 6 6l64 10c19 3 30 11 37 38l72 255c1 4 -1 7 -5 7h-229c-4 0 -8 -2 -11 -7l-166 -238c-9 -12 -17 -28 -17 -40c0 -11 8 -20 29 -22l34 -3c4 0 4 -3 3 -6l-5 -18c-1 -3 -3 -5 -6 -5h-224c-3 0 -5 2 -4 5l5 18c1 3 2 5 7 6l32 5
c28 4 40 13 62 44l392 552c46 65 43 87 -6 90l-18 1c-3 0 -3 3 -2 6l5 18c1 3 3 5 6 5h653c6 0 10 -5 8 -11l-56 -206c-1 -5 -4 -6 -8 -6h-29c-4 0 -7 1 -6 6l19 94c12 59 -1 75 -72 75h-141c-49 0 -60 -10 -77 -70l-66 -234c-1 -4 1 -7 5 -7h106c36 0 51 9 60 32l23 57
c3 7 6 8 9 8h25c3 0 5 -2 4 -6l-67 -236c-1 -3 -3 -4 -6 -4h-25c-3 0 -5 1 -4 8l9 57c3 23 -6 32 -42 32h-106c-4 0 -8 -3 -9 -7l-60 -214c-17 -60 -12 -70 37 -70h156c71 0 93 16 114 75l35 99c2 5 6 6 8 6h29c5 0 6 -2 5 -6l-60 -211c-2 -6 -8 -11 -14 -11zM573 398
l70 248c14 49 3 56 -25 56h-25c-21 0 -30 -8 -41 -23l-196 -281c-3 -4 -2 -7 2 -7h206c4 0 8 3 9 7z" />
    <glyph glyph-name="Ccedilla" unicode="&#xc7;" horiz-adv-x="659" 
d="M585 166l22 -23c3 -4 1 -6 -2 -10c-72 -86 -165 -145 -264 -145c-24 0 -46 3 -67 8c-7 -6 -12 -12 -17 -17c-32 -33 -16 -38 -3 -43c56 -23 89 -53 90 -95c1 -56 -48 -90 -109 -90c-48 0 -86 16 -107 32c-6 4 -4 8 1 17c6 10 9 12 15 9c17 -7 49 -21 84 -21
c38 0 65 27 62 56c-3 25 -22 45 -60 61l-12 5c-31 13 -39 33 -1 72c7 7 16 15 27 22c-122 47 -174 188 -136 370c46 224 221 388 395 388c48 0 90 -11 122 -30c17 -10 39 -28 49 -36c6 -5 19 -7 28 9l21 36c2 3 3 4 6 4h19c3 0 4 -1 3 -4l-72 -259c-2 -5 -5 -6 -9 -6h-19
c-5 0 -7 1 -6 7c11 142 -33 232 -153 224c-126 -8 -252 -157 -285 -347c-34 -193 12 -309 139 -309c84 0 158 41 229 113c3 3 6 7 10 2z" />
    <glyph glyph-name="Egrave" unicode="&#xc8;" horiz-adv-x="626" 
d="M502 0h-531c-2 0 -4 1 -3 5l5 18c1 4 3 5 6 6l62 10c19 3 29 11 37 38l151 538c28 99 13 101 -43 105l-16 1c-3 0 -4 2 -3 6l4 18c1 4 3 5 5 5h522c6 0 9 -5 7 -11l-58 -211c-1 -5 -4 -6 -7 -6h-30c-3 0 -7 1 -6 6l20 99c12 59 1 75 -69 75h-155c-48 0 -59 -10 -76 -70
l-60 -209c-1 -4 2 -7 5 -7h123c34 0 49 9 58 32l23 57c3 7 5 8 9 8h24c3 0 5 -1 4 -5l-68 -242c-1 -3 -3 -4 -6 -4h-25c-4 0 -5 2 -4 8l10 62c4 23 -6 32 -40 32h-123c-3 0 -7 -3 -8 -7l-67 -239c-17 -60 -12 -70 36 -70h169c70 0 94 15 114 75l35 104c2 5 6 6 9 6h30
c5 0 5 -2 4 -6l-61 -216c-2 -6 -7 -11 -13 -11zM560 805l-177 83c-27 13 -36 31 -23 54c15 26 36 29 60 10l155 -121c5 -4 5 -9 0 -17c-5 -9 -9 -12 -15 -9z" />
    <glyph glyph-name="Eacute" unicode="&#xc9;" horiz-adv-x="626" 
d="M502 0h-531c-2 0 -4 1 -3 5l5 18c1 4 3 5 6 6l62 10c19 3 29 11 37 38l151 538c28 99 13 101 -43 105l-16 1c-3 0 -4 2 -3 6l4 18c1 4 3 5 5 5h522c6 0 9 -5 7 -11l-58 -211c-1 -5 -4 -6 -7 -6h-30c-3 0 -7 1 -6 6l20 99c12 59 1 75 -69 75h-155c-48 0 -59 -10 -76 -70
l-60 -209c-1 -4 2 -7 5 -7h123c34 0 49 9 58 32l23 57c3 7 5 8 9 8h24c3 0 5 -1 4 -5l-68 -242c-1 -3 -3 -4 -6 -4h-25c-4 0 -5 2 -4 8l10 62c4 23 -6 32 -40 32h-123c-3 0 -7 -3 -8 -7l-67 -239c-17 -60 -12 -70 36 -70h169c70 0 94 15 114 75l35 104c2 5 6 6 9 6h30
c5 0 5 -2 4 -6l-61 -216c-2 -6 -7 -11 -13 -11zM589 888l-177 -83c-6 -3 -10 0 -15 9c-5 8 -5 13 0 17l155 121c24 19 45 16 60 -10c13 -23 4 -41 -23 -54z" />
    <glyph glyph-name="Ecircumflex" unicode="&#xca;" horiz-adv-x="626" 
d="M502 0h-531c-2 0 -4 1 -3 5l5 18c1 4 3 5 6 6l62 10c19 3 29 11 37 38l151 538c28 99 13 101 -43 105l-16 1c-3 0 -4 2 -3 6l4 18c1 4 3 5 5 5h522c6 0 9 -5 7 -11l-58 -211c-1 -5 -4 -6 -7 -6h-30c-3 0 -7 1 -6 6l20 99c12 59 1 75 -69 75h-155c-48 0 -59 -10 -76 -70
l-60 -209c-1 -4 2 -7 5 -7h123c34 0 49 9 58 32l23 57c3 7 5 8 9 8h24c3 0 5 -1 4 -5l-68 -242c-1 -3 -3 -4 -6 -4h-25c-4 0 -5 2 -4 8l10 62c4 23 -6 32 -40 32h-123c-3 0 -7 -3 -8 -7l-67 -239c-17 -60 -12 -70 36 -70h169c70 0 94 15 114 75l35 104c2 5 6 6 9 6h30
c5 0 5 -2 4 -6l-61 -216c-2 -6 -7 -11 -13 -11zM616 807l-122 112l-152 -103c-5 -3 -8 -1 -14 6c-5 7 -7 13 -3 17l148 135c11 10 16 12 27 12c9 0 16 -3 23 -12l111 -147c4 -5 4 -9 -3 -16s-11 -8 -15 -4z" />
    <glyph glyph-name="Edieresis" unicode="&#xcb;" horiz-adv-x="626" 
d="M502 0h-531c-2 0 -4 1 -3 5l5 18c1 4 3 5 6 6l62 10c19 3 29 11 37 38l151 538c28 99 13 101 -43 105l-16 1c-3 0 -4 2 -3 6l4 18c1 4 3 5 5 5h522c6 0 9 -5 7 -11l-58 -211c-1 -5 -4 -6 -7 -6h-30c-3 0 -7 1 -6 6l20 99c12 59 1 75 -69 75h-155c-48 0 -59 -10 -76 -70
l-60 -209c-1 -4 2 -7 5 -7h123c34 0 49 9 58 32l23 57c3 7 5 8 9 8h24c3 0 5 -1 4 -5l-68 -242c-1 -3 -3 -4 -6 -4h-25c-4 0 -5 2 -4 8l10 62c4 23 -6 32 -40 32h-123c-3 0 -7 -3 -8 -7l-67 -239c-17 -60 -12 -70 36 -70h169c70 0 94 15 114 75l35 104c2 5 6 6 9 6h30
c5 0 5 -2 4 -6l-61 -216c-2 -6 -7 -11 -13 -11zM441 871c-3 -29 -30 -53 -57 -53c-28 0 -46 24 -43 53s30 53 57 53c28 0 46 -24 43 -53zM629 871c-3 -29 -30 -53 -57 -53c-28 0 -46 24 -43 53s30 53 57 53c28 0 46 -24 43 -53z" />
    <glyph glyph-name="Igrave" unicode="&#xcc;" horiz-adv-x="300" 
d="M229 0h-258c-3 0 -4 1 -3 5l5 18c1 3 2 5 6 6l61 10c19 3 29 11 37 38l151 538c28 99 13 100 -43 105l-11 1c-3 0 -4 2 -3 6l4 18c1 4 3 5 6 5h259c2 0 4 -1 3 -5l-4 -18c-1 -4 -2 -5 -6 -6l-63 -10c-18 -3 -29 -11 -36 -38l-151 -538c-25 -89 -13 -100 42 -105l12 -1
c4 0 4 -3 3 -6l-5 -18c-1 -4 -3 -5 -6 -5zM426 800l-177 83c-27 13 -36 31 -23 54c15 26 36 29 60 10l155 -121c5 -4 5 -9 0 -17c-5 -9 -9 -12 -15 -9z" />
    <glyph glyph-name="Iacute" unicode="&#xcd;" horiz-adv-x="300" 
d="M229 0h-258c-3 0 -4 1 -3 5l5 18c1 3 2 5 6 6l61 10c19 3 29 11 37 38l151 538c28 99 13 100 -43 105l-11 1c-3 0 -4 2 -3 6l4 18c1 4 3 5 6 5h259c2 0 4 -1 3 -5l-4 -18c-1 -4 -2 -5 -6 -6l-63 -10c-18 -3 -29 -11 -36 -38l-151 -538c-25 -89 -13 -100 42 -105l12 -1
c4 0 4 -3 3 -6l-5 -18c-1 -4 -3 -5 -6 -5zM418 883l-177 -83c-6 -3 -10 0 -15 9c-5 8 -5 13 0 17l155 121c24 19 45 16 60 -10c13 -23 4 -41 -23 -54z" />
    <glyph glyph-name="Icircumflex" unicode="&#xce;" horiz-adv-x="300" 
d="M229 0h-258c-3 0 -4 1 -3 5l5 18c1 3 2 5 6 6l61 10c19 3 29 11 37 38l151 538c28 99 13 100 -43 105l-11 1c-3 0 -4 2 -3 6l4 18c1 4 3 5 6 5h259c2 0 4 -1 3 -5l-4 -18c-1 -4 -2 -5 -6 -6l-63 -10c-18 -3 -29 -11 -36 -38l-151 -538c-25 -89 -13 -100 42 -105l12 -1
c4 0 4 -3 3 -6l-5 -18c-1 -4 -3 -5 -6 -5zM460 802l-122 112l-152 -103c-5 -3 -8 -1 -14 6c-5 7 -7 13 -3 17l148 135c11 10 16 12 27 12c9 0 16 -3 23 -12l111 -147c4 -5 4 -9 -3 -16s-11 -8 -15 -4z" />
    <glyph glyph-name="Idieresis" unicode="&#xcf;" horiz-adv-x="300" 
d="M229 0h-258c-3 0 -4 1 -3 5l5 18c1 3 2 5 6 6l61 10c19 3 29 11 37 38l151 538c28 99 13 100 -43 105l-11 1c-3 0 -4 2 -3 6l4 18c1 4 3 5 6 5h259c2 0 4 -1 3 -5l-4 -18c-1 -4 -2 -5 -6 -6l-63 -10c-18 -3 -29 -11 -36 -38l-151 -538c-25 -89 -13 -100 42 -105l12 -1
c4 0 4 -3 3 -6l-5 -18c-1 -4 -3 -5 -6 -5zM290 866c-3 -29 -30 -53 -57 -53c-28 0 -46 24 -43 53s30 53 57 53c28 0 46 -24 43 -53zM478 866c-3 -29 -30 -53 -57 -53c-28 0 -46 24 -43 53s30 53 57 53c28 0 46 -24 43 -53z" />
    <glyph glyph-name="Eth" unicode="&#xd0;" horiz-adv-x="720" 
d="M283 0h-291c-2 0 -4 1 -3 5l5 18c1 3 3 5 6 6l62 10c19 3 28 11 36 38l81 288h-110c-4 0 -5 3 -4 7l10 34c1 4 4 7 8 7h109l57 202c28 99 13 100 -42 105l-17 1c-4 0 -4 2 -3 6l4 18c1 3 3 5 6 5h276c209 0 300 -138 249 -362c-52 -224 -226 -388 -439 -388zM240 48h45
c156 0 290 147 334 339c51 220 -4 315 -148 315h-36c-50 0 -74 -8 -96 -88l-57 -201h157c3 0 5 -3 4 -7l-10 -34c-1 -4 -5 -7 -8 -7h-156l-70 -249c-15 -52 -8 -68 41 -68z" />
    <glyph glyph-name="Ntilde" unicode="&#xd1;" horiz-adv-x="695" 
d="M542 0h-37c-5 0 -8 2 -9 5l-189 612c-6 19 -8 33 -8 33h-1l-144 -515c-28 -99 -12 -100 42 -105l17 -1c4 0 4 -3 3 -6l-5 -18c-1 -4 -3 -5 -5 -5h-236c-3 0 -4 2 -3 5l5 18c1 3 2 5 6 6l62 10c19 3 29 11 37 38l151 538c28 99 12 100 -43 105l-16 1c-4 0 -4 2 -3 6l4 18
c1 3 2 5 5 5h179c5 0 5 -2 6 -5l166 -534c6 -19 9 -33 9 -33h1l111 397c36 129 23 140 -31 145l-17 1c-4 0 -4 2 -3 6l4 18c1 4 4 5 6 5h235c3 0 4 -2 3 -5l-4 -18c-1 -4 -2 -5 -5 -6l-63 -10c-19 -3 -30 -11 -37 -38l-188 -669c-1 -3 -2 -4 -5 -4zM698 948l6 -1
c6 -1 7 -4 6 -11c-10 -53 -45 -113 -104 -113c-66 0 -98 70 -146 70c-24 0 -54 -14 -70 -64c-3 -10 -6 -10 -12 -9l-6 1c-6 1 -7 4 -6 11c5 54 46 113 105 113c66 0 98 -70 146 -70c24 0 53 14 69 64c3 10 6 10 12 9z" />
    <glyph glyph-name="Ograve" unicode="&#xd2;" horiz-adv-x="699" 
d="M321 42c207 0 305 313 305 489c0 117 -52 177 -134 177c-207 0 -305 -313 -305 -489c0 -117 52 -177 134 -177zM325 -12c-152 0 -231 121 -231 278c0 260 185 496 394 496c152 0 231 -121 231 -278c0 -260 -185 -496 -394 -496zM625 800l-177 83c-27 13 -36 31 -23 54
c15 26 36 29 60 10l155 -121c5 -4 5 -9 0 -17c-5 -9 -9 -12 -15 -9z" />
    <glyph glyph-name="Oacute" unicode="&#xd3;" horiz-adv-x="699" 
d="M321 42c207 0 305 313 305 489c0 117 -52 177 -134 177c-207 0 -305 -313 -305 -489c0 -117 52 -177 134 -177zM325 -12c-152 0 -231 121 -231 278c0 260 185 496 394 496c152 0 231 -121 231 -278c0 -260 -185 -496 -394 -496zM605 883l-177 -83c-6 -3 -10 0 -15 9
c-5 8 -5 13 0 17l155 121c24 19 45 16 60 -10c13 -23 4 -41 -23 -54z" />
    <glyph glyph-name="Ocircumflex" unicode="&#xd4;" horiz-adv-x="699" 
d="M321 42c207 0 305 313 305 489c0 117 -52 177 -134 177c-207 0 -305 -313 -305 -489c0 -117 52 -177 134 -177zM325 -12c-152 0 -231 121 -231 278c0 260 185 496 394 496c152 0 231 -121 231 -278c0 -260 -185 -496 -394 -496zM650 792l-122 112l-152 -103
c-5 -3 -8 -1 -14 6c-5 7 -7 13 -3 17l148 135c11 10 16 12 27 12c9 0 16 -3 23 -12l111 -147c4 -5 4 -9 -3 -16s-11 -8 -15 -4z" />
    <glyph glyph-name="Otilde" unicode="&#xd5;" horiz-adv-x="699" 
d="M321 42c207 0 305 313 305 489c0 117 -52 177 -134 177c-207 0 -305 -313 -305 -489c0 -117 52 -177 134 -177zM325 -12c-152 0 -231 121 -231 278c0 260 185 496 394 496c152 0 231 -121 231 -278c0 -260 -185 -496 -394 -496zM695 948l6 -1c6 -1 7 -4 6 -11
c-10 -53 -45 -113 -104 -113c-66 0 -98 70 -146 70c-24 0 -54 -14 -70 -64c-3 -10 -6 -10 -12 -9l-6 1c-6 1 -7 4 -6 11c5 54 46 113 105 113c66 0 98 -70 146 -70c24 0 53 14 69 64c3 10 6 10 12 9z" />
    <glyph glyph-name="Odieresis" unicode="&#xd6;" horiz-adv-x="699" 
d="M321 42c207 0 305 313 305 489c0 117 -52 177 -134 177c-207 0 -305 -313 -305 -489c0 -117 52 -177 134 -177zM325 -12c-152 0 -231 121 -231 278c0 260 185 496 394 496c152 0 231 -121 231 -278c0 -260 -185 -496 -394 -496zM488 866c-3 -29 -30 -53 -57 -53
c-28 0 -46 24 -43 53s30 53 57 53c28 0 46 -24 43 -53zM676 866c-3 -29 -30 -53 -57 -53c-28 0 -46 24 -43 53s30 53 57 53c28 0 46 -24 43 -53z" />
    <glyph glyph-name="multiply" unicode="&#xd7;" horiz-adv-x="528" 
d="M486 122l-32 -25c-3 -3 -7 -2 -9 1l-140 201l-249 -202c-3 -3 -7 -2 -9 1l-24 34c-2 3 -2 7 2 10l249 202l-139 202c-2 3 -2 7 1 10l32 25c3 3 7 2 9 -1l140 -201l249 202c3 3 7 2 9 -1l24 -34c2 -3 2 -7 -2 -10l-249 -202l139 -202c2 -3 2 -7 -1 -10z" />
    <glyph glyph-name="Oslash" unicode="&#xd8;" horiz-adv-x="686" 
d="M91 -52h-43c-4 0 -6 3 -3 7l98 127c-49 75 -61 186 -33 307c49 209 186 373 367 373c61 0 111 -22 148 -60l72 93c3 4 5 7 11 7h43c4 0 6 -3 3 -7l-100 -129c48 -76 61 -187 34 -307c-47 -209 -187 -371 -368 -371c-62 0 -111 21 -148 58l-71 -91c-4 -5 -6 -7 -10 -7z
M600 597l-383 -493c20 -39 54 -62 105 -62c116 0 215 101 265 319c23 101 26 180 13 236zM199 154l383 492c-23 42 -61 62 -107 62c-116 0 -214 -103 -264 -322c-20 -87 -26 -170 -12 -232z" />
    <glyph glyph-name="Ugrave" unicode="&#xd9;" horiz-adv-x="717" 
d="M592 275l96 340c28 99 13 99 -43 105l-10 1c-5 0 -6 3 -5 6l4 18c1 4 3 5 6 5h225c3 0 5 -1 4 -5l-4 -18c-1 -3 -3 -5 -6 -6l-63 -10c-18 -3 -29 -11 -36 -38l-113 -401c-50 -179 -133 -284 -305 -284c-147 0 -273 99 -218 294l95 333c28 99 13 101 -43 105l-15 1
c-4 0 -5 2 -4 6l4 18c1 4 3 5 6 5h263c3 0 5 -1 4 -5l-4 -18c-1 -3 -3 -5 -7 -6l-63 -10c-19 -3 -27 -11 -35 -38l-113 -395c-36 -128 12 -229 142 -229c144 0 201 96 238 226zM581 800l-177 83c-27 13 -36 31 -23 54c15 26 36 29 60 10l155 -121c5 -4 5 -9 0 -17
c-5 -9 -9 -12 -15 -9z" />
    <glyph glyph-name="Uacute" unicode="&#xda;" horiz-adv-x="717" 
d="M592 275l96 340c28 99 13 99 -43 105l-10 1c-5 0 -6 3 -5 6l4 18c1 4 3 5 6 5h225c3 0 5 -1 4 -5l-4 -18c-1 -3 -3 -5 -6 -6l-63 -10c-18 -3 -29 -11 -36 -38l-113 -401c-50 -179 -133 -284 -305 -284c-147 0 -273 99 -218 294l95 333c28 99 13 101 -43 105l-15 1
c-4 0 -5 2 -4 6l4 18c1 4 3 5 6 5h263c3 0 5 -1 4 -5l-4 -18c-1 -3 -3 -5 -7 -6l-63 -10c-19 -3 -27 -11 -35 -38l-113 -395c-36 -128 12 -229 142 -229c144 0 201 96 238 226zM668 883l-177 -83c-6 -3 -10 0 -15 9c-5 8 -5 13 0 17l155 121c24 19 45 16 60 -10
c13 -23 4 -41 -23 -54z" />
    <glyph glyph-name="Ucircumflex" unicode="&#xdb;" horiz-adv-x="717" 
d="M592 275l96 340c28 99 13 99 -43 105l-10 1c-5 0 -6 3 -5 6l4 18c1 4 3 5 6 5h225c3 0 5 -1 4 -5l-4 -18c-1 -3 -3 -5 -6 -6l-63 -10c-18 -3 -29 -11 -36 -38l-113 -401c-50 -179 -133 -284 -305 -284c-147 0 -273 99 -218 294l95 333c28 99 13 101 -43 105l-15 1
c-4 0 -5 2 -4 6l4 18c1 4 3 5 6 5h263c3 0 5 -1 4 -5l-4 -18c-1 -3 -3 -5 -7 -6l-63 -10c-19 -3 -27 -11 -35 -38l-113 -395c-36 -128 12 -229 142 -229c144 0 201 96 238 226zM675 802l-122 112l-152 -103c-5 -3 -8 -1 -14 6c-5 7 -7 13 -3 17l148 135c11 10 16 12 27 12
c9 0 16 -3 23 -12l111 -147c4 -5 4 -9 -3 -16s-11 -8 -15 -4z" />
    <glyph glyph-name="Udieresis" unicode="&#xdc;" horiz-adv-x="717" 
d="M592 275l96 340c28 99 13 99 -43 105l-10 1c-5 0 -6 3 -5 6l4 18c1 4 3 5 6 5h225c3 0 5 -1 4 -5l-4 -18c-1 -3 -3 -5 -6 -6l-63 -10c-18 -3 -29 -11 -36 -38l-113 -401c-50 -179 -133 -284 -305 -284c-147 0 -273 99 -218 294l95 333c28 99 13 101 -43 105l-15 1
c-4 0 -5 2 -4 6l4 18c1 4 3 5 6 5h263c3 0 5 -1 4 -5l-4 -18c-1 -3 -3 -5 -7 -6l-63 -10c-19 -3 -27 -11 -35 -38l-113 -395c-36 -128 12 -229 142 -229c144 0 201 96 238 226zM506 866c-3 -29 -30 -53 -57 -53c-28 0 -46 24 -43 53s30 53 57 53c28 0 46 -24 43 -53z
M694 866c-3 -29 -30 -53 -57 -53c-28 0 -46 24 -43 53s30 53 57 53c28 0 46 -24 43 -53z" />
    <glyph glyph-name="Yacute" unicode="&#xdd;" horiz-adv-x="691" 
d="M429 0h-279c-3 0 -4 2 -3 5l5 18c1 3 3 5 7 6l72 10c19 3 28 11 36 38l76 273l-93 284c-22 66 -28 82 -66 85l-21 2c-4 0 -5 2 -4 6l4 18c1 3 3 5 7 5h235c3 0 4 -2 3 -5l-4 -18c-1 -4 -2 -6 -6 -6l-14 -1c-44 -3 -61 -15 -45 -68l73 -244l221 246c36 40 41 65 0 68
l-13 1c-5 0 -6 2 -5 6l4 16c1 3 3 5 7 5h216c3 0 5 -1 4 -5l-4 -20c-1 -4 -3 -5 -7 -6l-23 -3c-42 -5 -61 -24 -121 -88l-258 -278l-63 -225c-25 -91 -10 -92 46 -95l20 -1c5 0 5 -3 4 -6l-5 -18c-1 -4 -3 -5 -6 -5zM649 883l-177 -83c-6 -3 -10 0 -15 9c-5 8 -5 13 0 17
l155 121c24 19 45 16 60 -10c13 -23 4 -41 -23 -54z" />
    <glyph glyph-name="Thorn" unicode="&#xde;" horiz-adv-x="589" 
d="M245 0h-273c-2 0 -4 1 -3 5l5 18c1 4 3 5 6 6l63 10c19 3 27 11 35 38l151 538c28 99 13 100 -43 105l-10 1c-4 0 -5 2 -4 6l4 18c1 3 3 5 6 5h261c2 0 2 -2 1 -5l-4 -18c-1 -4 -2 -5 -6 -6l-63 -10c-18 -3 -29 -11 -36 -38l-22 -78h74c152 0 245 -75 217 -218
c-26 -135 -152 -212 -315 -212h-97l-6 -22c-28 -99 -16 -111 41 -113l24 -1c5 0 5 -3 4 -6l-5 -18c-1 -4 -2 -5 -5 -5zM206 213h86c103 0 195 42 218 170c24 135 -40 168 -131 168h-79z" />
    <glyph glyph-name="germandbls" unicode="&#xdf;" horiz-adv-x="566" 
d="M42 17l159 570c32 116 124 197 246 197c86 0 157 -59 132 -148c-13 -47 -43 -79 -81 -107c-24 -18 -56 -35 -80 -53c-25 -18 -48 -37 -54 -64c-8 -37 18 -63 66 -97c44 -31 105 -86 86 -180c-20 -97 -105 -147 -193 -147c-92 0 -146 59 -139 121c4 38 29 71 65 71
c25 0 47 -19 43 -48c-3 -24 -19 -37 -40 -47c-10 -5 -10 -13 -8 -19c6 -23 39 -38 82 -38c59 0 110 50 117 98c10 66 -28 103 -74 135c-49 33 -97 75 -80 142c12 49 48 72 87 98c34 22 72 41 106 68c27 21 45 45 54 77c14 50 -25 92 -93 92c-69 0 -132 -43 -162 -149
l-153 -544c-59 -210 -125 -295 -197 -295c-58 0 -96 35 -92 86c2 27 19 48 45 48s42 -20 39 -42c-2 -20 -13 -30 -14 -43c-1 -11 7 -20 20 -20c34 0 63 60 113 238z" />
    <glyph glyph-name="agrave" unicode="&#xe0;" horiz-adv-x="585" 
d="M410 301l3 13c21 92 -19 154 -69 154c-69 0 -153 -106 -193 -240c-36 -123 -15 -190 45 -190c66 0 175 92 214 263zM557 177l14 -1c6 -1 8 -3 5 -12c-47 -132 -95 -176 -147 -176c-47 0 -73 33 -65 99c1 9 3 18 5 27h-4c-63 -87 -127 -126 -186 -126
c-104 0 -157 102 -116 245c49 170 180 279 277 279c42 0 76 -14 107 -61c9 -14 21 -21 35 1l26 41c3 5 6 7 13 7h19c5 0 7 -2 5 -8l-106 -378c-16 -56 -10 -78 11 -78c19 0 51 21 94 130c3 9 7 11 13 11zM483 570l-177 83c-27 13 -36 31 -23 54c15 26 36 29 60 10l155 -121
c5 -4 5 -9 0 -17c-5 -9 -9 -12 -15 -9z" />
    <glyph glyph-name="aacute" unicode="&#xe1;" horiz-adv-x="585" 
d="M410 301l3 13c21 92 -19 154 -69 154c-69 0 -153 -106 -193 -240c-36 -123 -15 -190 45 -190c66 0 175 92 214 263zM557 177l14 -1c6 -1 8 -3 5 -12c-47 -132 -95 -176 -147 -176c-47 0 -73 33 -65 99c1 9 3 18 5 27h-4c-63 -87 -127 -126 -186 -126
c-104 0 -157 102 -116 245c49 170 180 279 277 279c42 0 76 -14 107 -61c9 -14 21 -21 35 1l26 41c3 5 6 7 13 7h19c5 0 7 -2 5 -8l-106 -378c-16 -56 -10 -78 11 -78c19 0 51 21 94 130c3 9 7 11 13 11zM474 653l-177 -83c-6 -3 -10 0 -15 9c-5 8 -5 13 0 17l155 121
c24 19 45 16 60 -10c13 -23 4 -41 -23 -54z" />
    <glyph glyph-name="acircumflex" unicode="&#xe2;" horiz-adv-x="585" 
d="M410 301l3 13c21 92 -19 154 -69 154c-69 0 -153 -106 -193 -240c-36 -123 -15 -190 45 -190c66 0 175 92 214 263zM557 177l14 -1c6 -1 8 -3 5 -12c-47 -132 -95 -176 -147 -176c-47 0 -73 33 -65 99c1 9 3 18 5 27h-4c-63 -87 -127 -126 -186 -126
c-104 0 -157 102 -116 245c49 170 180 279 277 279c42 0 76 -14 107 -61c9 -14 21 -21 35 1l26 41c3 5 6 7 13 7h19c5 0 7 -2 5 -8l-106 -378c-16 -56 -10 -78 11 -78c19 0 51 21 94 130c3 9 7 11 13 11zM525 572l-122 112l-152 -103c-5 -3 -8 -1 -14 6c-5 7 -7 13 -3 17
l148 135c11 10 16 12 27 12c9 0 16 -3 23 -12l111 -147c4 -5 4 -9 -3 -16s-11 -8 -15 -4z" />
    <glyph glyph-name="atilde" unicode="&#xe3;" horiz-adv-x="585" 
d="M410 301l3 13c21 92 -19 154 -69 154c-69 0 -153 -106 -193 -240c-36 -123 -15 -190 45 -190c66 0 175 92 214 263zM557 177l14 -1c6 -1 8 -3 5 -12c-47 -132 -95 -176 -147 -176c-47 0 -73 33 -65 99c1 9 3 18 5 27h-4c-63 -87 -127 -126 -186 -126
c-104 0 -157 102 -116 245c49 170 180 279 277 279c42 0 76 -14 107 -61c9 -14 21 -21 35 1l26 41c3 5 6 7 13 7h19c5 0 7 -2 5 -8l-106 -378c-16 -56 -10 -78 11 -78c19 0 51 21 94 130c3 9 7 11 13 11zM571 718l6 -1c6 -1 7 -4 6 -11c-10 -53 -45 -113 -104 -113
c-66 0 -98 70 -146 70c-24 0 -54 -14 -70 -64c-3 -10 -6 -10 -12 -9l-6 1c-6 1 -7 4 -6 11c5 54 46 113 105 113c66 0 98 -70 146 -70c24 0 53 14 69 64c3 10 6 10 12 9z" />
    <glyph glyph-name="adieresis" unicode="&#xe4;" horiz-adv-x="585" 
d="M410 301l3 13c21 92 -19 154 -69 154c-69 0 -153 -106 -193 -240c-36 -123 -15 -190 45 -190c66 0 175 92 214 263zM557 177l14 -1c6 -1 8 -3 5 -12c-47 -132 -95 -176 -147 -176c-47 0 -73 33 -65 99c1 9 3 18 5 27h-4c-63 -87 -127 -126 -186 -126
c-104 0 -157 102 -116 245c49 170 180 279 277 279c42 0 76 -14 107 -61c9 -14 21 -21 35 1l26 41c3 5 6 7 13 7h19c5 0 7 -2 5 -8l-106 -378c-16 -56 -10 -78 11 -78c19 0 51 21 94 130c3 9 7 11 13 11zM363 636c-3 -29 -30 -53 -57 -53c-28 0 -46 24 -43 53s30 53 57 53
c28 0 46 -24 43 -53zM551 636c-3 -29 -30 -53 -57 -53c-28 0 -46 24 -43 53s30 53 57 53c28 0 46 -24 43 -53z" />
    <glyph glyph-name="aring" unicode="&#xe5;" horiz-adv-x="585" 
d="M410 301l3 13c21 92 -19 154 -69 154c-69 0 -153 -106 -193 -240c-36 -123 -15 -190 45 -190c66 0 175 92 214 263zM557 177l14 -1c6 -1 8 -3 5 -12c-47 -132 -95 -176 -147 -176c-47 0 -73 33 -65 99c1 9 3 18 5 27h-4c-63 -87 -127 -126 -186 -126
c-104 0 -157 102 -116 245c49 170 180 279 277 279c42 0 76 -14 107 -61c9 -14 21 -21 35 1l26 41c3 5 6 7 13 7h19c5 0 7 -2 5 -8l-106 -378c-16 -56 -10 -78 11 -78c19 0 51 21 94 130c3 9 7 11 13 11zM412 578c-54 0 -93 45 -90 102s48 102 102 102s93 -45 90 -102
s-48 -102 -102 -102zM414 612c34 0 62 30 64 68s-22 68 -56 68s-62 -30 -64 -68s22 -68 56 -68z" />
    <glyph glyph-name="ae" unicode="&#xe6;" horiz-adv-x="770" 
d="M344 195l9 30c3 11 0 14 -15 14c-118 2 -212 -18 -225 -113c-7 -49 20 -84 69 -84c73 0 141 78 162 153zM455 276c175 -8 227 53 239 106c10 47 -12 85 -62 85c-86 0 -148 -107 -177 -191zM691 122l15 -13c2 -2 2 -4 -3 -10c-63 -76 -123 -111 -201 -111
c-87 0 -135 49 -146 129h-2c-62 -99 -126 -129 -192 -129c-77 0 -143 47 -133 135c14 123 154 158 324 158c10 0 15 7 19 21l3 12c27 99 -2 156 -73 156c-18 0 -41 -4 -57 -14c-6 -3 -8 -6 -8 -9c0 -10 10 -27 6 -53c-4 -31 -33 -57 -63 -57s-51 26 -46 62
c10 68 94 113 173 113c70 0 125 -36 143 -102h2c52 64 117 102 188 102c83 0 153 -58 131 -143c-18 -69 -97 -146 -328 -135c-23 -80 -19 -194 87 -194c53 0 105 31 151 81c5 5 8 3 10 1z" />
    <glyph glyph-name="ccedilla" unicode="&#xe7;" horiz-adv-x="467" 
d="M401 128l15 -11c3 -2 3 -6 -2 -12c-58 -80 -119 -117 -197 -117c-16 0 -30 2 -44 5l-14 -14c-32 -33 -18 -40 -3 -45c56 -18 97 -45 96 -94c-1 -61 -54 -89 -115 -89c-48 0 -86 18 -107 35c-5 4 -4 8 2 17c6 10 10 11 16 8c15 -9 47 -23 82 -23c40 0 72 20 70 56
c-2 35 -31 46 -66 59c-36 13 -57 36 -15 79c6 7 14 14 24 21c-80 36 -110 134 -71 257c45 145 172 252 288 252c80 0 142 -45 129 -113c-7 -36 -36 -62 -65 -62s-48 26 -42 57c6 28 22 45 22 55c0 4 -1 7 -6 11c-9 7 -23 11 -41 11c-80 0 -159 -95 -195 -207
c-48 -148 -2 -224 83 -224c53 0 103 31 147 85c3 4 6 5 9 3z" />
    <glyph glyph-name="egrave" unicode="&#xe8;" horiz-adv-x="471" 
d="M404 122l15 -13c2 -2 2 -4 -3 -10c-63 -76 -123 -111 -201 -111c-133 0 -193 117 -143 272c48 149 165 252 281 252c86 0 153 -55 131 -140c-18 -72 -105 -168 -340 -176c-15 -103 28 -156 99 -156c53 0 105 31 151 81c5 5 8 3 10 1zM151 237c181 8 244 88 256 145
c10 47 -12 85 -62 85c-99 0 -173 -146 -194 -230zM457 570l-177 83c-27 13 -36 31 -23 54c15 26 36 29 60 10l155 -121c5 -4 5 -9 0 -17c-5 -9 -9 -12 -15 -9z" />
    <glyph glyph-name="eacute" unicode="&#xe9;" horiz-adv-x="471" 
d="M404 122l15 -13c2 -2 2 -4 -3 -10c-63 -76 -123 -111 -201 -111c-133 0 -193 117 -143 272c48 149 165 252 281 252c86 0 153 -55 131 -140c-18 -72 -105 -168 -340 -176c-15 -103 28 -156 99 -156c53 0 105 31 151 81c5 5 8 3 10 1zM151 237c181 8 244 88 256 145
c10 47 -12 85 -62 85c-99 0 -173 -146 -194 -230zM464 653l-177 -83c-6 -3 -10 0 -15 9c-5 8 -5 13 0 17l155 121c24 19 45 16 60 -10c13 -23 4 -41 -23 -54z" />
    <glyph glyph-name="ecircumflex" unicode="&#xea;" horiz-adv-x="471" 
d="M404 122l15 -13c2 -2 2 -4 -3 -10c-63 -76 -123 -111 -201 -111c-133 0 -193 117 -143 272c48 149 165 252 281 252c86 0 153 -55 131 -140c-18 -72 -105 -168 -340 -176c-15 -103 28 -156 99 -156c53 0 105 31 151 81c5 5 8 3 10 1zM151 237c181 8 244 88 256 145
c10 47 -12 85 -62 85c-99 0 -173 -146 -194 -230zM493 572l-122 112l-152 -103c-5 -3 -8 -1 -14 6c-5 7 -7 13 -3 17l148 135c11 10 16 12 27 12c9 0 16 -3 23 -12l111 -147c4 -5 4 -9 -3 -16s-11 -8 -15 -4z" />
    <glyph glyph-name="edieresis" unicode="&#xeb;" horiz-adv-x="471" 
d="M404 122l15 -13c2 -2 2 -4 -3 -10c-63 -76 -123 -111 -201 -111c-133 0 -193 117 -143 272c48 149 165 252 281 252c86 0 153 -55 131 -140c-18 -72 -105 -168 -340 -176c-15 -103 28 -156 99 -156c53 0 105 31 151 81c5 5 8 3 10 1zM151 237c181 8 244 88 256 145
c10 47 -12 85 -62 85c-99 0 -173 -146 -194 -230zM335 636c-3 -29 -30 -53 -57 -53c-28 0 -46 24 -43 53s30 53 57 53c28 0 46 -24 43 -53zM523 636c-3 -29 -30 -53 -57 -53c-28 0 -46 24 -43 53s30 53 57 53c28 0 46 -24 43 -53z" />
    <glyph glyph-name="igrave" unicode="&#xec;" horiz-adv-x="296" 
d="M276 177l14 -1c6 -1 8 -3 5 -12c-47 -132 -99 -176 -151 -176c-49 0 -74 37 -74 83c0 19 4 43 11 64l98 304c8 24 -9 24 -30 17c-15 -5 -37 -13 -50 -19c-8 -4 -11 -2 -14 3l-4 7c-3 5 -3 9 5 14c33 21 90 51 123 51c10 0 26 -2 37 -10c23 -16 24 -41 15 -68l-107 -332
c-15 -46 -6 -66 15 -66c19 0 51 21 94 130c3 9 7 11 13 11zM303 570l-177 83c-27 13 -36 31 -23 54c15 26 36 29 60 10l155 -121c5 -4 5 -9 0 -17c-5 -9 -9 -12 -15 -9z" />
    <glyph glyph-name="iacute" unicode="&#xed;" horiz-adv-x="299" 
d="M271 177l14 -1c6 -1 8 -3 5 -12c-47 -132 -99 -176 -151 -176c-49 0 -74 37 -74 83c0 19 4 43 11 64l98 304c8 24 -9 24 -30 17c-15 -5 -37 -13 -50 -19c-8 -4 -11 -2 -14 3l-4 7c-3 5 -3 9 5 14c33 21 90 51 123 51c10 0 26 -2 37 -10c23 -16 24 -41 15 -68l-107 -332
c-15 -46 -6 -66 15 -66c19 0 51 21 94 130c3 9 7 11 13 11zM330 653l-177 -83c-6 -3 -10 0 -15 9c-5 8 -5 13 0 17l155 121c24 19 45 16 60 -10c13 -23 4 -41 -23 -54z" />
    <glyph glyph-name="icircumflex" unicode="&#xee;" horiz-adv-x="296" 
d="M276 177l14 -1c6 -1 8 -3 5 -12c-47 -132 -99 -176 -151 -176c-49 0 -74 37 -74 83c0 19 4 43 11 64l98 304c8 24 -9 24 -30 17c-15 -5 -37 -13 -50 -19c-8 -4 -11 -2 -14 3l-4 7c-3 5 -3 9 5 14c33 21 90 51 123 51c10 0 26 -2 37 -10c23 -16 24 -41 15 -68l-107 -332
c-15 -46 -6 -66 15 -66c19 0 51 21 94 130c3 9 7 11 13 11zM366 572l-122 112l-152 -103c-5 -3 -8 -1 -14 6c-5 7 -7 13 -3 17l148 135c11 10 16 12 27 12c9 0 16 -3 23 -12l111 -147c4 -5 4 -9 -3 -16s-11 -8 -15 -4z" />
    <glyph glyph-name="idieresis" unicode="&#xef;" horiz-adv-x="296" 
d="M276 177l14 -1c6 -1 8 -3 5 -12c-47 -132 -99 -176 -151 -176c-49 0 -74 37 -74 83c0 19 4 43 11 64l98 304c8 24 -9 24 -30 17c-15 -5 -37 -13 -50 -19c-8 -4 -11 -2 -14 3l-4 7c-3 5 -3 9 5 14c33 21 90 51 123 51c10 0 26 -2 37 -10c23 -16 24 -41 15 -68l-107 -332
c-15 -46 -6 -66 15 -66c19 0 51 21 94 130c3 9 7 11 13 11zM203 636c-3 -29 -30 -53 -57 -53c-28 0 -46 24 -43 53s30 53 57 53c28 0 46 -24 43 -53zM391 636c-3 -29 -30 -53 -57 -53c-28 0 -46 24 -43 53s30 53 57 53c28 0 46 -24 43 -53z" />
    <glyph glyph-name="eth" unicode="&#xf0;" horiz-adv-x="520" 
d="M210 31c76 0 147 78 187 209c39 131 7 209 -71 209c-74 0 -139 -78 -178 -209c-40 -131 -14 -209 62 -209zM429 445l2 1c-5 59 -27 118 -56 164l-125 -63c-5 -2 -8 -1 -9 3l-7 26c-1 4 1 7 5 9l115 58c-26 33 -55 61 -87 85c-11 9 0 28 12 23c46 -19 84 -49 118 -83
l124 63c3 2 7 1 8 -3l7 -26c1 -4 -2 -8 -5 -9l-107 -55c70 -105 105 -240 51 -413c-45 -145 -148 -237 -267 -237c-123 0 -183 132 -142 272c40 139 149 232 258 232c45 0 80 -18 105 -47z" />
    <glyph glyph-name="ntilde" unicode="&#xf1;" horiz-adv-x="594" 
d="M568 177l14 -1c8 -1 7 -5 5 -12c-44 -125 -92 -176 -147 -176c-60 0 -86 45 -80 96c7 57 75 228 88 293c12 59 -14 85 -55 85c-64 0 -166 -93 -212 -253l-58 -204c-1 -4 -3 -5 -5 -5h-77c-3 0 -4 2 -3 5l121 427c7 24 -10 30 -31 23c-15 -5 -34 -12 -47 -18
c-8 -4 -11 -2 -14 3l-4 7c-3 5 -3 9 5 14c33 21 90 51 123 51c10 0 25 -2 36 -10c18 -13 16 -32 11 -52l-10 -40c-2 -8 5 -8 8 -4c69 80 129 106 180 106c75 0 133 -39 116 -134c-10 -55 -85 -246 -93 -304c-4 -27 6 -38 21 -38c21 0 56 29 95 130c3 9 7 11 13 11zM572 718
l6 -1c6 -1 7 -4 6 -11c-10 -53 -45 -113 -104 -113c-66 0 -98 70 -146 70c-24 0 -54 -14 -70 -64c-3 -10 -6 -10 -12 -9l-6 1c-6 1 -7 4 -6 11c5 54 46 113 105 113c66 0 98 -70 146 -70c24 0 53 14 69 64c3 10 6 10 12 9z" />
    <glyph glyph-name="ograve" unicode="&#xf2;" horiz-adv-x="509" 
d="M221 -12c-112 0 -161 93 -161 196c0 138 108 328 268 328c112 0 161 -93 161 -196c0 -138 -108 -328 -268 -328zM220 33c113 0 189 209 189 318c0 58 -21 116 -80 116c-113 0 -189 -206 -189 -315c0 -60 20 -119 80 -119zM461 570l-177 83c-27 13 -36 31 -23 54
c15 26 36 29 60 10l155 -121c5 -4 5 -9 0 -17c-5 -9 -9 -12 -15 -9z" />
    <glyph glyph-name="oacute" unicode="&#xf3;" horiz-adv-x="509" 
d="M221 -12c-112 0 -161 93 -161 196c0 138 108 328 268 328c112 0 161 -93 161 -196c0 -138 -108 -328 -268 -328zM220 33c113 0 189 209 189 318c0 58 -21 116 -80 116c-113 0 -189 -206 -189 -315c0 -60 20 -119 80 -119zM485 653l-177 -83c-6 -3 -10 0 -15 9
c-5 8 -5 13 0 17l155 121c24 19 45 16 60 -10c13 -23 4 -41 -23 -54z" />
    <glyph glyph-name="ocircumflex" unicode="&#xf4;" horiz-adv-x="509" 
d="M221 -12c-112 0 -161 93 -161 196c0 138 108 328 268 328c112 0 161 -93 161 -196c0 -138 -108 -328 -268 -328zM220 33c113 0 189 209 189 318c0 58 -21 116 -80 116c-113 0 -189 -206 -189 -315c0 -60 20 -119 80 -119zM504 562l-122 112l-152 -103c-5 -3 -8 -1 -14 6
c-5 7 -7 13 -3 17l148 135c11 10 16 12 27 12c9 0 16 -3 23 -12l111 -147c4 -5 4 -9 -3 -16s-11 -8 -15 -4z" />
    <glyph glyph-name="otilde" unicode="&#xf5;" horiz-adv-x="509" 
d="M221 -12c-112 0 -161 93 -161 196c0 138 108 328 268 328c112 0 161 -93 161 -196c0 -138 -108 -328 -268 -328zM220 33c113 0 189 209 189 318c0 58 -21 116 -80 116c-113 0 -189 -206 -189 -315c0 -60 20 -119 80 -119zM545 718l6 -1c6 -1 7 -4 6 -11
c-10 -53 -45 -113 -104 -113c-66 0 -98 70 -146 70c-24 0 -54 -14 -70 -64c-3 -10 -6 -10 -12 -9l-6 1c-6 1 -7 4 -6 11c5 54 46 113 105 113c66 0 98 -70 146 -70c24 0 53 14 69 64c3 10 6 10 12 9z" />
    <glyph glyph-name="odieresis" unicode="&#xf6;" horiz-adv-x="509" 
d="M221 -12c-112 0 -161 93 -161 196c0 138 108 328 268 328c112 0 161 -93 161 -196c0 -138 -108 -328 -268 -328zM220 33c113 0 189 209 189 318c0 58 -21 116 -80 116c-113 0 -189 -206 -189 -315c0 -60 20 -119 80 -119zM346 636c-3 -29 -30 -53 -57 -53
c-28 0 -46 24 -43 53s30 53 57 53c28 0 46 -24 43 -53zM534 636c-3 -29 -30 -53 -57 -53c-28 0 -46 24 -43 53s30 53 57 53c28 0 46 -24 43 -53z" />
    <glyph glyph-name="divide" unicode="&#xf7;" horiz-adv-x="602" 
d="M602 310h-528c-4 0 -6 3 -5 7l12 44c1 4 5 7 9 7h528c3 0 5 -3 4 -7l-12 -44c-1 -4 -5 -7 -8 -7zM457 514c-5 -36 -36 -65 -71 -65c-34 0 -59 29 -54 65c4 36 36 65 71 65c34 0 58 -29 54 -65zM359 164c-5 -36 -36 -65 -71 -65c-34 0 -59 29 -54 65c4 36 36 65 71 65
c34 0 58 -29 54 -65z" />
    <glyph glyph-name="oslash" unicode="&#xf8;" horiz-adv-x="510" 
d="M36 -42h-44c-4 0 -4 4 -1 7l93 106c-16 32 -24 72 -24 113c0 138 108 328 268 328c46 0 82 -16 108 -43l63 70c4 5 7 7 11 7h44c4 0 4 -4 1 -7l-93 -105c18 -33 27 -75 27 -118c0 -138 -108 -328 -268 -328c-49 0 -86 18 -112 46l-61 -69c-5 -5 -8 -7 -12 -7zM412 379
l-264 -301c12 -28 34 -47 70 -47c117 0 196 213 196 322c0 9 -1 18 -2 26zM136 129l262 298c-13 25 -34 42 -67 42c-117 0 -196 -210 -196 -319c0 -7 0 -14 1 -21z" />
    <glyph glyph-name="ugrave" unicode="&#xf9;" horiz-adv-x="588" 
d="M560 177l14 -1c6 -1 8 -3 5 -12c-47 -132 -95 -176 -147 -176c-47 0 -74 33 -66 99c1 9 3 18 5 27h-4c-63 -87 -130 -126 -189 -126c-78 0 -133 44 -115 144c9 55 78 250 92 307c6 24 -9 24 -30 17c-15 -5 -37 -13 -50 -19c-8 -4 -11 -2 -14 3l-4 7c-3 5 -3 9 5 14
c33 21 90 51 123 51c10 0 26 -2 37 -10c23 -16 22 -40 15 -68c-29 -115 -81 -246 -92 -301c-13 -65 12 -95 53 -95c66 0 167 94 214 263l55 194c1 3 3 5 5 5h77c2 0 4 -2 3 -5l-108 -382c-16 -56 -12 -77 9 -77c19 0 51 21 94 130c3 9 7 11 13 11zM438 570l-177 83
c-27 13 -36 31 -23 54c15 26 36 29 60 10l155 -121c5 -4 5 -9 0 -17c-5 -9 -9 -12 -15 -9z" />
    <glyph glyph-name="uacute" unicode="&#xfa;" horiz-adv-x="588" 
d="M560 177l14 -1c6 -1 8 -3 5 -12c-47 -132 -95 -176 -147 -176c-47 0 -74 33 -66 99c1 9 3 18 5 27h-4c-63 -87 -130 -126 -189 -126c-78 0 -133 44 -115 144c9 55 78 250 92 307c6 24 -9 24 -30 17c-15 -5 -37 -13 -50 -19c-8 -4 -11 -2 -14 3l-4 7c-3 5 -3 9 5 14
c33 21 90 51 123 51c10 0 26 -2 37 -10c23 -16 22 -40 15 -68c-29 -115 -81 -246 -92 -301c-13 -65 12 -95 53 -95c66 0 167 94 214 263l55 194c1 3 3 5 5 5h77c2 0 4 -2 3 -5l-108 -382c-16 -56 -12 -77 9 -77c19 0 51 21 94 130c3 9 7 11 13 11zM507 653l-177 -83
c-6 -3 -10 0 -15 9c-5 8 -5 13 0 17l155 121c24 19 45 16 60 -10c13 -23 4 -41 -23 -54z" />
    <glyph glyph-name="ucircumflex" unicode="&#xfb;" horiz-adv-x="588" 
d="M560 177l14 -1c6 -1 8 -3 5 -12c-47 -132 -95 -176 -147 -176c-47 0 -74 33 -66 99c1 9 3 18 5 27h-4c-63 -87 -130 -126 -189 -126c-78 0 -133 44 -115 144c9 55 78 250 92 307c6 24 -9 24 -30 17c-15 -5 -37 -13 -50 -19c-8 -4 -11 -2 -14 3l-4 7c-3 5 -3 9 5 14
c33 21 90 51 123 51c10 0 26 -2 37 -10c23 -16 22 -40 15 -68c-29 -115 -81 -246 -92 -301c-13 -65 12 -95 53 -95c66 0 167 94 214 263l55 194c1 3 3 5 5 5h77c2 0 4 -2 3 -5l-108 -382c-16 -56 -12 -77 9 -77c19 0 51 21 94 130c3 9 7 11 13 11zM508 572l-122 112
l-152 -103c-5 -3 -8 -1 -14 6c-5 7 -7 13 -3 17l148 135c11 10 16 12 27 12c9 0 16 -3 23 -12l111 -147c4 -5 4 -9 -3 -16s-11 -8 -15 -4z" />
    <glyph glyph-name="udieresis" unicode="&#xfc;" horiz-adv-x="588" 
d="M560 177l14 -1c6 -1 8 -3 5 -12c-47 -132 -95 -176 -147 -176c-47 0 -74 33 -66 99c1 9 3 18 5 27h-4c-63 -87 -130 -126 -189 -126c-78 0 -133 44 -115 144c9 55 78 250 92 307c6 24 -9 24 -30 17c-15 -5 -37 -13 -50 -19c-8 -4 -11 -2 -14 3l-4 7c-3 5 -3 9 5 14
c33 21 90 51 123 51c10 0 26 -2 37 -10c23 -16 22 -40 15 -68c-29 -115 -81 -246 -92 -301c-13 -65 12 -95 53 -95c66 0 167 94 214 263l55 194c1 3 3 5 5 5h77c2 0 4 -2 3 -5l-108 -382c-16 -56 -12 -77 9 -77c19 0 51 21 94 130c3 9 7 11 13 11zM337 636
c-3 -29 -30 -53 -57 -53c-28 0 -46 24 -43 53s30 53 57 53c28 0 46 -24 43 -53zM525 636c-3 -29 -30 -53 -57 -53c-28 0 -46 24 -43 53s30 53 57 53c28 0 46 -24 43 -53z" />
    <glyph glyph-name="yacute" unicode="&#xfd;" horiz-adv-x="533" 
d="M340 34l22 73h-2c-60 -84 -124 -119 -181 -119c-78 0 -132 44 -115 144c9 55 78 250 92 307c6 24 -9 24 -30 17c-15 -5 -37 -13 -50 -19c-8 -4 -11 -2 -14 3l-4 7c-3 5 -3 9 5 14c33 21 90 51 123 51c10 0 26 -2 37 -10c23 -16 22 -40 15 -68c-29 -115 -81 -246 -92 -301
c-13 -65 12 -95 53 -95c66 0 167 94 214 263l55 194c1 3 3 5 6 5h76c2 0 4 -2 3 -5l-126 -439c-15 -54 -28 -91 -41 -120c-52 -112 -131 -186 -243 -186c-88 0 -157 49 -146 115c6 35 30 65 65 65c25 0 47 -17 41 -49c-6 -33 -35 -43 -38 -54c-2 -6 0 -10 4 -15
c15 -15 42 -25 70 -25c96 0 157 99 201 247zM497 653l-177 -83c-6 -3 -10 0 -15 9c-5 8 -5 13 0 17l155 121c24 19 45 16 60 -10c13 -23 4 -41 -23 -54z" />
    <glyph glyph-name="thorn" unicode="&#xfe;" horiz-adv-x="547" 
d="M239 32c73 0 156 106 196 240c39 133 13 190 -55 190c-66 0 -170 -93 -214 -263c0 -2 -2 -9 -3 -13c-6 -25 -7 -50 -3 -70c10 -53 40 -84 79 -84zM121 -256h-234c-2 0 -3 2 -2 5l4 16c1 3 2 5 5 6l48 8c18 3 28 13 36 40l241 861c22 79 8 81 -39 85l-11 1c-4 0 -5 3 -4 6
l4 16c1 3 3 5 6 5h157c2 0 3 -2 2 -5l-108 -381h1c58 72 116 105 170 105c112 0 171 -92 126 -245c-50 -170 -174 -279 -281 -279c-41 0 -82 16 -110 66c-2 2 -4 0 -5 -4l-54 -193c-19 -69 -8 -80 35 -84l20 -2c4 0 4 -3 3 -6l-4 -16c-1 -4 -3 -5 -6 -5z" />
    <glyph glyph-name="ydieresis" unicode="&#xff;" horiz-adv-x="533" 
d="M340 34l22 73h-2c-60 -84 -124 -119 -181 -119c-78 0 -132 44 -115 144c9 55 78 250 92 307c6 24 -9 24 -30 17c-15 -5 -37 -13 -50 -19c-8 -4 -11 -2 -14 3l-4 7c-3 5 -3 9 5 14c33 21 90 51 123 51c10 0 26 -2 37 -10c23 -16 22 -40 15 -68c-29 -115 -81 -246 -92 -301
c-13 -65 12 -95 53 -95c66 0 167 94 214 263l55 194c1 3 3 5 6 5h76c2 0 4 -2 3 -5l-126 -439c-15 -54 -28 -91 -41 -120c-52 -112 -131 -186 -243 -186c-88 0 -157 49 -146 115c6 35 30 65 65 65c25 0 47 -17 41 -49c-6 -33 -35 -43 -38 -54c-2 -6 0 -10 4 -15
c15 -15 42 -25 70 -25c96 0 157 99 201 247zM343 636c-3 -29 -30 -53 -57 -53c-28 0 -46 24 -43 53s30 53 57 53c28 0 46 -24 43 -53zM531 636c-3 -29 -30 -53 -57 -53c-28 0 -46 24 -43 53s30 53 57 53c28 0 46 -24 43 -53z" />
    <glyph glyph-name="Amacron" unicode="&#x100;" horiz-adv-x="697" 
d="M639 0h-243c-3 0 -6 1 -5 5l5 18c1 3 2 5 6 6l52 7c26 4 40 18 38 48l-9 135c0 5 -3 6 -6 6h-258c-3 0 -7 -1 -10 -6l-78 -125c-8 -12 -16 -27 -17 -39s6 -21 29 -23l40 -3c5 0 5 -3 4 -6l-5 -18c-1 -4 -2 -5 -5 -5h-219c-3 0 -5 1 -4 5l5 18c1 3 3 5 7 6l32 5
c27 4 36 13 56 44l423 665c3 5 6 7 11 7h39c5 0 7 -2 7 -7l47 -634c5 -62 13 -75 54 -79l10 -1c5 0 5 -3 4 -6l-5 -18c-1 -4 -2 -5 -5 -5zM481 276l-23 342h-2l-212 -342c-2 -4 -2 -6 2 -6h229c4 0 6 2 6 6zM675 836h-297c-3 0 -6 3 -5 7l6 40c1 4 4 7 7 7h297
c3 0 6 -3 5 -7l-6 -40c-1 -4 -4 -7 -7 -7z" />
    <glyph glyph-name="amacron" unicode="&#x101;" horiz-adv-x="585" 
d="M410 301l3 13c21 92 -19 154 -69 154c-69 0 -153 -106 -193 -240c-36 -123 -15 -190 45 -190c66 0 175 92 214 263zM557 177l14 -1c6 -1 8 -3 5 -12c-47 -132 -95 -176 -147 -176c-47 0 -73 33 -65 99c1 9 3 18 5 27h-4c-63 -87 -127 -126 -186 -126
c-104 0 -157 102 -116 245c49 170 180 279 277 279c42 0 76 -14 107 -61c9 -14 21 -21 35 1l26 41c3 5 6 7 13 7h19c5 0 7 -2 5 -8l-106 -378c-16 -56 -10 -78 11 -78c19 0 51 21 94 130c3 9 7 11 13 11zM580 598h-297c-3 0 -6 3 -5 7l6 40c1 4 4 7 7 7h297c3 0 6 -3 5 -7
l-6 -40c-1 -4 -4 -7 -7 -7z" />
    <glyph glyph-name="Abreve" unicode="&#x102;" horiz-adv-x="697" 
d="M639 0h-243c-3 0 -6 1 -5 5l5 18c1 3 2 5 6 6l52 7c26 4 40 18 38 48l-9 135c0 5 -3 6 -6 6h-258c-3 0 -7 -1 -10 -6l-78 -125c-8 -12 -16 -27 -17 -39s6 -21 29 -23l40 -3c5 0 5 -3 4 -6l-5 -18c-1 -4 -2 -5 -5 -5h-219c-3 0 -5 1 -4 5l5 18c1 3 3 5 7 6l32 5
c27 4 36 13 56 44l423 665c3 5 6 7 11 7h39c5 0 7 -2 7 -7l47 -634c5 -62 13 -75 54 -79l10 -1c5 0 5 -3 4 -6l-5 -18c-1 -4 -2 -5 -5 -5zM481 276l-23 342h-2l-212 -342c-2 -4 -2 -6 2 -6h229c4 0 6 2 6 6zM662 971h13c7 0 9 -3 8 -10c-14 -88 -84 -151 -164 -151
c-86 0 -138 63 -126 151c1 7 3 10 10 10h13c5 0 7 -1 8 -10c5 -56 39 -91 105 -91c57 0 103 36 122 91c3 10 6 10 11 10z" />
    <glyph glyph-name="abreve" unicode="&#x103;" horiz-adv-x="585" 
d="M410 301l3 13c21 92 -19 154 -69 154c-69 0 -153 -106 -193 -240c-36 -123 -15 -190 45 -190c66 0 175 92 214 263zM557 177l14 -1c6 -1 8 -3 5 -12c-47 -132 -95 -176 -147 -176c-47 0 -73 33 -65 99c1 9 3 18 5 27h-4c-63 -87 -127 -126 -186 -126
c-104 0 -157 102 -116 245c49 170 180 279 277 279c42 0 76 -14 107 -61c9 -14 21 -21 35 1l26 41c3 5 6 7 13 7h19c5 0 7 -2 5 -8l-106 -378c-16 -56 -10 -78 11 -78c19 0 51 21 94 130c3 9 7 11 13 11zM554 733h13c7 0 9 -3 8 -10c-14 -88 -84 -151 -164 -151
c-86 0 -138 63 -126 151c1 7 3 10 10 10h13c5 0 7 -1 8 -10c5 -56 39 -91 105 -91c57 0 103 36 122 91c3 10 6 10 11 10z" />
    <glyph glyph-name="Aogonek" unicode="&#x104;" horiz-adv-x="697" 
d="M639 0h-71l-68 -49c-50 -37 -72 -70 -74 -103c-2 -36 17 -57 57 -57c27 0 57 9 79 18c5 2 8 2 13 -9c5 -12 3 -14 -3 -18c-24 -14 -60 -32 -104 -32c-61 0 -100 34 -96 95c4 60 56 102 115 137l30 18h-121c-3 0 -6 1 -5 5l5 18c1 3 2 5 6 6l52 7c26 4 40 18 38 48l-9 135
c0 5 -3 6 -6 6h-258c-3 0 -7 -1 -10 -6l-78 -125c-8 -12 -16 -27 -17 -39s6 -21 29 -23l40 -3c5 0 5 -3 4 -6l-5 -18c-1 -4 -2 -5 -5 -5h-219c-3 0 -5 1 -4 5l5 18c1 3 3 5 7 6l32 5c27 4 36 13 56 44l423 665c3 5 6 7 11 7h39c5 0 7 -2 7 -7l47 -634c5 -62 13 -75 54 -79
l10 -1c5 0 5 -3 4 -6l-5 -18c-1 -4 -2 -5 -5 -5zM481 276l-23 342h-2l-212 -342c-2 -4 -2 -6 2 -6h229c4 0 6 2 6 6z" />
    <glyph glyph-name="aogonek" unicode="&#x105;" horiz-adv-x="585" 
d="M389 -18l16 10c-32 9 -48 41 -41 95c1 9 3 18 5 27h-4c-63 -87 -127 -126 -186 -126c-104 0 -157 102 -116 245c49 170 180 279 277 279c42 0 76 -14 107 -61c9 -14 21 -21 35 1l26 41c3 5 6 7 13 7h19c5 0 7 -2 5 -8l-106 -378c-16 -56 -10 -78 11 -78
c19 0 51 21 94 130c3 9 7 11 13 11l14 -1c6 -1 8 -3 5 -12c-28 -78 -57 -126 -86 -151c-30 -25 -45 -30 -88 -62c-50 -37 -72 -70 -74 -103c-2 -36 17 -57 57 -57c27 0 57 9 79 18c5 2 8 2 13 -9c5 -12 3 -14 -3 -18c-24 -14 -60 -32 -104 -32c-61 0 -100 34 -96 95
c4 60 56 102 115 137zM410 301l3 13c21 92 -19 154 -69 154c-69 0 -153 -106 -193 -240c-36 -123 -15 -190 45 -190c66 0 175 92 214 263z" />
    <glyph glyph-name="Cacute" unicode="&#x106;" horiz-adv-x="658" 
d="M585 165l21 -22c3 -4 1 -6 -2 -10c-69 -86 -158 -145 -255 -145c-190 0 -287 164 -241 388s220 386 394 386c48 0 89 -12 122 -33c18 -11 37 -26 49 -36c7 -5 16 -9 25 7l24 41c2 3 3 4 6 4h19c3 0 4 -1 3 -4l-72 -259c-2 -5 -5 -6 -9 -6h-19c-5 0 -7 1 -6 7
c6 42 4 82 -4 116c-15 66 -70 113 -149 108c-126 -9 -251 -155 -284 -345c-34 -193 21 -311 150 -311c80 0 147 42 218 112c3 3 6 7 10 2zM640 891l-177 -83c-6 -3 -10 0 -15 9c-5 8 -5 13 0 17l155 121c24 19 45 16 60 -10c13 -23 4 -41 -23 -54z" />
    <glyph glyph-name="cacute" unicode="&#x107;" horiz-adv-x="467" 
d="M401 128l15 -11c3 -2 3 -6 -2 -12c-58 -80 -119 -117 -197 -117c-133 0 -194 117 -145 272c45 145 172 252 288 252c80 0 142 -45 129 -113c-7 -36 -36 -62 -65 -62s-48 26 -42 57c6 28 22 45 22 55c0 4 -1 7 -6 11c-9 7 -23 11 -41 11c-80 0 -159 -95 -195 -207
c-48 -148 -2 -224 83 -224c53 0 103 31 147 85c3 4 6 5 9 3zM470 653l-177 -83c-6 -3 -10 0 -15 9c-5 8 -5 13 0 17l155 121c24 19 45 16 60 -10c13 -23 4 -41 -23 -54z" />
    <glyph glyph-name="Ccircumflex" unicode="&#x108;" horiz-adv-x="658" 
d="M585 165l21 -22c3 -4 1 -6 -2 -10c-69 -86 -158 -145 -255 -145c-190 0 -287 164 -241 388s220 386 394 386c48 0 89 -12 122 -33c18 -11 37 -26 49 -36c7 -5 16 -9 25 7l24 41c2 3 3 4 6 4h19c3 0 4 -1 3 -4l-72 -259c-2 -5 -5 -6 -9 -6h-19c-5 0 -7 1 -6 7
c6 42 4 82 -4 116c-15 66 -70 113 -149 108c-126 -9 -251 -155 -284 -345c-34 -193 21 -311 150 -311c80 0 147 42 218 112c3 3 6 7 10 2zM660 810l-122 112l-152 -103c-5 -3 -8 -1 -14 6c-5 7 -7 13 -3 17l148 135c11 10 16 12 27 12c9 0 16 -3 23 -12l111 -147
c4 -5 4 -9 -3 -16s-11 -8 -15 -4z" />
    <glyph glyph-name="ccircumflex" unicode="&#x109;" horiz-adv-x="467" 
d="M401 128l15 -11c3 -2 3 -6 -2 -12c-58 -80 -119 -117 -197 -117c-133 0 -194 117 -145 272c45 145 172 252 288 252c80 0 142 -45 129 -113c-7 -36 -36 -62 -65 -62s-48 26 -42 57c6 28 22 45 22 55c0 4 -1 7 -6 11c-9 7 -23 11 -41 11c-80 0 -159 -95 -195 -207
c-48 -148 -2 -224 83 -224c53 0 103 31 147 85c3 4 6 5 9 3zM512 572l-122 112l-152 -103c-5 -3 -8 -1 -14 6c-5 7 -7 13 -3 17l148 135c11 10 16 12 27 12c9 0 16 -3 23 -12l111 -147c4 -5 4 -9 -3 -16s-11 -8 -15 -4z" />
    <glyph glyph-name="Cdotaccent" unicode="&#x10a;" horiz-adv-x="658" 
d="M585 165l21 -22c3 -4 1 -6 -2 -10c-69 -86 -158 -145 -255 -145c-190 0 -287 164 -241 388s220 386 394 386c48 0 89 -12 122 -33c18 -11 37 -26 49 -36c7 -5 16 -9 25 7l24 41c2 3 3 4 6 4h19c3 0 4 -1 3 -4l-72 -259c-2 -5 -5 -6 -9 -6h-19c-5 0 -7 1 -6 7
c6 42 4 82 -4 116c-15 66 -70 113 -149 108c-126 -9 -251 -155 -284 -345c-34 -193 21 -311 150 -311c80 0 147 42 218 112c3 3 6 7 10 2zM635 905c-5 -35 -32 -62 -65 -62s-55 27 -50 62s32 62 65 62s55 -27 50 -62z" />
    <glyph glyph-name="cdotaccent" unicode="&#x10b;" horiz-adv-x="467" 
d="M401 128l15 -11c3 -2 3 -6 -2 -12c-58 -80 -119 -117 -197 -117c-133 0 -194 117 -145 272c45 145 172 252 288 252c80 0 142 -45 129 -113c-7 -36 -36 -62 -65 -62s-48 26 -42 57c6 28 22 45 22 55c0 4 -1 7 -6 11c-9 7 -23 11 -41 11c-80 0 -159 -95 -195 -207
c-48 -148 -2 -224 83 -224c53 0 103 31 147 85c3 4 6 5 9 3zM494 667c-5 -35 -32 -62 -65 -62s-55 27 -50 62s32 62 65 62s55 -27 50 -62z" />
    <glyph glyph-name="Ccaron" unicode="&#x10c;" horiz-adv-x="658" 
d="M585 165l21 -22c3 -4 1 -6 -2 -10c-69 -86 -158 -145 -255 -145c-190 0 -287 164 -241 388s220 386 394 386c48 0 89 -12 122 -33c18 -11 37 -26 49 -36c7 -5 16 -9 25 7l24 41c2 3 3 4 6 4h19c3 0 4 -1 3 -4l-72 -259c-2 -5 -5 -6 -9 -6h-19c-5 0 -7 1 -6 7
c6 42 4 82 -4 116c-15 66 -70 113 -149 108c-126 -9 -251 -155 -284 -345c-34 -193 21 -311 150 -311c80 0 147 42 218 112c3 3 6 7 10 2zM734 964l-148 -135c-11 -10 -16 -12 -27 -12c-9 0 -16 3 -23 12l-111 147c-4 5 -4 9 3 16s11 8 15 4l122 -112l152 103c5 3 8 1 14 -6
c5 -7 7 -13 3 -17z" />
    <glyph glyph-name="ccaron" unicode="&#x10d;" horiz-adv-x="467" 
d="M401 128l15 -11c3 -2 3 -6 -2 -12c-58 -80 -119 -117 -197 -117c-133 0 -194 117 -145 272c45 145 172 252 288 252c80 0 142 -45 129 -113c-7 -36 -36 -62 -65 -62s-48 26 -42 57c6 28 22 45 22 55c0 4 -1 7 -6 11c-9 7 -23 11 -41 11c-80 0 -159 -95 -195 -207
c-48 -148 -2 -224 83 -224c53 0 103 31 147 85c3 4 6 5 9 3zM558 726l-148 -135c-11 -10 -16 -12 -27 -12c-9 0 -16 3 -23 12l-111 147c-4 5 -4 9 3 16s11 8 15 4l122 -112l152 103c5 3 8 1 14 -6c5 -7 7 -13 3 -17z" />
    <glyph glyph-name="Dcaron" unicode="&#x10e;" horiz-adv-x="696" 
d="M220 48h45c156 0 290 147 334 339c51 220 -4 315 -148 315h-36c-50 0 -74 -8 -96 -88l-140 -498c-15 -52 -8 -68 41 -68zM263 0h-291c-3 0 -4 2 -3 5l5 18c1 3 3 5 6 6l62 10c19 3 28 11 36 38l151 538c28 99 13 100 -42 105l-17 1c-4 0 -4 2 -3 6l4 18c1 3 3 5 6 5h276
c209 0 300 -138 249 -362c-52 -224 -226 -388 -439 -388zM651 964l-148 -135c-11 -10 -16 -12 -27 -12c-9 0 -16 3 -23 12l-111 147c-4 5 -4 9 3 16s11 8 15 4l122 -112l152 103c5 3 8 1 14 -6c5 -7 7 -13 3 -17z" />
    <glyph glyph-name="dcaron" unicode="&#x10f;" horiz-adv-x="677" 
d="M414 277l10 37c7 25 8 50 4 70c-10 53 -41 84 -80 84c-73 0 -156 -106 -196 -240c-39 -133 -13 -190 55 -190c63 0 166 87 207 239zM568 177l14 -1c6 -1 8 -3 5 -12c-47 -132 -95 -176 -147 -176c-47 0 -74 33 -66 99c1 9 3 18 5 27h-3c-63 -87 -127 -126 -186 -126
c-112 0 -171 92 -126 245c50 170 174 279 281 279c41 0 76 -15 105 -64c2 -4 9 -4 11 2l64 230c22 79 7 82 -39 85l-15 1c-4 0 -5 3 -4 6l4 16c1 4 4 5 6 5h160c3 0 4 -2 3 -5l-190 -674c-16 -56 -10 -78 11 -78c19 0 51 21 94 130c3 9 7 11 13 11zM679 569c-5 -1 -7 2 -8 8
c-1 5 0 9 4 10c57 18 86 63 93 97c2 10 1 16 -5 16c-5 0 -11 -3 -24 -3c-21 0 -38 22 -34 48s24 48 57 48c41 0 59 -39 53 -83c-8 -56 -53 -123 -136 -141z" />
    <glyph glyph-name="Dcroat" unicode="&#x110;" horiz-adv-x="696" 
d="M220 48h45c156 0 290 147 334 339c51 220 -4 315 -148 315h-36c-50 0 -74 -8 -96 -88l-140 -498c-15 -52 -8 -68 41 -68zM263 0h-291c-3 0 -4 2 -3 5l5 18c1 3 3 5 6 6l62 10c19 3 28 11 36 38l151 538c28 99 13 100 -42 105l-17 1c-4 0 -4 2 -3 6l4 18c1 3 3 5 6 5h276
c209 0 300 -138 249 -362c-52 -224 -226 -388 -439 -388zM639 836h-297c-3 0 -6 3 -5 7l6 40c1 4 4 7 7 7h297c3 0 6 -3 5 -7l-6 -40c-1 -4 -4 -7 -7 -7z" />
    <glyph glyph-name="dcroat" unicode="&#x111;" horiz-adv-x="606" 
d="M568 177l14 -1c6 -1 8 -3 5 -12c-47 -132 -95 -176 -147 -176c-47 0 -74 33 -66 99c1 9 3 18 5 27h-3c-63 -87 -127 -126 -186 -126c-112 0 -171 92 -126 245c50 170 174 279 281 279c41 0 76 -15 105 -64c2 -4 9 -4 11 2l43 155h-197c-4 0 -5 3 -4 7l10 34c1 4 4 7 8 7
h196l8 27c22 79 7 82 -39 85l-15 1c-4 0 -5 3 -4 6l4 16c1 4 4 5 6 5h160c3 0 4 -2 3 -5l-38 -135h111c3 0 5 -3 4 -7l-10 -34c-1 -4 -4 -7 -8 -7h-111l-138 -491c-16 -56 -10 -78 11 -78c19 0 51 21 94 130c3 9 7 11 13 11zM414 277l10 37c7 25 8 50 4 70
c-10 53 -41 84 -80 84c-73 0 -156 -106 -196 -240c-39 -133 -13 -190 55 -190c63 0 166 87 207 239z" />
    <glyph glyph-name="Emacron" unicode="&#x112;" horiz-adv-x="626" 
d="M502 0h-531c-2 0 -4 1 -3 5l5 18c1 4 3 5 6 6l62 10c19 3 29 11 37 38l151 538c28 99 13 101 -43 105l-16 1c-3 0 -4 2 -3 6l4 18c1 4 3 5 5 5h522c6 0 9 -5 7 -11l-58 -211c-1 -5 -4 -6 -7 -6h-30c-3 0 -7 1 -6 6l20 99c12 59 1 75 -69 75h-155c-48 0 -59 -10 -76 -70
l-60 -209c-1 -4 2 -7 5 -7h123c34 0 49 9 58 32l23 57c3 7 5 8 9 8h24c3 0 5 -1 4 -5l-68 -242c-1 -3 -3 -4 -6 -4h-25c-4 0 -5 2 -4 8l10 62c4 23 -6 32 -40 32h-123c-3 0 -7 -3 -8 -7l-67 -239c-17 -60 -12 -70 36 -70h169c70 0 94 15 114 75l35 104c2 5 6 6 9 6h30
c5 0 5 -2 4 -6l-61 -216c-2 -6 -7 -11 -13 -11zM638 836h-297c-3 0 -6 3 -5 7l6 40c1 4 4 7 7 7h297c3 0 6 -3 5 -7l-6 -40c-1 -4 -4 -7 -7 -7z" />
    <glyph glyph-name="emacron" unicode="&#x113;" horiz-adv-x="471" 
d="M404 122l15 -13c2 -2 2 -4 -3 -10c-63 -76 -123 -111 -201 -111c-133 0 -193 117 -143 272c48 149 165 252 281 252c86 0 153 -55 131 -140c-18 -72 -105 -168 -340 -176c-15 -103 28 -156 99 -156c53 0 105 31 151 81c5 5 8 3 10 1zM151 237c181 8 244 88 256 145
c10 47 -12 85 -62 85c-99 0 -173 -146 -194 -230zM526 598h-297c-3 0 -6 3 -5 7l6 40c1 4 4 7 7 7h297c3 0 6 -3 5 -7l-6 -40c-1 -4 -4 -7 -7 -7z" />
    <glyph glyph-name="Ebreve" unicode="&#x114;" horiz-adv-x="626" 
d="M502 0h-531c-2 0 -4 1 -3 5l5 18c1 4 3 5 6 6l62 10c19 3 29 11 37 38l151 538c28 99 13 101 -43 105l-16 1c-3 0 -4 2 -3 6l4 18c1 4 3 5 5 5h522c6 0 9 -5 7 -11l-58 -211c-1 -5 -4 -6 -7 -6h-30c-3 0 -7 1 -6 6l20 99c12 59 1 75 -69 75h-155c-48 0 -59 -10 -76 -70
l-60 -209c-1 -4 2 -7 5 -7h123c34 0 49 9 58 32l23 57c3 7 5 8 9 8h24c3 0 5 -1 4 -5l-68 -242c-1 -3 -3 -4 -6 -4h-25c-4 0 -5 2 -4 8l10 62c4 23 -6 32 -40 32h-123c-3 0 -7 -3 -8 -7l-67 -239c-17 -60 -12 -70 36 -70h169c70 0 94 15 114 75l35 104c2 5 6 6 9 6h30
c5 0 5 -2 4 -6l-61 -216c-2 -6 -7 -11 -13 -11zM623 971h13c7 0 9 -3 8 -10c-14 -88 -84 -151 -164 -151c-86 0 -138 63 -126 151c1 7 3 10 10 10h13c5 0 7 -1 8 -10c5 -56 39 -91 105 -91c57 0 103 36 122 91c3 10 6 10 11 10z" />
    <glyph glyph-name="ebreve" unicode="&#x115;" horiz-adv-x="471" 
d="M404 122l15 -13c2 -2 2 -4 -3 -10c-63 -76 -123 -111 -201 -111c-133 0 -193 117 -143 272c48 149 165 252 281 252c86 0 153 -55 131 -140c-18 -72 -105 -168 -340 -176c-15 -103 28 -156 99 -156c53 0 105 31 151 81c5 5 8 3 10 1zM151 237c181 8 244 88 256 145
c10 47 -12 85 -62 85c-99 0 -173 -146 -194 -230zM527 733h13c7 0 9 -3 8 -10c-14 -88 -84 -151 -164 -151c-86 0 -138 63 -126 151c1 7 3 10 10 10h13c5 0 7 -1 8 -10c5 -56 39 -91 105 -91c57 0 103 36 122 91c3 10 6 10 11 10z" />
    <glyph glyph-name="Edotaccent" unicode="&#x116;" horiz-adv-x="626" 
d="M502 0h-531c-2 0 -4 1 -3 5l5 18c1 4 3 5 6 6l62 10c19 3 29 11 37 38l151 538c28 99 13 101 -43 105l-16 1c-3 0 -4 2 -3 6l4 18c1 4 3 5 5 5h522c6 0 9 -5 7 -11l-58 -211c-1 -5 -4 -6 -7 -6h-30c-3 0 -7 1 -6 6l20 99c12 59 1 75 -69 75h-155c-48 0 -59 -10 -76 -70
l-60 -209c-1 -4 2 -7 5 -7h123c34 0 49 9 58 32l23 57c3 7 5 8 9 8h24c3 0 5 -1 4 -5l-68 -242c-1 -3 -3 -4 -6 -4h-25c-4 0 -5 2 -4 8l10 62c4 23 -6 32 -40 32h-123c-3 0 -7 -3 -8 -7l-67 -239c-17 -60 -12 -70 36 -70h169c70 0 94 15 114 75l35 104c2 5 6 6 9 6h30
c5 0 5 -2 4 -6l-61 -216c-2 -6 -7 -11 -13 -11zM549 905c-5 -35 -32 -62 -65 -62s-55 27 -50 62s32 62 65 62s55 -27 50 -62z" />
    <glyph glyph-name="edotaccent" unicode="&#x117;" horiz-adv-x="471" 
d="M404 122l15 -13c2 -2 2 -4 -3 -10c-63 -76 -123 -111 -201 -111c-133 0 -193 117 -143 272c48 149 165 252 281 252c86 0 153 -55 131 -140c-18 -72 -105 -168 -340 -176c-15 -103 28 -156 99 -156c53 0 105 31 151 81c5 5 8 3 10 1zM151 237c181 8 244 88 256 145
c10 47 -12 85 -62 85c-99 0 -173 -146 -194 -230zM457 667c-5 -35 -32 -62 -65 -62s-55 27 -50 62s32 62 65 62s55 -27 50 -62z" />
    <glyph glyph-name="Eogonek" unicode="&#x118;" horiz-adv-x="626" 
d="M502 0h-36l-68 -49c-50 -37 -72 -70 -74 -103c-2 -36 17 -57 57 -57c27 0 57 9 79 18c5 2 8 2 13 -9c5 -12 3 -14 -3 -18c-24 -14 -60 -32 -104 -32c-61 0 -100 34 -96 95c4 60 56 102 115 137l30 18h-444c-2 0 -4 1 -3 5l5 18c1 4 3 5 6 6l62 10c19 3 29 11 37 38
l151 538c28 99 13 101 -43 105l-16 1c-3 0 -4 2 -3 6l4 18c1 4 3 5 5 5h522c6 0 8 -5 7 -11l-58 -211c-1 -5 -4 -6 -7 -6h-30c-3 0 -7 1 -6 6l20 99c12 59 1 75 -69 75h-155c-48 0 -59 -10 -76 -70l-60 -209c-1 -4 2 -7 5 -7h123c34 0 49 9 58 32l23 57c3 7 5 8 8 8h25
c3 0 4 -2 4 -4l-68 -243c-1 -2 -3 -4 -6 -4h-25c-3 0 -5 1 -4 8l10 62c4 23 -6 32 -40 32h-123c-3 0 -7 -3 -8 -7l-67 -239c-17 -60 -12 -70 36 -70h169c70 0 94 15 114 75l35 104c2 5 6 6 9 6h30c4 0 6 -1 4 -6l-61 -216c-2 -6 -7 -11 -13 -11z" />
    <glyph glyph-name="eogonek" unicode="&#x119;" horiz-adv-x="471" 
d="M404 122l15 -13c2 -2 2 -4 -3 -10c-32 -38 -62 -65 -94 -83c-42 -24 -68 -38 -106 -65c-51 -36 -72 -70 -74 -103c-2 -36 17 -57 57 -57c27 0 57 9 79 18c5 2 8 2 13 -9c5 -12 3 -14 -3 -18c-24 -14 -60 -32 -104 -32c-61 0 -100 34 -96 95c4 60 56 102 115 137l10 6
c-132 1 -191 118 -141 272c48 149 165 252 281 252c86 0 153 -55 131 -140c-18 -72 -105 -168 -340 -176c-15 -103 28 -156 99 -156c53 0 105 31 151 81c5 5 8 3 10 1zM153 237c181 8 242 88 254 145c10 47 -12 85 -62 85c-86 0 -159 -119 -185 -203c-3 -9 -5 -18 -7 -27z
" />
    <glyph glyph-name="Ecaron" unicode="&#x11a;" horiz-adv-x="626" 
d="M502 0h-531c-2 0 -4 1 -3 5l5 18c1 4 3 5 6 6l62 10c19 3 29 11 37 38l151 538c28 99 13 101 -43 105l-16 1c-3 0 -4 2 -3 6l4 18c1 4 3 5 5 5h522c6 0 9 -5 7 -11l-58 -211c-1 -5 -4 -6 -7 -6h-30c-3 0 -7 1 -6 6l20 99c12 59 1 75 -69 75h-155c-48 0 -59 -10 -76 -70
l-60 -209c-1 -4 2 -7 5 -7h123c34 0 49 9 58 32l23 57c3 7 5 8 9 8h24c3 0 5 -1 4 -5l-68 -242c-1 -3 -3 -4 -6 -4h-25c-4 0 -5 2 -4 8l10 62c4 23 -6 32 -40 32h-123c-3 0 -7 -3 -8 -7l-67 -239c-17 -60 -12 -70 36 -70h169c70 0 94 15 114 75l35 104c2 5 6 6 9 6h30
c5 0 5 -2 4 -6l-61 -216c-2 -6 -7 -11 -13 -11zM640 964l-148 -135c-11 -10 -16 -12 -27 -12c-9 0 -16 3 -23 12l-111 147c-4 5 -4 9 3 16s11 8 15 4l122 -112l152 103c5 3 8 1 14 -6c5 -7 7 -13 3 -17z" />
    <glyph glyph-name="ecaron" unicode="&#x11b;" horiz-adv-x="471" 
d="M404 122l15 -13c2 -2 2 -4 -3 -10c-63 -76 -123 -111 -201 -111c-133 0 -193 117 -143 272c48 149 165 252 281 252c86 0 153 -55 131 -140c-18 -72 -105 -168 -340 -176c-15 -103 28 -156 99 -156c53 0 105 31 151 81c5 5 8 3 10 1zM151 237c181 8 244 88 256 145
c10 47 -12 85 -62 85c-99 0 -173 -146 -194 -230zM540 726l-148 -135c-11 -10 -16 -12 -27 -12c-9 0 -16 3 -23 12l-111 147c-4 5 -4 9 3 16s11 8 15 4l122 -112l152 103c5 3 8 1 14 -6c5 -7 7 -13 3 -17z" />
    <glyph glyph-name="Gcircumflex" unicode="&#x11c;" horiz-adv-x="710" 
d="M574 0h-16c-3 0 -5 1 -5 4l-6 75c0 3 -3 3 -5 1c-73 -69 -135 -92 -218 -92c-179 0 -263 162 -217 386s222 388 397 388c46 0 90 -12 123 -33c18 -11 39 -27 50 -36c6 -5 16 -7 25 9l24 44c2 3 3 4 7 4h17c2 0 4 -1 3 -4l-69 -244c-1 -5 -5 -6 -9 -6h-17c-5 0 -7 1 -7 7
c1 26 2 51 -1 74c-11 83 -65 137 -159 131c-126 -8 -252 -158 -285 -348c-34 -193 6 -312 132 -312c92 0 191 60 220 171l6 23c12 47 2 60 -42 61l-34 1c-5 0 -5 3 -4 6l7 26c1 4 3 5 6 5h229c3 0 5 -1 4 -5l-7 -23c-1 -4 -3 -5 -7 -6l-30 -5c-20 -3 -26 -11 -33 -35
l-74 -263c-1 -3 -2 -4 -5 -4zM662 810l-122 112l-152 -103c-5 -3 -8 -1 -14 6c-5 7 -7 13 -3 17l148 135c11 10 16 12 27 12c9 0 16 -3 23 -12l111 -147c4 -5 4 -9 -3 -16s-11 -8 -15 -4z" />
    <glyph glyph-name="gcircumflex" unicode="&#x11d;" horiz-adv-x="501" 
d="M473 612l-89 72l-152 -103c-5 -3 -8 -1 -14 6c-5 7 -7 13 -3 17l148 135c11 10 16 12 27 12c9 0 16 -3 23 -12l78 -107c4 -5 4 -9 -3 -16s-11 -8 -15 -4zM151 90l84 -11c105 -14 185 -54 169 -160c-16 -103 -138 -177 -274 -177c-102 0 -180 45 -179 132
c0 68 55 118 117 146c-30 18 -45 48 -37 86c9 43 49 77 118 97c-29 33 -38 78 -29 132c18 99 111 177 211 177c34 0 66 -9 89 -25c-2 61 35 110 95 110c42 0 74 -26 68 -70c-3 -22 -20 -42 -42 -42c-23 0 -37 18 -34 41c1 11 5 18 5 24c0 5 -3 9 -12 9
c-32 0 -47 -29 -47 -60c0 -23 5 -48 14 -65c13 -27 17 -63 11 -99c-16 -99 -114 -177 -215 -177c-33 0 -65 8 -87 23c-34 -8 -66 -27 -70 -48c-4 -22 12 -39 45 -43zM218 -1l-61 5c-19 1 -39 4 -52 7c-50 -29 -88 -73 -88 -126c0 -57 43 -96 133 -96c89 0 181 46 194 119
c11 60 -31 83 -126 91zM265 201c61 0 112 50 133 136c20 83 -11 132 -72 132s-107 -39 -128 -127c-20 -86 6 -141 67 -141z" />
    <glyph glyph-name="Gbreve" unicode="&#x11e;" horiz-adv-x="710" 
d="M574 0h-16c-3 0 -5 1 -5 4l-6 75c0 3 -3 3 -5 1c-73 -69 -135 -92 -218 -92c-179 0 -263 162 -217 386s222 388 397 388c46 0 90 -12 123 -33c18 -11 39 -27 50 -36c6 -5 16 -7 25 9l24 44c2 3 3 4 7 4h17c2 0 4 -1 3 -4l-69 -244c-1 -5 -5 -6 -9 -6h-17c-5 0 -7 1 -7 7
c1 26 2 51 -1 74c-11 83 -65 137 -159 131c-126 -8 -252 -158 -285 -348c-34 -193 6 -312 132 -312c92 0 191 60 220 171l6 23c12 47 2 60 -42 61l-34 1c-5 0 -5 3 -4 6l7 26c1 4 3 5 6 5h229c3 0 5 -1 4 -5l-7 -23c-1 -4 -3 -5 -7 -6l-30 -5c-20 -3 -26 -11 -33 -35
l-74 -263c-1 -3 -2 -4 -5 -4zM681 971h13c7 0 9 -3 8 -10c-14 -88 -84 -151 -164 -151c-86 0 -138 63 -126 151c1 7 3 10 10 10h13c5 0 7 -1 8 -10c5 -56 39 -91 105 -91c57 0 103 36 122 91c3 10 6 10 11 10z" />
    <glyph glyph-name="gbreve" unicode="&#x11f;" horiz-adv-x="501" 
d="M495 725h12c6 0 8 -3 7 -9c-13 -79 -76 -136 -148 -136c-77 0 -124 57 -113 136c1 6 3 9 9 9h12c4 0 6 -1 7 -9c4 -50 35 -82 94 -82c52 0 93 32 110 82c3 9 6 9 10 9zM151 90l84 -11c105 -14 185 -54 169 -160c-16 -103 -138 -177 -274 -177c-102 0 -180 45 -179 132
c0 68 55 118 117 146c-30 18 -45 48 -37 86c9 43 49 77 118 97c-29 33 -38 78 -29 132c18 99 111 177 211 177c34 0 66 -9 89 -25c-2 61 35 110 95 110c42 0 74 -26 68 -70c-3 -22 -20 -42 -42 -42c-23 0 -37 18 -34 41c1 11 5 18 5 24c0 5 -3 9 -12 9
c-32 0 -47 -29 -47 -60c0 -23 5 -48 14 -65c13 -27 17 -63 11 -99c-16 -99 -114 -177 -215 -177c-33 0 -65 8 -87 23c-34 -8 -66 -27 -70 -48c-4 -22 12 -39 45 -43zM218 -1l-61 5c-19 1 -39 4 -52 7c-50 -29 -88 -73 -88 -126c0 -57 43 -96 133 -96c89 0 181 46 194 119
c11 60 -31 83 -126 91zM265 201c61 0 112 50 133 136c20 83 -11 132 -72 132s-107 -39 -128 -127c-20 -86 6 -141 67 -141z" />
    <glyph glyph-name="Gdotaccent" unicode="&#x120;" horiz-adv-x="710" 
d="M574 0h-16c-3 0 -5 1 -5 4l-6 75c0 3 -3 3 -5 1c-73 -69 -135 -92 -218 -92c-179 0 -263 162 -217 386s222 388 397 388c46 0 90 -12 123 -33c18 -11 39 -27 50 -36c6 -5 16 -7 25 9l24 44c2 3 3 4 7 4h17c2 0 4 -1 3 -4l-69 -244c-1 -5 -5 -6 -9 -6h-17c-5 0 -7 1 -7 7
c1 26 2 51 -1 74c-11 83 -65 137 -159 131c-126 -8 -252 -158 -285 -348c-34 -193 6 -312 132 -312c92 0 191 60 220 171l6 23c12 47 2 60 -42 61l-34 1c-5 0 -5 3 -4 6l7 26c1 4 3 5 6 5h229c3 0 5 -1 4 -5l-7 -23c-1 -4 -3 -5 -7 -6l-30 -5c-20 -3 -26 -11 -33 -35
l-74 -263c-1 -3 -2 -4 -5 -4zM620 905c-5 -35 -32 -62 -65 -62s-55 27 -50 62s32 62 65 62s55 -27 50 -62z" />
    <glyph glyph-name="gdotaccent" unicode="&#x121;" horiz-adv-x="501" 
d="M151 90l84 -11c105 -14 185 -54 169 -160c-16 -103 -138 -177 -274 -177c-102 0 -180 45 -179 132c0 68 55 118 117 146c-30 18 -45 48 -37 86c9 43 49 77 118 97c-29 33 -38 78 -29 132c18 99 111 177 211 177c34 0 66 -9 89 -25c-2 61 35 110 95 110
c42 0 74 -26 68 -70c-3 -22 -20 -42 -42 -42c-23 0 -37 18 -34 41c1 11 5 18 5 24c0 5 -3 9 -12 9c-32 0 -47 -29 -47 -60c0 -23 5 -48 14 -65c13 -27 17 -63 11 -99c-16 -99 -114 -177 -215 -177c-33 0 -65 8 -87 23c-34 -8 -66 -27 -70 -48c-4 -22 12 -39 45 -43zM218 -1
l-61 5c-19 1 -39 4 -52 7c-50 -29 -88 -73 -88 -126c0 -57 43 -96 133 -96c89 0 181 46 194 119c11 60 -31 83 -126 91zM265 201c61 0 112 50 133 136c20 83 -11 132 -72 132s-107 -39 -128 -127c-20 -86 6 -141 67 -141zM448 667c-5 -35 -32 -62 -65 -62s-55 27 -50 62
s32 62 65 62s55 -27 50 -62z" />
    <glyph glyph-name="Gcommaaccent" unicode="&#x122;" horiz-adv-x="710" 
d="M574 0h-16c-3 0 -5 1 -5 4l-6 75c0 3 -3 3 -5 1c-73 -69 -135 -92 -218 -92c-179 0 -263 162 -217 386s222 388 397 388c46 0 90 -12 123 -33c18 -11 39 -27 50 -36c6 -5 16 -7 25 9l24 44c2 3 3 4 7 4h17c2 0 4 -1 3 -4l-69 -244c-1 -5 -5 -6 -9 -6h-17c-5 0 -7 1 -7 7
c1 26 2 51 -1 74c-11 83 -65 137 -159 131c-126 -8 -252 -158 -285 -348c-34 -193 6 -312 132 -312c92 0 191 60 220 171l6 23c12 47 2 60 -42 61l-34 1c-5 0 -5 3 -4 6l7 26c1 4 3 5 6 5h229c3 0 5 -1 4 -5l-7 -23c-1 -4 -3 -5 -7 -6l-30 -5c-20 -3 -26 -11 -33 -35
l-74 -263c-1 -3 -2 -4 -5 -4zM190 -267c-5 -1 -7 2 -8 8c-1 5 0 9 4 10c57 18 86 63 93 97c2 10 1 16 -5 16c-5 0 -11 -3 -24 -3c-21 0 -38 22 -34 48s24 48 57 48c41 0 59 -39 53 -83c-8 -56 -53 -123 -136 -141z" />
    <glyph glyph-name="gcommaaccent" unicode="&#x123;" horiz-adv-x="501" 
d="M418 608c-4 -26 -24 -48 -57 -48c-41 0 -59 39 -53 83c8 56 53 123 136 141c5 1 7 -2 8 -8c1 -5 0 -9 -4 -10c-57 -18 -86 -63 -93 -97c-2 -10 -1 -16 5 -16c5 0 11 3 24 3c21 0 38 -22 34 -48zM151 90l84 -11c105 -14 185 -54 169 -160c-16 -103 -138 -177 -274 -177
c-102 0 -180 45 -179 132c0 68 55 118 117 146c-30 18 -45 48 -37 86c9 43 49 77 118 97c-29 33 -38 78 -29 132c18 99 111 177 211 177c34 0 66 -9 89 -25c-2 61 35 110 95 110c42 0 74 -26 68 -70c-3 -22 -20 -42 -42 -42c-23 0 -37 18 -34 41c1 11 5 18 5 24
c0 5 -3 9 -12 9c-32 0 -47 -29 -47 -60c0 -23 5 -48 14 -65c13 -27 17 -63 11 -99c-16 -99 -114 -177 -215 -177c-33 0 -65 8 -87 23c-34 -8 -66 -27 -70 -48c-4 -22 12 -39 45 -43zM218 -1l-61 5c-19 1 -39 4 -52 7c-50 -29 -88 -73 -88 -126c0 -57 43 -96 133 -96
c89 0 181 46 194 119c11 60 -31 83 -126 91zM265 201c61 0 112 50 133 136c20 83 -11 132 -72 132s-107 -39 -128 -127c-20 -86 6 -141 67 -141z" />
    <glyph glyph-name="Hcircumflex" unicode="&#x124;" horiz-adv-x="707" 
d="M637 0h-260c-3 0 -5 1 -4 5l5 18c1 4 2 5 6 6l63 10c19 3 30 11 37 38l80 289c1 4 0 7 -4 7h-302c-4 0 -8 -1 -10 -7l-64 -231c-25 -89 -13 -100 43 -105l11 -1c3 0 4 -2 3 -6l-5 -18c-1 -4 -3 -5 -6 -5h-258c-3 0 -4 1 -3 5l5 18c1 4 2 5 6 6l62 10c18 3 29 11 36 38
l151 538c28 99 13 100 -42 105l-17 1c-4 0 -4 3 -3 6l4 18c1 4 4 5 6 5h263c3 0 5 -1 4 -5l-4 -18c-1 -4 -2 -5 -6 -6l-62 -10c-19 -3 -30 -11 -37 -38l-67 -241c-1 -4 1 -7 5 -7h302c4 0 8 2 9 7l51 183c28 99 12 100 -43 105l-12 1c-4 0 -4 3 -3 6l4 18c1 4 4 5 6 5h259
c3 0 5 -1 4 -5l-4 -18c-1 -4 -2 -5 -6 -6l-63 -10c-19 -3 -29 -11 -36 -38l-151 -538c-25 -89 -13 -100 42 -105l11 -1c4 0 5 -3 4 -6l-5 -18c-1 -4 -3 -5 -5 -5zM661 810l-122 112l-152 -103c-5 -3 -8 -1 -14 6c-5 7 -7 13 -3 17l148 135c11 10 16 12 27 12
c9 0 16 -3 23 -12l111 -147c4 -5 4 -9 -3 -16s-11 -8 -15 -4z" />
    <glyph glyph-name="hcircumflex" unicode="&#x125;" horiz-adv-x="578" 
d="M553 177l14 -1c6 -1 8 -3 5 -12c-47 -132 -99 -176 -151 -176c-60 0 -82 45 -76 96c7 57 75 228 88 293c12 59 -17 85 -58 85c-64 0 -163 -93 -209 -253l-58 -204c-1 -3 -2 -5 -5 -5h-76c-4 0 -5 2 -4 6l191 674c22 79 7 82 -39 85l-15 1c-4 0 -5 3 -4 6l4 16
c1 4 4 5 6 5h160c3 0 4 -2 3 -5l-102 -370c-2 -8 2 -8 5 -4c56 68 114 98 168 98c76 0 134 -39 117 -134c-10 -55 -86 -246 -93 -304c-4 -27 6 -38 21 -38c20 0 52 21 95 130c4 9 7 11 13 11zM567 832l-122 112l-152 -103c-5 -3 -8 -1 -14 6c-5 7 -7 13 -3 17l148 135
c11 10 16 12 27 12c9 0 16 -3 23 -12l111 -147c4 -5 4 -9 -3 -16s-11 -8 -15 -4z" />
    <glyph glyph-name="Hbar" unicode="&#x126;" horiz-adv-x="727" 
d="M647 0h-260c-3 0 -5 1 -4 5l5 18c1 4 2 5 6 6l63 10c19 3 30 11 37 38l80 289c1 4 0 7 -4 7h-302c-4 0 -8 -1 -10 -7l-64 -231c-25 -89 -13 -100 43 -105l11 -1c3 0 4 -2 3 -6l-5 -18c-1 -4 -3 -5 -6 -5h-258c-3 0 -4 1 -3 5l5 18c1 4 2 5 6 6l62 10c18 3 29 11 36 38
l131 467h-105c-4 0 -5 3 -4 7l10 34c1 4 4 7 8 7h104l7 23c28 99 13 100 -42 105l-17 1c-4 0 -4 3 -3 6l4 18c1 4 4 5 6 5h263c3 0 5 -1 4 -5l-4 -18c-1 -4 -2 -5 -6 -6l-62 -10c-19 -3 -30 -11 -37 -38l-23 -81h316l7 23c28 99 12 100 -43 105l-12 1c-4 0 -4 3 -3 6l4 18
c1 4 4 5 6 5h259c3 0 5 -1 4 -5l-4 -18c-1 -4 -2 -5 -6 -6l-63 -10c-19 -3 -29 -11 -36 -38l-23 -81h105c3 0 5 -3 4 -7l-10 -34c-1 -4 -5 -7 -8 -7h-104l-115 -409c-25 -89 -13 -100 42 -105l11 -1c4 0 5 -3 4 -6l-5 -18c-1 -4 -3 -5 -5 -5zM594 432l31 112h-316l-31 -112
c-1 -4 1 -7 5 -7h302c4 0 8 2 9 7z" />
    <glyph glyph-name="hbar" unicode="&#x127;" horiz-adv-x="588" 
d="M563 177l14 -1c6 -1 8 -3 5 -12c-47 -132 -99 -176 -151 -176c-60 0 -82 45 -76 96c7 57 75 228 88 293c12 59 -17 85 -58 85c-64 0 -163 -93 -209 -253l-58 -204c-1 -3 -2 -5 -5 -5h-76c-4 0 -5 2 -4 6l169 599h-106c-4 0 -5 3 -4 7l10 34c1 4 4 7 8 7h106l8 27
c22 79 7 82 -39 85l-15 1c-4 0 -5 3 -4 6l4 16c1 4 4 5 6 5h160c3 0 4 -2 3 -5l-38 -135h193c3 0 5 -3 4 -7l-10 -34c-1 -4 -5 -7 -8 -7h-192l-51 -187c-2 -8 2 -8 5 -4c56 68 114 98 168 98c76 0 134 -39 117 -134c-10 -55 -86 -246 -93 -304c-4 -27 6 -38 21 -38
c20 0 52 21 95 130c4 9 7 11 13 11z" />
    <glyph glyph-name="Itilde" unicode="&#x128;" horiz-adv-x="300" 
d="M229 0h-258c-3 0 -4 1 -3 5l5 18c1 3 2 5 6 6l61 10c19 3 29 11 37 38l151 538c28 99 13 100 -43 105l-11 1c-3 0 -4 2 -3 6l4 18c1 4 3 5 6 5h259c2 0 4 -1 3 -5l-4 -18c-1 -4 -2 -5 -6 -6l-63 -10c-18 -3 -29 -11 -36 -38l-151 -538c-25 -89 -13 -100 42 -105l12 -1
c4 0 4 -3 3 -6l-5 -18c-1 -4 -3 -5 -6 -5zM498 956l6 -1c6 -1 7 -4 6 -11c-10 -53 -45 -113 -104 -113c-66 0 -98 70 -146 70c-24 0 -54 -14 -70 -64c-3 -10 -6 -10 -12 -9l-6 1c-6 1 -7 4 -6 11c5 54 46 113 105 113c66 0 98 -70 146 -70c24 0 53 14 69 64c3 10 6 10 12 9z
" />
    <glyph glyph-name="itilde" unicode="&#x129;" horiz-adv-x="299" 
d="M271 177l14 -1c6 -1 8 -3 5 -12c-47 -132 -99 -176 -151 -176c-49 0 -74 37 -74 83c0 19 4 43 11 64l98 304c8 24 -9 24 -30 17c-15 -5 -37 -13 -50 -19c-8 -4 -11 -2 -14 3l-4 7c-3 5 -3 9 5 14c33 21 90 51 123 51c10 0 26 -2 37 -10c23 -16 24 -41 15 -68l-107 -332
c-15 -46 -6 -66 15 -66c19 0 51 21 94 130c3 9 7 11 13 11zM407 718l6 -1c6 -1 7 -4 6 -11c-10 -53 -45 -113 -104 -113c-66 0 -98 70 -146 70c-24 0 -54 -14 -70 -64c-3 -10 -6 -10 -12 -9l-6 1c-6 1 -7 4 -6 11c5 54 46 113 105 113c66 0 98 -70 146 -70c24 0 53 14 69 64
c3 10 6 10 12 9z" />
    <glyph glyph-name="uni012A" unicode="&#x12a;" horiz-adv-x="300" 
d="M229 0h-258c-3 0 -4 1 -3 5l5 18c1 3 2 5 6 6l61 10c19 3 29 11 37 38l151 538c28 99 13 100 -43 105l-11 1c-3 0 -4 2 -3 6l4 18c1 4 3 5 6 5h259c2 0 4 -1 3 -5l-4 -18c-1 -4 -2 -5 -6 -6l-63 -10c-18 -3 -29 -11 -36 -38l-151 -538c-25 -89 -13 -100 42 -105l12 -1
c4 0 4 -3 3 -6l-5 -18c-1 -4 -3 -5 -6 -5zM476 836h-297c-3 0 -6 3 -5 7l6 40c1 4 4 7 7 7h297c3 0 6 -3 5 -7l-6 -40c-1 -4 -4 -7 -7 -7z" />
    <glyph glyph-name="imacron" unicode="&#x12b;" horiz-adv-x="299" 
d="M271 177l14 -1c6 -1 8 -3 5 -12c-47 -132 -99 -176 -151 -176c-49 0 -74 37 -74 83c0 19 4 43 11 64l98 304c8 24 -9 24 -30 17c-15 -5 -37 -13 -50 -19c-8 -4 -11 -2 -14 3l-4 7c-3 5 -3 9 5 14c33 21 90 51 123 51c10 0 26 -2 37 -10c23 -16 24 -41 15 -68l-107 -332
c-15 -46 -6 -66 15 -66c19 0 51 21 94 130c3 9 7 11 13 11zM383 598h-297c-3 0 -6 3 -5 7l6 40c1 4 4 7 7 7h297c3 0 6 -3 5 -7l-6 -40c-1 -4 -4 -7 -7 -7z" />
    <glyph glyph-name="Ibreve" unicode="&#x12c;" horiz-adv-x="300" 
d="M229 0h-258c-3 0 -4 1 -3 5l5 18c1 3 2 5 6 6l61 10c19 3 29 11 37 38l151 538c28 99 13 100 -43 105l-11 1c-3 0 -4 2 -3 6l4 18c1 4 3 5 6 5h259c2 0 4 -1 3 -5l-4 -18c-1 -4 -2 -5 -6 -6l-63 -10c-18 -3 -29 -11 -36 -38l-151 -538c-25 -89 -13 -100 42 -105l12 -1
c4 0 4 -3 3 -6l-5 -18c-1 -4 -3 -5 -6 -5zM468 971h13c7 0 9 -3 8 -10c-14 -88 -84 -151 -164 -151c-86 0 -138 63 -126 151c1 7 3 10 10 10h13c5 0 7 -1 8 -10c5 -56 39 -91 105 -91c57 0 103 36 122 91c3 10 6 10 11 10z" />
    <glyph glyph-name="uni012D" unicode="&#x12d;" horiz-adv-x="299" 
d="M271 177l14 -1c6 -1 8 -3 5 -12c-47 -132 -99 -176 -151 -176c-49 0 -74 37 -74 83c0 19 4 43 11 64l98 304c8 24 -9 24 -30 17c-15 -5 -37 -13 -50 -19c-8 -4 -11 -2 -14 3l-4 7c-3 5 -3 9 5 14c33 21 90 51 123 51c10 0 26 -2 37 -10c23 -16 24 -41 15 -68l-107 -332
c-15 -46 -6 -66 15 -66c19 0 51 21 94 130c3 9 7 11 13 11zM385 733h13c7 0 9 -3 8 -10c-14 -88 -84 -151 -164 -151c-86 0 -138 63 -126 151c1 7 3 10 10 10h13c5 0 7 -1 8 -10c5 -56 39 -91 105 -91c57 0 103 36 122 91c3 10 6 10 11 10z" />
    <glyph glyph-name="Iogonek" unicode="&#x12e;" horiz-adv-x="300" 
d="M229 0h-67l-68 -49c-50 -37 -72 -70 -74 -103c-2 -36 17 -57 57 -57c27 0 57 9 79 18c5 2 8 2 13 -9c5 -12 3 -14 -3 -18c-24 -14 -60 -32 -104 -32c-61 0 -100 34 -96 95c4 60 56 102 115 137l30 18h-140c-3 0 -4 1 -3 5l5 18c1 3 2 5 6 6l61 10c19 3 29 11 37 38
l151 538c28 99 13 100 -43 105l-11 1c-3 0 -4 2 -3 6l4 18c1 4 3 5 6 5h259c2 0 4 -1 3 -5l-4 -18c-1 -4 -2 -5 -6 -6l-63 -10c-18 -3 -29 -11 -36 -38l-151 -538c-25 -89 -13 -100 42 -105l12 -1c4 0 4 -3 3 -6l-5 -18c-1 -4 -3 -5 -6 -5z" />
    <glyph glyph-name="iogonek" unicode="&#x12f;" horiz-adv-x="299" 
d="M103 -18l14 9c-34 9 -52 41 -52 80c0 19 4 43 11 64l98 304c8 24 -9 24 -30 17c-15 -5 -37 -13 -50 -19c-8 -4 -11 -2 -14 3l-4 7c-3 5 -3 9 5 14c33 21 90 51 123 51c10 0 26 -2 37 -10c23 -16 24 -41 15 -68l-107 -332c-15 -46 -6 -66 15 -66c19 0 51 21 94 130
c3 9 7 11 13 11l14 -1c6 -1 8 -3 5 -12c-25 -71 -51 -117 -79 -143c-25 -24 -57 -42 -95 -70c-50 -37 -72 -70 -74 -103c-2 -36 17 -57 57 -57c27 0 57 9 79 18c5 2 8 2 13 -9c5 -12 3 -14 -3 -18c-24 -14 -60 -32 -104 -32c-61 0 -100 34 -96 95c4 60 56 102 115 137z
M262 592c-32 0 -57 25 -57 57s25 57 57 57s57 -25 57 -57s-25 -57 -57 -57z" />
    <glyph glyph-name="Idotaccent" unicode="&#x130;" horiz-adv-x="300" 
d="M229 0h-258c-3 0 -4 1 -3 5l5 18c1 3 2 5 6 6l61 10c19 3 29 11 37 38l151 538c28 99 13 100 -43 105l-11 1c-3 0 -4 2 -3 6l4 18c1 4 3 5 6 5h259c2 0 4 -1 3 -5l-4 -18c-1 -4 -2 -5 -6 -6l-63 -10c-18 -3 -29 -11 -36 -38l-151 -538c-25 -89 -13 -100 42 -105l12 -1
c4 0 4 -3 3 -6l-5 -18c-1 -4 -3 -5 -6 -5zM399 897c-5 -35 -32 -62 -65 -62s-55 27 -50 62s32 62 65 62s55 -27 50 -62z" />
    <glyph glyph-name="dotlessi" unicode="&#x131;" horiz-adv-x="299" 
d="M271 177l14 -1c6 -1 8 -3 5 -12c-47 -132 -99 -176 -151 -176c-49 0 -74 37 -74 83c0 19 4 43 11 64l98 304c8 24 -9 24 -30 17c-15 -5 -37 -13 -50 -19c-8 -4 -11 -2 -14 3l-4 7c-3 5 -3 9 5 14c33 21 90 51 123 51c10 0 26 -2 37 -10c23 -16 24 -41 15 -68l-107 -332
c-15 -46 -6 -66 15 -66c19 0 51 21 94 130c3 9 7 11 13 11z" />
    <glyph glyph-name="IJ" unicode="&#x132;" horiz-adv-x="788" 
d="M229 0h-258c-3 0 -4 1 -3 5l5 18c1 3 2 5 6 6l61 10c19 3 29 11 37 38l151 538c28 99 13 100 -43 105l-11 1c-3 0 -4 2 -3 6l4 18c1 4 3 5 6 5h259c2 0 4 -1 3 -5l-4 -18c-1 -4 -2 -5 -6 -6l-63 -10c-18 -3 -29 -11 -36 -38l-151 -538c-25 -89 -13 -100 42 -105l12 -1
c4 0 4 -3 3 -6l-5 -18c-1 -4 -3 -5 -6 -5zM611 215l112 399c27 99 14 103 -43 105l-37 1c-4 0 -5 3 -4 6l5 19c1 3 4 5 6 5h281c3 0 4 -2 3 -6l-4 -17c-1 -4 -2 -5 -6 -6l-58 -10c-19 -3 -30 -11 -37 -38l-120 -428c-33 -116 -105 -257 -255 -257c-89 0 -164 62 -145 181
c7 45 39 92 89 92c32 0 56 -24 51 -60c-5 -34 -31 -57 -67 -67c-14 -4 -26 -8 -22 -30c8 -40 41 -66 94 -66c83 0 127 73 157 177z" />
    <glyph glyph-name="ij" unicode="&#x133;" horiz-adv-x="564" 
d="M271 177l14 -1c6 -1 8 -3 5 -12c-47 -132 -99 -176 -151 -176c-49 0 -74 37 -74 83c0 19 4 43 11 64l98 304c8 24 -9 24 -30 17c-15 -5 -37 -13 -50 -19c-8 -4 -11 -2 -14 3l-4 7c-3 5 -3 9 5 14c33 21 90 51 123 51c10 0 26 -2 37 -10c23 -16 24 -41 15 -68l-107 -332
c-15 -46 -6 -66 15 -66c19 0 51 21 94 130c3 9 7 11 13 11zM262 592c-32 0 -57 25 -57 57s25 57 57 57s57 -25 57 -57s-25 -57 -57 -57zM569 592c-32 0 -57 25 -57 57s25 57 57 57s57 -25 57 -57s-25 -57 -57 -57zM348 -27l132 466c7 24 -9 24 -30 17
c-15 -5 -37 -13 -50 -19c-8 -4 -11 -2 -14 3l-4 7c-3 5 -3 9 5 14c33 21 90 51 123 51c10 0 26 -2 37 -10c23 -16 23 -41 15 -68l-122 -434c-11 -39 -23 -77 -38 -108c-42 -88 -93 -142 -161 -142c-59 0 -108 35 -97 91c6 29 30 52 58 52s45 -23 41 -47
c-4 -19 -17 -34 -18 -45c-1 -12 9 -15 17 -15c45 0 74 73 106 187z" />
    <glyph glyph-name="Jcircumflex" unicode="&#x134;" horiz-adv-x="488" 
d="M311 215l112 399c27 99 14 103 -43 105l-37 1c-4 0 -5 3 -4 6l5 19c1 3 4 5 6 5h281c3 0 4 -2 3 -6l-4 -17c-1 -4 -2 -5 -6 -6l-58 -10c-19 -3 -30 -11 -37 -38l-120 -428c-33 -116 -105 -257 -255 -257c-89 0 -164 62 -145 181c7 45 39 92 89 92c32 0 56 -24 51 -60
c-5 -34 -31 -57 -67 -67c-14 -4 -26 -8 -22 -30c8 -40 41 -66 94 -66c83 0 127 73 157 177zM643 810l-122 112l-152 -103c-5 -3 -8 -1 -14 6c-5 7 -7 13 -3 17l148 135c11 10 16 12 27 12c9 0 16 -3 23 -12l111 -147c4 -5 4 -9 -3 -16s-11 -8 -15 -4z" />
    <glyph glyph-name="jcircumflex" unicode="&#x135;" horiz-adv-x="270" 
d="M54 -27l132 466c7 24 -9 24 -30 17c-15 -5 -37 -13 -50 -19c-8 -4 -11 -2 -14 3l-4 7c-3 5 -3 9 5 14c33 21 90 51 123 51c10 0 26 -2 37 -10c23 -16 23 -41 15 -68l-122 -434c-11 -39 -23 -77 -38 -108c-42 -88 -93 -142 -161 -142c-59 0 -108 35 -97 91
c6 29 30 52 58 52s45 -23 41 -47c-4 -19 -17 -34 -18 -45c-1 -12 9 -15 17 -15c45 0 74 73 106 187zM375 572l-122 112l-152 -103c-5 -3 -8 -1 -14 6c-5 7 -7 13 -3 17l148 135c11 10 16 12 27 12c9 0 16 -3 23 -12l111 -147c4 -5 4 -9 -3 -16s-11 -8 -15 -4z" />
    <glyph glyph-name="Kcommaaccent" unicode="&#x136;" horiz-adv-x="680" 
d="M620 0h-255c-3 0 -6 1 -5 5l5 18c1 3 3 6 7 6l40 2c25 2 33 11 36 22c2 9 -1 22 -5 35l-101 328l-103 -83l-55 -198c-28 -99 -13 -100 43 -105l12 -1c4 0 4 -3 3 -6l-5 -18c-1 -4 -3 -5 -5 -5h-260c-2 0 -4 1 -3 5l5 18c1 3 3 5 6 6l62 10c19 3 28 11 36 38l151 538
c28 99 13 100 -42 105l-16 1c-4 0 -5 2 -4 6l4 18c1 4 4 5 6 5h262c2 0 3 -2 2 -5l-4 -18c-1 -4 -3 -5 -6 -6l-59 -10c-19 -3 -30 -11 -37 -38l-72 -256l306 248c12 10 22 20 25 31c4 15 -6 23 -27 24l-23 1c-5 0 -6 2 -5 6l4 18c1 3 4 5 7 5h245c3 0 4 -2 3 -5l-4 -18
c-1 -4 -3 -5 -7 -6l-30 -5c-42 -7 -66 -21 -119 -64l-226 -180l115 -353c20 -61 41 -80 78 -86l23 -4c4 -1 4 -3 3 -6l-5 -18c-1 -4 -3 -5 -6 -5zM197 -267c-5 -1 -7 2 -8 8c-1 5 0 9 4 10c57 18 86 63 93 97c2 10 1 16 -5 16c-5 0 -11 -3 -24 -3c-21 0 -38 22 -34 48
s24 48 57 48c41 0 59 -39 53 -83c-8 -56 -53 -123 -136 -141z" />
    <glyph glyph-name="kcommaaccent" unicode="&#x137;" horiz-adv-x="538" 
d="M507 177l14 -1c7 -1 8 -5 5 -12c-45 -125 -95 -176 -147 -176c-60 0 -84 45 -78 96c3 27 10 60 15 95c9 60 -14 106 -85 106h-45l-78 -279c-1 -5 -3 -6 -6 -6h-75c-2 0 -5 1 -4 6l190 674c22 79 7 82 -39 85l-15 1c-4 0 -5 3 -4 6l4 16c1 4 4 5 6 5h160c3 0 4 -2 3 -5
l-131 -466h12c64 0 99 33 128 78c37 60 68 112 131 112c46 0 82 -31 78 -78c-3 -34 -27 -58 -56 -58s-44 26 -44 48c0 15 3 22 5 30c2 9 -3 14 -10 14c-14 0 -30 -17 -64 -72c-25 -40 -45 -71 -90 -88c75 -7 118 -47 104 -133c-4 -25 -12 -73 -15 -101c-3 -27 8 -38 23 -38
c19 0 54 29 95 130c3 9 7 11 13 11zM112 -267c-5 -1 -7 2 -8 8c-1 5 0 9 4 10c57 18 86 63 93 97c2 10 1 16 -5 16c-5 0 -11 -3 -24 -3c-21 0 -38 22 -34 48s24 48 57 48c41 0 59 -39 53 -83c-8 -56 -53 -123 -136 -141z" />
    <glyph glyph-name="kgreenlandic" unicode="&#x138;" horiz-adv-x="553" 
d="M522 177l14 -1c7 -1 8 -5 5 -12c-45 -125 -95 -176 -147 -176c-60 0 -84 45 -78 96c3 27 10 60 15 95c9 60 -14 106 -85 106h-45l-78 -279c-1 -5 -3 -6 -6 -6h-75c-2 0 -5 1 -4 6l122 433c7 24 -9 24 -30 17c-15 -5 -37 -13 -50 -19c-8 -4 -11 -2 -14 3l-4 7
c-3 5 -3 9 5 14c33 21 90 51 123 51c10 0 28 -2 39 -10c23 -16 23 -41 15 -68l-32 -112h12c64 0 99 33 128 78c37 60 68 112 131 112c46 0 82 -31 78 -78c-3 -34 -27 -58 -56 -58s-44 26 -44 48c0 15 3 22 5 30c2 9 -3 14 -10 14c-14 0 -30 -17 -64 -72
c-25 -40 -45 -71 -90 -88c75 -7 118 -47 104 -133c-4 -25 -12 -73 -15 -101c-3 -27 8 -38 23 -38c19 0 54 29 95 130c3 9 7 11 13 11z" />
    <glyph glyph-name="Lacute" unicode="&#x139;" horiz-adv-x="592" 
d="M490 0h-519c-2 0 -4 1 -3 5l5 18c1 3 3 5 6 6l62 10c19 3 29 11 37 38l151 538c28 99 13 101 -43 105l-16 1c-3 0 -4 2 -3 6l4 18c1 3 3 5 6 5h264c3 0 4 -2 3 -5l-4 -18c-1 -4 -2 -5 -6 -6l-63 -10c-19 -3 -29 -11 -36 -38l-156 -555c-17 -60 -12 -70 36 -70h157
c70 0 90 16 111 75l47 136c2 5 5 6 8 6h31c3 0 6 -1 5 -6l-72 -248c-2 -6 -6 -11 -12 -11zM417 891l-177 -83c-6 -3 -10 0 -15 9c-5 8 -5 13 0 17l155 121c24 19 45 16 60 -10c13 -23 4 -41 -23 -54z" />
    <glyph glyph-name="lacute" unicode="&#x13a;" horiz-adv-x="286" 
d="M254 177l14 -1c6 -1 8 -3 5 -12c-47 -132 -99 -176 -151 -176s-83 33 -75 99c1 9 3 18 5 27l160 566c23 79 7 82 -39 85l-15 1c-4 0 -5 3 -4 6l4 16c1 4 4 5 6 5h159c3 0 4 -2 3 -5l-190 -674c-16 -56 -10 -78 11 -78c19 0 51 21 94 130c3 9 7 11 13 11zM387 923
l-177 -83c-6 -3 -10 0 -15 9c-5 8 -5 13 0 17l155 121c24 19 45 16 60 -10c13 -23 4 -41 -23 -54z" />
    <glyph glyph-name="Lcommaaccent" unicode="&#x13b;" horiz-adv-x="592" 
d="M490 0h-519c-2 0 -4 1 -3 5l5 18c1 3 3 5 6 6l62 10c19 3 29 11 37 38l151 538c28 99 13 101 -43 105l-16 1c-3 0 -4 2 -3 6l4 18c1 3 3 5 6 5h264c3 0 4 -2 3 -5l-4 -18c-1 -4 -2 -5 -6 -6l-63 -10c-19 -3 -29 -11 -36 -38l-156 -555c-17 -60 -12 -70 36 -70h157
c70 0 90 16 111 75l47 136c2 5 5 6 8 6h31c3 0 6 -1 5 -6l-72 -248c-2 -6 -6 -11 -12 -11zM170 -267c-5 -1 -7 2 -8 8c-1 5 0 9 4 10c57 18 86 63 93 97c2 10 1 16 -5 16c-5 0 -11 -3 -24 -3c-21 0 -38 22 -34 48s24 48 57 48c41 0 59 -39 53 -83c-8 -56 -53 -123 -136 -141
z" />
    <glyph glyph-name="lcommaaccent" unicode="&#x13c;" horiz-adv-x="286" 
d="M254 177l14 -1c6 -1 8 -3 5 -12c-47 -132 -99 -176 -151 -176s-83 33 -75 99c1 9 3 18 5 27l160 566c23 79 7 82 -39 85l-15 1c-4 0 -5 3 -4 6l4 16c1 4 4 5 6 5h159c3 0 4 -2 3 -5l-190 -674c-16 -56 -10 -78 11 -78c19 0 51 21 94 130c3 9 7 11 13 11zM-6 -267
c-5 -1 -7 2 -8 8c-1 5 0 9 4 10c57 18 86 63 93 97c2 10 1 16 -5 16c-5 0 -11 -3 -24 -3c-21 0 -38 22 -34 48s24 48 57 48c41 0 59 -39 53 -83c-8 -56 -53 -123 -136 -141z" />
    <glyph glyph-name="Lcaron" unicode="&#x13d;" horiz-adv-x="592" 
d="M490 0h-519c-2 0 -4 1 -3 5l5 18c1 3 3 5 6 6l62 10c19 3 29 11 37 38l151 538c28 99 13 101 -43 105l-16 1c-3 0 -4 2 -3 6l4 18c1 3 3 5 6 5h264c3 0 4 -2 3 -5l-4 -18c-1 -4 -2 -5 -6 -6l-63 -10c-19 -3 -29 -11 -36 -38l-156 -555c-17 -60 -12 -70 36 -70h157
c70 0 90 16 111 75l47 136c2 5 5 6 8 6h31c3 0 6 -1 5 -6l-72 -248c-2 -6 -6 -11 -12 -11zM506 552c-5 -1 -7 2 -8 8c-1 5 0 9 4 10c57 18 86 63 93 97c2 10 1 16 -5 16c-5 0 -11 -3 -24 -3c-21 0 -38 22 -34 48s24 48 57 48c41 0 59 -39 53 -83c-8 -56 -53 -123 -136 -141z
" />
    <glyph glyph-name="lcaron" unicode="&#x13e;" horiz-adv-x="363" 
d="M254 177l14 -1c6 -1 8 -3 5 -12c-47 -132 -99 -176 -151 -176s-83 33 -75 99c1 9 3 18 5 27l160 566c23 79 7 82 -39 85l-15 1c-4 0 -5 3 -4 6l4 16c1 4 4 5 6 5h159c3 0 4 -2 3 -5l-190 -674c-16 -56 -10 -78 11 -78c19 0 51 21 94 130c3 9 7 11 13 11zM365 569
c-5 -1 -7 2 -8 8c-1 5 0 9 4 10c57 18 86 63 93 97c2 10 1 16 -5 16c-5 0 -11 -3 -24 -3c-21 0 -38 22 -34 48s24 48 57 48c41 0 59 -39 53 -83c-8 -56 -53 -123 -136 -141z" />
    <glyph glyph-name="Ldot" unicode="&#x13f;" horiz-adv-x="592" 
d="M490 0h-519c-2 0 -4 1 -3 5l5 18c1 3 3 5 6 6l62 10c19 3 29 11 37 38l151 538c28 99 13 101 -43 105l-16 1c-3 0 -4 2 -3 6l4 18c1 3 3 5 6 5h264c3 0 4 -2 3 -5l-4 -18c-1 -4 -2 -5 -6 -6l-63 -10c-19 -3 -29 -11 -36 -38l-156 -555c-17 -60 -12 -70 36 -70h157
c70 0 90 16 111 75l47 136c2 5 5 6 8 6h31c3 0 6 -1 5 -6l-72 -248c-2 -6 -6 -11 -12 -11zM515 438c-5 -35 -32 -62 -65 -62s-55 27 -50 62s32 62 65 62s55 -27 50 -62z" />
    <glyph glyph-name="ldot" unicode="&#x140;" horiz-adv-x="382" 
d="M254 177l14 -1c6 -1 8 -3 5 -12c-47 -132 -99 -176 -151 -176s-83 33 -75 99c1 9 3 18 5 27l160 566c23 79 7 82 -39 85l-15 1c-4 0 -5 3 -4 6l4 16c1 4 4 5 6 5h159c3 0 4 -2 3 -5l-190 -674c-16 -56 -10 -78 11 -78c19 0 51 21 94 130c3 9 7 11 13 11zM422 438
c-5 -35 -32 -62 -65 -62s-55 27 -50 62s32 62 65 62s55 -27 50 -62z" />
    <glyph glyph-name="Lslash" unicode="&#x141;" horiz-adv-x="612" 
d="M510 0h-519c-2 0 -4 1 -3 5l5 18c1 3 3 5 6 6l62 10c19 3 29 11 37 38l63 227l-129 -58c-5 -2 -6 0 -5 4l11 41c1 4 5 8 9 10l130 57l72 257c28 99 13 101 -43 105l-16 1c-3 0 -4 2 -3 6l4 18c1 3 3 5 6 5h264c3 0 4 -2 3 -5l-4 -18c-1 -4 -2 -5 -6 -6l-63 -10
c-19 -3 -29 -11 -36 -38l-76 -270l175 79c5 2 7 -1 6 -5l-12 -41c-1 -4 -5 -7 -9 -9l-175 -79l-65 -230c-17 -60 -12 -70 36 -70h157c70 0 90 16 111 75l47 136c2 5 5 6 8 6h31c3 0 6 -1 5 -6l-72 -248c-2 -6 -6 -11 -12 -11z" />
    <glyph glyph-name="lslash" unicode="&#x142;" horiz-adv-x="337" 
d="M301 177l14 -1c6 -1 8 -3 5 -12c-47 -132 -99 -176 -151 -176s-83 33 -75 99c1 9 3 18 5 27l68 240l-119 -52c-4 -2 -6 0 -5 4l11 37c1 4 4 8 8 10l119 52l78 275c22 79 7 82 -39 85l-15 1c-4 0 -5 3 -4 6l4 16c1 4 4 5 6 5h160c2 0 3 -2 2 -5l-97 -341l120 54
c4 2 5 -1 4 -5l-10 -37c-1 -4 -4 -7 -8 -9l-120 -53l-79 -283c-15 -56 -10 -78 11 -78c19 0 51 21 94 130c3 9 7 11 13 11z" />
    <glyph glyph-name="Nacute" unicode="&#x143;" horiz-adv-x="695" 
d="M542 0h-37c-5 0 -8 2 -9 5l-189 612c-6 19 -8 33 -8 33h-1l-144 -515c-28 -99 -12 -100 42 -105l17 -1c4 0 4 -3 3 -6l-5 -18c-1 -4 -3 -5 -5 -5h-236c-3 0 -4 2 -3 5l5 18c1 3 2 5 6 6l62 10c19 3 29 11 37 38l151 538c28 99 12 100 -43 105l-16 1c-4 0 -4 2 -3 6l4 18
c1 3 2 5 5 5h179c5 0 5 -2 6 -5l166 -534c6 -19 9 -33 9 -33h1l111 397c36 129 23 140 -31 145l-17 1c-4 0 -4 2 -3 6l4 18c1 4 4 5 6 5h235c3 0 4 -2 3 -5l-4 -18c-1 -4 -2 -5 -5 -6l-63 -10c-19 -3 -30 -11 -37 -38l-188 -669c-1 -3 -2 -4 -5 -4zM621 891l-177 -83
c-6 -3 -10 0 -15 9c-5 8 -5 13 0 17l155 121c24 19 45 16 60 -10c13 -23 4 -41 -23 -54z" />
    <glyph glyph-name="nacute" unicode="&#x144;" horiz-adv-x="594" 
d="M568 177l14 -1c8 -1 7 -5 5 -12c-44 -125 -92 -176 -147 -176c-60 0 -86 45 -80 96c7 57 75 228 88 293c12 59 -14 85 -55 85c-64 0 -166 -93 -212 -253l-58 -204c-1 -4 -3 -5 -5 -5h-77c-3 0 -4 2 -3 5l121 427c7 24 -10 30 -31 23c-15 -5 -34 -12 -47 -18
c-8 -4 -11 -2 -14 3l-4 7c-3 5 -3 9 5 14c33 21 90 51 123 51c10 0 25 -2 36 -10c18 -13 16 -32 11 -52l-10 -40c-2 -8 5 -8 8 -4c69 80 129 106 180 106c75 0 133 -39 116 -134c-10 -55 -85 -246 -93 -304c-4 -27 6 -38 21 -38c21 0 56 29 95 130c3 9 7 11 13 11zM466 653
l-177 -83c-6 -3 -10 0 -15 9c-5 8 -5 13 0 17l155 121c24 19 45 16 60 -10c13 -23 4 -41 -23 -54z" />
    <glyph glyph-name="Ncommaaccent" unicode="&#x145;" horiz-adv-x="695" 
d="M542 0h-37c-5 0 -8 2 -9 5l-189 612c-6 19 -8 33 -8 33h-1l-144 -515c-28 -99 -12 -100 42 -105l17 -1c4 0 4 -3 3 -6l-5 -18c-1 -4 -3 -5 -5 -5h-236c-3 0 -4 2 -3 5l5 18c1 3 2 5 6 6l62 10c19 3 29 11 37 38l151 538c28 99 12 100 -43 105l-16 1c-4 0 -4 2 -3 6l4 18
c1 3 2 5 5 5h179c5 0 5 -2 6 -5l166 -534c6 -19 9 -33 9 -33h1l111 397c36 129 23 140 -31 145l-17 1c-4 0 -4 2 -3 6l4 18c1 4 4 5 6 5h235c3 0 4 -2 3 -5l-4 -18c-1 -4 -2 -5 -5 -6l-63 -10c-19 -3 -30 -11 -37 -38l-188 -669c-1 -3 -2 -4 -5 -4zM230 -267
c-5 -1 -7 2 -8 8c-1 5 0 9 4 10c57 18 86 63 93 97c2 10 1 16 -5 16c-5 0 -11 -3 -24 -3c-21 0 -38 22 -34 48s24 48 57 48c41 0 59 -39 53 -83c-8 -56 -53 -123 -136 -141z" />
    <glyph glyph-name="ncommaaccent" unicode="&#x146;" horiz-adv-x="594" 
d="M568 177l14 -1c8 -1 7 -5 5 -12c-44 -125 -92 -176 -147 -176c-60 0 -86 45 -80 96c7 57 75 228 88 293c12 59 -14 85 -55 85c-64 0 -166 -93 -212 -253l-58 -204c-1 -4 -3 -5 -5 -5h-77c-3 0 -4 2 -3 5l121 427c7 24 -10 30 -31 23c-15 -5 -34 -12 -47 -18
c-8 -4 -11 -2 -14 3l-4 7c-3 5 -3 9 5 14c33 21 90 51 123 51c10 0 25 -2 36 -10c18 -13 16 -32 11 -52l-10 -40c-2 -8 5 -8 8 -4c69 80 129 106 180 106c75 0 133 -39 116 -134c-10 -55 -85 -246 -93 -304c-4 -27 6 -38 21 -38c21 0 56 29 95 130c3 9 7 11 13 11zM156 -267
c-5 -1 -7 2 -8 8c-1 5 0 9 4 10c57 18 86 63 93 97c2 10 1 16 -5 16c-5 0 -11 -3 -24 -3c-21 0 -38 22 -34 48s24 48 57 48c41 0 59 -39 53 -83c-8 -56 -53 -123 -136 -141z" />
    <glyph glyph-name="Ncaron" unicode="&#x147;" horiz-adv-x="695" 
d="M542 0h-37c-5 0 -8 2 -9 5l-189 612c-6 19 -8 33 -8 33h-1l-144 -515c-28 -99 -12 -100 42 -105l17 -1c4 0 4 -3 3 -6l-5 -18c-1 -4 -3 -5 -5 -5h-236c-3 0 -4 2 -3 5l5 18c1 3 2 5 6 6l62 10c19 3 29 11 37 38l151 538c28 99 12 100 -43 105l-16 1c-4 0 -4 2 -3 6l4 18
c1 3 2 5 5 5h179c5 0 5 -2 6 -5l166 -534c6 -19 9 -33 9 -33h1l111 397c36 129 23 140 -31 145l-17 1c-4 0 -4 2 -3 6l4 18c1 4 4 5 6 5h235c3 0 4 -2 3 -5l-4 -18c-1 -4 -2 -5 -5 -6l-63 -10c-19 -3 -30 -11 -37 -38l-188 -669c-1 -3 -2 -4 -5 -4zM672 964l-148 -135
c-11 -10 -16 -12 -27 -12c-9 0 -16 3 -23 12l-111 147c-4 5 -4 9 3 16s11 8 15 4l122 -112l152 103c5 3 8 1 14 -6c5 -7 7 -13 3 -17z" />
    <glyph glyph-name="ncaron" unicode="&#x148;" horiz-adv-x="594" 
d="M568 177l14 -1c8 -1 7 -5 5 -12c-44 -125 -92 -176 -147 -176c-60 0 -86 45 -80 96c7 57 75 228 88 293c12 59 -14 85 -55 85c-64 0 -166 -93 -212 -253l-58 -204c-1 -4 -3 -5 -5 -5h-77c-3 0 -4 2 -3 5l121 427c7 24 -10 30 -31 23c-15 -5 -34 -12 -47 -18
c-8 -4 -11 -2 -14 3l-4 7c-3 5 -3 9 5 14c33 21 90 51 123 51c10 0 25 -2 36 -10c18 -13 16 -32 11 -52l-10 -40c-2 -8 5 -8 8 -4c69 80 129 106 180 106c75 0 133 -39 116 -134c-10 -55 -85 -246 -93 -304c-4 -27 6 -38 21 -38c21 0 56 29 95 130c3 9 7 11 13 11zM560 726
l-148 -135c-11 -10 -16 -12 -27 -12c-9 0 -16 3 -23 12l-111 147c-4 5 -4 9 3 16s11 8 15 4l122 -112l152 103c5 3 8 1 14 -6c5 -7 7 -13 3 -17z" />
    <glyph glyph-name="napostrophe" unicode="&#x149;" horiz-adv-x="711" 
d="M685 177l14 -1c8 -1 7 -5 5 -12c-44 -125 -92 -176 -147 -176c-60 0 -86 45 -80 96c7 57 75 228 88 293c12 59 -14 85 -55 85c-64 0 -166 -93 -212 -253l-58 -204c-1 -4 -3 -5 -5 -5h-77c-3 0 -4 2 -3 5l121 427c7 24 -10 30 -31 23c-15 -5 -34 -12 -47 -18
c-8 -4 -11 -2 -14 3l-4 7c-3 5 -3 9 5 14c33 21 90 51 123 51c10 0 25 -2 36 -10c18 -13 16 -32 11 -52l-10 -40c-2 -8 5 -8 8 -4c69 80 129 106 180 106c75 0 133 -39 116 -134c-10 -55 -85 -246 -93 -304c-4 -27 6 -38 21 -38c21 0 56 29 95 130c3 9 7 11 13 11zM49 477
c-5 -1 -7 2 -8 8c-1 5 0 9 4 10c57 18 86 63 93 97c2 10 1 16 -5 16c-5 0 -11 -3 -24 -3c-21 0 -38 22 -34 48s24 48 57 48c41 0 59 -39 53 -83c-8 -56 -53 -123 -136 -141z" />
    <glyph glyph-name="Eng" unicode="&#x14a;" horiz-adv-x="695" 
d="M475 -40l16 60l-184 597c-6 19 -8 33 -8 33h-1l-144 -515c-28 -99 -12 -100 42 -105l17 -1c4 0 4 -3 3 -6l-5 -18c-1 -4 -3 -5 -5 -5h-236c-3 0 -4 2 -3 5l5 18c1 3 2 5 6 6l62 10c19 3 29 11 37 38l151 538c28 99 12 100 -43 105l-16 1c-4 0 -4 2 -3 6l4 18c1 3 2 5 5 5
h179c5 0 5 -2 6 -5l166 -534c6 -19 9 -33 9 -33h1l111 397c36 129 23 140 -31 145l-17 1c-4 0 -4 2 -3 6l4 18c1 4 4 5 6 5h235c3 0 4 -2 3 -5l-4 -18c-1 -4 -2 -5 -5 -6l-63 -10c-19 -3 -29 -11 -37 -38l-193 -686c-29 -104 -69 -231 -194 -231c-69 0 -134 56 -116 163
c7 40 35 83 80 83c29 0 51 -22 46 -54c-4 -31 -28 -52 -60 -61c-13 -3 -23 -7 -20 -27c7 -36 30 -59 70 -59c66 0 103 71 127 159z" />
    <glyph glyph-name="eng" unicode="&#x14b;" horiz-adv-x="552" 
d="M336 -27l107 379c22 76 -9 110 -50 110c-64 0 -166 -93 -212 -253l-58 -204c-1 -4 -3 -5 -5 -5h-77c-3 0 -4 2 -3 5l121 427c7 24 -10 30 -31 23c-15 -5 -34 -12 -47 -18c-8 -4 -11 -2 -14 3l-4 7c-3 5 -3 9 5 14c33 21 90 51 123 51c10 0 25 -2 36 -10
c18 -13 16 -32 11 -52l-10 -40c-2 -8 5 -8 8 -4c69 80 129 106 180 106c75 0 141 -55 110 -164l-98 -348c-11 -39 -23 -77 -38 -108c-42 -88 -93 -142 -161 -142c-59 0 -108 35 -97 91c6 29 30 52 58 52s45 -23 41 -47c-4 -19 -17 -34 -18 -45c-1 -12 9 -15 17 -15
c45 0 74 73 106 187z" />
    <glyph glyph-name="Omacron" unicode="&#x14c;" horiz-adv-x="699" 
d="M321 42c207 0 305 313 305 489c0 117 -52 177 -134 177c-207 0 -305 -313 -305 -489c0 -117 52 -177 134 -177zM325 -12c-152 0 -231 121 -231 278c0 260 185 496 394 496c152 0 231 -121 231 -278c0 -260 -185 -496 -394 -496zM692 836h-297c-3 0 -6 3 -5 7l6 40
c1 4 4 7 7 7h297c3 0 6 -3 5 -7l-6 -40c-1 -4 -4 -7 -7 -7z" />
    <glyph glyph-name="omacron" unicode="&#x14d;" horiz-adv-x="509" 
d="M221 -12c-112 0 -161 93 -161 196c0 138 108 328 268 328c112 0 161 -93 161 -196c0 -138 -108 -328 -268 -328zM220 33c113 0 189 209 189 318c0 58 -21 116 -80 116c-113 0 -189 -206 -189 -315c0 -60 20 -119 80 -119zM521 598h-297c-3 0 -6 3 -5 7l6 40c1 4 4 7 7 7
h297c3 0 6 -3 5 -7l-6 -40c-1 -4 -4 -7 -7 -7z" />
    <glyph glyph-name="Obreve" unicode="&#x14e;" horiz-adv-x="699" 
d="M321 42c207 0 305 313 305 489c0 117 -52 177 -134 177c-207 0 -305 -313 -305 -489c0 -117 52 -177 134 -177zM325 -12c-152 0 -231 121 -231 278c0 260 185 496 394 496c152 0 231 -121 231 -278c0 -260 -185 -496 -394 -496zM701 971h13c7 0 9 -3 8 -10
c-14 -88 -84 -151 -164 -151c-86 0 -138 63 -126 151c1 7 3 10 10 10h13c5 0 7 -1 8 -10c5 -56 39 -91 105 -91c57 0 103 36 122 91c3 10 6 10 11 10z" />
    <glyph glyph-name="obreve" unicode="&#x14f;" horiz-adv-x="509" 
d="M221 -12c-112 0 -161 93 -161 196c0 138 108 328 268 328c112 0 161 -93 161 -196c0 -138 -108 -328 -268 -328zM220 33c113 0 189 209 189 318c0 58 -21 116 -80 116c-113 0 -189 -206 -189 -315c0 -60 20 -119 80 -119zM529 733h13c7 0 9 -3 8 -10
c-14 -88 -84 -151 -164 -151c-86 0 -138 63 -126 151c1 7 3 10 10 10h13c5 0 7 -1 8 -10c5 -56 39 -91 105 -91c57 0 103 36 122 91c3 10 6 10 11 10z" />
    <glyph glyph-name="Ohungarumlaut" unicode="&#x150;" horiz-adv-x="699" 
d="M321 42c207 0 305 313 305 489c0 117 -52 177 -134 177c-207 0 -305 -313 -305 -489c0 -117 52 -177 134 -177zM325 -12c-152 0 -231 121 -231 278c0 260 185 496 394 496c152 0 231 -121 231 -278c0 -260 -185 -496 -394 -496zM561 901l-160 -94c-4 -3 -6 -1 -12 6
c-5 6 -8 11 -3 15l141 130c22 21 43 21 56 -1c12 -20 4 -41 -22 -56zM743 901l-160 -94c-4 -3 -7 -1 -13 6c-4 6 -7 12 -3 15l142 130c22 20 43 21 56 -1c13 -21 3 -41 -22 -56z" />
    <glyph glyph-name="ohungarumlaut" unicode="&#x151;" horiz-adv-x="509" 
d="M221 -12c-112 0 -161 93 -161 196c0 138 108 328 268 328c112 0 161 -93 161 -196c0 -138 -108 -328 -268 -328zM220 33c113 0 189 209 189 318c0 58 -21 116 -80 116c-113 0 -189 -206 -189 -315c0 -60 20 -119 80 -119zM404 663l-160 -94c-4 -3 -6 -1 -12 6
c-5 6 -8 11 -3 15l141 130c22 21 43 21 56 -1c12 -20 4 -41 -22 -56zM586 663l-160 -94c-4 -3 -7 -1 -13 6c-4 6 -7 12 -3 15l142 130c22 20 43 21 56 -1c13 -21 3 -41 -22 -56z" />
    <glyph glyph-name="OE" unicode="&#x152;" horiz-adv-x="1009" 
d="M885 0h-366c-50 0 -117 -12 -189 -12c-191 0 -270 187 -220 401c49 209 186 373 377 373c72 0 131 -12 181 -12h413c6 0 9 -5 7 -11l-58 -211c-1 -5 -4 -6 -7 -6h-30c-4 0 -7 2 -6 7l20 98c12 59 1 75 -69 75h-145c-48 0 -59 -10 -76 -70l-60 -209c-1 -4 2 -7 5 -7h106
c34 0 49 9 58 32l23 57c3 7 5 8 8 8h25c3 0 5 -2 4 -5l-68 -242c-1 -3 -3 -4 -6 -4h-25c-3 0 -5 1 -4 8l10 62c4 23 -6 32 -40 32h-106c-3 0 -7 -3 -8 -7l-67 -239c-17 -60 -12 -70 36 -70h159c70 0 94 15 114 75l35 104c2 5 6 6 9 6h30c5 0 5 -2 4 -6l-61 -216
c-2 -6 -7 -11 -13 -11zM486 128l136 484c23 80 -38 100 -134 100c-126 0 -227 -107 -277 -326c-41 -181 -22 -348 121 -348c89 0 132 10 154 90z" />
    <glyph glyph-name="oe" unicode="&#x153;" horiz-adv-x="800" 
d="M733 122l15 -13c2 -2 2 -4 -3 -10c-63 -76 -123 -111 -191 -111c-75 0 -129 52 -147 127h-2c-48 -79 -119 -127 -186 -127c-68 0 -111 37 -136 87c-16 32 -25 71 -25 114c0 101 47 206 131 272c41 31 87 51 134 51c82 0 133 -52 149 -139h2c58 90 128 139 208 139
c86 0 153 -55 131 -140c-18 -72 -105 -168 -340 -176c-15 -103 28 -156 99 -156c53 0 105 31 151 81c5 5 8 3 10 1zM321 93c54 68 91 165 91 257c0 52 -19 120 -86 120c-34 0 -69 -24 -101 -63c-54 -68 -91 -165 -91 -257c0 -52 19 -120 86 -120c34 0 69 24 101 63zM482 237
c181 8 242 88 254 145c10 47 -12 85 -62 85c-86 0 -159 -119 -185 -203c-3 -9 -5 -18 -7 -27z" />
    <glyph glyph-name="Racute" unicode="&#x154;" horiz-adv-x="628" 
d="M261 408h80c101 0 175 60 192 155c20 110 -28 143 -115 143h-17c-48 0 -59 -10 -76 -70zM599 22l-3 -17c-1 -5 -4 -7 -7 -8c-15 -5 -30 -9 -52 -9c-105 0 -113 71 -95 170c26 141 16 202 -97 202h-97l-62 -215c-28 -99 -16 -113 41 -115l24 -1c5 0 5 -3 4 -6l-5 -18
c-1 -4 -3 -5 -6 -5h-271c-3 0 -5 1 -4 5l5 18c1 3 3 5 7 6l62 10c19 3 27 11 35 38l151 538c28 99 13 100 -42 105l-17 1c-4 0 -4 2 -3 6l4 18c1 4 3 5 6 5h245c133 0 229 -55 206 -187c-16 -94 -91 -152 -187 -179v-2c82 -17 111 -87 92 -191c-16 -92 -32 -167 36 -167
c8 0 18 1 24 3s7 0 6 -5zM543 891l-177 -83c-6 -3 -10 0 -15 9c-5 8 -5 13 0 17l155 121c24 19 45 16 60 -10c13 -23 4 -41 -23 -54z" />
    <glyph glyph-name="racute" unicode="&#x155;" horiz-adv-x="417" 
d="M118 0h-76c-4 0 -5 2 -4 6l121 426c7 24 -10 30 -31 23c-15 -5 -34 -12 -47 -18c-8 -4 -11 -2 -14 3l-4 7c-3 5 -3 9 5 14c33 21 90 51 123 51c10 0 25 -2 36 -10c18 -13 14 -32 9 -52l-13 -53l1 -1c56 80 117 116 167 116c44 0 93 -26 86 -83c-4 -39 -31 -63 -61 -63
s-47 25 -44 51c2 18 8 29 8 36c0 9 -12 10 -16 10c-45 0 -132 -74 -176 -230l-65 -228c-1 -3 -2 -5 -5 -5zM401 653l-177 -83c-6 -3 -10 0 -15 9c-5 8 -5 13 0 17l155 121c24 19 45 16 60 -10c13 -23 4 -41 -23 -54z" />
    <glyph glyph-name="Rcommaaccent" unicode="&#x156;" horiz-adv-x="628" 
d="M261 408h80c101 0 175 60 192 155c20 110 -28 143 -115 143h-17c-48 0 -59 -10 -76 -70zM599 22l-3 -17c-1 -5 -4 -7 -7 -8c-15 -5 -30 -9 -52 -9c-105 0 -113 71 -95 170c26 141 16 202 -97 202h-97l-62 -215c-28 -99 -16 -113 41 -115l24 -1c5 0 5 -3 4 -6l-5 -18
c-1 -4 -3 -5 -6 -5h-271c-3 0 -5 1 -4 5l5 18c1 3 3 5 7 6l62 10c19 3 27 11 35 38l151 538c28 99 13 100 -42 105l-17 1c-4 0 -4 2 -3 6l4 18c1 4 3 5 6 5h245c133 0 229 -55 206 -187c-16 -94 -91 -152 -187 -179v-2c82 -17 111 -87 92 -191c-16 -92 -32 -167 36 -167
c8 0 18 1 24 3s7 0 6 -5zM230 -267c-5 -1 -7 2 -8 8c-1 5 0 9 4 10c57 18 86 63 93 97c2 10 1 16 -5 16c-5 0 -11 -3 -24 -3c-21 0 -38 22 -34 48s24 48 57 48c41 0 59 -39 53 -83c-8 -56 -53 -123 -136 -141z" />
    <glyph glyph-name="rcommaaccent" unicode="&#x157;" horiz-adv-x="417" 
d="M118 0h-76c-4 0 -5 2 -4 6l121 426c7 24 -10 30 -31 23c-15 -5 -34 -12 -47 -18c-8 -4 -11 -2 -14 3l-4 7c-3 5 -3 9 5 14c33 21 90 51 123 51c10 0 25 -2 36 -10c18 -13 14 -32 9 -52l-13 -53l1 -1c56 80 117 116 167 116c44 0 93 -26 86 -83c-4 -39 -31 -63 -61 -63
s-47 25 -44 51c2 18 8 29 8 36c0 9 -12 10 -16 10c-45 0 -132 -74 -176 -230l-65 -228c-1 -3 -2 -5 -5 -5zM-25 -267c-5 -1 -7 2 -8 8c-1 5 0 9 4 10c57 18 86 63 93 97c2 10 1 16 -5 16c-5 0 -11 -3 -24 -3c-21 0 -38 22 -34 48s24 48 57 48c41 0 59 -39 53 -83
c-8 -56 -53 -123 -136 -141z" />
    <glyph glyph-name="Rcaron" unicode="&#x158;" horiz-adv-x="628" 
d="M261 408h80c101 0 175 60 192 155c20 110 -28 143 -115 143h-17c-48 0 -59 -10 -76 -70zM599 22l-3 -17c-1 -5 -4 -7 -7 -8c-15 -5 -30 -9 -52 -9c-105 0 -113 71 -95 170c26 141 16 202 -97 202h-97l-62 -215c-28 -99 -16 -113 41 -115l24 -1c5 0 5 -3 4 -6l-5 -18
c-1 -4 -3 -5 -6 -5h-271c-3 0 -5 1 -4 5l5 18c1 3 3 5 7 6l62 10c19 3 27 11 35 38l151 538c28 99 13 100 -42 105l-17 1c-4 0 -4 2 -3 6l4 18c1 4 3 5 6 5h245c133 0 229 -55 206 -187c-16 -94 -91 -152 -187 -179v-2c82 -17 111 -87 92 -191c-16 -92 -32 -167 36 -167
c8 0 18 1 24 3s7 0 6 -5zM601 964l-148 -135c-11 -10 -16 -12 -27 -12c-9 0 -16 3 -23 12l-111 147c-4 5 -4 9 3 16s11 8 15 4l122 -112l152 103c5 3 8 1 14 -6c5 -7 7 -13 3 -17z" />
    <glyph glyph-name="rcaron" unicode="&#x159;" horiz-adv-x="417" 
d="M118 0h-76c-4 0 -5 2 -4 6l121 426c7 24 -10 30 -31 23c-15 -5 -34 -12 -47 -18c-8 -4 -11 -2 -14 3l-4 7c-3 5 -3 9 5 14c33 21 90 51 123 51c10 0 25 -2 36 -10c18 -13 14 -32 9 -52l-13 -53l1 -1c56 80 117 116 167 116c44 0 93 -26 86 -83c-4 -39 -31 -63 -61 -63
s-47 25 -44 51c2 18 8 29 8 36c0 9 -12 10 -16 10c-45 0 -132 -74 -176 -230l-65 -228c-1 -3 -2 -5 -5 -5zM500 726l-148 -135c-11 -10 -16 -12 -27 -12c-9 0 -16 3 -23 12l-111 147c-4 5 -4 9 3 16s11 8 15 4l122 -112l152 103c5 3 8 1 14 -6c5 -7 7 -13 3 -17z" />
    <glyph glyph-name="Sacute" unicode="&#x15a;" horiz-adv-x="546" 
d="M567 522h-18c-5 0 -8 1 -7 7c14 127 -42 184 -135 184c-65 0 -130 -38 -142 -110c-15 -87 48 -135 117 -179c75 -48 153 -108 131 -229c-22 -124 -128 -207 -262 -207c-68 0 -127 26 -167 62c-18 16 -26 11 -33 -2l-24 -44c-2 -3 -4 -4 -7 -4h-18c-3 0 -4 1 -3 4l61 228
c1 5 5 6 8 6h16c5 0 8 -1 7 -7c-19 -143 75 -194 154 -194c87 0 165 61 181 146c16 82 -39 130 -100 168c-82 51 -171 108 -147 242c18 103 117 169 227 169c60 0 110 -18 155 -57c6 -5 16 -12 25 4l20 37c1 2 2 4 5 4h21c2 0 3 -1 2 -4l-60 -218c-1 -5 -4 -6 -7 -6z
M526 891l-177 -83c-6 -3 -10 0 -15 9c-5 8 -5 13 0 17l155 121c24 19 45 16 60 -10c13 -23 4 -41 -23 -54z" />
    <glyph glyph-name="sacute" unicode="&#x15b;" horiz-adv-x="433" 
d="M377 127c-7 -90 -87 -139 -184 -139c-39 0 -87 14 -121 39c-31 23 -53 49 -52 83c1 37 25 60 53 60c30 0 49 -22 47 -50c-1 -16 -7 -29 -15 -41c-4 -6 -6 -14 1 -20c15 -14 47 -29 87 -29c69 0 112 41 114 89c2 46 -35 77 -88 110c-56 35 -112 83 -105 159
c8 91 92 124 159 124c32 0 68 -8 98 -25c31 -18 56 -45 56 -82c0 -32 -21 -59 -51 -59c-29 0 -48 23 -46 49c1 14 6 25 15 37c4 6 4 11 -1 15c-16 14 -43 23 -73 23c-51 0 -84 -29 -88 -72c-4 -47 37 -74 86 -106c74 -49 113 -98 108 -165zM395 653l-177 -83
c-6 -3 -10 0 -15 9c-5 8 -5 13 0 17l155 121c24 19 45 16 60 -10c13 -23 4 -41 -23 -54z" />
    <glyph glyph-name="Scircumflex" unicode="&#x15c;" horiz-adv-x="546" 
d="M567 522h-18c-5 0 -8 1 -7 7c14 127 -42 184 -135 184c-65 0 -130 -38 -142 -110c-15 -87 48 -135 117 -179c75 -48 153 -108 131 -229c-22 -124 -128 -207 -262 -207c-68 0 -127 26 -167 62c-18 16 -26 11 -33 -2l-24 -44c-2 -3 -4 -4 -7 -4h-18c-3 0 -4 1 -3 4l61 228
c1 5 5 6 8 6h16c5 0 8 -1 7 -7c-19 -143 75 -194 154 -194c87 0 165 61 181 146c16 82 -39 130 -100 168c-82 51 -171 108 -147 242c18 103 117 169 227 169c60 0 110 -18 155 -57c6 -5 16 -12 25 4l20 37c1 2 2 4 5 4h21c2 0 3 -1 2 -4l-60 -218c-1 -5 -4 -6 -7 -6z
M589 810l-122 112l-152 -103c-5 -3 -8 -1 -14 6c-5 7 -7 13 -3 17l148 135c11 10 16 12 27 12c9 0 16 -3 23 -12l111 -147c4 -5 4 -9 -3 -16s-11 -8 -15 -4z" />
    <glyph glyph-name="scircumflex" unicode="&#x15d;" horiz-adv-x="433" 
d="M377 127c-7 -90 -87 -139 -184 -139c-39 0 -87 14 -121 39c-31 23 -53 49 -52 83c1 37 25 60 53 60c30 0 49 -22 47 -50c-1 -16 -7 -29 -15 -41c-4 -6 -6 -14 1 -20c15 -14 47 -29 87 -29c69 0 112 41 114 89c2 46 -35 77 -88 110c-56 35 -112 83 -105 159
c8 91 92 124 159 124c32 0 68 -8 98 -25c31 -18 56 -45 56 -82c0 -32 -21 -59 -51 -59c-29 0 -48 23 -46 49c1 14 6 25 15 37c4 6 4 11 -1 15c-16 14 -43 23 -73 23c-51 0 -84 -29 -88 -72c-4 -47 37 -74 86 -106c74 -49 113 -98 108 -165zM441 572l-122 112l-152 -103
c-5 -3 -8 -1 -14 6c-5 7 -7 13 -3 17l148 135c11 10 16 12 27 12c9 0 16 -3 23 -12l111 -147c4 -5 4 -9 -3 -16s-11 -8 -15 -4z" />
    <glyph glyph-name="Scedilla" unicode="&#x15e;" horiz-adv-x="546" 
d="M567 522h-18c-5 0 -8 1 -7 7c14 127 -42 184 -135 184c-65 0 -130 -38 -142 -110c-15 -87 48 -135 117 -179c75 -48 153 -108 131 -229c-22 -124 -128 -207 -262 -207c-16 0 -31 2 -46 4c-5 -4 -9 -9 -13 -13c-32 -33 -18 -40 -3 -45c56 -18 97 -45 96 -94
c-1 -61 -54 -89 -115 -89c-48 0 -86 18 -107 35c-5 4 -4 8 2 17c6 10 10 11 16 8c15 -9 47 -23 82 -23c40 0 72 20 70 56c-2 35 -31 46 -66 59c-36 13 -57 36 -15 79c5 6 12 12 20 18c-34 11 -65 29 -88 50c-18 16 -26 11 -33 -2l-24 -44c-2 -3 -4 -4 -7 -4h-18
c-3 0 -4 1 -3 4l61 228c1 5 5 6 8 6h16c5 0 8 -1 7 -7c-19 -143 75 -194 154 -194c87 0 165 61 181 146c16 82 -39 130 -100 168c-82 51 -171 108 -147 242c18 103 117 169 227 169c60 0 110 -18 155 -57c6 -5 16 -12 25 4l20 37c1 2 2 4 5 4h21c2 0 3 -1 2 -4l-60 -218
c-1 -5 -4 -6 -7 -6z" />
    <glyph glyph-name="scedilla" unicode="&#x15f;" horiz-adv-x="433" 
d="M162 -9l-11 -12c-32 -33 -18 -40 -3 -45c56 -18 97 -45 96 -94c-1 -61 -54 -89 -115 -89c-48 0 -86 18 -107 35c-5 4 -4 8 2 17c6 10 10 11 16 8c15 -9 47 -23 82 -23c40 0 72 20 70 56c-2 35 -31 46 -66 59c-36 13 -59 38 -15 79l18 17c-20 6 -41 15 -57 28
c-31 23 -53 49 -52 83c1 37 25 60 53 60c30 0 49 -22 47 -50c-1 -16 -7 -29 -15 -41c-4 -6 -6 -14 1 -20c15 -14 47 -29 87 -29c69 0 112 41 114 89c2 46 -35 77 -88 110c-56 35 -112 83 -105 159c8 91 92 124 159 124c32 0 68 -8 98 -25c31 -18 56 -45 56 -82
c0 -32 -21 -59 -51 -59c-29 0 -48 23 -46 49c1 14 6 25 15 37c4 6 4 11 -1 15c-16 14 -43 23 -73 23c-51 0 -84 -29 -88 -72c-4 -47 37 -74 86 -106c74 -49 113 -98 108 -165c-7 -90 -87 -139 -184 -139c-10 0 -20 1 -31 3z" />
    <glyph glyph-name="Scaron" unicode="&#x160;" horiz-adv-x="546" 
d="M567 522h-18c-5 0 -8 1 -7 7c14 127 -42 184 -135 184c-65 0 -130 -38 -142 -110c-15 -87 48 -135 117 -179c75 -48 153 -108 131 -229c-22 -124 -128 -207 -262 -207c-68 0 -127 26 -167 62c-18 16 -26 11 -33 -2l-24 -44c-2 -3 -4 -4 -7 -4h-18c-3 0 -4 1 -3 4l61 228
c1 5 5 6 8 6h16c5 0 8 -1 7 -7c-19 -143 75 -194 154 -194c87 0 165 61 181 146c16 82 -39 130 -100 168c-82 51 -171 108 -147 242c18 103 117 169 227 169c60 0 110 -18 155 -57c6 -5 16 -12 25 4l20 37c1 2 2 4 5 4h21c2 0 3 -1 2 -4l-60 -218c-1 -5 -4 -6 -7 -6z
M627 956l-148 -135c-11 -10 -16 -12 -27 -12c-9 0 -16 3 -23 12l-111 147c-4 5 -4 9 3 16s11 8 15 4l122 -112l152 103c5 3 8 1 14 -6c5 -7 7 -13 3 -17z" />
    <glyph glyph-name="scaron" unicode="&#x161;" horiz-adv-x="433" 
d="M377 127c-7 -90 -87 -139 -184 -139c-39 0 -87 14 -121 39c-31 23 -53 49 -52 83c1 37 25 60 53 60c30 0 49 -22 47 -50c-1 -16 -7 -29 -15 -41c-4 -6 -6 -14 1 -20c15 -14 47 -29 87 -29c69 0 112 41 114 89c2 46 -35 77 -88 110c-56 35 -112 83 -105 159
c8 91 92 124 159 124c32 0 68 -8 98 -25c31 -18 56 -45 56 -82c0 -32 -21 -59 -51 -59c-29 0 -48 23 -46 49c1 14 6 25 15 37c4 6 4 11 -1 15c-16 14 -43 23 -73 23c-51 0 -84 -29 -88 -72c-4 -47 37 -74 86 -106c74 -49 113 -98 108 -165zM498 726l-148 -135
c-11 -10 -16 -12 -27 -12c-9 0 -16 3 -23 12l-111 147c-4 5 -4 9 3 16s11 8 15 4l122 -112l152 103c5 3 8 1 14 -6c5 -7 7 -13 3 -17z" />
    <glyph glyph-name="Tcommaaccent" unicode="&#x162;" horiz-adv-x="641" 
d="M410 0h-279c-3 0 -5 1 -4 5l5 19c1 3 3 5 7 6l71 10c19 3 30 11 37 38l162 574c11 40 5 50 -33 50h-51c-69 0 -92 -12 -112 -71l-36 -103c-2 -5 -5 -6 -8 -6h-30c-4 0 -7 1 -6 6l62 211c2 6 7 11 13 11h546c5 0 9 -5 7 -11l-58 -211c-1 -5 -4 -6 -8 -6h-30
c-3 0 -7 1 -6 6l22 103c12 59 -1 71 -70 71h-51c-38 0 -50 -10 -61 -50l-146 -516c-28 -99 -13 -102 42 -105l21 -1c5 0 5 -3 4 -6l-5 -19c-1 -4 -2 -5 -5 -5zM166 -267c-5 -1 -7 2 -8 8c-1 5 0 9 4 10c57 18 86 63 93 97c2 10 1 16 -5 16c-5 0 -11 -3 -24 -3
c-21 0 -38 22 -34 48s24 48 57 48c41 0 59 -39 53 -83c-8 -56 -53 -123 -136 -141z" />
    <glyph glyph-name="tcommaaccent" unicode="&#x163;" horiz-adv-x="333" 
d="M287 177l14 -1c6 -1 8 -3 5 -12c-47 -132 -109 -176 -161 -176s-84 33 -76 99c1 9 3 18 5 27l96 341h-75c-4 0 -6 3 -5 7l9 31c1 5 5 7 9 7h20c59 0 78 15 106 87l23 60c3 8 7 12 15 12h28c8 0 11 -3 9 -11l-41 -148h115c4 0 6 -3 5 -7l-9 -31c-1 -5 -5 -7 -9 -7h-115
l-96 -341c-16 -56 -10 -78 11 -78c19 0 61 21 104 130c3 9 7 11 13 11zM15 -267c-5 -1 -7 2 -8 8c-1 5 0 9 4 10c57 18 86 63 93 97c2 10 1 16 -5 16c-5 0 -11 -3 -24 -3c-21 0 -38 22 -34 48s24 48 57 48c41 0 59 -39 53 -83c-8 -56 -53 -123 -136 -141z" />
    <glyph glyph-name="Tcaron" unicode="&#x164;" horiz-adv-x="641" 
d="M410 0h-279c-3 0 -5 1 -4 5l5 19c1 3 3 5 7 6l71 10c19 3 30 11 37 38l162 574c11 40 5 50 -33 50h-51c-69 0 -92 -12 -112 -71l-36 -103c-2 -5 -5 -6 -8 -6h-30c-4 0 -7 1 -6 6l62 211c2 6 7 11 13 11h546c5 0 9 -5 7 -11l-58 -211c-1 -5 -4 -6 -8 -6h-30
c-3 0 -7 1 -6 6l22 103c12 59 -1 71 -70 71h-51c-38 0 -50 -10 -61 -50l-146 -516c-28 -99 -13 -102 42 -105l21 -1c5 0 5 -3 4 -6l-5 -19c-1 -4 -2 -5 -5 -5zM665 964l-148 -135c-11 -10 -16 -12 -27 -12c-9 0 -16 3 -23 12l-111 147c-4 5 -4 9 3 16s11 8 15 4l122 -112
l152 103c5 3 8 1 14 -6c5 -7 7 -13 3 -17z" />
    <glyph glyph-name="tcaron" unicode="&#x165;" horiz-adv-x="440" 
d="M287 177l14 -1c6 -1 8 -3 5 -12c-47 -132 -109 -176 -161 -176s-84 33 -76 99c1 9 3 18 5 27l96 341h-75c-4 0 -6 3 -5 7l9 31c1 5 5 7 9 7h20c59 0 78 15 106 87l23 60c3 8 7 12 15 12h28c8 0 11 -3 9 -11l-41 -148h115c4 0 6 -3 5 -7l-9 -31c-1 -5 -5 -7 -9 -7h-115
l-96 -341c-16 -56 -10 -78 11 -78c19 0 61 21 104 130c3 9 7 11 13 11zM442 569c-5 -1 -7 2 -8 8c-1 5 0 9 4 10c57 18 86 63 93 97c2 10 1 16 -5 16c-5 0 -11 -3 -24 -3c-21 0 -38 22 -34 48s24 48 57 48c41 0 59 -39 53 -83c-8 -56 -53 -123 -136 -141z" />
    <glyph glyph-name="Tbar" unicode="&#x166;" horiz-adv-x="641" 
d="M410 0h-279c-3 0 -5 1 -4 5l5 19c1 3 3 5 7 6l71 10c19 3 30 11 37 38l82 290h-149c-4 0 -5 3 -4 7l10 34c1 4 4 7 8 7h148l67 236c11 40 5 50 -33 50h-51c-69 0 -92 -12 -112 -71l-36 -103c-2 -5 -5 -6 -8 -6h-30c-4 0 -7 1 -6 6l62 211c2 6 8 11 13 11h546
c5 0 9 -5 7 -11l-58 -211c-1 -5 -4 -6 -8 -6h-30c-3 0 -7 1 -6 6l22 103c12 59 -1 71 -70 71h-51c-38 0 -50 -10 -61 -50l-67 -236h150c3 0 5 -3 4 -7l-10 -34c-1 -4 -5 -7 -8 -7h-150l-65 -232c-28 -99 -13 -102 42 -105l21 -1c5 0 5 -3 4 -6l-5 -19c-1 -4 -2 -5 -5 -5z
" />
    <glyph glyph-name="tbar" unicode="&#x167;" horiz-adv-x="343" 
d="M297 177l14 -1c6 -1 8 -3 5 -12c-47 -132 -109 -176 -161 -176s-84 33 -76 99c1 9 3 18 5 27l54 194h-74c-4 0 -6 3 -5 7l9 31c1 5 5 7 9 7h74l29 102h-75c-4 0 -6 3 -5 7l9 31c1 5 5 7 9 7h20c59 0 78 15 106 87l23 60c3 8 7 12 15 12h28c8 0 11 -3 9 -11l-41 -148h115
c4 0 6 -3 5 -7l-9 -31c-2 -6 -5 -7 -9 -7h-115l-29 -102h116c4 0 6 -3 5 -7l-9 -31c-2 -6 -5 -7 -9 -7h-116l-54 -194c-15 -56 -10 -78 11 -78c19 0 61 21 104 130c3 9 7 11 13 11z" />
    <glyph glyph-name="Utilde" unicode="&#x168;" horiz-adv-x="717" 
d="M592 275l96 340c28 99 13 99 -43 105l-10 1c-5 0 -6 3 -5 6l4 18c1 4 3 5 6 5h225c3 0 5 -1 4 -5l-4 -18c-1 -3 -3 -5 -6 -6l-63 -10c-18 -3 -29 -11 -36 -38l-113 -401c-50 -179 -133 -284 -305 -284c-147 0 -273 99 -218 294l95 333c28 99 13 101 -43 105l-15 1
c-4 0 -5 2 -4 6l4 18c1 4 3 5 6 5h263c3 0 5 -1 4 -5l-4 -18c-1 -3 -3 -5 -7 -6l-63 -10c-19 -3 -27 -11 -35 -38l-113 -395c-36 -128 12 -229 142 -229c144 0 201 96 238 226zM719 956l6 -1c6 -1 7 -4 6 -11c-10 -53 -45 -113 -104 -113c-66 0 -98 70 -146 70
c-24 0 -54 -14 -70 -64c-3 -10 -6 -10 -12 -9l-6 1c-6 1 -7 4 -6 11c5 54 46 113 105 113c66 0 98 -70 146 -70c24 0 53 14 69 64c3 10 6 10 12 9z" />
    <glyph glyph-name="utilde" unicode="&#x169;" horiz-adv-x="588" 
d="M560 177l14 -1c6 -1 8 -3 5 -12c-47 -132 -95 -176 -147 -176c-47 0 -74 33 -66 99c1 9 3 18 5 27h-4c-63 -87 -130 -126 -189 -126c-78 0 -133 44 -115 144c9 55 78 250 92 307c6 24 -9 24 -30 17c-15 -5 -37 -13 -50 -19c-8 -4 -11 -2 -14 3l-4 7c-3 5 -3 9 5 14
c33 21 90 51 123 51c10 0 26 -2 37 -10c23 -16 22 -40 15 -68c-29 -115 -81 -246 -92 -301c-13 -65 12 -95 53 -95c66 0 167 94 214 263l55 194c1 3 3 5 5 5h77c2 0 4 -2 3 -5l-108 -382c-16 -56 -12 -77 9 -77c19 0 51 21 94 130c3 9 7 11 13 11zM546 718l6 -1
c6 -1 7 -4 6 -11c-10 -53 -45 -113 -104 -113c-66 0 -98 70 -146 70c-24 0 -54 -14 -70 -64c-3 -10 -6 -10 -12 -9l-6 1c-6 1 -7 4 -6 11c5 54 46 113 105 113c66 0 98 -70 146 -70c24 0 53 14 69 64c3 10 6 10 12 9z" />
    <glyph glyph-name="Umacron" unicode="&#x16a;" horiz-adv-x="717" 
d="M592 275l96 340c28 99 13 99 -43 105l-10 1c-5 0 -6 3 -5 6l4 18c1 4 3 5 6 5h225c3 0 5 -1 4 -5l-4 -18c-1 -3 -3 -5 -6 -6l-63 -10c-18 -3 -29 -11 -36 -38l-113 -401c-50 -179 -133 -284 -305 -284c-147 0 -273 99 -218 294l95 333c28 99 13 101 -43 105l-15 1
c-4 0 -5 2 -4 6l4 18c1 4 3 5 6 5h263c3 0 5 -1 4 -5l-4 -18c-1 -3 -3 -5 -7 -6l-63 -10c-19 -3 -27 -11 -35 -38l-113 -395c-36 -128 12 -229 142 -229c144 0 201 96 238 226zM701 836h-297c-3 0 -6 3 -5 7l6 40c1 4 4 7 7 7h297c3 0 6 -3 5 -7l-6 -40c-1 -4 -4 -7 -7 -7z
" />
    <glyph glyph-name="umacron" unicode="&#x16b;" horiz-adv-x="588" 
d="M560 177l14 -1c6 -1 8 -3 5 -12c-47 -132 -95 -176 -147 -176c-47 0 -74 33 -66 99c1 9 3 18 5 27h-4c-63 -87 -130 -126 -189 -126c-78 0 -133 44 -115 144c9 55 78 250 92 307c6 24 -9 24 -30 17c-15 -5 -37 -13 -50 -19c-8 -4 -11 -2 -14 3l-4 7c-3 5 -3 9 5 14
c33 21 90 51 123 51c10 0 26 -2 37 -10c23 -16 22 -40 15 -68c-29 -115 -81 -246 -92 -301c-13 -65 12 -95 53 -95c66 0 167 94 214 263l55 194c1 3 3 5 5 5h77c2 0 4 -2 3 -5l-108 -382c-16 -56 -12 -77 9 -77c19 0 51 21 94 130c3 9 7 11 13 11zM531 598h-297
c-3 0 -6 3 -5 7l6 40c1 4 4 7 7 7h297c3 0 6 -3 5 -7l-6 -40c-1 -4 -4 -7 -7 -7z" />
    <glyph glyph-name="Ubreve" unicode="&#x16c;" horiz-adv-x="717" 
d="M592 275l96 340c28 99 13 99 -43 105l-10 1c-5 0 -6 3 -5 6l4 18c1 4 3 5 6 5h225c3 0 5 -1 4 -5l-4 -18c-1 -3 -3 -5 -6 -6l-63 -10c-18 -3 -29 -11 -36 -38l-113 -401c-50 -179 -133 -284 -305 -284c-147 0 -273 99 -218 294l95 333c28 99 13 101 -43 105l-15 1
c-4 0 -5 2 -4 6l4 18c1 4 3 5 6 5h263c3 0 5 -1 4 -5l-4 -18c-1 -3 -3 -5 -7 -6l-63 -10c-19 -3 -27 -11 -35 -38l-113 -395c-36 -128 12 -229 142 -229c144 0 201 96 238 226zM688 971h13c7 0 9 -3 8 -10c-14 -88 -84 -151 -164 -151c-86 0 -138 63 -126 151
c1 7 3 10 10 10h13c5 0 7 -1 8 -10c5 -56 39 -91 105 -91c57 0 103 36 122 91c3 10 6 10 11 10z" />
    <glyph glyph-name="ubreve" unicode="&#x16d;" horiz-adv-x="588" 
d="M560 177l14 -1c6 -1 8 -3 5 -12c-47 -132 -95 -176 -147 -176c-47 0 -74 33 -66 99c1 9 3 18 5 27h-4c-63 -87 -130 -126 -189 -126c-78 0 -133 44 -115 144c9 55 78 250 92 307c6 24 -9 24 -30 17c-15 -5 -37 -13 -50 -19c-8 -4 -11 -2 -14 3l-4 7c-3 5 -3 9 5 14
c33 21 90 51 123 51c10 0 26 -2 37 -10c23 -16 22 -40 15 -68c-29 -115 -81 -246 -92 -301c-13 -65 12 -95 53 -95c66 0 167 94 214 263l55 194c1 3 3 5 5 5h77c2 0 4 -2 3 -5l-108 -382c-16 -56 -12 -77 9 -77c19 0 51 21 94 130c3 9 7 11 13 11zM511 733h13
c7 0 9 -3 8 -10c-14 -88 -84 -151 -164 -151c-86 0 -138 63 -126 151c1 7 3 10 10 10h13c5 0 7 -1 8 -10c5 -56 39 -91 105 -91c57 0 103 36 122 91c3 10 6 10 11 10z" />
    <glyph glyph-name="Uring" unicode="&#x16e;" horiz-adv-x="717" 
d="M592 275l96 340c28 99 13 99 -43 105l-10 1c-5 0 -6 3 -5 6l4 18c1 4 3 5 6 5h225c3 0 5 -1 4 -5l-4 -18c-1 -3 -3 -5 -6 -6l-63 -10c-18 -3 -29 -11 -36 -38l-113 -401c-50 -179 -133 -284 -305 -284c-147 0 -273 99 -218 294l95 333c28 99 13 101 -43 105l-15 1
c-4 0 -5 2 -4 6l4 18c1 4 3 5 6 5h263c3 0 5 -1 4 -5l-4 -18c-1 -3 -3 -5 -7 -6l-63 -10c-19 -3 -27 -11 -35 -38l-113 -395c-36 -128 12 -229 142 -229c144 0 201 96 238 226zM543 816c-54 0 -93 45 -90 102s48 102 102 102s93 -45 90 -102s-48 -102 -102 -102zM545 850
c34 0 62 30 64 68s-22 68 -56 68s-62 -30 -64 -68s22 -68 56 -68z" />
    <glyph glyph-name="uring" unicode="&#x16f;" horiz-adv-x="588" 
d="M560 177l14 -1c6 -1 8 -3 5 -12c-47 -132 -95 -176 -147 -176c-47 0 -74 33 -66 99c1 9 3 18 5 27h-4c-63 -87 -130 -126 -189 -126c-78 0 -133 44 -115 144c9 55 78 250 92 307c6 24 -9 24 -30 17c-15 -5 -37 -13 -50 -19c-8 -4 -11 -2 -14 3l-4 7c-3 5 -3 9 5 14
c33 21 90 51 123 51c10 0 26 -2 37 -10c23 -16 22 -40 15 -68c-29 -115 -81 -246 -92 -301c-13 -65 12 -95 53 -95c66 0 167 94 214 263l55 194c1 3 3 5 5 5h77c2 0 4 -2 3 -5l-108 -382c-16 -56 -12 -77 9 -77c19 0 51 21 94 130c3 9 7 11 13 11zM379 578
c-54 0 -93 45 -90 102s48 102 102 102s93 -45 90 -102s-48 -102 -102 -102zM381 612c34 0 62 30 64 68s-22 68 -56 68s-62 -30 -64 -68s22 -68 56 -68z" />
    <glyph glyph-name="Uhungarumlaut" unicode="&#x170;" horiz-adv-x="717" 
d="M592 275l96 340c28 99 13 99 -43 105l-10 1c-5 0 -6 3 -5 6l4 18c1 4 3 5 6 5h225c3 0 5 -1 4 -5l-4 -18c-1 -3 -3 -5 -6 -6l-63 -10c-18 -3 -29 -11 -36 -38l-113 -401c-50 -179 -133 -284 -305 -284c-147 0 -273 99 -218 294l95 333c28 99 13 101 -43 105l-15 1
c-4 0 -5 2 -4 6l4 18c1 4 3 5 6 5h263c3 0 5 -1 4 -5l-4 -18c-1 -3 -3 -5 -7 -6l-63 -10c-19 -3 -27 -11 -35 -38l-113 -395c-36 -128 12 -229 142 -229c144 0 201 96 238 226zM568 901l-160 -94c-4 -3 -6 -1 -12 6c-5 6 -8 11 -3 15l141 130c22 21 43 21 56 -1
c12 -20 4 -41 -22 -56zM750 901l-160 -94c-4 -3 -7 -1 -13 6c-4 6 -7 12 -3 15l142 130c22 20 43 21 56 -1c13 -21 3 -41 -22 -56z" />
    <glyph glyph-name="uhungarumlaut" unicode="&#x171;" horiz-adv-x="588" 
d="M560 177l14 -1c6 -1 8 -3 5 -12c-47 -132 -95 -176 -147 -176c-47 0 -74 33 -66 99c1 9 3 18 5 27h-4c-63 -87 -130 -126 -189 -126c-78 0 -133 44 -115 144c9 55 78 250 92 307c6 24 -9 24 -30 17c-15 -5 -37 -13 -50 -19c-8 -4 -11 -2 -14 3l-4 7c-3 5 -3 9 5 14
c33 21 90 51 123 51c10 0 26 -2 37 -10c23 -16 22 -40 15 -68c-29 -115 -81 -246 -92 -301c-13 -65 12 -95 53 -95c66 0 167 94 214 263l55 194c1 3 3 5 5 5h77c2 0 4 -2 3 -5l-108 -382c-16 -56 -12 -77 9 -77c19 0 51 21 94 130c3 9 7 11 13 11zM404 663l-160 -94
c-4 -3 -6 -1 -12 6c-5 6 -8 11 -3 15l141 130c22 21 43 21 56 -1c12 -20 4 -41 -22 -56zM586 663l-160 -94c-4 -3 -7 -1 -13 6c-4 6 -7 12 -3 15l142 130c22 20 43 21 56 -1c13 -21 3 -41 -22 -56z" />
    <glyph glyph-name="Uogonek" unicode="&#x172;" horiz-adv-x="717" 
d="M353 -18l11 7c-7 0 -15 -1 -22 -1c-147 0 -273 99 -218 294l95 333c28 99 13 101 -43 105l-15 1c-4 0 -5 2 -4 6l4 18c1 4 3 5 6 5h263c3 0 5 -1 4 -5l-4 -18c-1 -3 -3 -5 -7 -6l-63 -10c-19 -3 -27 -11 -35 -38l-113 -395c-36 -128 12 -229 142 -229
c144 0 201 96 238 226l96 340c28 99 13 99 -43 105l-10 1c-5 0 -6 3 -5 6l4 18c1 4 3 5 6 5h225c3 0 5 -1 4 -5l-4 -18c-1 -3 -3 -5 -6 -6l-63 -10c-18 -3 -29 -11 -36 -38l-113 -401c-35 -124 -85 -213 -171 -256c-43 -21 -67 -35 -110 -65c-51 -35 -72 -70 -74 -103
c-2 -36 17 -57 57 -57c27 0 57 9 79 18c5 2 8 2 13 -9c5 -12 3 -14 -3 -18c-24 -14 -60 -32 -104 -32c-61 0 -100 34 -96 95c4 60 56 102 115 137z" />
    <glyph glyph-name="uogonek" unicode="&#x173;" horiz-adv-x="588" 
d="M395 -18l15 9c-33 9 -51 41 -44 96c1 9 3 18 5 27h-4c-63 -87 -130 -126 -189 -126c-78 0 -133 44 -115 144c9 55 78 250 92 307c6 24 -9 24 -30 17c-15 -5 -37 -13 -50 -19c-8 -4 -11 -2 -14 3l-4 7c-3 5 -3 9 5 14c33 21 90 51 123 51c10 0 26 -2 37 -10
c23 -16 22 -40 15 -68c-29 -115 -81 -246 -92 -301c-13 -65 12 -95 53 -95c66 0 167 94 214 263l55 194c1 3 3 5 5 5h77c2 0 4 -2 3 -5l-108 -382c-16 -56 -12 -77 9 -77c19 0 51 21 94 130c3 9 7 11 13 11l14 -1c6 -1 8 -3 5 -12c-29 -82 -60 -129 -90 -154
c-26 -22 -58 -43 -81 -59c-51 -36 -72 -70 -74 -103c-2 -36 17 -57 57 -57c27 0 57 9 79 18c5 2 8 2 13 -9c5 -12 3 -14 -3 -18c-24 -14 -60 -32 -104 -32c-61 0 -100 34 -96 95c4 60 56 102 115 137z" />
    <glyph glyph-name="Wcircumflex" unicode="&#x174;" horiz-adv-x="1002" 
d="M632 0h-44c-5 0 -8 2 -8 7l-27 343l-218 -343c-3 -5 -4 -7 -10 -7h-42c-6 0 -9 2 -9 7l-48 634c-5 62 -13 75 -54 79l-11 1c-4 0 -4 2 -3 6l4 18c1 4 3 5 6 5h219c3 0 5 -2 4 -5l-4 -17c-1 -3 -3 -5 -7 -6l-35 -6c-26 -5 -36 -20 -34 -50l35 -550h2l198 318l-15 207
c-4 62 -4 75 -45 79l-11 1c-4 0 -4 2 -3 6l4 18c1 3 2 5 5 5h361c3 0 4 -2 3 -5l-4 -18c-1 -4 -4 -6 -7 -6l-19 -2c-27 -3 -37 -15 -57 -47l-134 -211l22 -354h2l332 548c9 16 15 28 17 37c5 19 -7 23 -29 25l-40 4c-3 0 -4 2 -3 6l4 18c1 3 3 5 6 5h218c2 0 4 -1 3 -5
l-4 -18c-1 -4 -3 -5 -6 -6l-33 -5c-28 -4 -37 -13 -57 -44l-413 -665c-3 -5 -5 -7 -11 -7zM617 545l71 116c27 45 29 60 0 60h-46c-25 0 -33 -19 -32 -47zM808 810l-122 112l-152 -103c-5 -3 -8 -1 -14 6c-5 7 -7 13 -3 17l148 135c11 10 16 12 27 12c9 0 16 -3 23 -12
l111 -147c4 -5 4 -9 -3 -16s-11 -8 -15 -4z" />
    <glyph glyph-name="wcircumflex" unicode="&#x175;" horiz-adv-x="777" 
d="M380 153h-2c-56 -93 -136 -165 -211 -165c-118 0 -108 117 -79 218l67 233c7 24 -9 24 -30 17c-15 -5 -37 -13 -50 -19c-8 -4 -11 -2 -14 3l-4 7c-3 5 -3 9 5 14c33 21 90 51 123 51c10 0 26 -2 37 -10c23 -16 23 -40 15 -68l-70 -247c-31 -111 -27 -155 16 -155
c30 0 84 35 136 103c40 53 77 127 110 242l34 118c1 3 3 5 6 5h75c3 0 5 -2 4 -5l-87 -308c-31 -111 -27 -155 17 -155c57 0 221 145 253 325c7 37 -3 50 -15 50c-10 0 -17 -4 -28 -4c-34 0 -49 28 -46 51c4 35 30 58 64 58c71 0 84 -77 76 -144
c-20 -163 -192 -380 -318 -380c-101 0 -102 80 -84 165zM657 572l-122 112l-152 -103c-5 -3 -8 -1 -14 6c-5 7 -7 13 -3 17l148 135c11 10 16 12 27 12c9 0 16 -3 23 -12l111 -147c4 -5 4 -9 -3 -16s-11 -8 -15 -4z" />
    <glyph glyph-name="Ycircumflex" unicode="&#x176;" horiz-adv-x="689" 
d="M427 0h-279c-3 0 -4 2 -3 5l5 18c1 3 3 5 7 6l72 10c19 3 28 11 36 38l76 273l-93 284c-22 66 -28 82 -66 85l-21 2c-4 0 -5 2 -4 6l4 18c1 3 3 5 7 5h235c3 0 4 -2 3 -5l-4 -18c-1 -4 -2 -6 -6 -6l-14 -1c-44 -3 -61 -15 -45 -68l73 -244l221 246c36 40 41 65 0 68
l-13 1c-5 0 -6 2 -5 6l4 16c1 3 3 5 7 5h216c3 0 5 -1 4 -5l-4 -20c-1 -4 -3 -5 -7 -6l-23 -3c-42 -5 -61 -24 -121 -88l-258 -278l-63 -225c-25 -91 -10 -92 46 -95l20 -1c5 0 5 -3 4 -6l-5 -18c-1 -4 -3 -5 -6 -5zM659 810l-122 112l-152 -103c-5 -3 -8 -1 -14 6
c-5 7 -7 13 -3 17l148 135c11 10 16 12 27 12c9 0 16 -3 23 -12l111 -147c4 -5 4 -9 -3 -16s-11 -8 -15 -4z" />
    <glyph glyph-name="ycircumflex" unicode="&#x177;" horiz-adv-x="533" 
d="M340 34l22 73h-2c-60 -84 -124 -119 -181 -119c-78 0 -132 44 -115 144c9 55 78 250 92 307c6 24 -9 24 -30 17c-15 -5 -37 -13 -50 -19c-8 -4 -11 -2 -14 3l-4 7c-3 5 -3 9 5 14c33 21 90 51 123 51c10 0 26 -2 37 -10c23 -16 22 -40 15 -68c-29 -115 -81 -246 -92 -301
c-13 -65 12 -95 53 -95c66 0 167 94 214 263l55 194c1 3 3 5 6 5h76c2 0 4 -2 3 -5l-126 -439c-15 -54 -28 -91 -41 -120c-52 -112 -131 -186 -243 -186c-88 0 -157 49 -146 115c6 35 30 65 65 65c25 0 47 -17 41 -49c-6 -33 -35 -43 -38 -54c-2 -6 0 -10 4 -15
c15 -15 42 -25 70 -25c96 0 157 99 201 247zM495 572l-122 112l-152 -103c-5 -3 -8 -1 -14 6c-5 7 -7 13 -3 17l148 135c11 10 16 12 27 12c9 0 16 -3 23 -12l111 -147c4 -5 4 -9 -3 -16s-11 -8 -15 -4z" />
    <glyph glyph-name="Ydieresis" unicode="&#x178;" horiz-adv-x="689" 
d="M427 0h-279c-3 0 -4 2 -3 5l5 18c1 3 3 5 7 6l72 10c19 3 28 11 36 38l76 273l-93 284c-22 66 -28 82 -66 85l-21 2c-4 0 -5 2 -4 6l4 18c1 3 3 5 7 5h235c3 0 4 -2 3 -5l-4 -18c-1 -4 -2 -6 -6 -6l-14 -1c-44 -3 -61 -15 -45 -68l73 -244l221 246c36 40 41 65 0 68
l-13 1c-5 0 -6 2 -5 6l4 16c1 3 3 5 7 5h216c3 0 5 -1 4 -5l-4 -20c-1 -4 -3 -5 -7 -6l-23 -3c-42 -5 -61 -24 -121 -88l-258 -278l-63 -225c-25 -91 -10 -92 46 -95l20 -1c5 0 5 -3 4 -6l-5 -18c-1 -4 -3 -5 -6 -5zM482 866c-3 -29 -30 -53 -57 -53c-28 0 -46 24 -43 53
s30 53 57 53c28 0 46 -24 43 -53zM670 866c-3 -29 -30 -53 -57 -53c-28 0 -46 24 -43 53s30 53 57 53c28 0 46 -24 43 -53z" />
    <glyph glyph-name="Zacute" unicode="&#x179;" horiz-adv-x="613" 
d="M503 0h-525l10 39l579 644c13 14 8 19 -4 19h-216c-69 0 -93 -15 -113 -75l-32 -94c-2 -5 -6 -6 -9 -6h-31c-4 0 -7 1 -5 6l60 206c2 7 8 11 14 11h484l-12 -39l-581 -644c-14 -15 -5 -19 5 -19h258c69 0 92 16 113 75l43 124c2 5 5 6 8 6h30c4 0 6 -1 5 -6l-69 -236
c-2 -6 -7 -11 -12 -11zM572 891l-177 -83c-6 -3 -10 0 -15 9c-5 8 -5 13 0 17l155 121c24 19 45 16 60 -10c13 -23 4 -41 -23 -54z" />
    <glyph glyph-name="zacute" unicode="&#x17a;" horiz-adv-x="502" 
d="M119 340h-19c-4 0 -6 1 -5 6l43 158c2 8 8 12 16 10c68 -19 150 -32 237 -32c45 0 69 5 83 15c17 12 12 45 43 45c15 0 28 -8 28 -25c0 -32 -41 -81 -113 -134c-82 -61 -257 -207 -282 -238c-7 -9 -2 -12 7 -14c83 -19 140 -81 227 -82c20 0 32 12 32 26
c0 31 -75 24 -73 76c1 21 17 40 47 37c42 -4 66 -41 66 -84c0 -68 -48 -116 -122 -116c-94 0 -153 73 -232 73c-33 0 -43 -17 -48 -34c-5 -19 -8 -39 -35 -39c-19 0 -29 16 -29 33c0 19 13 40 30 57c87 91 266 240 393 343c6 5 2 9 -4 8c-31 -7 -93 -15 -148 -15
c-50 0 -79 5 -93 5c-12 0 -17 -3 -22 -18l-18 -55c-2 -5 -6 -6 -9 -6zM462 653l-177 -83c-6 -3 -10 0 -15 9c-5 8 -5 13 0 17l155 121c24 19 45 16 60 -10c13 -23 4 -41 -23 -54z" />
    <glyph glyph-name="Zdotaccent" unicode="&#x17b;" horiz-adv-x="613" 
d="M503 0h-525l10 39l579 644c13 14 8 19 -4 19h-216c-69 0 -93 -15 -113 -75l-32 -94c-2 -5 -6 -6 -9 -6h-31c-4 0 -7 1 -5 6l60 206c2 7 8 11 14 11h484l-12 -39l-581 -644c-14 -15 -5 -19 5 -19h258c69 0 92 16 113 75l43 124c2 5 5 6 8 6h30c4 0 6 -1 5 -6l-69 -236
c-2 -6 -7 -11 -12 -11zM542 905c-5 -35 -32 -62 -65 -62s-55 27 -50 62s32 62 65 62s55 -27 50 -62z" />
    <glyph glyph-name="zdotaccent" unicode="&#x17c;" horiz-adv-x="502" 
d="M119 340h-19c-4 0 -6 1 -5 6l43 158c2 8 8 12 16 10c68 -19 150 -32 237 -32c45 0 69 5 83 15c17 12 12 45 43 45c15 0 28 -8 28 -25c0 -32 -41 -81 -113 -134c-82 -61 -257 -207 -282 -238c-7 -9 -2 -12 7 -14c83 -19 140 -81 227 -82c20 0 32 12 32 26
c0 31 -75 24 -73 76c1 21 17 40 47 37c42 -4 66 -41 66 -84c0 -68 -48 -116 -122 -116c-94 0 -153 73 -232 73c-33 0 -43 -17 -48 -34c-5 -19 -8 -39 -35 -39c-19 0 -29 16 -29 33c0 19 13 40 30 57c87 91 266 240 393 343c6 5 2 9 -4 8c-31 -7 -93 -15 -148 -15
c-50 0 -79 5 -93 5c-12 0 -17 -3 -22 -18l-18 -55c-2 -5 -6 -6 -9 -6zM421 667c-5 -35 -32 -62 -65 -62s-55 27 -50 62s32 62 65 62s55 -27 50 -62z" />
    <glyph glyph-name="Zcaron" unicode="&#x17d;" horiz-adv-x="613" 
d="M503 0h-525l10 39l579 644c13 14 8 19 -4 19h-216c-69 0 -93 -15 -113 -75l-32 -94c-2 -5 -6 -6 -9 -6h-31c-4 0 -7 1 -5 6l60 206c2 7 8 11 14 11h484l-12 -39l-581 -644c-14 -15 -5 -19 5 -19h258c69 0 92 16 113 75l43 124c2 5 5 6 8 6h30c4 0 6 -1 5 -6l-69 -236
c-2 -6 -7 -11 -12 -11zM644 956l-148 -135c-11 -10 -16 -12 -27 -12c-9 0 -16 3 -23 12l-111 147c-4 5 -4 9 3 16s11 8 15 4l122 -112l152 103c5 3 8 1 14 -6c5 -7 7 -13 3 -17z" />
    <glyph glyph-name="zcaron" unicode="&#x17e;" horiz-adv-x="502" 
d="M119 340h-19c-4 0 -6 1 -5 6l43 158c2 8 8 12 16 10c68 -19 150 -32 237 -32c45 0 69 5 83 15c17 12 12 45 43 45c15 0 28 -8 28 -25c0 -32 -41 -81 -113 -134c-82 -61 -257 -207 -282 -238c-7 -9 -2 -12 7 -14c83 -19 140 -81 227 -82c20 0 32 12 32 26
c0 31 -75 24 -73 76c1 21 17 40 47 37c42 -4 66 -41 66 -84c0 -68 -48 -116 -122 -116c-94 0 -153 73 -232 73c-33 0 -43 -17 -48 -34c-5 -19 -8 -39 -35 -39c-19 0 -29 16 -29 33c0 19 13 40 30 57c87 91 266 240 393 343c6 5 2 9 -4 8c-31 -7 -93 -15 -148 -15
c-50 0 -79 5 -93 5c-12 0 -17 -3 -22 -18l-18 -55c-2 -5 -6 -6 -9 -6zM523 726l-148 -135c-11 -10 -16 -12 -27 -12c-9 0 -16 3 -23 12l-111 147c-4 5 -4 9 3 16s11 8 15 4l122 -112l152 103c5 3 8 1 14 -6c5 -7 7 -13 3 -17z" />
    <glyph glyph-name="longs" unicode="&#x17f;" horiz-adv-x="313" 
d="M61 17l122 438h-87c-4 0 -6 2 -5 7l9 31c1 4 4 7 9 7h87l26 93c31 109 86 190 183 190c65 0 115 -34 107 -94c-4 -31 -29 -55 -59 -55s-47 24 -44 50c3 21 17 37 17 48c0 12 -10 17 -22 17c-50 0 -75 -65 -93 -129l-164 -575c-60 -210 -125 -295 -197 -295
c-58 0 -96 35 -92 86c2 27 19 48 45 48s42 -20 39 -42c-2 -20 -13 -30 -14 -43c-1 -11 7 -20 20 -20c34 0 63 60 113 238z" />
    <glyph glyph-name="florin" unicode="&#x192;" 
d="M480 0h-480l210 750h480zM453 82l162 578l-246 -290zM75 91l245 289l-83 288zM417 50l-82 280l-237 -280h319zM355 421l236 279h-317z" />
    <glyph glyph-name="dotlessj" unicode="&#x237;" horiz-adv-x="270" 
d="M54 -27l132 466c7 24 -9 24 -30 17c-15 -5 -37 -13 -50 -19c-8 -4 -11 -2 -14 3l-4 7c-3 5 -3 9 5 14c33 21 90 51 123 51c10 0 26 -2 37 -10c23 -16 23 -41 15 -68l-122 -434c-11 -39 -23 -77 -38 -108c-42 -88 -93 -142 -161 -142c-59 0 -108 35 -97 91
c6 29 30 52 58 52s45 -23 41 -47c-4 -19 -17 -34 -18 -45c-1 -12 9 -15 17 -15c45 0 74 73 106 187z" />
    <glyph glyph-name="circumflex" unicode="&#x2c6;" horiz-adv-x="540" 
d="M526 572l-122 112l-152 -103c-5 -3 -8 -1 -14 6c-5 7 -7 13 -3 17l148 135c11 10 16 12 27 12c9 0 16 -3 23 -12l111 -147c4 -5 4 -9 -3 -16s-11 -8 -15 -4z" />
    <glyph glyph-name="caron" unicode="&#x2c7;" horiz-adv-x="540" 
d="M576 726l-148 -135c-11 -10 -16 -12 -27 -12c-9 0 -16 3 -23 12l-111 147c-4 5 -4 9 3 16s11 8 15 4l122 -112l152 103c5 3 8 1 14 -6c5 -7 7 -13 3 -17z" />
    <glyph glyph-name="breve" unicode="&#x2d8;" horiz-adv-x="540" 
d="M546 733h13c7 0 9 -3 8 -10c-14 -88 -84 -151 -164 -151c-86 0 -138 63 -126 151c1 7 3 10 10 10h13c5 0 7 -1 8 -10c5 -56 39 -91 105 -91c57 0 103 36 122 91c3 10 6 10 11 10z" />
    <glyph glyph-name="dotaccent" unicode="&#x2d9;" horiz-adv-x="540" 
d="M462 667c-5 -35 -32 -62 -65 -62s-55 27 -50 62s32 62 65 62s55 -27 50 -62z" />
    <glyph glyph-name="ring" unicode="&#x2da;" horiz-adv-x="540" 
d="M401 578c-54 0 -93 45 -90 102s48 102 102 102s93 -45 90 -102s-48 -102 -102 -102zM403 612c34 0 62 30 64 68s-22 68 -56 68s-62 -30 -64 -68s22 -68 56 -68z" />
    <glyph glyph-name="ogonek" unicode="&#x2db;" horiz-adv-x="542" 
d="M270 0l-68 -49c-50 -37 -72 -70 -74 -103c-2 -36 17 -57 57 -57c27 0 57 9 79 18c5 2 8 2 13 -9c5 -12 3 -14 -3 -18c-24 -14 -60 -32 -104 -32c-61 0 -100 34 -96 95c4 60 56 102 115 137l64 38c3 2 6 3 9 0l10 -12c3 -3 1 -6 -2 -8z" />
    <glyph glyph-name="tilde" unicode="&#x2dc;" horiz-adv-x="540" 
d="M560 718l6 -1c6 -1 7 -4 6 -11c-10 -53 -45 -113 -104 -113c-66 0 -98 70 -146 70c-24 0 -54 -14 -70 -64c-3 -10 -6 -10 -12 -9l-6 1c-6 1 -7 4 -6 11c5 54 46 113 105 113c66 0 98 -70 146 -70c24 0 53 14 69 64c3 10 6 10 12 9z" />
    <glyph glyph-name="hungarumlaut" unicode="&#x2dd;" horiz-adv-x="540" 
d="M403 663l-160 -94c-4 -3 -6 -1 -12 6c-5 6 -8 11 -3 15l141 130c22 21 43 21 56 -1c12 -20 4 -41 -22 -56zM585 663l-160 -94c-4 -3 -7 -1 -13 6c-4 6 -7 12 -3 15l142 130c22 20 43 21 56 -1c13 -21 3 -41 -22 -56z" />
    <glyph glyph-name="Delta" unicode="&#x394;" 
d="M480 0h-480l210 750h480zM453 82l162 578l-246 -290zM75 91l245 289l-83 288zM417 50l-82 280l-237 -280h319zM355 421l236 279h-317z" />
    <glyph glyph-name="Delta" unicode="&#x2206;" 
d="M480 0h-480l210 750h480zM453 82l162 578l-246 -290zM75 91l245 289l-83 288zM417 50l-82 280l-237 -280h319zM355 421l236 279h-317z" />
    <glyph glyph-name="Omega" unicode="&#x3a9;" 
d="M480 0h-480l210 750h480zM453 82l162 578l-246 -290zM75 91l245 289l-83 288zM417 50l-82 280l-237 -280h319zM355 421l236 279h-317z" />
    <glyph glyph-name="Omega" unicode="&#x2126;" 
d="M480 0h-480l210 750h480zM453 82l162 578l-246 -290zM75 91l245 289l-83 288zM417 50l-82 280l-237 -280h319zM355 421l236 279h-317z" />
    <glyph glyph-name="pi" unicode="&#x3c0;" 
d="M480 0h-480l210 750h480zM453 82l162 578l-246 -290zM75 91l245 289l-83 288zM417 50l-82 280l-237 -280h319zM355 421l236 279h-317z" />
    <glyph glyph-name="uni0400" unicode="&#x400;" horiz-adv-x="626" 
d="M502 0h-531c-2 0 -4 1 -3 5l5 18c1 4 3 5 6 6l62 10c19 3 29 11 37 38l151 538c28 99 13 101 -43 105l-16 1c-3 0 -4 2 -3 6l4 18c1 4 3 5 5 5h522c6 0 9 -5 7 -11l-58 -211c-1 -5 -4 -6 -7 -6h-30c-3 0 -7 1 -6 6l20 99c12 59 1 75 -69 75h-155c-48 0 -59 -10 -76 -70
l-60 -209c-1 -4 2 -7 5 -7h123c34 0 49 9 58 32l23 57c3 7 5 8 9 8h24c3 0 5 -1 4 -5l-68 -242c-1 -3 -3 -4 -6 -4h-25c-4 0 -5 2 -4 8l10 62c4 23 -6 32 -40 32h-123c-3 0 -7 -3 -8 -7l-67 -239c-17 -60 -12 -70 36 -70h169c70 0 94 15 114 75l35 104c2 5 6 6 9 6h30
c5 0 5 -2 4 -6l-61 -216c-2 -6 -7 -11 -13 -11zM556 810l-177 83c-27 13 -36 31 -23 54c15 26 36 29 60 10l155 -121c5 -4 5 -9 0 -17c-5 -9 -9 -12 -15 -9z" />
    <glyph glyph-name="afii10023" unicode="&#x401;" horiz-adv-x="626" 
d="M502 0h-531c-2 0 -4 1 -3 5l5 18c1 4 3 5 6 6l62 10c19 3 29 11 37 38l151 538c28 99 13 101 -43 105l-16 1c-3 0 -4 2 -3 6l4 18c1 4 3 5 5 5h522c6 0 9 -5 7 -11l-58 -211c-1 -5 -4 -6 -7 -6h-30c-3 0 -7 1 -6 6l20 99c12 59 1 75 -69 75h-155c-48 0 -59 -10 -76 -70
l-60 -209c-1 -4 2 -7 5 -7h123c34 0 49 9 58 32l23 57c3 7 5 8 9 8h24c3 0 5 -1 4 -5l-68 -242c-1 -3 -3 -4 -6 -4h-25c-4 0 -5 2 -4 8l10 62c4 23 -6 32 -40 32h-123c-3 0 -7 -3 -8 -7l-67 -239c-17 -60 -12 -70 36 -70h169c70 0 94 15 114 75l35 104c2 5 6 6 9 6h30
c5 0 5 -2 4 -6l-61 -216c-2 -6 -7 -11 -13 -11zM441 876c-3 -29 -30 -53 -57 -53c-28 0 -46 24 -43 53s30 53 57 53c28 0 46 -24 43 -53zM629 876c-3 -29 -30 -53 -57 -53c-28 0 -46 24 -43 53s30 53 57 53c28 0 46 -24 43 -53z" />
    <glyph glyph-name="afii10051" unicode="&#x402;" horiz-adv-x="776" 
d="M748 234l-5 -17c-43 -145 -139 -217 -273 -217c-2 0 -4 2 -3 5l5 18c1 3 2 5 6 6c81 17 145 82 178 199l4 14c33 116 -8 166 -89 166c-44 0 -97 -13 -146 -41c-19 -11 -28 -33 -35 -57l-49 -174c-25 -89 -18 -102 27 -105l23 -1c5 0 5 -3 4 -6l-5 -19c-1 -3 -3 -5 -6 -5
h-264c-3 0 -4 2 -3 5l5 19c1 3 2 5 6 6l70 10c19 3 28 11 36 38l162 574c11 40 6 50 -33 50h-38c-70 0 -90 -12 -111 -71l-35 -98c-2 -5 -5 -6 -8 -6h-28c-3 0 -6 1 -5 6l60 206c2 7 7 11 13 11h517c6 0 9 -5 7 -11l-49 -176c-2 -5 -4 -6 -8 -6h-30c-3 0 -6 1 -5 6l14 68
c13 59 -1 71 -71 71h-38c-39 0 -50 -10 -61 -50l-64 -227c-1 -4 0 -6 5 -4c52 26 112 46 178 46c112 0 188 -78 142 -233z" />
    <glyph glyph-name="afii10052" unicode="&#x403;" horiz-adv-x="560" 
d="M244 5l5 18c1 3 1 6 -2 6l-22 1c-56 3 -65 16 -40 105l140 497c17 60 28 70 76 70h129c69 0 83 -16 70 -75l-23 -104c-1 -5 2 -6 6 -6h28c4 0 7 1 8 6l60 216c2 6 -2 11 -7 11h-492c-3 0 -5 -2 -6 -5l-5 -18c-1 -3 0 -6 4 -6l16 -1c56 -5 69 -6 41 -105l-152 -538
c-7 -27 -18 -35 -36 -38l-61 -10c-4 -1 -5 -3 -6 -6l-5 -18c-1 -3 1 -5 3 -5h266c3 0 4 2 5 5zM556 893l-177 -83c-6 -3 -10 0 -15 9c-5 8 -5 13 0 17l155 121c24 19 45 16 60 -10c13 -23 4 -41 -23 -54z" />
    <glyph glyph-name="afii10053" unicode="&#x404;" horiz-adv-x="658" 
d="M585 165l21 -22c3 -4 1 -6 -2 -10c-69 -86 -158 -145 -255 -145c-190 0 -287 164 -241 388s220 386 394 386c48 0 89 -12 122 -33c18 -11 37 -26 49 -36c7 -5 16 -9 25 7l24 41c2 3 3 4 6 4h19c3 0 4 -1 3 -4l-72 -259c-2 -5 -5 -6 -9 -6h-19c-5 0 -7 1 -6 7
c6 42 4 82 -4 116c-15 66 -70 113 -149 108c-112 -8 -224 -125 -270 -284c-1 -4 1 -7 5 -7h279c4 0 6 -3 5 -7l-11 -38c-1 -4 -4 -7 -8 -7h-276c-4 0 -8 -1 -9 -7c-32 -190 23 -306 151 -306c80 0 147 42 218 112c3 3 6 6 10 2z" />
    <glyph glyph-name="afii10054" unicode="&#x405;" horiz-adv-x="546" 
d="M567 522h-18c-5 0 -8 1 -7 7c14 127 -42 184 -135 184c-65 0 -130 -38 -142 -110c-15 -87 48 -135 117 -179c75 -48 153 -108 131 -229c-22 -124 -128 -207 -262 -207c-68 0 -127 26 -167 62c-18 16 -26 11 -33 -2l-24 -44c-2 -3 -4 -4 -7 -4h-18c-3 0 -4 1 -3 4l61 228
c1 5 4 6 7 6h17c5 0 8 -1 7 -7c-19 -143 75 -194 154 -194c87 0 165 61 181 146c16 82 -39 130 -100 168c-82 51 -171 108 -147 242c18 103 117 169 227 169c60 0 110 -18 155 -57c6 -5 16 -12 25 4l20 37c1 2 2 4 5 4h21c2 0 3 -1 2 -4l-60 -218c-1 -5 -4 -6 -7 -6z" />
    <glyph glyph-name="afii10055" unicode="&#x406;" horiz-adv-x="300" 
d="M229 0h-258c-3 0 -4 1 -3 5l5 18c1 3 2 5 6 6l61 10c19 3 29 11 37 38l151 538c28 99 13 100 -43 105l-11 1c-3 0 -4 2 -3 6l4 18c1 4 3 5 6 5h259c2 0 4 -1 3 -5l-4 -18c-1 -4 -2 -5 -6 -6l-63 -10c-18 -3 -29 -11 -36 -38l-151 -538c-25 -89 -13 -100 42 -105l12 -1
c4 0 4 -3 3 -6l-5 -18c-1 -4 -3 -5 -6 -5z" />
    <glyph glyph-name="afii10056" unicode="&#x407;" horiz-adv-x="300" 
d="M229 0h-258c-3 0 -4 1 -3 5l5 18c1 3 2 5 6 6l61 10c19 3 29 11 37 38l151 538c28 99 13 100 -43 105l-11 1c-3 0 -4 2 -3 6l4 18c1 4 3 5 6 5h259c2 0 4 -1 3 -5l-4 -18c-1 -4 -2 -5 -6 -6l-63 -10c-18 -3 -29 -11 -36 -38l-151 -538c-25 -89 -13 -100 42 -105l12 -1
c4 0 4 -3 3 -6l-5 -18c-1 -4 -3 -5 -6 -5zM293 876c-3 -29 -30 -53 -57 -53c-28 0 -46 24 -43 53s30 53 57 53c28 0 46 -24 43 -53zM481 876c-3 -29 -30 -53 -57 -53c-28 0 -46 24 -43 53s30 53 57 53c28 0 46 -24 43 -53z" />
    <glyph glyph-name="afii10057" unicode="&#x408;" horiz-adv-x="488" 
d="M311 215l112 399c27 99 14 103 -43 105l-37 1c-4 0 -5 3 -4 6l5 19c1 3 3 5 6 5h281c3 0 4 -2 3 -6l-4 -17c-1 -4 -2 -5 -6 -6l-58 -10c-19 -3 -30 -11 -37 -38l-120 -428c-33 -116 -105 -257 -255 -257c-89 0 -164 62 -145 181c7 45 39 92 89 92c32 0 56 -24 51 -60
c-5 -34 -31 -57 -67 -67c-14 -4 -26 -8 -22 -30c8 -40 41 -66 94 -66c83 0 127 73 157 177z" />
    <glyph glyph-name="afii10058" unicode="&#x409;" horiz-adv-x="982" 
d="M666 0h-298c-3 0 -4 2 -3 5l5 18c1 3 2 5 5 6l62 10c18 3 28 11 35 38l172 608c3 9 0 13 -8 13h-180c-10 0 -18 -7 -21 -18l-59 -209c-92 -325 -181 -421 -247 -461c-25 -15 -53 -22 -77 -22c-39 0 -82 26 -76 71c4 31 27 56 58 56c35 0 41 -32 71 -32
c53 0 138 143 207 385l42 147c28 99 15 102 -41 105l-16 1c-4 0 -5 3 -4 6l5 18c1 3 3 5 6 5h532c3 0 4 -2 3 -5l-5 -18c-1 -3 -2 -5 -5 -6l-61 -10c-19 -3 -29 -11 -37 -38l-66 -234c-1 -4 1 -7 5 -7h74c142 0 237 -70 210 -213c-26 -136 -136 -219 -288 -219zM611 48h56
c90 0 164 44 192 168c30 131 -43 164 -127 164h-77c-5 0 -8 -3 -9 -7l-71 -252c-17 -60 -12 -73 36 -73z" />
    <glyph glyph-name="afii10059" unicode="&#x40a;" horiz-adv-x="940" 
d="M625 0h-300c-2 0 -4 2 -3 5l5 18c1 3 2 5 6 6l61 10c18 3 29 11 36 38l84 296c1 4 -1 7 -5 7h-249c-4 0 -7 -3 -8 -7l-67 -238c-25 -89 -16 -100 40 -105l12 -1c4 0 4 -3 3 -6l-5 -18c-1 -3 -3 -5 -5 -5h-257c-2 0 -4 2 -3 5l5 18c1 3 2 5 6 6l61 10c18 3 27 11 35 38
l153 538c28 99 15 102 -41 105l-16 1c-4 0 -5 3 -4 6l5 18c1 3 3 5 6 5h261c3 0 4 -2 3 -5l-5 -18c-1 -3 -2 -5 -5 -6l-61 -10c-19 -3 -28 -11 -36 -38l-66 -234c-1 -4 0 -7 4 -7h249c4 0 8 3 9 7l50 176c28 99 15 100 -42 105l-11 1c-4 0 -5 3 -4 6l5 18c1 3 3 5 6 5h256
c3 0 4 -2 3 -5l-5 -18c-1 -3 -2 -5 -6 -6l-60 -10c-18 -3 -28 -11 -36 -38l-66 -234c-1 -4 1 -7 5 -7h75c142 0 237 -70 210 -213c-26 -136 -136 -219 -288 -219zM568 48h58c90 0 164 44 192 168c30 131 -43 164 -127 164h-78c-4 0 -8 -3 -9 -7l-71 -252
c-17 -60 -13 -73 35 -73z" />
    <glyph glyph-name="afii10060" unicode="&#x40b;" horiz-adv-x="822" 
d="M760 0h-252c-2 0 -4 2 -3 5l5 18c1 3 2 5 6 6l56 10c18 3 27 11 35 38l53 185c30 106 -4 146 -85 146c-46 0 -101 -13 -150 -41c-19 -11 -28 -33 -35 -57l-49 -174c-25 -89 -18 -102 27 -105l23 -1c5 0 5 -3 4 -6l-5 -19c-1 -3 -3 -5 -6 -5h-264c-3 0 -4 2 -3 5l5 19
c1 3 2 5 6 6l70 10c19 3 28 11 36 38l162 574c11 40 6 50 -33 50h-38c-70 0 -90 -12 -111 -71l-35 -98c-2 -5 -5 -6 -8 -6h-28c-3 0 -6 1 -5 6l60 206c2 7 7 11 13 11h517c6 0 9 -5 7 -11l-49 -176c-2 -5 -5 -6 -8 -6h-30c-3 0 -6 1 -5 6l14 68c13 59 -1 71 -71 71h-38
c-39 0 -50 -10 -61 -50l-64 -228c-1 -4 0 -6 5 -4c52 25 113 47 179 47c112 0 183 -66 143 -208l-35 -124c-25 -89 -16 -100 40 -105l12 -1c4 0 4 -3 3 -6l-5 -18c-1 -3 -3 -5 -5 -5z" />
    <glyph glyph-name="afii10061" unicode="&#x40c;" horiz-adv-x="660" 
d="M593 0h-107c-37 0 -53 13 -68 65l-85 285c-6 22 -14 30 -40 30h-33c-4 0 -7 -3 -8 -7l-67 -238c-28 -99 -14 -101 37 -105l12 -1c3 0 4 -2 3 -6l-5 -18c-1 -3 -3 -5 -5 -5h-254c-2 0 -4 2 -3 5l5 18c1 3 2 5 6 6l61 10c18 3 27 11 35 38l153 538c28 99 15 100 -41 105
l-16 1c-4 0 -5 3 -4 6l5 18c1 3 3 5 6 5h255c2 0 3 -2 2 -5l-5 -18c-1 -3 -2 -5 -5 -6l-54 -10c-19 -4 -28 -11 -36 -38l-67 -236c-1 -4 0 -7 4 -7h22c41 0 87 34 118 64c63 61 92 119 143 181c43 52 86 75 132 75c43 0 78 -29 72 -77c-4 -34 -32 -58 -60 -58
c-18 0 -32 8 -39 23c-6 14 -5 25 -11 31c-8 7 -26 1 -50 -28c-50 -59 -87 -123 -142 -177c-27 -27 -58 -46 -87 -60c26 -11 41 -32 56 -78l76 -227c15 -46 28 -63 64 -67l33 -3c4 0 4 -3 3 -6l-5 -18c-1 -3 -3 -5 -6 -5zM608 893l-177 -83c-6 -3 -10 0 -15 9
c-5 8 -5 13 0 17l155 121c24 19 45 16 60 -10c13 -23 4 -41 -23 -54z" />
    <glyph glyph-name="uni040D" unicode="&#x40d;" horiz-adv-x="717" 
d="M644 0h-258c-2 0 -4 2 -3 5l5 18c1 3 2 5 6 6l61 10c18 3 28 11 36 38l123 431c3 12 -5 15 -15 6l-397 -371c-16 -15 -23 -30 -28 -48c-17 -57 0 -60 51 -65l12 -1c4 0 4 -3 3 -6l-5 -18c-1 -3 -3 -5 -6 -5h-256c-2 0 -4 2 -3 5l5 18c1 3 2 5 6 6l61 10c18 3 27 11 35 38
l153 538c28 99 15 102 -41 105l-16 1c-4 0 -5 3 -4 6l5 18c1 3 3 5 6 5h262c2 0 3 -2 2 -5l-5 -18c-1 -3 -2 -5 -5 -6l-61 -10c-19 -3 -28 -11 -36 -38l-122 -431c-4 -12 3 -15 13 -6l397 371c16 15 23 30 28 48c17 57 0 60 -51 65l-11 1c-4 0 -5 3 -4 6l5 18c1 3 3 5 6 5
h258c2 0 3 -2 2 -5l-5 -18c-1 -3 -2 -5 -5 -6l-62 -10c-18 -3 -28 -11 -36 -38l-152 -538c-25 -89 -16 -100 41 -105l12 -1c4 0 4 -3 3 -6l-5 -18c-1 -3 -3 -5 -5 -5zM564 810l-177 83c-27 13 -36 31 -23 54c15 26 36 29 60 10l155 -121c5 -4 5 -9 0 -17
c-5 -9 -9 -12 -15 -9z" />
    <glyph glyph-name="afii10062" unicode="&#x40e;" horiz-adv-x="696" 
d="M301 167l20 27l-61 440c-10 71 -26 80 -62 84l-25 3c-4 1 -5 3 -4 6l5 18c1 3 3 5 7 5h244c3 0 3 -2 2 -5l-5 -18c-1 -3 -1 -6 -6 -6l-15 -1c-43 -3 -54 -11 -47 -68l41 -359l254 361c39 56 39 63 -3 66l-13 1c-4 0 -5 3 -4 6l5 18c1 3 3 5 6 5h206c3 0 4 -2 3 -5l-5 -18
c-1 -3 -2 -5 -6 -6l-26 -3c-38 -4 -63 -19 -114 -90l-341 -475c-77 -107 -146 -165 -216 -165s-112 56 -102 119c6 35 30 67 67 67c30 0 48 -22 43 -51c-5 -30 -26 -39 -28 -53c-2 -15 8 -26 27 -26c39 0 88 35 153 123zM664 983h36c7 0 8 -3 7 -10
c-20 -88 -90 -151 -173 -151s-131 63 -123 151c1 7 4 10 11 10h36c4 0 7 0 6 -10c-5 -71 22 -110 77 -110s96 39 113 110c3 10 6 10 10 10z" />
    <glyph glyph-name="afii10145" unicode="&#x40f;" horiz-adv-x="709" 
d="M636 0h-269c-19 0 -30 -10 -36 -27l-66 -180c-3 -7 -6 -9 -11 -9h-23c-5 0 -6 2 -5 9l36 180c4 17 -1 27 -21 27h-268c-2 0 -4 2 -3 5l5 18c1 3 2 5 6 6l61 10c18 3 27 11 35 38l153 538c28 99 15 102 -41 105l-16 1c-4 0 -5 3 -4 6l5 18c1 3 4 5 6 5h262c2 0 3 -2 2 -5
l-5 -18c-1 -3 -2 -5 -5 -6l-61 -10c-19 -3 -28 -11 -36 -38l-172 -608c-3 -9 -1 -13 8 -13h291c9 0 13 4 16 13l156 550c28 99 15 100 -41 105l-11 1c-4 0 -5 3 -4 6l5 18c1 3 4 5 6 5h257c2 0 3 -2 2 -5l-5 -18c-1 -3 -2 -5 -5 -6l-61 -10c-19 -3 -28 -11 -36 -38
l-152 -538c-25 -89 -16 -100 40 -105l12 -1c4 0 4 -3 3 -6l-5 -18c-1 -3 -3 -5 -5 -5z" />
    <glyph glyph-name="afii10017" unicode="&#x410;" horiz-adv-x="697" 
d="M639 0h-243c-3 0 -6 1 -5 5l5 18c1 3 2 5 6 6l52 7c26 4 40 18 38 48l-9 135c0 5 -3 6 -6 6h-258c-3 0 -7 -1 -10 -6l-78 -125c-8 -12 -16 -27 -17 -39s6 -21 29 -23l40 -3c5 0 5 -3 4 -6l-5 -18c-1 -4 -2 -5 -5 -5h-219c-3 0 -5 1 -4 5l5 18c1 3 3 5 7 6l32 5
c27 4 36 13 56 44l423 665c3 5 6 7 11 7h39c5 0 7 -2 7 -7l47 -634c5 -62 13 -75 54 -79l10 -1c5 0 5 -3 4 -6l-5 -18c-1 -4 -2 -5 -5 -5zM481 276l-23 342h-2l-212 -342c-2 -4 -2 -6 2 -6h229c4 0 6 2 6 6z" />
    <glyph glyph-name="afii10018" unicode="&#x411;" horiz-adv-x="616" 
d="M216 48h75c90 0 164 44 192 168c30 131 -43 164 -127 164h-96c-4 0 -7 -3 -8 -7l-71 -252c-17 -60 -13 -73 35 -73zM290 0h-317c-2 0 -4 2 -3 5l5 18c1 3 2 5 6 6l61 10c18 3 27 11 35 38l153 538c28 99 15 100 -41 105l-16 1c-4 0 -5 3 -4 6l5 18c1 3 3 5 6 5h492
c5 0 9 -5 7 -11l-56 -201c-2 -5 -5 -6 -9 -6h-29c-3 0 -5 1 -4 6l19 89c12 59 -1 75 -70 75h-129c-48 0 -59 -10 -76 -70l-54 -193c-1 -4 0 -7 4 -7h93c142 0 237 -70 210 -213c-26 -136 -136 -219 -288 -219z" />
    <glyph glyph-name="afii10019" unicode="&#x412;" horiz-adv-x="618" 
d="M253 0h-282c-2 0 -4 1 -3 5l5 18c1 4 2 5 6 6l62 10c19 3 29 11 37 38l151 538c28 99 13 100 -43 105l-17 1c-3 0 -3 2 -2 6l4 18c1 4 3 5 5 5h273c133 0 202 -59 183 -173c-12 -71 -73 -135 -171 -169v-2c94 -29 133 -98 115 -198c-25 -137 -151 -208 -323 -208zM214 44
h44c114 0 191 48 221 162c32 123 -15 175 -134 175h-85c-4 0 -8 -3 -9 -7l-72 -257c-17 -60 -13 -73 35 -73zM273 425h82c95 0 164 48 188 155c24 104 -31 126 -112 126h-31c-48 0 -60 -14 -76 -74l-56 -200c-1 -4 1 -7 5 -7z" />
    <glyph glyph-name="afii10020" unicode="&#x413;" horiz-adv-x="560" 
d="M249 23l-5 -18c-1 -3 -2 -5 -5 -5h-266c-2 0 -4 2 -3 5l5 18c1 3 2 5 6 6l61 10c18 3 29 11 36 38l152 538c28 99 15 100 -41 105l-16 1c-4 0 -5 3 -4 6l5 18c1 3 3 5 6 5h492c5 0 9 -5 7 -11l-60 -216c-1 -5 -4 -6 -8 -6h-28c-4 0 -7 1 -6 6l23 104c13 59 -1 75 -70 75
h-129c-48 0 -59 -10 -76 -70l-140 -497c-25 -89 -16 -102 40 -105l22 -1c3 0 3 -3 2 -6z" />
    <glyph glyph-name="afii10021" unicode="&#x414;" horiz-adv-x="688" 
d="M539 -216h-17c-8 0 -10 3 -8 12l29 131c12 55 1 73 -56 73h-393c-58 0 -79 -18 -98 -73l-46 -131c-3 -9 -6 -12 -14 -12h-18c-7 0 -9 3 -7 12l49 216c3 12 6 16 16 17l11 1c96 8 202 184 272 430l44 155c28 99 14 102 -42 105l-16 1c-4 0 -5 3 -4 6l5 18c1 3 3 5 6 5h571
c2 0 3 -2 2 -5l-5 -18c-1 -3 -2 -5 -5 -6l-61 -10c-19 -3 -29 -11 -37 -38l-152 -538c-23 -79 -12 -100 44 -105l12 -1c7 -1 10 -5 6 -17l-72 -216c-3 -9 -8 -12 -16 -12zM456 70l174 615c3 9 0 13 -8 13h-221c-8 0 -13 -4 -16 -13l-63 -224c-34 -120 -94 -309 -190 -409
h302c10 0 19 7 22 18z" />
    <glyph glyph-name="afii10022" unicode="&#x415;" horiz-adv-x="626" 
d="M502 0h-531c-2 0 -4 1 -3 5l5 18c1 4 3 5 6 6l62 10c19 3 29 11 37 38l151 538c28 99 13 101 -43 105l-16 1c-3 0 -4 2 -3 6l4 18c1 4 3 5 5 5h522c6 0 9 -5 7 -11l-58 -211c-1 -5 -4 -6 -7 -6h-30c-3 0 -7 1 -6 6l20 99c12 59 1 75 -69 75h-155c-48 0 -59 -10 -76 -70
l-60 -209c-1 -4 2 -7 5 -7h123c34 0 49 9 58 32l23 57c3 7 5 8 9 8h24c3 0 5 -1 4 -5l-68 -242c-1 -3 -3 -4 -6 -4h-25c-4 0 -5 2 -4 8l10 62c4 23 -6 32 -40 32h-123c-3 0 -7 -3 -8 -7l-67 -239c-17 -60 -12 -70 36 -70h169c70 0 94 15 114 75l35 104c2 5 6 6 9 6h30
c5 0 5 -2 4 -6l-61 -216c-2 -6 -7 -11 -13 -11z" />
    <glyph glyph-name="afii10024" unicode="&#x416;" horiz-adv-x="976" 
d="M906 0h-107c-37 0 -53 13 -68 65l-85 285c-6 22 -14 30 -40 30h-11c-4 0 -8 -3 -9 -7l-67 -238c-25 -89 -16 -100 41 -105l12 -1c4 0 4 -3 3 -6l-5 -18c-1 -3 -3 -5 -5 -5h-254c-2 0 -4 2 -3 5l5 18c1 3 2 5 6 6l61 10c18 3 29 11 36 38l84 296c1 4 -1 7 -5 7h-11
c-23 0 -37 -8 -55 -30l-237 -285c-44 -53 -68 -65 -105 -65h-117c-3 0 -5 2 -4 5l5 18c1 3 3 6 7 6l30 3c38 4 60 21 101 67l200 230c40 45 73 70 112 79c-22 14 -36 32 -49 59c-25 52 -27 124 -46 176c-11 31 -30 33 -39 27c-9 -5 -12 -17 -22 -31c-11 -15 -26 -24 -46 -24
c-29 0 -47 26 -42 58c7 46 52 77 96 77c47 0 82 -20 102 -74c22 -59 18 -122 46 -182c14 -30 40 -64 82 -64h6c4 0 8 3 9 7l51 178c28 99 15 102 -42 105l-16 1c-4 0 -4 3 -3 6l5 18c1 3 3 5 6 5h258c2 0 3 -2 2 -5l-5 -18c-1 -3 -2 -5 -5 -6l-61 -10
c-19 -3 -29 -11 -37 -38l-67 -236c-1 -4 1 -7 5 -7c41 0 87 34 118 64c63 61 92 119 143 181c43 52 86 75 132 75c43 0 78 -29 72 -77c-4 -34 -32 -58 -60 -58c-18 0 -32 8 -39 23c-6 14 -5 25 -11 31c-8 7 -26 1 -50 -28c-50 -59 -87 -123 -142 -177
c-27 -27 -58 -46 -87 -60c26 -11 41 -32 56 -78l76 -227c15 -46 28 -63 64 -67l33 -3c3 0 4 -2 3 -6l-5 -18c-1 -3 -3 -5 -6 -5z" />
    <glyph glyph-name="afii10025" unicode="&#x417;" horiz-adv-x="577" 
d="M432 402l-1 -2c71 -24 124 -82 104 -186c-27 -139 -159 -226 -289 -226c-106 0 -204 60 -209 185c0 5 2 9 6 10l30 8c5 1 6 0 7 -5c13 -105 93 -134 167 -134c83 0 169 57 190 164c13 65 -7 154 -136 154h-41c-4 0 -6 3 -5 7l11 38c1 4 5 7 9 7h80c72 0 149 69 165 162
c12 72 -27 128 -100 128c-78 0 -154 -50 -215 -176c-3 -6 -5 -7 -10 -7h-21c-3 0 -6 1 -4 6l62 211c1 3 2 4 5 4h18c3 0 4 -1 4 -4l-3 -36c-1 -13 8 -11 14 -7c62 39 117 59 173 59c110 0 190 -65 170 -178c-16 -92 -96 -165 -181 -182z" />
    <glyph glyph-name="afii10026" unicode="&#x418;" horiz-adv-x="717" 
d="M644 0h-258c-2 0 -4 2 -3 5l5 18c1 3 2 5 6 6l61 10c18 3 28 11 36 38l123 431c3 12 -5 15 -15 6l-397 -371c-16 -15 -23 -30 -28 -48c-17 -57 0 -60 51 -65l12 -1c4 0 4 -3 3 -6l-5 -18c-1 -3 -3 -5 -6 -5h-256c-2 0 -4 2 -3 5l5 18c1 3 2 5 6 6l61 10c18 3 27 11 35 38
l153 538c28 99 15 102 -41 105l-16 1c-4 0 -5 3 -4 6l5 18c1 3 3 5 6 5h262c2 0 3 -2 2 -5l-5 -18c-1 -3 -2 -5 -5 -6l-61 -10c-19 -3 -28 -11 -36 -38l-122 -431c-4 -12 3 -15 13 -6l397 371c16 15 23 30 28 48c17 57 0 60 -51 65l-11 1c-4 0 -5 3 -4 6l5 18c1 3 3 5 6 5
h258c2 0 3 -2 2 -5l-5 -18c-1 -3 -2 -5 -5 -6l-62 -10c-18 -3 -28 -11 -36 -38l-152 -538c-25 -89 -16 -100 41 -105l12 -1c4 0 4 -3 3 -6l-5 -18c-1 -3 -3 -5 -5 -5z" />
    <glyph glyph-name="afii10027" unicode="&#x419;" horiz-adv-x="717" 
d="M644 0h-258c-2 0 -4 2 -3 5l5 18c1 3 2 5 6 6l61 10c18 3 28 11 36 38l123 431c3 12 -5 15 -15 6l-397 -371c-16 -15 -23 -30 -28 -48c-17 -57 0 -60 51 -65l12 -1c4 0 4 -3 3 -6l-5 -18c-1 -3 -3 -5 -6 -5h-256c-2 0 -4 2 -3 5l5 18c1 3 2 5 6 6l61 10c18 3 27 11 35 38
l153 538c28 99 15 102 -41 105l-16 1c-4 0 -5 3 -4 6l5 18c1 3 3 5 6 5h262c2 0 3 -2 2 -5l-5 -18c-1 -3 -2 -5 -5 -6l-61 -10c-19 -3 -28 -11 -36 -38l-122 -431c-4 -12 3 -15 13 -6l397 371c16 15 23 30 28 48c17 57 0 60 -51 65l-11 1c-4 0 -5 3 -4 6l5 18c1 3 3 5 6 5
h258c2 0 3 -2 2 -5l-5 -18c-1 -3 -2 -5 -5 -6l-62 -10c-18 -3 -28 -11 -36 -38l-152 -538c-25 -89 -16 -100 41 -105l12 -1c4 0 4 -3 3 -6l-5 -18c-1 -3 -3 -5 -5 -5zM660 983h36c7 0 8 -3 7 -10c-20 -88 -90 -151 -173 -151s-131 63 -123 151c1 7 4 10 11 10h36
c4 0 7 0 6 -10c-5 -71 22 -110 77 -110s96 39 113 110c3 10 6 10 10 10z" />
    <glyph glyph-name="afii10028" unicode="&#x41a;" horiz-adv-x="660" 
d="M593 0h-107c-37 0 -53 13 -68 65l-85 285c-6 22 -14 30 -40 30h-33c-4 0 -7 -3 -8 -7l-67 -238c-28 -99 -14 -101 37 -105l12 -1c3 0 4 -2 3 -6l-5 -18c-1 -3 -3 -5 -5 -5h-254c-2 0 -4 2 -3 5l5 18c1 3 2 5 6 6l61 10c18 3 27 11 35 38l153 538c28 99 15 100 -41 105
l-16 1c-4 0 -5 3 -4 6l5 18c1 3 3 5 6 5h255c2 0 3 -2 2 -5l-5 -18c-1 -3 -2 -5 -5 -6l-54 -10c-19 -4 -28 -11 -36 -38l-67 -236c-1 -4 0 -7 4 -7h22c41 0 87 34 118 64c63 61 92 119 143 181c43 52 86 75 132 75c43 0 78 -29 72 -77c-4 -34 -32 -58 -60 -58
c-18 0 -32 8 -39 23c-6 14 -5 25 -11 31c-8 7 -26 1 -50 -28c-50 -59 -87 -123 -142 -177c-27 -27 -58 -46 -87 -60c26 -11 41 -32 56 -78l76 -227c15 -46 28 -63 64 -67l33 -3c4 0 4 -3 3 -6l-5 -18c-1 -3 -3 -5 -6 -5z" />
    <glyph glyph-name="afii10029" unicode="&#x41b;" horiz-adv-x="735" 
d="M662 0h-257c-2 0 -4 2 -3 5l5 18c1 3 2 5 6 6l61 10c18 3 29 11 36 38l171 603c3 11 -2 18 -12 18h-213c-10 0 -18 -7 -21 -18l-59 -209c-92 -325 -181 -421 -247 -461c-25 -15 -53 -22 -77 -22c-39 0 -82 26 -76 71c4 31 27 56 58 56c35 0 41 -32 71 -32
c53 0 138 143 207 385l42 147c28 99 15 102 -41 105l-16 1c-4 0 -5 3 -4 6l5 18c1 3 3 5 6 5h569c3 0 4 -2 3 -5l-5 -18c-1 -3 -1 -5 -5 -6l-61 -10c-19 -3 -28 -11 -36 -38l-152 -538c-25 -89 -16 -100 40 -105l13 -1c3 0 3 -3 2 -6l-5 -18c-1 -3 -2 -5 -5 -5z" />
    <glyph glyph-name="afii10030" unicode="&#x41c;" horiz-adv-x="899" 
d="M829 0h-266c-3 0 -6 1 -5 5l5 18c1 3 3 5 7 6l69 10c19 3 29 11 37 38l160 571h-1s-11 -17 -24 -36l-393 -540c-2 -3 -4 -4 -8 -4h-12c-4 0 -4 1 -5 4l-89 540c-3 19 -4 36 -4 36h-1l-144 -513c-28 -99 -13 -102 42 -105l19 -1c5 0 5 -3 4 -6l-5 -18c-1 -4 -2 -5 -5 -5
h-238c-3 0 -4 1 -3 5l5 18c1 3 2 5 6 6l62 10c19 3 28 11 36 38l151 538c28 99 13 100 -43 105l-16 1c-4 0 -4 2 -3 6l4 18c1 3 3 5 6 5h185c5 0 7 -2 8 -7l84 -529l381 529c3 5 7 7 12 7h191c3 0 5 -1 4 -5l-4 -18c-1 -4 -3 -5 -7 -6l-63 -10c-19 -3 -28 -11 -35 -38
l-151 -538c-28 -99 -13 -100 42 -105l12 -1c4 0 4 -3 3 -6l-5 -18c-1 -4 -2 -5 -5 -5z" />
    <glyph glyph-name="afii10031" unicode="&#x41d;" horiz-adv-x="707" 
d="M637 0h-260c-3 0 -5 1 -4 5l5 18c1 4 2 5 6 6l63 10c19 3 30 11 37 38l80 289c1 4 0 7 -4 7h-302c-4 0 -8 -1 -10 -7l-64 -231c-25 -89 -13 -100 43 -105l11 -1c3 0 4 -2 3 -6l-5 -18c-1 -4 -3 -5 -6 -5h-258c-3 0 -4 1 -3 5l5 18c1 4 2 5 6 6l62 10c18 3 29 11 36 38
l151 538c28 99 13 100 -42 105l-17 1c-4 0 -4 3 -3 6l4 18c1 4 4 5 6 5h263c3 0 5 -1 4 -5l-4 -18c-1 -4 -2 -5 -6 -6l-62 -10c-19 -3 -30 -11 -37 -38l-67 -241c-1 -4 1 -7 5 -7h302c4 0 8 2 9 7l51 183c28 99 12 100 -43 105l-12 1c-4 0 -4 3 -3 6l4 18c1 4 4 5 6 5h259
c3 0 5 -1 4 -5l-4 -18c-1 -4 -2 -5 -6 -6l-63 -10c-19 -3 -29 -11 -36 -38l-151 -538c-25 -89 -13 -100 42 -105l11 -1c4 0 5 -3 4 -6l-5 -18c-1 -4 -3 -5 -5 -5z" />
    <glyph glyph-name="afii10032" unicode="&#x41e;" horiz-adv-x="699" 
d="M321 42c207 0 305 313 305 489c0 117 -52 177 -134 177c-207 0 -305 -313 -305 -489c0 -117 52 -177 134 -177zM325 -12c-152 0 -231 121 -231 278c0 260 185 496 394 496c152 0 231 -121 231 -278c0 -260 -185 -496 -394 -496z" />
    <glyph glyph-name="afii10033" unicode="&#x41f;" horiz-adv-x="709" 
d="M635 0h-256c-3 0 -4 2 -3 5l5 18c1 3 2 5 6 6l61 10c18 3 28 11 35 38l171 603c3 11 -1 18 -12 18h-282c-10 0 -18 -7 -21 -18l-154 -545c-25 -89 -16 -100 40 -105l12 -1c3 0 4 -2 3 -6l-5 -18c-1 -3 -2 -5 -6 -5h-256c-3 0 -4 2 -3 5l5 18c1 3 2 5 6 6l61 10
c18 3 27 11 35 38l153 538c28 99 15 102 -41 105l-16 1c-4 0 -5 3 -4 6l5 18c1 3 3 5 6 5h668c2 0 3 -2 2 -5l-5 -18c-1 -3 -2 -5 -5 -6l-61 -10c-19 -3 -28 -11 -36 -38l-152 -538c-25 -89 -16 -100 40 -105l12 -1c3 0 4 -3 3 -6l-5 -18c-1 -3 -2 -5 -6 -5z" />
    <glyph glyph-name="afii10034" unicode="&#x420;" horiz-adv-x="589" 
d="M245 0h-273c-2 0 -4 1 -3 5l5 18c1 4 3 5 6 6l63 10c19 3 27 11 35 38l151 538c28 99 13 100 -42 105l-17 1c-4 0 -4 2 -3 6l4 18c1 4 3 5 5 5h255c152 0 245 -75 217 -218c-26 -135 -152 -212 -315 -212h-97l-50 -177c-28 -99 -16 -111 41 -113l24 -1c5 0 5 -3 4 -6
l-5 -18c-1 -4 -2 -5 -5 -5zM250 368h86c103 0 195 42 218 170c24 135 -40 168 -131 168h-22c-48 0 -59 -10 -76 -70z" />
    <glyph glyph-name="afii10035" unicode="&#x421;" horiz-adv-x="658" 
d="M585 165l21 -22c3 -4 1 -6 -2 -10c-69 -86 -158 -145 -255 -145c-190 0 -287 164 -241 388s220 386 394 386c48 0 89 -12 122 -33c18 -11 37 -26 49 -36c7 -5 16 -9 25 7l24 41c2 3 3 4 6 4h19c3 0 4 -1 3 -4l-72 -259c-2 -5 -5 -6 -9 -6h-19c-5 0 -7 1 -6 7
c6 42 4 82 -4 116c-15 66 -70 113 -149 108c-126 -9 -251 -155 -284 -345c-34 -193 21 -311 150 -311c80 0 147 42 218 112c3 3 6 7 10 2z" />
    <glyph glyph-name="afii10036" unicode="&#x422;" horiz-adv-x="641" 
d="M410 0h-279c-3 0 -5 1 -4 5l5 19c1 3 3 5 7 6l71 10c19 3 30 11 37 38l162 574c11 40 5 50 -33 50h-51c-69 0 -92 -12 -112 -71l-36 -103c-2 -5 -5 -6 -8 -6h-30c-4 0 -7 1 -6 6l62 211c2 6 7 11 13 11h546c5 0 9 -5 7 -11l-58 -211c-1 -5 -4 -6 -8 -6h-30
c-3 0 -7 1 -6 6l22 103c12 59 -1 71 -70 71h-51c-38 0 -50 -10 -61 -50l-146 -516c-28 -99 -13 -102 42 -105l21 -1c5 0 5 -3 4 -6l-5 -19c-1 -4 -2 -5 -5 -5z" />
    <glyph glyph-name="afii10037" unicode="&#x423;" horiz-adv-x="696" 
d="M301 167l20 27l-61 440c-10 71 -26 80 -62 84l-25 3c-4 1 -5 3 -4 6l5 18c1 3 3 5 7 5h244c3 0 3 -2 2 -5l-5 -18c-1 -3 -1 -6 -6 -6l-15 -1c-43 -3 -54 -11 -47 -68l41 -359l254 361c39 56 39 63 -3 66l-13 1c-4 0 -5 3 -4 6l5 18c1 3 3 5 6 5h206c3 0 4 -2 3 -5l-5 -18
c-1 -3 -2 -5 -6 -6l-26 -3c-38 -4 -63 -19 -114 -90l-341 -475c-77 -107 -146 -165 -216 -165s-112 56 -102 119c6 35 30 67 67 67c30 0 48 -22 43 -51c-5 -30 -26 -39 -28 -53c-2 -15 8 -26 27 -26c39 0 88 35 153 123z" />
    <glyph glyph-name="afii10038" unicode="&#x424;" horiz-adv-x="790" 
d="M550 573l-114 -400c144 3 239 78 258 201c17 114 -43 186 -144 199zM471 0h-253c-2 0 -4 2 -3 5l5 18c1 3 2 5 6 6l61 10c18 3 29 11 36 38l13 47c-157 14 -252 108 -229 249c24 150 160 252 371 252c22 85 10 92 -44 95l-16 1c-3 0 -4 3 -3 6l5 18c1 4 3 5 6 5h258
c2 0 3 -2 2 -5l-5 -18c-1 -3 -2 -5 -5 -6l-61 -10c-19 -3 -29 -11 -37 -38l-14 -50c157 -14 252 -108 229 -249c-24 -150 -160 -252 -371 -252c-20 -75 -9 -88 45 -92l12 -1c4 0 4 -3 3 -6l-5 -18c-1 -3 -3 -5 -6 -5zM350 174l114 400c-144 -3 -239 -78 -258 -201
c-17 -114 43 -186 144 -199z" />
    <glyph glyph-name="afii10039" unicode="&#x425;" horiz-adv-x="701" 
d="M636 0h-249c-3 0 -5 1 -4 5l5 18c1 3 2 6 7 6l23 1c39 2 59 17 41 69l-79 227l-207 -230c-36 -40 -42 -65 -4 -66l28 -1c5 0 5 -2 4 -6l-5 -18c-1 -4 -2 -5 -5 -5h-227c-2 0 -4 1 -3 5l7 22c1 4 2 5 7 6l24 3c43 5 61 21 121 86l239 260l-90 260c-19 56 -24 68 -60 72
l-27 3c-3 0 -4 2 -3 6l6 22c1 3 3 5 6 5h249c3 0 4 -2 3 -5l-4 -18c-1 -4 -2 -6 -7 -6l-28 -1c-39 -1 -53 -17 -36 -69l64 -197l180 200c36 40 40 64 -1 66l-19 1c-5 0 -5 2 -4 6l4 18c1 3 2 5 6 5h219c3 0 4 -2 3 -5l-6 -22c-1 -4 -3 -6 -6 -6l-23 -3
c-42 -5 -60 -22 -120 -86l-214 -232l104 -280c24 -65 30 -75 66 -80l24 -3c3 0 4 -2 3 -6l-7 -22c-1 -4 -3 -5 -5 -5z" />
    <glyph glyph-name="afii10040" unicode="&#x426;" horiz-adv-x="713" 
d="M565 -216h-18c-8 0 -9 3 -7 12l28 131c11 55 2 73 -56 73h-539c-2 0 -4 2 -3 5l5 18c1 3 2 5 6 6l61 10c18 3 27 11 35 38l153 538c28 99 15 102 -41 105l-16 1c-4 0 -5 3 -4 6l5 18c1 3 3 5 6 5h261c3 0 4 -2 3 -5l-5 -18c-1 -3 -2 -5 -5 -6l-61 -10
c-19 -3 -28 -11 -36 -38l-172 -608c-3 -9 -1 -13 8 -13h291c9 0 13 4 16 13l156 550c28 99 15 100 -41 105l-11 1c-4 0 -5 3 -4 6l5 18c1 3 3 5 6 5h257c2 0 3 -2 2 -5l-5 -18c-1 -3 -2 -5 -5 -6l-61 -10c-19 -3 -28 -11 -36 -38l-152 -538c-23 -79 -12 -100 44 -105l11 -1
c8 -1 10 -5 6 -17l-72 -216c-3 -9 -8 -12 -15 -12z" />
    <glyph glyph-name="afii10041" unicode="&#x427;" horiz-adv-x="662" 
d="M593 0h-261c-2 0 -4 2 -3 5l5 18c1 3 2 5 6 6l61 10c18 3 27 11 35 38l70 245c1 4 -1 6 -5 4c-54 -27 -117 -48 -180 -48c-112 0 -184 68 -143 208l37 129c26 88 15 100 -41 105l-12 1c-3 0 -4 3 -3 6l5 18c1 3 3 5 6 5h256c3 0 4 -2 3 -5l-5 -18c-1 -3 -2 -5 -5 -6
l-61 -10c-19 -3 -29 -11 -37 -38l-54 -190c-30 -106 14 -146 85 -146c51 0 102 13 150 41c20 11 29 33 36 57l51 180c25 89 15 100 -41 105l-11 1c-4 0 -5 3 -4 6l5 18c1 3 3 5 6 5h256c2 0 4 -1 3 -5l-5 -18c-1 -3 -2 -5 -5 -6l-61 -10c-19 -3 -28 -11 -36 -38l-152 -538
c-28 -99 -16 -102 40 -105l17 -1c4 0 4 -3 3 -6l-5 -18c-1 -3 -3 -5 -6 -5z" />
    <glyph glyph-name="afii10042" unicode="&#x428;" horiz-adv-x="1017" 
d="M943 0h-970c-2 0 -4 2 -3 5l5 18c1 3 2 5 6 6l61 10c18 3 27 11 35 38l153 538c28 99 15 102 -41 105l-16 1c-4 0 -5 3 -4 6l5 18c1 3 3 5 6 5h261c3 0 4 -1 3 -5l-5 -18c-1 -3 -2 -5 -5 -6l-61 -10c-19 -3 -28 -11 -36 -38l-172 -608c-3 -9 -1 -13 8 -13h242
c9 0 13 4 16 13l156 550c28 99 15 100 -41 105l-11 1c-4 0 -5 3 -4 6l5 18c1 3 3 5 6 5h256c3 0 4 -1 3 -5l-5 -18c-1 -3 -2 -5 -5 -6l-61 -10c-19 -3 -28 -11 -36 -38l-173 -612c-2 -6 1 -9 9 -9h242c9 0 14 4 17 13l156 550c28 99 15 100 -42 105l-11 1c-4 0 -5 3 -4 6
l5 18c1 3 3 5 6 5h256c3 0 4 -1 3 -5l-5 -18c-1 -3 -2 -5 -5 -6l-61 -10c-19 -3 -28 -11 -36 -38l-152 -538c-25 -89 -16 -100 40 -105l12 -1c4 0 4 -3 3 -6l-5 -18c-1 -4 -3 -5 -6 -5z" />
    </font>
</defs>
</svg>
