<?xml version="1.0" standalone="no"?>
<!DOCTYPE svg PUBLIC "-//W3C//DTD SVG 1.1//EN" "http://www.w3.org/Graphics/SVG/1.1/DTD/svg11.dtd" >
<svg xmlns="http://www.w3.org/2000/svg" width="100%" height="100%">
<metadata>
Created by FontXChange 20110222 at Mon Nov  7 10:00:42 2011
 By James Beall
Copyright (c) 2011 by GM. All rights reserved.
</metadata>
<defs>
<font id="Durant-Regular" horiz-adv-x="580" >
  <font-face 
    font-family="Durant"
    font-weight="400"
    font-stretch="normal"
    units-per-em="1000"
    panose-1="2 0 0 0 0 0 0 0 0 0"
    ascent="750"
    descent="-250"
    x-height="500"
    cap-height="750"
    bbox="-99 -287 1318 1022"
    underline-thickness="50"
    underline-position="-50"
    stemh="52"
    stemv="96"
    unicode-range="U+0020-FB02"
  />
<missing-glyph 
d="M540 0h-500v750h500v-750zM90 93l171 281l-171 281v-562zM490 93v562l-171 -281zM290 421l170 279h-340zM458 50l-168 276l-169 -276h337z" />
    <glyph glyph-name="fi" unicode="fi" horiz-adv-x="617" 
d="M599 0h-252c-2 0 -4 2 -4 5v16c0 3 1 5 4 6l51 9c19 3 27 11 27 38v296c0 79 -12 85 -63 85h-165v-327c0 -89 6 -97 61 -100l16 -1c4 0 5 -3 5 -6v-16c0 -3 -2 -5 -4 -5h-247c-2 0 -4 2 -4 5v16c0 3 1 5 4 6l52 10c19 3 27 11 27 38v380h-90c-4 0 -7 3 -7 7v31
c0 4 3 7 7 7h90v91c0 109 44 192 168 192c90 0 157 -43 157 -105c0 -33 -23 -57 -55 -57s-54 24 -54 52c0 23 13 39 13 49c0 3 0 6 -4 10c-6 5 -24 15 -53 15c-73 0 -82 -65 -82 -129v-118h314c2 0 4 -2 4 -5v-382c0 -69 14 -80 60 -84l23 -2c4 0 5 -3 5 -6v-16
c0 -3 -2 -5 -4 -5z" />
    <glyph glyph-name="fl" unicode="fl" horiz-adv-x="610" 
d="M600 0h-253c-2 0 -4 2 -4 5v16c0 3 1 5 4 6l52 8c19 3 27 11 27 38v585c0 81 -52 107 -117 107c-93 0 -112 -73 -112 -137v-128h145c4 0 7 -3 7 -7v-31c0 -4 -3 -7 -7 -7h-145v-327c0 -89 6 -97 57 -100l16 -1c4 0 5 -3 5 -6v-16c0 -3 -2 -5 -4 -5h-243c-2 0 -4 2 -4 5
v16c0 3 1 5 4 6l52 10c19 3 27 11 27 38v380h-90c-4 0 -7 3 -7 7v31c0 4 3 7 7 7h90v103c0 109 53 200 201 200c47 0 90 -12 127 -22l77 12c2 0 4 -2 4 -5v-675c0 -69 14 -80 60 -84l23 -2c4 0 5 -3 5 -6v-16c0 -3 -2 -5 -4 -5z" />
    <glyph glyph-name=".notdef" 
d="M540 0h-500v750h500v-750zM90 93l171 281l-171 281v-562zM490 93v562l-171 -281zM290 421l170 279h-340zM458 50l-168 276l-169 -276h337z" />
    <glyph glyph-name="space" unicode=" " horiz-adv-x="230" 
 />
    <glyph glyph-name="exclam" unicode="!" horiz-adv-x="206" 
d="M86 230l-39 489c-4 46 17 68 57 68s61 -22 57 -68l-39 -489c-1 -8 -8 -9 -18 -9s-17 1 -18 9zM103 -12c-35 0 -63 28 -63 63s28 63 63 63s63 -28 63 -63s-28 -63 -63 -63z" />
    <glyph glyph-name="quotedbl" unicode="&#x22;" horiz-adv-x="316" 
d="M68 540l-31 204c-6 37 11 58 46 58s52 -21 46 -58l-31 -204c-1 -6 -5 -8 -15 -8s-14 2 -15 8zM218 540l-31 204c-6 37 11 58 46 58s52 -21 46 -58l-31 -204c-1 -6 -5 -8 -15 -8s-14 2 -15 8z" />
    <glyph glyph-name="numbersign" unicode="#" horiz-adv-x="664" 
d="M397 0h-44c-4 0 -6 3 -5 7l36 206h-162l-36 -206c-1 -4 -5 -7 -9 -7h-44c-4 0 -6 3 -5 7l36 206h-137c-4 0 -7 3 -7 7v44c0 4 3 7 7 7h147l36 208h-143c-4 0 -7 3 -7 7v44c0 4 3 7 7 7h154l36 206c1 4 5 7 9 7h44c4 0 6 -3 5 -7l-36 -206h162l36 206c1 4 5 7 9 7h44
c4 0 6 -3 5 -7l-36 -206h138c4 0 7 -3 7 -7v-44c0 -4 -3 -7 -7 -7h-149l-36 -208h145c4 0 7 -3 7 -7v-44c0 -4 -3 -7 -7 -7h-155l-36 -206c-1 -4 -5 -7 -9 -7zM394 271l36 208h-162l-36 -208h162z" />
    <glyph glyph-name="dollar" unicode="$" horiz-adv-x="526" 
d="M277 -84h-28c-4 0 -7 3 -7 7v106c-112 5 -200 55 -200 130c0 37 25 63 58 63c35 0 59 -26 59 -57c0 -19 -6 -33 -11 -44c-6 -13 -5 -22 12 -30c27 -12 51 -18 82 -19v286c-4 1 -7 2 -10 4c-90 38 -173 85 -173 198c0 87 73 156 183 161v95c0 4 3 7 7 7h28c4 0 7 -3 7 -7
v-97c105 -8 186 -57 186 -128c0 -37 -25 -63 -58 -63c-35 0 -59 26 -59 57c0 19 6 33 11 44c6 13 5 22 -12 30c-23 10 -44 16 -68 18v-244c104 -43 197 -104 197 -211c0 -105 -78 -186 -197 -193v-106c0 -4 -3 -7 -7 -7zM284 338v-266c69 7 122 64 122 131
c0 61 -55 102 -122 135zM242 451v226c-60 -4 -109 -43 -109 -99c0 -60 41 -96 109 -127z" />
    <glyph glyph-name="percent" unicode="%" horiz-adv-x="722" 
d="M200 -12h-45c-4 0 -6 3 -4 7l362 760c2 5 5 7 9 7h45c4 0 6 -3 4 -7l-362 -760c-2 -5 -5 -7 -9 -7zM184 412c-85 0 -149 71 -149 175s64 175 149 175s148 -71 148 -175s-63 -175 -148 -175zM184 450c47 0 79 46 79 137s-32 137 -79 137s-80 -46 -80 -137s33 -137 80 -137
zM539 -12c-85 0 -149 71 -149 175s64 175 149 175s148 -71 148 -175s-63 -175 -148 -175zM539 26c47 0 79 46 79 137s-32 137 -79 137s-80 -46 -80 -137s33 -137 80 -137z" />
    <glyph glyph-name="ampersand" unicode="&#x26;" horiz-adv-x="740" 
d="M455 96l-223 281c-66 -41 -92 -96 -92 -161c0 -108 82 -178 175 -178c53 0 100 18 140 58zM280 453c69 27 126 86 126 158c0 60 -40 108 -98 108c-56 0 -100 -41 -100 -109c0 -53 30 -105 72 -157zM699 0h-150c-13 0 -19 5 -24 11l-37 44c-52 -43 -106 -67 -180 -67
c-133 0 -263 70 -263 210c0 100 56 164 157 218c-48 63 -75 112 -75 184c0 92 70 162 182 162c103 0 176 -58 176 -146c0 -94 -77 -159 -175 -202l200 -252c36 47 52 125 55 165c2 32 -4 42 -35 43l-47 1c-4 0 -5 3 -5 6v21c0 3 2 5 4 5h231c2 0 4 -2 4 -5v-17
c0 -3 -1 -6 -4 -6l-51 -7c-25 -4 -33 -11 -38 -38c-15 -85 -33 -146 -79 -212c54 -71 67 -82 116 -86l38 -3c4 0 5 -3 5 -6v-18c0 -3 -2 -5 -5 -5z" />
    <glyph glyph-name="quotesingle" unicode="'" horiz-adv-x="166" 
d="M68 540l-31 204c-6 37 11 58 46 58s52 -21 46 -58l-31 -204c-1 -6 -5 -8 -15 -8s-14 2 -15 8z" />
    <glyph glyph-name="parenleft" unicode="(" horiz-adv-x="315" 
d="M308 -169l-14 -12c-2 -2 -5 -2 -7 0c-114 97 -222 286 -222 519s108 422 222 519c2 2 5 2 7 0l14 -12c2 -2 2 -4 -1 -7c-80 -100 -155 -272 -155 -500s75 -400 155 -500c3 -3 3 -5 1 -7z" />
    <glyph glyph-name="parenright" unicode=")" horiz-adv-x="315" 
d="M21 -181l-14 12c-2 2 -2 4 1 7c80 100 155 272 155 500s-75 400 -155 500c-3 3 -3 5 -1 7l14 12c2 2 5 2 7 0c114 -97 222 -286 222 -519s-108 -422 -222 -519c-2 -2 -5 -2 -7 0z" />
    <glyph glyph-name="asterisk" unicode="*" horiz-adv-x="389" 
d="M252 453l-57 107l-56 -107c-12 -23 -29 -28 -48 -14c-20 14 -21 33 -3 51l83 86l-118 21c-25 4 -35 19 -28 41c8 23 25 29 47 18l107 -52l-16 119c-4 25 8 39 31 39c24 0 36 -14 32 -39l-18 -119l109 53c23 12 40 5 47 -17c7 -23 -2 -39 -27 -43l-117 -21l83 -86
c18 -18 16 -35 -3 -49c-20 -14 -37 -10 -48 12z" />
    <glyph glyph-name="plus" unicode="+" horiz-adv-x="624" 
d="M334 57h-44c-4 0 -7 3 -7 7v246h-246c-4 0 -7 3 -7 7v44c0 4 3 7 7 7h246v246c0 4 3 7 7 7h44c4 0 7 -3 7 -7v-246h246c4 0 7 -3 7 -7v-44c0 -4 -3 -7 -7 -7h-246v-246c0 -4 -3 -7 -7 -7z" />
    <glyph glyph-name="comma" unicode="," horiz-adv-x="206" 
d="M25 -147c-6 -1 -8 2 -10 9c-2 6 -1 10 3 11c76 21 107 83 107 124c0 12 -5 17 -13 17s-14 -4 -30 -4c-28 0 -51 25 -51 57s24 57 63 57c54 0 85 -46 85 -100c0 -68 -49 -151 -154 -171z" />
    <glyph glyph-name="hyphen" unicode="-" horiz-adv-x="364" 
d="M312 310h-260c-4 0 -7 3 -7 7v44c0 4 3 7 7 7h260c4 0 7 -3 7 -7v-44c0 -4 -3 -7 -7 -7z" />
    <glyph glyph-name="period" unicode="." horiz-adv-x="206" 
d="M103 -12c-38 0 -68 30 -68 68s30 68 68 68s68 -30 68 -68s-30 -68 -68 -68z" />
    <glyph glyph-name="slash" unicode="/" horiz-adv-x="380" 
d="M55 -113h-49c-4 0 -6 3 -5 7l311 901c2 5 4 7 8 7h49c4 0 6 -3 5 -7l-311 -901c-2 -5 -4 -7 -8 -7z" />
    <glyph glyph-name="zero" unicode="0" horiz-adv-x="677" 
d="M342 42c108 0 167 111 167 319c0 228 -66 347 -175 347s-166 -113 -166 -322c0 -171 39 -344 174 -344zM338 -12c-166 0 -278 172 -278 386s112 388 278 388s279 -174 279 -388s-113 -386 -279 -386z" />
    <glyph glyph-name="one" unicode="1" horiz-adv-x="402" 
d="M378 0h-345c-2 0 -4 2 -4 5v18c0 3 1 6 4 6l101 10c19 2 27 11 27 38v528c0 79 -16 86 -77 83l-53 -3c-4 0 -5 2 -5 5v21c0 3 1 5 5 6c66 9 135 22 204 44c13 4 22 -2 22 -13v-613c0 -89 16 -104 77 -105l43 -1c4 0 5 -3 5 -6v-18c0 -3 -2 -5 -4 -5z" />
    <glyph glyph-name="two" unicode="2" horiz-adv-x="582" 
d="M517 0h-459c-6 0 -10 2 -10 10v43c0 5 1 9 5 13l202 218c105 113 140 188 140 273c0 106 -59 157 -137 157c-79 0 -128 -47 -128 -84c0 -43 57 -37 57 -87c0 -32 -28 -55 -56 -55c-45 0 -73 36 -73 85c0 108 82 189 218 189c132 0 224 -80 224 -196
c0 -83 -44 -165 -136 -257l-218 -215c-3 -3 -3 -6 0 -6h282c34 0 54 10 57 49l5 70c0 5 4 6 7 6h26c4 0 7 -1 7 -6l-2 -196c0 -6 -5 -11 -11 -11z" />
    <glyph glyph-name="three" unicode="3" horiz-adv-x="577" 
d="M362 411v-2c90 -29 160 -89 160 -190c0 -141 -117 -231 -255 -231c-74 0 -149 26 -189 74c-19 23 -32 51 -32 86c0 47 25 93 69 93c29 0 51 -19 51 -46c0 -58 -71 -46 -43 -99c21 -39 79 -60 136 -60c84 0 161 60 161 180c0 65 -29 152 -134 159c-19 -1 -73 -6 -93 -6
c-18 0 -22 6 -22 24c0 21 4 27 24 27c25 0 76 -2 91 -3c53 13 101 82 101 167c0 70 -41 132 -128 132c-48 0 -84 -13 -106 -37c-22 -25 -13 -39 4 -51c11 -8 26 -21 26 -45c0 -30 -24 -48 -51 -48c-35 0 -61 29 -61 66c0 97 89 161 195 161c126 0 216 -65 216 -168
c0 -82 -55 -147 -120 -183z" />
    <glyph glyph-name="four" unicode="4" horiz-adv-x="598" 
d="M571 0h-330c-2 0 -4 2 -4 5v18c0 3 1 6 4 6l92 10c19 2 27 11 27 38v161h-315c-20 0 -32 17 -22 36c58 114 225 356 386 499c7 5 20 4 31 1c10 -3 19 -6 19 -15c0 -12 -7 -49 -7 -123v-346h127c4 0 5 -3 5 -6v-41c0 -3 -2 -5 -4 -5h-128v-103c0 -89 14 -104 75 -105
l43 -1c4 0 5 -3 5 -6v-18c0 -3 -2 -5 -4 -5zM360 290v373c-114 -123 -218 -278 -263 -358c-5 -9 -4 -15 6 -15h257z" />
    <glyph glyph-name="five" unicode="5" horiz-adv-x="593" 
d="M435 662h-280c-10 0 -14 -4 -14 -15l-6 -169c0 -6 2 -9 7 -9c4 0 9 2 16 4c37 12 77 21 131 21c144 0 249 -95 249 -237c0 -146 -107 -269 -264 -269c-124 0 -219 63 -219 156c0 47 23 93 67 93c29 0 51 -19 51 -46c0 -58 -70 -48 -42 -101c21 -39 79 -57 137 -57
c111 0 168 103 168 218c0 124 -69 189 -173 189c-49 0 -91 -13 -133 -33c-13 -6 -20 -10 -34 -10c-10 0 -15 3 -15 11l11 319c0 15 7 23 23 23h267c34 0 55 10 58 49l3 30c0 5 4 6 7 6h25c4 0 7 -1 7 -6v-120c0 -28 -19 -47 -47 -47z" />
    <glyph glyph-name="six" unicode="6" horiz-adv-x="620" 
d="M314 -12c-150 0 -254 138 -254 288c0 225 134 414 357 507c9 4 16 -2 20 -10c4 -7 5 -16 -2 -20c-120 -71 -229 -186 -262 -333c-2 -8 3 -13 10 -8c47 36 92 60 164 60c121 0 221 -80 221 -217c0 -147 -113 -267 -254 -267zM319 42c118 0 151 123 151 210
c0 97 -51 166 -139 166c-86 0 -167 -67 -167 -163c0 -100 50 -213 155 -213z" />
    <glyph glyph-name="seven" unicode="7" horiz-adv-x="548" 
d="M430 662h-295c-34 0 -54 -10 -57 -49l-4 -54c0 -5 -4 -6 -7 -6h-25c-4 0 -7 1 -7 6l2 180c0 6 5 11 11 11h459c16 0 23 -8 23 -23c0 -22 -31 -63 -48 -87c-84 -115 -201 -274 -201 -409c0 -73 31 -118 31 -172c0 -35 -16 -71 -54 -71c-37 0 -67 31 -67 102
c0 145 59 282 143 416c28 45 67 94 99 142c3 4 6 13 -3 14z" />
    <glyph glyph-name="eight" unicode="8" horiz-adv-x="612" 
d="M379 421v-2c104 -36 178 -107 178 -214c0 -126 -105 -218 -251 -218s-251 92 -251 218c0 107 74 178 178 214v2c-84 31 -140 89 -140 168c0 108 95 173 213 173s213 -65 213 -173c0 -79 -56 -137 -140 -168zM306 393c-59 -5 -153 -73 -153 -185c0 -105 61 -177 153 -177
s153 72 153 177c0 112 -94 180 -153 185zM306 446c51 7 122 54 122 146c0 70 -40 127 -122 127s-122 -57 -122 -127c0 -92 71 -139 122 -146z" />
    <glyph glyph-name="nine" unicode="9" horiz-adv-x="620" 
d="M203 -33c-9 -4 -16 2 -20 10c-4 7 -5 16 2 20c120 71 229 186 262 333c2 8 -3 13 -10 8c-47 -36 -92 -60 -164 -60c-121 0 -221 80 -221 217c0 147 113 267 254 267c150 0 254 -138 254 -292c0 -221 -134 -410 -357 -503zM456 495c0 100 -50 213 -155 213
c-118 0 -151 -123 -151 -210c0 -97 49 -166 137 -166c86 0 169 67 169 163z" />
    <glyph glyph-name="colon" unicode=":" horiz-adv-x="226" 
d="M113 -12c-38 0 -68 30 -68 68s30 68 68 68s68 -30 68 -68s-30 -68 -68 -68zM113 318c-38 0 -68 30 -68 68s30 68 68 68s68 -30 68 -68s-30 -68 -68 -68z" />
    <glyph glyph-name="semicolon" unicode=";" horiz-adv-x="226" 
d="M35 -147c-6 -1 -8 2 -10 9c-2 6 -1 10 3 11c76 21 107 83 107 124c0 12 -5 17 -13 17s-14 -4 -30 -4c-28 0 -51 25 -51 57s24 57 63 57c54 0 85 -46 85 -100c0 -68 -49 -151 -154 -171zM113 318c-38 0 -68 30 -68 68s30 68 68 68s68 -30 68 -68s-30 -68 -68 -68z" />
    <glyph glyph-name="less" unicode="&#x3c;" horiz-adv-x="458" 
d="M413 86l-371 223c-6 4 -7 7 -7 15v30c0 8 1 11 7 15l371 223c4 3 10 3 10 -4v-46c0 -6 -2 -10 -8 -14l-319 -189l319 -189c6 -4 8 -8 8 -14v-46c0 -7 -6 -7 -10 -4z" />
    <glyph glyph-name="equal" unicode="=" horiz-adv-x="524" 
d="M472 405h-420c-4 0 -7 3 -7 7v44c0 4 3 7 7 7h420c4 0 7 -3 7 -7v-44c0 -4 -3 -7 -7 -7zM472 215h-420c-4 0 -7 3 -7 7v44c0 4 3 7 7 7h420c4 0 7 -3 7 -7v-44c0 -4 -3 -7 -7 -7z" />
    <glyph glyph-name="greater" unicode="&#x3e;" horiz-adv-x="458" 
d="M416 309l-371 -223c-4 -3 -10 -3 -10 4v46c0 6 2 10 8 14l319 189l-319 189c-6 4 -8 8 -8 14v46c0 7 6 7 10 4l371 -223c6 -4 7 -7 7 -15v-30c0 -8 -1 -11 -7 -15z" />
    <glyph glyph-name="question" unicode="?" horiz-adv-x="440" 
d="M215 239c2 -12 -9 -15 -20 -16c-12 -2 -21 0 -23 11c-51 227 148 229 148 386c0 73 -56 115 -118 115c-30 0 -56 -8 -76 -22c-18 -12 -54 -54 -21 -66c30 -11 50 -26 50 -56c0 -32 -27 -54 -56 -54c-46 0 -67 45 -66 87c3 93 85 158 177 158c134 0 198 -83 198 -164
c0 -177 -232 -191 -193 -379zM205 -12c-35 0 -63 28 -63 63s28 63 63 63s63 -28 63 -63s-28 -63 -63 -63z" />
    <glyph glyph-name="at" unicode="@" horiz-adv-x="985" 
d="M778 -8l20 -25c-88 -70 -198 -119 -332 -119c-277 0 -427 196 -403 458s238 456 484 456c264 0 425 -206 373 -454c-25 -118 -132 -268 -268 -268c-52 0 -85 33 -77 99c1 9 3 18 5 27h-4c-63 -87 -117 -126 -176 -126c-104 0 -153 102 -112 245c49 170 174 279 267 279
c48 0 78 -24 100 -63c9 -16 21 -24 38 -1l35 48c3 3 4 4 7 4h15c3 0 4 -1 3 -4l-108 -387c-15 -56 1 -78 27 -78c66 0 169 82 204 232c51 221 -88 409 -331 409c-213 0 -401 -183 -423 -418c-22 -234 104 -414 347 -414c118 0 228 39 309 100zM621 354l3 12
c23 92 -11 154 -61 154c-69 0 -151 -106 -191 -240c-36 -123 -15 -190 45 -190c66 0 161 94 204 264z" />
    <glyph glyph-name="A" unicode="A" horiz-adv-x="745" 
d="M737 0h-263c-3 0 -6 2 -6 5v18c0 3 1 5 5 6l51 7c27 4 37 18 26 48l-51 135c-2 5 -5 6 -9 6h-272c-4 0 -7 -1 -9 -6l-46 -125c-5 -14 -8 -27 -8 -36c0 -19 14 -24 39 -26l42 -3c5 0 6 -3 6 -6v-18c0 -3 -2 -5 -5 -5h-228c-3 0 -5 2 -5 5v18c0 3 1 5 5 6l32 5
c28 4 35 13 47 44l251 665c2 5 4 7 10 7h45c6 0 8 -2 10 -7l239 -634c23 -62 36 -75 82 -79l11 -1c5 0 6 -3 6 -6v-18c0 -3 -2 -5 -5 -5zM477 283l-122 335h-2l-121 -335c-1 -4 0 -6 4 -6h237c4 0 5 2 4 6z" />
    <glyph glyph-name="B" unicode="B" horiz-adv-x="651" 
d="M338 0h-315c-2 0 -4 2 -4 5v18c0 3 1 5 4 6l62 10c19 3 27 11 27 38v538c0 99 -14 100 -75 105l-18 1c-4 0 -5 3 -5 6v18c0 3 2 5 4 5h288c141 0 246 -54 246 -168c0 -71 -42 -134 -131 -169v-2c114 -28 182 -98 182 -198c0 -137 -98 -213 -265 -213zM268 48h68
c100 0 165 43 165 158c0 122 -68 172 -195 172h-91c-4 0 -7 -3 -7 -7v-250c0 -60 9 -73 60 -73zM215 428h88c101 0 154 46 154 152c0 102 -70 122 -156 122h-33c-51 0 -60 -14 -60 -74v-193c0 -4 3 -7 7 -7z" />
    <glyph glyph-name="C" unicode="C" horiz-adv-x="694" 
d="M619 211l29 -12c4 -2 5 -5 3 -10c-46 -125 -149 -201 -265 -201c-194 0 -331 162 -331 386s137 388 322 388c74 0 127 -24 183 -62c12 -8 23 -12 28 6l13 41c1 3 2 4 5 4h19c3 0 4 -1 4 -4v-262c0 -5 -3 -6 -7 -6h-20c-5 0 -7 1 -9 7c-37 138 -97 224 -211 224
c-134 0 -220 -134 -220 -321c0 -211 96 -337 235 -337c95 0 164 54 213 155c2 5 4 6 9 4z" />
    <glyph glyph-name="D" unicode="D" horiz-adv-x="737" 
d="M273 48h47c166 0 254 147 254 339c0 220 -99 315 -253 315h-38c-53 0 -75 -8 -75 -88v-498c0 -52 12 -68 65 -68zM320 0h-297c-2 0 -4 2 -4 5v18c0 3 1 5 4 6l62 10c19 3 27 11 27 38v538c0 99 -14 100 -75 105l-18 1c-4 0 -5 3 -5 6v18c0 3 2 5 4 5h302
c223 0 362 -128 362 -352s-135 -398 -362 -398z" />
    <glyph glyph-name="E" unicode="E" horiz-adv-x="659" 
d="M586 0h-563c-2 0 -4 2 -4 5v18c0 3 1 5 4 6l62 10c19 3 27 11 27 38v538c0 99 -14 100 -75 105l-18 1c-4 0 -5 3 -5 6v18c0 3 2 5 4 5h553c6 0 11 -5 11 -11l2 -216c0 -5 -3 -6 -7 -6h-30c-3 0 -7 1 -7 6l-8 104c-5 59 -23 75 -97 75h-167c-51 0 -60 -10 -60 -70v-209
c0 -4 3 -7 7 -7h132c37 0 50 9 53 32l7 57c1 7 3 8 7 8h24c3 0 5 -2 5 -4v-243c0 -2 -2 -4 -5 -4h-24c-4 0 -6 1 -7 8l-7 62c-3 23 -16 32 -53 32h-132c-4 0 -7 -3 -7 -7v-239c0 -60 9 -70 60 -70h182c74 0 92 16 97 75l8 104c0 5 4 6 7 6h30c4 0 7 -1 7 -6l-2 -216
c0 -6 -5 -11 -11 -11z" />
    <glyph glyph-name="F" unicode="F" horiz-adv-x="623" 
d="M307 0h-284c-2 0 -4 2 -4 5v18c0 3 1 5 4 6l62 10c19 3 27 11 27 38v538c0 99 -14 100 -75 105l-18 1c-4 0 -5 3 -5 6v18c0 3 2 5 4 5h554c6 0 11 -5 11 -11l2 -216c0 -5 -3 -6 -7 -6h-30c-3 0 -7 1 -7 6l-8 104c-5 59 -23 75 -97 75h-168c-51 0 -60 -10 -60 -70v-219
c0 -4 3 -7 7 -7h141c32 0 40 9 43 32l7 66c1 7 3 8 7 8h24c3 0 5 -2 5 -4v-261c0 -2 -2 -4 -5 -4h-24c-4 0 -6 1 -7 8l-7 71c-2 23 -10 32 -43 32h-141c-4 0 -7 -3 -7 -7v-212c0 -89 14 -102 75 -105l23 -1c4 0 5 -3 5 -6v-18c0 -3 -2 -5 -4 -5z" />
    <glyph glyph-name="G" unicode="G" horiz-adv-x="750" 
d="M664 0h-22c-3 0 -4 1 -5 4l-25 73c-3 8 -8 8 -13 2c-55 -65 -122 -91 -215 -91c-196 0 -329 162 -329 386s138 388 323 388c47 0 89 -10 129 -29c20 -10 48 -28 61 -36c8 -5 19 -7 24 9l13 41c1 3 2 4 5 4h19c3 0 4 -1 4 -4v-244c0 -5 -3 -6 -7 -6h-22c-5 0 -7 1 -9 7
c-39 123 -103 212 -227 204c-132 -8 -214 -158 -205 -348c9 -193 103 -312 234 -312c98 0 183 51 183 157v37c0 47 -16 60 -62 61l-38 1c-5 0 -6 3 -6 6v26c0 3 2 5 5 5h244c3 0 5 -2 5 -5v-23c0 -3 -1 -5 -5 -6l-31 -5c-20 -3 -24 -11 -24 -35v-263c0 -3 -1 -4 -4 -4z" />
    <glyph glyph-name="H" unicode="H" horiz-adv-x="760" 
d="M737 0h-274c-2 0 -4 2 -4 5v18c0 3 1 5 4 6l62 10c19 3 27 11 27 38v289c0 4 -3 7 -7 7h-330c-4 0 -7 -3 -7 -7v-231c0 -89 14 -100 75 -105l13 -1c4 0 5 -3 5 -6v-18c0 -3 -2 -5 -4 -5h-274c-2 0 -4 2 -4 5v18c0 3 1 5 4 6l62 10c19 3 27 11 27 38v538
c0 99 -14 102 -75 105l-18 1c-4 0 -5 3 -5 6v18c0 3 2 5 4 5h279c2 0 4 -2 4 -5v-18c0 -3 -1 -5 -4 -6l-62 -10c-19 -3 -27 -11 -27 -38v-241c0 -4 3 -7 7 -7h330c4 0 7 3 7 7v183c0 99 -14 100 -75 105l-13 1c-4 0 -5 3 -5 6v18c0 3 2 5 4 5h274c2 0 4 -2 4 -5v-18
c0 -3 -1 -5 -4 -6l-62 -10c-19 -3 -27 -11 -27 -38v-538c0 -89 14 -100 75 -105l13 -1c4 0 5 -3 5 -6v-18c0 -3 -2 -5 -4 -5z" />
    <glyph glyph-name="I" unicode="I" horiz-adv-x="320" 
d="M297 0h-274c-2 0 -4 2 -4 5v18c0 3 1 5 4 6l62 10c19 3 27 11 27 38v538c0 99 -14 102 -75 105l-18 1c-4 0 -5 3 -5 6v18c0 3 2 5 4 5h279c2 0 4 -2 4 -5v-18c0 -3 -1 -5 -4 -6l-62 -10c-19 -3 -27 -11 -27 -38v-538c0 -89 14 -100 75 -105l13 -1c4 0 5 -3 5 -6v-18
c0 -3 -2 -5 -4 -5z" />
    <glyph glyph-name="J" unicode="J" horiz-adv-x="504" 
d="M308 215v399c0 99 -16 103 -77 105l-29 1c-4 0 -5 3 -5 6v19c0 3 2 5 4 5h287c2 0 4 -2 4 -5v-18c0 -3 -1 -5 -4 -6l-57 -10c-19 -3 -27 -11 -27 -38v-428c0 -45 -2 -70 -7 -93c-8 -38 -22 -71 -44 -98c-34 -41 -86 -66 -153 -66c-63 0 -128 29 -159 87
c-12 22 -19 50 -20 79c-1 27 8 55 21 73c13 17 32 27 55 27c34 0 61 -23 61 -59c0 -32 -20 -56 -49 -68c-12 -5 -27 -10 -18 -29c17 -36 56 -60 109 -60c83 0 108 73 108 177z" />
    <glyph glyph-name="K" unicode="K" horiz-adv-x="726" 
d="M706 0h-275c-3 0 -5 2 -5 5v18c0 3 1 6 5 6l38 2c25 2 31 11 31 22c0 9 -7 22 -14 35l-184 324l-94 -97v-180c0 -99 17 -101 72 -105l13 -1c4 0 5 -3 5 -6v-18c0 -3 -2 -5 -4 -5h-271c-2 0 -4 2 -4 5v18c0 3 1 5 4 6l62 10c19 3 27 11 27 38v538c0 99 -14 100 -75 105
l-18 1c-4 0 -5 3 -5 6v18c0 3 2 5 4 5h272c2 0 4 -2 4 -5v-18c0 -3 -1 -5 -4 -6l-55 -10c-19 -3 -27 -11 -27 -38v-276l257 266c11 11 17 23 17 34c0 14 -13 22 -36 23l-22 1c-5 0 -6 3 -6 6v18c0 3 2 5 5 5h247c3 0 5 -2 5 -5v-18c0 -3 -1 -5 -5 -6l-25 -4
c-44 -7 -65 -20 -110 -66l-168 -173l212 -359c36 -61 64 -81 104 -87l23 -3c4 -1 5 -3 5 -6v-18c0 -3 -2 -5 -5 -5z" />
    <glyph glyph-name="L" unicode="L" horiz-adv-x="608" 
d="M557 0h-534c-2 0 -4 2 -4 5v18c0 3 1 5 4 6l62 10c19 3 27 11 27 38v538c0 99 -14 100 -75 105l-18 1c-4 0 -5 3 -5 6v18c0 3 2 5 4 5h279c2 0 4 -2 4 -5v-18c0 -3 -1 -5 -4 -6l-62 -10c-19 -3 -27 -11 -27 -38v-555c0 -60 9 -70 60 -70h153c74 0 91 16 95 75l9 136
c0 5 4 6 7 6h31c4 0 7 -1 7 -6l-2 -248c0 -6 -5 -11 -11 -11z" />
    <glyph glyph-name="M" unicode="M" horiz-adv-x="956" 
d="M932 0h-280c-3 0 -5 2 -5 5v18c0 3 1 5 5 6l69 10c19 3 27 11 27 38v571h-1s-6 -17 -15 -36l-256 -540c-1 -2 -2 -4 -6 -4h-15c-4 0 -5 2 -6 4l-256 540c-9 19 -15 36 -15 36h-1v-513c0 -99 14 -100 75 -105l20 -1c5 0 6 -3 6 -6v-18c0 -3 -2 -5 -5 -5h-249
c-3 0 -5 2 -5 5v18c0 3 1 5 5 6l62 10c19 3 26 11 26 38v538c0 99 -14 100 -75 105l-17 1c-5 0 -6 3 -6 6v18c0 3 2 5 5 5h206c5 0 9 -2 11 -7l248 -529l246 529c2 5 6 7 11 7h191c3 0 5 -2 5 -5v-18c0 -3 -1 -5 -5 -6l-62 -10c-19 -3 -26 -11 -26 -38v-538
c0 -99 14 -100 75 -105l12 -1c5 0 6 -3 6 -6v-18c0 -3 -2 -5 -5 -5z" />
    <glyph glyph-name="N" unicode="N" horiz-adv-x="737" 
d="M631 0h-41c-5 0 -7 2 -9 5l-384 599c-12 19 -19 33 -19 33h-1v-502c0 -99 15 -100 75 -105l18 -1c4 0 5 -3 5 -6v-18c0 -3 -2 -5 -4 -5h-248c-3 0 -4 2 -4 5v18c0 3 0 5 4 6l62 10c19 3 27 11 27 38v538c0 99 -15 100 -75 105l-18 1c-5 0 -5 3 -5 6v18c0 3 1 5 4 5h188
c5 0 7 -2 9 -5l335 -521c12 -19 19 -33 19 -33h1v384c0 129 -15 140 -75 145l-18 1c-4 0 -5 3 -5 6v18c0 3 2 5 4 5h248c3 0 4 -2 4 -5v-18c0 -3 0 -5 -4 -6l-62 -10c-19 -3 -27 -11 -27 -38v-669c0 -3 -1 -4 -4 -4z" />
    <glyph glyph-name="O" unicode="O" horiz-adv-x="757" 
d="M382 42c128 0 212 114 212 319c0 230 -91 347 -220 347s-211 -111 -211 -322c0 -173 64 -344 219 -344zM378 -12c-196 0 -323 172 -323 386s127 388 323 388s324 -174 324 -388s-128 -386 -324 -386z" />
    <glyph glyph-name="P" unicode="P" horiz-adv-x="620" 
d="M310 0h-286c-3 0 -5 2 -5 5v18c0 3 1 5 5 6l62 10c19 3 26 11 26 38v538c0 99 -14 100 -75 105l-18 1c-4 0 -5 3 -5 6v18c0 3 2 5 4 5h303c151 0 261 -70 261 -213c0 -135 -105 -219 -261 -219h-106c-4 0 -7 -3 -7 -7v-168c0 -99 14 -111 75 -113l26 -1c5 0 6 -3 6 -6
v-18c0 -3 -2 -5 -5 -5zM215 370h105c99 0 160 42 160 168c0 133 -77 164 -162 164h-50c-51 0 -60 -10 -60 -70v-255c0 -4 3 -7 7 -7z" />
    <glyph glyph-name="Q" unicode="Q" horiz-adv-x="756" 
d="M728 -14l26 -6c4 -1 5 -3 4 -8c-13 -63 -54 -132 -139 -132c-68 0 -125 41 -171 114l-24 38c-15 -2 -30 -4 -46 -4c-196 0 -323 172 -323 386s127 388 323 388s324 -174 324 -388c0 -162 -74 -300 -194 -358l13 -25c24 -46 59 -92 110 -92c48 0 77 39 91 83c1 3 2 5 6 4z
M382 42c131 0 212 114 212 319c0 230 -88 347 -220 347s-211 -111 -211 -322c0 -173 61 -344 219 -344z" />
    <glyph glyph-name="R" unicode="R" horiz-adv-x="665" 
d="M215 409h96c97 0 141 51 141 152c0 110 -60 143 -153 143h-31c-51 0 -60 -10 -60 -70v-218c0 -4 3 -7 7 -7zM679 23v-18c0 -3 -2 -6 -5 -7c-14 -6 -27 -10 -49 -10c-34 0 -63 5 -86 18c-35 20 -57 63 -64 152c-11 130 -44 201 -154 201h-106c-4 0 -7 -3 -7 -7v-207
c0 -99 14 -113 75 -115l26 -1c5 0 6 -3 6 -6v-18c0 -3 -2 -5 -5 -5h-286c-3 0 -5 2 -5 5v18c0 3 1 5 5 6l62 10c19 3 26 11 26 38v538c0 99 -14 100 -75 105l-18 1c-4 0 -5 3 -5 6v18c0 3 2 5 4 5h283c148 0 251 -43 251 -180c0 -94 -55 -152 -144 -181v-2
c92 -17 143 -85 154 -189c10 -92 17 -174 87 -174c10 0 18 1 24 3c5 2 6 -1 6 -4z" />
    <glyph glyph-name="S" unicode="S" horiz-adv-x="576" 
d="M72 0h-20c-3 0 -4 1 -4 4l-3 238c0 5 3 6 7 6h22c5 0 8 -1 9 -7c28 -151 136 -202 220 -202c82 0 148 59 148 144c0 91 -93 133 -190 175c-100 43 -192 95 -192 224c0 103 87 180 204 180c68 0 121 -18 178 -59c6 -4 14 -6 17 7l9 36c1 3 2 4 5 4h20c3 0 4 -1 4 -4
l2 -223c0 -5 -3 -6 -7 -6h-22c-5 0 -8 1 -9 7c-30 137 -98 189 -197 189c-59 0 -118 -38 -118 -110c0 -84 59 -116 158 -157c118 -49 224 -117 224 -242c0 -124 -93 -216 -235 -216c-77 0 -137 23 -194 67c-6 5 -14 6 -18 -7l-13 -44c-1 -3 -2 -4 -5 -4z" />
    <glyph glyph-name="T" unicode="T" horiz-adv-x="682" 
d="M488 0h-293c-3 0 -5 2 -5 5v19c0 3 1 5 5 6l71 10c19 3 27 11 27 38v574c0 40 -9 50 -50 50h-56c-74 0 -92 -12 -97 -71l-8 -108c0 -5 -4 -6 -7 -6h-30c-4 0 -7 1 -7 6l2 216c0 6 5 11 11 11h580c6 0 11 -5 11 -11l2 -216c0 -5 -3 -6 -7 -6h-30c-3 0 -7 1 -7 6l-8 108
c-5 59 -23 71 -97 71h-56c-41 0 -50 -10 -50 -50v-516c0 -99 15 -102 76 -105l22 -1c5 0 6 -3 6 -6v-19c0 -3 -2 -5 -5 -5z" />
    <glyph glyph-name="U" unicode="U" horiz-adv-x="763" 
d="M597 276v339c0 99 -14 100 -75 105l-12 1c-5 0 -6 3 -6 6v18c0 3 2 5 5 5h240c3 0 5 -2 5 -5v-18c0 -3 -1 -5 -5 -6l-61 -10c-19 -3 -27 -11 -27 -38v-396c0 -177 -84 -289 -280 -289c-161 0 -279 82 -279 274v353c0 99 -14 100 -75 105l-17 1c-5 0 -6 3 -6 6v18
c0 3 2 5 5 5h277c3 0 5 -2 5 -5v-18c0 -3 -1 -5 -5 -6l-62 -10c-19 -3 -26 -11 -26 -38v-409c0 -123 61 -214 197 -214c151 0 202 98 202 226z" />
    <glyph glyph-name="V" unicode="V" horiz-adv-x="749" 
d="M398 0h-45c-6 0 -8 2 -10 7l-239 634c-23 62 -34 75 -78 79l-11 1c-5 0 -6 3 -6 6v18c0 3 2 5 5 5h257c3 0 6 -2 6 -5v-18c0 -3 -1 -5 -5 -6l-49 -7c-27 -4 -37 -18 -26 -48l195 -534h2l190 524c5 14 8 27 8 36c0 19 -14 24 -39 26l-42 3c-5 0 -6 3 -6 6v18c0 3 2 5 5 5
h225c3 0 5 -2 5 -5v-18c0 -3 -1 -5 -5 -6l-29 -4c-28 -5 -35 -14 -47 -45l-251 -665c-2 -5 -4 -7 -10 -7z" />
    <glyph glyph-name="W" unicode="W" horiz-adv-x="1068" 
d="M727 0h-47c-6 0 -8 2 -10 7l-130 341l-128 -341c-2 -5 -4 -7 -10 -7h-47c-6 0 -8 2 -10 7l-241 634c-24 62 -34 75 -78 79l-11 1c-5 0 -6 3 -6 6v18c0 3 2 5 5 5h230c3 0 6 -2 6 -5v-17c0 -3 -1 -5 -5 -6l-35 -6c-27 -5 -31 -20 -20 -50l201 -548h2l115 313l-79 210
c-24 62 -27 75 -73 79l-11 1c-5 0 -6 3 -6 6v18c0 3 2 5 5 5h385c3 0 5 -2 5 -5v-18c0 -3 -1 -5 -5 -6l-19 -2c-28 -3 -35 -16 -47 -47l-79 -209l129 -353h2l188 545c5 16 8 28 8 37c0 19 -15 23 -40 25l-41 4c-5 0 -6 3 -6 6v18c0 3 2 5 5 5h225c3 0 5 -2 5 -5v-18
c0 -3 -1 -5 -5 -6l-30 -4c-26 -3 -35 -14 -46 -45l-241 -665c-2 -5 -4 -7 -10 -7zM552 545l41 116c16 45 12 60 -19 60h-48c-27 0 -30 -19 -20 -47z" />
    <glyph glyph-name="X" unicode="X" horiz-adv-x="744" 
d="M727 0h-269c-3 0 -4 2 -4 5v18c0 3 0 6 5 6l23 1c40 2 56 17 22 69l-147 225l-152 -228c-34 -51 -24 -65 16 -66l30 -1c5 0 6 -3 6 -6v-18c0 -3 -2 -5 -5 -5h-237c-3 0 -5 2 -5 5v22c0 3 1 6 5 6l33 3c39 4 53 21 97 86l176 257l-171 263c-36 56 -47 68 -86 72l-28 3
c-4 1 -5 3 -5 6v22c0 3 2 5 5 5h269c3 0 4 -2 4 -5v-18c0 -3 0 -6 -5 -6l-28 -1c-40 -1 -49 -17 -17 -69l121 -193l131 196c34 51 24 63 -21 66l-18 1c-5 0 -6 3 -6 6v18c0 3 2 5 5 5h224c3 0 5 -2 5 -5v-22c0 -3 -1 -5 -5 -6l-27 -3c-39 -4 -53 -21 -97 -86l-156 -227
l193 -285c44 -65 54 -75 95 -80l24 -3c4 0 5 -3 5 -6v-22c0 -3 -2 -5 -5 -5z" />
    <glyph glyph-name="Y" unicode="Y" horiz-adv-x="739" 
d="M511 0h-292c-3 0 -5 2 -5 5v18c0 3 1 5 5 6l71 10c19 3 27 11 27 38v273l-186 284c-43 66 -52 80 -91 84l-28 3c-4 1 -5 3 -5 6v18c0 3 2 5 5 5h262c3 0 4 -2 4 -5v-18c0 -3 0 -6 -5 -6l-13 -1c-45 -3 -60 -15 -27 -68l151 -244l162 246c34 51 24 63 -21 66l-13 1
c-5 0 -6 3 -6 6v18c0 3 2 5 5 5h216c3 0 5 -2 5 -5v-18c0 -3 -1 -5 -5 -6l-27 -3c-39 -4 -53 -25 -97 -90l-190 -278v-225c0 -91 14 -92 75 -95l22 -1c5 0 6 -3 6 -6v-18c0 -3 -2 -5 -5 -5z" />
    <glyph glyph-name="Z" unicode="Z" horiz-adv-x="645" 
d="M586 0h-551c-4 0 -7 3 -7 7v23c0 5 1 8 3 11l427 642c11 17 4 19 -11 19h-238c-74 0 -92 -16 -97 -75l-7 -104c0 -5 -4 -6 -7 -6h-31c-4 0 -7 1 -7 6l2 216c0 6 5 11 11 11h508c4 0 7 -3 7 -7v-23c0 -5 -1 -8 -3 -11l-430 -642c-11 -17 -3 -19 12 -19h283
c74 0 93 16 97 75l8 129c0 5 4 6 7 6h30c4 0 7 -1 7 -6l-2 -241c0 -6 -5 -11 -11 -11z" />
    <glyph glyph-name="bracketleft" unicode="[" horiz-adv-x="298" 
d="M284 -139h-215c-2 0 -4 2 -4 5v992c0 3 2 5 4 5h215c2 0 4 -2 4 -5v-22c0 -3 -1 -6 -5 -6l-61 -1c-51 -1 -67 -6 -67 -85v-764c0 -79 16 -84 67 -85l61 -1c4 0 5 -3 5 -6v-22c0 -3 -2 -5 -4 -5z" />
    <glyph glyph-name="backslash" unicode="\" horiz-adv-x="380" 
d="M369 -113h-49c-4 0 -6 2 -8 7l-311 901c-1 4 1 7 5 7h49c4 0 6 -2 8 -7l311 -901c1 -4 -1 -7 -5 -7z" />
    <glyph glyph-name="bracketright" unicode="]" horiz-adv-x="298" 
d="M229 -139h-215c-2 0 -4 2 -4 5v22c0 3 1 6 5 6l61 1c51 1 67 6 67 85v764c0 79 -16 84 -67 85l-61 1c-4 0 -5 3 -5 6v22c0 3 2 5 4 5h215c2 0 4 -2 4 -5v-992c0 -3 -2 -5 -4 -5z" />
    <glyph glyph-name="asciicircum" unicode="^" horiz-adv-x="544" 
d="M501 362h-49c-6 0 -10 2 -13 8l-167 314l-167 -314c-3 -6 -7 -8 -13 -8h-49c-7 0 -7 6 -5 10l203 371c4 6 7 7 15 7h32c8 0 11 -1 15 -7l203 -371c2 -4 2 -10 -5 -10z" />
    <glyph glyph-name="underscore" unicode="_" horiz-adv-x="534" 
d="M517 -140h-500c-4 0 -7 3 -7 7v44c0 4 3 7 7 7h500c4 0 7 -3 7 -7v-44c0 -4 -3 -7 -7 -7z" />
    <glyph glyph-name="grave" unicode="`" horiz-adv-x="560" 
d="M356 570l-192 83c-29 13 -38 33 -24 58c15 27 37 29 63 10l168 -125c5 -4 5 -9 0 -17c-5 -9 -9 -11 -15 -9z" />
    <glyph glyph-name="a" unicode="a" horiz-adv-x="548" 
d="M346 195v47c0 11 -3 15 -19 14c-109 -6 -198 -35 -198 -130c0 -49 33 -84 83 -84c62 0 106 54 125 98c4 8 9 24 9 55zM533 113v-21c0 -54 -21 -104 -81 -104c-46 0 -85 33 -97 99h-2c-37 -63 -89 -99 -160 -99c-78 0 -153 44 -153 135c0 125 129 165 290 175
c11 1 14 7 14 21v25c0 83 -32 126 -103 126c-21 0 -44 -4 -60 -14c-5 -3 -6 -5 -6 -8c0 -10 13 -28 13 -54c0 -31 -26 -57 -57 -57s-57 26 -57 62c0 68 82 113 169 113c125 0 190 -58 190 -208v-190c0 -56 14 -78 35 -78c19 0 31 20 31 55v21c0 10 3 12 9 12h15
c7 0 10 -1 10 -11z" />
    <glyph glyph-name="b" unicode="b" 
d="M168 255v-59c0 -113 73 -160 135 -160c88 0 138 94 138 217c0 133 -43 208 -129 208c-64 0 -144 -65 -144 -206zM92 -4h-10c-3 0 -4 1 -4 4v680c0 79 -14 81 -65 85l-13 1c-4 0 -5 3 -5 6v16c0 3 2 5 4 5h165c2 0 4 -2 4 -5v-341c0 -8 4 -8 7 -4c40 43 87 69 145 69
c132 0 215 -100 215 -255c0 -160 -89 -269 -227 -269c-59 0 -120 26 -168 73c-2 2 -4 1 -5 -1l-37 -60c-2 -3 -3 -4 -6 -4z" />
    <glyph glyph-name="c" unicode="c" horiz-adv-x="500" 
d="M446 130l22 -13c3 -2 3 -5 1 -9c-42 -78 -105 -120 -188 -120c-141 0 -236 107 -236 262s97 262 235 262c85 0 166 -45 166 -113c0 -36 -26 -62 -57 -62s-57 26 -57 57c0 26 13 43 13 53c0 3 -1 5 -6 8c-16 10 -38 14 -57 14c-85 0 -142 -83 -142 -205
c0 -149 64 -221 154 -221c62 0 110 30 143 85c2 3 5 4 9 2z" />
    <glyph glyph-name="d" unicode="d" horiz-adv-x="581" 
d="M413 245v59c0 113 -73 160 -135 160c-88 0 -138 -94 -138 -217c0 -133 43 -208 129 -208c64 0 144 65 144 206zM578 0h-147c-2 0 -4 2 -4 5l-4 87h-2c-42 -73 -98 -104 -170 -104c-128 0 -206 100 -206 255c0 160 92 269 229 269c47 0 96 -19 133 -50c3 -2 6 0 6 4v214
c0 79 -14 81 -65 85l-13 1c-4 0 -5 3 -5 6v16c0 3 2 5 4 5h165c2 0 4 -2 4 -5v-675c0 -79 15 -81 61 -85l13 -1c4 0 5 -3 5 -6v-16c0 -3 -2 -5 -4 -5z" />
    <glyph glyph-name="e" unicode="e" horiz-adv-x="518" 
d="M451 119l20 -16c3 -3 3 -6 0 -10c-51 -71 -107 -105 -190 -105c-141 0 -236 107 -236 262s97 262 227 262c132 0 204 -108 204 -246c0 -11 -4 -19 -16 -19h-310c-10 0 -11 -8 -11 -13c2 -130 69 -191 156 -191c62 0 109 27 147 75c2 3 5 4 9 1zM158 291h218
c9 0 11 6 11 12c-5 106 -48 164 -121 164c-64 0 -112 -59 -123 -148c-3 -25 1 -28 15 -28z" />
    <glyph glyph-name="f" unicode="f" horiz-adv-x="361" 
d="M281 0h-253c-2 0 -4 2 -4 5v16c0 3 1 5 4 6l52 10c19 3 27 11 27 38v380h-90c-4 0 -7 3 -7 7v31c0 4 3 7 7 7h90v93c0 109 44 190 148 190c75 0 137 -34 137 -96c0 -33 -23 -57 -55 -57s-54 24 -54 52c0 23 13 39 13 49c0 3 0 6 -5 9c-8 5 -18 7 -32 7
c-53 0 -62 -63 -62 -127v-120h145c4 0 7 -3 7 -7v-31c0 -4 -3 -7 -7 -7h-145v-327c0 -89 6 -95 67 -100l16 -1c4 0 5 -3 5 -6v-16c0 -3 -2 -5 -4 -5z" />
    <glyph glyph-name="g" unicode="g" horiz-adv-x="530" 
d="M169 100l111 -12c119 -13 220 -55 220 -169c0 -102 -91 -177 -244 -177c-119 0 -230 42 -230 156c0 51 37 99 83 121c-43 18 -63 46 -63 82c0 41 25 79 87 100c-41 32 -66 80 -66 134c0 98 85 177 192 177c38 0 74 -10 104 -28c-8 60 24 110 88 110c45 0 83 -26 83 -69
c0 -23 -15 -43 -38 -43c-25 0 -42 18 -42 41c0 8 2 15 2 19c0 1 1 13 -15 13c-30 0 -48 -26 -42 -67c2 -18 7 -35 16 -49c23 -29 37 -65 37 -104c0 -98 -86 -177 -193 -177c-34 0 -65 8 -92 21c-30 -8 -51 -25 -51 -43c0 -20 16 -32 53 -36zM279 -1l-67 5c-20 1 -49 3 -64 6
c-36 -27 -50 -63 -50 -99c0 -75 55 -122 165 -122c95 0 177 43 177 117c0 59 -59 85 -161 93zM258 201c68 0 108 50 108 136c0 88 -40 132 -108 132s-106 -44 -106 -132c0 -86 38 -136 106 -136z" />
    <glyph glyph-name="h" unicode="h" horiz-adv-x="612" 
d="M606 0h-235c-2 0 -4 2 -4 5v16c0 3 1 5 4 6l39 9c19 4 27 12 27 39v238c0 106 -38 146 -103 146c-53 0 -100 -33 -130 -79c-15 -22 -19 -48 -19 -80v-187c0 -69 14 -81 60 -85l13 -1c4 0 5 -3 5 -6v-16c0 -3 -2 -5 -4 -5h-243c-2 0 -4 2 -4 5v16c0 3 1 5 4 6l52 10
c19 4 27 11 27 38v605c0 79 -14 82 -65 85l-13 1c-4 0 -5 3 -5 6v16c0 3 2 5 4 5h165c2 0 4 -2 4 -5v-314c0 -31 -1 -38 -2 -48l2 -1c41 51 99 87 166 87c102 0 176 -57 176 -198v-201c0 -69 14 -81 65 -85l13 -1c4 0 5 -3 5 -6v-16c0 -3 -2 -5 -4 -5z" />
    <glyph glyph-name="i" unicode="i" horiz-adv-x="275" 
d="M266 0h-252c-2 0 -4 2 -4 5v16c0 3 1 5 4 6l54 10c19 3 27 11 27 38v312c0 79 -14 82 -65 85l-18 1c-4 0 -5 3 -5 6v16c0 3 2 5 4 5h170c2 0 4 -2 4 -5v-382c0 -69 14 -80 57 -84l23 -2c4 0 5 -3 5 -6v-16c0 -3 -2 -5 -4 -5zM191 664c0 -35 -27 -61 -62 -61
s-61 26 -61 61s26 62 61 62s62 -27 62 -62z" />
    <glyph glyph-name="j" unicode="j" horiz-adv-x="294" 
d="M133 -87v474c0 79 -14 82 -65 85l-26 1c-4 0 -5 3 -5 6v16c0 3 2 5 4 5h178c2 0 4 -2 4 -5v-555c0 -109 -42 -190 -146 -190c-33 0 -63 8 -87 22c-31 18 -51 46 -51 76c0 33 22 57 54 57s54 -24 54 -52c0 -23 -14 -41 -14 -51c0 -3 1 -6 6 -9c8 -4 18 -7 32 -7
c53 0 62 63 62 127zM228 664c0 -35 -27 -61 -62 -61s-61 26 -61 61s26 62 61 62s62 -27 62 -62z" />
    <glyph glyph-name="k" unicode="k" horiz-adv-x="598" 
d="M586 0h-234c-3 0 -5 2 -5 5v16c0 3 1 6 5 6l20 2c25 2 29 11 29 22c0 9 -8 22 -17 35l-130 178l-69 -66v-85c0 -69 7 -81 53 -85l13 -1c4 0 5 -3 5 -6v-16c0 -3 -2 -5 -4 -5h-236c-2 0 -4 2 -4 5v16c0 3 1 5 4 6l52 10c19 4 27 11 27 38v605c0 79 -14 82 -65 85l-13 1
c-4 0 -5 3 -5 6v16c0 3 2 5 4 5h165c2 0 4 -2 4 -5v-524l159 153c11 10 17 20 17 31c0 15 -13 23 -36 24l-15 1c-5 0 -6 3 -6 6v16c0 3 2 5 5 5h221c3 0 5 -2 5 -5v-16c0 -3 -1 -5 -5 -6l-18 -3c-44 -7 -64 -24 -109 -66l-92 -87l166 -224c34 -46 55 -62 91 -65l18 -1
c4 0 5 -3 5 -6v-16c0 -3 -2 -5 -5 -5z" />
    <glyph glyph-name="l" unicode="l" horiz-adv-x="277" 
d="M266 0h-252c-2 0 -4 2 -4 5v16c0 3 1 5 4 6l54 10c19 3 27 11 27 38v605c0 79 -14 82 -65 85l-18 1c-4 0 -5 3 -5 6v16c0 3 2 5 4 5h170c2 0 4 -2 4 -5v-675c0 -69 14 -80 57 -84l23 -2c4 0 5 -3 5 -6v-16c0 -3 -2 -5 -4 -5z" />
    <glyph glyph-name="m" unicode="m" horiz-adv-x="902" 
d="M896 0h-235c-2 0 -4 2 -4 5v16c0 3 1 5 4 6l39 9c19 4 27 12 27 39v238c0 101 -22 146 -89 146c-45 0 -91 -30 -118 -79c-12 -21 -19 -43 -19 -71v-196c0 -69 14 -81 65 -85l13 -1c4 0 5 -3 5 -6v-16c0 -3 -2 -5 -4 -5h-235c-2 0 -4 2 -4 5v16c0 3 1 5 4 6l39 9
c19 4 27 12 27 39v238c0 101 -22 146 -89 146c-45 0 -91 -30 -118 -79c-13 -23 -19 -48 -19 -80v-187c0 -69 14 -81 60 -85l13 -1c4 0 5 -3 5 -6v-16c0 -3 -2 -5 -4 -5h-243c-2 0 -4 2 -4 5v16c0 3 1 5 4 6l52 10c19 4 27 11 27 38v312c0 79 -14 82 -65 85l-18 1
c-4 0 -5 3 -5 6v16c0 3 2 5 4 5h158c2 0 4 -2 4 -5l4 -76l2 -1c45 61 99 94 165 94c70 0 119 -32 144 -104c50 73 106 104 172 104c69 0 121 -31 144 -103c8 -26 13 -61 13 -110v-186c0 -69 14 -81 65 -85l13 -1c4 0 5 -3 5 -6v-16c0 -3 -2 -5 -4 -5z" />
    <glyph glyph-name="n" unicode="n" horiz-adv-x="612" 
d="M606 0h-235c-2 0 -4 2 -4 5v16c0 3 1 5 4 6l39 9c19 4 27 12 27 39v238c0 106 -38 146 -103 146c-53 0 -100 -33 -130 -79c-15 -22 -19 -48 -19 -80v-187c0 -69 14 -81 60 -85l13 -1c4 0 5 -3 5 -6v-16c0 -3 -2 -5 -4 -5h-243c-2 0 -4 2 -4 5v16c0 3 1 5 4 6l52 10
c19 4 27 11 27 38v312c0 79 -14 82 -65 85l-18 1c-4 0 -5 3 -5 6v16c0 3 2 5 4 5h158c2 0 4 -2 4 -5l4 -76l2 -1c47 58 105 94 172 94c78 0 139 -34 164 -113c8 -24 12 -52 12 -105v-181c0 -69 14 -81 65 -85l13 -1c4 0 5 -3 5 -6v-16c0 -3 -2 -5 -4 -5z" />
    <glyph glyph-name="o" unicode="o" horiz-adv-x="561" 
d="M281 -12c-135 0 -236 107 -236 262s101 262 236 262s235 -107 235 -262s-100 -262 -235 -262zM281 31c85 0 140 73 140 219s-55 219 -140 219s-141 -73 -141 -219s56 -219 141 -219z" />
    <glyph glyph-name="p" unicode="p" horiz-adv-x="592" 
d="M180 255v-59c0 -113 73 -160 135 -160c88 0 138 94 138 217c0 133 -43 208 -129 208c-64 0 -144 -65 -144 -206zM264 -256h-258c-2 0 -4 2 -4 5v16c0 3 1 5 4 6l57 9c19 3 27 12 27 39v568c0 79 -14 82 -62 85l-18 1c-4 0 -5 3 -5 6v16c0 3 2 5 4 5h153c2 0 4 -2 4 -5
l4 -87h2c42 73 98 104 170 104c126 0 205 -100 205 -255c0 -160 -92 -269 -229 -269c-46 0 -95 19 -132 50c-3 2 -6 0 -6 -4v-177c0 -69 14 -80 60 -84l23 -2c4 0 5 -3 5 -6v-16c0 -3 -2 -5 -4 -5z" />
    <glyph glyph-name="q" unicode="q" horiz-adv-x="577" 
d="M412 245v59c0 113 -73 160 -135 160c-88 0 -138 -94 -138 -217c0 -133 43 -208 129 -208c64 0 144 65 144 206zM586 -256h-258c-2 0 -4 2 -4 5v16c0 3 1 5 4 6l57 9c19 3 27 12 27 39v234c0 8 -4 7 -7 4c-40 -43 -87 -69 -145 -69c-132 0 -215 100 -215 255
c0 160 89 269 227 269c59 0 120 -26 168 -73c2 -2 4 -1 5 1l37 60c2 3 3 4 6 4h10c3 0 4 -1 4 -4v-643c0 -69 14 -80 60 -84l23 -2c4 0 5 -3 5 -6v-16c0 -3 -2 -5 -4 -5z" />
    <glyph glyph-name="r" unicode="r" horiz-adv-x="455" 
d="M269 0h-253c-2 0 -4 2 -4 5v16c0 3 1 5 4 6l52 10c19 3 27 11 27 38v312c0 79 -14 82 -65 85l-18 1c-4 0 -5 3 -5 6v16c0 3 2 5 4 5h158c2 0 4 -2 4 -5l4 -78l2 -1c44 67 100 96 159 96c47 0 102 -26 102 -83c0 -39 -24 -63 -56 -63s-56 25 -56 51c0 18 6 29 6 36
c0 9 -17 10 -22 10c-53 0 -127 -64 -127 -190v-145c0 -89 6 -95 67 -100l16 -1c4 0 5 -3 5 -6v-16c0 -3 -2 -5 -4 -5z" />
    <glyph glyph-name="s" unicode="s" horiz-adv-x="473" 
d="M72 -7h-17c-3 0 -4 1 -4 4l-1 182c0 5 3 6 7 6h15c5 0 8 -1 9 -7c6 -26 15 -53 23 -69c28 -55 80 -75 143 -75c68 0 112 42 112 90c0 60 -68 77 -144 101c-79 25 -155 63 -155 149c0 94 78 138 160 138c59 0 103 -15 132 -31c6 -3 12 -6 14 5l5 18c1 3 2 4 5 4h17
c3 0 4 -1 4 -4v-161c0 -5 -3 -6 -7 -6h-15c-5 0 -8 1 -9 7c-3 17 -13 46 -20 59c-27 50 -75 64 -122 64c-60 0 -90 -30 -90 -70c0 -46 44 -67 127 -93c80 -25 170 -66 170 -159c0 -96 -79 -157 -181 -157c-79 0 -129 24 -152 38c-6 4 -11 6 -14 -5l-7 -24c-1 -3 -2 -4 -5 -4
z" />
    <glyph glyph-name="t" unicode="t" horiz-adv-x="386" 
d="M358 160v-24c0 -88 -33 -151 -124 -151c-68 0 -112 40 -129 101c-5 19 -8 41 -8 84v285h-80c-4 0 -7 3 -7 7v31c0 4 3 7 7 7h21c63 0 77 16 87 87l8 60c1 8 4 12 13 12h29c9 0 12 -3 12 -11v-148h139c4 0 7 -3 7 -7v-31c0 -4 -3 -7 -7 -7h-139v-308
c0 -68 18 -113 64 -113c38 0 63 26 63 101v29c0 10 3 12 9 12h20c11 0 15 -2 15 -16z" />
    <glyph glyph-name="u" unicode="u" horiz-adv-x="603" 
d="M597 0h-159c-2 0 -4 2 -4 5l-5 76l-2 1c-46 -58 -102 -94 -167 -94c-76 0 -136 34 -160 113c-8 24 -12 52 -12 105v181c0 69 -14 81 -65 85l-13 1c-4 0 -5 3 -5 6v16c0 3 2 5 4 5h166c2 0 4 -2 4 -5v-308c0 -106 34 -146 97 -146c52 0 97 33 127 79c15 22 19 48 19 80
v187c0 69 -14 81 -60 85l-13 1c-4 0 -5 3 -5 6v16c0 3 2 5 4 5h161c2 0 4 -2 4 -5v-382c0 -79 14 -82 65 -85l18 -1c4 0 5 -3 5 -6v-16c0 -3 -2 -5 -4 -5z" />
    <glyph glyph-name="v" unicode="v" horiz-adv-x="561" 
d="M298 0h-36c-6 0 -8 2 -10 7l-160 386c-25 61 -30 74 -71 79l-8 1c-5 1 -6 3 -6 6v16c0 3 2 5 5 5h216c3 0 6 -2 6 -5v-16c0 -3 -1 -5 -5 -6l-31 -5c-27 -4 -36 -20 -24 -50l123 -314h2l119 304c5 14 9 27 9 36c0 19 -13 25 -38 27l-24 2c-5 0 -6 3 -6 6v16c0 3 2 5 5 5
h185c3 0 5 -2 5 -5v-16c0 -3 -1 -5 -5 -6l-21 -3c-25 -4 -32 -15 -45 -46l-175 -417c-2 -5 -4 -7 -10 -7z" />
    <glyph glyph-name="w" unicode="w" horiz-adv-x="799" 
d="M580 0h-53c-6 0 -8 2 -10 7l-115 339h-2l-120 -339c-2 -5 -4 -7 -10 -7h-53c-6 0 -8 2 -10 7l-123 386c-20 63 -29 74 -70 80c-5 1 -6 3 -6 6v16c0 3 2 5 5 5h207c3 0 6 -2 6 -5v-16c0 -3 -1 -5 -5 -6l-31 -4c-27 -4 -35 -20 -26 -51l95 -316h2l135 391c2 5 4 7 10 7h23
c6 0 8 -2 10 -7l127 -384h2l91 299c4 14 7 27 7 36c0 19 -15 25 -38 27l-21 2c-5 0 -6 3 -6 6v16c0 3 2 5 5 5h180c3 0 5 -2 5 -5v-16c0 -3 -1 -5 -5 -6l-17 -3c-28 -5 -35 -15 -45 -46l-134 -417c-2 -5 -4 -7 -10 -7z" />
    <glyph glyph-name="x" unicode="x" horiz-adv-x="576" 
d="M559 0h-218c-3 0 -4 2 -4 5v13c0 3 0 6 5 6l13 1c40 2 47 19 9 68l-84 114l-79 -96c-53 -63 -43 -82 -11 -85l12 -1c5 0 6 -3 6 -6v-14c0 -3 -2 -5 -5 -5h-186c-3 0 -5 2 -5 5v14c0 3 1 6 5 6l9 1c25 3 42 12 105 87l115 137l-101 141c-46 64 -56 75 -95 82l-18 3
c-4 1 -5 3 -5 6v13c0 3 2 5 5 5h218c3 0 4 -2 4 -5v-13c0 -3 0 -6 -5 -6l-13 -1c-40 -2 -45 -17 -9 -68l72 -101l66 83c52 64 43 82 11 85l-12 1c-5 0 -6 3 -6 6v14c0 3 2 5 5 5h186c3 0 5 -2 5 -5v-14c0 -3 -1 -6 -5 -6l-9 -1c-35 -4 -48 -17 -105 -87l-102 -125l113 -153
c47 -63 54 -75 95 -82l18 -3c4 -1 5 -3 5 -6v-13c0 -3 -2 -5 -5 -5z" />
    <glyph glyph-name="y" unicode="y" horiz-adv-x="578" 
d="M256 -39l18 44l-172 388c-26 60 -33 74 -74 79l-8 1c-5 1 -6 3 -6 6v16c0 3 2 5 5 5h218c3 0 6 -2 6 -5v-16c0 -3 -1 -5 -5 -6l-28 -5c-27 -4 -36 -20 -24 -50l129 -311l114 301c5 14 9 27 9 36c0 19 -15 25 -38 27l-21 2c-5 0 -6 3 -6 6v16c0 3 2 5 5 5h185
c3 0 5 -2 5 -5v-16c0 -3 -1 -5 -5 -6l-24 -4c-25 -4 -32 -14 -45 -45l-189 -476c-41 -104 -87 -179 -168 -179c-67 0 -120 47 -120 106c0 35 20 65 60 65c25 0 51 -17 51 -51c0 -33 -28 -45 -28 -55c0 -12 22 -18 39 -18c48 0 81 56 117 145z" />
    <glyph glyph-name="z" unicode="z" horiz-adv-x="527" 
d="M470 0h-440v37l316 396c13 17 5 22 -12 22h-135c-74 0 -88 -19 -97 -78l-8 -55c-1 -5 -4 -6 -7 -6h-27c-4 0 -7 1 -7 6l2 167c0 6 5 11 11 11h406v-36l-320 -395c-14 -17 -6 -24 12 -24h171c74 0 91 19 97 78l9 84c0 5 4 6 7 6h28c4 0 7 -1 7 -6l-2 -196
c0 -6 -5 -11 -11 -11z" />
    <glyph glyph-name="braceleft" unicode="{" horiz-adv-x="340" 
d="M326 -187h-57c-95 0 -179 43 -162 183l25 200c10 79 -16 127 -67 128h-45c-4 0 -5 3 -5 6v16c0 3 1 6 5 6h45c51 1 77 49 67 128l-25 200c-17 140 67 183 162 183h57c2 0 4 -2 4 -5v-23c0 -3 -1 -6 -5 -6h-51c-61 0 -90 -39 -77 -142l24 -190c12 -96 -42 -146 -108 -159
c66 -13 120 -64 108 -159l-24 -190c-13 -103 16 -142 77 -142h51c4 0 5 -3 5 -6v-23c0 -3 -2 -5 -4 -5z" />
    <glyph glyph-name="bar" unicode="|" horiz-adv-x="288" 
d="M171 -207h-54c-4 0 -7 3 -7 7v1076c0 4 3 7 7 7h54c4 0 7 -3 7 -7v-1076c0 -4 -3 -7 -7 -7z" />
    <glyph glyph-name="braceright" unicode="}" horiz-adv-x="340" 
d="M71 -187h-57c-2 0 -4 2 -4 5v23c0 3 1 6 5 6h51c61 0 90 39 77 142l-24 190c-12 95 42 146 108 159c-66 13 -120 63 -108 159l24 190c13 103 -16 142 -77 142h-51c-4 0 -5 3 -5 6v23c0 3 2 5 4 5h57c95 0 179 -43 162 -183l-25 -200c-10 -79 16 -127 67 -128h45
c4 0 5 -3 5 -6v-16c0 -3 -1 -6 -5 -6h-45c-51 -1 -77 -49 -67 -128l25 -200c17 -140 -67 -183 -162 -183z" />
    <glyph glyph-name="asciitilde" unicode="~" horiz-adv-x="582" 
d="M512 474h13c10 0 12 -2 12 -12c0 -73 -33 -164 -137 -164c-99 0 -150 109 -233 109c-41 0 -77 -25 -85 -92c-1 -11 -4 -12 -12 -12h-14c-9 0 -11 2 -11 12c0 73 32 164 137 164c99 0 150 -109 233 -109c41 0 77 25 85 92c1 11 4 12 12 12z" />
    <glyph glyph-name="uni00A0" unicode="&#xa0;" horiz-adv-x="230" 
 />
    <glyph glyph-name="exclamdown" unicode="&#xa1;" horiz-adv-x="206" 
d="M47 -219l39 489c1 8 8 9 18 9s17 -1 18 -9l39 -489c4 -46 -17 -68 -57 -68s-61 22 -57 68zM168 449c0 -35 -28 -63 -63 -63s-63 28 -63 63s28 63 63 63s63 -28 63 -63z" />
    <glyph glyph-name="cent" unicode="&#xa2;" horiz-adv-x="500" 
d="M294 -124h-28c-4 0 -7 3 -7 7v106c-129 11 -214 114 -214 261s87 250 214 261v95c0 4 3 7 7 7h28c4 0 7 -3 7 -7v-95c94 -6 165 -53 165 -116c0 -36 -26 -62 -57 -62s-57 26 -57 57c0 26 13 43 13 53c0 3 -1 5 -6 8c-13 8 -31 15 -58 17v-425c58 2 104 29 141 75
c2 3 5 4 9 1l20 -16c3 -3 3 -6 0 -10c-47 -65 -98 -99 -170 -104v-106c0 -4 -3 -7 -7 -7zM259 47v419c-72 -14 -119 -92 -119 -202c0 -129 48 -200 119 -217z" />
    <glyph glyph-name="sterling" unicode="&#xa3;" horiz-adv-x="573" 
d="M501 183h21c4 0 7 -1 7 -6c0 -161 -76 -189 -130 -189c-55 0 -121 25 -175 59c-26 -40 -58 -59 -97 -59c-44 0 -87 19 -90 76c-2 47 35 81 82 81c25 0 45 -8 71 -20c6 82 -21 146 -46 215h-102c-4 0 -7 3 -7 7v28c0 4 3 7 7 7h87c-15 43 -26 89 -26 144
c0 116 73 197 200 197c102 0 188 -49 191 -142c1 -42 -23 -89 -69 -89c-29 0 -56 22 -56 54c0 30 16 46 46 57c13 5 14 14 9 23c-23 37 -67 51 -111 51c-72 0 -125 -43 -125 -149c0 -56 10 -102 22 -146h169c4 0 7 -3 7 -7v-28c0 -4 -3 -7 -7 -7h-156
c18 -61 35 -120 29 -195c-1 -13 -4 -31 -8 -43c53 -21 100 -38 160 -38c49 0 85 28 90 113c0 5 4 6 7 6zM184 72c-27 15 -48 27 -69 27s-39 -13 -39 -34c0 -25 25 -39 49 -39c28 0 47 14 59 46z" />
    <glyph glyph-name="yen" unicode="&#xa5;" horiz-adv-x="667" 
d="M462 0h-268c-3 0 -5 2 -5 5v18c0 3 1 5 5 6l61 9c19 3 27 11 27 38v103h-188c-4 0 -7 3 -7 7v28c0 4 3 7 7 7h188v102h-188c-4 0 -7 3 -7 7v28c0 4 3 7 7 7h170l-143 219c-43 66 -52 82 -88 85l-21 2c-4 0 -5 3 -5 6v18c0 3 2 5 5 5h234c3 0 4 -2 4 -5v-18
c0 -3 0 -6 -5 -6l-12 -1c-37 -3 -54 -15 -21 -68l133 -215l143 217c33 51 24 64 -10 66l-15 1c-5 0 -6 3 -6 6v18c0 3 2 5 5 5h193c3 0 5 -2 5 -5v-18c0 -3 -1 -5 -5 -6l-20 -3c-36 -5 -50 -25 -94 -90l-147 -213h176c4 0 7 -3 7 -7v-28c0 -4 -3 -7 -7 -7h-196v-102h196
c4 0 7 -3 7 -7v-28c0 -4 -3 -7 -7 -7h-196v-54c0 -91 14 -93 65 -95l22 -1c5 0 6 -3 6 -6v-18c0 -3 -2 -5 -5 -5z" />
    <glyph glyph-name="brokenbar" unicode="&#xa6;" horiz-adv-x="288" 
d="M171 -207h-54c-4 0 -7 3 -7 7v456c0 4 3 7 7 7h54c4 0 7 -3 7 -7v-456c0 -4 -3 -7 -7 -7zM171 413h-54c-4 0 -7 3 -7 7v456c0 4 3 7 7 7h54c4 0 7 -3 7 -7v-456c0 -4 -3 -7 -7 -7z" />
    <glyph glyph-name="section" unicode="&#xa7;" 
d="M540 0h-500v750h500v-750zM90 93l171 281l-171 281v-562zM490 93v562l-171 -281zM290 421l170 279h-340zM458 50l-168 276l-169 -276h337z" />
    <glyph glyph-name="dieresis" unicode="&#xa8;" horiz-adv-x="560" 
d="M175 583c-29 0 -53 24 -53 53s24 53 53 53s53 -24 53 -53s-24 -53 -53 -53zM385 583c-29 0 -53 24 -53 53s24 53 53 53s53 -24 53 -53s-24 -53 -53 -53z" />
    <glyph glyph-name="copyright" unicode="&#xa9;" horiz-adv-x="894" 
d="M620 241l21 -18c1 -1 0 -3 -4 -8c-43 -59 -103 -97 -178 -97c-129 0 -222 105 -222 248c0 144 92 250 216 250c47 0 86 -17 123 -42c5 -3 10 -4 12 2l9 28c1 3 1 5 7 5h13c6 0 6 -2 6 -7v-172c0 -8 -4 -8 -8 -8h-12c-5 0 -8 0 -10 7c-23 89 -63 145 -137 145
c-86 0 -141 -82 -141 -198c0 -131 63 -209 151 -209c60 0 109 29 143 72c3 4 6 5 11 2zM447 -12c-214 0 -387 173 -387 387s173 387 387 387s387 -173 387 -387s-173 -387 -387 -387zM447 26c192 0 347 155 347 349s-155 349 -347 349s-347 -155 -347 -349
s155 -349 347 -349z" />
    <glyph glyph-name="ordfeminine" unicode="&#xaa;" horiz-adv-x="335" 
d="M201 590v24c0 4 -1 5 -8 5c-59 -4 -105 -19 -105 -69c0 -26 17 -44 44 -44c33 0 56 29 64 52c2 6 5 16 5 32zM310 543v-12c0 -31 -12 -59 -46 -59c-25 0 -47 18 -56 50c-20 -33 -48 -50 -87 -50c-44 0 -86 25 -86 76c0 70 72 93 160 98c4 0 5 4 5 10v14
c0 44 -14 67 -52 67c-11 0 -24 -2 -32 -8c-4 -3 -3 -7 -1 -11c2 -5 5 -12 5 -21c0 -18 -15 -33 -33 -33s-33 15 -33 36c0 38 46 64 95 64c71 0 108 -33 108 -116v-105c0 -30 6 -41 16 -41s15 10 15 29v11c0 8 1 9 6 9h9c6 0 7 -1 7 -8z" />
    <glyph glyph-name="guillemotleft" unicode="&#xab;" horiz-adv-x="469" 
d="M243 45h-28c-6 0 -9 2 -13 7l-157 195c-5 6 -6 13 0 21l157 196c4 5 7 7 13 7h28c4 0 6 -3 4 -7l-126 -206l126 -206c2 -3 2 -7 -4 -7zM423 45h-28c-6 0 -9 2 -13 7l-157 195c-5 6 -6 13 0 21l157 196c4 5 7 7 13 7h28c4 0 6 -3 4 -7l-126 -206l126 -206c2 -3 2 -7 -4 -7
z" />
    <glyph glyph-name="logicalnot" unicode="&#xac;" 
d="M540 0h-500v750h500v-750zM90 93l171 281l-171 281v-562zM490 93v562l-171 -281zM290 421l170 279h-340zM458 50l-168 276l-169 -276h337z" />
    <glyph glyph-name="registered" unicode="&#xae;" horiz-adv-x="493" 
d="M356 469v-13c-4 -2 -12 -4 -19 -4c-36 0 -43 19 -45 55c-2 38 -15 56 -47 56h-21v-58c0 -29 2 -34 20 -34h4c4 0 4 -2 4 -4v-8c0 -2 -1 -3 -4 -3h-85c-1 0 -3 1 -3 3v8c0 3 1 4 3 4l16 2c4 1 6 3 6 10v156c0 30 -2 32 -17 32h-6c-3 0 -4 2 -4 4v7c0 3 1 4 4 4h81
c47 0 81 -14 81 -56c0 -26 -16 -44 -40 -55c25 -7 40 -23 43 -55c3 -28 1 -53 19 -53c4 0 8 1 10 2zM247 369c-111 0 -192 91 -192 202s81 201 192 201s191 -90 191 -201s-80 -202 -191 -202zM247 396c96 0 163 78 163 175s-67 174 -163 174s-164 -77 -164 -174
s68 -175 164 -175zM224 584h16c29 0 44 15 44 43c0 31 -19 41 -48 41c-10 0 -12 -4 -12 -20v-64z" />
    <glyph glyph-name="macron" unicode="&#xaf;" horiz-adv-x="560" 
d="M437 598h-315c-4 0 -7 3 -7 7v40c0 4 3 7 7 7h315c4 0 7 -3 7 -7v-40c0 -4 -3 -7 -7 -7z" />
    <glyph glyph-name="degree" unicode="&#xb0;" horiz-adv-x="294" 
d="M147 558c-57 0 -102 45 -102 102s45 102 102 102s102 -45 102 -102s-45 -102 -102 -102zM147 592c36 0 64 30 64 68s-28 68 -64 68s-64 -30 -64 -68s28 -68 64 -68z" />
    <glyph glyph-name="plusminus" unicode="&#xb1;" horiz-adv-x="624" 
d="M334 117h-44c-4 0 -7 3 -7 7v226h-226c-4 0 -7 3 -7 7v44c0 4 3 7 7 7h226v226c0 4 3 7 7 7h44c4 0 7 -3 7 -7v-226h226c4 0 7 -3 7 -7v-44c0 -4 -3 -7 -7 -7h-226v-226c0 -4 -3 -7 -7 -7zM559 0h-492c-4 0 -7 3 -7 7v44c0 4 3 7 7 7h492c4 0 7 -3 7 -7v-44
c0 -4 -3 -7 -7 -7z" />
    <glyph glyph-name="twosuperior" unicode="&#xb2;" 
d="M540 0h-500v750h500v-750zM90 93l171 281l-171 281v-562zM490 93v562l-171 -281zM290 421l170 279h-340zM458 50l-168 276l-169 -276h337z" />
    <glyph glyph-name="threesuperior" unicode="&#xb3;" 
d="M540 0h-500v750h500v-750zM90 93l171 281l-171 281v-562zM490 93v562l-171 -281zM290 421l170 279h-340zM458 50l-168 276l-169 -276h337z" />
    <glyph glyph-name="acute" unicode="&#xb4;" horiz-adv-x="560" 
d="M396 653l-192 -83c-6 -2 -10 0 -15 9c-5 8 -5 13 0 17l168 125c26 19 48 17 63 -10c14 -25 5 -45 -24 -58z" />
    <glyph glyph-name="mu" unicode="&#xb5;" 
d="M540 0h-500v750h500v-750zM90 93l171 281l-171 281v-562zM490 93v562l-171 -281zM290 421l170 279h-340zM458 50l-168 276l-169 -276h337z" />
    <glyph glyph-name="mu" unicode="&#x3bc;" 
d="M540 0h-500v750h500v-750zM90 93l171 281l-171 281v-562zM490 93v562l-171 -281zM290 421l170 279h-340zM458 50l-168 276l-169 -276h337z" />
    <glyph glyph-name="paragraph" unicode="&#xb6;" horiz-adv-x="589" 
d="M462 -176h-44c-4 0 -7 3 -7 7v862c0 4 -3 7 -7 7h-100c-4 0 -7 -3 -7 -7v-862c0 -4 -3 -7 -7 -7h-44c-4 0 -7 3 -7 7v571h-27c-86 0 -160 49 -160 174s74 174 160 174h333c2 0 4 -2 4 -5v-16c0 -3 -1 -6 -5 -6l-18 -1c-41 -2 -57 -6 -57 -85v-806c0 -4 -3 -7 -7 -7z" />
    <glyph glyph-name="periodcentered" unicode="&#xb7;" horiz-adv-x="206" 
d="M103 288c-38 0 -68 30 -68 68s30 68 68 68s68 -30 68 -68s-30 -68 -68 -68z" />
    <glyph glyph-name="cedilla" unicode="&#xb8;" horiz-adv-x="560" 
d="M237 -103l-8 8c-2 2 -3 3 -1 8l45 99c1 3 4 6 9 4l16 -5c4 -1 5 -4 4 -7l-25 -74c6 1 12 1 20 1c48 0 110 -25 110 -86s-52 -94 -117 -94c-47 0 -81 13 -106 29c-5 3 -5 6 2 19s9 13 15 10c19 -9 51 -18 79 -18c43 0 71 22 71 58c0 33 -30 51 -68 51c-14 0 -25 -2 -38 -5
c-4 -1 -7 1 -8 2z" />
    <glyph glyph-name="onesuperior" unicode="&#xb9;" 
d="M540 0h-500v750h500v-750zM90 93l171 281l-171 281v-562zM490 93v562l-171 -281zM290 421l170 279h-340zM458 50l-168 276l-169 -276h337z" />
    <glyph glyph-name="ordmasculine" unicode="&#xba;" horiz-adv-x="327" 
d="M164 472c-76 0 -132 60 -132 146s56 146 132 146c75 0 131 -60 131 -146s-56 -146 -131 -146zM164 500c43 0 73 39 73 118s-30 118 -73 118c-44 0 -74 -39 -74 -118s30 -118 74 -118z" />
    <glyph glyph-name="guillemotright" unicode="&#xbb;" horiz-adv-x="469" 
d="M74 45h-28c-6 0 -6 4 -4 7l126 206l-126 206c-2 4 0 7 4 7h28c6 0 9 -2 13 -7l157 -196c6 -8 5 -15 0 -21l-157 -195c-4 -5 -7 -7 -13 -7zM254 45h-28c-6 0 -6 4 -4 7l126 206l-126 206c-2 4 0 7 4 7h28c6 0 9 -2 13 -7l157 -196c6 -8 5 -15 0 -21l-157 -195
c-4 -5 -7 -7 -13 -7z" />
    <glyph glyph-name="onequarter" unicode="&#xbc;" 
d="M540 0h-500v750h500v-750zM90 93l171 281l-171 281v-562zM490 93v562l-171 -281zM290 421l170 279h-340zM458 50l-168 276l-169 -276h337z" />
    <glyph glyph-name="onehalf" unicode="&#xbd;" 
d="M540 0h-500v750h500v-750zM90 93l171 281l-171 281v-562zM490 93v562l-171 -281zM290 421l170 279h-340zM458 50l-168 276l-169 -276h337z" />
    <glyph glyph-name="threequarters" unicode="&#xbe;" 
d="M540 0h-500v750h500v-750zM90 93l171 281l-171 281v-562zM490 93v562l-171 -281zM290 421l170 279h-340zM458 50l-168 276l-169 -276h337z" />
    <glyph glyph-name="questiondown" unicode="&#xbf;" horiz-adv-x="440" 
d="M407 -124c-3 -93 -85 -158 -177 -158c-134 0 -198 83 -198 164c0 177 232 191 193 379c-2 12 9 15 20 16c12 2 21 0 23 -11c51 -227 -148 -229 -148 -386c0 -73 56 -115 118 -115c30 0 56 8 76 22c18 12 54 54 21 66c-30 11 -50 26 -50 56c0 32 27 54 56 54
c46 0 67 -45 66 -87zM298 449c0 -35 -28 -63 -63 -63s-63 28 -63 63s28 63 63 63s63 -28 63 -63z" />
    <glyph glyph-name="Agrave" unicode="&#xc0;" horiz-adv-x="745" 
d="M737 0h-263c-3 0 -6 2 -6 5v18c0 3 1 5 5 6l51 7c27 4 37 18 26 48l-51 135c-2 5 -5 6 -9 6h-272c-4 0 -7 -1 -9 -6l-46 -125c-5 -14 -8 -27 -8 -36c0 -19 14 -24 39 -26l42 -3c5 0 6 -3 6 -6v-18c0 -3 -2 -5 -5 -5h-228c-3 0 -5 2 -5 5v18c0 3 1 5 5 6l32 5
c28 4 35 13 47 44l251 665c2 5 4 7 10 7h45c6 0 8 -2 10 -7l239 -634c23 -62 36 -75 82 -79l11 -1c5 0 6 -3 6 -6v-18c0 -3 -2 -5 -5 -5zM477 283l-122 335h-2l-121 -335c-1 -4 0 -6 4 -6h237c4 0 5 2 4 6zM460 800l-192 83c-29 13 -38 33 -24 58c15 27 37 29 63 10
l168 -125c5 -4 5 -9 0 -17c-5 -9 -9 -11 -15 -9z" />
    <glyph glyph-name="Aacute" unicode="&#xc1;" horiz-adv-x="741" 
d="M733 0h-263c-3 0 -6 2 -6 5v18c0 3 1 5 5 6l51 7c27 4 37 18 26 48l-51 135c-2 5 -5 6 -9 6h-272c-4 0 -7 -1 -9 -6l-46 -125c-5 -14 -8 -27 -8 -36c0 -19 14 -24 39 -26l42 -3c5 0 6 -3 6 -6v-18c0 -3 -2 -5 -5 -5h-228c-3 0 -5 2 -5 5v18c0 3 1 5 5 6l32 5
c28 4 35 13 47 44l251 665c2 5 4 7 10 7h45c6 0 8 -2 10 -7l239 -634c23 -62 36 -75 82 -79l11 -1c5 0 6 -3 6 -6v-18c0 -3 -2 -5 -5 -5zM473 283l-122 335h-2l-121 -335c-1 -4 0 -6 4 -6h237c4 0 5 2 4 6zM466 883l-192 -83c-6 -2 -10 0 -15 9c-5 8 -5 13 0 17l168 125
c26 19 48 17 63 -10c14 -25 5 -45 -24 -58z" />
    <glyph glyph-name="Acircumflex" unicode="&#xc2;" horiz-adv-x="745" 
d="M737 0h-263c-3 0 -6 2 -6 5v18c0 3 1 5 5 6l51 7c27 4 37 18 26 48l-51 135c-2 5 -5 6 -9 6h-272c-4 0 -7 -1 -9 -6l-46 -125c-5 -14 -8 -27 -8 -36c0 -19 14 -24 39 -26l42 -3c5 0 6 -3 6 -6v-18c0 -3 -2 -5 -5 -5h-228c-3 0 -5 2 -5 5v18c0 3 1 5 5 6l32 5
c28 4 35 13 47 44l251 665c2 5 4 7 10 7h45c6 0 8 -2 10 -7l239 -634c23 -62 36 -75 82 -79l11 -1c5 0 6 -3 6 -6v-18c0 -3 -2 -5 -5 -5zM477 283l-122 335h-2l-121 -335c-1 -4 0 -6 4 -6h237c4 0 5 2 4 6zM527 782l-153 106l-153 -106c-6 -4 -10 -1 -16 7c-6 7 -7 13 -2 18
l140 143c10 11 21 11 31 11s21 0 31 -11l140 -143c5 -5 4 -11 -2 -18c-6 -8 -10 -11 -16 -7z" />
    <glyph glyph-name="Atilde" unicode="&#xc3;" horiz-adv-x="745" 
d="M737 0h-263c-3 0 -6 2 -6 5v18c0 3 1 5 5 6l51 7c27 4 37 18 26 48l-51 135c-2 5 -5 6 -9 6h-272c-4 0 -7 -1 -9 -6l-46 -125c-5 -14 -8 -27 -8 -36c0 -19 14 -24 39 -26l42 -3c5 0 6 -3 6 -6v-18c0 -3 -2 -5 -5 -5h-228c-3 0 -5 2 -5 5v18c0 3 1 5 5 6l32 5
c28 4 35 13 47 44l251 665c2 5 4 7 10 7h45c6 0 8 -2 10 -7l239 -634c23 -62 36 -75 82 -79l11 -1c5 0 6 -3 6 -6v-18c0 -3 -2 -5 -5 -5zM477 283l-122 335h-2l-121 -335c-1 -4 0 -6 4 -6h237c4 0 5 2 4 6zM537 946l11 -2c7 -1 9 -4 8 -11c-7 -54 -31 -117 -105 -117
c-70 0 -104 75 -155 75c-26 0 -51 -13 -63 -62c-3 -10 -6 -10 -12 -9l-11 2c-7 1 -9 4 -8 11c7 54 31 117 105 117c70 0 104 -75 155 -75c26 0 51 13 63 62c3 10 6 10 12 9z" />
    <glyph glyph-name="Adieresis" unicode="&#xc4;" horiz-adv-x="745" 
d="M737 0h-263c-3 0 -6 2 -6 5v18c0 3 1 5 5 6l51 7c27 4 37 18 26 48l-51 135c-2 5 -5 6 -9 6h-272c-4 0 -7 -1 -9 -6l-46 -125c-5 -14 -8 -27 -8 -36c0 -19 14 -24 39 -26l42 -3c5 0 6 -3 6 -6v-18c0 -3 -2 -5 -5 -5h-228c-3 0 -5 2 -5 5v18c0 3 1 5 5 6l32 5
c28 4 35 13 47 44l251 665c2 5 4 7 10 7h45c6 0 8 -2 10 -7l239 -634c23 -62 36 -75 82 -79l11 -1c5 0 6 -3 6 -6v-18c0 -3 -2 -5 -5 -5zM477 283l-122 335h-2l-121 -335c-1 -4 0 -6 4 -6h237c4 0 5 2 4 6zM269 813c-29 0 -53 24 -53 53s24 53 53 53s53 -24 53 -53
s-24 -53 -53 -53zM479 813c-29 0 -53 24 -53 53s24 53 53 53s53 -24 53 -53s-24 -53 -53 -53z" />
    <glyph glyph-name="Aring" unicode="&#xc5;" horiz-adv-x="745" 
d="M737 0h-263c-3 0 -6 2 -6 5v18c0 3 1 5 5 6l51 7c27 4 37 18 26 48l-51 135c-2 5 -5 6 -9 6h-272c-4 0 -7 -1 -9 -6l-46 -125c-5 -14 -8 -27 -8 -36c0 -19 14 -24 39 -26l42 -3c5 0 6 -3 6 -6v-18c0 -3 -2 -5 -5 -5h-228c-3 0 -5 2 -5 5v18c0 3 1 5 5 6l32 5
c28 4 35 13 47 44l254 674c-43 12 -74 50 -74 98c0 57 45 102 102 102s102 -45 102 -102c0 -47 -30 -85 -72 -98l243 -643c23 -62 36 -75 82 -79l11 -1c5 0 6 -3 6 -6v-18c0 -3 -2 -5 -5 -5zM477 283l-122 335h-2l-121 -335c-1 -4 0 -6 4 -6h237c4 0 5 2 4 6zM370 782
c36 0 64 30 64 68s-28 68 -64 68s-64 -30 -64 -68s28 -68 64 -68z" />
    <glyph glyph-name="AE" unicode="&#xc6;" horiz-adv-x="1060" 
d="M987 0h-543c-2 0 -4 2 -4 5v18c0 3 1 5 4 6l62 10c19 3 27 11 27 38v255c0 4 -3 7 -7 7h-244c-4 0 -7 -2 -9 -7l-103 -238c-6 -14 -8 -27 -8 -36c0 -19 14 -24 39 -26l33 -3c5 0 6 -3 6 -6v-18c0 -3 -2 -5 -5 -5h-225c-3 0 -5 2 -5 5v18c0 3 1 5 5 6l31 5
c28 5 38 13 52 44l246 552c29 65 11 84 -33 89l-18 2c-4 0 -5 3 -5 6v18c0 3 2 5 4 5h685c6 0 11 -5 11 -11l2 -206c0 -5 -3 -6 -7 -6h-30c-3 0 -7 1 -7 6l-8 94c-5 59 -23 75 -97 75h-147c-51 0 -60 -10 -60 -70v-234c0 -4 3 -7 7 -7h112c37 0 50 9 53 32l7 57c1 7 3 8 7 8
h24c3 0 5 -2 5 -4v-238c0 -2 -2 -4 -5 -4h-24c-4 0 -6 1 -7 8l-7 57c-3 23 -16 32 -53 32h-112c-4 0 -7 -3 -7 -7v-214c0 -60 9 -70 60 -70h162c74 0 92 16 97 75l8 99c0 5 4 6 7 6h30c4 0 7 -1 7 -6l-2 -211c0 -6 -5 -11 -11 -11zM533 398v248c0 49 -13 56 -42 56h-32
c-21 0 -29 -8 -35 -23l-122 -281c-2 -4 0 -7 4 -7h220c4 0 7 3 7 7z" />
    <glyph glyph-name="Ccedilla" unicode="&#xc7;" horiz-adv-x="694" 
d="M619 211l29 -12c4 -2 5 -5 3 -10c-46 -125 -149 -201 -265 -201c-10 0 -20 0 -29 1l-20 -59c6 1 12 1 20 1c48 0 110 -25 110 -86s-52 -94 -117 -94c-47 0 -81 13 -106 29c-5 3 -5 6 2 19s9 13 15 10c19 -9 51 -18 79 -18c43 0 71 22 71 58c0 33 -30 51 -68 51
c-14 0 -25 -2 -38 -5c-4 -1 -7 1 -8 2l-8 8c-2 2 -3 3 -1 8l37 81c-161 30 -270 180 -270 380c0 224 137 388 322 388c74 0 127 -24 183 -62c12 -8 23 -12 28 6l13 41c1 3 2 4 5 4h19c3 0 4 -1 4 -4v-262c0 -5 -3 -6 -7 -6h-20c-5 0 -7 1 -9 7c-37 138 -97 224 -211 224
c-134 0 -220 -134 -220 -321c0 -211 96 -337 235 -337c95 0 164 54 213 155c2 5 4 6 9 4z" />
    <glyph glyph-name="Egrave" unicode="&#xc8;" horiz-adv-x="659" 
d="M586 0h-563c-2 0 -4 2 -4 5v18c0 3 1 5 4 6l62 10c19 3 27 11 27 38v538c0 99 -14 100 -75 105l-18 1c-4 0 -5 3 -5 6v18c0 3 2 5 4 5h553c6 0 11 -5 11 -11l2 -216c0 -5 -3 -6 -7 -6h-30c-3 0 -7 1 -7 6l-8 104c-5 59 -23 75 -97 75h-167c-51 0 -60 -10 -60 -70v-209
c0 -4 3 -7 7 -7h132c37 0 50 9 53 32l7 57c1 7 3 8 7 8h24c3 0 5 -2 5 -4v-243c0 -2 -2 -4 -5 -4h-24c-4 0 -6 1 -7 8l-7 62c-3 23 -16 32 -53 32h-132c-4 0 -7 -3 -7 -7v-239c0 -60 9 -70 60 -70h182c74 0 92 16 97 75l8 104c0 5 4 6 7 6h30c4 0 7 -1 7 -6l-2 -216
c0 -6 -5 -11 -11 -11zM425 805l-192 83c-29 13 -38 33 -24 58c15 27 37 29 63 10l168 -125c5 -4 5 -9 0 -17c-5 -9 -9 -11 -15 -9z" />
    <glyph glyph-name="Eacute" unicode="&#xc9;" horiz-adv-x="659" 
d="M586 0h-563c-2 0 -4 2 -4 5v18c0 3 1 5 4 6l62 10c19 3 27 11 27 38v538c0 99 -14 100 -75 105l-18 1c-4 0 -5 3 -5 6v18c0 3 2 5 4 5h553c6 0 11 -5 11 -11l2 -216c0 -5 -3 -6 -7 -6h-30c-3 0 -7 1 -7 6l-8 104c-5 59 -23 75 -97 75h-167c-51 0 -60 -10 -60 -70v-209
c0 -4 3 -7 7 -7h132c37 0 50 9 53 32l7 57c1 7 3 8 7 8h24c3 0 5 -2 5 -4v-243c0 -2 -2 -4 -5 -4h-24c-4 0 -6 1 -7 8l-7 62c-3 23 -16 32 -53 32h-132c-4 0 -7 -3 -7 -7v-239c0 -60 9 -70 60 -70h182c74 0 92 16 97 75l8 104c0 5 4 6 7 6h30c4 0 7 -1 7 -6l-2 -216
c0 -6 -5 -11 -11 -11zM436 888l-192 -83c-6 -2 -10 0 -15 9c-5 8 -5 13 0 17l168 125c26 19 48 17 63 -10c14 -25 5 -45 -24 -58z" />
    <glyph glyph-name="Ecircumflex" unicode="&#xca;" horiz-adv-x="659" 
d="M586 0h-563c-2 0 -4 2 -4 5v18c0 3 1 5 4 6l62 10c19 3 27 11 27 38v538c0 99 -14 100 -75 105l-18 1c-4 0 -5 3 -5 6v18c0 3 2 5 4 5h553c6 0 11 -5 11 -11l2 -216c0 -5 -3 -6 -7 -6h-30c-3 0 -7 1 -7 6l-8 104c-5 59 -23 75 -97 75h-167c-51 0 -60 -10 -60 -70v-209
c0 -4 3 -7 7 -7h132c37 0 50 9 53 32l7 57c1 7 3 8 7 8h24c3 0 5 -2 5 -4v-243c0 -2 -2 -4 -5 -4h-24c-4 0 -6 1 -7 8l-7 62c-3 23 -16 32 -53 32h-132c-4 0 -7 -3 -7 -7v-239c0 -60 9 -70 60 -70h182c74 0 92 16 97 75l8 104c0 5 4 6 7 6h30c4 0 7 -1 7 -6l-2 -216
c0 -6 -5 -11 -11 -11zM482 807l-153 106l-153 -106c-6 -4 -10 -1 -16 7c-6 7 -7 13 -2 18l140 143c10 11 21 11 31 11s21 0 31 -11l140 -143c5 -5 4 -11 -2 -18c-6 -8 -10 -11 -16 -7z" />
    <glyph glyph-name="Edieresis" unicode="&#xcb;" horiz-adv-x="659" 
d="M586 0h-563c-2 0 -4 2 -4 5v18c0 3 1 5 4 6l62 10c19 3 27 11 27 38v538c0 99 -14 100 -75 105l-18 1c-4 0 -5 3 -5 6v18c0 3 2 5 4 5h553c6 0 11 -5 11 -11l2 -216c0 -5 -3 -6 -7 -6h-30c-3 0 -7 1 -7 6l-8 104c-5 59 -23 75 -97 75h-167c-51 0 -60 -10 -60 -70v-209
c0 -4 3 -7 7 -7h132c37 0 50 9 53 32l7 57c1 7 3 8 7 8h24c3 0 5 -2 5 -4v-243c0 -2 -2 -4 -5 -4h-24c-4 0 -6 1 -7 8l-7 62c-3 23 -16 32 -53 32h-132c-4 0 -7 -3 -7 -7v-239c0 -60 9 -70 60 -70h182c74 0 92 16 97 75l8 104c0 5 4 6 7 6h30c4 0 7 -1 7 -6l-2 -216
c0 -6 -5 -11 -11 -11zM224 818c-29 0 -53 24 -53 53s24 53 53 53s53 -24 53 -53s-24 -53 -53 -53zM434 818c-29 0 -53 24 -53 53s24 53 53 53s53 -24 53 -53s-24 -53 -53 -53z" />
    <glyph glyph-name="Igrave" unicode="&#xcc;" horiz-adv-x="320" 
d="M297 0h-274c-2 0 -4 2 -4 5v18c0 3 1 5 4 6l62 10c19 3 27 11 27 38v538c0 99 -14 102 -75 105l-18 1c-4 0 -5 3 -5 6v18c0 3 2 5 4 5h279c2 0 4 -2 4 -5v-18c0 -3 -1 -5 -4 -6l-62 -10c-19 -3 -27 -11 -27 -38v-538c0 -89 14 -100 75 -105l13 -1c4 0 5 -3 5 -6v-18
c0 -3 -2 -5 -4 -5zM266 800l-192 83c-29 13 -38 33 -24 58c15 27 37 29 63 10l168 -125c5 -4 5 -9 0 -17c-5 -9 -9 -11 -15 -9z" />
    <glyph glyph-name="Iacute" unicode="&#xcd;" horiz-adv-x="320" 
d="M297 0h-274c-2 0 -4 2 -4 5v18c0 3 1 5 4 6l62 10c19 3 27 11 27 38v538c0 99 -14 102 -75 105l-18 1c-4 0 -5 3 -5 6v18c0 3 2 5 4 5h279c2 0 4 -2 4 -5v-18c0 -3 -1 -5 -4 -6l-62 -10c-19 -3 -27 -11 -27 -38v-538c0 -89 14 -100 75 -105l13 -1c4 0 5 -3 5 -6v-18
c0 -3 -2 -5 -4 -5zM246 883l-192 -83c-6 -2 -10 0 -15 9c-5 8 -5 13 0 17l168 125c26 19 48 17 63 -10c14 -25 5 -45 -24 -58z" />
    <glyph glyph-name="Icircumflex" unicode="&#xce;" horiz-adv-x="320" 
d="M297 0h-274c-2 0 -4 2 -4 5v18c0 3 1 5 4 6l62 10c19 3 27 11 27 38v538c0 99 -14 102 -75 105l-18 1c-4 0 -5 3 -5 6v18c0 3 2 5 4 5h279c2 0 4 -2 4 -5v-18c0 -3 -1 -5 -4 -6l-62 -10c-19 -3 -27 -11 -27 -38v-538c0 -89 14 -100 75 -105l13 -1c4 0 5 -3 5 -6v-18
c0 -3 -2 -5 -4 -5zM313 802l-153 106l-153 -106c-6 -4 -10 -1 -16 7c-6 7 -7 13 -2 18l140 143c10 11 21 11 31 11s21 0 31 -11l140 -143c5 -5 4 -11 -2 -18c-6 -8 -10 -11 -16 -7z" />
    <glyph glyph-name="Idieresis" unicode="&#xcf;" horiz-adv-x="320" 
d="M297 0h-274c-2 0 -4 2 -4 5v18c0 3 1 5 4 6l62 10c19 3 27 11 27 38v538c0 99 -14 102 -75 105l-18 1c-4 0 -5 3 -5 6v18c0 3 2 5 4 5h279c2 0 4 -2 4 -5v-18c0 -3 -1 -5 -4 -6l-62 -10c-19 -3 -27 -11 -27 -38v-538c0 -89 14 -100 75 -105l13 -1c4 0 5 -3 5 -6v-18
c0 -3 -2 -5 -4 -5zM55 813c-29 0 -53 24 -53 53s24 53 53 53s53 -24 53 -53s-24 -53 -53 -53zM265 813c-29 0 -53 24 -53 53s24 53 53 53s53 -24 53 -53s-24 -53 -53 -53z" />
    <glyph glyph-name="Eth" unicode="&#xd0;" horiz-adv-x="756" 
d="M339 0h-297c-2 0 -4 2 -4 5v18c0 3 1 5 4 6l62 10c19 3 27 11 27 38v288h-114c-4 0 -7 3 -7 7v34c0 4 3 7 7 7h114v202c0 99 -14 100 -75 105l-18 1c-4 0 -5 3 -5 6v18c0 3 2 5 4 5h302c223 0 362 -128 362 -352s-135 -398 -362 -398zM292 48h47c166 0 254 147 254 339
c0 220 -99 315 -253 315h-38c-53 0 -75 -8 -75 -88v-201h160c4 0 7 -3 7 -7v-34c0 -4 -3 -7 -7 -7h-160v-249c0 -52 12 -68 65 -68z" />
    <glyph glyph-name="Ntilde" unicode="&#xd1;" horiz-adv-x="737" 
d="M631 0h-41c-5 0 -7 2 -9 5l-384 599c-12 19 -19 33 -19 33h-1v-502c0 -99 15 -100 75 -105l18 -1c4 0 5 -3 5 -6v-18c0 -3 -2 -5 -4 -5h-248c-3 0 -4 2 -4 5v18c0 3 0 5 4 6l62 10c19 3 27 11 27 38v538c0 99 -15 100 -75 105l-18 1c-5 0 -5 3 -5 6v18c0 3 1 5 4 5h188
c5 0 7 -2 9 -5l335 -521c12 -19 19 -33 19 -33h1v384c0 129 -15 140 -75 145l-18 1c-4 0 -5 3 -5 6v18c0 3 2 5 4 5h248c3 0 4 -2 4 -5v-18c0 -3 0 -5 -4 -6l-62 -10c-19 -3 -27 -11 -27 -38v-669c0 -3 -1 -4 -4 -4zM522 946l11 -2c7 -1 9 -4 8 -11
c-7 -54 -31 -117 -105 -117c-70 0 -104 75 -155 75c-26 0 -51 -13 -63 -62c-3 -10 -6 -10 -12 -9l-11 2c-7 1 -9 4 -8 11c7 54 31 117 105 117c70 0 104 -75 155 -75c26 0 51 13 63 62c3 10 6 10 12 9z" />
    <glyph glyph-name="Ograve" unicode="&#xd2;" horiz-adv-x="757" 
d="M382 42c128 0 212 114 212 319c0 230 -91 347 -220 347s-211 -111 -211 -322c0 -173 64 -344 219 -344zM378 -12c-196 0 -323 172 -323 386s127 388 323 388s324 -174 324 -388s-128 -386 -324 -386zM474 800l-192 83c-29 13 -38 33 -24 58c15 27 37 29 63 10l168 -125
c5 -4 5 -9 0 -17c-5 -9 -9 -11 -15 -9z" />
    <glyph glyph-name="Oacute" unicode="&#xd3;" horiz-adv-x="757" 
d="M382 42c128 0 212 114 212 319c0 230 -91 347 -220 347s-211 -111 -211 -322c0 -173 64 -344 219 -344zM378 -12c-196 0 -323 172 -323 386s127 388 323 388s324 -174 324 -388s-128 -386 -324 -386zM474 883l-192 -83c-6 -2 -10 0 -15 9c-5 8 -5 13 0 17l168 125
c26 19 48 17 63 -10c14 -25 5 -45 -24 -58z" />
    <glyph glyph-name="Ocircumflex" unicode="&#xd4;" horiz-adv-x="757" 
d="M382 42c128 0 212 114 212 319c0 230 -91 347 -220 347s-211 -111 -211 -322c0 -173 64 -344 219 -344zM378 -12c-196 0 -323 172 -323 386s127 388 323 388s324 -174 324 -388s-128 -386 -324 -386zM531 792l-153 106l-153 -106c-6 -4 -10 -1 -16 7c-6 7 -7 13 -2 18
l140 143c10 11 21 11 31 11s21 0 31 -11l140 -143c5 -5 4 -11 -2 -18c-6 -8 -10 -11 -16 -7z" />
    <glyph glyph-name="Otilde" unicode="&#xd5;" horiz-adv-x="757" 
d="M382 42c128 0 212 114 212 319c0 230 -91 347 -220 347s-211 -111 -211 -322c0 -173 64 -344 219 -344zM378 -12c-196 0 -323 172 -323 386s127 388 323 388s324 -174 324 -388s-128 -386 -324 -386zM536 946l11 -2c7 -1 9 -4 8 -11c-7 -54 -31 -117 -105 -117
c-70 0 -104 75 -155 75c-26 0 -51 -13 -63 -62c-3 -10 -6 -10 -12 -9l-11 2c-7 1 -9 4 -8 11c7 54 31 117 105 117c70 0 104 -75 155 -75c26 0 51 13 63 62c3 10 6 10 12 9z" />
    <glyph glyph-name="Odieresis" unicode="&#xd6;" horiz-adv-x="757" 
d="M382 42c128 0 212 114 212 319c0 230 -91 347 -220 347s-211 -111 -211 -322c0 -173 64 -344 219 -344zM378 -12c-196 0 -323 172 -323 386s127 388 323 388s324 -174 324 -388s-128 -386 -324 -386zM273 813c-29 0 -53 24 -53 53s24 53 53 53s53 -24 53 -53
s-24 -53 -53 -53zM483 813c-29 0 -53 24 -53 53s24 53 53 53s53 -24 53 -53s-24 -53 -53 -53z" />
    <glyph glyph-name="multiply" unicode="&#xd7;" horiz-adv-x="560" 
d="M524 125l-30 -30c-3 -3 -7 -3 -10 0l-204 204l-204 -204c-3 -3 -7 -3 -10 0l-30 30c-3 3 -3 7 0 10l204 204l-204 204c-3 3 -3 7 0 10l30 30c3 3 7 3 10 0l204 -204l204 204c3 3 7 3 10 0l30 -30c3 -3 3 -7 0 -10l-204 -204l204 -204c3 -3 3 -7 0 -10z" />
    <glyph glyph-name="Oslash" unicode="&#xd8;" horiz-adv-x="757" 
d="M183 -52h-46c-4 0 -6 3 -5 7l53 102c-82 70 -130 185 -130 317c0 214 127 388 323 388c56 0 107 -15 150 -40l38 73c2 5 4 7 8 7h46c4 0 6 -3 5 -7l-54 -104c83 -70 131 -186 131 -317c0 -214 -128 -386 -324 -386c-56 0 -106 14 -150 39l-37 -72c-2 -5 -4 -7 -8 -7z
M221 128l278 537c-34 29 -76 43 -125 43c-139 0 -211 -103 -211 -322c0 -100 16 -194 58 -258zM536 623l-278 -538c32 -28 72 -43 124 -43c138 0 212 101 212 319c0 118 -20 205 -58 262z" />
    <glyph glyph-name="Ugrave" unicode="&#xd9;" horiz-adv-x="763" 
d="M597 276v339c0 99 -14 100 -75 105l-12 1c-5 0 -6 3 -6 6v18c0 3 2 5 5 5h240c3 0 5 -2 5 -5v-18c0 -3 -1 -5 -5 -6l-61 -10c-19 -3 -27 -11 -27 -38v-396c0 -177 -84 -289 -280 -289c-161 0 -279 82 -279 274v353c0 99 -14 100 -75 105l-17 1c-5 0 -6 3 -6 6v18
c0 3 2 5 5 5h277c3 0 5 -2 5 -5v-18c0 -3 -1 -5 -5 -6l-62 -10c-19 -3 -26 -11 -26 -38v-409c0 -123 61 -214 197 -214c151 0 202 98 202 226zM477 800l-192 83c-29 13 -38 33 -24 58c15 27 37 29 63 10l168 -125c5 -4 5 -9 0 -17c-5 -9 -9 -11 -15 -9z" />
    <glyph glyph-name="Uacute" unicode="&#xda;" horiz-adv-x="763" 
d="M597 276v339c0 99 -14 100 -75 105l-12 1c-5 0 -6 3 -6 6v18c0 3 2 5 5 5h240c3 0 5 -2 5 -5v-18c0 -3 -1 -5 -5 -6l-61 -10c-19 -3 -27 -11 -27 -38v-396c0 -177 -84 -289 -280 -289c-161 0 -279 82 -279 274v353c0 99 -14 100 -75 105l-17 1c-5 0 -6 3 -6 6v18
c0 3 2 5 5 5h277c3 0 5 -2 5 -5v-18c0 -3 -1 -5 -5 -6l-62 -10c-19 -3 -26 -11 -26 -38v-409c0 -123 61 -214 197 -214c151 0 202 98 202 226zM515 883l-192 -83c-6 -2 -10 0 -15 9c-5 8 -5 13 0 17l168 125c26 19 48 17 63 -10c14 -25 5 -45 -24 -58z" />
    <glyph glyph-name="Ucircumflex" unicode="&#xdb;" horiz-adv-x="763" 
d="M597 276v339c0 99 -14 100 -75 105l-12 1c-5 0 -6 3 -6 6v18c0 3 2 5 5 5h240c3 0 5 -2 5 -5v-18c0 -3 -1 -5 -5 -6l-61 -10c-19 -3 -27 -11 -27 -38v-396c0 -177 -84 -289 -280 -289c-161 0 -279 82 -279 274v353c0 99 -14 100 -75 105l-17 1c-5 0 -6 3 -6 6v18
c0 3 2 5 5 5h277c3 0 5 -2 5 -5v-18c0 -3 -1 -5 -5 -6l-62 -10c-19 -3 -26 -11 -26 -38v-409c0 -123 61 -214 197 -214c151 0 202 98 202 226zM546 802l-153 106l-153 -106c-6 -4 -10 -1 -16 7c-6 7 -7 13 -2 18l140 143c10 11 21 11 31 11s21 0 31 -11l140 -143
c5 -5 4 -11 -2 -18c-6 -8 -10 -11 -16 -7z" />
    <glyph glyph-name="Udieresis" unicode="&#xdc;" horiz-adv-x="763" 
d="M597 276v339c0 99 -14 100 -75 105l-12 1c-5 0 -6 3 -6 6v18c0 3 2 5 5 5h240c3 0 5 -2 5 -5v-18c0 -3 -1 -5 -5 -6l-61 -10c-19 -3 -27 -11 -27 -38v-396c0 -177 -84 -289 -280 -289c-161 0 -279 82 -279 274v353c0 99 -14 100 -75 105l-17 1c-5 0 -6 3 -6 6v18
c0 3 2 5 5 5h277c3 0 5 -2 5 -5v-18c0 -3 -1 -5 -5 -6l-62 -10c-19 -3 -26 -11 -26 -38v-409c0 -123 61 -214 197 -214c151 0 202 98 202 226zM292 813c-29 0 -53 24 -53 53s24 53 53 53s53 -24 53 -53s-24 -53 -53 -53zM502 813c-29 0 -53 24 -53 53s24 53 53 53
s53 -24 53 -53s-24 -53 -53 -53z" />
    <glyph glyph-name="Yacute" unicode="&#xdd;" horiz-adv-x="739" 
d="M511 0h-292c-3 0 -5 2 -5 5v18c0 3 1 5 5 6l71 10c19 3 27 11 27 38v273l-186 284c-43 66 -52 80 -91 84l-28 3c-4 1 -5 3 -5 6v18c0 3 2 5 5 5h262c3 0 4 -2 4 -5v-18c0 -3 0 -6 -5 -6l-13 -1c-45 -3 -60 -15 -27 -68l151 -244l162 246c34 51 24 63 -21 66l-13 1
c-5 0 -6 3 -6 6v18c0 3 2 5 5 5h216c3 0 5 -2 5 -5v-18c0 -3 -1 -5 -5 -6l-27 -3c-39 -4 -53 -25 -97 -90l-190 -278v-225c0 -91 14 -92 75 -95l22 -1c5 0 6 -3 6 -6v-18c0 -3 -2 -5 -5 -5zM505 883l-192 -83c-6 -2 -10 0 -15 9c-5 8 -5 13 0 17l168 125c26 19 48 17 63 -10
c14 -25 5 -45 -24 -58z" />
    <glyph glyph-name="Thorn" unicode="&#xde;" horiz-adv-x="630" 
d="M310 0h-286c-3 0 -5 2 -5 5v18c0 3 1 5 5 6l62 10c19 3 26 11 26 38v538c0 99 -14 100 -75 105l-13 1c-4 0 -5 3 -5 6v18c0 3 2 5 4 5h274c2 0 4 -2 4 -5v-18c0 -3 -1 -5 -4 -6l-62 -10c-19 -3 -27 -11 -27 -38v-78h123c151 0 261 -70 261 -213
c0 -135 -105 -217 -261 -217h-123v-22c0 -99 14 -111 75 -113l26 -1c5 0 6 -3 6 -6v-18c0 -3 -2 -5 -5 -5zM208 213h122c99 0 160 42 160 170c0 137 -77 168 -162 168h-120v-338z" />
    <glyph glyph-name="germandbls" unicode="&#xdf;" horiz-adv-x="584" 
d="M167 0h-165c-2 0 -4 2 -4 5v16c0 3 1 5 4 6l52 10c19 3 27 11 27 38v512c0 116 78 197 205 197c90 0 182 -49 182 -138c0 -47 -21 -80 -52 -108c-20 -18 -44 -33 -64 -51c-21 -18 -37 -37 -37 -64c0 -37 31 -61 91 -94c54 -30 143 -87 143 -180c0 -97 -67 -161 -173 -161
c-93 0 -168 51 -168 121c0 38 18 71 59 71c26 0 51 -19 51 -48c0 -24 -14 -39 -35 -47c-9 -4 -9 -12 -5 -18c20 -27 52 -39 95 -39c71 0 102 50 102 98c0 66 -58 97 -116 129c-60 33 -123 70 -123 141c0 49 27 79 60 105c28 22 62 41 90 68c22 21 34 45 34 77
c0 50 -53 92 -124 92c-72 0 -125 -43 -125 -149v-584c0 -3 -2 -5 -4 -5z" />
    <glyph glyph-name="agrave" unicode="&#xe0;" horiz-adv-x="548" 
d="M346 195v47c0 11 -3 15 -19 14c-109 -6 -198 -35 -198 -130c0 -49 33 -84 83 -84c62 0 106 54 125 98c4 8 9 24 9 55zM533 113v-21c0 -54 -21 -104 -81 -104c-46 0 -85 33 -97 99h-2c-37 -63 -89 -99 -160 -99c-78 0 -153 44 -153 135c0 125 129 165 290 175
c11 1 14 7 14 21v25c0 83 -32 126 -103 126c-21 0 -44 -4 -60 -14c-5 -3 -6 -5 -6 -8c0 -10 13 -28 13 -54c0 -31 -26 -57 -57 -57s-57 26 -57 62c0 68 82 113 169 113c125 0 190 -58 190 -208v-190c0 -56 14 -78 35 -78c19 0 31 20 31 55v21c0 10 3 12 9 12h15
c7 0 10 -1 10 -11zM360 570l-192 83c-29 13 -38 33 -24 58c15 27 37 29 63 10l168 -125c5 -4 5 -9 0 -17c-5 -9 -9 -11 -15 -9z" />
    <glyph glyph-name="aacute" unicode="&#xe1;" horiz-adv-x="548" 
d="M346 195v47c0 11 -3 15 -19 14c-109 -6 -198 -35 -198 -130c0 -49 33 -84 83 -84c62 0 106 54 125 98c4 8 9 24 9 55zM533 113v-21c0 -54 -21 -104 -81 -104c-46 0 -85 33 -97 99h-2c-37 -63 -89 -99 -160 -99c-78 0 -153 44 -153 135c0 125 129 165 290 175
c11 1 14 7 14 21v25c0 83 -32 126 -103 126c-21 0 -44 -4 -60 -14c-5 -3 -6 -5 -6 -8c0 -10 13 -28 13 -54c0 -31 -26 -57 -57 -57s-57 26 -57 62c0 68 82 113 169 113c125 0 190 -58 190 -208v-190c0 -56 14 -78 35 -78c19 0 31 20 31 55v21c0 10 3 12 9 12h15
c7 0 10 -1 10 -11zM348 653l-192 -83c-6 -2 -10 0 -15 9c-5 8 -5 13 0 17l168 125c26 19 48 17 63 -10c14 -25 5 -45 -24 -58z" />
    <glyph glyph-name="acircumflex" unicode="&#xe2;" horiz-adv-x="548" 
d="M346 195v47c0 11 -3 15 -19 14c-109 -6 -198 -35 -198 -130c0 -49 33 -84 83 -84c62 0 106 54 125 98c4 8 9 24 9 55zM533 113v-21c0 -54 -21 -104 -81 -104c-46 0 -85 33 -97 99h-2c-37 -63 -89 -99 -160 -99c-78 0 -153 44 -153 135c0 125 129 165 290 175
c11 1 14 7 14 21v25c0 83 -32 126 -103 126c-21 0 -44 -4 -60 -14c-5 -3 -6 -5 -6 -8c0 -10 13 -28 13 -54c0 -31 -26 -57 -57 -57s-57 26 -57 62c0 68 82 113 169 113c125 0 190 -58 190 -208v-190c0 -56 14 -78 35 -78c19 0 31 20 31 55v21c0 10 3 12 9 12h15
c7 0 10 -1 10 -11zM407 572l-153 106l-153 -106c-6 -4 -10 -1 -16 7c-6 7 -7 13 -2 18l140 143c10 11 21 11 31 11s21 0 31 -11l140 -143c5 -5 4 -11 -2 -18c-6 -8 -10 -11 -16 -7z" />
    <glyph glyph-name="atilde" unicode="&#xe3;" horiz-adv-x="548" 
d="M346 195v47c0 11 -3 15 -19 14c-109 -6 -198 -35 -198 -130c0 -49 33 -84 83 -84c62 0 106 54 125 98c4 8 9 24 9 55zM533 113v-21c0 -54 -21 -104 -81 -104c-46 0 -85 33 -97 99h-2c-37 -63 -89 -99 -160 -99c-78 0 -153 44 -153 135c0 125 129 165 290 175
c11 1 14 7 14 21v25c0 83 -32 126 -103 126c-21 0 -44 -4 -60 -14c-5 -3 -6 -5 -6 -8c0 -10 13 -28 13 -54c0 -31 -26 -57 -57 -57s-57 26 -57 62c0 68 82 113 169 113c125 0 190 -58 190 -208v-190c0 -56 14 -78 35 -78c19 0 31 20 31 55v21c0 10 3 12 9 12h15
c7 0 10 -1 10 -11zM417 716l11 -2c7 -1 9 -4 8 -11c-7 -54 -31 -117 -105 -117c-70 0 -104 75 -155 75c-26 0 -51 -13 -63 -62c-3 -10 -6 -10 -12 -9l-11 2c-7 1 -9 4 -8 11c7 54 31 117 105 117c70 0 104 -75 155 -75c26 0 51 13 63 62c3 10 6 10 12 9z" />
    <glyph glyph-name="adieresis" unicode="&#xe4;" horiz-adv-x="548" 
d="M346 195v47c0 11 -3 15 -19 14c-109 -6 -198 -35 -198 -130c0 -49 33 -84 83 -84c62 0 106 54 125 98c4 8 9 24 9 55zM533 113v-21c0 -54 -21 -104 -81 -104c-46 0 -85 33 -97 99h-2c-37 -63 -89 -99 -160 -99c-78 0 -153 44 -153 135c0 125 129 165 290 175
c11 1 14 7 14 21v25c0 83 -32 126 -103 126c-21 0 -44 -4 -60 -14c-5 -3 -6 -5 -6 -8c0 -10 13 -28 13 -54c0 -31 -26 -57 -57 -57s-57 26 -57 62c0 68 82 113 169 113c125 0 190 -58 190 -208v-190c0 -56 14 -78 35 -78c19 0 31 20 31 55v21c0 10 3 12 9 12h15
c7 0 10 -1 10 -11zM151 583c-29 0 -53 24 -53 53s24 53 53 53s53 -24 53 -53s-24 -53 -53 -53zM361 583c-29 0 -53 24 -53 53s24 53 53 53s53 -24 53 -53s-24 -53 -53 -53z" />
    <glyph glyph-name="aring" unicode="&#xe5;" horiz-adv-x="548" 
d="M346 195v47c0 11 -3 15 -19 14c-109 -6 -198 -35 -198 -130c0 -49 33 -84 83 -84c62 0 106 54 125 98c4 8 9 24 9 55zM533 113v-21c0 -54 -21 -104 -81 -104c-46 0 -85 33 -97 99h-2c-37 -63 -89 -99 -160 -99c-78 0 -153 44 -153 135c0 125 129 165 290 175
c11 1 14 7 14 21v25c0 83 -32 126 -103 126c-21 0 -44 -4 -60 -14c-5 -3 -6 -5 -6 -8c0 -10 13 -28 13 -54c0 -31 -26 -57 -57 -57s-57 26 -57 62c0 68 82 113 169 113c125 0 190 -58 190 -208v-190c0 -56 14 -78 35 -78c19 0 31 20 31 55v21c0 10 3 12 9 12h15
c7 0 10 -1 10 -11zM256 578c-57 0 -102 45 -102 102s45 102 102 102s102 -45 102 -102s-45 -102 -102 -102zM256 612c36 0 64 30 64 68s-28 68 -64 68s-64 -30 -64 -68s28 -68 64 -68z" />
    <glyph glyph-name="ae" unicode="&#xe6;" horiz-adv-x="815" 
d="M748 119l20 -16c3 -3 3 -6 0 -10c-51 -71 -106 -105 -186 -105c-93 0 -161 49 -196 130h-1c-46 -99 -117 -130 -190 -130c-80 0 -155 44 -155 135c0 125 129 163 294 168c11 0 14 7 14 21v32c0 83 -42 126 -113 126c-21 0 -44 -4 -60 -14c-5 -3 -6 -5 -6 -8
c0 -10 13 -28 13 -54c0 -31 -26 -57 -57 -57s-57 26 -57 62c0 68 82 113 169 113c84 0 145 -26 170 -89h1c38 56 93 89 165 89c128 0 200 -108 200 -246c0 -11 -4 -19 -16 -19h-302c-10 0 -11 -8 -11 -13c2 -130 69 -191 152 -191c59 0 105 27 143 75c2 3 5 4 9 1zM350 195
v40c0 11 -3 14 -19 14c-112 -1 -202 -28 -202 -123c0 -49 33 -84 85 -84c76 0 136 78 136 153zM463 291h210c9 0 11 6 11 12c-5 106 -48 164 -117 164c-60 0 -108 -59 -119 -148c-3 -25 1 -28 15 -28z" />
    <glyph glyph-name="ccedilla" unicode="&#xe7;" horiz-adv-x="500" 
d="M446 130l22 -13c3 -2 3 -5 1 -9c-42 -78 -105 -120 -188 -120c-9 0 -18 1 -27 2l-20 -60c6 1 12 1 20 1c48 0 110 -25 110 -86s-52 -94 -117 -94c-47 0 -81 13 -106 29c-5 3 -5 6 2 19s9 13 15 10c19 -9 51 -18 79 -18c43 0 71 22 71 58c0 33 -30 51 -68 51
c-14 0 -25 -2 -38 -5c-4 -1 -7 1 -8 2l-8 8c-2 2 -3 3 -1 8l37 82c-108 26 -177 123 -177 255c0 155 97 262 235 262c85 0 166 -45 166 -113c0 -36 -26 -62 -57 -62s-57 26 -57 57c0 26 13 43 13 53c0 3 -1 5 -6 8c-16 10 -38 14 -57 14c-85 0 -142 -83 -142 -205
c0 -149 64 -221 154 -221c62 0 110 30 143 85c2 3 5 4 9 2z" />
    <glyph glyph-name="egrave" unicode="&#xe8;" horiz-adv-x="518" 
d="M451 119l20 -16c3 -3 3 -6 0 -10c-51 -71 -107 -105 -190 -105c-141 0 -236 107 -236 262s97 262 227 262c132 0 204 -108 204 -246c0 -11 -4 -19 -16 -19h-310c-10 0 -11 -8 -11 -13c2 -130 69 -191 156 -191c62 0 109 27 147 75c2 3 5 4 9 1zM158 291h218
c9 0 11 6 11 12c-5 106 -48 164 -121 164c-64 0 -112 -59 -123 -148c-3 -25 1 -28 15 -28zM365 570l-192 83c-29 13 -38 33 -24 58c15 27 37 29 63 10l168 -125c5 -4 5 -9 0 -17c-5 -9 -9 -11 -15 -9z" />
    <glyph glyph-name="eacute" unicode="&#xe9;" horiz-adv-x="518" 
d="M451 119l20 -16c3 -3 3 -6 0 -10c-51 -71 -107 -105 -190 -105c-141 0 -236 107 -236 262s97 262 227 262c132 0 204 -108 204 -246c0 -11 -4 -19 -16 -19h-310c-10 0 -11 -8 -11 -13c2 -130 69 -191 156 -191c62 0 109 27 147 75c2 3 5 4 9 1zM158 291h218
c9 0 11 6 11 12c-5 106 -48 164 -121 164c-64 0 -112 -59 -123 -148c-3 -25 1 -28 15 -28zM365 653l-192 -83c-6 -2 -10 0 -15 9c-5 8 -5 13 0 17l168 125c26 19 48 17 63 -10c14 -25 5 -45 -24 -58z" />
    <glyph glyph-name="ecircumflex" unicode="&#xea;" horiz-adv-x="518" 
d="M451 119l20 -16c3 -3 3 -6 0 -10c-51 -71 -107 -105 -190 -105c-141 0 -236 107 -236 262s97 262 227 262c132 0 204 -108 204 -246c0 -11 -4 -19 -16 -19h-310c-10 0 -11 -8 -11 -13c2 -130 69 -191 156 -191c62 0 109 27 147 75c2 3 5 4 9 1zM158 291h218
c9 0 11 6 11 12c-5 106 -48 164 -121 164c-64 0 -112 -59 -123 -148c-3 -25 1 -28 15 -28zM424 572l-153 106l-153 -106c-6 -4 -10 -1 -16 7c-6 7 -7 13 -2 18l140 143c10 11 21 11 31 11s21 0 31 -11l140 -143c5 -5 4 -11 -2 -18c-6 -8 -10 -11 -16 -7z" />
    <glyph glyph-name="edieresis" unicode="&#xeb;" horiz-adv-x="518" 
d="M451 119l20 -16c3 -3 3 -6 0 -10c-51 -71 -107 -105 -190 -105c-141 0 -236 107 -236 262s97 262 227 262c132 0 204 -108 204 -246c0 -11 -4 -19 -16 -19h-310c-10 0 -11 -8 -11 -13c2 -130 69 -191 156 -191c62 0 109 27 147 75c2 3 5 4 9 1zM158 291h218
c9 0 11 6 11 12c-5 106 -48 164 -121 164c-64 0 -112 -59 -123 -148c-3 -25 1 -28 15 -28zM166 583c-29 0 -53 24 -53 53s24 53 53 53s53 -24 53 -53s-24 -53 -53 -53zM376 583c-29 0 -53 24 -53 53s24 53 53 53s53 -24 53 -53s-24 -53 -53 -53z" />
    <glyph glyph-name="igrave" unicode="&#xec;" horiz-adv-x="275" 
d="M269 0h-258c-2 0 -4 2 -4 5v16c0 3 1 5 4 6l57 10c19 3 27 11 27 38v312c0 79 -14 82 -65 85l-21 1c-4 0 -5 3 -5 6v16c0 3 2 5 4 5h173c2 0 4 -2 4 -5v-382c0 -69 14 -80 60 -84l23 -2c4 0 5 -3 5 -6v-16c0 -3 -2 -5 -4 -5zM203 570l-192 83c-29 13 -38 33 -24 58
c15 27 37 29 63 10l168 -125c5 -4 5 -9 0 -17c-5 -9 -9 -11 -15 -9z" />
    <glyph glyph-name="iacute" unicode="&#xed;" horiz-adv-x="275" 
d="M269 0h-258c-2 0 -4 2 -4 5v16c0 3 1 5 4 6l57 10c19 3 27 11 27 38v312c0 79 -14 82 -65 85l-21 1c-4 0 -5 3 -5 6v16c0 3 2 5 4 5h173c2 0 4 -2 4 -5v-382c0 -69 14 -80 60 -84l23 -2c4 0 5 -3 5 -6v-16c0 -3 -2 -5 -4 -5zM223 653l-192 -83c-6 -2 -10 0 -15 9
c-5 8 -5 13 0 17l168 125c26 19 48 17 63 -10c14 -25 5 -45 -24 -58z" />
    <glyph glyph-name="icircumflex" unicode="&#xee;" horiz-adv-x="275" 
d="M269 0h-258c-2 0 -4 2 -4 5v16c0 3 1 5 4 6l57 10c19 3 27 11 27 38v312c0 79 -14 82 -65 85l-21 1c-4 0 -5 3 -5 6v16c0 3 2 5 4 5h173c2 0 4 -2 4 -5v-382c0 -69 14 -80 60 -84l23 -2c4 0 5 -3 5 -6v-16c0 -3 -2 -5 -4 -5zM279 572l-153 106l-153 -106
c-6 -4 -10 -1 -16 7c-6 7 -7 13 -2 18l140 143c10 11 21 11 31 11s21 0 31 -11l140 -143c5 -5 4 -11 -2 -18c-6 -8 -10 -11 -16 -7z" />
    <glyph glyph-name="idieresis" unicode="&#xef;" horiz-adv-x="275" 
d="M23 583c-29 0 -53 24 -53 53s24 53 53 53s53 -24 53 -53s-24 -53 -53 -53zM223 583c-29 0 -53 24 -53 53s24 53 53 53s53 -24 53 -53s-24 -53 -53 -53zM269 0h-258c-2 0 -4 2 -4 5v16c0 3 1 5 4 6l57 10c19 3 27 11 27 38v312c0 79 -14 82 -65 85l-21 1c-4 0 -5 3 -5 6
v16c0 3 2 5 4 5h173c2 0 4 -2 4 -5v-382c0 -69 14 -80 60 -84l23 -2c4 0 5 -3 5 -6v-16c0 -3 -2 -5 -4 -5z" />
    <glyph glyph-name="eth" unicode="&#xf0;" horiz-adv-x="561" 
d="M388 450l2 1c-23 59 -59 112 -102 158l-120 -68c-4 -2 -8 -1 -10 3l-15 26c-2 4 -1 8 3 9l109 62c-36 33 -76 63 -116 87c-7 4 -6 13 -2 20c4 8 11 14 20 10c55 -24 106 -53 151 -87l129 73c4 2 8 1 10 -3l15 -26c1 -4 1 -8 -3 -9l-115 -65c106 -95 170 -221 170 -361
c0 -143 -78 -292 -233 -292c-135 0 -236 107 -236 252s91 252 226 252c48 0 86 -16 117 -42zM281 31c85 0 140 73 140 209s-65 209 -150 209s-131 -73 -131 -209s56 -209 141 -209z" />
    <glyph glyph-name="ntilde" unicode="&#xf1;" horiz-adv-x="612" 
d="M606 0h-235c-2 0 -4 2 -4 5v16c0 3 1 5 4 6l39 9c19 4 27 12 27 39v238c0 106 -38 146 -103 146c-53 0 -100 -33 -130 -79c-15 -22 -19 -48 -19 -80v-187c0 -69 14 -81 60 -85l13 -1c4 0 5 -3 5 -6v-16c0 -3 -2 -5 -4 -5h-243c-2 0 -4 2 -4 5v16c0 3 1 5 4 6l52 10
c19 4 27 11 27 38v312c0 79 -14 82 -65 85l-18 1c-4 0 -5 3 -5 6v16c0 3 2 5 4 5h158c2 0 4 -2 4 -5l4 -76l2 -1c47 58 105 94 172 94c78 0 139 -34 164 -113c8 -24 12 -52 12 -105v-181c0 -69 14 -81 65 -85l13 -1c4 0 5 -3 5 -6v-16c0 -3 -2 -5 -4 -5zM457 716l11 -2
c7 -1 9 -4 8 -11c-7 -54 -31 -117 -105 -117c-70 0 -104 75 -155 75c-26 0 -51 -13 -63 -62c-3 -10 -6 -10 -12 -9l-11 2c-7 1 -9 4 -8 11c7 54 31 117 105 117c70 0 104 -75 155 -75c26 0 51 13 63 62c3 10 6 10 12 9z" />
    <glyph glyph-name="ograve" unicode="&#xf2;" horiz-adv-x="561" 
d="M281 -12c-135 0 -236 107 -236 262s101 262 236 262s235 -107 235 -262s-100 -262 -235 -262zM281 31c85 0 140 73 140 219s-55 219 -140 219s-141 -73 -141 -219s56 -219 141 -219zM386 570l-192 83c-29 13 -38 33 -24 58c15 27 37 29 63 10l168 -125c5 -4 5 -9 0 -17
c-5 -9 -9 -11 -15 -9z" />
    <glyph glyph-name="oacute" unicode="&#xf3;" horiz-adv-x="561" 
d="M281 -12c-135 0 -236 107 -236 262s101 262 236 262s235 -107 235 -262s-100 -262 -235 -262zM281 31c85 0 140 73 140 219s-55 219 -140 219s-141 -73 -141 -219s56 -219 141 -219zM367 653l-192 -83c-6 -2 -10 0 -15 9c-5 8 -5 13 0 17l168 125c26 19 48 17 63 -10
c14 -25 5 -45 -24 -58z" />
    <glyph glyph-name="ocircumflex" unicode="&#xf4;" horiz-adv-x="561" 
d="M281 -12c-135 0 -236 107 -236 262s101 262 236 262s235 -107 235 -262s-100 -262 -235 -262zM281 31c85 0 140 73 140 219s-55 219 -140 219s-141 -73 -141 -219s56 -219 141 -219zM433 572l-153 106l-153 -106c-6 -4 -10 -1 -16 7c-6 7 -7 13 -2 18l140 143
c10 11 21 11 31 11s21 0 31 -11l140 -143c5 -5 4 -11 -2 -18c-6 -8 -10 -11 -16 -7z" />
    <glyph glyph-name="otilde" unicode="&#xf5;" horiz-adv-x="561" 
d="M281 -12c-135 0 -236 107 -236 262s101 262 236 262s235 -107 235 -262s-100 -262 -235 -262zM281 31c85 0 140 73 140 219s-55 219 -140 219s-141 -73 -141 -219s56 -219 141 -219zM444 716l11 -2c7 -1 9 -4 8 -11c-7 -54 -31 -117 -105 -117c-70 0 -104 75 -155 75
c-26 0 -51 -13 -63 -62c-3 -10 -6 -10 -12 -9l-11 2c-7 1 -9 4 -8 11c7 54 31 117 105 117c70 0 104 -75 155 -75c26 0 51 13 63 62c3 10 6 10 12 9z" />
    <glyph glyph-name="odieresis" unicode="&#xf6;" horiz-adv-x="561" 
d="M281 -12c-135 0 -236 107 -236 262s101 262 236 262s235 -107 235 -262s-100 -262 -235 -262zM281 31c85 0 140 73 140 219s-55 219 -140 219s-141 -73 -141 -219s56 -219 141 -219zM175 583c-29 0 -53 24 -53 53s24 53 53 53s53 -24 53 -53s-24 -53 -53 -53zM385 583
c-29 0 -53 24 -53 53s24 53 53 53s53 -24 53 -53s-24 -53 -53 -53z" />
    <glyph glyph-name="divide" unicode="&#xf7;" horiz-adv-x="624" 
d="M587 310h-550c-4 0 -7 3 -7 7v44c0 4 3 7 7 7h550c4 0 7 -3 7 -7v-44c0 -4 -3 -7 -7 -7zM312 99c-36 0 -65 29 -65 65s29 65 65 65s65 -29 65 -65s-29 -65 -65 -65zM312 449c-36 0 -65 29 -65 65s29 65 65 65s65 -29 65 -65s-29 -65 -65 -65z" />
    <glyph glyph-name="oslash" unicode="&#xf8;" horiz-adv-x="561" 
d="M118 -42h-46c-4 0 -5 4 -3 7l53 85c-48 47 -77 116 -77 200c0 155 101 262 236 262c41 0 80 -11 113 -29l34 55c3 5 6 7 10 7h46c4 0 5 -4 3 -7l-53 -85c51 -46 82 -117 82 -203c0 -155 -100 -262 -235 -262c-44 0 -84 12 -119 32l-34 -55c-3 -5 -6 -7 -10 -7zM395 391
l-203 -323c24 -25 54 -37 89 -37c85 0 140 73 140 219c0 59 -9 106 -26 141zM163 114l201 322c-22 22 -50 33 -83 33c-85 0 -141 -73 -141 -219c0 -56 8 -101 23 -136z" />
    <glyph glyph-name="ugrave" unicode="&#xf9;" horiz-adv-x="603" 
d="M597 0h-159c-2 0 -4 2 -4 5l-5 76l-2 1c-46 -58 -102 -94 -167 -94c-76 0 -136 34 -160 113c-8 24 -12 52 -12 105v181c0 69 -14 81 -65 85l-13 1c-4 0 -5 3 -5 6v16c0 3 2 5 4 5h166c2 0 4 -2 4 -5v-308c0 -106 34 -146 97 -146c52 0 97 33 127 79c15 22 19 48 19 80
v187c0 69 -14 81 -60 85l-13 1c-4 0 -5 3 -5 6v16c0 3 2 5 4 5h161c2 0 4 -2 4 -5v-382c0 -79 14 -82 65 -85l18 -1c4 0 5 -3 5 -6v-16c0 -3 -2 -5 -4 -5zM370 570l-192 83c-29 13 -38 33 -24 58c15 27 37 29 63 10l168 -125c5 -4 5 -9 0 -17c-5 -9 -9 -11 -15 -9z" />
    <glyph glyph-name="uacute" unicode="&#xfa;" horiz-adv-x="603" 
d="M597 0h-159c-2 0 -4 2 -4 5l-5 76l-2 1c-46 -58 -102 -94 -167 -94c-76 0 -136 34 -160 113c-8 24 -12 52 -12 105v181c0 69 -14 81 -65 85l-13 1c-4 0 -5 3 -5 6v16c0 3 2 5 4 5h166c2 0 4 -2 4 -5v-308c0 -106 34 -146 97 -146c52 0 97 33 127 79c15 22 19 48 19 80
v187c0 69 -14 81 -60 85l-13 1c-4 0 -5 3 -5 6v16c0 3 2 5 4 5h161c2 0 4 -2 4 -5v-382c0 -79 14 -82 65 -85l18 -1c4 0 5 -3 5 -6v-16c0 -3 -2 -5 -4 -5zM408 653l-192 -83c-6 -2 -10 0 -15 9c-5 8 -5 13 0 17l168 125c26 19 48 17 63 -10c14 -25 5 -45 -24 -58z" />
    <glyph glyph-name="ucircumflex" unicode="&#xfb;" horiz-adv-x="603" 
d="M597 0h-159c-2 0 -4 2 -4 5l-5 76l-2 1c-46 -58 -102 -94 -167 -94c-76 0 -136 34 -160 113c-8 24 -12 52 -12 105v181c0 69 -14 81 -65 85l-13 1c-4 0 -5 3 -5 6v16c0 3 2 5 4 5h166c2 0 4 -2 4 -5v-308c0 -106 34 -146 97 -146c52 0 97 33 127 79c15 22 19 48 19 80
v187c0 69 -14 81 -60 85l-13 1c-4 0 -5 3 -5 6v16c0 3 2 5 4 5h161c2 0 4 -2 4 -5v-382c0 -79 14 -82 65 -85l18 -1c4 0 5 -3 5 -6v-16c0 -3 -2 -5 -4 -5zM444 572l-153 106l-153 -106c-6 -4 -10 -1 -16 7c-6 7 -7 13 -2 18l140 143c10 11 21 11 31 11s21 0 31 -11l140 -143
c5 -5 4 -11 -2 -18c-6 -8 -10 -11 -16 -7z" />
    <glyph glyph-name="udieresis" unicode="&#xfc;" horiz-adv-x="603" 
d="M597 0h-159c-2 0 -4 2 -4 5l-5 76l-2 1c-46 -58 -102 -94 -167 -94c-76 0 -136 34 -160 113c-8 24 -12 52 -12 105v181c0 69 -14 81 -65 85l-13 1c-4 0 -5 3 -5 6v16c0 3 2 5 4 5h166c2 0 4 -2 4 -5v-308c0 -106 34 -146 97 -146c52 0 97 33 127 79c15 22 19 48 19 80
v187c0 69 -14 81 -60 85l-13 1c-4 0 -5 3 -5 6v16c0 3 2 5 4 5h161c2 0 4 -2 4 -5v-382c0 -79 14 -82 65 -85l18 -1c4 0 5 -3 5 -6v-16c0 -3 -2 -5 -4 -5zM184 583c-29 0 -53 24 -53 53s24 53 53 53s53 -24 53 -53s-24 -53 -53 -53zM394 583c-29 0 -53 24 -53 53
s24 53 53 53s53 -24 53 -53s-24 -53 -53 -53z" />
    <glyph glyph-name="yacute" unicode="&#xfd;" horiz-adv-x="578" 
d="M256 -39l18 44l-172 388c-26 60 -33 74 -74 79l-8 1c-5 1 -6 3 -6 6v16c0 3 2 5 5 5h218c3 0 6 -2 6 -5v-16c0 -3 -1 -5 -5 -6l-28 -5c-27 -4 -36 -20 -24 -50l129 -311l114 301c5 14 9 27 9 36c0 19 -15 25 -38 27l-21 2c-5 0 -6 3 -6 6v16c0 3 2 5 5 5h185
c3 0 5 -2 5 -5v-16c0 -3 -1 -5 -5 -6l-24 -4c-25 -4 -32 -14 -45 -45l-189 -476c-41 -104 -87 -179 -168 -179c-67 0 -120 47 -120 106c0 35 20 65 60 65c25 0 51 -17 51 -51c0 -33 -28 -45 -28 -55c0 -12 22 -18 39 -18c48 0 81 56 117 145zM425 653l-192 -83
c-6 -2 -10 0 -15 9c-5 8 -5 13 0 17l168 125c26 19 48 17 63 -10c14 -25 5 -45 -24 -58z" />
    <glyph glyph-name="thorn" unicode="&#xfe;" horiz-adv-x="586" 
d="M258 -256h-258c-2 0 -4 2 -4 5v16c0 3 1 5 4 6l57 9c19 3 27 12 27 39v861c0 79 -14 81 -65 85l-13 1c-4 0 -5 3 -5 6v16c0 3 2 5 4 5h165c2 0 4 -2 4 -5v-367c41 63 94 91 162 91c126 0 205 -100 205 -255c0 -160 -92 -269 -229 -269c-46 0 -95 19 -132 50
c-3 2 -6 0 -6 -4v-177c0 -69 14 -80 60 -84l23 -2c4 0 5 -3 5 -6v-16c0 -3 -2 -5 -4 -5zM174 255v-59c0 -113 73 -160 135 -160c88 0 138 94 138 217c0 133 -43 208 -129 208c-64 0 -144 -65 -144 -206z" />
    <glyph glyph-name="ydieresis" unicode="&#xff;" horiz-adv-x="578" 
d="M256 -39l18 44l-172 388c-26 60 -33 74 -74 79l-8 1c-5 1 -6 3 -6 6v16c0 3 2 5 5 5h218c3 0 6 -2 6 -5v-16c0 -3 -1 -5 -5 -6l-28 -5c-27 -4 -36 -20 -24 -50l129 -311l114 301c5 14 9 27 9 36c0 19 -15 25 -38 27l-21 2c-5 0 -6 3 -6 6v16c0 3 2 5 5 5h185
c3 0 5 -2 5 -5v-16c0 -3 -1 -5 -5 -6l-24 -4c-25 -4 -32 -14 -45 -45l-189 -476c-41 -104 -87 -179 -168 -179c-67 0 -120 47 -120 106c0 35 20 65 60 65c25 0 51 -17 51 -51c0 -33 -28 -45 -28 -55c0 -12 22 -18 39 -18c48 0 81 56 117 145zM204 583c-29 0 -53 24 -53 53
s24 53 53 53s53 -24 53 -53s-24 -53 -53 -53zM414 583c-29 0 -53 24 -53 53s24 53 53 53s53 -24 53 -53s-24 -53 -53 -53z" />
    <glyph glyph-name="Amacron" unicode="&#x100;" horiz-adv-x="745" 
d="M737 0h-263c-3 0 -6 2 -6 5v18c0 3 1 5 5 6l51 7c27 4 37 18 26 48l-51 135c-2 5 -5 6 -9 6h-272c-4 0 -7 -1 -9 -6l-46 -125c-5 -14 -8 -27 -8 -36c0 -19 14 -24 39 -26l42 -3c5 0 6 -3 6 -6v-18c0 -3 -2 -5 -5 -5h-228c-3 0 -5 2 -5 5v18c0 3 1 5 5 6l32 5
c28 4 35 13 47 44l251 665c2 5 4 7 10 7h45c6 0 8 -2 10 -7l239 -634c23 -62 36 -75 82 -79l11 -1c5 0 6 -3 6 -6v-18c0 -3 -2 -5 -5 -5zM477 283l-122 335h-2l-121 -335c-1 -4 0 -6 4 -6h237c4 0 5 2 4 6zM530 828h-315c-4 0 -7 3 -7 7v40c0 4 3 7 7 7h315c4 0 7 -3 7 -7
v-40c0 -4 -3 -7 -7 -7z" />
    <glyph glyph-name="amacron" unicode="&#x101;" horiz-adv-x="548" 
d="M346 195v47c0 11 -3 15 -19 14c-109 -6 -198 -35 -198 -130c0 -49 33 -84 83 -84c62 0 106 54 125 98c4 8 9 24 9 55zM533 113v-21c0 -54 -21 -104 -81 -104c-46 0 -85 33 -97 99h-2c-37 -63 -89 -99 -160 -99c-78 0 -153 44 -153 135c0 125 129 165 290 175
c11 1 14 7 14 21v25c0 83 -32 126 -103 126c-21 0 -44 -4 -60 -14c-5 -3 -6 -5 -6 -8c0 -10 13 -28 13 -54c0 -31 -26 -57 -57 -57s-57 26 -57 62c0 68 82 113 169 113c125 0 190 -58 190 -208v-190c0 -56 14 -78 35 -78c19 0 31 20 31 55v21c0 10 3 12 9 12h15
c7 0 10 -1 10 -11zM414 598h-315c-4 0 -7 3 -7 7v40c0 4 3 7 7 7h315c4 0 7 -3 7 -7v-40c0 -4 -3 -7 -7 -7z" />
    <glyph glyph-name="Abreve" unicode="&#x102;" horiz-adv-x="745" 
d="M737 0h-263c-3 0 -6 2 -6 5v18c0 3 1 5 5 6l51 7c27 4 37 18 26 48l-51 135c-2 5 -5 6 -9 6h-272c-4 0 -7 -1 -9 -6l-46 -125c-5 -14 -8 -27 -8 -36c0 -19 14 -24 39 -26l42 -3c5 0 6 -3 6 -6v-18c0 -3 -2 -5 -5 -5h-228c-3 0 -5 2 -5 5v18c0 3 1 5 5 6l32 5
c28 4 35 13 47 44l251 665c2 5 4 7 10 7h45c6 0 8 -2 10 -7l239 -634c23 -62 36 -75 82 -79l11 -1c5 0 6 -3 6 -6v-18c0 -3 -2 -5 -5 -5zM477 283l-122 335h-2l-121 -335c-1 -4 0 -6 4 -6h237c4 0 5 2 4 6zM500 963h20c7 0 9 -3 9 -10c-1 -88 -69 -151 -157 -151
s-156 63 -157 151c0 7 2 10 9 10h20c6 0 9 0 11 -10c11 -55 52 -91 117 -91c66 0 106 36 117 91c2 10 5 10 11 10z" />
    <glyph glyph-name="abreve" unicode="&#x103;" horiz-adv-x="548" 
d="M346 195v47c0 11 -3 15 -19 14c-109 -6 -198 -35 -198 -130c0 -49 33 -84 83 -84c62 0 106 54 125 98c4 8 9 24 9 55zM533 113v-21c0 -54 -21 -104 -81 -104c-46 0 -85 33 -97 99h-2c-37 -63 -89 -99 -160 -99c-78 0 -153 44 -153 135c0 125 129 165 290 175
c11 1 14 7 14 21v25c0 83 -32 126 -103 126c-21 0 -44 -4 -60 -14c-5 -3 -6 -5 -6 -8c0 -10 13 -28 13 -54c0 -31 -26 -57 -57 -57s-57 26 -57 62c0 68 82 113 169 113c125 0 190 -58 190 -208v-190c0 -56 14 -78 35 -78c19 0 31 20 31 55v21c0 10 3 12 9 12h15
c7 0 10 -1 10 -11zM382 733h20c7 0 9 -3 9 -10c-1 -88 -69 -151 -157 -151s-156 63 -157 151c0 7 2 10 9 10h20c6 0 9 0 11 -10c11 -55 52 -91 117 -91c66 0 106 36 117 91c2 10 5 10 11 10z" />
    <glyph glyph-name="Aogonek" unicode="&#x104;" horiz-adv-x="745" 
d="M737 0h-50l-62 -48c-47 -37 -64 -66 -64 -99c0 -36 28 -60 71 -60c28 0 60 11 79 20c6 3 9 2 16 -12s6 -18 1 -21c-24 -16 -59 -30 -106 -30c-65 0 -117 34 -117 95s37 102 100 138l29 17h-160c-3 0 -6 2 -6 5v18c0 3 1 5 5 6l51 7c27 4 37 18 26 48l-51 135
c-2 5 -5 6 -9 6h-272c-4 0 -7 -1 -9 -6l-46 -125c-5 -14 -8 -27 -8 -36c0 -19 14 -24 39 -26l42 -3c5 0 6 -3 6 -6v-18c0 -3 -2 -5 -5 -5h-228c-3 0 -5 2 -5 5v18c0 3 1 5 5 6l32 5c28 4 35 13 47 44l251 665c2 5 4 7 10 7h45c6 0 8 -2 10 -7l239 -634c23 -62 36 -75 82 -79
l11 -1c5 0 6 -3 6 -6v-18c0 -3 -2 -5 -5 -5zM477 283l-122 335h-2l-121 -335c-1 -4 0 -6 4 -6h237c4 0 5 2 4 6z" />
    <glyph glyph-name="aogonek" unicode="&#x105;" horiz-adv-x="548" 
d="M404 -17l17 10c-32 11 -57 43 -66 94h-2c-37 -63 -89 -99 -160 -99c-78 0 -153 44 -153 135c0 125 129 165 290 175c11 1 14 7 14 21v25c0 83 -32 126 -103 126c-21 0 -44 -4 -60 -14c-5 -3 -6 -5 -6 -8c0 -10 13 -28 13 -54c0 -31 -26 -57 -57 -57s-57 26 -57 62
c0 68 82 113 169 113c125 0 190 -58 190 -208v-190c0 -56 14 -78 35 -78c19 0 31 20 31 55v21c0 10 3 12 9 12h15c7 0 10 -1 10 -11v-21c0 -37 -10 -72 -35 -90c-7 -5 -15 -9 -74 -50c-47 -37 -64 -66 -64 -99c0 -36 28 -60 71 -60c28 0 60 11 79 20c6 3 9 2 16 -12
s6 -18 1 -21c-24 -16 -59 -30 -106 -30c-65 0 -117 34 -117 95s37 102 100 138zM346 195v47c0 11 -3 15 -19 14c-109 -6 -198 -35 -198 -130c0 -49 33 -84 83 -84c62 0 106 54 125 98c4 8 9 24 9 55z" />
    <glyph glyph-name="Cacute" unicode="&#x106;" horiz-adv-x="694" 
d="M619 211l29 -12c4 -2 5 -5 3 -10c-46 -125 -149 -201 -265 -201c-194 0 -331 162 -331 386s137 388 322 388c74 0 127 -24 183 -62c12 -8 23 -12 28 6l13 41c1 3 2 4 5 4h19c3 0 4 -1 4 -4v-262c0 -5 -3 -6 -7 -6h-20c-5 0 -7 1 -9 7c-37 138 -97 224 -211 224
c-134 0 -220 -134 -220 -321c0 -211 96 -337 235 -337c95 0 164 54 213 155c2 5 4 6 9 4zM456 893l-192 -83c-6 -2 -10 0 -15 9c-5 8 -5 13 0 17l168 125c26 19 48 17 63 -10c14 -25 5 -45 -24 -58z" />
    <glyph glyph-name="cacute" unicode="&#x107;" horiz-adv-x="500" 
d="M446 130l22 -13c3 -2 3 -5 1 -9c-42 -78 -105 -120 -188 -120c-141 0 -236 107 -236 262s97 262 235 262c85 0 166 -45 166 -113c0 -36 -26 -62 -57 -62s-57 26 -57 57c0 26 13 43 13 53c0 3 -1 5 -6 8c-16 10 -38 14 -57 14c-85 0 -142 -83 -142 -205
c0 -149 64 -221 154 -221c62 0 110 30 143 85c2 3 5 4 9 2zM356 653l-192 -83c-6 -2 -10 0 -15 9c-5 8 -5 13 0 17l168 125c26 19 48 17 63 -10c14 -25 5 -45 -24 -58z" />
    <glyph glyph-name="Ccircumflex" unicode="&#x108;" horiz-adv-x="694" 
d="M619 211l29 -12c4 -2 5 -5 3 -10c-46 -125 -149 -201 -265 -201c-194 0 -331 162 -331 386s137 388 322 388c74 0 127 -24 183 -62c12 -8 23 -12 28 6l13 41c1 3 2 4 5 4h19c3 0 4 -1 4 -4v-262c0 -5 -3 -6 -7 -6h-20c-5 0 -7 1 -9 7c-37 138 -97 224 -211 224
c-134 0 -220 -134 -220 -321c0 -211 96 -337 235 -337c95 0 164 54 213 155c2 5 4 6 9 4zM521 812l-153 106l-153 -106c-6 -4 -10 -1 -16 7c-6 7 -7 13 -2 18l140 143c10 11 21 11 31 11s21 0 31 -11l140 -143c5 -5 4 -11 -2 -18c-6 -8 -10 -11 -16 -7z" />
    <glyph glyph-name="ccircumflex" unicode="&#x109;" horiz-adv-x="500" 
d="M446 130l22 -13c3 -2 3 -5 1 -9c-42 -78 -105 -120 -188 -120c-141 0 -236 107 -236 262s97 262 235 262c85 0 166 -45 166 -113c0 -36 -26 -62 -57 -62s-57 26 -57 57c0 26 13 43 13 53c0 3 -1 5 -6 8c-16 10 -38 14 -57 14c-85 0 -142 -83 -142 -205
c0 -149 64 -221 154 -221c62 0 110 30 143 85c2 3 5 4 9 2zM422 572l-153 106l-153 -106c-6 -4 -10 -1 -16 7c-6 7 -7 13 -2 18l140 143c10 11 21 11 31 11s21 0 31 -11l140 -143c5 -5 4 -11 -2 -18c-6 -8 -10 -11 -16 -7z" />
    <glyph glyph-name="Cdotaccent" unicode="&#x10a;" horiz-adv-x="694" 
d="M619 211l29 -12c4 -2 5 -5 3 -10c-46 -125 -149 -201 -265 -201c-194 0 -331 162 -331 386s137 388 322 388c74 0 127 -24 183 -62c12 -8 23 -12 28 6l13 41c1 3 2 4 5 4h19c3 0 4 -1 4 -4v-262c0 -5 -3 -6 -7 -6h-20c-5 0 -7 1 -9 7c-37 138 -97 224 -211 224
c-134 0 -220 -134 -220 -321c0 -211 96 -337 235 -337c95 0 164 54 213 155c2 5 4 6 9 4zM436 897c0 -35 -27 -61 -62 -61s-61 26 -61 61s26 62 61 62s62 -27 62 -62z" />
    <glyph glyph-name="cdotaccent" unicode="&#x10b;" horiz-adv-x="500" 
d="M446 130l22 -13c3 -2 3 -5 1 -9c-42 -78 -105 -120 -188 -120c-141 0 -236 107 -236 262s97 262 235 262c85 0 166 -45 166 -113c0 -36 -26 -62 -57 -62s-57 26 -57 57c0 26 13 43 13 53c0 3 -1 5 -6 8c-16 10 -38 14 -57 14c-85 0 -142 -83 -142 -205
c0 -149 64 -221 154 -221c62 0 110 30 143 85c2 3 5 4 9 2zM334 667c0 -35 -27 -61 -62 -61s-61 26 -61 61s26 62 61 62s62 -27 62 -62z" />
    <glyph glyph-name="Ccaron" unicode="&#x10c;" horiz-adv-x="694" 
d="M619 211l29 -12c4 -2 5 -5 3 -10c-46 -125 -149 -201 -265 -201c-194 0 -331 162 -331 386s137 388 322 388c74 0 127 -24 183 -62c12 -8 23 -12 28 6l13 41c1 3 2 4 5 4h19c3 0 4 -1 4 -4v-262c0 -5 -3 -6 -7 -6h-20c-5 0 -7 1 -9 7c-37 138 -97 224 -211 224
c-134 0 -220 -134 -220 -321c0 -211 96 -337 235 -337c95 0 164 54 213 155c2 5 4 6 9 4zM546 968l-140 -143c-10 -11 -21 -11 -31 -11s-21 0 -31 11l-140 143c-5 5 -4 11 2 18c6 8 10 11 16 7l153 -106l153 106c6 4 10 1 16 -7c6 -7 7 -13 2 -18z" />
    <glyph glyph-name="ccaron" unicode="&#x10d;" horiz-adv-x="500" 
d="M446 130l22 -13c3 -2 3 -5 1 -9c-42 -78 -105 -120 -188 -120c-141 0 -236 107 -236 262s97 262 235 262c85 0 166 -45 166 -113c0 -36 -26 -62 -57 -62s-57 26 -57 57c0 26 13 43 13 53c0 3 -1 5 -6 8c-16 10 -38 14 -57 14c-85 0 -142 -83 -142 -205
c0 -149 64 -221 154 -221c62 0 110 30 143 85c2 3 5 4 9 2zM443 733l-140 -143c-10 -11 -21 -11 -31 -11s-21 0 -31 11l-140 143c-5 5 -4 11 2 18c6 8 10 11 16 7l153 -106l153 106c6 4 10 1 16 -7c6 -7 7 -13 2 -18z" />
    <glyph glyph-name="Dcaron" unicode="&#x10e;" horiz-adv-x="737" 
d="M273 48h47c166 0 254 147 254 339c0 220 -99 315 -253 315h-38c-53 0 -75 -8 -75 -88v-498c0 -52 12 -68 65 -68zM320 0h-297c-2 0 -4 2 -4 5v18c0 3 1 5 4 6l62 10c19 3 27 11 27 38v538c0 99 -14 100 -75 105l-18 1c-4 0 -5 3 -5 6v18c0 3 2 5 4 5h302
c223 0 362 -128 362 -352s-135 -398 -362 -398zM516 963l-140 -143c-10 -11 -21 -11 -31 -11s-21 0 -31 11l-140 143c-5 5 -4 11 2 18c6 8 10 11 16 7l153 -106l153 106c6 4 10 1 16 -7c6 -7 7 -13 2 -18z" />
    <glyph glyph-name="dcaron" unicode="&#x10f;" horiz-adv-x="712" 
d="M413 245v59c0 113 -73 160 -135 160c-88 0 -138 -94 -138 -217c0 -133 43 -208 129 -208c64 0 144 65 144 206zM578 0h-147c-2 0 -4 2 -4 5l-4 87h-2c-42 -73 -98 -104 -170 -104c-128 0 -206 100 -206 255c0 160 92 269 229 269c47 0 96 -19 133 -50c3 -2 6 0 6 4v214
c0 79 -14 81 -65 85l-13 1c-4 0 -5 3 -5 6v16c0 3 2 5 4 5h165c2 0 4 -2 4 -5v-675c0 -79 15 -81 61 -85l13 -1c4 0 5 -3 5 -6v-16c0 -3 -2 -5 -4 -5zM587 574c-7 -1 -9 2 -10 7c-2 7 -1 12 4 13c60 16 84 65 84 97c0 9 -3 12 -8 12c-7 0 -14 -3 -24 -3c-24 0 -43 21 -43 47
c0 27 20 48 52 48c45 0 70 -38 70 -82c0 -55 -40 -123 -125 -139z" />
    <glyph glyph-name="Dcroat" unicode="&#x110;" horiz-adv-x="737" 
d="M273 48h47c166 0 254 147 254 339c0 220 -99 315 -253 315h-38c-53 0 -75 -8 -75 -88v-498c0 -52 12 -68 65 -68zM320 0h-297c-2 0 -4 2 -4 5v18c0 3 1 5 4 6l62 10c19 3 27 11 27 38v538c0 99 -14 100 -75 105l-18 1c-4 0 -5 3 -5 6v18c0 3 2 5 4 5h302
c223 0 362 -128 362 -352s-135 -398 -362 -398zM503 838h-315c-4 0 -7 3 -7 7v40c0 4 3 7 7 7h315c4 0 7 -3 7 -7v-40c0 -4 -3 -7 -7 -7z" />
    <glyph glyph-name="dcroat" unicode="&#x111;" horiz-adv-x="591" 
d="M578 0h-147c-2 0 -4 2 -4 5l-4 87h-2c-42 -73 -98 -104 -170 -104c-128 0 -206 100 -206 255c0 160 92 269 229 269c47 0 96 -19 133 -50c3 -2 6 0 6 4v139h-200c-4 0 -7 3 -7 7v34c0 4 3 7 7 7h200v27c0 79 -14 81 -65 85l-13 1c-4 0 -5 3 -5 6v16c0 3 2 5 4 5h165
c2 0 4 -2 4 -5v-135h112c4 0 7 -3 7 -7v-34c0 -4 -3 -7 -7 -7h-112v-492c0 -79 15 -81 61 -85l13 -1c4 0 5 -3 5 -6v-16c0 -3 -2 -5 -4 -5zM413 245v59c0 113 -73 160 -135 160c-88 0 -138 -94 -138 -217c0 -133 43 -208 129 -208c64 0 144 65 144 206z" />
    <glyph glyph-name="Emacron" unicode="&#x112;" horiz-adv-x="659" 
d="M586 0h-563c-2 0 -4 2 -4 5v18c0 3 1 5 4 6l62 10c19 3 27 11 27 38v538c0 99 -14 100 -75 105l-18 1c-4 0 -5 3 -5 6v18c0 3 2 5 4 5h553c6 0 11 -5 11 -11l2 -216c0 -5 -3 -6 -7 -6h-30c-3 0 -7 1 -7 6l-8 104c-5 59 -23 75 -97 75h-167c-51 0 -60 -10 -60 -70v-209
c0 -4 3 -7 7 -7h132c37 0 50 9 53 32l7 57c1 7 3 8 7 8h24c3 0 5 -2 5 -4v-243c0 -2 -2 -4 -5 -4h-24c-4 0 -6 1 -7 8l-7 62c-3 23 -16 32 -53 32h-132c-4 0 -7 -3 -7 -7v-239c0 -60 9 -70 60 -70h182c74 0 92 16 97 75l8 104c0 5 4 6 7 6h30c4 0 7 -1 7 -6l-2 -216
c0 -6 -5 -11 -11 -11zM487 838h-315c-4 0 -7 3 -7 7v40c0 4 3 7 7 7h315c4 0 7 -3 7 -7v-40c0 -4 -3 -7 -7 -7z" />
    <glyph glyph-name="emacron" unicode="&#x113;" horiz-adv-x="518" 
d="M451 119l20 -16c3 -3 3 -6 0 -10c-51 -71 -107 -105 -190 -105c-141 0 -236 107 -236 262s97 262 227 262c132 0 204 -108 204 -246c0 -11 -4 -19 -16 -19h-310c-10 0 -11 -8 -11 -13c2 -130 69 -191 156 -191c62 0 109 27 147 75c2 3 5 4 9 1zM158 291h218
c9 0 11 6 11 12c-5 106 -48 164 -121 164c-64 0 -112 -59 -123 -148c-3 -25 1 -28 15 -28zM434 598h-315c-4 0 -7 3 -7 7v40c0 4 3 7 7 7h315c4 0 7 -3 7 -7v-40c0 -4 -3 -7 -7 -7z" />
    <glyph glyph-name="Ebreve" unicode="&#x114;" horiz-adv-x="659" 
d="M586 0h-563c-2 0 -4 2 -4 5v18c0 3 1 5 4 6l62 10c19 3 27 11 27 38v538c0 99 -14 100 -75 105l-18 1c-4 0 -5 3 -5 6v18c0 3 2 5 4 5h553c6 0 11 -5 11 -11l2 -216c0 -5 -3 -6 -7 -6h-30c-3 0 -7 1 -7 6l-8 104c-5 59 -23 75 -97 75h-167c-51 0 -60 -10 -60 -70v-209
c0 -4 3 -7 7 -7h132c37 0 50 9 53 32l7 57c1 7 3 8 7 8h24c3 0 5 -2 5 -4v-243c0 -2 -2 -4 -5 -4h-24c-4 0 -6 1 -7 8l-7 62c-3 23 -16 32 -53 32h-132c-4 0 -7 -3 -7 -7v-239c0 -60 9 -70 60 -70h182c74 0 92 16 97 75l8 104c0 5 4 6 7 6h30c4 0 7 -1 7 -6l-2 -216
c0 -6 -5 -11 -11 -11zM460 968h20c7 0 9 -3 9 -10c-1 -88 -69 -151 -157 -151s-156 63 -157 151c0 7 2 10 9 10h20c6 0 9 0 11 -10c11 -55 52 -91 117 -91c66 0 106 36 117 91c2 10 5 10 11 10z" />
    <glyph glyph-name="ebreve" unicode="&#x115;" horiz-adv-x="518" 
d="M451 119l20 -16c3 -3 3 -6 0 -10c-51 -71 -107 -105 -190 -105c-141 0 -236 107 -236 262s97 262 227 262c132 0 204 -108 204 -246c0 -11 -4 -19 -16 -19h-310c-10 0 -11 -8 -11 -13c2 -130 69 -191 156 -191c62 0 109 27 147 75c2 3 5 4 9 1zM158 291h218
c9 0 11 6 11 12c-5 106 -48 164 -121 164c-64 0 -112 -59 -123 -148c-3 -25 1 -28 15 -28zM396 733h20c7 0 9 -3 9 -10c-1 -88 -69 -151 -157 -151s-156 63 -157 151c0 7 2 10 9 10h20c6 0 9 0 11 -10c11 -55 52 -91 117 -91c66 0 106 36 117 91c2 10 5 10 11 10z" />
    <glyph glyph-name="Edotaccent" unicode="&#x116;" horiz-adv-x="659" 
d="M586 0h-563c-2 0 -4 2 -4 5v18c0 3 1 5 4 6l62 10c19 3 27 11 27 38v538c0 99 -14 100 -75 105l-18 1c-4 0 -5 3 -5 6v18c0 3 2 5 4 5h553c6 0 11 -5 11 -11l2 -216c0 -5 -3 -6 -7 -6h-30c-3 0 -7 1 -7 6l-8 104c-5 59 -23 75 -97 75h-167c-51 0 -60 -10 -60 -70v-209
c0 -4 3 -7 7 -7h132c37 0 50 9 53 32l7 57c1 7 3 8 7 8h24c3 0 5 -2 5 -4v-243c0 -2 -2 -4 -5 -4h-24c-4 0 -6 1 -7 8l-7 62c-3 23 -16 32 -53 32h-132c-4 0 -7 -3 -7 -7v-239c0 -60 9 -70 60 -70h182c74 0 92 16 97 75l8 104c0 5 4 6 7 6h30c4 0 7 -1 7 -6l-2 -216
c0 -6 -5 -11 -11 -11zM391 897c0 -35 -27 -61 -62 -61s-61 26 -61 61s26 62 61 62s62 -27 62 -62z" />
    <glyph glyph-name="edotaccent" unicode="&#x117;" horiz-adv-x="518" 
d="M451 119l20 -16c3 -3 3 -6 0 -10c-51 -71 -107 -105 -190 -105c-141 0 -236 107 -236 262s97 262 227 262c132 0 204 -108 204 -246c0 -11 -4 -19 -16 -19h-310c-10 0 -11 -8 -11 -13c2 -130 69 -191 156 -191c62 0 109 27 147 75c2 3 5 4 9 1zM158 291h218
c9 0 11 6 11 12c-5 106 -48 164 -121 164c-64 0 -112 -59 -123 -148c-3 -25 1 -28 15 -28zM334 667c0 -35 -27 -61 -62 -61s-61 26 -61 61s26 62 61 62s62 -27 62 -62z" />
    <glyph glyph-name="Eogonek" unicode="&#x118;" horiz-adv-x="659" 
d="M586 0h-38l-62 -48c-47 -37 -64 -66 -64 -99c0 -36 28 -60 71 -60c28 0 60 11 79 20c6 3 9 2 16 -12s6 -18 1 -21c-24 -16 -59 -30 -106 -30c-65 0 -117 34 -117 95s37 102 100 138l29 17h-472c-2 0 -4 2 -4 5v18c0 3 1 5 4 6l62 10c19 3 27 11 27 38v538
c0 99 -14 100 -75 105l-18 1c-4 0 -5 3 -5 6v18c0 3 2 5 4 5h553c6 0 11 -5 11 -11l2 -216c0 -5 -3 -6 -7 -6h-30c-3 0 -7 1 -7 6l-8 104c-5 59 -23 75 -97 75h-167c-51 0 -60 -10 -60 -70v-209c0 -4 3 -7 7 -7h132c37 0 50 9 53 32l7 57c1 7 3 8 7 8h24c3 0 5 -2 5 -4v-243
c0 -2 -2 -4 -5 -4h-24c-4 0 -6 1 -7 8l-7 62c-3 23 -16 32 -53 32h-132c-4 0 -7 -3 -7 -7v-239c0 -60 9 -70 60 -70h182c74 0 92 16 97 75l8 104c0 5 4 6 7 6h30c4 0 7 -1 7 -6l-2 -216c0 -6 -5 -11 -11 -11z" />
    <glyph glyph-name="eogonek" unicode="&#x119;" horiz-adv-x="518" 
d="M451 119l20 -16c3 -3 3 -6 0 -10c-21 -29 -43 -51 -66 -69c-30 -23 -60 -38 -104 -72c-47 -37 -64 -66 -64 -99c0 -36 28 -60 71 -60c28 0 60 11 79 20c6 3 9 2 16 -12s6 -18 1 -21c-24 -16 -59 -30 -106 -30c-65 0 -117 34 -117 95s37 102 100 138l9 5h-9
c-141 0 -236 107 -236 262s97 262 227 262c132 0 204 -108 204 -246c0 -11 -4 -19 -16 -19h-310c-10 0 -11 -8 -11 -13c2 -130 69 -191 156 -191c62 0 109 27 147 75c2 3 5 4 9 1zM158 291h218c9 0 11 6 11 12c-5 106 -48 164 -121 164c-64 0 -112 -59 -123 -148
c-3 -25 1 -28 15 -28z" />
    <glyph glyph-name="Ecaron" unicode="&#x11a;" horiz-adv-x="659" 
d="M586 0h-563c-2 0 -4 2 -4 5v18c0 3 1 5 4 6l62 10c19 3 27 11 27 38v538c0 99 -14 100 -75 105l-18 1c-4 0 -5 3 -5 6v18c0 3 2 5 4 5h553c6 0 11 -5 11 -11l2 -216c0 -5 -3 -6 -7 -6h-30c-3 0 -7 1 -7 6l-8 104c-5 59 -23 75 -97 75h-167c-51 0 -60 -10 -60 -70v-209
c0 -4 3 -7 7 -7h132c37 0 50 9 53 32l7 57c1 7 3 8 7 8h24c3 0 5 -2 5 -4v-243c0 -2 -2 -4 -5 -4h-24c-4 0 -6 1 -7 8l-7 62c-3 23 -16 32 -53 32h-132c-4 0 -7 -3 -7 -7v-239c0 -60 9 -70 60 -70h182c74 0 92 16 97 75l8 104c0 5 4 6 7 6h30c4 0 7 -1 7 -6l-2 -216
c0 -6 -5 -11 -11 -11zM500 968l-140 -143c-10 -11 -21 -11 -31 -11s-21 0 -31 11l-140 143c-5 5 -4 11 2 18c6 8 10 11 16 7l153 -106l153 106c6 4 10 1 16 -7c6 -7 7 -13 2 -18z" />
    <glyph glyph-name="ecaron" unicode="&#x11b;" horiz-adv-x="518" 
d="M451 119l20 -16c3 -3 3 -6 0 -10c-51 -71 -107 -105 -190 -105c-141 0 -236 107 -236 262s97 262 227 262c132 0 204 -108 204 -246c0 -11 -4 -19 -16 -19h-310c-10 0 -11 -8 -11 -13c2 -130 69 -191 156 -191c62 0 109 27 147 75c2 3 5 4 9 1zM158 291h218
c9 0 11 6 11 12c-5 106 -48 164 -121 164c-64 0 -112 -59 -123 -148c-3 -25 1 -28 15 -28zM444 733l-140 -143c-10 -11 -21 -11 -31 -11s-21 0 -31 11l-140 143c-5 5 -4 11 2 18c6 8 10 11 16 7l153 -106l153 106c6 4 10 1 16 -7c6 -7 7 -13 2 -18z" />
    <glyph glyph-name="Gcircumflex" unicode="&#x11c;" horiz-adv-x="750" 
d="M664 0h-22c-3 0 -4 1 -5 4l-25 73c-3 8 -8 8 -13 2c-55 -65 -122 -91 -215 -91c-196 0 -329 162 -329 386s138 388 323 388c47 0 89 -10 129 -29c20 -10 48 -28 61 -36c8 -5 19 -7 24 9l13 41c1 3 2 4 5 4h19c3 0 4 -1 4 -4v-244c0 -5 -3 -6 -7 -6h-22c-5 0 -7 1 -9 7
c-39 123 -103 212 -227 204c-132 -8 -214 -158 -205 -348c9 -193 103 -312 234 -312c98 0 183 51 183 157v37c0 47 -16 60 -62 61l-38 1c-5 0 -6 3 -6 6v26c0 3 2 5 5 5h244c3 0 5 -2 5 -5v-23c0 -3 -1 -5 -5 -6l-31 -5c-20 -3 -24 -11 -24 -35v-263c0 -3 -1 -4 -4 -4z
M528 807l-153 106l-153 -106c-6 -4 -10 -1 -16 7c-6 7 -7 13 -2 18l140 143c10 11 21 11 31 11s21 0 31 -11l140 -143c5 -5 4 -11 -2 -18c-6 -8 -10 -11 -16 -7z" />
    <glyph glyph-name="gcircumflex" unicode="&#x11d;" horiz-adv-x="530" 
d="M373 607l-117 71l-153 -106c-6 -4 -10 -1 -16 7c-6 7 -7 13 -2 18l140 143c10 11 21 11 31 11s21 0 31 -11l109 -112c4 -6 1 -11 -6 -17s-11 -8 -17 -4zM169 100l111 -12c119 -13 220 -55 220 -169c0 -102 -91 -177 -244 -177c-119 0 -230 42 -230 156c0 51 37 99 83 121
c-43 18 -63 46 -63 82c0 41 25 79 87 100c-41 32 -66 80 -66 134c0 98 85 177 192 177c38 0 74 -10 104 -28c-8 60 24 110 88 110c45 0 83 -26 83 -69c0 -23 -15 -43 -38 -43c-25 0 -42 18 -42 41c0 8 2 15 2 19c0 1 1 13 -15 13c-30 0 -48 -26 -42 -67c2 -18 7 -35 16 -49
c23 -29 37 -65 37 -104c0 -98 -86 -177 -193 -177c-34 0 -65 8 -92 21c-30 -8 -51 -25 -51 -43c0 -20 16 -32 53 -36zM279 -1l-67 5c-20 1 -49 3 -64 6c-36 -27 -50 -63 -50 -99c0 -75 55 -122 165 -122c95 0 177 43 177 117c0 59 -59 85 -161 93zM258 201
c68 0 108 50 108 136c0 88 -40 132 -108 132s-106 -44 -106 -132c0 -86 38 -136 106 -136z" />
    <glyph glyph-name="Gbreve" unicode="&#x11e;" horiz-adv-x="750" 
d="M664 0h-22c-3 0 -4 1 -5 4l-25 73c-3 8 -8 8 -13 2c-55 -65 -122 -91 -215 -91c-196 0 -329 162 -329 386s138 388 323 388c47 0 89 -10 129 -29c20 -10 48 -28 61 -36c8 -5 19 -7 24 9l13 41c1 3 2 4 5 4h19c3 0 4 -1 4 -4v-244c0 -5 -3 -6 -7 -6h-22c-5 0 -7 1 -9 7
c-39 123 -103 212 -227 204c-132 -8 -214 -158 -205 -348c9 -193 103 -312 234 -312c98 0 183 51 183 157v37c0 47 -16 60 -62 61l-38 1c-5 0 -6 3 -6 6v26c0 3 2 5 5 5h244c3 0 5 -2 5 -5v-23c0 -3 -1 -5 -5 -6l-31 -5c-20 -3 -24 -11 -24 -35v-263c0 -3 -1 -4 -4 -4z
M508 973h20c7 0 9 -3 9 -10c-1 -88 -69 -151 -157 -151s-156 63 -157 151c0 7 2 10 9 10h20c6 0 9 0 11 -10c11 -55 52 -91 117 -91c66 0 106 36 117 91c2 10 5 10 11 10z" />
    <glyph glyph-name="gbreve" unicode="&#x11f;" horiz-adv-x="530" 
d="M370 725h18c6 0 8 -3 8 -9c-1 -79 -62 -136 -141 -136s-140 57 -141 136c0 6 1 9 8 9h18c5 0 8 0 10 -9c10 -50 46 -82 105 -82s95 32 105 82c2 9 5 9 10 9zM169 100l111 -12c119 -13 220 -55 220 -169c0 -102 -91 -177 -244 -177c-119 0 -230 42 -230 156
c0 51 37 99 83 121c-43 18 -63 46 -63 82c0 41 25 79 87 100c-41 32 -66 80 -66 134c0 98 85 177 192 177c38 0 74 -10 104 -28c-8 60 24 110 88 110c45 0 83 -26 83 -69c0 -23 -15 -43 -38 -43c-25 0 -42 18 -42 41c0 8 2 15 2 19c0 1 1 13 -15 13c-30 0 -48 -26 -42 -67
c2 -18 7 -35 16 -49c23 -29 37 -65 37 -104c0 -98 -86 -177 -193 -177c-34 0 -65 8 -92 21c-30 -8 -51 -25 -51 -43c0 -20 16 -32 53 -36zM279 -1l-67 5c-20 1 -49 3 -64 6c-36 -27 -50 -63 -50 -99c0 -75 55 -122 165 -122c95 0 177 43 177 117c0 59 -59 85 -161 93z
M258 201c68 0 108 50 108 136c0 88 -40 132 -108 132s-106 -44 -106 -132c0 -86 38 -136 106 -136z" />
    <glyph glyph-name="Gdotaccent" unicode="&#x120;" horiz-adv-x="750" 
d="M664 0h-22c-3 0 -4 1 -5 4l-25 73c-3 8 -8 8 -13 2c-55 -65 -122 -91 -215 -91c-196 0 -329 162 -329 386s138 388 323 388c47 0 89 -10 129 -29c20 -10 48 -28 61 -36c8 -5 19 -7 24 9l13 41c1 3 2 4 5 4h19c3 0 4 -1 4 -4v-244c0 -5 -3 -6 -7 -6h-22c-5 0 -7 1 -9 7
c-39 123 -103 212 -227 204c-132 -8 -214 -158 -205 -348c9 -193 103 -312 234 -312c98 0 183 51 183 157v37c0 47 -16 60 -62 61l-38 1c-5 0 -6 3 -6 6v26c0 3 2 5 5 5h244c3 0 5 -2 5 -5v-23c0 -3 -1 -5 -5 -6l-31 -5c-20 -3 -24 -11 -24 -35v-263c0 -3 -1 -4 -4 -4z
M441 897c0 -35 -27 -61 -62 -61s-61 26 -61 61s26 62 61 62s62 -27 62 -62z" />
    <glyph glyph-name="gdotaccent" unicode="&#x121;" horiz-adv-x="530" 
d="M169 100l111 -12c119 -13 220 -55 220 -169c0 -102 -91 -177 -244 -177c-119 0 -230 42 -230 156c0 51 37 99 83 121c-43 18 -63 46 -63 82c0 41 25 79 87 100c-41 32 -66 80 -66 134c0 98 85 177 192 177c38 0 74 -10 104 -28c-8 60 24 110 88 110c45 0 83 -26 83 -69
c0 -23 -15 -43 -38 -43c-25 0 -42 18 -42 41c0 8 2 15 2 19c0 1 1 13 -15 13c-30 0 -48 -26 -42 -67c2 -18 7 -35 16 -49c23 -29 37 -65 37 -104c0 -98 -86 -177 -193 -177c-34 0 -65 8 -92 21c-30 -8 -51 -25 -51 -43c0 -20 16 -32 53 -36zM279 -1l-67 5c-20 1 -49 3 -64 6
c-36 -27 -50 -63 -50 -99c0 -75 55 -122 165 -122c95 0 177 43 177 117c0 59 -59 85 -161 93zM258 201c68 0 108 50 108 136c0 88 -40 132 -108 132s-106 -44 -106 -132c0 -86 38 -136 106 -136zM320 667c0 -35 -27 -61 -62 -61s-61 26 -61 61s26 62 61 62s62 -27 62 -62z
" />
    <glyph glyph-name="Gcommaaccent" unicode="&#x122;" horiz-adv-x="750" 
d="M664 0h-22c-3 0 -4 1 -5 4l-25 73c-3 8 -8 8 -13 2c-55 -65 -122 -91 -215 -91c-196 0 -329 162 -329 386s138 388 323 388c47 0 89 -10 129 -29c20 -10 48 -28 61 -36c8 -5 19 -7 24 9l13 41c1 3 2 4 5 4h19c3 0 4 -1 4 -4v-244c0 -5 -3 -6 -7 -6h-22c-5 0 -7 1 -9 7
c-39 123 -103 212 -227 204c-132 -8 -214 -158 -205 -348c9 -193 103 -312 234 -312c98 0 183 51 183 157v37c0 47 -16 60 -62 61l-38 1c-5 0 -6 3 -6 6v26c0 3 2 5 5 5h244c3 0 5 -2 5 -5v-23c0 -3 -1 -5 -5 -6l-31 -5c-20 -3 -24 -11 -24 -35v-263c0 -3 -1 -4 -4 -4z
M327 -267c-7 -1 -9 2 -10 7c-2 7 -1 12 4 13c60 16 84 65 84 97c0 9 -3 12 -8 12c-7 0 -14 -3 -24 -3c-24 0 -43 21 -43 47c0 27 20 48 52 48c45 0 70 -38 70 -82c0 -55 -40 -123 -125 -139z" />
    <glyph glyph-name="gcommaaccent" unicode="&#x123;" horiz-adv-x="530" 
d="M308 622c0 -27 -20 -48 -52 -48c-45 0 -70 38 -70 82c0 55 40 123 125 139c7 1 9 -2 10 -7c2 -7 1 -12 -4 -13c-60 -16 -84 -65 -84 -97c0 -9 3 -12 8 -12c7 0 14 3 24 3c24 0 43 -21 43 -47zM169 100l111 -12c119 -13 220 -55 220 -169c0 -102 -91 -177 -244 -177
c-119 0 -230 42 -230 156c0 51 37 99 83 121c-43 18 -63 46 -63 82c0 41 25 79 87 100c-41 32 -66 80 -66 134c0 98 85 177 192 177c38 0 74 -10 104 -28c-8 60 24 110 88 110c45 0 83 -26 83 -69c0 -23 -15 -43 -38 -43c-25 0 -42 18 -42 41c0 8 2 15 2 19c0 1 1 13 -15 13
c-30 0 -48 -26 -42 -67c2 -18 7 -35 16 -49c23 -29 37 -65 37 -104c0 -98 -86 -177 -193 -177c-34 0 -65 8 -92 21c-30 -8 -51 -25 -51 -43c0 -20 16 -32 53 -36zM279 -1l-67 5c-20 1 -49 3 -64 6c-36 -27 -50 -63 -50 -99c0 -75 55 -122 165 -122c95 0 177 43 177 117
c0 59 -59 85 -161 93zM258 201c68 0 108 50 108 136c0 88 -40 132 -108 132s-106 -44 -106 -132c0 -86 38 -136 106 -136z" />
    <glyph glyph-name="Hcircumflex" unicode="&#x124;" horiz-adv-x="760" 
d="M737 0h-274c-2 0 -4 2 -4 5v18c0 3 1 5 4 6l62 10c19 3 27 11 27 38v289c0 4 -3 7 -7 7h-330c-4 0 -7 -3 -7 -7v-231c0 -89 14 -100 75 -105l13 -1c4 0 5 -3 5 -6v-18c0 -3 -2 -5 -4 -5h-274c-2 0 -4 2 -4 5v18c0 3 1 5 4 6l62 10c19 3 27 11 27 38v538
c0 99 -14 102 -75 105l-18 1c-4 0 -5 3 -5 6v18c0 3 2 5 4 5h279c2 0 4 -2 4 -5v-18c0 -3 -1 -5 -4 -6l-62 -10c-19 -3 -27 -11 -27 -38v-241c0 -4 3 -7 7 -7h330c4 0 7 3 7 7v183c0 99 -14 100 -75 105l-13 1c-4 0 -5 3 -5 6v18c0 3 2 5 4 5h274c2 0 4 -2 4 -5v-18
c0 -3 -1 -5 -4 -6l-62 -10c-19 -3 -27 -11 -27 -38v-538c0 -89 14 -100 75 -105l13 -1c4 0 5 -3 5 -6v-18c0 -3 -2 -5 -4 -5zM533 807l-153 106l-153 -106c-6 -4 -10 -1 -16 7c-6 7 -7 13 -2 18l140 143c10 11 21 11 31 11s21 0 31 -11l140 -143c5 -5 4 -11 -2 -18
c-6 -8 -10 -11 -16 -7z" />
    <glyph glyph-name="hcircumflex" unicode="&#x125;" horiz-adv-x="612" 
d="M606 0h-235c-2 0 -4 2 -4 5v16c0 3 1 5 4 6l39 9c19 4 27 12 27 39v238c0 106 -38 146 -103 146c-53 0 -100 -33 -130 -79c-15 -22 -19 -48 -19 -80v-187c0 -69 14 -81 60 -85l13 -1c4 0 5 -3 5 -6v-16c0 -3 -2 -5 -4 -5h-243c-2 0 -4 2 -4 5v16c0 3 1 5 4 6l52 10
c19 4 27 11 27 38v605c0 79 -14 82 -65 85l-13 1c-4 0 -5 3 -5 6v16c0 3 2 5 4 5h165c2 0 4 -2 4 -5v-314c0 -31 -1 -38 -2 -48l2 -1c41 51 99 87 166 87c102 0 176 -57 176 -198v-201c0 -69 14 -81 65 -85l13 -1c4 0 5 -3 5 -6v-16c0 -3 -2 -5 -4 -5zM457 832l-153 106
l-153 -106c-6 -4 -10 -1 -16 7c-6 7 -7 13 -2 18l140 143c10 11 21 11 31 11s21 0 31 -11l140 -143c5 -5 4 -11 -2 -18c-6 -8 -10 -11 -16 -7z" />
    <glyph glyph-name="Hbar" unicode="&#x126;" horiz-adv-x="780" 
d="M747 0h-274c-2 0 -4 2 -4 5v18c0 3 1 5 4 6l62 10c19 3 27 11 27 38v289c0 4 -3 7 -7 7h-330c-4 0 -7 -3 -7 -7v-231c0 -89 14 -100 75 -105l13 -1c4 0 5 -3 5 -6v-18c0 -3 -2 -5 -4 -5h-274c-2 0 -4 2 -4 5v18c0 3 1 5 4 6l62 10c19 3 27 11 27 38v467h-110
c-4 0 -7 3 -7 7v34c0 4 3 7 7 7h110v23c0 99 -14 102 -75 105l-18 1c-4 0 -5 3 -5 6v18c0 3 2 5 4 5h279c2 0 4 -2 4 -5v-18c0 -3 -1 -5 -4 -6l-62 -10c-19 -3 -27 -11 -27 -38v-81h344v23c0 99 -14 100 -75 105l-13 1c-4 0 -5 3 -5 6v18c0 3 2 5 4 5h274c2 0 4 -2 4 -5v-18
c0 -3 -1 -5 -4 -6l-62 -10c-19 -3 -27 -11 -27 -38v-81h110c4 0 7 -3 7 -7v-34c0 -4 -3 -7 -7 -7h-110v-409c0 -89 14 -100 75 -105l13 -1c4 0 5 -3 5 -6v-18c0 -3 -2 -5 -4 -5zM562 432v112h-344v-112c0 -4 3 -7 7 -7h330c4 0 7 3 7 7z" />
    <glyph glyph-name="hbar" unicode="&#x127;" horiz-adv-x="622" 
d="M616 0h-235c-2 0 -4 2 -4 5v16c0 3 1 5 4 6l39 9c19 4 27 12 27 39v238c0 106 -38 146 -103 146c-53 0 -100 -33 -130 -79c-15 -22 -19 -48 -19 -80v-187c0 -69 14 -81 60 -85l13 -1c4 0 5 -3 5 -6v-16c0 -3 -2 -5 -4 -5h-243c-2 0 -4 2 -4 5v16c0 3 1 5 4 6l52 10
c19 4 27 11 27 38v530h-112c-4 0 -7 3 -7 7v34c0 4 3 7 7 7h112v27c0 79 -14 82 -65 85l-13 1c-4 0 -5 3 -5 6v16c0 3 2 5 4 5h165c2 0 4 -2 4 -5v-135h200c4 0 7 -3 7 -7v-34c0 -4 -3 -7 -7 -7h-200v-131c0 -31 -1 -38 -2 -48l2 -1c41 51 99 87 166 87
c102 0 176 -57 176 -198v-201c0 -69 14 -81 65 -85l13 -1c4 0 5 -3 5 -6v-16c0 -3 -2 -5 -4 -5z" />
    <glyph glyph-name="Itilde" unicode="&#x128;" horiz-adv-x="320" 
d="M297 0h-274c-2 0 -4 2 -4 5v18c0 3 1 5 4 6l62 10c19 3 27 11 27 38v538c0 99 -14 102 -75 105l-18 1c-4 0 -5 3 -5 6v18c0 3 2 5 4 5h279c2 0 4 -2 4 -5v-18c0 -3 -1 -5 -4 -6l-62 -10c-19 -3 -27 -11 -27 -38v-538c0 -89 14 -100 75 -105l13 -1c4 0 5 -3 5 -6v-18
c0 -3 -2 -5 -4 -5zM318 946l11 -2c7 -1 9 -4 8 -11c-7 -54 -31 -117 -105 -117c-70 0 -104 75 -155 75c-26 0 -51 -13 -63 -62c-3 -10 -6 -10 -12 -9l-11 2c-7 1 -9 4 -8 11c7 54 31 117 105 117c70 0 104 -75 155 -75c26 0 51 13 63 62c3 10 6 10 12 9z" />
    <glyph glyph-name="itilde" unicode="&#x129;" horiz-adv-x="275" 
d="M269 0h-258c-2 0 -4 2 -4 5v16c0 3 1 5 4 6l57 10c19 3 27 11 27 38v312c0 79 -14 82 -65 85l-21 1c-4 0 -5 3 -5 6v16c0 3 2 5 4 5h173c2 0 4 -2 4 -5v-382c0 -69 14 -80 60 -84l23 -2c4 0 5 -3 5 -6v-16c0 -3 -2 -5 -4 -5zM296 716l11 -2c7 -1 9 -4 8 -11
c-7 -54 -31 -117 -105 -117c-70 0 -104 75 -155 75c-26 0 -51 -13 -63 -62c-3 -10 -6 -10 -12 -9l-11 2c-7 1 -9 4 -8 11c7 54 31 117 105 117c70 0 104 -75 155 -75c26 0 51 13 63 62c3 10 6 10 12 9z" />
    <glyph glyph-name="uni012A" unicode="&#x12a;" horiz-adv-x="320" 
d="M297 0h-274c-2 0 -4 2 -4 5v18c0 3 1 5 4 6l62 10c19 3 27 11 27 38v538c0 99 -14 102 -75 105l-18 1c-4 0 -5 3 -5 6v18c0 3 2 5 4 5h279c2 0 4 -2 4 -5v-18c0 -3 -1 -5 -4 -6l-62 -10c-19 -3 -27 -11 -27 -38v-538c0 -89 14 -100 75 -105l13 -1c4 0 5 -3 5 -6v-18
c0 -3 -2 -5 -4 -5zM318 838h-315c-4 0 -7 3 -7 7v40c0 4 3 7 7 7h315c4 0 7 -3 7 -7v-40c0 -4 -3 -7 -7 -7z" />
    <glyph glyph-name="imacron" unicode="&#x12b;" horiz-adv-x="275" 
d="M269 0h-258c-2 0 -4 2 -4 5v16c0 3 1 5 4 6l57 10c19 3 27 11 27 38v312c0 79 -14 82 -65 85l-21 1c-4 0 -5 3 -5 6v16c0 3 2 5 4 5h173c2 0 4 -2 4 -5v-382c0 -69 14 -80 60 -84l23 -2c4 0 5 -3 5 -6v-16c0 -3 -2 -5 -4 -5zM285 598h-315c-4 0 -7 3 -7 7v40c0 4 3 7 7 7
h315c4 0 7 -3 7 -7v-40c0 -4 -3 -7 -7 -7z" />
    <glyph glyph-name="Ibreve" unicode="&#x12c;" horiz-adv-x="320" 
d="M297 0h-274c-2 0 -4 2 -4 5v18c0 3 1 5 4 6l62 10c19 3 27 11 27 38v538c0 99 -14 102 -75 105l-18 1c-4 0 -5 3 -5 6v18c0 3 2 5 4 5h279c2 0 4 -2 4 -5v-18c0 -3 -1 -5 -4 -6l-62 -10c-19 -3 -27 -11 -27 -38v-538c0 -89 14 -100 75 -105l13 -1c4 0 5 -3 5 -6v-18
c0 -3 -2 -5 -4 -5zM288 973h20c7 0 9 -3 9 -10c-1 -88 -69 -151 -157 -151s-156 63 -157 151c0 7 2 10 9 10h20c6 0 9 0 11 -10c11 -55 52 -91 117 -91c66 0 106 36 117 91c2 10 5 10 11 10z" />
    <glyph glyph-name="uni012D" unicode="&#x12d;" horiz-adv-x="275" 
d="M269 0h-258c-2 0 -4 2 -4 5v16c0 3 1 5 4 6l57 10c19 3 27 11 27 38v312c0 79 -14 82 -65 85l-21 1c-4 0 -5 3 -5 6v16c0 3 2 5 4 5h173c2 0 4 -2 4 -5v-382c0 -69 14 -80 60 -84l23 -2c4 0 5 -3 5 -6v-16c0 -3 -2 -5 -4 -5zM266 733h20c7 0 9 -3 9 -10
c-1 -88 -69 -151 -157 -151s-156 63 -157 151c0 7 2 10 9 10h20c6 0 9 0 11 -10c11 -55 52 -91 117 -91c66 0 106 36 117 91c2 10 5 10 11 10z" />
    <glyph glyph-name="Iogonek" unicode="&#x12e;" horiz-adv-x="320" 
d="M297 0h-44l-62 -48c-47 -37 -64 -66 -64 -99c0 -36 28 -60 71 -60c28 0 60 11 79 20c6 3 9 2 16 -12s6 -18 1 -21c-24 -16 -59 -30 -106 -30c-65 0 -117 34 -117 95s37 102 100 138l29 17h-177c-2 0 -4 2 -4 5v18c0 3 1 5 4 6l62 10c19 3 27 11 27 38v538
c0 99 -14 102 -75 105l-18 1c-4 0 -5 3 -5 6v18c0 3 2 5 4 5h279c2 0 4 -2 4 -5v-18c0 -3 -1 -5 -4 -6l-62 -10c-19 -3 -27 -11 -27 -38v-538c0 -89 14 -100 75 -105l13 -1c4 0 5 -3 5 -6v-18c0 -3 -2 -5 -4 -5z" />
    <glyph glyph-name="iogonek" unicode="&#x12f;" horiz-adv-x="275" 
d="M266 0h-43l-62 -48c-47 -37 -64 -66 -64 -99c0 -36 28 -60 71 -60c28 0 60 11 79 20c6 3 9 2 16 -12s6 -18 1 -21c-24 -16 -59 -30 -106 -30c-65 0 -117 34 -117 95s37 102 100 138l29 17h-156c-2 0 -4 2 -4 5v16c0 3 1 5 4 6l54 10c19 3 27 11 27 38v312
c0 79 -14 82 -65 85l-18 1c-4 0 -5 3 -5 6v16c0 3 2 5 4 5h170c2 0 4 -2 4 -5v-382c0 -69 14 -80 57 -84l23 -2c4 0 5 -3 5 -6v-16c0 -3 -2 -5 -4 -5zM191 664c0 -35 -27 -61 -62 -61s-61 26 -61 61s26 62 61 62s62 -27 62 -62z" />
    <glyph glyph-name="Idotaccent" unicode="&#x130;" horiz-adv-x="320" 
d="M297 0h-274c-2 0 -4 2 -4 5v18c0 3 1 5 4 6l62 10c19 3 27 11 27 38v538c0 99 -14 102 -75 105l-18 1c-4 0 -5 3 -5 6v18c0 3 2 5 4 5h279c2 0 4 -2 4 -5v-18c0 -3 -1 -5 -4 -6l-62 -10c-19 -3 -27 -11 -27 -38v-538c0 -89 14 -100 75 -105l13 -1c4 0 5 -3 5 -6v-18
c0 -3 -2 -5 -4 -5zM222 897c0 -35 -27 -61 -62 -61s-61 26 -61 61s26 62 61 62s62 -27 62 -62z" />
    <glyph glyph-name="dotlessi" unicode="&#x131;" horiz-adv-x="275" 
d="M269 0h-258c-2 0 -4 2 -4 5v16c0 3 1 5 4 6l57 10c19 3 27 11 27 38v312c0 79 -14 82 -65 85l-21 1c-4 0 -5 3 -5 6v16c0 3 2 5 4 5h173c2 0 4 -2 4 -5v-382c0 -69 14 -80 60 -84l23 -2c4 0 5 -3 5 -6v-16c0 -3 -2 -5 -4 -5z" />
    <glyph glyph-name="IJ" unicode="&#x132;" horiz-adv-x="824" 
d="M297 0h-274c-2 0 -4 2 -4 5v18c0 3 1 5 4 6l62 10c19 3 27 11 27 38v538c0 99 -14 102 -75 105l-18 1c-4 0 -5 3 -5 6v18c0 3 2 5 4 5h279c2 0 4 -2 4 -5v-18c0 -3 -1 -5 -4 -6l-62 -10c-19 -3 -27 -11 -27 -38v-538c0 -89 14 -100 75 -105l13 -1c4 0 5 -3 5 -6v-18
c0 -3 -2 -5 -4 -5zM628 215v399c0 99 -16 103 -77 105l-29 1c-4 0 -5 3 -5 6v19c0 3 2 5 4 5h287c2 0 4 -2 4 -5v-18c0 -3 -1 -5 -4 -6l-57 -10c-19 -3 -27 -11 -27 -38v-428c0 -45 -2 -70 -7 -93c-8 -38 -22 -71 -44 -98c-34 -41 -86 -66 -153 -66c-63 0 -128 29 -159 87
c-12 22 -19 50 -20 79c-1 27 8 55 21 73c13 17 32 27 55 27c34 0 61 -23 61 -59c0 -32 -20 -56 -49 -68c-12 -5 -27 -10 -18 -29c17 -36 56 -60 109 -60c83 0 108 73 108 177z" />
    <glyph glyph-name="ij" unicode="&#x133;" horiz-adv-x="534" 
d="M266 0h-252c-2 0 -4 2 -4 5v16c0 3 1 5 4 6l54 10c19 3 27 11 27 38v312c0 79 -14 82 -65 85l-18 1c-4 0 -5 3 -5 6v16c0 3 2 5 4 5h170c2 0 4 -2 4 -5v-382c0 -69 14 -80 57 -84l23 -2c4 0 5 -3 5 -6v-16c0 -3 -2 -5 -4 -5zM191 664c0 -35 -27 -61 -62 -61
s-61 26 -61 61s26 62 61 62s62 -27 62 -62zM373 -87v474c0 79 -14 82 -65 85l-26 1c-4 0 -5 3 -5 6v16c0 3 2 5 4 5h178c2 0 4 -2 4 -5v-555c0 -109 -42 -190 -146 -190c-33 0 -63 8 -87 22c-31 18 -51 46 -51 76c0 33 22 57 54 57s54 -24 54 -52c0 -23 -14 -41 -14 -51
c0 -3 1 -6 6 -9c8 -4 18 -7 32 -7c53 0 62 63 62 127zM468 664c0 -35 -27 -61 -62 -61s-61 26 -61 61s26 62 61 62s62 -27 62 -62z" />
    <glyph glyph-name="Jcircumflex" unicode="&#x134;" horiz-adv-x="504" 
d="M308 215v399c0 99 -16 103 -77 105l-29 1c-4 0 -5 3 -5 6v19c0 3 2 5 4 5h287c2 0 4 -2 4 -5v-18c0 -3 -1 -5 -4 -6l-57 -10c-19 -3 -27 -11 -27 -38v-428c0 -45 -2 -70 -7 -93c-8 -38 -22 -71 -44 -98c-34 -41 -86 -66 -153 -66c-63 0 -128 29 -159 87
c-12 22 -19 50 -20 79c-1 27 8 55 21 73c13 17 32 27 55 27c34 0 61 -23 61 -59c0 -32 -20 -56 -49 -68c-12 -5 -27 -10 -18 -29c17 -36 56 -60 109 -60c83 0 108 73 108 177zM502 812l-153 106l-153 -106c-6 -4 -10 -1 -16 7c-6 7 -7 13 -2 18l140 143c10 11 21 11 31 11
s21 0 31 -11l140 -143c5 -5 4 -11 -2 -18c-6 -8 -10 -11 -16 -7z" />
    <glyph glyph-name="jcircumflex" unicode="&#x135;" horiz-adv-x="294" 
d="M133 -87v474c0 79 -14 82 -65 85l-26 1c-4 0 -5 3 -5 6v16c0 3 2 5 4 5h178c2 0 4 -2 4 -5v-555c0 -109 -42 -190 -146 -190c-33 0 -63 8 -87 22c-31 18 -51 46 -51 76c0 33 22 57 54 57s54 -24 54 -52c0 -23 -14 -41 -14 -51c0 -3 1 -6 6 -9c8 -4 18 -7 32 -7
c53 0 62 63 62 127zM311 572l-153 106l-153 -106c-6 -4 -10 -1 -16 7c-6 7 -7 13 -2 18l140 143c10 11 21 11 31 11s21 0 31 -11l140 -143c5 -5 4 -11 -2 -18c-6 -8 -10 -11 -16 -7z" />
    <glyph glyph-name="Kcommaaccent" unicode="&#x136;" horiz-adv-x="726" 
d="M706 0h-275c-3 0 -5 2 -5 5v18c0 3 1 6 5 6l38 2c25 2 31 11 31 22c0 9 -7 22 -14 35l-184 324l-94 -97v-180c0 -99 17 -101 72 -105l13 -1c4 0 5 -3 5 -6v-18c0 -3 -2 -5 -4 -5h-271c-2 0 -4 2 -4 5v18c0 3 1 5 4 6l62 10c19 3 27 11 27 38v538c0 99 -14 100 -75 105
l-18 1c-4 0 -5 3 -5 6v18c0 3 2 5 4 5h272c2 0 4 -2 4 -5v-18c0 -3 -1 -5 -4 -6l-55 -10c-19 -3 -27 -11 -27 -38v-276l257 266c11 11 17 23 17 34c0 14 -13 22 -36 23l-22 1c-5 0 -6 3 -6 6v18c0 3 2 5 5 5h247c3 0 5 -2 5 -5v-18c0 -3 -1 -5 -5 -6l-25 -4
c-44 -7 -65 -20 -110 -66l-168 -173l212 -359c36 -61 64 -81 104 -87l23 -3c4 -1 5 -3 5 -6v-18c0 -3 -2 -5 -5 -5zM299 -267c-7 -1 -9 2 -10 7c-2 7 -1 12 4 13c60 16 84 65 84 97c0 9 -3 12 -8 12c-7 0 -14 -3 -24 -3c-24 0 -43 21 -43 47c0 27 20 48 52 48
c45 0 70 -38 70 -82c0 -55 -40 -123 -125 -139z" />
    <glyph glyph-name="kcommaaccent" unicode="&#x137;" horiz-adv-x="598" 
d="M586 0h-234c-3 0 -5 2 -5 5v16c0 3 1 6 5 6l20 2c25 2 29 11 29 22c0 9 -8 22 -17 35l-130 178l-69 -66v-85c0 -69 7 -81 53 -85l13 -1c4 0 5 -3 5 -6v-16c0 -3 -2 -5 -4 -5h-236c-2 0 -4 2 -4 5v16c0 3 1 5 4 6l52 10c19 4 27 11 27 38v605c0 79 -14 82 -65 85l-13 1
c-4 0 -5 3 -5 6v16c0 3 2 5 4 5h165c2 0 4 -2 4 -5v-524l159 153c11 10 17 20 17 31c0 15 -13 23 -36 24l-15 1c-5 0 -6 3 -6 6v16c0 3 2 5 5 5h221c3 0 5 -2 5 -5v-16c0 -3 -1 -5 -5 -6l-18 -3c-44 -7 -64 -24 -109 -66l-92 -87l166 -224c34 -46 55 -62 91 -65l18 -1
c4 0 5 -3 5 -6v-16c0 -3 -2 -5 -5 -5zM237 -267c-7 -1 -9 2 -10 7c-2 7 -1 12 4 13c60 16 84 65 84 97c0 9 -3 12 -8 12c-7 0 -14 -3 -24 -3c-24 0 -43 21 -43 47c0 27 20 48 52 48c45 0 70 -38 70 -82c0 -55 -40 -123 -125 -139z" />
    <glyph glyph-name="kgreenlandic" unicode="&#x138;" horiz-adv-x="598" 
d="M586 0h-234c-3 0 -5 2 -5 5v16c0 3 1 6 5 6l20 2c25 2 29 11 29 22c0 9 -8 22 -17 35l-130 178l-69 -66v-85c0 -69 7 -81 53 -85l13 -1c4 0 5 -3 5 -6v-16c0 -3 -2 -5 -4 -5h-236c-2 0 -4 2 -4 5v16c0 3 1 5 4 6l52 10c19 4 27 11 27 38v312c0 79 -14 82 -65 85l-13 1
c-4 0 -5 3 -5 6v16c0 3 2 5 4 5h165c2 0 4 -2 4 -5v-231l159 153c11 10 17 20 17 31c0 15 -13 23 -36 24l-15 1c-5 0 -6 3 -6 6v16c0 3 2 5 5 5h221c3 0 5 -2 5 -5v-16c0 -3 -1 -5 -5 -6l-18 -3c-44 -7 -64 -24 -109 -66l-92 -87l166 -224c34 -46 55 -62 91 -65l18 -1
c4 0 5 -3 5 -6v-16c0 -3 -2 -5 -5 -5z" />
    <glyph glyph-name="Lacute" unicode="&#x139;" horiz-adv-x="608" 
d="M557 0h-534c-2 0 -4 2 -4 5v18c0 3 1 5 4 6l62 10c19 3 27 11 27 38v538c0 99 -14 100 -75 105l-18 1c-4 0 -5 3 -5 6v18c0 3 2 5 4 5h279c2 0 4 -2 4 -5v-18c0 -3 -1 -5 -4 -6l-62 -10c-19 -3 -27 -11 -27 -38v-555c0 -60 9 -70 60 -70h153c74 0 91 16 95 75l9 136
c0 5 4 6 7 6h31c4 0 7 -1 7 -6l-2 -248c0 -6 -5 -11 -11 -11zM305 893l-192 -83c-6 -2 -10 0 -15 9c-5 8 -5 13 0 17l168 125c26 19 48 17 63 -10c14 -25 5 -45 -24 -58z" />
    <glyph glyph-name="lacute" unicode="&#x13a;" horiz-adv-x="277" 
d="M266 0h-252c-2 0 -4 2 -4 5v16c0 3 1 5 4 6l54 10c19 3 27 11 27 38v605c0 79 -14 82 -65 85l-18 1c-4 0 -5 3 -5 6v16c0 3 2 5 4 5h170c2 0 4 -2 4 -5v-675c0 -69 14 -80 57 -84l23 -2c4 0 5 -3 5 -6v-16c0 -3 -2 -5 -4 -5zM234 923l-192 -83c-6 -2 -10 0 -15 9
c-5 8 -5 13 0 17l168 125c26 19 48 17 63 -10c14 -25 5 -45 -24 -58z" />
    <glyph glyph-name="Lcommaaccent" unicode="&#x13b;" horiz-adv-x="608" 
d="M557 0h-534c-2 0 -4 2 -4 5v18c0 3 1 5 4 6l62 10c19 3 27 11 27 38v538c0 99 -14 100 -75 105l-18 1c-4 0 -5 3 -5 6v18c0 3 2 5 4 5h279c2 0 4 -2 4 -5v-18c0 -3 -1 -5 -4 -6l-62 -10c-19 -3 -27 -11 -27 -38v-555c0 -60 9 -70 60 -70h153c74 0 91 16 95 75l9 136
c0 5 4 6 7 6h31c4 0 7 -1 7 -6l-2 -248c0 -6 -5 -11 -11 -11zM247 -267c-7 -1 -9 2 -10 7c-2 7 -1 12 4 13c60 16 84 65 84 97c0 9 -3 12 -8 12c-7 0 -14 -3 -24 -3c-24 0 -43 21 -43 47c0 27 20 48 52 48c45 0 70 -38 70 -82c0 -55 -40 -123 -125 -139z" />
    <glyph glyph-name="lcommaaccent" unicode="&#x13c;" horiz-adv-x="277" 
d="M266 0h-252c-2 0 -4 2 -4 5v16c0 3 1 5 4 6l54 10c19 3 27 11 27 38v605c0 79 -14 82 -65 85l-18 1c-4 0 -5 3 -5 6v16c0 3 2 5 4 5h170c2 0 4 -2 4 -5v-675c0 -69 14 -80 57 -84l23 -2c4 0 5 -3 5 -6v-16c0 -3 -2 -5 -4 -5zM81 -267c-7 -1 -9 2 -10 7c-2 7 -1 12 4 13
c60 16 84 65 84 97c0 9 -3 12 -8 12c-7 0 -14 -3 -24 -3c-24 0 -43 21 -43 47c0 27 20 48 52 48c45 0 70 -38 70 -82c0 -55 -40 -123 -125 -139z" />
    <glyph glyph-name="Lcaron" unicode="&#x13d;" horiz-adv-x="608" 
d="M557 0h-534c-2 0 -4 2 -4 5v18c0 3 1 5 4 6l62 10c19 3 27 11 27 38v538c0 99 -14 100 -75 105l-18 1c-4 0 -5 3 -5 6v18c0 3 2 5 4 5h279c2 0 4 -2 4 -5v-18c0 -3 -1 -5 -4 -6l-62 -10c-19 -3 -27 -11 -27 -38v-555c0 -60 9 -70 60 -70h153c74 0 91 16 95 75l9 136
c0 5 4 6 7 6h31c4 0 7 -1 7 -6l-2 -248c0 -6 -5 -11 -11 -11zM411 555c-7 -1 -9 2 -10 7c-2 7 -1 12 4 13c60 16 84 65 84 97c0 9 -3 12 -8 12c-7 0 -14 -3 -24 -3c-24 0 -43 21 -43 47c0 27 20 48 52 48c45 0 70 -38 70 -82c0 -55 -40 -123 -125 -139z" />
    <glyph glyph-name="lcaron" unicode="&#x13e;" horiz-adv-x="383" 
d="M266 0h-252c-2 0 -4 2 -4 5v16c0 3 1 5 4 6l54 10c19 3 27 11 27 38v605c0 79 -14 82 -65 85l-18 1c-4 0 -5 3 -5 6v16c0 3 2 5 4 5h170c2 0 4 -2 4 -5v-675c0 -69 14 -80 57 -84l23 -2c4 0 5 -3 5 -6v-16c0 -3 -2 -5 -4 -5zM268 572c-7 -1 -9 2 -10 7c-2 7 -1 12 4 13
c60 16 84 65 84 97c0 9 -3 12 -8 12c-7 0 -14 -3 -24 -3c-24 0 -43 21 -43 47c0 27 20 48 52 48c45 0 70 -38 70 -82c0 -55 -40 -123 -125 -139z" />
    <glyph glyph-name="Ldot" unicode="&#x13f;" horiz-adv-x="608" 
d="M557 0h-534c-2 0 -4 2 -4 5v18c0 3 1 5 4 6l62 10c19 3 27 11 27 38v538c0 99 -14 100 -75 105l-18 1c-4 0 -5 3 -5 6v18c0 3 2 5 4 5h279c2 0 4 -2 4 -5v-18c0 -3 -1 -5 -4 -6l-62 -10c-19 -3 -27 -11 -27 -38v-555c0 -60 9 -70 60 -70h153c74 0 91 16 95 75l9 136
c0 5 4 6 7 6h31c4 0 7 -1 7 -6l-2 -248c0 -6 -5 -11 -11 -11zM481 438c0 -35 -27 -61 -62 -61s-61 26 -61 61s26 62 61 62s62 -27 62 -62z" />
    <glyph glyph-name="ldot" unicode="&#x140;" horiz-adv-x="391" 
d="M266 0h-252c-2 0 -4 2 -4 5v16c0 3 1 5 4 6l54 10c19 3 27 11 27 38v605c0 79 -14 82 -65 85l-18 1c-4 0 -5 3 -5 6v16c0 3 2 5 4 5h170c2 0 4 -2 4 -5v-675c0 -69 14 -80 57 -84l23 -2c4 0 5 -3 5 -6v-16c0 -3 -2 -5 -4 -5zM391 438c0 -35 -27 -61 -62 -61
s-61 26 -61 61s26 62 61 62s62 -27 62 -62z" />
    <glyph glyph-name="Lslash" unicode="&#x141;" horiz-adv-x="636" 
d="M585 0h-534c-2 0 -4 2 -4 5v18c0 3 1 5 4 6l62 10c19 3 27 11 27 38v228l-121 -59c-4 -2 -7 0 -7 4v41c0 4 3 8 7 10l121 59v255c0 99 -14 100 -75 105l-18 1c-4 0 -5 3 -5 6v18c0 3 2 5 4 5h279c2 0 4 -2 4 -5v-18c0 -3 -1 -5 -4 -6l-62 -10c-19 -3 -27 -11 -27 -38
v-266l183 90c4 2 7 -1 7 -5v-41c0 -4 -3 -7 -7 -9l-183 -90v-234c0 -60 9 -70 60 -70h153c74 0 91 16 95 75l9 136c0 5 4 6 7 6h31c4 0 7 -1 7 -6l-2 -248c0 -6 -5 -11 -11 -11z" />
    <glyph glyph-name="lslash" unicode="&#x142;" horiz-adv-x="376" 
d="M317 0h-263c-2 0 -4 2 -4 5v16c0 3 1 5 4 6l62 10c19 3 27 11 27 38v279l-124 -60c-4 -2 -7 0 -7 4v37c0 4 3 8 7 10l124 60v275c0 79 -14 82 -65 85l-21 1c-4 0 -5 3 -5 6v16c0 3 2 5 4 5h173c2 0 4 -2 4 -5v-339l124 61c4 2 7 -1 7 -5v-37c0 -4 -3 -7 -7 -9l-124 -61
v-285c0 -69 14 -80 60 -84l23 -2c4 0 5 -3 5 -6v-16c0 -3 -2 -5 -4 -5z" />
    <glyph glyph-name="Nacute" unicode="&#x143;" horiz-adv-x="737" 
d="M631 0h-41c-5 0 -7 2 -9 5l-384 599c-12 19 -19 33 -19 33h-1v-502c0 -99 15 -100 75 -105l18 -1c4 0 5 -3 5 -6v-18c0 -3 -2 -5 -4 -5h-248c-3 0 -4 2 -4 5v18c0 3 0 5 4 6l62 10c19 3 27 11 27 38v538c0 99 -15 100 -75 105l-18 1c-5 0 -5 3 -5 6v18c0 3 1 5 4 5h188
c5 0 7 -2 9 -5l335 -521c12 -19 19 -33 19 -33h1v384c0 129 -15 140 -75 145l-18 1c-4 0 -5 3 -5 6v18c0 3 2 5 4 5h248c3 0 4 -2 4 -5v-18c0 -3 0 -5 -4 -6l-62 -10c-19 -3 -27 -11 -27 -38v-669c0 -3 -1 -4 -4 -4zM485 893l-192 -83c-6 -2 -10 0 -15 9c-5 8 -5 13 0 17
l168 125c26 19 48 17 63 -10c14 -25 5 -45 -24 -58z" />
    <glyph glyph-name="nacute" unicode="&#x144;" horiz-adv-x="612" 
d="M606 0h-235c-2 0 -4 2 -4 5v16c0 3 1 5 4 6l39 9c19 4 27 12 27 39v238c0 106 -38 146 -103 146c-53 0 -100 -33 -130 -79c-15 -22 -19 -48 -19 -80v-187c0 -69 14 -81 60 -85l13 -1c4 0 5 -3 5 -6v-16c0 -3 -2 -5 -4 -5h-243c-2 0 -4 2 -4 5v16c0 3 1 5 4 6l52 10
c19 4 27 11 27 38v312c0 79 -14 82 -65 85l-18 1c-4 0 -5 3 -5 6v16c0 3 2 5 4 5h158c2 0 4 -2 4 -5l4 -76l2 -1c47 58 105 94 172 94c78 0 139 -34 164 -113c8 -24 12 -52 12 -105v-181c0 -69 14 -81 65 -85l13 -1c4 0 5 -3 5 -6v-16c0 -3 -2 -5 -4 -5zM393 653l-192 -83
c-6 -2 -10 0 -15 9c-5 8 -5 13 0 17l168 125c26 19 48 17 63 -10c14 -25 5 -45 -24 -58z" />
    <glyph glyph-name="Ncommaaccent" unicode="&#x145;" horiz-adv-x="737" 
d="M631 0h-41c-5 0 -7 2 -9 5l-384 599c-12 19 -19 33 -19 33h-1v-502c0 -99 15 -100 75 -105l18 -1c4 0 5 -3 5 -6v-18c0 -3 -2 -5 -4 -5h-248c-3 0 -4 2 -4 5v18c0 3 0 5 4 6l62 10c19 3 27 11 27 38v538c0 99 -15 100 -75 105l-18 1c-5 0 -5 3 -5 6v18c0 3 1 5 4 5h188
c5 0 7 -2 9 -5l335 -521c12 -19 19 -33 19 -33h1v384c0 129 -15 140 -75 145l-18 1c-4 0 -5 3 -5 6v18c0 3 2 5 4 5h248c3 0 4 -2 4 -5v-18c0 -3 0 -5 -4 -6l-62 -10c-19 -3 -27 -11 -27 -38v-669c0 -3 -1 -4 -4 -4zM321 -267c-7 -1 -9 2 -10 7c-2 7 -1 12 4 13
c60 16 84 65 84 97c0 9 -3 12 -8 12c-7 0 -14 -3 -24 -3c-24 0 -43 21 -43 47c0 27 20 48 52 48c45 0 70 -38 70 -82c0 -55 -40 -123 -125 -139z" />
    <glyph glyph-name="ncommaaccent" unicode="&#x146;" horiz-adv-x="612" 
d="M606 0h-235c-2 0 -4 2 -4 5v16c0 3 1 5 4 6l39 9c19 4 27 12 27 39v238c0 106 -38 146 -103 146c-53 0 -100 -33 -130 -79c-15 -22 -19 -48 -19 -80v-187c0 -69 14 -81 60 -85l13 -1c4 0 5 -3 5 -6v-16c0 -3 -2 -5 -4 -5h-243c-2 0 -4 2 -4 5v16c0 3 1 5 4 6l52 10
c19 4 27 11 27 38v312c0 79 -14 82 -65 85l-18 1c-4 0 -5 3 -5 6v16c0 3 2 5 4 5h158c2 0 4 -2 4 -5l4 -76l2 -1c47 58 105 94 172 94c78 0 139 -34 164 -113c8 -24 12 -52 12 -105v-181c0 -69 14 -81 65 -85l13 -1c4 0 5 -3 5 -6v-16c0 -3 -2 -5 -4 -5zM252 -267
c-7 -1 -9 2 -10 7c-2 7 -1 12 4 13c60 16 84 65 84 97c0 9 -3 12 -8 12c-7 0 -14 -3 -24 -3c-24 0 -43 21 -43 47c0 27 20 48 52 48c45 0 70 -38 70 -82c0 -55 -40 -123 -125 -139z" />
    <glyph glyph-name="Ncaron" unicode="&#x147;" horiz-adv-x="737" 
d="M631 0h-41c-5 0 -7 2 -9 5l-384 599c-12 19 -19 33 -19 33h-1v-502c0 -99 15 -100 75 -105l18 -1c4 0 5 -3 5 -6v-18c0 -3 -2 -5 -4 -5h-248c-3 0 -4 2 -4 5v18c0 3 0 5 4 6l62 10c19 3 27 11 27 38v538c0 99 -15 100 -75 105l-18 1c-5 0 -5 3 -5 6v18c0 3 1 5 4 5h188
c5 0 7 -2 9 -5l335 -521c12 -19 19 -33 19 -33h1v384c0 129 -15 140 -75 145l-18 1c-4 0 -5 3 -5 6v18c0 3 2 5 4 5h248c3 0 4 -2 4 -5v-18c0 -3 0 -5 -4 -6l-62 -10c-19 -3 -27 -11 -27 -38v-669c0 -3 -1 -4 -4 -4zM539 963l-140 -143c-10 -11 -21 -11 -31 -11
s-21 0 -31 11l-140 143c-5 5 -4 11 2 18c6 8 10 11 16 7l153 -106l153 106c6 4 10 1 16 -7c6 -7 7 -13 2 -18z" />
    <glyph glyph-name="ncaron" unicode="&#x148;" horiz-adv-x="612" 
d="M606 0h-235c-2 0 -4 2 -4 5v16c0 3 1 5 4 6l39 9c19 4 27 12 27 39v238c0 106 -38 146 -103 146c-53 0 -100 -33 -130 -79c-15 -22 -19 -48 -19 -80v-187c0 -69 14 -81 60 -85l13 -1c4 0 5 -3 5 -6v-16c0 -3 -2 -5 -4 -5h-243c-2 0 -4 2 -4 5v16c0 3 1 5 4 6l52 10
c19 4 27 11 27 38v312c0 79 -14 82 -65 85l-18 1c-4 0 -5 3 -5 6v16c0 3 2 5 4 5h158c2 0 4 -2 4 -5l4 -76l2 -1c47 58 105 94 172 94c78 0 139 -34 164 -113c8 -24 12 -52 12 -105v-181c0 -69 14 -81 65 -85l13 -1c4 0 5 -3 5 -6v-16c0 -3 -2 -5 -4 -5zM477 733l-140 -143
c-10 -11 -21 -11 -31 -11s-21 0 -31 11l-140 143c-5 5 -4 11 2 18c6 8 10 11 16 7l153 -106l153 106c6 4 10 1 16 -7c6 -7 7 -13 2 -18z" />
    <glyph glyph-name="napostrophe" unicode="&#x149;" horiz-adv-x="756" 
d="M750 0h-235c-2 0 -4 2 -4 5v16c0 3 1 5 4 6l39 9c19 4 27 12 27 39v238c0 106 -38 146 -103 146c-53 0 -100 -33 -130 -79c-15 -22 -19 -48 -19 -80v-187c0 -69 14 -81 60 -85l13 -1c4 0 5 -3 5 -6v-16c0 -3 -2 -5 -4 -5h-243c-2 0 -4 2 -4 5v16c0 3 1 5 4 6l52 10
c19 4 27 11 27 38v312c0 79 -14 82 -65 85l-18 1c-4 0 -5 3 -5 6v16c0 3 2 5 4 5h158c2 0 4 -2 4 -5l4 -76l2 -1c47 58 105 94 172 94c78 0 139 -34 164 -113c8 -24 12 -52 12 -105v-181c0 -69 14 -81 65 -85l13 -1c4 0 5 -3 5 -6v-16c0 -3 -2 -5 -4 -5zM11 480
c-7 -1 -9 2 -10 7c-2 7 -1 12 4 13c60 16 84 65 84 97c0 9 -3 12 -8 12c-7 0 -14 -3 -24 -3c-24 0 -43 21 -43 47c0 27 20 48 52 48c45 0 70 -38 70 -82c0 -55 -40 -123 -125 -139z" />
    <glyph glyph-name="Eng" unicode="&#x14a;" horiz-adv-x="737" 
d="M570 -40v62l-373 582c-12 19 -19 33 -19 33h-1v-502c0 -99 15 -100 75 -105l18 -1c4 0 5 -3 5 -6v-18c0 -3 -2 -5 -4 -5h-248c-3 0 -4 2 -4 5v18c0 3 0 5 4 6l62 10c19 3 27 11 27 38v538c0 99 -15 100 -75 105l-18 1c-5 0 -5 3 -5 6v18c0 3 1 5 4 5h188c5 0 7 -2 9 -5
l335 -521c12 -19 19 -33 19 -33h1v384c0 129 -15 140 -75 145l-18 1c-4 0 -5 3 -5 6v18c0 3 2 5 4 5h248c3 0 4 -2 4 -5v-18c0 -3 0 -5 -4 -6l-62 -10c-19 -3 -27 -11 -27 -38v-685c0 -56 -4 -137 -39 -180c-30 -36 -68 -52 -117 -52s-107 26 -135 78c-10 20 -17 45 -18 71
c0 25 7 50 19 66c11 15 29 24 50 24c30 0 55 -20 55 -53c0 -28 -18 -50 -44 -61c-11 -4 -25 -9 -17 -26c16 -32 50 -54 90 -54c60 0 91 60 91 159z" />
    <glyph glyph-name="eng" unicode="&#x14b;" horiz-adv-x="598" 
d="M437 -87v400c0 106 -38 146 -103 146c-53 0 -100 -33 -130 -79c-15 -22 -19 -48 -19 -80v-187c0 -69 14 -81 60 -85l13 -1c4 0 5 -3 5 -6v-16c0 -3 -2 -5 -4 -5h-243c-2 0 -4 2 -4 5v16c0 3 1 5 4 6l52 10c19 4 27 11 27 38v312c0 79 -14 82 -65 85l-18 1c-4 0 -5 3 -5 6
v16c0 3 2 5 4 5h158c2 0 4 -2 4 -5l4 -76l2 -1c47 58 105 94 172 94c78 0 139 -34 164 -113c8 -24 12 -52 12 -105v-354c0 -109 -42 -190 -146 -190c-33 0 -63 8 -87 22c-31 18 -51 46 -51 76c0 33 22 57 54 57s54 -24 54 -52c0 -23 -13 -41 -13 -51c0 -3 0 -6 5 -9
c8 -5 18 -7 32 -7c53 0 62 63 62 127z" />
    <glyph glyph-name="Omacron" unicode="&#x14c;" horiz-adv-x="757" 
d="M382 42c128 0 212 114 212 319c0 230 -91 347 -220 347s-211 -111 -211 -322c0 -173 64 -344 219 -344zM378 -12c-196 0 -323 172 -323 386s127 388 323 388s324 -174 324 -388s-128 -386 -324 -386zM536 838h-315c-4 0 -7 3 -7 7v40c0 4 3 7 7 7h315c4 0 7 -3 7 -7v-40
c0 -4 -3 -7 -7 -7z" />
    <glyph glyph-name="omacron" unicode="&#x14d;" horiz-adv-x="561" 
d="M281 -12c-135 0 -236 107 -236 262s101 262 236 262s235 -107 235 -262s-100 -262 -235 -262zM281 31c85 0 140 73 140 219s-55 219 -140 219s-141 -73 -141 -219s56 -219 141 -219zM438 598h-315c-4 0 -7 3 -7 7v40c0 4 3 7 7 7h315c4 0 7 -3 7 -7v-40c0 -4 -3 -7 -7 -7
z" />
    <glyph glyph-name="Obreve" unicode="&#x14e;" horiz-adv-x="757" 
d="M382 42c128 0 212 114 212 319c0 230 -91 347 -220 347s-211 -111 -211 -322c0 -173 64 -344 219 -344zM378 -12c-196 0 -323 172 -323 386s127 388 323 388s324 -174 324 -388s-128 -386 -324 -386zM506 973h20c7 0 9 -3 9 -10c-1 -88 -69 -151 -157 -151
s-156 63 -157 151c0 7 2 10 9 10h20c6 0 9 0 11 -10c11 -55 52 -91 117 -91c66 0 106 36 117 91c2 10 5 10 11 10z" />
    <glyph glyph-name="obreve" unicode="&#x14f;" horiz-adv-x="561" 
d="M281 -12c-135 0 -236 107 -236 262s101 262 236 262s235 -107 235 -262s-100 -262 -235 -262zM281 31c85 0 140 73 140 219s-55 219 -140 219s-141 -73 -141 -219s56 -219 141 -219zM409 733h20c7 0 9 -3 9 -10c-1 -88 -69 -151 -157 -151s-156 63 -157 151
c0 7 2 10 9 10h20c6 0 9 0 11 -10c11 -55 52 -91 117 -91c66 0 106 36 117 91c2 10 5 10 11 10z" />
    <glyph glyph-name="Ohungarumlaut" unicode="&#x150;" horiz-adv-x="757" 
d="M382 42c128 0 212 114 212 319c0 230 -91 347 -220 347s-211 -111 -211 -322c0 -173 64 -344 219 -344zM378 -12c-196 0 -323 172 -323 386s127 388 323 388s324 -174 324 -388s-128 -386 -324 -386zM385 903l-157 -94c-5 -3 -8 -1 -14 6c-6 6 -7 11 -2 15l128 130
c20 21 42 21 59 -1c16 -20 11 -41 -14 -56zM578 903l-156 -94c-5 -3 -9 -1 -15 6c-4 6 -5 11 -2 15l129 130c20 20 42 21 59 -1c17 -21 10 -41 -15 -56z" />
    <glyph glyph-name="ohungarumlaut" unicode="&#x151;" horiz-adv-x="561" 
d="M281 -12c-135 0 -236 107 -236 262s101 262 236 262s235 -107 235 -262s-100 -262 -235 -262zM281 31c85 0 140 73 140 219s-55 219 -140 219s-141 -73 -141 -219s56 -219 141 -219zM301 663l-157 -94c-5 -3 -8 -1 -14 6c-6 6 -7 11 -2 15l128 130c20 21 42 21 59 -1
c16 -20 11 -41 -14 -56zM494 663l-156 -94c-5 -3 -9 -1 -15 6c-4 6 -5 11 -2 15l129 130c20 20 42 21 59 -1c17 -21 10 -41 -15 -56z" />
    <glyph glyph-name="OE" unicode="&#x152;" horiz-adv-x="1064" 
d="M537 128v494c0 80 -52 90 -152 90c-146 0 -222 -111 -222 -336c0 -227 76 -338 222 -338c100 0 152 10 152 90zM991 0h-401c-52 0 -129 -12 -204 -12c-209 0 -331 173 -331 387s122 387 331 387c75 0 152 -12 204 -12h386c6 0 11 -5 11 -11l2 -206c0 -5 -3 -6 -7 -6h-30
c-3 0 -7 1 -7 6l-8 94c-5 59 -23 75 -97 75h-147c-51 0 -60 -10 -60 -70v-209c0 -4 3 -7 7 -7h112c37 0 50 9 53 32l7 52c1 7 3 8 7 8h24c3 0 5 -2 5 -4v-233c0 -2 -2 -4 -5 -4h-24c-4 0 -6 1 -7 8l-7 57c-3 23 -16 32 -53 32h-112c-4 0 -7 -3 -7 -7v-239
c0 -60 9 -70 60 -70h162c74 0 92 16 97 75l8 99c0 5 4 6 7 6h30c4 0 7 -1 7 -6l-2 -211c0 -6 -5 -11 -11 -11z" />
    <glyph glyph-name="oe" unicode="&#x153;" horiz-adv-x="894" 
d="M827 119l20 -16c3 -3 3 -6 0 -10c-51 -71 -107 -105 -190 -105c-89 0 -153 42 -188 112h-1c-37 -70 -102 -112 -187 -112c-135 0 -236 107 -236 262s101 262 236 262c85 0 150 -43 187 -113h1c35 70 97 113 179 113c132 0 204 -108 204 -246c0 -11 -4 -19 -16 -19h-310
c-10 0 -11 -8 -11 -13c2 -130 69 -191 156 -191c62 0 109 27 147 75c2 3 5 4 9 1zM281 31c85 0 140 73 140 219s-55 219 -140 219s-141 -73 -141 -219s56 -219 141 -219zM534 291h218c9 0 11 6 11 12c-5 106 -48 164 -121 164c-64 0 -112 -59 -123 -148c-3 -25 1 -28 15 -28
z" />
    <glyph glyph-name="Racute" unicode="&#x154;" horiz-adv-x="665" 
d="M215 409h96c97 0 141 51 141 152c0 110 -60 143 -153 143h-31c-51 0 -60 -10 -60 -70v-218c0 -4 3 -7 7 -7zM679 23v-18c0 -3 -2 -6 -5 -7c-14 -6 -27 -10 -49 -10c-34 0 -63 5 -86 18c-35 20 -57 63 -64 152c-11 130 -44 201 -154 201h-106c-4 0 -7 -3 -7 -7v-207
c0 -99 14 -113 75 -115l26 -1c5 0 6 -3 6 -6v-18c0 -3 -2 -5 -5 -5h-286c-3 0 -5 2 -5 5v18c0 3 1 5 5 6l62 10c19 3 26 11 26 38v538c0 99 -14 100 -75 105l-18 1c-4 0 -5 3 -5 6v18c0 3 2 5 4 5h283c148 0 251 -43 251 -180c0 -94 -55 -152 -144 -181v-2
c92 -17 143 -85 154 -189c10 -92 17 -174 87 -174c10 0 18 1 24 3c5 2 6 -1 6 -4zM415 893l-192 -83c-6 -2 -10 0 -15 9c-5 8 -5 13 0 17l168 125c26 19 48 17 63 -10c14 -25 5 -45 -24 -58z" />
    <glyph glyph-name="racute" unicode="&#x155;" horiz-adv-x="455" 
d="M269 0h-253c-2 0 -4 2 -4 5v16c0 3 1 5 4 6l52 10c19 3 27 11 27 38v312c0 79 -14 82 -65 85l-18 1c-4 0 -5 3 -5 6v16c0 3 2 5 4 5h158c2 0 4 -2 4 -5l4 -78l2 -1c44 67 100 96 159 96c47 0 102 -26 102 -83c0 -39 -24 -63 -56 -63s-56 25 -56 51c0 18 6 29 6 36
c0 9 -17 10 -22 10c-53 0 -127 -64 -127 -190v-145c0 -89 6 -95 67 -100l16 -1c4 0 5 -3 5 -6v-16c0 -3 -2 -5 -4 -5zM323 653l-192 -83c-6 -2 -10 0 -15 9c-5 8 -5 13 0 17l168 125c26 19 48 17 63 -10c14 -25 5 -45 -24 -58z" />
    <glyph glyph-name="Rcommaaccent" unicode="&#x156;" horiz-adv-x="665" 
d="M215 409h96c97 0 141 51 141 152c0 110 -60 143 -153 143h-31c-51 0 -60 -10 -60 -70v-218c0 -4 3 -7 7 -7zM679 23v-18c0 -3 -2 -6 -5 -7c-14 -6 -27 -10 -49 -10c-34 0 -63 5 -86 18c-35 20 -57 63 -64 152c-11 130 -44 201 -154 201h-106c-4 0 -7 -3 -7 -7v-207
c0 -99 14 -113 75 -115l26 -1c5 0 6 -3 6 -6v-18c0 -3 -2 -5 -5 -5h-286c-3 0 -5 2 -5 5v18c0 3 1 5 5 6l62 10c19 3 26 11 26 38v538c0 99 -14 100 -75 105l-18 1c-4 0 -5 3 -5 6v18c0 3 2 5 4 5h283c148 0 251 -43 251 -180c0 -94 -55 -152 -144 -181v-2
c92 -17 143 -85 154 -189c10 -92 17 -174 87 -174c10 0 18 1 24 3c5 2 6 -1 6 -4zM307 -267c-7 -1 -9 2 -10 7c-2 7 -1 12 4 13c60 16 84 65 84 97c0 9 -3 12 -8 12c-7 0 -14 -3 -24 -3c-24 0 -43 21 -43 47c0 27 20 48 52 48c45 0 70 -38 70 -82c0 -55 -40 -123 -125 -139z
" />
    <glyph glyph-name="rcommaaccent" unicode="&#x157;" horiz-adv-x="455" 
d="M269 0h-253c-2 0 -4 2 -4 5v16c0 3 1 5 4 6l52 10c19 3 27 11 27 38v312c0 79 -14 82 -65 85l-18 1c-4 0 -5 3 -5 6v16c0 3 2 5 4 5h158c2 0 4 -2 4 -5l4 -78l2 -1c44 67 100 96 159 96c47 0 102 -26 102 -83c0 -39 -24 -63 -56 -63s-56 25 -56 51c0 18 6 29 6 36
c0 9 -17 10 -22 10c-53 0 -127 -64 -127 -190v-145c0 -89 6 -95 67 -100l16 -1c4 0 5 -3 5 -6v-16c0 -3 -2 -5 -4 -5zM84 -267c-7 -1 -9 2 -10 7c-2 7 -1 12 4 13c60 16 84 65 84 97c0 9 -3 12 -8 12c-7 0 -14 -3 -24 -3c-24 0 -43 21 -43 47c0 27 20 48 52 48
c45 0 70 -38 70 -82c0 -55 -40 -123 -125 -139z" />
    <glyph glyph-name="Rcaron" unicode="&#x158;" horiz-adv-x="665" 
d="M215 409h96c97 0 141 51 141 152c0 110 -60 143 -153 143h-31c-51 0 -60 -10 -60 -70v-218c0 -4 3 -7 7 -7zM679 23v-18c0 -3 -2 -6 -5 -7c-14 -6 -27 -10 -49 -10c-34 0 -63 5 -86 18c-35 20 -57 63 -64 152c-11 130 -44 201 -154 201h-106c-4 0 -7 -3 -7 -7v-207
c0 -99 14 -113 75 -115l26 -1c5 0 6 -3 6 -6v-18c0 -3 -2 -5 -5 -5h-286c-3 0 -5 2 -5 5v18c0 3 1 5 5 6l62 10c19 3 26 11 26 38v538c0 99 -14 100 -75 105l-18 1c-4 0 -5 3 -5 6v18c0 3 2 5 4 5h283c148 0 251 -43 251 -180c0 -94 -55 -152 -144 -181v-2
c92 -17 143 -85 154 -189c10 -92 17 -174 87 -174c10 0 18 1 24 3c5 2 6 -1 6 -4zM483 963l-140 -143c-10 -11 -21 -11 -31 -11s-21 0 -31 11l-140 143c-5 5 -4 11 2 18c6 8 10 11 16 7l153 -106l153 106c6 4 10 1 16 -7c6 -7 7 -13 2 -18z" />
    <glyph glyph-name="rcaron" unicode="&#x159;" horiz-adv-x="455" 
d="M269 0h-253c-2 0 -4 2 -4 5v16c0 3 1 5 4 6l52 10c19 3 27 11 27 38v312c0 79 -14 82 -65 85l-18 1c-4 0 -5 3 -5 6v16c0 3 2 5 4 5h158c2 0 4 -2 4 -5l4 -78l2 -1c44 67 100 96 159 96c47 0 102 -26 102 -83c0 -39 -24 -63 -56 -63s-56 25 -56 51c0 18 6 29 6 36
c0 9 -17 10 -22 10c-53 0 -127 -64 -127 -190v-145c0 -89 6 -95 67 -100l16 -1c4 0 5 -3 5 -6v-16c0 -3 -2 -5 -4 -5zM399 733l-140 -143c-10 -11 -21 -11 -31 -11s-21 0 -31 11l-140 143c-5 5 -4 11 2 18c6 8 10 11 16 7l153 -106l153 106c6 4 10 1 16 -7c6 -7 7 -13 2 -18
z" />
    <glyph glyph-name="Sacute" unicode="&#x15a;" horiz-adv-x="576" 
d="M72 0h-20c-3 0 -4 1 -4 4l-3 238c0 5 3 6 7 6h22c5 0 8 -1 9 -7c28 -151 136 -202 220 -202c82 0 148 59 148 144c0 91 -93 133 -190 175c-100 43 -192 95 -192 224c0 103 87 180 204 180c68 0 121 -18 178 -59c6 -4 14 -6 17 7l9 36c1 3 2 4 5 4h20c3 0 4 -1 4 -4
l2 -223c0 -5 -3 -6 -7 -6h-22c-5 0 -8 1 -9 7c-30 137 -98 189 -197 189c-59 0 -118 -38 -118 -110c0 -84 59 -116 158 -157c118 -49 224 -117 224 -242c0 -124 -93 -216 -235 -216c-77 0 -137 23 -194 67c-6 5 -14 6 -18 -7l-13 -44c-1 -3 -2 -4 -5 -4zM382 893l-192 -83
c-6 -2 -10 0 -15 9c-5 8 -5 13 0 17l168 125c26 19 48 17 63 -10c14 -25 5 -45 -24 -58z" />
    <glyph glyph-name="sacute" unicode="&#x15b;" horiz-adv-x="473" 
d="M72 -7h-17c-3 0 -4 1 -4 4l-1 182c0 5 3 6 7 6h15c5 0 8 -1 9 -7c6 -26 15 -53 23 -69c28 -55 80 -75 143 -75c68 0 112 42 112 90c0 60 -68 77 -144 101c-79 25 -155 63 -155 149c0 94 78 138 160 138c59 0 103 -15 132 -31c6 -3 12 -6 14 5l5 18c1 3 2 4 5 4h17
c3 0 4 -1 4 -4v-161c0 -5 -3 -6 -7 -6h-15c-5 0 -8 1 -9 7c-3 17 -13 46 -20 59c-27 50 -75 64 -122 64c-60 0 -90 -30 -90 -70c0 -46 44 -67 127 -93c80 -25 170 -66 170 -159c0 -96 -79 -157 -181 -157c-79 0 -129 24 -152 38c-6 4 -11 6 -14 -5l-7 -24c-1 -3 -2 -4 -5 -4
zM324 653l-192 -83c-6 -2 -10 0 -15 9c-5 8 -5 13 0 17l168 125c26 19 48 17 63 -10c14 -25 5 -45 -24 -58z" />
    <glyph glyph-name="Scircumflex" unicode="&#x15c;" horiz-adv-x="576" 
d="M72 0h-20c-3 0 -4 1 -4 4l-3 238c0 5 3 6 7 6h22c5 0 8 -1 9 -7c28 -151 136 -202 220 -202c82 0 148 59 148 144c0 91 -93 133 -190 175c-100 43 -192 95 -192 224c0 103 87 180 204 180c68 0 121 -18 178 -59c6 -4 14 -6 17 7l9 36c1 3 2 4 5 4h20c3 0 4 -1 4 -4
l2 -223c0 -5 -3 -6 -7 -6h-22c-5 0 -8 1 -9 7c-30 137 -98 189 -197 189c-59 0 -118 -38 -118 -110c0 -84 59 -116 158 -157c118 -49 224 -117 224 -242c0 -124 -93 -216 -235 -216c-77 0 -137 23 -194 67c-6 5 -14 6 -18 -7l-13 -44c-1 -3 -2 -4 -5 -4zM441 807l-153 106
l-153 -106c-6 -4 -10 -1 -16 7c-6 7 -7 13 -2 18l140 143c10 11 21 11 31 11s21 0 31 -11l140 -143c5 -5 4 -11 -2 -18c-6 -8 -10 -11 -16 -7z" />
    <glyph glyph-name="scircumflex" unicode="&#x15d;" horiz-adv-x="473" 
d="M72 -7h-17c-3 0 -4 1 -4 4l-1 182c0 5 3 6 7 6h15c5 0 8 -1 9 -7c6 -26 15 -53 23 -69c28 -55 80 -75 143 -75c68 0 112 42 112 90c0 60 -68 77 -144 101c-79 25 -155 63 -155 149c0 94 78 138 160 138c59 0 103 -15 132 -31c6 -3 12 -6 14 5l5 18c1 3 2 4 5 4h17
c3 0 4 -1 4 -4v-161c0 -5 -3 -6 -7 -6h-15c-5 0 -8 1 -9 7c-3 17 -13 46 -20 59c-27 50 -75 64 -122 64c-60 0 -90 -30 -90 -70c0 -46 44 -67 127 -93c80 -25 170 -66 170 -159c0 -96 -79 -157 -181 -157c-79 0 -129 24 -152 38c-6 4 -11 6 -14 -5l-7 -24c-1 -3 -2 -4 -5 -4
zM390 572l-153 106l-153 -106c-6 -4 -10 -1 -16 7c-6 7 -7 13 -2 18l140 143c10 11 21 11 31 11s21 0 31 -11l140 -143c5 -5 4 -11 -2 -18c-6 -8 -10 -11 -16 -7z" />
    <glyph glyph-name="Scedilla" unicode="&#x15e;" horiz-adv-x="576" 
d="M226 -103l-8 8c-2 2 -3 3 -1 8l35 79c-54 8 -100 29 -144 63c-6 5 -14 6 -18 -7l-13 -44c-1 -3 -2 -4 -5 -4h-20c-3 0 -4 1 -4 4l-3 238c0 5 3 6 7 6h22c5 0 8 -1 9 -7c28 -151 136 -202 220 -202c82 0 148 59 148 144c0 91 -93 133 -190 175c-100 43 -192 95 -192 224
c0 103 87 180 204 180c68 0 121 -18 178 -59c6 -4 14 -6 17 7l9 36c1 3 2 4 5 4h20c3 0 4 -1 4 -4l2 -223c0 -5 -3 -6 -7 -6h-22c-5 0 -8 1 -9 7c-30 137 -98 189 -197 189c-59 0 -118 -38 -118 -110c0 -84 59 -116 158 -157c118 -49 224 -117 224 -242
c0 -124 -93 -216 -235 -216h-17l-19 -58c6 1 12 1 20 1c48 0 110 -25 110 -86s-52 -94 -117 -94c-47 0 -81 13 -106 29c-5 3 -5 6 2 19s9 13 15 10c19 -9 51 -18 79 -18c43 0 71 22 71 58c0 33 -30 51 -68 51c-14 0 -25 -2 -38 -5c-4 -1 -7 1 -8 2z" />
    <glyph glyph-name="scedilla" unicode="&#x15f;" horiz-adv-x="473" 
d="M174 -103l-8 8c-2 2 -3 3 -1 8l35 79c-51 7 -84 23 -102 34c-6 4 -11 6 -14 -5l-7 -24c-1 -3 -2 -4 -5 -4h-17c-3 0 -4 1 -4 4l-1 182c0 5 3 6 7 6h15c5 0 8 -1 9 -7c6 -26 15 -53 23 -69c28 -55 80 -75 143 -75c68 0 112 42 112 90c0 60 -68 77 -144 101
c-79 25 -155 63 -155 149c0 94 78 138 160 138c59 0 103 -15 132 -31c6 -3 12 -6 14 5l5 18c1 3 2 4 5 4h17c3 0 4 -1 4 -4v-161c0 -5 -3 -6 -7 -6h-15c-5 0 -8 1 -9 7c-3 17 -13 46 -20 59c-27 50 -75 64 -122 64c-60 0 -90 -30 -90 -70c0 -46 44 -67 127 -93
c80 -25 170 -66 170 -159c0 -96 -79 -157 -181 -157h-17l-19 -58c6 1 12 1 20 1c48 0 110 -25 110 -86s-52 -94 -117 -94c-47 0 -81 13 -106 29c-5 3 -5 6 2 19s9 13 15 10c19 -9 51 -18 79 -18c43 0 71 22 71 58c0 33 -30 51 -68 51c-14 0 -25 -2 -38 -5c-4 -1 -7 1 -8 2z
" />
    <glyph glyph-name="Scaron" unicode="&#x160;" horiz-adv-x="573" 
d="M70 0h-20c-3 0 -4 1 -4 4l-3 238c0 5 3 6 7 6h22c5 0 8 -1 9 -7c28 -151 136 -202 220 -202c82 0 148 59 148 144c0 91 -93 133 -190 175c-100 43 -192 95 -192 224c0 103 87 180 204 180c68 0 121 -18 178 -59c6 -4 14 -6 17 7l9 36c1 3 2 4 5 4h20c3 0 4 -1 4 -4
l2 -223c0 -5 -3 -6 -7 -6h-22c-5 0 -8 1 -9 7c-30 137 -98 189 -197 189c-59 0 -118 -38 -118 -110c0 -84 59 -116 158 -157c118 -49 224 -117 224 -242c0 -124 -93 -216 -235 -216c-77 0 -137 23 -194 67c-6 5 -14 6 -18 -7l-13 -44c-1 -3 -2 -4 -5 -4zM460 973l-140 -143
c-10 -11 -21 -11 -31 -11s-21 0 -31 11l-140 143c-5 5 -4 11 2 18c6 8 10 11 16 7l153 -106l153 106c6 4 10 1 16 -7c6 -7 7 -13 2 -18z" />
    <glyph glyph-name="scaron" unicode="&#x161;" horiz-adv-x="473" 
d="M72 -7h-17c-3 0 -4 1 -4 4l-1 182c0 5 3 6 7 6h15c5 0 8 -1 9 -7c6 -26 15 -53 23 -69c28 -55 80 -75 143 -75c68 0 112 42 112 90c0 60 -68 77 -144 101c-79 25 -155 63 -155 149c0 94 78 138 160 138c59 0 103 -15 132 -31c6 -3 12 -6 14 5l5 18c1 3 2 4 5 4h17
c3 0 4 -1 4 -4v-161c0 -5 -3 -6 -7 -6h-15c-5 0 -8 1 -9 7c-3 17 -13 46 -20 59c-27 50 -75 64 -122 64c-60 0 -90 -30 -90 -70c0 -46 44 -67 127 -93c80 -25 170 -66 170 -159c0 -96 -79 -157 -181 -157c-79 0 -129 24 -152 38c-6 4 -11 6 -14 -5l-7 -24c-1 -3 -2 -4 -5 -4
zM412 733l-140 -143c-10 -11 -21 -11 -31 -11s-21 0 -31 11l-140 143c-5 5 -4 11 2 18c6 8 10 11 16 7l153 -106l153 106c6 4 10 1 16 -7c6 -7 7 -13 2 -18z" />
    <glyph glyph-name="Tcommaaccent" unicode="&#x162;" horiz-adv-x="682" 
d="M488 0h-293c-3 0 -5 2 -5 5v19c0 3 1 5 5 6l71 10c19 3 27 11 27 38v574c0 40 -9 50 -50 50h-56c-74 0 -92 -12 -97 -71l-8 -108c0 -5 -4 -6 -7 -6h-30c-4 0 -7 1 -7 6l2 216c0 6 5 11 11 11h580c6 0 11 -5 11 -11l2 -216c0 -5 -3 -6 -7 -6h-30c-3 0 -7 1 -7 6l-8 108
c-5 59 -23 71 -97 71h-56c-41 0 -50 -10 -50 -50v-516c0 -99 15 -102 76 -105l22 -1c5 0 6 -3 6 -6v-19c0 -3 -2 -5 -5 -5zM284 -267c-7 -1 -9 2 -10 7c-2 7 -1 12 4 13c60 16 84 65 84 97c0 9 -3 12 -8 12c-7 0 -14 -3 -24 -3c-24 0 -43 21 -43 47c0 27 20 48 52 48
c45 0 70 -38 70 -82c0 -55 -40 -123 -125 -139z" />
    <glyph glyph-name="tcommaaccent" unicode="&#x163;" horiz-adv-x="386" 
d="M358 160v-24c0 -88 -33 -151 -124 -151c-68 0 -112 40 -129 101c-5 19 -8 41 -8 84v285h-80c-4 0 -7 3 -7 7v31c0 4 3 7 7 7h21c63 0 77 16 87 87l8 60c1 8 4 12 13 12h29c9 0 12 -3 12 -11v-148h139c4 0 7 -3 7 -7v-31c0 -4 -3 -7 -7 -7h-139v-308
c0 -68 18 -113 64 -113c38 0 63 26 63 101v29c0 10 3 12 9 12h20c11 0 15 -2 15 -16zM159 -267c-7 -1 -9 2 -10 7c-2 7 -1 12 4 13c60 16 84 65 84 97c0 9 -3 12 -8 12c-7 0 -14 -3 -24 -3c-24 0 -43 21 -43 47c0 27 20 48 52 48c45 0 70 -38 70 -82
c0 -55 -40 -123 -125 -139z" />
    <glyph glyph-name="Tcaron" unicode="&#x164;" horiz-adv-x="682" 
d="M488 0h-293c-3 0 -5 2 -5 5v19c0 3 1 5 5 6l71 10c19 3 27 11 27 38v574c0 40 -9 50 -50 50h-56c-74 0 -92 -12 -97 -71l-8 -108c0 -5 -4 -6 -7 -6h-30c-4 0 -7 1 -7 6l2 216c0 6 5 11 11 11h580c6 0 11 -5 11 -11l2 -216c0 -5 -3 -6 -7 -6h-30c-3 0 -7 1 -7 6l-8 108
c-5 59 -23 71 -97 71h-56c-41 0 -50 -10 -50 -50v-516c0 -99 15 -102 76 -105l22 -1c5 0 6 -3 6 -6v-19c0 -3 -2 -5 -5 -5zM512 973l-140 -143c-10 -11 -21 -11 -31 -11s-21 0 -31 11l-140 143c-5 5 -4 11 2 18c6 8 10 11 16 7l153 -106l153 106c6 4 10 1 16 -7
c6 -7 7 -13 2 -18z" />
    <glyph glyph-name="tcaron" unicode="&#x165;" horiz-adv-x="493" 
d="M358 160v-24c0 -88 -33 -151 -124 -151c-68 0 -112 40 -129 101c-5 19 -8 41 -8 84v285h-80c-4 0 -7 3 -7 7v31c0 4 3 7 7 7h21c63 0 77 16 87 87l8 60c1 8 4 12 13 12h29c9 0 12 -3 12 -11v-148h139c4 0 7 -3 7 -7v-31c0 -4 -3 -7 -7 -7h-139v-308
c0 -68 18 -113 64 -113c38 0 63 26 63 101v29c0 10 3 12 9 12h20c11 0 15 -2 15 -16zM378 564c-7 -1 -9 2 -10 7c-2 7 -1 12 4 13c60 16 84 65 84 97c0 9 -3 12 -8 12c-7 0 -14 -3 -24 -3c-24 0 -43 21 -43 47c0 27 20 48 52 48c45 0 70 -38 70 -82
c0 -55 -40 -123 -125 -139z" />
    <glyph glyph-name="Tbar" unicode="&#x166;" horiz-adv-x="682" 
d="M488 0h-293c-3 0 -5 2 -5 5v19c0 3 1 5 5 6l71 10c19 3 27 11 27 38v290h-155c-4 0 -7 3 -7 7v34c0 4 3 7 7 7h155v236c0 40 -9 50 -50 50h-56c-74 0 -92 -12 -97 -71l-8 -108c0 -5 -4 -6 -7 -6h-30c-4 0 -7 1 -7 6l2 216c0 6 5 11 11 11h580c6 0 11 -5 11 -11l2 -216
c0 -5 -3 -6 -7 -6h-30c-3 0 -7 1 -7 6l-8 108c-5 59 -23 71 -97 71h-56c-41 0 -50 -10 -50 -50v-236h155c4 0 7 -3 7 -7v-34c0 -4 -3 -7 -7 -7h-155v-232c0 -99 15 -102 76 -105l22 -1c5 0 6 -3 6 -6v-19c0 -3 -2 -5 -5 -5z" />
    <glyph glyph-name="tbar" unicode="&#x167;" horiz-adv-x="398" 
d="M370 160v-24c0 -88 -33 -151 -124 -151c-68 0 -112 40 -129 101c-5 19 -8 41 -8 84v138h-80c-4 0 -7 3 -7 7v31c0 4 3 7 7 7h80v102h-80c-4 0 -7 3 -7 7v31c0 4 3 7 7 7h21c63 0 77 16 87 87l8 60c1 8 4 12 13 12h29c9 0 12 -3 12 -11v-148h139c4 0 7 -3 7 -7v-31
c0 -4 -3 -7 -7 -7h-139v-102h139c4 0 7 -3 7 -7v-31c0 -4 -3 -7 -7 -7h-139v-161c0 -68 18 -113 64 -113c38 0 63 26 63 101v29c0 10 3 12 9 12h20c11 0 15 -2 15 -16z" />
    <glyph glyph-name="Utilde" unicode="&#x168;" horiz-adv-x="763" 
d="M597 276v339c0 99 -14 100 -75 105l-12 1c-5 0 -6 3 -6 6v18c0 3 2 5 5 5h240c3 0 5 -2 5 -5v-18c0 -3 -1 -5 -5 -6l-61 -10c-19 -3 -27 -11 -27 -38v-396c0 -177 -84 -289 -280 -289c-161 0 -279 82 -279 274v353c0 99 -14 100 -75 105l-17 1c-5 0 -6 3 -6 6v18
c0 3 2 5 5 5h277c3 0 5 -2 5 -5v-18c0 -3 -1 -5 -5 -6l-62 -10c-19 -3 -26 -11 -26 -38v-409c0 -123 61 -214 197 -214c151 0 202 98 202 226zM549 956l11 -2c7 -1 9 -4 8 -11c-7 -54 -31 -117 -105 -117c-70 0 -104 75 -155 75c-26 0 -51 -13 -63 -62c-3 -10 -6 -10 -12 -9
l-11 2c-7 1 -9 4 -8 11c7 54 31 117 105 117c70 0 104 -75 155 -75c26 0 51 13 63 62c3 10 6 10 12 9z" />
    <glyph glyph-name="utilde" unicode="&#x169;" horiz-adv-x="603" 
d="M597 0h-159c-2 0 -4 2 -4 5l-5 76l-2 1c-46 -58 -102 -94 -167 -94c-76 0 -136 34 -160 113c-8 24 -12 52 -12 105v181c0 69 -14 81 -65 85l-13 1c-4 0 -5 3 -5 6v16c0 3 2 5 4 5h166c2 0 4 -2 4 -5v-308c0 -106 34 -146 97 -146c52 0 97 33 127 79c15 22 19 48 19 80
v187c0 69 -14 81 -60 85l-13 1c-4 0 -5 3 -5 6v16c0 3 2 5 4 5h161c2 0 4 -2 4 -5v-382c0 -79 14 -82 65 -85l18 -1c4 0 5 -3 5 -6v-16c0 -3 -2 -5 -4 -5zM452 716l11 -2c7 -1 9 -4 8 -11c-7 -54 -31 -117 -105 -117c-70 0 -104 75 -155 75c-26 0 -51 -13 -63 -62
c-3 -10 -6 -10 -12 -9l-11 2c-7 1 -9 4 -8 11c7 54 31 117 105 117c70 0 104 -75 155 -75c26 0 51 13 63 62c3 10 6 10 12 9z" />
    <glyph glyph-name="Umacron" unicode="&#x16a;" horiz-adv-x="763" 
d="M597 276v339c0 99 -14 100 -75 105l-12 1c-5 0 -6 3 -6 6v18c0 3 2 5 5 5h240c3 0 5 -2 5 -5v-18c0 -3 -1 -5 -5 -6l-61 -10c-19 -3 -27 -11 -27 -38v-396c0 -177 -84 -289 -280 -289c-161 0 -279 82 -279 274v353c0 99 -14 100 -75 105l-17 1c-5 0 -6 3 -6 6v18
c0 3 2 5 5 5h277c3 0 5 -2 5 -5v-18c0 -3 -1 -5 -5 -6l-62 -10c-19 -3 -26 -11 -26 -38v-409c0 -123 61 -214 197 -214c151 0 202 98 202 226zM539 838h-315c-4 0 -7 3 -7 7v40c0 4 3 7 7 7h315c4 0 7 -3 7 -7v-40c0 -4 -3 -7 -7 -7z" />
    <glyph glyph-name="umacron" unicode="&#x16b;" horiz-adv-x="603" 
d="M597 0h-159c-2 0 -4 2 -4 5l-5 76l-2 1c-46 -58 -102 -94 -167 -94c-76 0 -136 34 -160 113c-8 24 -12 52 -12 105v181c0 69 -14 81 -65 85l-13 1c-4 0 -5 3 -5 6v16c0 3 2 5 4 5h166c2 0 4 -2 4 -5v-308c0 -106 34 -146 97 -146c52 0 97 33 127 79c15 22 19 48 19 80
v187c0 69 -14 81 -60 85l-13 1c-4 0 -5 3 -5 6v16c0 3 2 5 4 5h161c2 0 4 -2 4 -5v-382c0 -79 14 -82 65 -85l18 -1c4 0 5 -3 5 -6v-16c0 -3 -2 -5 -4 -5zM447 598h-315c-4 0 -7 3 -7 7v40c0 4 3 7 7 7h315c4 0 7 -3 7 -7v-40c0 -4 -3 -7 -7 -7z" />
    <glyph glyph-name="Ubreve" unicode="&#x16c;" horiz-adv-x="763" 
d="M597 276v339c0 99 -14 100 -75 105l-12 1c-5 0 -6 3 -6 6v18c0 3 2 5 5 5h240c3 0 5 -2 5 -5v-18c0 -3 -1 -5 -5 -6l-61 -10c-19 -3 -27 -11 -27 -38v-396c0 -177 -84 -289 -280 -289c-161 0 -279 82 -279 274v353c0 99 -14 100 -75 105l-17 1c-5 0 -6 3 -6 6v18
c0 3 2 5 5 5h277c3 0 5 -2 5 -5v-18c0 -3 -1 -5 -5 -6l-62 -10c-19 -3 -26 -11 -26 -38v-409c0 -123 61 -214 197 -214c151 0 202 98 202 226zM519 973h20c7 0 9 -3 9 -10c-1 -88 -69 -151 -157 -151s-156 63 -157 151c0 7 2 10 9 10h20c6 0 9 0 11 -10
c11 -55 52 -91 117 -91c66 0 106 36 117 91c2 10 5 10 11 10z" />
    <glyph glyph-name="ubreve" unicode="&#x16d;" horiz-adv-x="603" 
d="M597 0h-159c-2 0 -4 2 -4 5l-5 76l-2 1c-46 -58 -102 -94 -167 -94c-76 0 -136 34 -160 113c-8 24 -12 52 -12 105v181c0 69 -14 81 -65 85l-13 1c-4 0 -5 3 -5 6v16c0 3 2 5 4 5h166c2 0 4 -2 4 -5v-308c0 -106 34 -146 97 -146c52 0 97 33 127 79c15 22 19 48 19 80
v187c0 69 -14 81 -60 85l-13 1c-4 0 -5 3 -5 6v16c0 3 2 5 4 5h161c2 0 4 -2 4 -5v-382c0 -79 14 -82 65 -85l18 -1c4 0 5 -3 5 -6v-16c0 -3 -2 -5 -4 -5zM417 733h20c7 0 9 -3 9 -10c-1 -88 -69 -151 -157 -151s-156 63 -157 151c0 7 2 10 9 10h20c6 0 9 0 11 -10
c11 -55 52 -91 117 -91c66 0 106 36 117 91c2 10 5 10 11 10z" />
    <glyph glyph-name="Uring" unicode="&#x16e;" horiz-adv-x="763" 
d="M597 276v339c0 99 -14 100 -75 105l-12 1c-5 0 -6 3 -6 6v18c0 3 2 5 5 5h240c3 0 5 -2 5 -5v-18c0 -3 -1 -5 -5 -6l-61 -10c-19 -3 -27 -11 -27 -38v-396c0 -177 -84 -289 -280 -289c-161 0 -279 82 -279 274v353c0 99 -14 100 -75 105l-17 1c-5 0 -6 3 -6 6v18
c0 3 2 5 5 5h277c3 0 5 -2 5 -5v-18c0 -3 -1 -5 -5 -6l-62 -10c-19 -3 -26 -11 -26 -38v-409c0 -123 61 -214 197 -214c151 0 202 98 202 226zM393 818c-57 0 -102 45 -102 102s45 102 102 102s102 -45 102 -102s-45 -102 -102 -102zM393 852c36 0 64 30 64 68
s-28 68 -64 68s-64 -30 -64 -68s28 -68 64 -68z" />
    <glyph glyph-name="uring" unicode="&#x16f;" horiz-adv-x="603" 
d="M597 0h-159c-2 0 -4 2 -4 5l-5 76l-2 1c-46 -58 -102 -94 -167 -94c-76 0 -136 34 -160 113c-8 24 -12 52 -12 105v181c0 69 -14 81 -65 85l-13 1c-4 0 -5 3 -5 6v16c0 3 2 5 4 5h166c2 0 4 -2 4 -5v-308c0 -106 34 -146 97 -146c52 0 97 33 127 79c15 22 19 48 19 80
v187c0 69 -14 81 -60 85l-13 1c-4 0 -5 3 -5 6v16c0 3 2 5 4 5h161c2 0 4 -2 4 -5v-382c0 -79 14 -82 65 -85l18 -1c4 0 5 -3 5 -6v-16c0 -3 -2 -5 -4 -5zM288 578c-57 0 -102 45 -102 102s45 102 102 102s102 -45 102 -102s-45 -102 -102 -102zM288 612c36 0 64 30 64 68
s-28 68 -64 68s-64 -30 -64 -68s28 -68 64 -68z" />
    <glyph glyph-name="Uhungarumlaut" unicode="&#x170;" horiz-adv-x="763" 
d="M597 276v339c0 99 -14 100 -75 105l-12 1c-5 0 -6 3 -6 6v18c0 3 2 5 5 5h240c3 0 5 -2 5 -5v-18c0 -3 -1 -5 -5 -6l-61 -10c-19 -3 -27 -11 -27 -38v-396c0 -177 -84 -289 -280 -289c-161 0 -279 82 -279 274v353c0 99 -14 100 -75 105l-17 1c-5 0 -6 3 -6 6v18
c0 3 2 5 5 5h277c3 0 5 -2 5 -5v-18c0 -3 -1 -5 -5 -6l-62 -10c-19 -3 -26 -11 -26 -38v-409c0 -123 61 -214 197 -214c151 0 202 98 202 226zM408 903l-157 -94c-5 -3 -8 -1 -14 6c-6 6 -7 11 -2 15l128 130c20 21 42 21 59 -1c16 -20 11 -41 -14 -56zM601 903l-156 -94
c-5 -3 -9 -1 -15 6c-4 6 -5 11 -2 15l129 130c20 20 42 21 59 -1c17 -21 10 -41 -15 -56z" />
    <glyph glyph-name="uhungarumlaut" unicode="&#x171;" horiz-adv-x="603" 
d="M597 0h-159c-2 0 -4 2 -4 5l-5 76l-2 1c-46 -58 -102 -94 -167 -94c-76 0 -136 34 -160 113c-8 24 -12 52 -12 105v181c0 69 -14 81 -65 85l-13 1c-4 0 -5 3 -5 6v16c0 3 2 5 4 5h166c2 0 4 -2 4 -5v-308c0 -106 34 -146 97 -146c52 0 97 33 127 79c15 22 19 48 19 80
v187c0 69 -14 81 -60 85l-13 1c-4 0 -5 3 -5 6v16c0 3 2 5 4 5h161c2 0 4 -2 4 -5v-382c0 -79 14 -82 65 -85l18 -1c4 0 5 -3 5 -6v-16c0 -3 -2 -5 -4 -5zM296 663l-157 -94c-5 -3 -8 -1 -14 6c-6 6 -7 11 -2 15l128 130c20 21 42 21 59 -1c16 -20 11 -41 -14 -56zM489 663
l-156 -94c-5 -3 -9 -1 -15 6c-4 6 -5 11 -2 15l129 130c20 20 42 21 59 -1c17 -21 10 -41 -15 -56z" />
    <glyph glyph-name="Uogonek" unicode="&#x172;" horiz-adv-x="763" 
d="M398 -17l10 6c-9 0 -18 -1 -27 -1c-161 0 -279 82 -279 274v353c0 99 -14 100 -75 105l-17 1c-5 0 -6 3 -6 6v18c0 3 2 5 5 5h277c3 0 5 -2 5 -5v-18c0 -3 -1 -5 -5 -6l-62 -10c-19 -3 -26 -11 -26 -38v-409c0 -123 61 -214 197 -214c151 0 202 98 202 226v339
c0 99 -14 100 -75 105l-12 1c-5 0 -6 3 -6 6v18c0 3 2 5 5 5h240c3 0 5 -2 5 -5v-18c0 -3 -1 -5 -5 -6l-61 -10c-19 -3 -27 -11 -27 -38v-396c0 -111 -32 -196 -106 -244c-50 -32 -79 -39 -137 -81c-48 -35 -64 -66 -64 -99c0 -36 28 -60 71 -60c28 0 60 11 79 20
c6 3 9 2 16 -12s6 -18 1 -21c-24 -16 -59 -30 -106 -30c-65 0 -117 34 -117 95s37 102 100 138z" />
    <glyph glyph-name="uogonek" unicode="&#x173;" horiz-adv-x="603" 
d="M597 0h-41l-62 -48c-47 -37 -64 -66 -64 -99c0 -36 28 -60 71 -60c28 0 60 11 79 20c6 3 9 2 16 -12s6 -18 1 -21c-24 -16 -59 -30 -106 -30c-65 0 -117 34 -117 95s37 102 100 138l29 17h-65c-2 0 -4 2 -4 5l-5 76l-2 1c-46 -58 -102 -94 -167 -94
c-76 0 -136 34 -160 113c-8 24 -12 52 -12 105v181c0 69 -14 81 -65 85l-13 1c-4 0 -5 3 -5 6v16c0 3 2 5 4 5h166c2 0 4 -2 4 -5v-308c0 -106 34 -146 97 -146c52 0 97 33 127 79c15 22 19 48 19 80v187c0 69 -14 81 -60 85l-13 1c-4 0 -5 3 -5 6v16c0 3 2 5 4 5h161
c2 0 4 -2 4 -5v-382c0 -79 14 -82 65 -85l18 -1c4 0 5 -3 5 -6v-16c0 -3 -2 -5 -4 -5z" />
    <glyph glyph-name="Wcircumflex" unicode="&#x174;" horiz-adv-x="1068" 
d="M727 0h-47c-6 0 -8 2 -10 7l-130 341l-128 -341c-2 -5 -4 -7 -10 -7h-47c-6 0 -8 2 -10 7l-241 634c-24 62 -34 75 -78 79l-11 1c-5 0 -6 3 -6 6v18c0 3 2 5 5 5h230c3 0 6 -2 6 -5v-17c0 -3 -1 -5 -5 -6l-35 -6c-27 -5 -31 -20 -20 -50l201 -548h2l115 313l-79 210
c-24 62 -27 75 -73 79l-11 1c-5 0 -6 3 -6 6v18c0 3 2 5 5 5h385c3 0 5 -2 5 -5v-18c0 -3 -1 -5 -5 -6l-19 -2c-28 -3 -35 -16 -47 -47l-79 -209l129 -353h2l188 545c5 16 8 28 8 37c0 19 -15 23 -40 25l-41 4c-5 0 -6 3 -6 6v18c0 3 2 5 5 5h225c3 0 5 -2 5 -5v-18
c0 -3 -1 -5 -5 -6l-30 -4c-26 -3 -35 -14 -46 -45l-241 -665c-2 -5 -4 -7 -10 -7zM552 545l41 116c16 45 12 60 -19 60h-48c-27 0 -30 -19 -20 -47zM687 812l-153 106l-153 -106c-6 -4 -10 -1 -16 7c-6 7 -7 13 -2 18l140 143c10 11 21 11 31 11s21 0 31 -11l140 -143
c5 -5 4 -11 -2 -18c-6 -8 -10 -11 -16 -7z" />
    <glyph glyph-name="wcircumflex" unicode="&#x175;" horiz-adv-x="799" 
d="M580 0h-53c-6 0 -8 2 -10 7l-115 339h-2l-120 -339c-2 -5 -4 -7 -10 -7h-53c-6 0 -8 2 -10 7l-123 386c-20 63 -29 74 -70 80c-5 1 -6 3 -6 6v16c0 3 2 5 5 5h207c3 0 6 -2 6 -5v-16c0 -3 -1 -5 -5 -6l-31 -4c-27 -4 -35 -20 -26 -51l95 -316h2l135 391c2 5 4 7 10 7h23
c6 0 8 -2 10 -7l127 -384h2l91 299c4 14 7 27 7 36c0 19 -15 25 -38 27l-21 2c-5 0 -6 3 -6 6v16c0 3 2 5 5 5h180c3 0 5 -2 5 -5v-16c0 -3 -1 -5 -5 -6l-17 -3c-28 -5 -35 -15 -45 -46l-134 -417c-2 -5 -4 -7 -10 -7zM569 572l-153 106l-153 -106c-6 -4 -10 -1 -16 7
c-6 7 -7 13 -2 18l140 143c10 11 21 11 31 11s21 0 31 -11l140 -143c5 -5 4 -11 -2 -18c-6 -8 -10 -11 -16 -7z" />
    <glyph glyph-name="Ycircumflex" unicode="&#x176;" horiz-adv-x="739" 
d="M511 0h-292c-3 0 -5 2 -5 5v18c0 3 1 5 5 6l71 10c19 3 27 11 27 38v273l-186 284c-43 66 -52 80 -91 84l-28 3c-4 1 -5 3 -5 6v18c0 3 2 5 5 5h262c3 0 4 -2 4 -5v-18c0 -3 0 -6 -5 -6l-13 -1c-45 -3 -60 -15 -27 -68l151 -244l162 246c34 51 24 63 -21 66l-13 1
c-5 0 -6 3 -6 6v18c0 3 2 5 5 5h216c3 0 5 -2 5 -5v-18c0 -3 -1 -5 -5 -6l-27 -3c-39 -4 -53 -25 -97 -90l-190 -278v-225c0 -91 14 -92 75 -95l22 -1c5 0 6 -3 6 -6v-18c0 -3 -2 -5 -5 -5zM537 812l-153 106l-153 -106c-6 -4 -10 -1 -16 7c-6 7 -7 13 -2 18l140 143
c10 11 21 11 31 11s21 0 31 -11l140 -143c5 -5 4 -11 -2 -18c-6 -8 -10 -11 -16 -7z" />
    <glyph glyph-name="ycircumflex" unicode="&#x177;" horiz-adv-x="578" 
d="M256 -39l18 44l-172 388c-26 60 -33 74 -74 79l-8 1c-5 1 -6 3 -6 6v16c0 3 2 5 5 5h218c3 0 6 -2 6 -5v-16c0 -3 -1 -5 -5 -6l-28 -5c-27 -4 -36 -20 -24 -50l129 -311l114 301c5 14 9 27 9 36c0 19 -15 25 -38 27l-21 2c-5 0 -6 3 -6 6v16c0 3 2 5 5 5h185
c3 0 5 -2 5 -5v-16c0 -3 -1 -5 -5 -6l-24 -4c-25 -4 -32 -14 -45 -45l-189 -476c-41 -104 -87 -179 -168 -179c-67 0 -120 47 -120 106c0 35 20 65 60 65c25 0 51 -17 51 -51c0 -33 -28 -45 -28 -55c0 -12 22 -18 39 -18c48 0 81 56 117 145zM461 572l-153 106l-153 -106
c-6 -4 -10 -1 -16 7c-6 7 -7 13 -2 18l140 143c10 11 21 11 31 11s21 0 31 -11l140 -143c5 -5 4 -11 -2 -18c-6 -8 -10 -11 -16 -7z" />
    <glyph glyph-name="Ydieresis" unicode="&#x178;" horiz-adv-x="739" 
d="M511 0h-292c-3 0 -5 2 -5 5v18c0 3 1 5 5 6l71 10c19 3 27 11 27 38v273l-186 284c-43 66 -52 80 -91 84l-28 3c-4 1 -5 3 -5 6v18c0 3 2 5 5 5h262c3 0 4 -2 4 -5v-18c0 -3 0 -6 -5 -6l-13 -1c-45 -3 -60 -15 -27 -68l151 -244l162 246c34 51 24 63 -21 66l-13 1
c-5 0 -6 3 -6 6v18c0 3 2 5 5 5h216c3 0 5 -2 5 -5v-18c0 -3 -1 -5 -5 -6l-27 -3c-39 -4 -53 -25 -97 -90l-190 -278v-225c0 -91 14 -92 75 -95l22 -1c5 0 6 -3 6 -6v-18c0 -3 -2 -5 -5 -5zM281 813c-29 0 -53 24 -53 53s24 53 53 53s53 -24 53 -53s-24 -53 -53 -53z
M491 813c-29 0 -53 24 -53 53s24 53 53 53s53 -24 53 -53s-24 -53 -53 -53z" />
    <glyph glyph-name="Zacute" unicode="&#x179;" horiz-adv-x="645" 
d="M586 0h-551c-4 0 -7 3 -7 7v23c0 5 1 8 3 11l427 642c11 17 4 19 -11 19h-238c-74 0 -92 -16 -97 -75l-7 -104c0 -5 -4 -6 -7 -6h-31c-4 0 -7 1 -7 6l2 216c0 6 5 11 11 11h508c4 0 7 -3 7 -7v-23c0 -5 -1 -8 -3 -11l-430 -642c-11 -17 -3 -19 12 -19h283
c74 0 93 16 97 75l8 129c0 5 4 6 7 6h30c4 0 7 -1 7 -6l-2 -241c0 -6 -5 -11 -11 -11zM431 893l-192 -83c-6 -2 -10 0 -15 9c-5 8 -5 13 0 17l168 125c26 19 48 17 63 -10c14 -25 5 -45 -24 -58z" />
    <glyph glyph-name="zacute" unicode="&#x17a;" horiz-adv-x="527" 
d="M470 0h-440v37l316 396c13 17 5 22 -12 22h-135c-74 0 -88 -19 -97 -78l-8 -55c-1 -5 -4 -6 -7 -6h-27c-4 0 -7 1 -7 6l2 167c0 6 5 11 11 11h406v-36l-320 -395c-14 -17 -6 -24 12 -24h171c74 0 91 19 97 78l9 84c0 5 4 6 7 6h28c4 0 7 -1 7 -6l-2 -196
c0 -6 -5 -11 -11 -11zM368 653l-192 -83c-6 -2 -10 0 -15 9c-5 8 -5 13 0 17l168 125c26 19 48 17 63 -10c14 -25 5 -45 -24 -58z" />
    <glyph glyph-name="Zdotaccent" unicode="&#x17b;" horiz-adv-x="645" 
d="M586 0h-551c-4 0 -7 3 -7 7v23c0 5 1 8 3 11l427 642c11 17 4 19 -11 19h-238c-74 0 -92 -16 -97 -75l-7 -104c0 -5 -4 -6 -7 -6h-31c-4 0 -7 1 -7 6l2 216c0 6 5 11 11 11h508c4 0 7 -3 7 -7v-23c0 -5 -1 -8 -3 -11l-430 -642c-11 -17 -3 -19 12 -19h283
c74 0 93 16 97 75l8 129c0 5 4 6 7 6h30c4 0 7 -1 7 -6l-2 -241c0 -6 -5 -11 -11 -11zM384 897c0 -35 -27 -61 -62 -61s-61 26 -61 61s26 62 61 62s62 -27 62 -62z" />
    <glyph glyph-name="zdotaccent" unicode="&#x17c;" horiz-adv-x="527" 
d="M470 0h-440v37l316 396c13 17 5 22 -12 22h-135c-74 0 -88 -19 -97 -78l-8 -55c-1 -5 -4 -6 -7 -6h-27c-4 0 -7 1 -7 6l2 167c0 6 5 11 11 11h406v-36l-320 -395c-14 -17 -6 -24 12 -24h171c74 0 91 19 97 78l9 84c0 5 4 6 7 6h28c4 0 7 -1 7 -6l-2 -196
c0 -6 -5 -11 -11 -11zM325 667c0 -35 -27 -61 -62 -61s-61 26 -61 61s26 62 61 62s62 -27 62 -62z" />
    <glyph glyph-name="Zcaron" unicode="&#x17d;" horiz-adv-x="645" 
d="M586 0h-551c-4 0 -7 3 -7 7v23c0 5 1 8 3 11l427 642c11 17 4 19 -11 19h-238c-74 0 -92 -16 -97 -75l-7 -104c0 -5 -4 -6 -7 -6h-31c-4 0 -7 1 -7 6l2 216c0 6 5 11 11 11h508c4 0 7 -3 7 -7v-23c0 -5 -1 -8 -3 -11l-430 -642c-11 -17 -3 -19 12 -19h283
c74 0 93 16 97 75l8 129c0 5 4 6 7 6h30c4 0 7 -1 7 -6l-2 -241c0 -6 -5 -11 -11 -11zM498 973l-140 -143c-10 -11 -21 -11 -31 -11s-21 0 -31 11l-140 143c-5 5 -4 11 2 18c6 8 10 11 16 7l153 -106l153 106c6 4 10 1 16 -7c6 -7 7 -13 2 -18z" />
    <glyph glyph-name="zcaron" unicode="&#x17e;" horiz-adv-x="527" 
d="M470 0h-440v37l316 396c13 17 5 22 -12 22h-135c-74 0 -88 -19 -97 -78l-8 -55c-1 -5 -4 -6 -7 -6h-27c-4 0 -7 1 -7 6l2 167c0 6 5 11 11 11h406v-36l-320 -395c-14 -17 -6 -24 12 -24h171c74 0 91 19 97 78l9 84c0 5 4 6 7 6h28c4 0 7 -1 7 -6l-2 -196
c0 -6 -5 -11 -11 -11zM438 733l-140 -143c-10 -11 -21 -11 -31 -11s-21 0 -31 11l-140 143c-5 5 -4 11 2 18c6 8 10 11 16 7l153 -106l153 106c6 4 10 1 16 -7c6 -7 7 -13 2 -18z" />
    <glyph glyph-name="longs" unicode="&#x17f;" horiz-adv-x="341" 
d="M281 0h-253c-2 0 -4 2 -4 5v16c0 3 1 5 4 6l52 10c19 3 27 11 27 38v380h-90c-4 0 -7 3 -7 7v31c0 4 3 7 7 7h90v93c0 109 44 190 148 190c75 0 137 -34 137 -96c0 -33 -23 -57 -55 -57s-54 24 -54 52c0 23 13 39 13 49c0 3 0 6 -5 9c-8 5 -18 7 -32 7
c-53 0 -62 -63 -62 -127v-492c0 -89 6 -95 67 -100l16 -1c4 0 5 -3 5 -6v-16c0 -3 -2 -5 -4 -5z" />
    <glyph glyph-name="florin" unicode="&#x192;" 
d="M540 0h-500v750h500v-750zM90 93l171 281l-171 281v-562zM490 93v562l-171 -281zM290 421l170 279h-340zM458 50l-168 276l-169 -276h337z" />
    <glyph glyph-name="dotlessj" unicode="&#x237;" horiz-adv-x="294" 
d="M133 -87v474c0 79 -14 82 -65 85l-26 1c-4 0 -5 3 -5 6v16c0 3 2 5 4 5h178c2 0 4 -2 4 -5v-555c0 -109 -42 -190 -146 -190c-33 0 -63 8 -87 22c-31 18 -51 46 -51 76c0 33 22 57 54 57s54 -24 54 -52c0 -23 -14 -41 -14 -51c0 -3 1 -6 6 -9c8 -4 18 -7 32 -7
c53 0 62 63 62 127z" />
    <glyph glyph-name="circumflex" unicode="&#x2c6;" horiz-adv-x="560" 
d="M433 572l-153 106l-153 -106c-6 -4 -10 -1 -16 7c-6 7 -7 13 -2 18l140 143c10 11 21 11 31 11s21 0 31 -11l140 -143c5 -5 4 -11 -2 -18c-6 -8 -10 -11 -16 -7z" />
    <glyph glyph-name="caron" unicode="&#x2c7;" horiz-adv-x="560" 
d="M451 733l-140 -143c-10 -11 -21 -11 -31 -11s-21 0 -31 11l-140 143c-5 5 -4 11 2 18c6 8 10 11 16 7l153 -106l153 106c6 4 10 1 16 -7c6 -7 7 -13 2 -18z" />
    <glyph glyph-name="breve" unicode="&#x2d8;" horiz-adv-x="560" 
d="M409 733h20c7 0 9 -3 9 -10c-1 -88 -69 -151 -157 -151s-156 63 -157 151c0 7 2 10 9 10h20c6 0 9 0 11 -10c11 -55 52 -91 117 -91c66 0 106 36 117 91c2 10 5 10 11 10z" />
    <glyph glyph-name="dotaccent" unicode="&#x2d9;" horiz-adv-x="560" 
d="M341 667c0 -35 -27 -61 -62 -61s-61 26 -61 61s26 62 61 62s62 -27 62 -62z" />
    <glyph glyph-name="ring" unicode="&#x2da;" horiz-adv-x="560" 
d="M280 578c-57 0 -102 45 -102 102s45 102 102 102s102 -45 102 -102s-45 -102 -102 -102zM280 612c36 0 64 30 64 68s-28 68 -64 68s-64 -30 -64 -68s28 -68 64 -68z" />
    <glyph glyph-name="ogonek" unicode="&#x2db;" horiz-adv-x="560" 
d="M363 0l-62 -48c-47 -37 -64 -66 -64 -99c0 -36 28 -60 71 -60c28 0 60 11 79 20c6 3 9 2 16 -12s6 -18 1 -21c-24 -16 -59 -30 -106 -30c-65 0 -117 34 -117 95s37 102 100 138l61 35c3 2 6 4 10 0l11 -10c3 -3 3 -6 0 -8z" />
    <glyph glyph-name="tilde" unicode="&#x2dc;" horiz-adv-x="560" 
d="M438 716l11 -2c7 -1 9 -4 8 -11c-7 -54 -31 -117 -105 -117c-70 0 -104 75 -155 75c-26 0 -51 -13 -63 -62c-3 -10 -6 -10 -12 -9l-11 2c-7 1 -9 4 -8 11c7 54 31 117 105 117c70 0 104 -75 155 -75c26 0 51 13 63 62c3 10 6 10 12 9z" />
    <glyph glyph-name="hungarumlaut" unicode="&#x2dd;" horiz-adv-x="560" 
d="M290 663l-157 -94c-5 -3 -8 -1 -14 6c-6 6 -7 11 -2 15l128 130c20 21 42 21 59 -1c16 -20 11 -41 -14 -56zM483 663l-156 -94c-5 -3 -9 -1 -15 6c-4 6 -5 11 -2 15l129 130c20 20 42 21 59 -1c17 -21 10 -41 -15 -56z" />
    <glyph glyph-name="Delta" unicode="&#x394;" 
d="M540 0h-500v750h500v-750zM90 93l171 281l-171 281v-562zM490 93v562l-171 -281zM290 421l170 279h-340zM458 50l-168 276l-169 -276h337z" />
    <glyph glyph-name="Delta" unicode="&#x2206;" 
d="M540 0h-500v750h500v-750zM90 93l171 281l-171 281v-562zM490 93v562l-171 -281zM290 421l170 279h-340zM458 50l-168 276l-169 -276h337z" />
    <glyph glyph-name="Omega" unicode="&#x3a9;" 
d="M540 0h-500v750h500v-750zM90 93l171 281l-171 281v-562zM490 93v562l-171 -281zM290 421l170 279h-340zM458 50l-168 276l-169 -276h337z" />
    <glyph glyph-name="Omega" unicode="&#x2126;" 
d="M540 0h-500v750h500v-750zM90 93l171 281l-171 281v-562zM490 93v562l-171 -281zM290 421l170 279h-340zM458 50l-168 276l-169 -276h337z" />
    <glyph glyph-name="pi" unicode="&#x3c0;" 
d="M540 0h-500v750h500v-750zM90 93l171 281l-171 281v-562zM490 93v562l-171 -281zM290 421l170 279h-340zM458 50l-168 276l-169 -276h337z" />
    <glyph glyph-name="uni0400" unicode="&#x400;" horiz-adv-x="659" 
d="M586 0h-563c-2 0 -4 2 -4 5v18c0 3 1 5 4 6l62 10c19 3 27 11 27 38v538c0 99 -14 100 -75 105l-18 1c-4 0 -5 3 -5 6v18c0 3 2 5 4 5h553c6 0 11 -5 11 -11l2 -216c0 -5 -3 -6 -7 -6h-30c-3 0 -7 1 -7 6l-8 104c-5 59 -23 75 -97 75h-167c-51 0 -60 -10 -60 -70v-209
c0 -4 3 -7 7 -7h132c37 0 50 9 53 32l7 57c1 7 3 8 7 8h24c3 0 5 -2 5 -4v-243c0 -2 -2 -4 -5 -4h-24c-4 0 -6 1 -7 8l-7 62c-3 23 -16 32 -53 32h-132c-4 0 -7 -3 -7 -7v-239c0 -60 9 -70 60 -70h182c74 0 92 16 97 75l8 104c0 5 4 6 7 6h30c4 0 7 -1 7 -6l-2 -216
c0 -6 -5 -11 -11 -11zM415 810l-192 83c-29 13 -38 33 -24 58c15 27 37 29 63 10l168 -125c5 -4 5 -9 0 -17c-5 -9 -9 -11 -15 -9z" />
    <glyph glyph-name="afii10023" unicode="&#x401;" horiz-adv-x="659" 
d="M586 0h-563c-2 0 -4 2 -4 5v18c0 3 1 5 4 6l62 10c19 3 27 11 27 38v538c0 99 -14 100 -75 105l-18 1c-4 0 -5 3 -5 6v18c0 3 2 5 4 5h553c6 0 11 -5 11 -11l2 -216c0 -5 -3 -6 -7 -6h-30c-3 0 -7 1 -7 6l-8 104c-5 59 -23 75 -97 75h-167c-51 0 -60 -10 -60 -70v-209
c0 -4 3 -7 7 -7h132c37 0 50 9 53 32l7 57c1 7 3 8 7 8h24c3 0 5 -2 5 -4v-243c0 -2 -2 -4 -5 -4h-24c-4 0 -6 1 -7 8l-7 62c-3 23 -16 32 -53 32h-132c-4 0 -7 -3 -7 -7v-239c0 -60 9 -70 60 -70h182c74 0 92 16 97 75l8 104c0 5 4 6 7 6h30c4 0 7 -1 7 -6l-2 -216
c0 -6 -5 -11 -11 -11zM224 823c-29 0 -53 24 -53 53s24 53 53 53s53 -24 53 -53s-24 -53 -53 -53zM434 823c-29 0 -53 24 -53 53s24 53 53 53s53 -24 53 -53s-24 -53 -53 -53z" />
    <glyph glyph-name="afii10051" unicode="&#x402;" horiz-adv-x="821" 
d="M547 5v18c0 3 1 5 4 6c81 17 130 82 130 199v14c0 116 -59 166 -134 166c-55 0 -110 -13 -153 -41c-17 -11 -21 -33 -21 -57v-174c0 -89 12 -102 61 -105l25 -1c5 0 6 -3 6 -6v-19c0 -3 -2 -5 -5 -5h-281c-3 0 -5 2 -5 5v19c0 3 1 5 5 6l71 10c19 3 27 11 27 38v574
c0 40 -9 50 -50 50h-41c-74 0 -92 -12 -97 -71l-7 -98c0 -5 -4 -6 -7 -6h-30c-4 0 -7 1 -7 6l1 206c0 6 5 11 11 11h550c6 0 11 -5 11 -11l1 -176c0 -5 -3 -6 -7 -6h-32c-3 0 -7 1 -7 6l-5 68c-5 59 -23 71 -97 71h-41c-41 0 -50 -10 -50 -50v-230c0 -4 3 -6 7 -4
c48 25 116 49 186 49c119 0 211 -68 211 -223v-15c0 -145 -83 -229 -226 -229c-2 0 -4 2 -4 5z" />
    <glyph glyph-name="afii10052" unicode="&#x403;" horiz-adv-x="592" 
d="M311 5v18c0 3 -1 6 -5 6l-23 1c-61 3 -75 16 -75 105v497c0 60 9 70 60 70h137c74 0 92 -16 97 -75l8 -104c0 -5 4 -6 7 -6h30c4 0 7 1 7 6l-2 216c0 6 -5 11 -11 11h-523c-2 0 -4 -2 -4 -5v-18c0 -3 1 -6 5 -6l18 -1c61 -5 75 -6 75 -105v-538c0 -27 -8 -35 -27 -38
l-62 -10c-3 -1 -4 -3 -4 -6v-18c0 -3 2 -5 4 -5h284c2 0 4 2 4 5zM413 893l-192 -83c-6 -2 -10 0 -15 9c-5 8 -5 13 0 17l168 125c26 19 48 17 63 -10c14 -25 5 -45 -24 -58z" />
    <glyph glyph-name="afii10053" unicode="&#x404;" horiz-adv-x="691" 
d="M617 209l29 -12c4 -2 5 -5 3 -10c-46 -125 -147 -199 -263 -199c-194 0 -331 162 -331 386s137 388 322 388c74 0 127 -24 183 -62c12 -8 23 -12 28 6l13 41c1 3 2 4 5 4h19c3 0 4 -1 4 -4v-252c0 -5 -3 -6 -7 -6h-20c-5 0 -7 1 -9 7c-37 128 -97 214 -211 214
c-126 0 -209 -118 -219 -287c1 -4 3 -7 7 -7h293c4 0 7 -3 7 -7v-38c0 -4 -3 -7 -7 -7h-293c-4 0 -7 -3 -7 -7c8 -192 102 -305 234 -305c95 0 162 52 211 153c2 5 4 6 9 4z" />
    <glyph glyph-name="afii10054" unicode="&#x405;" horiz-adv-x="576" 
d="M72 0h-20c-3 0 -4 1 -4 4l-3 238c0 5 3 6 7 6h22c5 0 8 -1 9 -7c28 -151 136 -202 220 -202c82 0 148 59 148 144c0 91 -93 133 -190 175c-100 43 -192 95 -192 224c0 103 87 180 204 180c68 0 121 -18 178 -59c6 -4 14 -6 17 7l9 36c1 3 2 4 5 4h20c3 0 4 -1 4 -4
l2 -223c0 -5 -3 -6 -7 -6h-22c-5 0 -8 1 -9 7c-30 137 -98 189 -197 189c-59 0 -118 -38 -118 -110c0 -84 59 -116 158 -157c118 -49 224 -117 224 -242c0 -124 -93 -216 -235 -216c-77 0 -137 23 -194 67c-6 5 -14 6 -18 -7l-13 -44c-1 -3 -2 -4 -5 -4z" />
    <glyph glyph-name="afii10055" unicode="&#x406;" horiz-adv-x="320" 
d="M297 0h-274c-2 0 -4 2 -4 5v18c0 3 1 5 4 6l62 10c19 3 27 11 27 38v538c0 99 -14 102 -75 105l-18 1c-4 0 -5 3 -5 6v18c0 3 2 5 4 5h279c2 0 4 -2 4 -5v-18c0 -3 -1 -5 -4 -6l-62 -10c-19 -3 -27 -11 -27 -38v-538c0 -89 14 -100 75 -105l13 -1c4 0 5 -3 5 -6v-18
c0 -3 -2 -5 -4 -5z" />
    <glyph glyph-name="afii10056" unicode="&#x407;" horiz-adv-x="320" 
d="M297 0h-274c-2 0 -4 2 -4 5v18c0 3 1 5 4 6l62 10c19 3 27 11 27 38v538c0 99 -14 102 -75 105l-18 1c-4 0 -5 3 -5 6v18c0 3 2 5 4 5h279c2 0 4 -2 4 -5v-18c0 -3 -1 -5 -4 -6l-62 -10c-19 -3 -27 -11 -27 -38v-538c0 -89 14 -100 75 -105l13 -1c4 0 5 -3 5 -6v-18
c0 -3 -2 -5 -4 -5zM55 823c-29 0 -53 24 -53 53s24 53 53 53s53 -24 53 -53s-24 -53 -53 -53zM265 823c-29 0 -53 24 -53 53s24 53 53 53s53 -24 53 -53s-24 -53 -53 -53z" />
    <glyph glyph-name="afii10057" unicode="&#x408;" horiz-adv-x="504" 
d="M308 215v399c0 99 -16 103 -77 105l-29 1c-4 0 -5 3 -5 6v19c0 3 2 5 4 5h287c2 0 4 -2 4 -5v-18c0 -3 -1 -5 -4 -6l-57 -10c-19 -3 -27 -11 -27 -38v-428c0 -45 -2 -70 -7 -93c-8 -38 -22 -71 -44 -98c-34 -41 -86 -66 -153 -66c-63 0 -128 29 -159 87
c-12 22 -19 50 -20 79c-1 27 8 55 21 73c13 17 32 27 55 27c34 0 61 -23 61 -59c0 -32 -20 -56 -49 -68c-12 -5 -27 -10 -18 -29c17 -36 56 -60 109 -60c83 0 108 73 108 177z" />
    <glyph glyph-name="afii10058" unicode="&#x409;" horiz-adv-x="1041" 
d="M738 0h-295c-2 0 -4 2 -4 5v18c0 3 1 5 4 6l62 10c19 3 27 11 27 38v608c0 9 -4 13 -13 13h-199c-9 0 -13 -4 -13 -13v-214c0 -334 -66 -422 -125 -461c-24 -16 -52 -22 -78 -22c-41 0 -94 27 -94 70c0 31 21 57 54 57c37 0 48 -32 80 -32c56 0 100 143 100 385v147
c0 99 -14 102 -75 105l-18 1c-4 0 -5 3 -5 6v18c0 3 2 5 4 5h567c2 0 4 -2 4 -5v-18c0 -3 -1 -5 -4 -6l-62 -10c-19 -3 -27 -11 -27 -38v-234c0 -4 3 -7 7 -7h107c151 0 261 -70 261 -213c0 -135 -109 -219 -265 -219zM688 48h49c99 0 164 42 164 168
c0 133 -77 164 -162 164h-104c-4 0 -7 -3 -7 -7v-252c0 -60 9 -73 60 -73z" />
    <glyph glyph-name="afii10059" unicode="&#x40a;" horiz-adv-x="996" 
d="M693 0h-295c-2 0 -4 2 -4 5v18c0 3 1 5 4 6l62 10c19 3 27 11 27 38v296c0 4 -3 7 -7 7h-265c-4 0 -7 -3 -7 -7v-238c0 -89 14 -100 75 -105l13 -1c4 0 5 -3 5 -6v-18c0 -3 -2 -5 -4 -5h-274c-2 0 -4 2 -4 5v18c0 3 1 5 4 6l62 10c19 3 27 11 27 38v538
c0 99 -14 102 -75 105l-18 1c-4 0 -5 3 -5 6v18c0 3 2 5 4 5h279c2 0 4 -2 4 -5v-18c0 -3 -1 -5 -4 -6l-62 -10c-19 -3 -27 -11 -27 -38v-234c0 -4 3 -7 7 -7h265c4 0 7 3 7 7v176c0 99 -14 100 -75 105l-13 1c-4 0 -5 3 -5 6v18c0 3 2 5 4 5h274c2 0 4 -2 4 -5v-18
c0 -3 -1 -5 -4 -6l-62 -10c-19 -3 -27 -11 -27 -38v-234c0 -4 3 -7 7 -7h107c151 0 261 -70 261 -213c0 -135 -109 -219 -265 -219zM643 48h49c99 0 164 42 164 168c0 133 -77 164 -162 164h-104c-4 0 -7 -3 -7 -7v-252c0 -60 9 -73 60 -73z" />
    <glyph glyph-name="afii10060" unicode="&#x40b;" horiz-adv-x="872" 
d="M860 0h-269c-2 0 -4 2 -4 5v18c0 3 1 5 4 6l57 10c19 3 27 11 27 38v185c0 106 -53 146 -128 146c-55 0 -110 -13 -153 -41c-17 -11 -21 -33 -21 -57v-174c0 -89 12 -102 61 -105l25 -1c5 0 6 -3 6 -6v-19c0 -3 -2 -5 -5 -5h-281c-3 0 -5 2 -5 5v19c0 3 1 5 5 6l71 10
c19 3 27 11 27 38v574c0 40 -9 50 -50 50h-41c-74 0 -92 -12 -97 -71l-7 -98c0 -5 -4 -6 -7 -6h-30c-4 0 -7 1 -7 6l1 206c0 6 5 11 11 11h550c6 0 11 -5 11 -11l1 -176c0 -5 -3 -6 -7 -6h-32c-3 0 -7 1 -7 6l-5 68c-5 59 -23 71 -97 71h-41c-41 0 -50 -10 -50 -50v-230
c0 -4 3 -6 7 -4c48 25 116 49 186 49c119 0 205 -57 205 -198v-134c0 -89 14 -100 75 -105l13 -1c4 0 5 -3 5 -6v-18c0 -3 -2 -5 -4 -5z" />
    <glyph glyph-name="afii10061" unicode="&#x40c;" horiz-adv-x="700" 
d="M680 0h-120c-40 0 -60 13 -92 65l-172 285c-13 22 -23 30 -47 30h-34c-4 0 -7 -3 -7 -7v-238c0 -99 17 -101 72 -105l13 -1c4 0 5 -3 5 -6v-18c0 -3 -2 -5 -4 -5h-271c-2 0 -4 2 -4 5v18c0 3 1 5 4 6l62 10c19 3 27 11 27 38v538c0 99 -14 100 -75 105l-18 1
c-4 0 -5 3 -5 6v18c0 3 2 5 4 5h272c2 0 4 -2 4 -5v-18c0 -3 -1 -5 -4 -6l-55 -10c-19 -3 -27 -11 -27 -38v-236c0 -4 3 -7 7 -7h26c45 0 82 34 106 64c48 60 65 121 103 181c34 53 71 75 122 75c44 0 87 -31 87 -77c0 -32 -24 -58 -54 -58c-19 0 -34 8 -43 23
c-9 14 -9 26 -17 31c-9 6 -25 2 -45 -28c-38 -57 -64 -122 -106 -175c-21 -27 -42 -45 -67 -59c34 -11 55 -32 84 -78l147 -230c29 -46 49 -63 89 -67l33 -3c4 0 5 -3 5 -6v-18c0 -3 -2 -5 -5 -5zM458 903l-192 -83c-6 -2 -10 0 -15 9c-5 8 -5 13 0 17l168 125
c26 19 48 17 63 -10c14 -25 5 -45 -24 -58z" />
    <glyph glyph-name="uni040D" unicode="&#x40d;" horiz-adv-x="760" 
d="M737 0h-274c-2 0 -4 2 -4 5v18c0 3 1 5 4 6l62 10c19 3 27 11 27 38v436c0 12 -9 15 -17 6l-310 -371c-13 -15 -16 -30 -16 -48c0 -62 19 -65 74 -70l13 -1c4 0 5 -3 5 -6v-18c0 -3 -2 -5 -4 -5h-274c-2 0 -4 2 -4 5v18c0 3 1 5 4 6l62 10c19 3 27 11 27 38v538
c0 99 -14 102 -75 105l-18 1c-4 0 -5 3 -5 6v18c0 3 2 5 4 5h279c2 0 4 -2 4 -5v-18c0 -3 -1 -5 -4 -6l-62 -10c-19 -3 -27 -11 -27 -38v-436c0 -12 9 -15 17 -6l310 371c13 15 16 30 16 48c0 62 -19 65 -74 70l-13 1c-4 0 -5 3 -5 6v18c0 3 2 5 4 5h274c2 0 4 -2 4 -5v-18
c0 -3 -1 -5 -4 -6l-62 -10c-19 -3 -27 -11 -27 -38v-538c0 -89 14 -100 75 -105l13 -1c4 0 5 -3 5 -6v-18c0 -3 -2 -5 -4 -5zM463 820l-192 83c-29 13 -38 33 -24 58c15 27 37 29 63 10l168 -125c5 -4 5 -9 0 -17c-5 -9 -9 -11 -15 -9z" />
    <glyph glyph-name="afii10062" unicode="&#x40e;" horiz-adv-x="739" 
d="M326 167l11 24l-199 443c-32 71 -52 80 -91 84l-28 3c-4 1 -5 3 -5 6v18c0 3 2 5 5 5h263c3 0 4 -2 4 -5v-18c0 -3 0 -6 -5 -6l-15 -1c-45 -3 -54 -11 -30 -68l152 -359l161 361c25 56 23 63 -22 66l-15 1c-5 0 -6 3 -6 6v18c0 3 2 5 5 5h216c3 0 5 -2 5 -5v-18
c0 -3 -1 -5 -5 -6l-27 -3c-39 -4 -60 -19 -94 -90l-220 -475c-50 -107 -105 -165 -187 -165c-79 0 -133 56 -133 119c0 35 20 67 60 67c31 0 53 -22 53 -51c0 -30 -19 -39 -19 -53c0 -15 18 -26 40 -26c44 0 86 33 126 123zM500 983h38c7 0 9 -3 9 -10
c-6 -88 -69 -151 -157 -151s-151 63 -157 151c0 7 2 10 9 10h38c5 0 8 0 9 -10c6 -71 43 -110 101 -110s95 39 101 110c1 10 4 10 9 10z" />
    <glyph glyph-name="afii10145" unicode="&#x40f;" horiz-adv-x="752" 
d="M729 0h-286c-21 0 -29 -10 -30 -27l-16 -180c-1 -7 -3 -9 -9 -9h-24c-6 0 -8 2 -9 9l-16 180c-1 17 -9 27 -30 27h-286c-2 0 -4 2 -4 5v18c0 3 1 5 4 6l62 10c19 3 27 11 27 38v538c0 99 -14 102 -75 105l-18 1c-4 0 -5 3 -5 6v18c0 3 2 5 4 5h279c2 0 4 -2 4 -5v-18
c0 -3 -1 -5 -4 -6l-62 -10c-19 -3 -27 -11 -27 -38v-608c0 -9 4 -13 13 -13h310c9 0 13 4 13 13v550c0 99 -14 100 -75 105l-13 1c-4 0 -5 3 -5 6v18c0 3 2 5 4 5h274c2 0 4 -2 4 -5v-18c0 -3 -1 -5 -4 -6l-62 -10c-19 -3 -27 -11 -27 -38v-538c0 -89 14 -100 75 -105l13 -1
c4 0 5 -3 5 -6v-18c0 -3 -2 -5 -4 -5z" />
    <glyph glyph-name="afii10017" unicode="&#x410;" horiz-adv-x="745" 
d="M737 0h-263c-3 0 -6 2 -6 5v18c0 3 1 5 5 6l51 7c27 4 37 18 26 48l-51 135c-2 5 -5 6 -9 6h-272c-4 0 -7 -1 -9 -6l-46 -125c-5 -14 -8 -27 -8 -36c0 -19 14 -24 39 -26l42 -3c5 0 6 -3 6 -6v-18c0 -3 -2 -5 -5 -5h-228c-3 0 -5 2 -5 5v18c0 3 1 5 5 6l32 5
c28 4 35 13 47 44l251 665c2 5 4 7 10 7h45c6 0 8 -2 10 -7l239 -634c23 -62 36 -75 82 -79l11 -1c5 0 6 -3 6 -6v-18c0 -3 -2 -5 -5 -5zM477 283l-122 335h-2l-121 -335c-1 -4 0 -6 4 -6h237c4 0 5 2 4 6z" />
    <glyph glyph-name="afii10018" unicode="&#x411;" horiz-adv-x="651" 
d="M268 48h69c99 0 164 42 164 168c0 133 -77 164 -162 164h-124c-4 0 -7 -3 -7 -7v-252c0 -60 9 -73 60 -73zM338 0h-315c-2 0 -4 2 -4 5v18c0 3 1 5 4 6l62 10c19 3 27 11 27 38v538c0 99 -14 100 -75 105l-18 1c-4 0 -5 3 -5 6v18c0 3 2 5 4 5h523c6 0 11 -5 11 -11
l1 -201c0 -5 -3 -6 -7 -6h-30c-3 0 -7 1 -7 6l-7 89c-5 59 -23 75 -97 75h-137c-51 0 -60 -10 -60 -70v-193c0 -4 3 -7 7 -7h127c151 0 261 -70 261 -213c0 -135 -109 -219 -265 -219z" />
    <glyph glyph-name="afii10019" unicode="&#x412;" horiz-adv-x="651" 
d="M338 0h-315c-2 0 -4 2 -4 5v18c0 3 1 5 4 6l62 10c19 3 27 11 27 38v538c0 99 -14 100 -75 105l-18 1c-4 0 -5 3 -5 6v18c0 3 2 5 4 5h288c141 0 246 -54 246 -168c0 -71 -42 -134 -131 -169v-2c114 -28 182 -98 182 -198c0 -137 -98 -213 -265 -213zM268 48h68
c100 0 165 43 165 158c0 122 -68 172 -195 172h-91c-4 0 -7 -3 -7 -7v-250c0 -60 9 -73 60 -73zM215 428h88c101 0 154 46 154 152c0 102 -70 122 -156 122h-33c-51 0 -60 -14 -60 -74v-193c0 -4 3 -7 7 -7z" />
    <glyph glyph-name="afii10020" unicode="&#x413;" horiz-adv-x="592" 
d="M311 23v-18c0 -3 -2 -5 -4 -5h-284c-2 0 -4 2 -4 5v18c0 3 1 5 4 6l62 10c19 3 27 11 27 38v538c0 99 -14 100 -75 105l-18 1c-4 0 -5 3 -5 6v18c0 3 2 5 4 5h523c6 0 11 -5 11 -11l2 -216c0 -5 -3 -6 -7 -6h-30c-3 0 -7 1 -7 6l-8 104c-5 59 -23 75 -97 75h-137
c-51 0 -60 -10 -60 -70v-497c0 -89 14 -102 75 -105l23 -1c4 0 5 -3 5 -6z" />
    <glyph glyph-name="afii10021" unicode="&#x414;" horiz-adv-x="731" 
d="M693 -216h-19c-8 0 -11 3 -12 12l-9 131c-4 55 -21 73 -82 73h-418c-61 0 -78 -18 -82 -73l-9 -131c-1 -9 -4 -12 -12 -12h-19c-8 0 -12 3 -12 12l-12 216c-1 12 3 16 12 17l12 1c100 8 159 184 159 430v155c0 99 -14 102 -75 105l-18 1c-4 0 -5 3 -5 6v18c0 3 2 5 4 5
h607c2 0 4 -2 4 -5v-18c0 -3 -1 -5 -4 -6l-62 -10c-19 -3 -27 -11 -27 -38v-538c0 -79 18 -100 79 -105l12 -1c9 -1 13 -5 12 -17l-12 -216c0 -9 -4 -12 -12 -12zM518 70v615c0 9 -4 13 -13 13h-238c-9 0 -13 -4 -13 -13v-224c0 -120 -7 -309 -78 -409h324c11 0 18 7 18 18z
" />
    <glyph glyph-name="afii10022" unicode="&#x415;" horiz-adv-x="659" 
d="M586 0h-563c-2 0 -4 2 -4 5v18c0 3 1 5 4 6l62 10c19 3 27 11 27 38v538c0 99 -14 100 -75 105l-18 1c-4 0 -5 3 -5 6v18c0 3 2 5 4 5h553c6 0 11 -5 11 -11l2 -216c0 -5 -3 -6 -7 -6h-30c-3 0 -7 1 -7 6l-8 104c-5 59 -23 75 -97 75h-167c-51 0 -60 -10 -60 -70v-209
c0 -4 3 -7 7 -7h132c37 0 50 9 53 32l7 57c1 7 3 8 7 8h24c3 0 5 -2 5 -4v-243c0 -2 -2 -4 -5 -4h-24c-4 0 -6 1 -7 8l-7 62c-3 23 -16 32 -53 32h-132c-4 0 -7 -3 -7 -7v-239c0 -60 9 -70 60 -70h182c74 0 92 16 97 75l8 104c0 5 4 6 7 6h30c4 0 7 -1 7 -6l-2 -216
c0 -6 -5 -11 -11 -11z" />
    <glyph glyph-name="afii10024" unicode="&#x416;" horiz-adv-x="1036" 
d="M1016 0h-120c-40 0 -60 13 -92 65l-172 285c-13 22 -23 30 -47 30h-14c-4 0 -7 -3 -7 -7v-238c0 -89 14 -100 75 -105l13 -1c4 0 5 -3 5 -6v-18c0 -3 -2 -5 -4 -5h-270c-2 0 -4 2 -4 5v18c0 3 1 5 4 6l62 10c19 3 27 11 27 38v296c0 4 -3 7 -7 7h-14
c-24 0 -34 -8 -47 -30l-172 -285c-32 -52 -52 -65 -92 -65h-120c-3 0 -5 2 -5 5v18c0 3 1 6 5 6l33 3c40 4 60 21 89 67l147 226c29 45 51 67 84 78c-26 13 -46 32 -67 59c-42 53 -68 122 -106 179c-20 30 -36 34 -45 28c-8 -5 -8 -17 -17 -31c-9 -15 -24 -23 -43 -23
c-30 0 -54 26 -54 58c0 46 43 77 87 77c51 0 88 -22 122 -75c38 -60 55 -121 103 -181c24 -30 61 -64 106 -64h6c4 0 7 3 7 7v178c0 99 -14 102 -75 105l-18 1c-4 0 -5 3 -5 6v18c0 3 2 5 4 5h275c2 0 4 -2 4 -5v-18c0 -3 -1 -5 -4 -6l-62 -10c-19 -3 -27 -11 -27 -38v-236
c0 -4 3 -7 7 -7h6c45 0 82 34 106 64c48 60 65 121 103 181c34 53 71 75 122 75c44 0 87 -31 87 -77c0 -32 -24 -58 -54 -58c-19 0 -34 8 -43 23c-9 14 -9 26 -17 31c-9 6 -25 2 -45 -28c-38 -57 -64 -126 -106 -179c-21 -27 -42 -46 -67 -59c33 -11 55 -32 84 -78l147 -226
c29 -46 49 -63 89 -67l33 -3c4 0 5 -3 5 -6v-18c0 -3 -2 -5 -5 -5z" />
    <glyph glyph-name="afii10025" unicode="&#x417;" horiz-adv-x="609" 
d="M396 410v-2c86 -21 163 -80 163 -190c0 -139 -123 -230 -261 -230c-113 0 -230 60 -261 185c-1 5 0 9 5 10l29 8c6 2 7 0 9 -5c36 -105 127 -134 206 -134c89 0 167 57 167 164c0 65 -38 154 -175 154h-61c-4 0 -7 3 -7 7v38c0 4 3 7 7 7h70c77 0 142 67 142 162
c0 70 -52 129 -136 129c-92 0 -154 -54 -184 -177c-1 -6 -4 -7 -9 -7h-22c-4 0 -7 1 -7 6l2 211c0 3 1 4 4 4h20c3 0 4 -1 5 -4l9 -36c3 -13 11 -11 17 -7c54 39 102 59 172 59c128 0 228 -65 228 -178c0 -92 -59 -148 -132 -174z" />
    <glyph glyph-name="afii10026" unicode="&#x418;" horiz-adv-x="760" 
d="M737 0h-274c-2 0 -4 2 -4 5v18c0 3 1 5 4 6l62 10c19 3 27 11 27 38v436c0 12 -9 15 -17 6l-310 -371c-13 -15 -16 -30 -16 -48c0 -62 19 -65 74 -70l13 -1c4 0 5 -3 5 -6v-18c0 -3 -2 -5 -4 -5h-274c-2 0 -4 2 -4 5v18c0 3 1 5 4 6l62 10c19 3 27 11 27 38v538
c0 99 -14 102 -75 105l-18 1c-4 0 -5 3 -5 6v18c0 3 2 5 4 5h279c2 0 4 -2 4 -5v-18c0 -3 -1 -5 -4 -6l-62 -10c-19 -3 -27 -11 -27 -38v-436c0 -12 9 -15 17 -6l310 371c13 15 16 30 16 48c0 62 -19 65 -74 70l-13 1c-4 0 -5 3 -5 6v18c0 3 2 5 4 5h274c2 0 4 -2 4 -5v-18
c0 -3 -1 -5 -4 -6l-62 -10c-19 -3 -27 -11 -27 -38v-538c0 -89 14 -100 75 -105l13 -1c4 0 5 -3 5 -6v-18c0 -3 -2 -5 -4 -5z" />
    <glyph glyph-name="afii10027" unicode="&#x419;" horiz-adv-x="760" 
d="M737 0h-274c-2 0 -4 2 -4 5v18c0 3 1 5 4 6l62 10c19 3 27 11 27 38v436c0 12 -9 15 -17 6l-310 -371c-13 -15 -16 -30 -16 -48c0 -62 19 -65 74 -70l13 -1c4 0 5 -3 5 -6v-18c0 -3 -2 -5 -4 -5h-274c-2 0 -4 2 -4 5v18c0 3 1 5 4 6l62 10c19 3 27 11 27 38v538
c0 99 -14 102 -75 105l-18 1c-4 0 -5 3 -5 6v18c0 3 2 5 4 5h279c2 0 4 -2 4 -5v-18c0 -3 -1 -5 -4 -6l-62 -10c-19 -3 -27 -11 -27 -38v-436c0 -12 9 -15 17 -6l310 371c13 15 16 30 16 48c0 62 -19 65 -74 70l-13 1c-4 0 -5 3 -5 6v18c0 3 2 5 4 5h274c2 0 4 -2 4 -5v-18
c0 -3 -1 -5 -4 -6l-62 -10c-19 -3 -27 -11 -27 -38v-538c0 -89 14 -100 75 -105l13 -1c4 0 5 -3 5 -6v-18c0 -3 -2 -5 -4 -5zM488 983h38c7 0 9 -3 9 -10c-6 -88 -69 -151 -157 -151s-151 63 -157 151c0 7 2 10 9 10h38c5 0 8 0 9 -10c6 -71 43 -110 101 -110s95 39 101 110
c1 10 4 10 9 10z" />
    <glyph glyph-name="afii10028" unicode="&#x41a;" horiz-adv-x="700" 
d="M680 0h-120c-40 0 -60 13 -92 65l-172 285c-13 22 -23 30 -47 30h-34c-4 0 -7 -3 -7 -7v-238c0 -99 17 -101 72 -105l13 -1c4 0 5 -3 5 -6v-18c0 -3 -2 -5 -4 -5h-271c-2 0 -4 2 -4 5v18c0 3 1 5 4 6l62 10c19 3 27 11 27 38v538c0 99 -14 100 -75 105l-18 1
c-4 0 -5 3 -5 6v18c0 3 2 5 4 5h272c2 0 4 -2 4 -5v-18c0 -3 -1 -5 -4 -6l-55 -10c-19 -3 -27 -11 -27 -38v-236c0 -4 3 -7 7 -7h26c45 0 82 34 106 64c48 60 65 121 103 181c34 53 71 75 122 75c44 0 87 -31 87 -77c0 -32 -24 -58 -54 -58c-19 0 -34 8 -43 23
c-9 14 -9 26 -17 31c-9 6 -25 2 -45 -28c-38 -57 -64 -122 -106 -175c-21 -27 -42 -45 -67 -59c34 -11 55 -32 84 -78l147 -230c29 -46 49 -63 89 -67l33 -3c4 0 5 -3 5 -6v-18c0 -3 -2 -5 -5 -5z" />
    <glyph glyph-name="afii10029" unicode="&#x41b;" horiz-adv-x="780" 
d="M757 0h-274c-2 0 -4 2 -4 5v18c0 3 1 5 4 6l62 10c19 3 27 11 27 38v603c0 11 -7 18 -18 18h-229c-11 0 -18 -7 -18 -18v-209c0 -334 -66 -422 -125 -461c-24 -16 -52 -22 -78 -22c-41 0 -94 27 -94 70c0 31 21 57 54 57c37 0 48 -32 80 -32c56 0 100 143 100 385v147
c0 99 -14 102 -75 105l-18 1c-4 0 -5 3 -5 6v18c0 3 2 5 4 5h607c2 0 4 -2 4 -5v-18c0 -3 -1 -5 -4 -6l-62 -10c-19 -3 -27 -11 -27 -38v-538c0 -89 14 -100 75 -105l13 -1c4 0 5 -3 5 -6v-18c0 -3 -2 -5 -4 -5z" />
    <glyph glyph-name="afii10030" unicode="&#x41c;" horiz-adv-x="956" 
d="M932 0h-280c-3 0 -5 2 -5 5v18c0 3 1 5 5 6l69 10c19 3 27 11 27 38v571h-1s-6 -17 -15 -36l-256 -540c-1 -2 -2 -4 -6 -4h-15c-4 0 -5 2 -6 4l-256 540c-9 19 -15 36 -15 36h-1v-513c0 -99 14 -100 75 -105l20 -1c5 0 6 -3 6 -6v-18c0 -3 -2 -5 -5 -5h-249
c-3 0 -5 2 -5 5v18c0 3 1 5 5 6l62 10c19 3 26 11 26 38v538c0 99 -14 100 -75 105l-17 1c-5 0 -6 3 -6 6v18c0 3 2 5 5 5h206c5 0 9 -2 11 -7l248 -529l246 529c2 5 6 7 11 7h191c3 0 5 -2 5 -5v-18c0 -3 -1 -5 -5 -6l-62 -10c-19 -3 -26 -11 -26 -38v-538
c0 -99 14 -100 75 -105l12 -1c5 0 6 -3 6 -6v-18c0 -3 -2 -5 -5 -5z" />
    <glyph glyph-name="afii10031" unicode="&#x41d;" horiz-adv-x="760" 
d="M737 0h-274c-2 0 -4 2 -4 5v18c0 3 1 5 4 6l62 10c19 3 27 11 27 38v289c0 4 -3 7 -7 7h-330c-4 0 -7 -3 -7 -7v-231c0 -89 14 -100 75 -105l13 -1c4 0 5 -3 5 -6v-18c0 -3 -2 -5 -4 -5h-274c-2 0 -4 2 -4 5v18c0 3 1 5 4 6l62 10c19 3 27 11 27 38v538
c0 99 -14 102 -75 105l-18 1c-4 0 -5 3 -5 6v18c0 3 2 5 4 5h279c2 0 4 -2 4 -5v-18c0 -3 -1 -5 -4 -6l-62 -10c-19 -3 -27 -11 -27 -38v-241c0 -4 3 -7 7 -7h330c4 0 7 3 7 7v183c0 99 -14 100 -75 105l-13 1c-4 0 -5 3 -5 6v18c0 3 2 5 4 5h274c2 0 4 -2 4 -5v-18
c0 -3 -1 -5 -4 -6l-62 -10c-19 -3 -27 -11 -27 -38v-538c0 -89 14 -100 75 -105l13 -1c4 0 5 -3 5 -6v-18c0 -3 -2 -5 -4 -5z" />
    <glyph glyph-name="afii10032" unicode="&#x41e;" horiz-adv-x="757" 
d="M382 42c131 0 212 114 212 319c0 230 -88 347 -220 347s-211 -111 -211 -322c0 -173 61 -344 219 -344zM378 -12c-196 0 -323 172 -323 386s127 388 323 388s324 -174 324 -388s-128 -386 -324 -386z" />
    <glyph glyph-name="afii10033" unicode="&#x41f;" horiz-adv-x="752" 
d="M729 0h-274c-2 0 -4 2 -4 5v18c0 3 1 5 4 6l62 10c19 3 27 11 27 38v603c0 11 -7 18 -18 18h-300c-11 0 -18 -7 -18 -18v-545c0 -89 14 -100 75 -105l13 -1c4 0 5 -3 5 -6v-18c0 -3 -2 -5 -4 -5h-274c-2 0 -4 2 -4 5v18c0 3 1 5 4 6l62 10c19 3 27 11 27 38v538
c0 99 -14 102 -75 105l-18 1c-4 0 -5 3 -5 6v18c0 3 2 5 4 5h711c2 0 4 -2 4 -5v-18c0 -3 -1 -5 -4 -6l-62 -10c-19 -3 -27 -11 -27 -38v-538c0 -89 14 -100 75 -105l13 -1c4 0 5 -3 5 -6v-18c0 -3 -2 -5 -4 -5z" />
    <glyph glyph-name="afii10034" unicode="&#x420;" horiz-adv-x="620" 
d="M310 0h-286c-3 0 -5 2 -5 5v18c0 3 1 5 5 6l62 10c19 3 26 11 26 38v538c0 99 -14 100 -75 105l-18 1c-4 0 -5 3 -5 6v18c0 3 2 5 4 5h303c151 0 261 -70 261 -213c0 -135 -105 -219 -261 -219h-106c-4 0 -7 -3 -7 -7v-168c0 -99 14 -111 75 -113l26 -1c5 0 6 -3 6 -6
v-18c0 -3 -2 -5 -5 -5zM215 370h105c99 0 160 42 160 168c0 133 -77 164 -162 164h-50c-51 0 -60 -10 -60 -70v-255c0 -4 3 -7 7 -7z" />
    <glyph glyph-name="afii10035" unicode="&#x421;" horiz-adv-x="694" 
d="M619 211l29 -12c4 -2 5 -5 3 -10c-46 -125 -149 -201 -265 -201c-194 0 -331 162 -331 386s137 388 322 388c74 0 127 -24 183 -62c12 -8 23 -12 28 6l13 41c1 3 2 4 5 4h19c3 0 4 -1 4 -4v-262c0 -5 -3 -6 -7 -6h-20c-5 0 -7 1 -9 7c-37 138 -97 224 -211 224
c-134 0 -220 -134 -220 -321c0 -211 96 -337 235 -337c95 0 164 54 213 155c2 5 4 6 9 4z" />
    <glyph glyph-name="afii10036" unicode="&#x422;" horiz-adv-x="682" 
d="M488 0h-293c-3 0 -5 2 -5 5v19c0 3 1 5 5 6l71 10c19 3 27 11 27 38v574c0 40 -9 50 -50 50h-56c-74 0 -92 -12 -97 -71l-8 -108c0 -5 -4 -6 -7 -6h-30c-4 0 -7 1 -7 6l2 216c0 6 5 11 11 11h580c6 0 11 -5 11 -11l2 -216c0 -5 -3 -6 -7 -6h-30c-3 0 -7 1 -7 6l-8 108
c-5 59 -23 71 -97 71h-56c-41 0 -50 -10 -50 -50v-516c0 -99 15 -102 76 -105l22 -1c5 0 6 -3 6 -6v-19c0 -3 -2 -5 -5 -5z" />
    <glyph glyph-name="afii10037" unicode="&#x423;" horiz-adv-x="739" 
d="M326 167l11 24l-199 443c-32 71 -52 80 -91 84l-28 3c-4 1 -5 3 -5 6v18c0 3 2 5 5 5h263c3 0 4 -2 4 -5v-18c0 -3 0 -6 -5 -6l-15 -1c-45 -3 -54 -11 -30 -68l152 -359l161 361c25 56 23 63 -22 66l-15 1c-5 0 -6 3 -6 6v18c0 3 2 5 5 5h216c3 0 5 -2 5 -5v-18
c0 -3 -1 -5 -5 -6l-27 -3c-39 -4 -60 -19 -94 -90l-220 -475c-50 -107 -105 -165 -187 -165c-79 0 -133 56 -133 119c0 35 20 67 60 67c31 0 53 -22 53 -51c0 -30 -19 -39 -19 -53c0 -15 18 -26 40 -26c44 0 86 33 126 123z" />
    <glyph glyph-name="afii10038" unicode="&#x424;" horiz-adv-x="834" 
d="M552 0h-270c-2 0 -4 2 -4 5v18c0 3 1 5 4 6l62 10c19 3 27 11 27 38v45c-191 4 -319 102 -319 252s128 248 319 252c-2 85 -17 91 -75 94l-18 1c-4 0 -5 3 -5 6v18c0 3 2 5 4 5h275c2 0 4 -2 4 -5v-18c0 -3 -1 -5 -4 -6l-62 -10c-19 -3 -27 -11 -27 -38v-47
c191 -4 319 -102 319 -252s-128 -248 -319 -252c1 -75 17 -88 75 -92l13 -1c4 0 5 -3 5 -6v-18c0 -3 -2 -5 -4 -5zM463 575v-402c124 3 214 78 214 201s-90 198 -214 201zM371 173v402c-124 -3 -214 -78 -214 -201s90 -198 214 -201z" />
    <glyph glyph-name="afii10039" unicode="&#x425;" horiz-adv-x="744" 
d="M727 0h-269c-3 0 -4 2 -4 5v18c0 3 0 6 5 6l23 1c40 2 56 17 22 69l-147 225l-152 -228c-34 -51 -24 -65 16 -66l30 -1c5 0 6 -3 6 -6v-18c0 -3 -2 -5 -5 -5h-237c-3 0 -5 2 -5 5v22c0 3 1 6 5 6l33 3c39 4 53 21 97 86l176 257l-171 263c-36 56 -47 68 -86 72l-28 3
c-4 1 -5 3 -5 6v22c0 3 2 5 5 5h269c3 0 4 -2 4 -5v-18c0 -3 0 -6 -5 -6l-28 -1c-40 -1 -49 -17 -17 -69l121 -193l131 196c34 51 24 63 -21 66l-18 1c-5 0 -6 3 -6 6v18c0 3 2 5 5 5h224c3 0 5 -2 5 -5v-22c0 -3 -1 -5 -5 -6l-27 -3c-39 -4 -53 -21 -97 -86l-156 -227
l193 -285c44 -65 54 -75 95 -80l24 -3c4 0 5 -3 5 -6v-22c0 -3 -2 -5 -5 -5z" />
    <glyph glyph-name="afii10040" unicode="&#x426;" horiz-adv-x="757" 
d="M719 -216h-19c-8 0 -11 3 -12 12l-9 131c-4 55 -21 73 -82 73h-574c-2 0 -4 2 -4 5v18c0 3 1 5 4 6l62 10c19 3 27 11 27 38v538c0 99 -14 102 -75 105l-18 1c-4 0 -5 3 -5 6v18c0 3 2 5 4 5h279c2 0 4 -2 4 -5v-18c0 -3 -1 -5 -4 -6l-62 -10c-19 -3 -27 -11 -27 -38
v-608c0 -9 4 -13 13 -13h310c9 0 13 4 13 13v550c0 99 -14 100 -75 105l-13 1c-4 0 -5 3 -5 6v18c0 3 2 5 4 5h274c2 0 4 -2 4 -5v-18c0 -3 -1 -5 -4 -6l-62 -10c-19 -3 -27 -11 -27 -38v-538c0 -79 18 -100 79 -105l12 -1c9 -1 13 -5 12 -17l-12 -216c0 -9 -4 -12 -12 -12z
" />
    <glyph glyph-name="afii10041" unicode="&#x427;" horiz-adv-x="703" 
d="M685 0h-279c-2 0 -4 2 -4 5v18c0 3 1 5 4 6l62 10c19 3 27 11 27 38v246c0 4 -3 6 -7 4c-48 -25 -116 -49 -186 -49c-119 0 -205 57 -205 198v139c0 89 -14 100 -75 105l-13 1c-4 0 -5 3 -5 6v18c0 3 2 5 4 5h274c2 0 4 -2 4 -5v-18c0 -3 -1 -5 -4 -6l-62 -10
c-19 -3 -27 -11 -27 -38v-190c0 -106 53 -146 128 -146c55 0 110 13 153 41c17 11 21 33 21 57v180c0 89 -14 100 -75 105l-13 1c-4 0 -5 3 -5 6v18c0 3 2 5 4 5h274c2 0 4 -2 4 -5v-18c0 -3 -1 -5 -4 -6l-62 -10c-19 -3 -27 -11 -27 -38v-538c0 -99 14 -102 75 -105l18 -1
c4 0 5 -3 5 -6v-18c0 -3 -2 -5 -4 -5z" />
    <glyph glyph-name="afii10042" unicode="&#x428;" horiz-adv-x="1080" 
d="M1057 0h-1034c-2 0 -4 2 -4 5v18c0 3 1 5 4 6l62 10c19 3 27 11 27 38v538c0 99 -14 102 -75 105l-18 1c-4 0 -5 3 -5 6v18c0 3 2 5 4 5h279c2 0 4 -2 4 -5v-18c0 -3 -1 -5 -4 -6l-62 -10c-19 -3 -27 -11 -27 -38v-608c0 -9 4 -13 13 -13h258c9 0 13 4 13 13v550
c0 99 -14 100 -75 105l-13 1c-4 0 -5 3 -5 6v18c0 3 2 5 4 5h274c2 0 4 -2 4 -5v-18c0 -3 -1 -5 -4 -6l-62 -10c-19 -3 -27 -11 -27 -38v-612c0 -6 5 -9 13 -9h258c9 0 13 4 13 13v550c0 99 -14 100 -75 105l-13 1c-4 0 -5 3 -5 6v18c0 3 2 5 4 5h274c2 0 4 -2 4 -5v-18
c0 -3 -1 -5 -4 -6l-62 -10c-19 -3 -27 -11 -27 -38v-538c0 -89 14 -100 75 -105l13 -1c4 0 5 -3 5 -6v-18c0 -3 -2 -5 -4 -5z" />
    <glyph glyph-name="afii10043" unicode="&#x429;" horiz-adv-x="1085" 
d="M1047 -216h-19c-8 0 -11 3 -12 12l-9 131c-4 55 -21 73 -82 73h-902c-2 0 -4 2 -4 5v18c0 3 1 5 4 6l62 10c19 3 27 11 27 38v538c0 99 -14 102 -75 105l-18 1c-4 0 -5 3 -5 6v18c0 3 2 5 4 5h279c2 0 4 -2 4 -5v-18c0 -3 -1 -5 -4 -6l-62 -10c-19 -3 -27 -11 -27 -38
v-608c0 -9 4 -13 13 -13h258c9 0 13 4 13 13v550c0 99 -14 100 -75 105l-13 1c-4 0 -5 3 -5 6v18c0 3 2 5 4 5h274c2 0 4 -2 4 -5v-18c0 -3 -1 -5 -4 -6l-62 -10c-19 -3 -27 -11 -27 -38v-612c0 -6 5 -9 13 -9h258c9 0 13 4 13 13v550c0 99 -14 100 -75 105l-13 1
c-4 0 -5 3 -5 6v18c0 3 2 5 4 5h274c2 0 4 -2 4 -5v-18c0 -3 -1 -5 -4 -6l-62 -10c-19 -3 -27 -11 -27 -38v-538c0 -79 18 -100 79 -105l12 -1c9 -1 13 -5 12 -17l-12 -216c0 -9 -4 -12 -12 -12z" />
    <glyph glyph-name="afii10044" unicode="&#x42a;" horiz-adv-x="786" 
d="M433 48h49c99 0 164 42 164 168c0 133 -77 164 -162 164h-104c-4 0 -7 -3 -7 -7v-252c0 -60 9 -73 60 -73zM483 0h-295c-2 0 -4 2 -4 5v18c0 3 1 5 4 6l62 10c19 3 27 11 27 38v575c0 40 -9 50 -50 50h-40c-74 0 -92 -12 -97 -71l-8 -98c0 -5 -4 -6 -7 -6h-30
c-4 0 -7 1 -7 6l2 206c0 6 5 11 11 11h411c2 0 4 -2 4 -5v-18c0 -3 -1 -5 -4 -6l-62 -10c-19 -3 -27 -11 -27 -38v-234c0 -4 3 -7 7 -7h107c151 0 261 -70 261 -213c0 -135 -109 -219 -265 -219z" />
    <glyph glyph-name="afii10045" unicode="&#x42b;" horiz-adv-x="916" 
d="M318 0h-295c-2 0 -4 2 -4 5v18c0 3 1 5 4 6l62 10c19 3 27 11 27 38v538c0 99 -14 102 -75 105l-18 1c-4 0 -5 3 -5 6v18c0 3 2 5 4 5h279c2 0 4 -2 4 -5v-18c0 -3 -1 -5 -4 -6l-62 -10c-19 -3 -27 -11 -27 -38v-234c0 -4 3 -7 7 -7h107c151 0 261 -70 261 -213
c0 -135 -109 -219 -265 -219zM893 0h-274c-2 0 -4 2 -4 5v18c0 3 1 5 4 6l62 10c19 3 27 11 27 38v538c0 99 -14 102 -75 105l-18 1c-4 0 -5 3 -5 6v18c0 3 2 5 4 5h279c2 0 4 -2 4 -5v-18c0 -3 -1 -5 -4 -6l-62 -10c-19 -3 -27 -11 -27 -38v-538c0 -89 14 -100 75 -105
l13 -1c4 0 5 -3 5 -6v-18c0 -3 -2 -5 -4 -5zM268 48h49c99 0 164 42 164 168c0 133 -77 164 -162 164h-104c-4 0 -7 -3 -7 -7v-252c0 -60 9 -73 60 -73z" />
    <glyph glyph-name="afii10046" unicode="&#x42c;" horiz-adv-x="641" 
d="M338 0h-315c-2 0 -4 2 -4 5v18c0 3 1 5 4 6l62 10c19 3 27 11 27 38v538c0 99 -14 102 -75 105l-18 1c-4 0 -5 3 -5 6v18c0 3 2 5 4 5h279c2 0 4 -2 4 -5v-18c0 -3 -1 -5 -4 -6l-62 -10c-19 -3 -27 -11 -27 -38v-234c0 -4 3 -7 7 -7h127c151 0 261 -70 261 -213
c0 -135 -109 -219 -265 -219zM268 48h69c99 0 164 42 164 168c0 133 -77 164 -162 164h-124c-4 0 -7 -3 -7 -7v-252c0 -60 9 -73 60 -73z" />
    <glyph glyph-name="afii10047" unicode="&#x42d;" horiz-adv-x="682" 
d="M219 416h293c4 0 7 3 7 7c-10 169 -93 287 -219 287c-114 0 -176 -91 -211 -214c-2 -6 -4 -7 -9 -7h-20c-4 0 -7 1 -7 6v252c0 3 1 4 4 4h19c3 0 4 -1 5 -4l13 -41c5 -18 16 -14 28 -6c56 38 109 62 183 62c185 0 322 -156 322 -380c0 -228 -129 -394 -323 -394
c-116 0 -224 71 -262 197c-2 5 -1 8 3 10l29 12c5 2 7 1 9 -4c43 -97 115 -151 210 -151c132 0 218 113 226 305c0 4 -3 7 -7 7h-293c-4 0 -7 3 -7 7v38c0 4 3 7 7 7z" />
    <glyph glyph-name="afii10048" unicode="&#x42e;" horiz-adv-x="1047" 
d="M297 0h-274c-2 0 -4 2 -4 5v18c0 3 1 5 4 6l62 10c19 3 27 11 27 38v538c0 99 -14 102 -75 105l-18 1c-4 0 -5 3 -5 6v18c0 3 2 5 4 5h279c2 0 4 -2 4 -5v-18c0 -3 -1 -5 -4 -6l-62 -10c-19 -3 -27 -11 -27 -38v-241c0 -4 3 -7 7 -7h152c19 190 140 337 311 337
c186 0 314 -174 314 -388s-128 -386 -314 -386s-313 171 -313 385h-150c-4 0 -7 -3 -7 -7v-231c0 -89 14 -100 75 -105l13 -1c4 0 5 -3 5 -6v-18c0 -3 -2 -5 -4 -5zM682 42c121 0 202 114 202 319c0 230 -88 347 -210 347s-201 -111 -201 -322c0 -173 61 -344 209 -344z" />
    <glyph glyph-name="afii10049" unicode="&#x42f;" horiz-adv-x="665" 
d="M354 409h96c4 0 7 3 7 7v218c0 60 -9 70 -60 70h-41c-93 0 -153 -33 -153 -140c0 -98 49 -155 151 -155zM646 23v-18c0 -3 -2 -5 -5 -5h-286c-3 0 -5 2 -5 5v18c0 3 1 6 6 6l26 1c61 2 75 16 75 115v207c0 4 -3 7 -7 7h-106c-110 0 -143 -71 -154 -201
c-7 -89 -29 -132 -64 -152c-23 -13 -52 -18 -86 -18c-22 0 -35 4 -49 10c-3 1 -5 4 -5 7v18c0 3 1 6 6 4c6 -2 14 -3 24 -3c70 0 77 82 87 174c11 104 62 172 154 189v2c-100 26 -154 84 -154 178c0 137 103 183 251 183h293c2 0 4 -2 4 -5v-18c0 -3 -1 -6 -5 -6l-18 -1
c-61 -5 -75 -6 -75 -105v-538c0 -27 7 -35 26 -38l62 -10c4 -1 5 -3 5 -6z" />
    <glyph glyph-name="afii10065" unicode="&#x430;" horiz-adv-x="548" 
d="M346 195v47c0 11 -3 15 -19 14c-109 -6 -198 -35 -198 -130c0 -49 33 -84 83 -84c62 0 106 54 125 98c4 8 9 24 9 55zM533 113v-21c0 -54 -21 -104 -81 -104c-46 0 -85 33 -97 99h-2c-37 -63 -89 -99 -160 -99c-78 0 -153 44 -153 135c0 125 129 165 290 175
c11 1 14 7 14 21v25c0 83 -32 126 -103 126c-21 0 -44 -4 -60 -14c-5 -3 -6 -5 -6 -8c0 -10 13 -28 13 -54c0 -31 -26 -57 -57 -57s-57 26 -57 62c0 68 82 113 169 113c125 0 190 -58 190 -208v-190c0 -56 14 -78 35 -78c19 0 31 20 31 55v21c0 10 3 12 9 12h15
c7 0 10 -1 10 -11z" />
    <glyph glyph-name="afii10066" unicode="&#x431;" horiz-adv-x="564" 
d="M118 377h2c16 30 34 54 56 73c31 27 69 42 117 42c135 0 226 -107 226 -252s-101 -252 -236 -252c-155 0 -233 138 -233 338c0 218 47 359 243 382c100 12 159 20 162 74c1 9 4 13 19 13c13 0 16 -3 16 -11c4 -128 -77 -146 -178 -159c-149 -19 -184 -94 -194 -248z
M283 31c85 0 141 73 141 209s-46 205 -131 205s-150 -73 -150 -205c0 -136 55 -209 140 -209z" />
    <glyph glyph-name="afii10067" unicode="&#x432;" horiz-adv-x="532" 
d="M284 0h-268c-2 0 -4 2 -4 5v16c0 3 1 5 4 6l52 10c19 4 27 11 27 38v312c0 79 -14 82 -65 85l-18 1c-4 0 -5 3 -5 6v16c0 3 2 5 4 5h262c107 0 184 -37 184 -116c0 -42 -25 -80 -86 -107v-1c84 -22 122 -69 122 -131c0 -92 -76 -145 -209 -145zM224 45h59
c69 0 117 30 117 95c0 72 -46 105 -140 105h-68c-4 0 -7 -3 -7 -7v-153c0 -32 7 -40 39 -40zM192 290h65c72 0 111 30 111 90c0 62 -51 75 -109 75h-35c-32 0 -39 -8 -39 -40v-118c0 -4 3 -7 7 -7z" />
    <glyph glyph-name="afii10068" unicode="&#x433;" horiz-adv-x="496" 
d="M269 0h-253c-2 0 -4 2 -4 5v16c0 3 1 5 4 6l52 10c19 3 27 11 27 38v312c0 79 -14 82 -65 85l-18 1c-4 0 -5 3 -5 6v16c0 3 2 5 4 5h441c6 0 11 -5 11 -11l2 -167c0 -5 -3 -6 -7 -6h-27c-3 0 -6 1 -7 6l-8 55c-9 59 -23 75 -97 75h-95c-32 0 -39 -6 -39 -38v-286
c0 -89 6 -95 67 -100l16 -1c4 0 5 -3 5 -6v-16c0 -3 -2 -5 -4 -5z" />
    <glyph glyph-name="afii10069" unicode="&#x434;" horiz-adv-x="595" 
d="M563 -194h-19c-8 0 -11 4 -12 12l-10 140c-2 31 -16 42 -58 42h-333c-42 0 -56 -11 -58 -42l-10 -140c-1 -8 -4 -12 -12 -12h-19c-8 0 -12 4 -12 12l-11 197c-1 12 5 16 17 17l9 1c71 9 115 121 115 273v66c0 89 -6 95 -67 100l-16 1c-4 0 -5 3 -5 6v16c0 3 2 5 4 5h508
c2 0 4 -2 4 -5v-16c0 -3 -1 -5 -4 -6l-52 -10c-19 -3 -27 -11 -27 -38v-331c0 -46 13 -56 55 -61l19 -1c12 -1 18 -5 17 -17l-11 -197c0 -8 -4 -12 -12 -12zM405 66v368c0 11 -7 18 -18 18h-159c-11 0 -18 -7 -18 -18v-128c0 -75 -6 -190 -54 -258h231c11 0 18 7 18 18z" />
    <glyph glyph-name="afii10070" unicode="&#x435;" horiz-adv-x="518" 
d="M451 119l20 -16c3 -3 3 -6 0 -10c-51 -71 -107 -105 -190 -105c-141 0 -236 107 -236 262s97 262 227 262c132 0 204 -108 204 -246c0 -11 -4 -19 -16 -19h-310c-10 0 -11 -8 -11 -13c2 -130 69 -191 156 -191c62 0 109 27 147 75c2 3 5 4 9 1zM158 291h218
c9 0 11 6 11 12c-5 106 -48 164 -121 164c-64 0 -112 -59 -123 -148c-3 -25 1 -28 15 -28z" />
    <glyph glyph-name="afii10072" unicode="&#x436;" horiz-adv-x="854" 
d="M837 0h-98c-34 0 -52 9 -78 45l-137 184c-9 12 -16 17 -29 17h-17c-4 0 -7 -3 -7 -7v-126c0 -69 14 -82 55 -85l13 -1c4 0 5 -3 5 -6v-16c0 -3 -2 -5 -4 -5h-223c-2 0 -4 2 -4 5v16c0 3 1 5 4 6l39 9c19 4 27 12 27 39v164c0 4 -3 7 -7 7h-17c-13 0 -20 -5 -29 -17
l-137 -184c-26 -36 -44 -45 -78 -45h-98c-3 0 -5 2 -5 5v16c0 3 1 6 5 6l18 1c36 3 56 20 91 65l101 129c17 22 41 38 64 48c-17 7 -32 17 -44 31c-37 41 -57 92 -87 128c-12 14 -21 15 -27 14c-18 -3 -17 -46 -61 -46c-26 0 -46 22 -46 52c0 36 35 59 73 59
c45 0 76 -20 103 -54c31 -40 52 -91 85 -125c17 -18 46 -36 74 -36h15c4 0 7 3 7 7v87c0 69 -14 82 -55 85l-13 1c-4 0 -5 3 -5 6v16c0 3 2 5 4 5h223c2 0 4 -2 4 -5v-16c0 -3 -1 -5 -4 -6l-39 -9c-19 -4 -27 -12 -27 -39v-125c0 -4 3 -7 7 -7h15c28 0 57 18 74 36
c33 34 54 85 85 125c27 34 58 54 103 54c38 0 73 -23 73 -59c0 -30 -20 -52 -46 -52c-44 0 -43 43 -61 46c-6 1 -15 0 -27 -14c-30 -36 -50 -87 -87 -128c-12 -14 -27 -24 -44 -31c23 -10 47 -26 64 -48l101 -129c35 -45 55 -62 91 -65l18 -1c4 0 5 -3 5 -6v-16
c0 -3 -2 -5 -5 -5z" />
    <glyph glyph-name="afii10073" unicode="&#x437;" horiz-adv-x="491" 
d="M334 274v-2c69 -14 120 -57 120 -124c0 -91 -88 -160 -213 -160c-100 0 -167 39 -210 113c-3 4 -2 8 3 11l20 13c5 3 8 0 11 -5c41 -61 107 -80 169 -80c71 0 125 42 125 107c0 43 -30 94 -127 94h-53c-4 0 -7 3 -7 7v32c0 4 3 7 7 7h51c64 0 111 40 111 100
c0 46 -39 81 -103 81c-66 0 -127 -42 -145 -123c-1 -5 -4 -7 -9 -7h-21c-4 0 -7 2 -7 7l2 157c0 3 1 4 4 4h19c3 0 4 -1 5 -4l5 -22c3 -13 12 -11 18 -7c37 22 82 39 142 39c100 0 179 -45 179 -122c0 -55 -38 -96 -96 -116z" />
    </font>
</defs>
</svg>
