<?xml version="1.0" standalone="no"?>
<!DOCTYPE svg PUBLIC "-//W3C//DTD SVG 1.1//EN" "http://www.w3.org/Graphics/SVG/1.1/DTD/svg11.dtd" >
<svg xmlns="http://www.w3.org/2000/svg" width="100%" height="100%">
<metadata>
Created by FontXChange 20110222 at Thu Nov  3 15:58:01 2011
 By James Beall
Copyright (c) 2011 by GM. All rights reserved.
</metadata>
<defs>
<font id="Louis-CondensedRegular" horiz-adv-x="430" >
  <font-face 
    font-family="Louis"
    font-weight="500"
    font-stretch="normal"
    units-per-em="1000"
    panose-1="2 0 0 0 0 0 0 0 0 0"
    ascent="750"
    descent="-250"
    x-height="560"
    cap-height="750"
    bbox="-82 -283 776 1014"
    underline-thickness="50"
    underline-position="-50"
    stemh="113"
    stemv="115"
    unicode-range="U+0020-FB02"
  />
<missing-glyph horiz-adv-x="490" 
d="M450 750v-750h-410v750h410zM415 688l-150 -312l150 -314v626zM225 376l-150 311v-625zM390 714h-290l145 -302zM100 36h290l-145 302z" />
    <glyph glyph-name="fi" unicode="fi" horiz-adv-x="473" 
d="M175 401v-401h-95v472h-68v88h68v51c0 130 65 185 162 185c24 0 47 -2 65 -5v-90c-18 4 -33 6 -54 6c-52 0 -78 -22 -78 -99v-48h238v-560h-95v472h-144s1 -45 1 -71z" />
    <glyph glyph-name="fl" unicode="fl" horiz-adv-x="493" 
d="M175 607v-47h100v-88h-101s1 -45 1 -71v-401h-95v472h-68v88h68v49c0 130 64 188 183 188c41 0 114 -5 171 -11v-786h-95v704c-27 3 -59 5 -75 5c-65 0 -89 -25 -89 -102z" />
    <glyph glyph-name=".notdef" horiz-adv-x="490" 
d="M450 750v-750h-410v750h410zM415 688l-150 -312l150 -314v626zM225 376l-150 311v-625zM390 714h-290l145 -302zM100 36h290l-145 302z" />
    <glyph glyph-name=".null" horiz-adv-x="0" 
 />
    <glyph glyph-name="CR" horiz-adv-x="175" 
 />
    <glyph glyph-name="space" unicode=" " horiz-adv-x="175" 
 />
    <glyph glyph-name="numbersign" unicode="#" horiz-adv-x="461" 
d="M116 450h-83v55h87l16 195h69l-15 -195h103l16 195h70l-15 -195h77v-55h-82l-16 -200h84v-55h-88l-16 -195h-70l16 195h-103l-16 -195h-70l16 195h-76v55h80zM273 250l16 200h-103l-16 -200h103z" />
    <glyph glyph-name="dollar" unicode="$" horiz-adv-x="438" 
d="M400 533h-91c-2 53 -22 98 -65 106v-214l12 -6c74 -37 150 -96 150 -204c0 -104 -68 -177 -162 -186v-99h-41v98c-107 10 -164 88 -171 190h91c4 -53 32 -102 80 -108v239l-20 11c-74 41 -136 85 -136 187c0 101 64 164 156 172v91h41v-91c91 -10 157 -70 156 -186z
M316 217c0 44 -28 80 -72 112v-218c43 6 72 52 72 106zM137 553c0 -53 23 -80 66 -108v195c-46 -6 -66 -43 -66 -87z" />
    <glyph glyph-name="percent" unicode="%" horiz-adv-x="559" 
d="M138 704c-26 0 -49 -23 -49 -87v-32c0 -62 23 -86 49 -86s49 24 49 86v32c0 64 -23 87 -49 87zM138 442c-63 0 -110 50 -110 146v27c0 97 47 145 110 145s110 -48 110 -145v-27c0 -96 -47 -146 -110 -146zM388 750h60l-276 -750h-60zM421 252c-26 0 -49 -23 -49 -87v-32
c0 -62 23 -86 49 -86s49 24 49 86v32c0 64 -23 87 -49 87zM421 -10c-63 0 -110 50 -110 146v27c0 97 47 145 110 145s110 -48 110 -145v-27c0 -96 -47 -146 -110 -146z" />
    <glyph glyph-name="ampersand" unicode="&#x26;" horiz-adv-x="498" 
d="M252 384l104 -162c15 48 21 101 24 138h82c-7 -66 -21 -148 -52 -219l93 -141h-109l-39 59c-37 -44 -79 -69 -138 -69c-108 0 -187 77 -187 212c0 93 54 155 110 202c-38 53 -67 108 -67 179c0 120 74 177 150 177c91 0 154 -61 154 -162c0 -72 -41 -150 -125 -214z
M220 73c40 0 71 25 91 61l-130 198c-31 -32 -56 -71 -56 -130c0 -83 39 -129 95 -129zM164 587c0 -44 20 -87 47 -134c51 43 73 89 73 141c0 45 -19 82 -59 82c-41 0 -61 -36 -61 -89z" />
    <glyph glyph-name="quotesingle" unicode="'" horiz-adv-x="157" 
d="M38 750h97l-19 -259h-78v259z" />
    <glyph glyph-name="parenleft" unicode="(" horiz-adv-x="266" 
d="M51 335c0 176 44 348 139 516h78c-84 -166 -120 -342 -120 -516c0 -173 36 -351 120 -517h-78c-94 167 -139 342 -139 517z" />
    <glyph glyph-name="parenright" unicode=")" horiz-adv-x="266" 
d="M215 334c0 -176 -44 -348 -139 -516h-78c84 166 120 342 120 516c0 173 -36 351 -120 517h78c94 -167 139 -342 139 -517z" />
    <glyph glyph-name="asterisk" unicode="*" horiz-adv-x="366" 
d="M144 750h78l-9 -145l115 49l24 -69l-133 -34l96 -122l-58 -43l-75 119l-73 -119l-58 43l96 122l-133 34l24 70l115 -50z" />
    <glyph glyph-name="plus" unicode="+" horiz-adv-x="494" 
d="M289 339h177v-79h-177v-240h-84v240h-177v79h177v241h84v-241z" />
    <glyph glyph-name="comma" unicode="," horiz-adv-x="188" 
d="M77 0h-41v136h119v-127c0 -79 -29 -155 -127 -174v38c58 23 70 66 70 106c0 17 -8 21 -21 21z" />
    <glyph glyph-name="hyphen" unicode="-" horiz-adv-x="350" 
d="M322 350h-294v78h294v-78z" />
    <glyph glyph-name="period" unicode="." horiz-adv-x="188" 
d="M151 0h-114v136h114v-136z" />
    <glyph glyph-name="slash" unicode="/" horiz-adv-x="316" 
d="M224 804h86l-218 -881h-86z" />
    <glyph glyph-name="zero" unicode="0" horiz-adv-x="482" 
d="M241 -10c-82 0 -152 49 -177 141c-8 28 -11 59 -11 100v288c0 40 3 72 11 100c25 92 95 141 177 141s152 -49 177 -141c8 -28 11 -60 11 -100v-288c0 -41 -3 -72 -11 -100c-25 -92 -95 -141 -177 -141zM241 85c38 0 66 19 80 62c7 21 10 49 10 88v280c0 39 -3 67 -10 88
c-14 43 -42 62 -80 62s-66 -19 -80 -62c-7 -21 -10 -49 -10 -88v-280c0 -39 3 -67 10 -88c14 -43 42 -62 80 -62z" />
    <glyph glyph-name="one" unicode="1" horiz-adv-x="310" 
d="M10 482v131l132 137h94v-750h-98v614l-126 -132h-2z" />
    <glyph glyph-name="two" unicode="2" horiz-adv-x="437" 
d="M40 0v36c0 160 70 244 138 316l15 16c53 57 106 107 106 202c0 70 -33 96 -79 96c-48 0 -80 -30 -80 -119v-10h-97v10c0 137 73 213 177 213c98 0 177 -63 177 -190c0 -109 -68 -189 -141 -269l-10 -12c-41 -44 -97 -102 -103 -194h256v-95h-359z" />
    <glyph glyph-name="three" unicode="3" horiz-adv-x="447" 
d="M146 354v85h42c81 0 114 55 114 132c0 73 -37 98 -80 98c-51 0 -81 -35 -84 -102h-96c7 120 76 193 181 193c100 0 177 -63 177 -188c0 -62 -27 -125 -102 -173c87 -35 116 -123 116 -190c0 -136 -84 -219 -194 -219c-116 0 -186 79 -193 204h97c6 -77 39 -110 95 -110
c54 0 97 36 97 133c0 80 -38 137 -128 137h-42z" />
    <glyph glyph-name="four" unicode="4" horiz-adv-x="454" 
d="M234 760h129v-478h81v-86h-81v-196h-94v196h-247v90zM111 282h158v367z" />
    <glyph glyph-name="five" unicode="5" horiz-adv-x="461" 
d="M242 413c-35 0 -70 -25 -88 -60h-96v397h329v-95h-231v-203c32 38 74 53 104 53c78 0 132 -42 151 -134c5 -23 7 -51 7 -90v-56c0 -37 -2 -63 -8 -87c-22 -94 -90 -148 -176 -148c-104 0 -181 86 -184 219h98c3 -84 38 -124 85 -124c38 0 68 19 80 65c5 18 7 44 7 80v43
c0 34 -2 57 -5 74c-10 50 -35 66 -73 66z" />
    <glyph glyph-name="six" unicode="6" horiz-adv-x="472" 
d="M151 250v-15c0 -39 3 -67 10 -88c14 -43 42 -62 80 -62c37 0 65 21 78 62c7 21 11 49 11 88v10c0 32 -1 50 -3 65c-10 59 -37 84 -78 84c-52 0 -98 -55 -98 -144zM151 514v-106c34 64 83 77 127 77c64 0 119 -38 140 -126c6 -27 10 -59 10 -104v-24
c0 -41 -3 -72 -11 -100c-25 -92 -95 -141 -176 -141c-82 0 -152 49 -177 141c-8 28 -11 59 -11 100v288c0 40 3 72 11 100c25 92 95 141 177 141c104 0 170 -70 184 -179h-100c-12 62 -50 83 -84 83c-38 0 -66 -19 -80 -62c-7 -21 -10 -49 -10 -88z" />
    <glyph glyph-name="seven" unicode="7" horiz-adv-x="399" 
d="M201 0h-105c17 202 97 441 183 655h-263v95h363v-89c-91 -228 -162 -440 -178 -661z" />
    <glyph glyph-name="eight" unicode="8" horiz-adv-x="464" 
d="M232 760c106 0 182 -67 182 -189c0 -67 -31 -128 -95 -172c73 -37 110 -112 110 -189c0 -126 -74 -220 -197 -220s-197 94 -197 220c0 77 37 152 110 189c-64 44 -95 105 -95 172c0 122 76 189 182 189zM232 73c60 0 99 51 99 139c0 67 -31 133 -99 133s-99 -66 -99 -133
c0 -88 39 -139 99 -139zM232 447c53 0 84 55 84 120c0 71 -33 110 -84 110s-84 -39 -84 -110c0 -65 31 -120 84 -120z" />
    <glyph glyph-name="nine" unicode="9" horiz-adv-x="472" 
d="M321 500v15c0 39 -3 67 -10 88c-14 43 -42 62 -80 62c-37 0 -65 -21 -78 -62c-7 -21 -11 -49 -11 -88v-10c0 -32 1 -50 3 -65c10 -59 37 -84 78 -84c52 0 98 55 98 144zM321 236v106c-34 -64 -83 -77 -127 -77c-64 0 -119 38 -140 126c-6 27 -10 59 -10 104v24
c0 41 3 72 11 100c25 92 95 141 176 141c82 0 152 -49 177 -141c8 -28 11 -59 11 -100v-288c0 -40 -3 -72 -11 -100c-25 -92 -95 -141 -177 -141c-104 0 -170 70 -184 179h100c12 -62 50 -83 84 -83c38 0 66 19 80 62c7 21 10 49 10 88z" />
    <glyph glyph-name="colon" unicode=":" horiz-adv-x="215" 
d="M164 0h-114v136h114v-136zM164 413h-114v136h114v-136z" />
    <glyph glyph-name="semicolon" unicode=";" horiz-adv-x="215" 
d="M166 413h-114v136h114v-136zM93 0h-41v136h119v-127c0 -79 -29 -155 -127 -174v38c58 23 70 66 70 106c0 17 -8 21 -21 21z" />
    <glyph glyph-name="less" unicode="&#x3c;" 
d="M394 34l-358 222v90l358 222v-93l-291 -174l291 -174v-93z" />
    <glyph glyph-name="equal" unicode="=" horiz-adv-x="443" 
d="M403 371h-363v79h363v-79zM403 151h-363v79h363v-79z" />
    <glyph glyph-name="greater" unicode="&#x3e;" 
d="M36 568l358 -222v-90l-358 -222v93l291 174l-291 174v93z" />
    <glyph glyph-name="question" unicode="?" horiz-adv-x="390" 
d="M224 245h-89c-1 10 -1 22 -1 31c0 97 42 147 79 191c29 34 54 69 54 125s-31 82 -74 82c-50 0 -80 -42 -80 -112v-9h-91v9c0 127 71 198 170 198c102 0 171 -56 171 -165c0 -75 -37 -124 -72 -165c-34 -39 -73 -80 -67 -185zM236 0h-108v123h108v-123z" />
    <glyph glyph-name="at" unicode="@" horiz-adv-x="734" 
d="M304 348l-11 -108c-3 -37 -10 -132 48 -132c41 0 81 70 88 133l10 101c4 40 4 139 -57 139c-43 0 -69 -38 -78 -133zM327 34c-107 0 -127 110 -117 199l13 114c15 139 71 209 153 209c38 0 77 -23 93 -76l17 63h56l-38 -362c-3 -31 -8 -98 23 -102c51 -6 102 158 106 317
c6 232 -87 309 -233 309h-10c-134 0 -245 -111 -269 -344l-14 -137c-16 -138 27 -325 215 -325h9c58 0 127 23 176 58l16 -47c-48 -35 -126 -60 -196 -60h-9c-211 0 -286 188 -266 372l15 137c30 272 164 391 323 391h10c170 0 291 -84 285 -354c-4 -191 -64 -371 -165 -365
c-49 3 -70 43 -79 99c-16 -56 -68 -96 -114 -96z" />
    <glyph glyph-name="A" unicode="A" horiz-adv-x="460" 
d="M232 632h-4l-63 -315h130zM163 750h134l157 -750h-98l-44 225h-164l-44 -225h-98z" />
    <glyph glyph-name="B" unicode="B" horiz-adv-x="485" 
d="M64 0v750h151c39 0 69 -4 93 -10c79 -21 123 -81 123 -176c0 -69 -29 -130 -97 -171c86 -40 116 -111 116 -179c0 -117 -65 -198 -174 -212c-9 -1 -24 -2 -41 -2h-171zM229 339h-67v-246h73c18 0 32 2 40 4c50 14 77 60 77 119c0 56 -24 99 -70 116c-12 5 -30 7 -53 7z
M222 657h-60v-227h58c21 0 39 3 51 8c40 15 64 53 64 114c0 52 -22 83 -59 97c-12 5 -32 8 -54 8z" />
    <glyph glyph-name="C" unicode="C" horiz-adv-x="472" 
d="M151 502v-254c0 -19 1 -48 5 -70c9 -47 35 -93 88 -93h4c56 0 81 45 89 93c3 18 5 41 5 58h98c-1 -27 -4 -54 -8 -78c-18 -97 -78 -168 -184 -168h-4c-107 0 -167 72 -184 167c-5 28 -7 60 -7 88v260c0 28 2 60 7 88c17 95 77 167 184 167h4c106 0 166 -71 184 -168
c4 -23 7 -48 8 -73h-98s-1 30 -5 53c-8 47 -33 93 -89 93h-4c-53 0 -79 -46 -88 -93c-4 -22 -5 -51 -5 -70z" />
    <glyph glyph-name="D" unicode="D" horiz-adv-x="498" 
d="M162 655v-560h63c24 0 41 3 53 7c40 14 59 50 64 85c4 23 5 51 5 70v236c0 19 -1 47 -5 70c-5 35 -24 71 -64 85c-12 4 -29 7 -53 7h-63zM445 495v-240c0 -31 -3 -59 -8 -87c-15 -80 -59 -144 -149 -163c-17 -3 -39 -5 -65 -5h-159v750h159c26 0 48 -2 65 -5
c90 -19 134 -83 149 -163c5 -28 8 -56 8 -87z" />
    <glyph glyph-name="E" unicode="E" horiz-adv-x="441" 
d="M64 0v750h349v-95h-251v-222h208v-95h-208v-243h251v-95h-349z" />
    <glyph glyph-name="F" unicode="F" horiz-adv-x="436" 
d="M64 0v750h349v-95h-251v-222h208v-95h-208v-338h-98z" />
    <glyph glyph-name="G" unicode="G" horiz-adv-x="495" 
d="M151 502v-254c0 -19 1 -48 5 -70c9 -47 34 -94 88 -94h4c58 0 83 46 91 94c3 22 5 49 5 71v44h-103v90h199v-383h-51l-20 84c-30 -67 -75 -94 -133 -94c-105 0 -163 77 -179 184c-3 22 -4 49 -4 71v260c0 28 2 60 7 88c17 95 77 167 184 167h4c106 0 166 -71 184 -168
c4 -23 7 -48 8 -73h-98s-1 30 -5 53c-8 47 -33 93 -89 93h-4c-53 0 -79 -46 -88 -93c-4 -22 -5 -51 -5 -70z" />
    <glyph glyph-name="H" unicode="H" horiz-adv-x="524" 
d="M64 0v750h98v-312h200v312h98v-750h-98v343h-200v-343h-98z" />
    <glyph glyph-name="I" unicode="I" horiz-adv-x="226" 
d="M64 0v750h98v-750h-98z" />
    <glyph glyph-name="J" unicode="J" horiz-adv-x="436" 
d="M131 263v-49c0 -25 2 -40 4 -54c7 -45 32 -75 70 -75c37 0 61 26 69 73c2 12 4 29 4 56v536h98v-538c0 -24 -1 -42 -3 -58c-13 -92 -68 -164 -168 -164c-96 0 -154 65 -168 160c-2 16 -4 36 -4 63v50h98z" />
    <glyph glyph-name="K" unicode="K" horiz-adv-x="480" 
d="M162 414l1 -1s19 35 28 49l172 288h107l-178 -285l195 -465h-107l-149 371l-69 -113v-258h-98v750h98v-336z" />
    <glyph glyph-name="L" unicode="L" horiz-adv-x="434" 
d="M64 0v750h98v-655h254v-95h-352z" />
    <glyph glyph-name="M" unicode="M" horiz-adv-x="622" 
d="M311 302l128 448h119v-750h-92v498c0 25 1 58 1 58h-1l-119 -417h-72l-119 417h-1s1 -33 1 -58v-498h-92v750h119z" />
    <glyph glyph-name="N" unicode="N" horiz-adv-x="523" 
d="M367 262v488h92v-750h-113l-190 546h-1s1 -33 1 -58v-488h-92v750h113l190 -546h1s-1 33 -1 58z" />
    <glyph glyph-name="O" unicode="O" horiz-adv-x="493" 
d="M151 502v-254c0 -19 1 -48 5 -70c9 -47 34 -93 88 -93h5c54 0 79 46 88 93c4 22 5 51 5 70v254c0 19 -1 48 -5 70c-9 47 -34 93 -88 93h-5c-54 0 -79 -46 -88 -93c-4 -22 -5 -51 -5 -70zM440 503v-256c0 -28 -2 -61 -7 -89c-17 -95 -75 -168 -184 -168h-5
c-109 0 -167 73 -184 168c-5 28 -7 61 -7 89v256c0 28 2 61 7 89c17 95 75 168 184 168h5c109 0 167 -73 184 -168c5 -28 7 -61 7 -89z" />
    <glyph glyph-name="P" unicode="P" horiz-adv-x="481" 
d="M162 388h64c23 0 39 3 51 8c51 21 73 71 73 125c0 49 -19 108 -72 128c-12 5 -27 8 -52 8h-64v-269zM228 295h-66v-295h-98v750h163c32 0 54 -3 75 -8c94 -24 146 -111 146 -221c0 -104 -50 -196 -155 -220c-18 -4 -37 -6 -65 -6z" />
    <glyph glyph-name="Q" unicode="Q" horiz-adv-x="495" 
d="M440 503v-256c0 -28 -2 -61 -7 -89c-10 -56 -35 -105 -75 -135c42 -18 86 -24 134 -26v-84c-105 6 -167 27 -219 78c-8 -1 -16 -1 -24 -1h-5c-109 0 -167 73 -184 168c-5 28 -7 61 -7 89v256c0 28 2 61 7 89c17 95 75 168 184 168h5c109 0 167 -73 184 -168
c5 -28 7 -61 7 -89zM151 502v-254c0 -19 1 -48 5 -70c9 -47 34 -93 88 -93h5c54 0 79 46 88 93c4 22 5 51 5 70v254c0 19 -1 48 -5 70c-9 47 -34 93 -88 93h-5c-54 0 -79 -46 -88 -93c-4 -22 -5 -51 -5 -70z" />
    <glyph glyph-name="R" unicode="R" horiz-adv-x="469" 
d="M425 231l8 -141c2 -37 8 -66 22 -88v-2h-99c-12 17 -18 50 -20 83l-8 136c-4 59 -21 91 -59 103c-11 3 -25 5 -51 5h-56v-327h-98v750h151c25 0 48 -1 67 -5c92 -18 151 -79 151 -189c0 -72 -38 -146 -115 -178v-1c70 -18 103 -75 107 -146zM211 657h-49v-237h52
c21 0 35 1 47 4c50 14 74 62 74 124s-31 93 -76 104c-12 3 -30 5 -48 5z" />
    <glyph glyph-name="S" unicode="S" horiz-adv-x="460" 
d="M419 549h-97c-2 73 -31 123 -90 123c-64 0 -85 -51 -85 -104c0 -68 33 -101 85 -126l36 -18c89 -43 157 -106 157 -225c0 -128 -82 -209 -194 -209c-118 0 -195 92 -197 215h98c-1 -81 46 -127 100 -127c56 0 96 44 96 123c0 69 -38 103 -105 137l-31 16
c-79 42 -142 89 -142 212c0 124 79 194 182 194c107 0 188 -70 187 -211z" />
    <glyph glyph-name="T" unicode="T" horiz-adv-x="432" 
d="M12 750h408v-95h-155v-655h-98v655h-155v95z" />
    <glyph glyph-name="U" unicode="U" horiz-adv-x="507" 
d="M60 247v503h98v-502c0 -19 1 -48 5 -70c9 -47 34 -93 88 -93h5c54 0 79 46 88 93c4 22 5 51 5 70v502h98v-503c0 -28 -2 -61 -7 -89c-17 -95 -75 -168 -184 -168h-5c-109 0 -167 73 -184 168c-5 28 -7 61 -7 89z" />
    <glyph glyph-name="V" unicode="V" horiz-adv-x="447" 
d="M282 0h-117l-163 750h98l121 -617h5l121 617h98z" />
    <glyph glyph-name="W" unicode="W" horiz-adv-x="681" 
d="M342 569h-3l-86 -569h-125l-114 750h102l76 -602h3l88 602h115l88 -602h3l76 602h102l-114 -750h-125z" />
    <glyph glyph-name="X" unicode="X" horiz-adv-x="439" 
d="M106 0h-106l170 391l-151 359h105l96 -252l97 252h105l-151 -359l168 -391h-104l-115 287z" />
    <glyph glyph-name="Y" unicode="Y" horiz-adv-x="440" 
d="M220 436l120 314h105l-176 -422v-328h-98v328l-176 422h105z" />
    <glyph glyph-name="Z" unicode="Z" horiz-adv-x="454" 
d="M40 655v95h376v-87l-275 -568h280v-95h-391v88l275 567h-265z" />
    <glyph glyph-name="bracketleft" unicode="[" horiz-adv-x="310" 
d="M73 -190v1049h227v-67h-135v-915h135v-67h-227z" />
    <glyph glyph-name="backslash" unicode="\" horiz-adv-x="316" 
d="M6 804h86l218 -881h-86z" />
    <glyph glyph-name="bracketright" unicode="]" horiz-adv-x="310" 
d="M237 859v-1049h-227v67h135v915h-135v67h227z" />
    <glyph glyph-name="asciicircum" unicode="^" horiz-adv-x="368" 
d="M138 760h92l120 -355h-80l-86 280l-86 -280h-80z" />
    <glyph glyph-name="underscore" unicode="_" horiz-adv-x="352" 
d="M354 -133h-356v64h356v-64z" />
    <glyph glyph-name="grave" unicode="`" horiz-adv-x="438" 
d="M211 671l-122 162v5h103l82 -167h-63z" />
    <glyph glyph-name="a" unicode="a" horiz-adv-x="435" 
d="M149 425h-90c16 88 76 145 161 145c47 0 86 -16 112 -47c39 -48 45 -114 45 -183v-340h-61l-11 81c-28 -65 -70 -91 -128 -91c-77 0 -139 62 -139 182c0 91 47 155 137 170c14 2 31 4 57 4h51v20c0 38 -2 75 -20 99c-11 14 -27 23 -47 23c-32 0 -57 -22 -67 -63zM131 172
c0 -64 22 -97 68 -97c44 0 67 42 78 92c5 21 7 46 7 77v26h-55c-23 0 -39 -3 -50 -8c-31 -15 -48 -44 -48 -90z" />
    <glyph glyph-name="b" unicode="b" horiz-adv-x="456" 
d="M61 0v785h95v-232c0 -25 -1 -50 -1 -50h1c20 40 62 67 110 67c82 0 127 -58 141 -137c5 -26 6 -54 6 -91v-124c0 -37 -1 -65 -6 -91c-14 -79 -59 -137 -143 -137c-56 0 -107 26 -134 84l-9 -74h-60zM318 216v128c0 12 -2 41 -4 57c-5 39 -23 80 -69 80
c-43 0 -69 -35 -80 -75c-5 -20 -9 -42 -9 -80v-92c0 -38 4 -60 9 -80c11 -40 37 -75 80 -75c46 0 64 41 69 80c2 16 4 45 4 57z" />
    <glyph glyph-name="c" unicode="c" horiz-adv-x="416" 
d="M215 482c-40 0 -65 -29 -73 -78c-3 -17 -4 -39 -4 -71v-106c0 -32 1 -54 4 -71c8 -49 33 -78 73 -78c47 0 69 48 74 88h95c-12 -98 -71 -176 -169 -176c-97 0 -153 65 -167 161c-3 20 -5 42 -5 74v110c0 32 2 54 5 74c14 96 70 161 167 161s157 -65 170 -186h-95
c-2 47 -24 98 -75 98z" />
    <glyph glyph-name="d" unicode="d" horiz-adv-x="456" 
d="M138 344v-128c0 -12 2 -41 4 -57c5 -39 23 -80 69 -80c43 0 69 35 80 75c5 20 9 42 9 80v92c0 38 -4 60 -9 80c-11 40 -37 75 -80 75c-46 0 -64 -41 -69 -80c-2 -16 -4 -45 -4 -57zM395 785v-785h-60l-10 88c-27 -68 -78 -98 -135 -98c-82 0 -127 58 -141 137
c-5 26 -6 54 -6 91v124c0 37 1 65 6 91c14 79 59 137 141 137c48 0 89 -26 110 -64h1s-1 25 -1 50v229h95z" />
    <glyph glyph-name="e" unicode="e" 
d="M216 75c43 0 67 39 74 77h93c-17 -100 -73 -162 -167 -162c-97 0 -154 65 -168 160c-3 21 -5 43 -5 75v110c0 32 2 54 5 74c14 96 71 161 168 161c98 0 153 -67 166 -161c4 -30 6 -53 6 -105v-44h-250v-36c0 -32 1 -54 4 -72c9 -46 35 -77 74 -77zM142 407
c-3 -17 -4 -34 -4 -69h154c0 22 0 45 -5 69c-10 46 -33 78 -72 78c-40 0 -65 -30 -73 -78z" />
    <glyph glyph-name="f" unicode="f" horiz-adv-x="285" 
d="M275 472h-101s1 -45 1 -71v-401h-95v472h-68v88h68v46c0 130 65 190 162 190c17 0 31 -1 45 -3v-89c-12 2 -21 3 -33 3c-54 0 -79 -27 -79 -104v-43h100v-88z" />
    <glyph glyph-name="g" unicode="g" horiz-adv-x="456" 
d="M335 560h60v-571c0 -36 -3 -62 -8 -86c-20 -86 -79 -141 -164 -141c-86 0 -155 50 -169 161h94c11 -53 43 -76 75 -76c41 0 66 29 74 85c2 13 3 32 3 56v29c0 25 1 50 1 50h-1c-20 -40 -62 -67 -110 -67c-82 0 -127 58 -141 137c-5 26 -6 54 -6 91v114c0 37 1 65 6 91
c14 79 59 137 143 137c56 0 107 -26 134 -84zM138 344v-118c0 -12 2 -41 4 -57c5 -39 23 -80 69 -80c43 0 69 35 80 75c5 20 9 42 9 80v82c0 38 -4 60 -9 80c-11 40 -37 75 -80 75c-46 0 -64 -41 -69 -80c-2 -16 -4 -45 -4 -57z" />
    <glyph glyph-name="h" unicode="h" horiz-adv-x="471" 
d="M245 481c-43 0 -69 -35 -80 -75c-5 -20 -9 -42 -9 -80v-326h-95v785h95v-232c0 -25 -1 -50 -1 -50h1c20 40 62 67 110 67c82 0 127 -58 141 -137c5 -26 6 -54 6 -91v-342h-95v344c0 17 -1 39 -4 57c-6 39 -23 80 -69 80z" />
    <glyph glyph-name="i" unicode="i" horiz-adv-x="217" 
d="M61 0v560h95v-560h-95zM59 657v108h99v-108h-99z" />
    <glyph glyph-name="k" unicode="k" horiz-adv-x="427" 
d="M204 285l-48 -66v-219h-95v785h95v-436l145 211h109l-142 -194l159 -366h-107z" />
    <glyph glyph-name="l" unicode="l" horiz-adv-x="217" 
d="M61 0v785h95v-785h-95z" />
    <glyph glyph-name="m" unicode="m" horiz-adv-x="684" 
d="M252 570c57 0 98 -31 118 -77c29 54 76 77 118 77c66 0 110 -41 126 -98c10 -34 12 -74 12 -121v-351h-95v348c0 28 0 52 -4 72c-7 32 -24 61 -59 61c-43 0 -64 -39 -73 -84c-3 -17 -4 -42 -4 -65v-332h-95v348c0 28 0 52 -4 72c-7 32 -24 61 -60 61
c-42 0 -64 -39 -72 -84c-3 -17 -4 -42 -4 -65v-332h-95v560h60l9 -77c28 61 78 87 122 87z" />
    <glyph glyph-name="n" unicode="n" horiz-adv-x="471" 
d="M245 481c-43 0 -69 -35 -80 -75c-5 -20 -9 -42 -9 -80v-326h-95v560h60l10 -88c27 68 78 98 135 98c82 0 127 -58 141 -137c5 -26 6 -54 6 -91v-342h-95v344c0 17 -1 39 -4 57c-6 39 -23 80 -69 80z" />
    <glyph glyph-name="o" unicode="o" 
d="M387 335v-110c0 -32 -2 -54 -5 -74c-14 -96 -70 -161 -167 -161s-153 65 -167 161c-3 20 -5 42 -5 74v110c0 32 2 54 5 74c14 96 70 161 167 161s153 -65 167 -161c3 -20 5 -42 5 -74zM138 333v-106c0 -32 1 -54 4 -71c8 -49 33 -78 73 -78s65 29 73 78c3 17 4 39 4 71
v106c0 32 -1 54 -4 71c-8 49 -33 78 -73 78s-65 -29 -73 -78c-3 -17 -4 -39 -4 -71z" />
    <glyph glyph-name="p" unicode="p" horiz-adv-x="456" 
d="M318 216v128c0 12 -2 41 -4 57c-5 39 -23 80 -69 80c-43 0 -69 -35 -80 -75c-5 -20 -9 -42 -9 -80v-92c0 -38 4 -60 9 -80c11 -40 37 -75 80 -75c46 0 64 41 69 80c2 16 4 45 4 57zM61 -244v804h60l10 -88c27 68 78 98 135 98c82 0 127 -58 141 -137c5 -26 6 -54 6 -91
v-124c0 -37 -1 -65 -6 -91c-14 -79 -59 -137 -141 -137c-48 0 -90 27 -110 64h-1s1 -25 1 -50v-248h-95z" />
    <glyph glyph-name="q" unicode="q" horiz-adv-x="456" 
d="M335 560h60v-804h-95v251c0 25 1 50 1 50h-1c-20 -40 -62 -67 -110 -67c-82 0 -127 58 -141 137c-5 26 -6 54 -6 91v124c0 37 1 65 6 91c14 79 59 137 143 137c56 0 107 -26 134 -84zM138 344v-128c0 -12 2 -41 4 -57c5 -39 23 -80 69 -80c43 0 69 35 80 75
c5 20 9 42 9 80v92c0 38 -4 60 -9 80c-11 40 -37 75 -80 75c-46 0 -64 -41 -69 -80c-2 -16 -4 -45 -4 -57z" />
    <glyph glyph-name="r" unicode="r" horiz-adv-x="338" 
d="M265 481c-66 0 -96 -56 -105 -124c-3 -27 -4 -58 -4 -91v-266h-95v560h60l10 -92c29 73 84 102 142 102c18 0 39 -3 54 -7l-2 -92c-19 6 -38 10 -60 10z" />
    <glyph glyph-name="s" unicode="s" horiz-adv-x="383" 
d="M169 255c-86 37 -131 83 -131 163c0 93 58 152 151 152c88 0 143 -47 156 -144h-90c-7 46 -29 68 -66 68c-42 0 -63 -27 -63 -70c0 -45 26 -69 82 -94c75 -33 145 -83 145 -177c0 -102 -62 -163 -156 -163c-100 0 -161 63 -171 162h90c7 -52 35 -85 80 -85
c42 0 68 33 68 83c0 54 -32 78 -95 105z" />
    <glyph glyph-name="t" unicode="t" horiz-adv-x="298" 
d="M177 472v-257c0 -34 2 -53 5 -69c10 -48 32 -61 77 -61c7 0 10 0 19 1v-86c-15 -2 -26 -2 -36 -2c-89 0 -137 39 -154 126c-4 23 -6 55 -6 88v260h-70v88h70v140h95v-140h100v-88h-100z" />
    <glyph glyph-name="u" unicode="u" horiz-adv-x="471" 
d="M226 79c43 0 69 35 80 75c5 20 9 42 9 80v326h95v-560h-60l-10 88c-27 -68 -78 -98 -135 -98c-82 0 -127 58 -141 137c-5 26 -6 54 -6 91v342h95v-344c0 -17 1 -39 4 -57c6 -39 23 -80 69 -80z" />
    <glyph glyph-name="v" unicode="v" horiz-adv-x="379" 
d="M96 560l92 -432h3l92 432h94l-135 -560h-105l-135 560h94z" />
    <glyph glyph-name="w" unicode="w" horiz-adv-x="577" 
d="M244 560h89l74 -418h3l66 418h94l-106 -560h-101l-73 405h-3l-73 -405h-101l-106 560h94l66 -418h3z" />
    <glyph glyph-name="x" unicode="x" horiz-adv-x="382" 
d="M14 560h99l78 -184l76 184h99l-127 -267l140 -293h-98l-90 210l-90 -210h-98l139 293z" />
    <glyph glyph-name="y" unicode="y" horiz-adv-x="396" 
d="M48 -127c41 0 72 21 90 87l19 69l-149 531h95l99 -386h3l94 386h95l-158 -582c-37 -134 -89 -194 -171 -194c-27 0 -45 4 -63 9v86c13 -3 28 -6 46 -6z" />
    <glyph glyph-name="z" unicode="z" horiz-adv-x="396" 
d="M370 0h-343v77l224 395h-215v88h322v-79l-222 -393h234v-88z" />
    <glyph glyph-name="braceleft" unicode="{" horiz-adv-x="344" 
d="M20 299v70h20c83 0 84 87 78 151l-16 173c-10 108 57 165 172 165h60v-66h-47c-65 0 -99 -32 -92 -100l16 -159c8 -79 -5 -160 -88 -199c83 -39 96 -120 88 -199l-16 -159c-7 -68 27 -100 92 -100h47v-66h-60c-115 0 -182 57 -172 165l16 173c6 64 5 151 -78 151h-20z
" />
    <glyph glyph-name="bar" unicode="|" horiz-adv-x="283" 
d="M98 -190v1049h87v-1049h-87z" />
    <glyph glyph-name="braceright" unicode="}" horiz-adv-x="344" 
d="M324 369v-70h-20c-83 0 -84 -87 -78 -151l16 -173c10 -108 -57 -165 -172 -165h-60v66h47c65 0 99 32 92 100l-16 159c-8 79 5 160 88 199c-83 39 -96 120 -88 199l16 159c7 68 -27 100 -92 100h-47v66h60c115 0 182 -57 172 -165l-16 -173c-6 -64 -5 -151 78 -151h20z
" />
    <glyph glyph-name="asciitilde" unicode="~" horiz-adv-x="433" 
d="M87 334h-57c8 94 44 156 110 156c30 0 54 -13 79 -40c36 -38 54 -56 77 -56c25 0 43 18 50 79h57c-8 -94 -44 -156 -110 -156c-30 0 -54 13 -79 40c-36 38 -54 56 -77 56c-25 0 -43 -18 -50 -79z" />
    <glyph glyph-name="uni00A0" unicode="&#xa0;" horiz-adv-x="175" 
 />
    <glyph glyph-name="exclamdown" unicode="&#xa1;" horiz-adv-x="216" 
d="M68 324h80l13 -514h-106zM54 560h108v-123h-108v123z" />
    <glyph glyph-name="cent" unicode="&#xa2;" horiz-adv-x="419" 
d="M239 701v-92c84 -10 136 -74 148 -185h-95c-2 39 -18 81 -53 94v-396c32 12 48 51 52 84h95c-11 -91 -62 -164 -147 -175v-101h-42v101c-85 8 -134 71 -147 160c-3 20 -5 42 -5 74v110c0 32 2 54 5 74c13 89 62 151 147 160v92h42zM144 196c6 -40 24 -67 53 -76v399
c-29 -8 -47 -35 -53 -75c-3 -17 -4 -39 -4 -71v-106c0 -32 1 -54 4 -71z" />
    <glyph glyph-name="sterling" unicode="&#xa3;" horiz-adv-x="463" 
d="M421 566h-90c-6 85 -35 110 -74 110c-45 0 -74 -36 -74 -123v-149h143v-57h-143v-135c0 -69 -8 -102 -47 -128v-2h133c54 0 78 13 85 93h86c-3 -145 -68 -175 -169 -175h-233v83c41 6 53 38 53 124v140h-63v57h63v147c0 138 65 209 165 209c92 0 157 -66 165 -194z" />
    <glyph glyph-name="yen" unicode="&#xa5;" horiz-adv-x="463" 
d="M278 0h-93v185h-153v57h153v111h-153v57h139l-151 340h99l112 -277l113 277h99l-151 -340h139v-57h-153v-111h153v-57h-153v-185z" />
    <glyph glyph-name="brokenbar" unicode="&#xa6;" horiz-adv-x="283" 
d="M98 -190v449h87v-449h-87zM98 410v449h87v-449h-87z" />
    <glyph glyph-name="section" unicode="&#xa7;" horiz-adv-x="417" 
d="M36 324c0 54 32 102 90 141c-54 38 -74 87 -74 140c0 97 73 145 151 145c76 0 143 -42 156 -143h-84c-8 49 -37 71 -71 71c-40 0 -69 -26 -69 -74c0 -50 28 -81 84 -108l37 -18c69 -33 126 -76 126 -159c0 -52 -32 -102 -89 -140c51 -38 74 -89 74 -140
c0 -101 -68 -158 -156 -158c-92 0 -159 51 -171 158h84c8 -63 43 -87 82 -87c40 0 77 25 77 82c0 60 -36 91 -87 115l-34 16c-69 33 -126 76 -126 159zM226 409l-45 20c-36 -21 -66 -54 -66 -99c0 -46 32 -75 77 -96l45 -21c36 21 66 55 66 100c0 46 -30 75 -77 96z" />
    <glyph glyph-name="dieresis" unicode="&#xa8;" horiz-adv-x="438" 
d="M179 674h-94v100h94v-100zM353 674h-94v100h94v-100z" />
    <glyph glyph-name="copyright" unicode="&#xa9;" horiz-adv-x="774" 
d="M262 301v148c0 18 1 37 4 55c10 60 51 108 120 108h8c70 0 108 -47 120 -108c3 -13 4 -28 5 -43h-57c0 10 -1 23 -3 35c-5 32 -25 62 -65 62h-8c-39 0 -59 -31 -64 -64c-2 -16 -3 -32 -3 -46v-146c0 -14 1 -31 3 -47c5 -32 25 -63 64 -63h8c40 0 60 31 65 63
c2 11 3 26 3 38h57c-1 -17 -3 -34 -5 -47c-12 -63 -50 -108 -120 -108h-8c-69 0 -110 47 -120 108c-3 18 -4 37 -4 55zM48 375c0 213 116 385 339 385s339 -172 339 -385s-116 -385 -339 -385s-339 172 -339 385zM93 375c0 -189 95 -343 294 -343s294 154 294 343
s-95 343 -294 343s-294 -154 -294 -343z" />
    <glyph glyph-name="ordfeminine" unicode="&#xaa;" horiz-adv-x="260" 
d="M87 682h-46c12 47 45 78 92 78c68 0 91 -53 91 -115v-221h-29l-9 44c-11 -27 -38 -50 -78 -50c-44 0 -80 37 -80 106c0 62 44 99 113 99h34v23c0 30 -5 74 -43 74c-23 0 -39 -16 -45 -38zM76 525c0 -42 14 -66 44 -66c29 0 46 27 52 58c2 12 4 28 4 47v22h-36
c-40 0 -64 -22 -64 -61z" />
    <glyph glyph-name="guillemotleft" unicode="&#xab;" horiz-adv-x="427" 
d="M199 58l-179 253l179 253v-116l-98 -137l98 -137v-116zM389 58l-179 253l179 253v-116l-98 -137l98 -137v-116z" />
    <glyph glyph-name="logicalnot" unicode="&#xac;" horiz-adv-x="490" 
d="M450 750v-750h-410v750h410zM415 688l-150 -312l150 -314v626zM225 376l-150 311v-625zM390 714h-290l145 -302zM100 36h290l-145 302z" />
    <glyph glyph-name="registered" unicode="&#xae;" horiz-adv-x="426" 
d="M36 583c0 111 61 202 177 202s177 -91 177 -202s-61 -202 -177 -202s-177 91 -177 202zM63 583c0 -97 48 -177 150 -177s150 80 150 177s-48 177 -150 177s-150 -80 -150 -177zM297 469h-41l-44 96h-25v-96h-35v233h58c46 0 79 -22 79 -66c0 -32 -18 -55 -42 -64z
M210 668h-24v-69h28c20 0 37 13 37 37c0 22 -17 32 -41 32z" />
    <glyph glyph-name="macron" unicode="&#xaf;" horiz-adv-x="438" 
d="M348 737v-62h-258v62h258z" />
    <glyph glyph-name="degree" unicode="&#xb0;" horiz-adv-x="246" 
d="M62 648c0 -47 23 -82 61 -82s61 35 61 82s-23 82 -61 82s-61 -35 -61 -82zM28 648c0 63 34 112 95 112s95 -49 95 -112s-34 -112 -95 -112s-95 49 -95 112z" />
    <glyph glyph-name="plusminus" unicode="&#xb1;" horiz-adv-x="509" 
d="M296 469h178v-79h-178v-230h-84v230h-177v79h177v231h84v-231zM474 -3h-439v79h439v-79z" />
    <glyph glyph-name="twosuperior" unicode="&#xb2;" horiz-adv-x="490" 
d="M450 750v-750h-410v750h410zM415 688l-150 -312l150 -314v626zM225 376l-150 311v-625zM390 714h-290l145 -302zM100 36h290l-145 302z" />
    <glyph glyph-name="threesuperior" unicode="&#xb3;" horiz-adv-x="490" 
d="M450 750v-750h-410v750h410zM415 688l-150 -312l150 -314v626zM225 376l-150 311v-625zM390 714h-290l145 -302zM100 36h290l-145 302z" />
    <glyph glyph-name="acute" unicode="&#xb4;" horiz-adv-x="438" 
d="M144 657l82 167h104v-7l-122 -160h-64z" />
    <glyph glyph-name="mu" unicode="&#xb5;" horiz-adv-x="474" 
d="M353 0l-9 76c-32 -58 -72 -86 -121 -86c-39 0 -61 23 -74 39c1 -16 4 -69 4 -88v-185h-92v804h95v-344c0 -12 2 -41 4 -57c5 -39 23 -80 69 -80c43 0 69 35 80 75c5 20 9 42 9 80v326h95v-560h-60z" />
    <glyph glyph-name="mu" unicode="&#x3bc;" horiz-adv-x="474" 
d="M353 0l-9 76c-32 -58 -72 -86 -121 -86c-39 0 -61 23 -74 39c1 -16 4 -69 4 -88v-185h-92v804h95v-344c0 -12 2 -41 4 -57c5 -39 23 -80 69 -80c43 0 69 35 80 75c5 20 9 42 9 80v326h95v-560h-60z" />
    <glyph glyph-name="paragraph" unicode="&#xb6;" horiz-adv-x="507" 
d="M208 -175v538c-92 2 -165 88 -165 192c0 108 71 195 179 195h215v-925h-71v869h-85v-869h-73z" />
    <glyph glyph-name="periodcentered" unicode="&#xb7;" horiz-adv-x="192" 
d="M153 327h-114v136h114v-136z" />
    <glyph glyph-name="cedilla" unicode="&#xb8;" horiz-adv-x="438" 
d="M238 20l-18 -66c49 -14 91 -47 91 -99c0 -56 -39 -90 -86 -90c-50 0 -86 33 -91 82h46c5 -22 20 -37 42 -37c24 0 38 18 38 44c0 28 -22 47 -60 59l-23 7c-11 3 -15 9 -10 23l29 83z" />
    <glyph glyph-name="onesuperior" unicode="&#xb9;" horiz-adv-x="490" 
d="M450 750v-750h-410v750h410zM415 688l-150 -312l150 -314v626zM225 376l-150 311v-625zM390 714h-290l145 -302zM100 36h290l-145 302z" />
    <glyph glyph-name="ordmasculine" unicode="&#xba;" horiz-adv-x="259" 
d="M79 622v-66c0 -20 1 -33 2 -43c4 -33 23 -51 49 -51s45 18 49 51c1 10 2 23 2 43v66c0 20 -1 33 -2 43c-4 33 -23 51 -49 51s-45 -18 -49 -51c-1 -10 -2 -23 -2 -43zM30 554v70c0 18 0 32 2 44c8 56 42 92 98 92s90 -36 98 -92c2 -12 2 -26 2 -44v-70c0 -18 0 -32 -2 -44
c-8 -56 -42 -92 -98 -92s-90 36 -98 92c-2 12 -2 26 -2 44z" />
    <glyph glyph-name="guillemotright" unicode="&#xbb;" horiz-adv-x="427" 
d="M407 311l-179 -253v116l98 137l-98 137v116zM217 311l-179 -253v116l98 137l-98 137v116z" />
    <glyph glyph-name="onequarter" unicode="&#xbc;" horiz-adv-x="490" 
d="M450 750v-750h-410v750h410zM415 688l-150 -312l150 -314v626zM225 376l-150 311v-625zM390 714h-290l145 -302zM100 36h290l-145 302z" />
    <glyph glyph-name="onehalf" unicode="&#xbd;" horiz-adv-x="490" 
d="M450 750v-750h-410v750h410zM415 688l-150 -312l150 -314v626zM225 376l-150 311v-625zM390 714h-290l145 -302zM100 36h290l-145 302z" />
    <glyph glyph-name="threequarters" unicode="&#xbe;" horiz-adv-x="490" 
d="M450 750v-750h-410v750h410zM415 688l-150 -312l150 -314v626zM225 376l-150 311v-625zM390 714h-290l145 -302zM100 36h290l-145 302z" />
    <glyph glyph-name="questiondown" unicode="&#xbf;" horiz-adv-x="390" 
d="M166 315h89c1 -10 1 -22 1 -31c0 -97 -42 -147 -79 -191c-29 -34 -54 -69 -54 -125s31 -82 74 -82c50 0 80 42 80 112v9h91v-9c0 -127 -71 -198 -170 -198c-102 0 -171 56 -171 165c0 75 37 124 72 165c34 39 73 80 67 185zM154 560h108v-123h-108v123z" />
    <glyph glyph-name="Agrave" unicode="&#xc0;" horiz-adv-x="460" 
d="M232 632h-4l-63 -315h130zM163 750h134l157 -750h-98l-44 225h-164l-44 -225h-98zM215 821l-122 162v5h103l82 -167h-63z" />
    <glyph glyph-name="Aacute" unicode="&#xc1;" horiz-adv-x="460" 
d="M232 632h-4l-63 -315h130zM163 750h134l157 -750h-98l-44 225h-164l-44 -225h-98zM175 807l82 167h104v-7l-122 -160h-64z" />
    <glyph glyph-name="Acircumflex" unicode="&#xc2;" horiz-adv-x="460" 
d="M232 632h-4l-63 -315h130zM163 750h134l157 -750h-98l-44 225h-164l-44 -225h-98zM191 989h78l109 -181h-70l-78 121l-78 -121h-70z" />
    <glyph glyph-name="Atilde" unicode="&#xc3;" horiz-adv-x="460" 
d="M232 632h-4l-63 -315h130zM163 750h134l157 -750h-98l-44 225h-164l-44 -225h-98zM124 819h-50c7 77 40 130 96 130c27 0 50 -12 72 -35c33 -34 43 -43 65 -43c18 0 35 17 41 65h50c-6 -78 -40 -131 -96 -131c-27 0 -50 12 -72 35c-33 35 -43 43 -64 43
c-19 0 -36 -16 -42 -64z" />
    <glyph glyph-name="Adieresis" unicode="&#xc4;" horiz-adv-x="460" 
d="M232 632h-4l-63 -315h130zM163 750h134l157 -750h-98l-44 225h-164l-44 -225h-98zM190 824h-94v100h94v-100zM364 824h-94v100h94v-100z" />
    <glyph glyph-name="Aring" unicode="&#xc5;" horiz-adv-x="460" 
d="M232 632h-4l-63 -315h130zM163 750h134l157 -750h-98l-44 225h-164l-44 -225h-98zM284 904c0 42 -23 70 -54 70s-54 -28 -54 -70s23 -70 54 -70s54 28 54 70zM328 904c0 -63 -42 -110 -98 -110s-98 47 -98 110s42 110 98 110s98 -47 98 -110z" />
    <glyph glyph-name="AE" unicode="&#xc6;" horiz-adv-x="701" 
d="M93 0h-101l247 750h434v-95h-225v-222h181v-95h-181v-243h225v-95h-323v233h-182zM304 656l-105 -328h151v328h-46z" />
    <glyph glyph-name="Ccedilla" unicode="&#xc7;" horiz-adv-x="472" 
d="M151 502v-254c0 -19 1 -48 5 -70c9 -47 35 -93 88 -93h4c56 0 81 45 89 93c3 18 5 41 5 58h98c-1 -27 -4 -54 -8 -78c-18 -97 -78 -168 -184 -168h-9l-10 -37c53 -14 95 -46 95 -97c0 -53 -39 -88 -86 -88c-50 0 -82 31 -88 79h39c7 -25 22 -39 46 -39c27 0 42 22 42 48
c0 27 -21 51 -61 63l-23 7c-11 3 -15 9 -10 23l16 46c-79 17 -125 81 -139 162c-5 28 -7 60 -7 88v260c0 28 2 60 7 88c17 95 77 167 184 167h4c106 0 166 -71 184 -168c4 -23 7 -48 8 -73h-98s-1 30 -5 53c-8 47 -33 93 -89 93h-4c-53 0 -79 -46 -88 -93
c-4 -22 -5 -51 -5 -70z" />
    <glyph glyph-name="Egrave" unicode="&#xc8;" horiz-adv-x="441" 
d="M64 0v750h349v-95h-251v-222h208v-95h-208v-243h251v-95h-349zM234 821l-122 162v5h103l82 -167h-63z" />
    <glyph glyph-name="Eacute" unicode="&#xc9;" horiz-adv-x="441" 
d="M64 0v750h349v-95h-251v-222h208v-95h-208v-243h251v-95h-349zM169 807l82 167h104v-7l-122 -160h-64z" />
    <glyph glyph-name="Ecircumflex" unicode="&#xca;" horiz-adv-x="441" 
d="M64 0v750h349v-95h-251v-222h208v-95h-208v-243h251v-95h-349zM199 989h78l109 -181h-70l-78 121l-78 -121h-70z" />
    <glyph glyph-name="Edieresis" unicode="&#xcb;" horiz-adv-x="441" 
d="M64 0v750h349v-95h-251v-222h208v-95h-208v-243h251v-95h-349zM198 824h-94v100h94v-100zM372 824h-94v100h94v-100z" />
    <glyph glyph-name="Igrave" unicode="&#xcc;" horiz-adv-x="226" 
d="M64 0v750h98v-750h-98zM92 821l-122 162v5h103l82 -167h-63z" />
    <glyph glyph-name="Iacute" unicode="&#xcd;" horiz-adv-x="226" 
d="M64 0v750h98v-750h-98zM67 807l82 167h104v-7l-122 -160h-64z" />
    <glyph glyph-name="Icircumflex" unicode="&#xce;" horiz-adv-x="226" 
d="M64 0v750h98v-750h-98zM74 989h78l109 -181h-70l-78 121l-78 -121h-70z" />
    <glyph glyph-name="Idieresis" unicode="&#xcf;" horiz-adv-x="226" 
d="M64 0v750h98v-750h-98zM73 824h-94v100h94v-100zM247 824h-94v100h94v-100z" />
    <glyph glyph-name="Eth" unicode="&#xd0;" horiz-adv-x="528" 
d="M94 0v363h-80v64h80v323h159c26 0 48 -2 65 -5c90 -19 136 -83 149 -163c5 -28 8 -59 8 -87v-240c0 -28 -3 -59 -8 -87c-13 -80 -59 -144 -149 -163c-17 -3 -39 -5 -65 -5h-159zM377 257v236c0 19 -1 47 -5 70c-5 36 -23 70 -64 85c-12 5 -28 7 -53 7h-63v-228h93v-64
h-93v-268h63c24 0 41 2 53 7c40 15 59 50 64 85c4 23 5 51 5 70z" />
    <glyph glyph-name="Ntilde" unicode="&#xd1;" horiz-adv-x="523" 
d="M367 262v488h92v-750h-113l-190 546h-1s1 -33 1 -58v-488h-92v750h113l190 -546h1s-1 33 -1 58zM149 819h-50c7 77 40 130 96 130c27 0 50 -12 72 -35c33 -34 43 -43 65 -43c18 0 35 17 41 65h50c-6 -78 -40 -131 -96 -131c-27 0 -50 12 -72 35c-33 35 -43 43 -64 43
c-19 0 -36 -16 -42 -64z" />
    <glyph glyph-name="Ograve" unicode="&#xd2;" horiz-adv-x="493" 
d="M151 502v-254c0 -19 1 -48 5 -70c9 -47 34 -93 88 -93h5c54 0 79 46 88 93c4 22 5 51 5 70v254c0 19 -1 48 -5 70c-9 47 -34 93 -88 93h-5c-54 0 -79 -46 -88 -93c-4 -22 -5 -51 -5 -70zM440 503v-256c0 -28 -2 -61 -7 -89c-17 -95 -75 -168 -184 -168h-5
c-109 0 -167 73 -184 168c-5 28 -7 61 -7 89v256c0 28 2 61 7 89c17 95 75 168 184 168h5c109 0 167 -73 184 -168c5 -28 7 -61 7 -89zM249 821l-122 162v5h103l82 -167h-63z" />
    <glyph glyph-name="Oacute" unicode="&#xd3;" horiz-adv-x="493" 
d="M151 502v-254c0 -19 1 -48 5 -70c9 -47 34 -93 88 -93h5c54 0 79 46 88 93c4 22 5 51 5 70v254c0 19 -1 48 -5 70c-9 47 -34 93 -88 93h-5c-54 0 -79 -46 -88 -93c-4 -22 -5 -51 -5 -70zM440 503v-256c0 -28 -2 -61 -7 -89c-17 -95 -75 -168 -184 -168h-5
c-109 0 -167 73 -184 168c-5 28 -7 61 -7 89v256c0 28 2 61 7 89c17 95 75 168 184 168h5c109 0 167 -73 184 -168c5 -28 7 -61 7 -89zM168 807l82 167h104v-7l-122 -160h-64z" />
    <glyph glyph-name="Ocircumflex" unicode="&#xd4;" horiz-adv-x="493" 
d="M151 502v-254c0 -19 1 -48 5 -70c9 -47 34 -93 88 -93h5c54 0 79 46 88 93c4 22 5 51 5 70v254c0 19 -1 48 -5 70c-9 47 -34 93 -88 93h-5c-54 0 -79 -46 -88 -93c-4 -22 -5 -51 -5 -70zM440 503v-256c0 -28 -2 -61 -7 -89c-17 -95 -75 -168 -184 -168h-5
c-109 0 -167 73 -184 168c-5 28 -7 61 -7 89v256c0 28 2 61 7 89c17 95 75 168 184 168h5c109 0 167 -73 184 -168c5 -28 7 -61 7 -89zM207 979h78l109 -181h-70l-78 121l-78 -121h-70z" />
    <glyph glyph-name="Otilde" unicode="&#xd5;" horiz-adv-x="493" 
d="M151 502v-254c0 -19 1 -48 5 -70c9 -47 34 -93 88 -93h5c54 0 79 46 88 93c4 22 5 51 5 70v254c0 19 -1 48 -5 70c-9 47 -34 93 -88 93h-5c-54 0 -79 -46 -88 -93c-4 -22 -5 -51 -5 -70zM440 503v-256c0 -28 -2 -61 -7 -89c-17 -95 -75 -168 -184 -168h-5
c-109 0 -167 73 -184 168c-5 28 -7 61 -7 89v256c0 28 2 61 7 89c17 95 75 168 184 168h5c109 0 167 -73 184 -168c5 -28 7 -61 7 -89zM138 819h-50c7 77 40 130 96 130c27 0 50 -12 72 -35c33 -34 43 -43 65 -43c18 0 35 17 41 65h50c-6 -78 -40 -131 -96 -131
c-27 0 -50 12 -72 35c-33 35 -43 43 -64 43c-19 0 -36 -16 -42 -64z" />
    <glyph glyph-name="Odieresis" unicode="&#xd6;" horiz-adv-x="493" 
d="M151 502v-254c0 -19 1 -48 5 -70c9 -47 34 -93 88 -93h5c54 0 79 46 88 93c4 22 5 51 5 70v254c0 19 -1 48 -5 70c-9 47 -34 93 -88 93h-5c-54 0 -79 -46 -88 -93c-4 -22 -5 -51 -5 -70zM440 503v-256c0 -28 -2 -61 -7 -89c-17 -95 -75 -168 -184 -168h-5
c-109 0 -167 73 -184 168c-5 28 -7 61 -7 89v256c0 28 2 61 7 89c17 95 75 168 184 168h5c109 0 167 -73 184 -168c5 -28 7 -61 7 -89zM206 824h-94v100h94v-100zM380 824h-94v100h94v-100z" />
    <glyph glyph-name="multiply" unicode="&#xd7;" horiz-adv-x="432" 
d="M170 300l-146 191l58 47l134 -177l134 177l58 -47l-146 -191l146 -191l-58 -47l-134 177l-134 -177l-58 47z" />
    <glyph glyph-name="Oslash" unicode="&#xd8;" horiz-adv-x="493" 
d="M440 503v-256c0 -28 -2 -61 -7 -89c-17 -95 -75 -168 -184 -168h-5c-41 0 -74 10 -101 27l-20 -52h-57l35 92c-21 28 -34 63 -41 101c-5 28 -7 61 -7 89v256c0 28 2 61 7 89c17 95 75 168 184 168h5c40 0 74 -10 101 -28l20 53h57l-35 -93c21 -28 34 -62 41 -100
c5 -28 7 -61 7 -89zM151 502v-254c0 -18 0 -45 4 -66l157 451c-14 19 -35 32 -63 32h-5c-54 0 -79 -46 -88 -93c-4 -22 -5 -51 -5 -70zM342 502c0 17 -1 44 -4 65l-158 -450c15 -19 35 -32 64 -32h5c54 0 79 46 88 93c4 22 5 51 5 70v254z" />
    <glyph glyph-name="Ugrave" unicode="&#xd9;" horiz-adv-x="507" 
d="M60 247v503h98v-502c0 -19 1 -48 5 -70c9 -47 34 -93 88 -93h5c54 0 79 46 88 93c4 22 5 51 5 70v502h98v-503c0 -28 -2 -61 -7 -89c-17 -95 -75 -168 -184 -168h-5c-109 0 -167 73 -184 168c-5 28 -7 61 -7 89zM246 821l-122 162v5h103l82 -167h-63z" />
    <glyph glyph-name="Uacute" unicode="&#xda;" horiz-adv-x="507" 
d="M60 247v503h98v-502c0 -19 1 -48 5 -70c9 -47 34 -93 88 -93h5c54 0 79 46 88 93c4 22 5 51 5 70v502h98v-503c0 -28 -2 -61 -7 -89c-17 -95 -75 -168 -184 -168h-5c-109 0 -167 73 -184 168c-5 28 -7 61 -7 89zM195 807l82 167h104v-7l-122 -160h-64z" />
    <glyph glyph-name="Ucircumflex" unicode="&#xdb;" horiz-adv-x="507" 
d="M60 247v503h98v-502c0 -19 1 -48 5 -70c9 -47 34 -93 88 -93h5c54 0 79 46 88 93c4 22 5 51 5 70v502h98v-503c0 -28 -2 -61 -7 -89c-17 -95 -75 -168 -184 -168h-5c-109 0 -167 73 -184 168c-5 28 -7 61 -7 89zM214 989h78l109 -181h-70l-78 121l-78 -121h-70z" />
    <glyph glyph-name="Udieresis" unicode="&#xdc;" horiz-adv-x="507" 
d="M60 247v503h98v-502c0 -19 1 -48 5 -70c9 -47 34 -93 88 -93h5c54 0 79 46 88 93c4 22 5 51 5 70v502h98v-503c0 -28 -2 -61 -7 -89c-17 -95 -75 -168 -184 -168h-5c-109 0 -167 73 -184 168c-5 28 -7 61 -7 89zM213 824h-94v100h94v-100zM387 824h-94v100h94v-100z" />
    <glyph glyph-name="Yacute" unicode="&#xdd;" horiz-adv-x="440" 
d="M220 436l120 314h105l-176 -422v-328h-98v328l-176 422h105zM165 807l82 167h104v-7l-122 -160h-64z" />
    <glyph glyph-name="Thorn" unicode="&#xde;" horiz-adv-x="493" 
d="M170 242h64c23 0 39 2 51 7c52 19 73 70 73 127c0 53 -18 109 -72 131c-12 5 -27 8 -52 8h-64v-273zM236 147h-66v-147h-98v750h98v-140h65c32 0 54 -2 75 -8c92 -25 146 -111 146 -225c0 -108 -50 -200 -155 -224c-18 -4 -37 -6 -65 -6z" />
    <glyph glyph-name="germandbls" unicode="&#xdf;" horiz-adv-x="483" 
d="M206 -1v77c15 -3 29 -4 47 -4c62 0 98 46 98 136c0 97 -60 147 -130 147h-7v73h7c65 0 108 49 108 134c0 78 -35 110 -85 110c-42 0 -70 -24 -83 -67c-4 -14 -6 -31 -6 -59v-546h-95v542c0 31 2 50 6 70c20 93 87 148 179 148c100 0 179 -64 179 -189
c0 -74 -30 -137 -97 -174c60 -17 118 -94 118 -191c0 -146 -77 -215 -173 -215c-22 0 -44 2 -66 8z" />
    <glyph glyph-name="agrave" unicode="&#xe0;" horiz-adv-x="435" 
d="M149 425h-90c16 88 76 145 161 145c47 0 86 -16 112 -47c39 -48 45 -114 45 -183v-340h-61l-11 81c-28 -65 -70 -91 -128 -91c-77 0 -139 62 -139 182c0 91 47 155 137 170c14 2 31 4 57 4h51v20c0 38 -2 75 -20 99c-11 14 -27 23 -47 23c-32 0 -57 -22 -67 -63zM131 172
c0 -64 22 -97 68 -97c44 0 67 42 78 92c5 21 7 46 7 77v26h-55c-23 0 -39 -3 -50 -8c-31 -15 -48 -44 -48 -90zM216 641l-122 162v5h103l82 -167h-63z" />
    <glyph glyph-name="aacute" unicode="&#xe1;" horiz-adv-x="435" 
d="M149 425h-90c16 88 76 145 161 145c47 0 86 -16 112 -47c39 -48 45 -114 45 -183v-340h-61l-11 81c-28 -65 -70 -91 -128 -91c-77 0 -139 62 -139 182c0 91 47 155 137 170c14 2 31 4 57 4h51v20c0 38 -2 75 -20 99c-11 14 -27 23 -47 23c-32 0 -57 -22 -67 -63zM131 172
c0 -64 22 -97 68 -97c44 0 67 42 78 92c5 21 7 46 7 77v26h-55c-23 0 -39 -3 -50 -8c-31 -15 -48 -44 -48 -90zM143 627l82 167h104v-7l-122 -160h-64z" />
    <glyph glyph-name="acircumflex" unicode="&#xe2;" horiz-adv-x="435" 
d="M149 425h-90c16 88 76 145 161 145c47 0 86 -16 112 -47c39 -48 45 -114 45 -183v-340h-61l-11 81c-28 -65 -70 -91 -128 -91c-77 0 -139 62 -139 182c0 91 47 155 137 170c14 2 31 4 57 4h51v20c0 38 -2 75 -20 99c-11 14 -27 23 -47 23c-32 0 -57 -22 -67 -63zM131 172
c0 -64 22 -97 68 -97c44 0 67 42 78 92c5 21 7 46 7 77v26h-55c-23 0 -39 -3 -50 -8c-31 -15 -48 -44 -48 -90zM182 799h78l109 -181h-70l-78 121l-78 -121h-70z" />
    <glyph glyph-name="atilde" unicode="&#xe3;" horiz-adv-x="435" 
d="M149 425h-90c16 88 76 145 161 145c47 0 86 -16 112 -47c39 -48 45 -114 45 -183v-340h-61l-11 81c-28 -65 -70 -91 -128 -91c-77 0 -139 62 -139 182c0 91 47 155 137 170c14 2 31 4 57 4h51v20c0 38 -2 75 -20 99c-11 14 -27 23 -47 23c-32 0 -57 -22 -67 -63zM131 172
c0 -64 22 -97 68 -97c44 0 67 42 78 92c5 21 7 46 7 77v26h-55c-23 0 -39 -3 -50 -8c-31 -15 -48 -44 -48 -90zM112 639h-50c7 77 40 130 96 130c27 0 50 -12 72 -35c33 -34 43 -43 65 -43c18 0 35 17 41 65h50c-6 -78 -40 -131 -96 -131c-27 0 -50 12 -72 35
c-33 35 -43 43 -64 43c-19 0 -36 -16 -42 -64z" />
    <glyph glyph-name="adieresis" unicode="&#xe4;" horiz-adv-x="435" 
d="M149 425h-90c16 88 76 145 161 145c47 0 86 -16 112 -47c39 -48 45 -114 45 -183v-340h-61l-11 81c-28 -65 -70 -91 -128 -91c-77 0 -139 62 -139 182c0 91 47 155 137 170c14 2 31 4 57 4h51v20c0 38 -2 75 -20 99c-11 14 -27 23 -47 23c-32 0 -57 -22 -67 -63zM131 172
c0 -64 22 -97 68 -97c44 0 67 42 78 92c5 21 7 46 7 77v26h-55c-23 0 -39 -3 -50 -8c-31 -15 -48 -44 -48 -90zM180 644h-94v100h94v-100zM354 644h-94v100h94v-100z" />
    <glyph glyph-name="aring" unicode="&#xe5;" horiz-adv-x="435" 
d="M149 425h-90c16 88 76 145 161 145c47 0 86 -16 112 -47c39 -48 45 -114 45 -183v-340h-61l-11 81c-28 -65 -70 -91 -128 -91c-77 0 -139 62 -139 182c0 91 47 155 137 170c14 2 31 4 57 4h51v20c0 38 -2 75 -20 99c-11 14 -27 23 -47 23c-32 0 -57 -22 -67 -63zM131 172
c0 -64 22 -97 68 -97c44 0 67 42 78 92c5 21 7 46 7 77v26h-55c-23 0 -39 -3 -50 -8c-31 -15 -48 -44 -48 -90zM275 724c0 42 -23 70 -54 70s-54 -28 -54 -70s23 -70 54 -70s54 28 54 70zM319 724c0 -63 -42 -110 -98 -110s-98 47 -98 110s42 110 98 110s98 -47 98 -110z
" />
    <glyph glyph-name="ae" unicode="&#xe6;" horiz-adv-x="670" 
d="M131 174c0 -66 22 -103 67 -103s70 42 80 92c4 21 6 46 6 77v27h-56c-22 0 -36 -3 -47 -8c-32 -13 -50 -41 -50 -85zM381 407c-2 -18 -4 -35 -4 -66h156c0 23 -1 48 -4 66c-9 46 -34 78 -73 78c-41 0 -68 -30 -75 -78zM628 267h-251v-43c0 -32 1 -54 4 -72
c9 -46 35 -77 75 -77c42 0 68 39 74 77h93c-17 -100 -73 -162 -167 -162c-66 0 -118 36 -139 93c-28 -63 -72 -93 -140 -93c-77 0 -139 63 -139 182c0 89 46 151 137 165c14 2 31 4 57 4h51v35c0 25 -2 41 -4 52c-8 41 -31 60 -64 60s-58 -22 -66 -63h-90
c17 88 76 145 160 145c51 0 88 -23 114 -68c29 42 69 68 123 68c98 0 153 -67 166 -161c4 -30 6 -53 6 -105v-37z" />
    <glyph glyph-name="ccedilla" unicode="&#xe7;" horiz-adv-x="416" 
d="M215 482c-40 0 -65 -29 -73 -78c-3 -17 -4 -39 -4 -71v-106c0 -32 1 -54 4 -71c8 -49 33 -78 73 -78c47 0 69 48 74 88h95c-12 -98 -71 -176 -169 -176h-6l-10 -37c53 -14 95 -46 95 -97c0 -53 -39 -88 -86 -88c-50 0 -82 31 -88 79h39c7 -25 22 -39 46 -39
c27 0 42 22 42 48c0 27 -21 51 -61 63l-23 7c-11 3 -15 9 -10 23l16 47c-69 17 -110 75 -121 155c-3 20 -5 42 -5 74v110c0 32 2 54 5 74c14 96 70 161 167 161s157 -65 170 -186h-95c-2 47 -24 98 -75 98z" />
    <glyph glyph-name="egrave" unicode="&#xe8;" 
d="M216 75c43 0 67 39 74 77h93c-17 -100 -73 -162 -167 -162c-97 0 -154 65 -168 160c-3 21 -5 43 -5 75v110c0 32 2 54 5 74c14 96 71 161 168 161c98 0 153 -67 166 -161c4 -30 6 -53 6 -105v-44h-250v-36c0 -32 1 -54 4 -72c9 -46 35 -77 74 -77zM142 407
c-3 -17 -4 -34 -4 -69h154c0 22 0 45 -5 69c-10 46 -33 78 -72 78c-40 0 -65 -30 -73 -78zM216 641l-122 162v5h103l82 -167h-63z" />
    <glyph glyph-name="eacute" unicode="&#xe9;" 
d="M216 75c43 0 67 39 74 77h93c-17 -100 -73 -162 -167 -162c-97 0 -154 65 -168 160c-3 21 -5 43 -5 75v110c0 32 2 54 5 74c14 96 71 161 168 161c98 0 153 -67 166 -161c4 -30 6 -53 6 -105v-44h-250v-36c0 -32 1 -54 4 -72c9 -46 35 -77 74 -77zM142 407
c-3 -17 -4 -34 -4 -69h154c0 22 0 45 -5 69c-10 46 -33 78 -72 78c-40 0 -65 -30 -73 -78zM145 627l82 167h104v-7l-122 -160h-64z" />
    <glyph glyph-name="ecircumflex" unicode="&#xea;" 
d="M216 75c43 0 67 39 74 77h93c-17 -100 -73 -162 -167 -162c-97 0 -154 65 -168 160c-3 21 -5 43 -5 75v110c0 32 2 54 5 74c14 96 71 161 168 161c98 0 153 -67 166 -161c4 -30 6 -53 6 -105v-44h-250v-36c0 -32 1 -54 4 -72c9 -46 35 -77 74 -77zM142 407
c-3 -17 -4 -34 -4 -69h154c0 22 0 45 -5 69c-10 46 -33 78 -72 78c-40 0 -65 -30 -73 -78zM179 799h78l109 -181h-70l-78 121l-78 -121h-70z" />
    <glyph glyph-name="edieresis" unicode="&#xeb;" 
d="M216 75c43 0 67 39 74 77h93c-17 -100 -73 -162 -167 -162c-97 0 -154 65 -168 160c-3 21 -5 43 -5 75v110c0 32 2 54 5 74c14 96 71 161 168 161c98 0 153 -67 166 -161c4 -30 6 -53 6 -105v-44h-250v-36c0 -32 1 -54 4 -72c9 -46 35 -77 74 -77zM142 407
c-3 -17 -4 -34 -4 -69h154c0 22 0 45 -5 69c-10 46 -33 78 -72 78c-40 0 -65 -30 -73 -78zM177 644h-94v100h94v-100zM351 644h-94v100h94v-100z" />
    <glyph glyph-name="igrave" unicode="&#xec;" horiz-adv-x="217" 
d="M92 641l-122 162v5h103l82 -167h-63zM61 0v560h95v-560h-95z" />
    <glyph glyph-name="iacute" unicode="&#xed;" horiz-adv-x="217" 
d="M63 627l82 167h104v-7l-122 -160h-64zM61 0v560h95v-560h-95z" />
    <glyph glyph-name="icircumflex" unicode="&#xee;" horiz-adv-x="217" 
d="M149 852l99 -181h-70l-69 124l-69 -124h-70l100 181h79zM61 0v560h95v-560h-95z" />
    <glyph glyph-name="idieresis" unicode="&#xef;" horiz-adv-x="217" 
d="M68 644h-94v100h94v-100zM242 644h-94v100h94v-100zM61 0v560h95v-560h-95z" />
    <glyph glyph-name="eth" unicode="&#xf0;" 
d="M43 225v56c0 42 3 79 11 110c20 80 80 125 137 125c32 0 54 -8 80 -23c-11 46 -30 93 -48 126l-94 -47l-24 50l94 48c-17 30 -33 57 -49 82c27 17 46 27 72 43c23 -34 40 -65 52 -86l82 42l25 -51l-81 -41c27 -55 46 -108 59 -159c17 -67 28 -136 28 -204v-71
c0 -32 -2 -54 -5 -74c-14 -96 -70 -161 -167 -161s-153 65 -167 161c-3 20 -5 42 -5 74zM138 279v-52c0 -32 1 -54 4 -71c8 -49 33 -78 73 -78s65 29 73 78c3 17 4 39 4 71v52c0 32 -1 54 -4 71c-8 49 -33 78 -73 78s-65 -29 -73 -78c-3 -17 -4 -39 -4 -71z" />
    <glyph glyph-name="ntilde" unicode="&#xf1;" horiz-adv-x="471" 
d="M245 481c-43 0 -69 -35 -80 -75c-5 -20 -9 -42 -9 -80v-326h-95v560h60l10 -88c27 68 78 98 135 98c82 0 127 -58 141 -137c5 -26 6 -54 6 -91v-342h-95v344c0 17 -1 39 -4 57c-6 39 -23 80 -69 80zM126 640h-50c7 77 40 130 96 130c27 0 50 -12 72 -35
c33 -34 43 -43 65 -43c18 0 35 17 41 65h50c-6 -78 -40 -131 -96 -131c-27 0 -50 12 -72 35c-33 35 -43 43 -64 43c-19 0 -36 -16 -42 -64z" />
    <glyph glyph-name="ograve" unicode="&#xf2;" 
d="M387 335v-110c0 -32 -2 -54 -5 -74c-14 -96 -70 -161 -167 -161s-153 65 -167 161c-3 20 -5 42 -5 74v110c0 32 2 54 5 74c14 96 70 161 167 161s153 -65 167 -161c3 -20 5 -42 5 -74zM138 333v-106c0 -32 1 -54 4 -71c8 -49 33 -78 73 -78s65 29 73 78c3 17 4 39 4 71
v106c0 32 -1 54 -4 71c-8 49 -33 78 -73 78s-65 -29 -73 -78c-3 -17 -4 -39 -4 -71zM227 641l-122 162v5h103l82 -167h-63z" />
    <glyph glyph-name="oacute" unicode="&#xf3;" 
d="M387 335v-110c0 -32 -2 -54 -5 -74c-14 -96 -70 -161 -167 -161s-153 65 -167 161c-3 20 -5 42 -5 74v110c0 32 2 54 5 74c14 96 70 161 167 161s153 -65 167 -161c3 -20 5 -42 5 -74zM138 333v-106c0 -32 1 -54 4 -71c8 -49 33 -78 73 -78s65 29 73 78c3 17 4 39 4 71
v106c0 32 -1 54 -4 71c-8 49 -33 78 -73 78s-65 -29 -73 -78c-3 -17 -4 -39 -4 -71zM136 627l82 167h104v-7l-122 -160h-64z" />
    <glyph glyph-name="ocircumflex" unicode="&#xf4;" 
d="M387 335v-110c0 -32 -2 -54 -5 -74c-14 -96 -70 -161 -167 -161s-153 65 -167 161c-3 20 -5 42 -5 74v110c0 32 2 54 5 74c14 96 70 161 167 161s153 -65 167 -161c3 -20 5 -42 5 -74zM138 333v-106c0 -32 1 -54 4 -71c8 -49 33 -78 73 -78s65 29 73 78c3 17 4 39 4 71
v106c0 32 -1 54 -4 71c-8 49 -33 78 -73 78s-65 -29 -73 -78c-3 -17 -4 -39 -4 -71zM176 799h78l109 -181h-70l-78 121l-78 -121h-70z" />
    <glyph glyph-name="otilde" unicode="&#xf5;" 
d="M387 335v-110c0 -32 -2 -54 -5 -74c-14 -96 -70 -161 -167 -161s-153 65 -167 161c-3 20 -5 42 -5 74v110c0 32 2 54 5 74c14 96 70 161 167 161s153 -65 167 -161c3 -20 5 -42 5 -74zM138 333v-106c0 -32 1 -54 4 -71c8 -49 33 -78 73 -78s65 29 73 78c3 17 4 39 4 71
v106c0 32 -1 54 -4 71c-8 49 -33 78 -73 78s-65 -29 -73 -78c-3 -17 -4 -39 -4 -71zM106 639h-50c7 77 40 130 96 130c27 0 50 -12 72 -35c33 -34 43 -43 65 -43c18 0 35 17 41 65h50c-6 -78 -40 -131 -96 -131c-27 0 -50 12 -72 35c-33 35 -43 43 -64 43
c-19 0 -36 -16 -42 -64z" />
    <glyph glyph-name="odieresis" unicode="&#xf6;" 
d="M387 335v-110c0 -32 -2 -54 -5 -74c-14 -96 -70 -161 -167 -161s-153 65 -167 161c-3 20 -5 42 -5 74v110c0 32 2 54 5 74c14 96 70 161 167 161s153 -65 167 -161c3 -20 5 -42 5 -74zM138 333v-106c0 -32 1 -54 4 -71c8 -49 33 -78 73 -78s65 29 73 78c3 17 4 39 4 71
v106c0 32 -1 54 -4 71c-8 49 -33 78 -73 78s-65 -29 -73 -78c-3 -17 -4 -39 -4 -71zM175 644h-94v100h94v-100zM349 644h-94v100h94v-100z" />
    <glyph glyph-name="divide" unicode="&#xf7;" horiz-adv-x="467" 
d="M452 260h-437v79h437v-79zM284 451h-101v111h101v-111zM284 37h-101v111h101v-111z" />
    <glyph glyph-name="oslash" unicode="&#xf8;" 
d="M387 335v-110c0 -32 -2 -54 -5 -74c-14 -96 -70 -161 -167 -161c-28 0 -53 6 -74 15l-14 -40h-51l25 69c-28 28 -46 68 -53 117c-3 20 -5 42 -5 74v110c0 32 2 54 5 74c14 96 70 161 167 161c28 0 53 -6 74 -16l14 41h51l-25 -69c28 -29 46 -69 53 -117
c3 -20 5 -42 5 -74zM138 333v-106c0 -27 1 -62 5 -81l112 322c-11 9 -24 14 -40 14c-40 0 -65 -29 -73 -78c-3 -17 -4 -39 -4 -71zM286 413l-111 -322c11 -9 24 -13 40 -13c40 0 65 29 73 78c3 17 4 39 4 71v106c0 32 -1 59 -6 80z" />
    <glyph glyph-name="ugrave" unicode="&#xf9;" horiz-adv-x="471" 
d="M226 79c43 0 69 35 80 75c5 20 9 42 9 80v326h95v-560h-60l-10 88c-27 -68 -78 -98 -135 -98c-82 0 -127 58 -141 137c-5 26 -6 54 -6 91v342h95v-344c0 -17 1 -39 4 -57c6 -39 23 -80 69 -80zM237 641l-122 162v5h103l82 -167h-63z" />
    <glyph glyph-name="uacute" unicode="&#xfa;" horiz-adv-x="471" 
d="M166 627l82 167h104v-7l-122 -160h-64zM226 79c43 0 69 35 80 75c5 20 9 42 9 80v326h95v-560h-60l-10 88c-27 -68 -78 -98 -135 -98c-82 0 -127 58 -141 137c-5 26 -6 54 -6 91v342h95v-344c0 -17 1 -39 4 -57c6 -39 23 -80 69 -80z" />
    <glyph glyph-name="ucircumflex" unicode="&#xfb;" horiz-adv-x="471" 
d="M226 79c43 0 69 35 80 75c5 20 9 42 9 80v326h95v-560h-60l-10 88c-27 -68 -78 -98 -135 -98c-82 0 -127 58 -141 137c-5 26 -6 54 -6 91v342h95v-344c0 -17 1 -39 4 -57c6 -39 23 -80 69 -80zM195 809h78l109 -181h-70l-78 121l-78 -121h-70z" />
    <glyph glyph-name="udieresis" unicode="&#xfc;" horiz-adv-x="471" 
d="M226 79c43 0 69 35 80 75c5 20 9 42 9 80v326h95v-560h-60l-10 88c-27 -68 -78 -98 -135 -98c-82 0 -127 58 -141 137c-5 26 -6 54 -6 91v342h95v-344c0 -17 1 -39 4 -57c6 -39 23 -80 69 -80zM195 644h-94v100h94v-100zM369 644h-94v100h94v-100z" />
    <glyph glyph-name="yacute" unicode="&#xfd;" horiz-adv-x="396" 
d="M48 -127c41 0 72 21 90 87l19 69l-149 531h95l99 -386h3l94 386h95l-158 -582c-37 -134 -89 -194 -171 -194c-27 0 -45 4 -63 9v86c13 -3 28 -6 46 -6zM151 627l82 167h104v-7l-122 -160h-64z" />
    <glyph glyph-name="thorn" unicode="&#xfe;" horiz-adv-x="459" 
d="M321 216v128c0 12 -2 41 -4 57c-5 39 -23 80 -69 80c-43 0 -69 -35 -80 -75c-5 -20 -9 -42 -9 -80v-92c0 -38 4 -60 9 -80c11 -40 37 -75 80 -75c46 0 64 41 69 80c2 16 4 45 4 57zM64 -244v1029h95v-232c0 -25 -1 -50 -1 -50h1c20 40 62 67 110 67
c82 0 127 -58 141 -137c5 -26 6 -54 6 -91v-124c0 -37 -1 -65 -6 -91c-14 -79 -59 -137 -141 -137c-48 0 -90 27 -110 67h-1s1 -25 1 -50v-251h-95z" />
    <glyph glyph-name="ydieresis" unicode="&#xff;" horiz-adv-x="396" 
d="M48 -127c41 0 72 21 90 87l19 69l-149 531h95l99 -386h3l94 386h95l-158 -582c-37 -134 -89 -194 -171 -194c-27 0 -45 4 -63 9v86c13 -3 28 -6 46 -6zM164 644h-94v100h94v-100zM338 644h-94v100h94v-100z" />
    <glyph glyph-name="Amacron" unicode="&#x100;" horiz-adv-x="452" 
d="M228 632h-4l-63 -315h130zM159 750h134l157 -750h-98l-44 225h-164l-44 -225h-98zM356 887v-62h-258v62h258z" />
    <glyph glyph-name="amacron" unicode="&#x101;" horiz-adv-x="435" 
d="M149 425h-90c16 88 76 145 161 145c47 0 86 -16 112 -47c39 -48 45 -114 45 -183v-340h-61l-11 81c-28 -65 -70 -91 -128 -91c-77 0 -139 62 -139 182c0 91 47 155 137 170c14 2 31 4 57 4h51v20c0 38 -2 75 -20 99c-11 14 -27 23 -47 23c-32 0 -57 -22 -67 -63zM131 172
c0 -64 22 -97 68 -97c44 0 67 42 78 92c5 21 7 46 7 77v26h-55c-23 0 -39 -3 -50 -8c-31 -15 -48 -44 -48 -90zM350 707v-62h-258v62h258z" />
    <glyph glyph-name="Abreve" unicode="&#x102;" horiz-adv-x="460" 
d="M232 632h-4l-63 -315h130zM163 750h134l157 -750h-98l-44 225h-164l-44 -225h-98zM230 803c-76 0 -131 52 -138 157h60c9 -70 39 -100 78 -100s69 30 78 100h60c-7 -105 -62 -157 -138 -157z" />
    <glyph glyph-name="abreve" unicode="&#x103;" horiz-adv-x="435" 
d="M149 425h-90c16 88 76 145 161 145c47 0 86 -16 112 -47c39 -48 45 -114 45 -183v-340h-61l-11 81c-28 -65 -70 -91 -128 -91c-77 0 -139 62 -139 182c0 91 47 155 137 170c14 2 31 4 57 4h51v20c0 38 -2 75 -20 99c-11 14 -27 23 -47 23c-32 0 -57 -22 -67 -63zM131 172
c0 -64 22 -97 68 -97c44 0 67 42 78 92c5 21 7 46 7 77v26h-55c-23 0 -39 -3 -50 -8c-31 -15 -48 -44 -48 -90zM220 623c-76 0 -131 52 -138 157h60c9 -70 39 -100 78 -100s69 30 78 100h60c-7 -105 -62 -157 -138 -157z" />
    <glyph glyph-name="Aogonek" unicode="&#x104;" horiz-adv-x="460" 
d="M163 750h134l157 -750c-60 -49 -87 -91 -87 -128c0 -32 19 -51 51 -51c18 0 34 6 51 16l17 -40c-22 -15 -50 -26 -78 -26c-52 0 -99 28 -99 92c0 41 19 77 52 109l-49 253h-164l-44 -225h-98zM232 632h-4l-63 -315h130z" />
    <glyph glyph-name="aogonek" unicode="&#x105;" horiz-adv-x="435" 
d="M149 425h-90c16 88 76 145 161 145c47 0 86 -16 112 -47c39 -48 45 -114 45 -183v-340c-60 -49 -87 -91 -87 -128c0 -32 19 -51 51 -51c18 0 34 6 51 16l17 -40c-22 -15 -50 -26 -78 -26c-52 0 -99 28 -99 92c0 52 31 97 84 135l-11 83c-28 -65 -70 -91 -128 -91
c-77 0 -139 62 -139 182c0 91 47 155 137 170c14 2 31 4 57 4h51v20c0 38 -2 75 -20 99c-11 14 -27 23 -47 23c-32 0 -57 -22 -67 -63zM131 172c0 -64 22 -97 68 -97c44 0 67 42 78 92c5 21 7 46 7 77v26h-55c-23 0 -39 -3 -50 -8c-31 -15 -48 -44 -48 -90z" />
    <glyph glyph-name="Cacute" unicode="&#x106;" horiz-adv-x="472" 
d="M151 502v-254c0 -19 1 -48 5 -70c9 -47 35 -93 88 -93h4c56 0 81 45 89 93c3 18 5 41 5 58h98c-1 -27 -4 -54 -8 -78c-18 -97 -78 -168 -184 -168h-4c-107 0 -167 72 -184 167c-5 28 -7 60 -7 88v260c0 28 2 60 7 88c17 95 77 167 184 167h4c106 0 166 -71 184 -168
c4 -23 7 -48 8 -73h-98s-1 30 -5 53c-8 47 -33 93 -89 93h-4c-53 0 -79 -46 -88 -93c-4 -22 -5 -51 -5 -70zM172 807l82 167h104v-7l-122 -160h-64z" />
    <glyph glyph-name="cacute" unicode="&#x107;" horiz-adv-x="416" 
d="M215 482c-40 0 -65 -29 -73 -78c-3 -17 -4 -39 -4 -71v-106c0 -32 1 -54 4 -71c8 -49 33 -78 73 -78c47 0 69 48 74 88h95c-12 -98 -71 -176 -169 -176c-97 0 -153 65 -167 161c-3 20 -5 42 -5 74v110c0 32 2 54 5 74c14 96 70 161 167 161s157 -65 170 -186h-95
c-2 47 -24 98 -75 98zM139 627l82 167h104v-7l-122 -160h-64z" />
    <glyph glyph-name="Ccircumflex" unicode="&#x108;" horiz-adv-x="472" 
d="M151 502v-254c0 -19 1 -48 5 -70c9 -47 35 -93 88 -93h4c56 0 81 45 89 93c3 18 5 41 5 58h98c-1 -27 -4 -54 -8 -78c-18 -97 -78 -168 -184 -168h-4c-107 0 -167 72 -184 167c-5 28 -7 60 -7 88v260c0 28 2 60 7 88c17 95 77 167 184 167h4c106 0 166 -71 184 -168
c4 -23 7 -48 8 -73h-98s-1 30 -5 53c-8 47 -33 93 -89 93h-4c-53 0 -79 -46 -88 -93c-4 -22 -5 -51 -5 -70zM207 989h78l109 -181h-70l-78 121l-78 -121h-70z" />
    <glyph glyph-name="ccircumflex" unicode="&#x109;" horiz-adv-x="416" 
d="M215 482c-40 0 -65 -29 -73 -78c-3 -17 -4 -39 -4 -71v-106c0 -32 1 -54 4 -71c8 -49 33 -78 73 -78c47 0 69 48 74 88h95c-12 -98 -71 -176 -169 -176c-97 0 -153 65 -167 161c-3 20 -5 42 -5 74v110c0 32 2 54 5 74c14 96 70 161 167 161s157 -65 170 -186h-95
c-2 47 -24 98 -75 98zM174 809h78l109 -181h-70l-78 121l-78 -121h-70z" />
    <glyph glyph-name="Cdotaccent" unicode="&#x10a;" horiz-adv-x="472" 
d="M151 502v-254c0 -19 1 -48 5 -70c9 -47 35 -93 88 -93h4c56 0 81 45 89 93c3 18 5 41 5 58h98c-1 -27 -4 -54 -8 -78c-18 -97 -78 -168 -184 -168h-4c-107 0 -167 72 -184 167c-5 28 -7 60 -7 88v260c0 28 2 60 7 88c17 95 77 167 184 167h4c106 0 166 -71 184 -168
c4 -23 7 -48 8 -73h-98s-1 30 -5 53c-8 47 -33 93 -89 93h-4c-53 0 -79 -46 -88 -93c-4 -22 -5 -51 -5 -70zM297 823h-101v104h101v-104z" />
    <glyph glyph-name="cdotaccent" unicode="&#x10b;" horiz-adv-x="416" 
d="M215 482c-40 0 -65 -29 -73 -78c-3 -17 -4 -39 -4 -71v-106c0 -32 1 -54 4 -71c8 -49 33 -78 73 -78c47 0 69 48 74 88h95c-12 -98 -71 -176 -169 -176c-97 0 -153 65 -167 161c-3 20 -5 42 -5 74v110c0 32 2 54 5 74c14 96 70 161 167 161s157 -65 170 -186h-95
c-2 47 -24 98 -75 98zM264 643h-101v104h101v-104z" />
    <glyph glyph-name="Ccaron" unicode="&#x10c;" horiz-adv-x="472" 
d="M151 502v-254c0 -19 1 -48 5 -70c9 -47 35 -93 88 -93h4c56 0 81 45 89 93c3 18 5 41 5 58h98c-1 -27 -4 -54 -8 -78c-18 -97 -78 -168 -184 -168h-4c-107 0 -167 72 -184 167c-5 28 -7 60 -7 88v260c0 28 2 60 7 88c17 95 77 167 184 167h4c106 0 166 -71 184 -168
c4 -23 7 -48 8 -73h-98s-1 30 -5 53c-8 47 -33 93 -89 93h-4c-53 0 -79 -46 -88 -93c-4 -22 -5 -51 -5 -70zM395 989l-110 -181h-78l-110 181h71l78 -120l78 120h71z" />
    <glyph glyph-name="ccaron" unicode="&#x10d;" horiz-adv-x="416" 
d="M215 482c-40 0 -65 -29 -73 -78c-3 -17 -4 -39 -4 -71v-106c0 -32 1 -54 4 -71c8 -49 33 -78 73 -78c47 0 69 48 74 88h95c-12 -98 -71 -176 -169 -176c-97 0 -153 65 -167 161c-3 20 -5 42 -5 74v110c0 32 2 54 5 74c14 96 70 161 167 161s157 -65 170 -186h-95
c-2 47 -24 98 -75 98zM363 809l-110 -181h-78l-110 181h71l78 -120l78 120h71z" />
    <glyph glyph-name="Dcaron" unicode="&#x10e;" horiz-adv-x="498" 
d="M162 655v-560h63c24 0 41 3 53 7c40 14 59 50 64 85c4 23 5 51 5 70v236c0 19 -1 47 -5 70c-5 35 -24 71 -64 85c-12 4 -29 7 -53 7h-63zM445 495v-240c0 -31 -3 -59 -8 -87c-15 -80 -59 -144 -149 -163c-17 -3 -39 -5 -65 -5h-159v750h159c26 0 48 -2 65 -5
c90 -19 134 -83 149 -163c5 -28 8 -56 8 -87zM384 989l-110 -181h-78l-110 181h71l78 -120l78 120h71z" />
    <glyph glyph-name="dcaron" unicode="&#x10f;" horiz-adv-x="540" 
d="M138 344v-128c0 -12 2 -41 4 -57c5 -39 23 -80 69 -80c43 0 69 35 80 75c5 20 9 42 9 80v92c0 38 -4 60 -9 80c-11 40 -37 75 -80 75c-46 0 -64 -41 -69 -80c-2 -16 -4 -45 -4 -57zM395 785v-785h-60l-10 88c-27 -68 -78 -98 -135 -98c-82 0 -127 58 -141 137
c-5 26 -6 54 -6 91v124c0 37 1 65 6 91c14 79 59 137 141 137c48 0 89 -26 110 -64h1s-1 25 -1 50v229h95zM488 684h-33v101h95v-94c0 -63 -23 -124 -101 -139v30c46 19 56 53 56 85c0 14 -7 17 -17 17z" />
    <glyph glyph-name="Dcroat" unicode="&#x110;" horiz-adv-x="528" 
d="M94 0v363h-80v64h80v323h159c26 0 48 -2 65 -5c90 -19 136 -83 149 -163c5 -28 8 -59 8 -87v-240c0 -28 -3 -59 -8 -87c-13 -80 -59 -144 -149 -163c-17 -3 -39 -5 -65 -5h-159zM377 257v236c0 19 -1 47 -5 70c-5 36 -23 70 -64 85c-12 5 -28 7 -53 7h-63v-228h93v-64
h-93v-268h63c24 0 41 2 53 7c40 15 59 50 64 85c4 23 5 51 5 70z" />
    <glyph glyph-name="dcroat" unicode="&#x111;" horiz-adv-x="467" 
d="M395 666v-666h-60l-10 88c-27 -68 -78 -98 -135 -98c-82 0 -127 58 -141 137c-5 26 -6 54 -6 91v124c0 37 1 65 6 91c14 79 59 137 141 137c48 0 90 -27 110 -67h1s-1 25 -1 50v113h-132v53h132v74h95v-74h74v-53h-74zM138 344v-128c0 -12 2 -41 4 -57
c5 -39 23 -80 69 -80c43 0 69 35 80 75c5 20 9 42 9 80v92c0 38 -4 60 -9 80c-11 40 -37 75 -80 75c-46 0 -64 -41 -69 -80c-2 -16 -4 -45 -4 -57z" />
    <glyph glyph-name="Emacron" unicode="&#x112;" horiz-adv-x="441" 
d="M64 0v750h349v-95h-251v-222h208v-95h-208v-243h251v-95h-349zM370 887v-62h-258v62h258z" />
    <glyph glyph-name="emacron" unicode="&#x113;" 
d="M216 75c43 0 67 39 74 77h93c-17 -100 -73 -162 -167 -162c-97 0 -154 65 -168 160c-3 21 -5 43 -5 75v110c0 32 2 54 5 74c14 96 71 161 168 161c98 0 153 -67 166 -161c4 -30 6 -53 6 -105v-44h-250v-36c0 -32 1 -54 4 -72c9 -46 35 -77 74 -77zM142 407
c-3 -17 -4 -34 -4 -69h154c0 22 0 45 -5 69c-10 46 -33 78 -72 78c-40 0 -65 -30 -73 -78zM347 707v-62h-258v62h258z" />
    <glyph glyph-name="Ebreve" unicode="&#x114;" horiz-adv-x="441" 
d="M64 0v750h349v-95h-251v-222h208v-95h-208v-243h251v-95h-349zM237 803c-76 0 -131 52 -138 157h60c9 -70 39 -100 78 -100s69 30 78 100h60c-7 -105 -62 -157 -138 -157z" />
    <glyph glyph-name="ebreve" unicode="&#x115;" 
d="M216 75c43 0 67 39 74 77h93c-17 -100 -73 -162 -167 -162c-97 0 -154 65 -168 160c-3 21 -5 43 -5 75v110c0 32 2 54 5 74c14 96 71 161 168 161c98 0 153 -67 166 -161c4 -30 6 -53 6 -105v-44h-250v-36c0 -32 1 -54 4 -72c9 -46 35 -77 74 -77zM142 407
c-3 -17 -4 -34 -4 -69h154c0 22 0 45 -5 69c-10 46 -33 78 -72 78c-40 0 -65 -30 -73 -78zM217 623c-76 0 -131 52 -138 157h60c9 -70 39 -100 78 -100s69 30 78 100h60c-7 -105 -62 -157 -138 -157z" />
    <glyph glyph-name="Edotaccent" unicode="&#x116;" horiz-adv-x="441" 
d="M64 0v750h349v-95h-251v-222h208v-95h-208v-243h251v-95h-349zM294 823h-101v104h101v-104z" />
    <glyph glyph-name="edotaccent" unicode="&#x117;" 
d="M216 75c43 0 67 39 74 77h93c-17 -100 -73 -162 -167 -162c-97 0 -154 65 -168 160c-3 21 -5 43 -5 75v110c0 32 2 54 5 74c14 96 71 161 168 161c98 0 153 -67 166 -161c4 -30 6 -53 6 -105v-44h-250v-36c0 -32 1 -54 4 -72c9 -46 35 -77 74 -77zM142 407
c-3 -17 -4 -34 -4 -69h154c0 22 0 45 -5 69c-10 46 -33 78 -72 78c-40 0 -65 -30 -73 -78zM270 643h-101v104h101v-104z" />
    <glyph glyph-name="Eogonek" unicode="&#x118;" horiz-adv-x="441" 
d="M64 0v750h349v-95h-251v-222h208v-95h-208v-243h251v-95c-60 -49 -87 -91 -87 -128c0 -32 19 -51 51 -51c18 0 34 6 51 16l17 -40c-22 -15 -50 -26 -78 -26c-52 0 -99 28 -99 92c0 53 33 98 87 137h-291z" />
    <glyph glyph-name="eogonek" unicode="&#x119;" 
d="M216 75c43 0 67 39 74 77h93c-9 -55 -30 -98 -62 -126c-45 -39 -129 -94 -129 -154c0 -32 19 -51 51 -51c18 0 34 6 51 16l17 -40c-22 -15 -50 -26 -78 -26c-52 0 -99 28 -99 92c0 49 27 90 74 127c-92 4 -147 67 -160 160c-3 21 -5 43 -5 75v110c0 32 2 54 5 74
c14 96 71 161 168 161c98 0 153 -67 166 -161c4 -30 6 -53 6 -105v-44h-250v-36c0 -32 1 -54 4 -72c9 -46 35 -77 74 -77zM142 407c-3 -17 -4 -34 -4 -69h154c0 22 0 45 -5 69c-10 46 -33 78 -72 78c-40 0 -65 -30 -73 -78z" />
    <glyph glyph-name="Ecaron" unicode="&#x11a;" horiz-adv-x="441" 
d="M64 0v750h349v-95h-251v-222h208v-95h-208v-243h251v-95h-349zM390 989l-110 -181h-78l-110 181h71l78 -120l78 120h71z" />
    <glyph glyph-name="ecaron" unicode="&#x11b;" 
d="M216 75c43 0 67 39 74 77h93c-17 -100 -73 -162 -167 -162c-97 0 -154 65 -168 160c-3 21 -5 43 -5 75v110c0 32 2 54 5 74c14 96 71 161 168 161c98 0 153 -67 166 -161c4 -30 6 -53 6 -105v-44h-250v-36c0 -32 1 -54 4 -72c9 -46 35 -77 74 -77zM142 407
c-3 -17 -4 -34 -4 -69h154c0 22 0 45 -5 69c-10 46 -33 78 -72 78c-40 0 -65 -30 -73 -78zM365 809l-110 -181h-78l-110 181h71l78 -120l78 120h71z" />
    <glyph glyph-name="Gcircumflex" unicode="&#x11c;" horiz-adv-x="495" 
d="M151 502v-254c0 -19 1 -48 5 -70c9 -47 34 -94 88 -94h4c58 0 83 46 91 94c3 22 5 49 5 71v44h-103v90h199v-383h-51l-20 84c-30 -67 -75 -94 -133 -94c-105 0 -163 77 -179 184c-3 22 -4 49 -4 71v260c0 28 2 60 7 88c17 95 77 167 184 167h4c106 0 166 -71 184 -168
c4 -23 7 -48 8 -73h-98s-1 30 -5 53c-8 47 -33 93 -89 93h-4c-53 0 -79 -46 -88 -93c-4 -22 -5 -51 -5 -70zM207 989h78l109 -181h-70l-78 121l-78 -121h-70z" />
    <glyph glyph-name="gcircumflex" unicode="&#x11d;" horiz-adv-x="456" 
d="M335 560h60v-571c0 -36 -3 -62 -8 -86c-20 -86 -79 -141 -164 -141c-86 0 -155 50 -169 161h94c11 -53 43 -76 75 -76c41 0 66 29 74 85c2 13 3 32 3 56v29c0 25 1 50 1 50h-1c-20 -40 -62 -67 -110 -67c-82 0 -127 58 -141 137c-5 26 -6 54 -6 91v114c0 37 1 65 6 91
c14 79 59 137 143 137c56 0 107 -26 134 -84zM138 344v-118c0 -12 2 -41 4 -57c5 -39 23 -80 69 -80c43 0 69 35 80 75c5 20 9 42 9 80v82c0 38 -4 60 -9 80c-11 40 -37 75 -80 75c-46 0 -64 -41 -69 -80c-2 -16 -4 -45 -4 -57zM192 809h78l109 -181h-70l-78 121l-78 -121
h-70z" />
    <glyph glyph-name="Gbreve" unicode="&#x11e;" horiz-adv-x="495" 
d="M151 502v-254c0 -19 1 -48 5 -70c9 -47 34 -94 88 -94h4c58 0 83 46 91 94c3 22 5 49 5 71v44h-103v90h199v-383h-51l-20 84c-30 -67 -75 -94 -133 -94c-105 0 -163 77 -179 184c-3 22 -4 49 -4 71v260c0 28 2 60 7 88c17 95 77 167 184 167h4c106 0 166 -71 184 -168
c4 -23 7 -48 8 -73h-98s-1 30 -5 53c-8 47 -33 93 -89 93h-4c-53 0 -79 -46 -88 -93c-4 -22 -5 -51 -5 -70zM246 803c-76 0 -131 52 -138 157h60c9 -70 39 -100 78 -100s69 30 78 100h60c-7 -105 -62 -157 -138 -157z" />
    <glyph glyph-name="gbreve" unicode="&#x11f;" horiz-adv-x="456" 
d="M335 560h60v-571c0 -36 -3 -62 -8 -86c-20 -86 -79 -141 -164 -141c-86 0 -155 50 -169 161h94c11 -53 43 -76 75 -76c41 0 66 29 74 85c2 13 3 32 3 56v29c0 25 1 50 1 50h-1c-20 -40 -62 -67 -110 -67c-82 0 -127 58 -141 137c-5 26 -6 54 -6 91v114c0 37 1 65 6 91
c14 79 59 137 143 137c56 0 107 -26 134 -84zM138 344v-118c0 -12 2 -41 4 -57c5 -39 23 -80 69 -80c43 0 69 35 80 75c5 20 9 42 9 80v82c0 38 -4 60 -9 80c-11 40 -37 75 -80 75c-46 0 -64 -41 -69 -80c-2 -16 -4 -45 -4 -57zM226 623c-76 0 -131 52 -138 157h60
c9 -70 39 -100 78 -100s69 30 78 100h60c-7 -105 -62 -157 -138 -157z" />
    <glyph glyph-name="Gdotaccent" unicode="&#x120;" horiz-adv-x="495" 
d="M151 502v-254c0 -19 1 -48 5 -70c9 -47 34 -94 88 -94h4c58 0 83 46 91 94c3 22 5 49 5 71v44h-103v90h199v-383h-51l-20 84c-30 -67 -75 -94 -133 -94c-105 0 -163 77 -179 184c-3 22 -4 49 -4 71v260c0 28 2 60 7 88c17 95 77 167 184 167h4c106 0 166 -71 184 -168
c4 -23 7 -48 8 -73h-98s-1 30 -5 53c-8 47 -33 93 -89 93h-4c-53 0 -79 -46 -88 -93c-4 -22 -5 -51 -5 -70zM296 823h-101v104h101v-104z" />
    <glyph glyph-name="gdotaccent" unicode="&#x121;" horiz-adv-x="456" 
d="M335 560h60v-571c0 -36 -3 -62 -8 -86c-20 -86 -79 -141 -164 -141c-86 0 -155 50 -169 161h94c11 -53 43 -76 75 -76c41 0 66 29 74 85c2 13 3 32 3 56v29c0 25 1 50 1 50h-1c-20 -40 -62 -67 -110 -67c-82 0 -127 58 -141 137c-5 26 -6 54 -6 91v114c0 37 1 65 6 91
c14 79 59 137 143 137c56 0 107 -26 134 -84zM138 344v-118c0 -12 2 -41 4 -57c5 -39 23 -80 69 -80c43 0 69 35 80 75c5 20 9 42 9 80v82c0 38 -4 60 -9 80c-11 40 -37 75 -80 75c-46 0 -64 -41 -69 -80c-2 -16 -4 -45 -4 -57zM283 643h-101v104h101v-104z" />
    <glyph glyph-name="Gcommaaccent" unicode="&#x122;" horiz-adv-x="495" 
d="M151 502v-254c0 -19 1 -48 5 -70c9 -47 34 -94 88 -94h4c58 0 83 46 91 94c3 22 5 49 5 71v44h-103v90h199v-383h-51l-20 84c-30 -67 -75 -94 -133 -94c-105 0 -163 77 -179 184c-3 22 -4 49 -4 71v260c0 28 2 60 7 88c17 95 77 167 184 167h4c106 0 166 -71 184 -168
c4 -23 7 -48 8 -73h-98s-1 30 -5 53c-8 47 -33 93 -89 93h-4c-53 0 -79 -46 -88 -93c-4 -22 -5 -51 -5 -70zM230 -151h-33v101h95v-94c0 -63 -23 -124 -101 -139v30c46 19 56 53 56 85c0 14 -7 17 -17 17z" />
    <glyph glyph-name="gcommaaccent" unicode="&#x123;" horiz-adv-x="456" 
d="M214 753h33v-101h-95v94c0 63 23 124 101 139v-30c-46 -19 -56 -53 -56 -85c0 -14 7 -17 17 -17zM335 550h60v-571c0 -36 -3 -62 -8 -86c-20 -86 -79 -141 -164 -141c-86 0 -155 50 -169 161h94c11 -53 43 -76 75 -76c41 0 66 29 74 85c2 13 3 32 3 56v29c0 25 1 50 1 50
h-1c-20 -40 -62 -67 -110 -67c-82 0 -127 58 -141 137c-5 26 -6 54 -6 91v114c0 37 1 65 6 91c14 79 59 137 143 137c56 0 107 -26 134 -84zM138 334v-118c0 -12 2 -41 4 -57c5 -39 23 -80 69 -80c43 0 69 35 80 75c5 20 9 42 9 80v82c0 38 -4 60 -9 80
c-11 40 -37 75 -80 75c-46 0 -64 -41 -69 -80c-2 -16 -4 -45 -4 -57z" />
    <glyph glyph-name="Hcircumflex" unicode="&#x124;" horiz-adv-x="524" 
d="M64 0v750h98v-312h200v312h98v-750h-98v343h-200v-343h-98zM223 999h78l109 -181h-70l-78 121l-78 -121h-70z" />
    <glyph glyph-name="hcircumflex" unicode="&#x125;" horiz-adv-x="471" 
d="M245 481c-43 0 -69 -35 -80 -75c-5 -20 -9 -42 -9 -80v-326h-95v785h95v-232c0 -25 -1 -50 -1 -50h1c20 40 62 67 110 67c82 0 127 -58 141 -137c5 -26 6 -54 6 -91v-342h-95v344c0 17 -1 39 -4 57c-6 39 -23 80 -69 80zM190 1009h78l109 -181h-70l-78 121l-78 -121h-70z
" />
    <glyph glyph-name="Hbar" unicode="&#x126;" horiz-adv-x="549" 
d="M80 0v575h-72v53h72v122h98v-122h200v122h98v-122h73v-53h-73v-575h-98v343h-200v-343h-98zM178 438h200v137h-200v-137z" />
    <glyph glyph-name="hbar" unicode="&#x127;" horiz-adv-x="491" 
d="M175 503h1c20 40 62 67 110 67c82 0 127 -58 141 -137c5 -26 6 -54 6 -91v-342h-95v344c0 12 -2 41 -4 57c-5 39 -23 80 -69 80c-43 0 -69 -35 -80 -75c-5 -20 -9 -42 -9 -80v-326h-95v658h-75v53h75v74h95v-74h132v-53h-132v-105c0 -25 -1 -50 -1 -50z" />
    <glyph glyph-name="Itilde" unicode="&#x128;" horiz-adv-x="226" 
d="M64 0v750h98v-750h-98zM7 819h-50c7 77 40 130 96 130c27 0 50 -12 72 -35c33 -34 43 -43 65 -43c18 0 35 17 41 65h50c-6 -78 -40 -131 -96 -131c-27 0 -50 12 -72 35c-33 35 -43 43 -64 43c-19 0 -36 -16 -42 -64z" />
    <glyph glyph-name="itilde" unicode="&#x129;" horiz-adv-x="217" 
d="M3 639h-50c7 77 40 130 96 130c27 0 50 -12 72 -35c33 -34 43 -43 65 -43c18 0 35 17 41 65h50c-6 -78 -40 -131 -96 -131c-27 0 -50 12 -72 35c-33 35 -43 43 -64 43c-19 0 -36 -16 -42 -64zM61 0v560h95v-560h-95z" />
    <glyph glyph-name="uni012A" unicode="&#x12a;" horiz-adv-x="226" 
d="M64 0v750h98v-750h-98zM243 887v-62h-258v62h258z" />
    <glyph glyph-name="imacron" unicode="&#x12b;" horiz-adv-x="217" 
d="M238 707v-62h-258v62h258zM61 0v560h95v-560h-95z" />
    <glyph glyph-name="Ibreve" unicode="&#x12c;" horiz-adv-x="226" 
d="M64 0v750h98v-750h-98zM113 803c-76 0 -131 52 -138 157h60c9 -70 39 -100 78 -100s69 30 78 100h60c-7 -105 -62 -157 -138 -157z" />
    <glyph glyph-name="uni012D" unicode="&#x12d;" horiz-adv-x="217" 
d="M108 623c-76 0 -131 52 -138 157h60c9 -70 39 -100 78 -100s69 30 78 100h60c-7 -105 -62 -157 -138 -157zM61 0v560h95v-560h-95z" />
    <glyph glyph-name="Iogonek" unicode="&#x12e;" horiz-adv-x="226" 
d="M162 750v-750c-60 -49 -87 -91 -87 -128c0 -32 19 -51 51 -51c18 0 34 6 51 16l17 -40c-22 -15 -50 -26 -78 -26c-52 0 -99 28 -99 92c0 38 17 72 47 103v784h98z" />
    <glyph glyph-name="iogonek" unicode="&#x12f;" horiz-adv-x="217" 
d="M11 -137c0 40 18 75 50 106v591h95v-560c-60 -49 -87 -91 -87 -128c0 -32 19 -51 51 -51c18 0 34 6 51 16l17 -40c-22 -15 -50 -26 -78 -26c-52 0 -99 28 -99 92zM59 657v108h99v-108h-99z" />
    <glyph glyph-name="Idotaccent" unicode="&#x130;" horiz-adv-x="226" 
d="M64 0v750h98v-750h-98zM164 823h-101v104h101v-104z" />
    <glyph glyph-name="dotlessi" unicode="&#x131;" horiz-adv-x="217" 
d="M61 0v560h95v-560h-95z" />
    <glyph glyph-name="IJ" unicode="&#x132;" horiz-adv-x="664" 
d="M64 0v750h98v-750h-98zM359 263v-49c0 -25 2 -40 4 -54c7 -45 32 -75 70 -75c37 0 61 26 69 73c2 12 4 29 4 56v536h98v-538c0 -24 -1 -42 -3 -58c-13 -92 -68 -164 -168 -164c-96 0 -154 65 -168 160c-2 16 -4 36 -4 63v50h98z" />
    <glyph glyph-name="ij" unicode="&#x133;" horiz-adv-x="443" 
d="M61 0v560h95v-560h-95zM59 657v108h99v-108h-99zM285 657v108h99v-108h-99zM287 -44v604h95v-607c0 -130 -64 -190 -162 -190c-19 0 -32 1 -44 2v89c8 -1 19 -2 33 -2c54 0 78 27 78 104z" />
    <glyph glyph-name="Jcircumflex" unicode="&#x134;" horiz-adv-x="436" 
d="M131 263v-49c0 -25 2 -40 4 -54c7 -45 32 -75 70 -75c37 0 61 26 69 73c2 12 4 29 4 56v536h98v-538c0 -24 -1 -42 -3 -58c-13 -92 -68 -164 -168 -164c-96 0 -154 65 -168 160c-2 16 -4 36 -4 63v50h98zM289 989h78l109 -181h-70l-78 121l-78 -121h-70z" />
    <glyph glyph-name="jcircumflex" unicode="&#x135;" horiz-adv-x="223" 
d="M68 -44v604h94v-607c0 -130 -64 -190 -162 -190c-19 0 -32 1 -44 2v89c8 -1 19 -2 33 -2c54 0 79 27 79 104zM82 809h78l109 -181h-70l-78 121l-78 -121h-70z" />
    <glyph glyph-name="Kcommaaccent" unicode="&#x136;" horiz-adv-x="480" 
d="M162 414l1 -1s19 35 28 49l172 288h107l-178 -285l195 -465h-107l-149 371l-69 -113v-258h-98v750h98v-336zM247 -151h-33v101h95v-94c0 -63 -23 -124 -101 -139v30c46 19 56 53 56 85c0 14 -7 17 -17 17z" />
    <glyph glyph-name="kcommaaccent" unicode="&#x137;" horiz-adv-x="427" 
d="M204 285l-48 -66v-219h-95v785h95v-436l145 211h109l-142 -194l159 -366h-107zM219 -151h-33v101h95v-94c0 -63 -23 -124 -101 -139v30c46 19 56 53 56 85c0 14 -7 17 -17 17z" />
    <glyph glyph-name="kgreenlandic" unicode="&#x138;" horiz-adv-x="427" 
d="M204 285l-48 -66v-219h-95v560h95v-211l145 211h109l-142 -194l159 -366h-107z" />
    <glyph glyph-name="Lacute" unicode="&#x139;" horiz-adv-x="434" 
d="M64 0v750h98v-655h254v-95h-352zM73 807l82 167h104v-7l-122 -160h-64z" />
    <glyph glyph-name="lacute" unicode="&#x13a;" horiz-adv-x="217" 
d="M61 0v785h95v-785h-95zM69 837l82 167h104v-7l-122 -160h-64z" />
    <glyph glyph-name="Lcommaaccent" unicode="&#x13b;" horiz-adv-x="434" 
d="M64 0v750h98v-655h254v-95h-352zM229 -151h-33v101h95v-94c0 -63 -23 -124 -101 -139v30c46 19 56 53 56 85c0 14 -7 17 -17 17z" />
    <glyph glyph-name="lcommaaccent" unicode="&#x13c;" horiz-adv-x="217" 
d="M61 0v785h95v-785h-95zM94 -151h-33v101h95v-94c0 -63 -23 -124 -101 -139v30c46 19 56 53 56 85c0 14 -7 17 -17 17z" />
    <glyph glyph-name="Lcaron" unicode="&#x13d;" horiz-adv-x="434" 
d="M64 0v750h98v-655h254v-95h-352zM355 684h-33v101h95v-94c0 -63 -23 -124 -101 -139v30c46 19 56 53 56 85c0 14 -7 17 -17 17z" />
    <glyph glyph-name="lcaron" unicode="&#x13e;" horiz-adv-x="301" 
d="M61 0v785h95v-785h-95zM249 684h-33v101h95v-94c0 -63 -23 -124 -101 -139v30c46 19 56 53 56 85c0 14 -7 17 -17 17z" />
    <glyph glyph-name="Ldot" unicode="&#x13f;" horiz-adv-x="434" 
d="M64 0v750h98v-655h254v-95h-352zM394 348h-101v104h101v-104z" />
    <glyph glyph-name="ldot" unicode="&#x140;" horiz-adv-x="327" 
d="M61 0v785h95v-785h-95zM327 348h-101v104h101v-104z" />
    <glyph glyph-name="Lslash" unicode="&#x141;" horiz-adv-x="469" 
d="M327 548v-86l-130 -100v-267h254v-95h-352v287l-85 -67v87l85 66v377h98v-303z" />
    <glyph glyph-name="lslash" unicode="&#x142;" horiz-adv-x="295" 
d="M195 503l86 81v-86l-86 -81v-417h-95v333l-86 -81v86l86 81v366h95v-282z" />
    <glyph glyph-name="Nacute" unicode="&#x143;" horiz-adv-x="523" 
d="M367 262v488h92v-750h-113l-190 546h-1s1 -33 1 -58v-488h-92v750h113l190 -546h1s-1 33 -1 58zM203 807l82 167h104v-7l-122 -160h-64z" />
    <glyph glyph-name="nacute" unicode="&#x144;" horiz-adv-x="471" 
d="M245 481c-43 0 -69 -35 -80 -75c-5 -20 -9 -42 -9 -80v-326h-95v560h60l10 -88c27 68 78 98 135 98c82 0 127 -58 141 -137c5 -26 6 -54 6 -91v-342h-95v344c0 17 -1 39 -4 57c-6 39 -23 80 -69 80zM161 627l82 167h104v-7l-122 -160h-64z" />
    <glyph glyph-name="Ncommaaccent" unicode="&#x145;" horiz-adv-x="523" 
d="M367 262v488h92v-750h-113l-190 546h-1s1 -33 1 -58v-488h-92v750h113l190 -546h1s-1 33 -1 58zM245 -151h-33v101h95v-94c0 -63 -23 -124 -101 -139v30c46 19 56 53 56 85c0 14 -7 17 -17 17z" />
    <glyph glyph-name="ncommaaccent" unicode="&#x146;" horiz-adv-x="471" 
d="M245 481c-43 0 -69 -35 -80 -75c-5 -20 -9 -42 -9 -80v-326h-95v560h60l10 -88c27 68 78 98 135 98c82 0 127 -58 141 -137c5 -26 6 -54 6 -91v-342h-95v344c0 17 -1 39 -4 57c-6 39 -23 80 -69 80zM224 -151h-33v101h95v-94c0 -63 -23 -124 -101 -139v30
c46 19 56 53 56 85c0 14 -7 17 -17 17z" />
    <glyph glyph-name="Ncaron" unicode="&#x147;" horiz-adv-x="523" 
d="M367 262v488h92v-750h-113l-190 546h-1s1 -33 1 -58v-488h-92v750h113l190 -546h1s-1 33 -1 58zM410 989l-110 -181h-78l-110 181h71l78 -120l78 120h71z" />
    <glyph glyph-name="ncaron" unicode="&#x148;" horiz-adv-x="471" 
d="M245 481c-43 0 -69 -35 -80 -75c-5 -20 -9 -42 -9 -80v-326h-95v560h60l10 -88c27 68 78 98 135 98c82 0 127 -58 141 -137c5 -26 6 -54 6 -91v-342h-95v344c0 17 -1 39 -4 57c-6 39 -23 80 -69 80zM389 809l-110 -181h-78l-110 181h71l78 -120l78 120h71z" />
    <glyph glyph-name="napostrophe" unicode="&#x149;" horiz-adv-x="570" 
d="M344 481c-43 0 -69 -35 -80 -75c-5 -20 -9 -42 -9 -80v-326h-95v560h60l10 -88c27 68 78 98 135 98c82 0 127 -58 141 -137c5 -26 6 -54 6 -91v-342h-95v344c0 17 -1 39 -4 57c-6 39 -23 80 -69 80zM49 654h-41v136h119v-127c0 -79 -29 -155 -127 -174v38
c58 23 70 66 70 106c0 17 -8 21 -21 21z" />
    <glyph glyph-name="Eng" unicode="&#x14a;" horiz-adv-x="523" 
d="M364 -44v44h-18l-190 546h-1s1 -33 1 -58v-488h-92v750h113l190 -546h1s-1 33 -1 58v488h92v-797c0 -130 -64 -190 -162 -190c-19 0 -32 1 -44 2v89c8 -1 19 -2 33 -2c54 0 78 27 78 104z" />
    <glyph glyph-name="eng" unicode="&#x14b;" horiz-adv-x="471" 
d="M318 -44v388c0 17 -1 39 -4 57c-6 39 -23 80 -69 80c-43 0 -69 -35 -80 -75c-5 -20 -9 -42 -9 -80v-326h-95v560h60l10 -88c27 68 78 98 135 98c82 0 127 -58 141 -137c5 -26 6 -54 6 -91v-389c0 -130 -64 -190 -162 -190c-19 0 -32 1 -44 2v89c8 -1 19 -2 33 -2
c54 0 78 27 78 104z" />
    <glyph glyph-name="Omacron" unicode="&#x14c;" horiz-adv-x="493" 
d="M151 502v-254c0 -19 1 -48 5 -70c9 -47 34 -93 88 -93h5c54 0 79 46 88 93c4 22 5 51 5 70v254c0 19 -1 48 -5 70c-9 47 -34 93 -88 93h-5c-54 0 -79 -46 -88 -93c-4 -22 -5 -51 -5 -70zM440 503v-256c0 -28 -2 -61 -7 -89c-17 -95 -75 -168 -184 -168h-5
c-109 0 -167 73 -184 168c-5 28 -7 61 -7 89v256c0 28 2 61 7 89c17 95 75 168 184 168h5c109 0 167 -73 184 -168c5 -28 7 -61 7 -89zM376 887v-62h-258v62h258z" />
    <glyph glyph-name="omacron" unicode="&#x14d;" 
d="M387 335v-110c0 -32 -2 -54 -5 -74c-14 -96 -70 -161 -167 -161s-153 65 -167 161c-3 20 -5 42 -5 74v110c0 32 2 54 5 74c14 96 70 161 167 161s153 -65 167 -161c3 -20 5 -42 5 -74zM138 333v-106c0 -32 1 -54 4 -71c8 -49 33 -78 73 -78s65 29 73 78c3 17 4 39 4 71
v106c0 32 -1 54 -4 71c-8 49 -33 78 -73 78s-65 -29 -73 -78c-3 -17 -4 -39 -4 -71zM345 707v-62h-258v62h258z" />
    <glyph glyph-name="Obreve" unicode="&#x14e;" horiz-adv-x="493" 
d="M151 502v-254c0 -19 1 -48 5 -70c9 -47 34 -93 88 -93h5c54 0 79 46 88 93c4 22 5 51 5 70v254c0 19 -1 48 -5 70c-9 47 -34 93 -88 93h-5c-54 0 -79 -46 -88 -93c-4 -22 -5 -51 -5 -70zM440 503v-256c0 -28 -2 -61 -7 -89c-17 -95 -75 -168 -184 -168h-5
c-109 0 -167 73 -184 168c-5 28 -7 61 -7 89v256c0 28 2 61 7 89c17 95 75 168 184 168h5c109 0 167 -73 184 -168c5 -28 7 -61 7 -89zM246 803c-76 0 -131 52 -138 157h60c9 -70 39 -100 78 -100s69 30 78 100h60c-7 -105 -62 -157 -138 -157z" />
    <glyph glyph-name="obreve" unicode="&#x14f;" 
d="M387 335v-110c0 -32 -2 -54 -5 -74c-14 -96 -70 -161 -167 -161s-153 65 -167 161c-3 20 -5 42 -5 74v110c0 32 2 54 5 74c14 96 70 161 167 161s153 -65 167 -161c3 -20 5 -42 5 -74zM138 333v-106c0 -32 1 -54 4 -71c8 -49 33 -78 73 -78s65 29 73 78c3 17 4 39 4 71
v106c0 32 -1 54 -4 71c-8 49 -33 78 -73 78s-65 -29 -73 -78c-3 -17 -4 -39 -4 -71zM215 623c-76 0 -131 52 -138 157h60c9 -70 39 -100 78 -100s69 30 78 100h60c-7 -105 -62 -157 -138 -157z" />
    <glyph glyph-name="Ohungarumlaut" unicode="&#x150;" horiz-adv-x="493" 
d="M151 502v-254c0 -19 1 -48 5 -70c9 -47 34 -93 88 -93h5c54 0 79 46 88 93c4 22 5 51 5 70v254c0 19 -1 48 -5 70c-9 47 -34 93 -88 93h-5c-54 0 -79 -46 -88 -93c-4 -22 -5 -51 -5 -70zM440 503v-256c0 -28 -2 -61 -7 -89c-17 -95 -75 -168 -184 -168h-5
c-109 0 -167 73 -184 168c-5 28 -7 61 -7 89v256c0 28 2 61 7 89c17 95 75 168 184 168h5c109 0 167 -73 184 -168c5 -28 7 -61 7 -89zM109 807l79 167h100v-3l-116 -164h-63zM279 807l79 167h100v-3l-116 -164h-63z" />
    <glyph glyph-name="ohungarumlaut" unicode="&#x151;" 
d="M387 335v-110c0 -32 -2 -54 -5 -74c-14 -96 -70 -161 -167 -161s-153 65 -167 161c-3 20 -5 42 -5 74v110c0 32 2 54 5 74c14 96 70 161 167 161s153 -65 167 -161c3 -20 5 -42 5 -74zM138 333v-106c0 -32 1 -54 4 -71c8 -49 33 -78 73 -78s65 29 73 78c3 17 4 39 4 71
v106c0 32 -1 54 -4 71c-8 49 -33 78 -73 78s-65 -29 -73 -78c-3 -17 -4 -39 -4 -71zM87 627l79 167h100v-3l-116 -164h-63zM257 627l79 167h100v-3l-116 -164h-63z" />
    <glyph glyph-name="OE" unicode="&#x152;" horiz-adv-x="683" 
d="M331 655h-87c-54 0 -79 -46 -88 -93c-4 -22 -5 -51 -5 -70v-234c0 -19 1 -48 5 -70c9 -47 34 -93 88 -93h87v560zM244 750h411v-95h-226v-222h184v-95h-184v-243h226v-95h-411c-109 0 -167 73 -184 168c-5 28 -7 61 -7 89v236c0 28 2 61 7 89c17 95 75 168 184 168z" />
    <glyph glyph-name="oe" unicode="&#x153;" horiz-adv-x="679" 
d="M391 407c-3 -17 -4 -34 -4 -69h154c0 22 0 45 -5 69c-10 46 -33 78 -72 78c-40 0 -65 -30 -73 -78zM215 570c56 0 95 -29 122 -73c27 43 69 73 128 73c98 0 153 -67 166 -161c4 -30 6 -53 6 -105v-44h-250v-36c0 -32 1 -54 4 -72c10 -46 35 -77 74 -77c43 0 67 39 74 77
h93c-17 -100 -73 -162 -167 -162c-58 0 -99 28 -127 71c-27 -43 -66 -71 -123 -71c-97 0 -153 65 -167 161c-3 20 -5 42 -5 74v110c0 32 2 54 5 74c14 96 70 161 167 161zM138 333v-106c0 -32 1 -54 4 -71c8 -49 33 -78 73 -78s65 29 73 78c3 17 4 39 4 71v106
c0 32 -1 54 -4 71c-8 49 -33 78 -73 78s-65 -29 -73 -78c-3 -17 -4 -39 -4 -71z" />
    <glyph glyph-name="Racute" unicode="&#x154;" horiz-adv-x="469" 
d="M425 231l8 -141c2 -37 8 -66 22 -88v-2h-99c-12 17 -18 50 -20 83l-8 136c-4 59 -21 91 -59 103c-11 3 -25 5 -51 5h-56v-327h-98v750h151c25 0 48 -1 67 -5c92 -18 151 -79 151 -189c0 -72 -38 -146 -115 -178v-1c70 -18 103 -75 107 -146zM211 657h-49v-237h52
c21 0 35 1 47 4c50 14 74 62 74 124s-31 93 -76 104c-12 3 -30 5 -48 5zM162 807l82 167h104v-7l-122 -160h-64z" />
    <glyph glyph-name="racute" unicode="&#x155;" horiz-adv-x="338" 
d="M265 481c-66 0 -96 -56 -105 -124c-3 -27 -4 -58 -4 -91v-266h-95v560h60l10 -92c29 73 84 102 142 102c18 0 39 -3 54 -7l-2 -92c-19 6 -38 10 -60 10zM123 627l82 167h104v-7l-122 -160h-64z" />
    <glyph glyph-name="Rcommaaccent" unicode="&#x156;" horiz-adv-x="469" 
d="M425 231l8 -141c2 -37 8 -66 22 -88v-2h-99c-12 17 -18 50 -20 83l-8 136c-4 59 -21 91 -59 103c-11 3 -25 5 -51 5h-56v-327h-98v750h151c25 0 48 -1 67 -5c92 -18 151 -79 151 -189c0 -72 -38 -146 -115 -178v-1c70 -18 103 -75 107 -146zM211 657h-49v-237h52
c21 0 35 1 47 4c50 14 74 62 74 124s-31 93 -76 104c-12 3 -30 5 -48 5zM244 -151h-33v101h95v-94c0 -63 -23 -124 -101 -139v30c46 19 56 53 56 85c0 14 -7 17 -17 17z" />
    <glyph glyph-name="rcommaaccent" unicode="&#x157;" horiz-adv-x="338" 
d="M265 481c-66 0 -96 -56 -105 -124c-3 -27 -4 -58 -4 -91v-266h-95v560h60l10 -92c29 73 84 102 142 102c18 0 39 -3 54 -7l-2 -92c-19 6 -38 10 -60 10zM94 -151h-33v101h95v-94c0 -63 -23 -124 -101 -139v30c46 19 56 53 56 85c0 14 -7 17 -17 17z" />
    <glyph glyph-name="Rcaron" unicode="&#x158;" horiz-adv-x="469" 
d="M425 231l8 -141c2 -37 8 -66 22 -88v-2h-99c-12 17 -18 50 -20 83l-8 136c-4 59 -21 91 -59 103c-11 3 -25 5 -51 5h-56v-327h-98v750h151c25 0 48 -1 67 -5c92 -18 151 -79 151 -189c0 -72 -38 -146 -115 -178v-1c70 -18 103 -75 107 -146zM211 657h-49v-237h52
c21 0 35 1 47 4c50 14 74 62 74 124s-31 93 -76 104c-12 3 -30 5 -48 5zM375 989l-110 -181h-78l-110 181h71l78 -120l78 120h71z" />
    <glyph glyph-name="rcaron" unicode="&#x159;" horiz-adv-x="338" 
d="M265 481c-66 0 -96 -56 -105 -124c-3 -27 -4 -58 -4 -91v-266h-95v560h60l10 -92c29 73 84 102 142 102c18 0 39 -3 54 -7l-2 -92c-19 6 -38 10 -60 10zM342 809l-110 -181h-78l-110 181h71l78 -120l78 120h71z" />
    <glyph glyph-name="Sacute" unicode="&#x15a;" horiz-adv-x="460" 
d="M419 549h-97c-2 73 -31 123 -90 123c-64 0 -85 -51 -85 -104c0 -68 33 -101 85 -126l36 -18c89 -43 157 -106 157 -225c0 -128 -82 -209 -194 -209c-118 0 -195 92 -197 215h98c-1 -81 46 -127 100 -127c56 0 96 44 96 123c0 69 -38 103 -105 137l-31 16
c-79 42 -142 89 -142 212c0 124 79 194 182 194c107 0 188 -70 187 -211zM159 807l82 167h104v-7l-122 -160h-64z" />
    <glyph glyph-name="sacute" unicode="&#x15b;" horiz-adv-x="383" 
d="M169 255c-86 37 -131 83 -131 163c0 93 58 152 151 152c88 0 143 -47 156 -144h-90c-7 46 -29 68 -66 68c-42 0 -63 -27 -63 -70c0 -45 26 -69 82 -94c75 -33 145 -83 145 -177c0 -102 -62 -163 -156 -163c-100 0 -161 63 -171 162h90c7 -52 35 -85 80 -85
c42 0 68 33 68 83c0 54 -32 78 -95 105zM117 627l82 167h104v-7l-122 -160h-64z" />
    <glyph glyph-name="Scircumflex" unicode="&#x15c;" horiz-adv-x="460" 
d="M419 549h-97c-2 73 -31 123 -90 123c-64 0 -85 -51 -85 -104c0 -68 33 -101 85 -126l36 -18c89 -43 157 -106 157 -225c0 -128 -82 -209 -194 -209c-118 0 -195 92 -197 215h98c-1 -81 46 -127 100 -127c56 0 96 44 96 123c0 69 -38 103 -105 137l-31 16
c-79 42 -142 89 -142 212c0 124 79 194 182 194c107 0 188 -70 187 -211zM198 989h78l109 -181h-70l-78 121l-78 -121h-70z" />
    <glyph glyph-name="scircumflex" unicode="&#x15d;" horiz-adv-x="383" 
d="M169 255c-86 37 -131 83 -131 163c0 93 58 152 151 152c88 0 143 -47 156 -144h-90c-7 46 -29 68 -66 68c-42 0 -63 -27 -63 -70c0 -45 26 -69 82 -94c75 -33 145 -83 145 -177c0 -102 -62 -163 -156 -163c-100 0 -161 63 -171 162h90c7 -52 35 -85 80 -85
c42 0 68 33 68 83c0 54 -32 78 -95 105zM155 809h78l109 -181h-70l-78 121l-78 -121h-70z" />
    <glyph glyph-name="Scedilla" unicode="&#x15e;" horiz-adv-x="460" 
d="M419 549h-97c-2 73 -31 123 -90 123c-64 0 -85 -51 -85 -104c0 -68 33 -101 85 -126l36 -18c89 -43 157 -106 157 -225c0 -128 -82 -209 -194 -209h-5l-10 -37c53 -14 95 -46 95 -98c0 -56 -39 -90 -86 -90c-50 0 -86 33 -91 82h46c5 -22 20 -37 42 -37c24 0 38 18 38 44
c0 28 -21 48 -59 60l-23 7c-11 3 -15 9 -10 23l18 51c-93 20 -151 103 -152 210h98c-1 -81 46 -127 100 -127c56 0 96 44 96 123c0 69 -38 103 -105 137l-31 16c-79 42 -142 89 -142 212c0 124 79 194 182 194c107 0 188 -70 187 -211z" />
    <glyph glyph-name="scedilla" unicode="&#x15f;" horiz-adv-x="383" 
d="M169 255c-90 36 -131 81 -131 163c0 93 58 152 151 152c88 0 143 -47 156 -144h-91c-6 46 -28 68 -65 68c-42 0 -63 -28 -63 -72c0 -46 26 -71 82 -92c81 -31 145 -79 145 -177c0 -102 -60 -163 -156 -163h-6l-10 -37c53 -14 95 -46 95 -98c0 -56 -39 -90 -86 -90
c-50 0 -86 33 -91 82h46c5 -22 20 -37 42 -37c24 0 38 18 38 44c0 28 -21 48 -59 60l-23 7c-11 3 -15 9 -10 23l18 51c-71 14 -114 68 -125 157h91c7 -55 33 -85 78 -85c41 0 68 34 68 85c0 57 -31 78 -94 103z" />
    <glyph glyph-name="Scaron" unicode="&#x160;" horiz-adv-x="460" 
d="M419 549h-97c-2 73 -31 123 -90 123c-64 0 -85 -51 -85 -104c0 -68 33 -101 85 -126l36 -18c89 -43 157 -106 157 -225c0 -128 -82 -209 -194 -209c-118 0 -195 92 -197 215h98c-1 -81 46 -127 100 -127c56 0 96 44 96 123c0 69 -38 103 -105 137l-31 16
c-79 42 -142 89 -142 212c0 124 79 194 182 194c107 0 188 -70 187 -211zM377 989l-110 -181h-78l-110 181h71l78 -120l78 120h71z" />
    <glyph glyph-name="scaron" unicode="&#x161;" horiz-adv-x="383" 
d="M169 255c-86 37 -131 83 -131 163c0 93 58 152 151 152c88 0 143 -47 156 -144h-90c-7 46 -29 68 -66 68c-42 0 -63 -27 -63 -70c0 -45 26 -69 82 -94c75 -33 145 -83 145 -177c0 -102 -62 -163 -156 -163c-100 0 -161 63 -171 162h90c7 -52 35 -85 80 -85
c42 0 68 33 68 83c0 54 -32 78 -95 105zM337 809l-110 -181h-78l-110 181h71l78 -120l78 120h71z" />
    <glyph glyph-name="Tcommaaccent" unicode="&#x162;" horiz-adv-x="432" 
d="M12 750h408v-95h-155v-655h-98v655h-155v95zM201 -151h-33v101h95v-94c0 -63 -23 -124 -101 -139v30c46 19 56 53 56 85c0 14 -7 17 -17 17z" />
    <glyph glyph-name="tcommaaccent" unicode="&#x163;" horiz-adv-x="298" 
d="M177 472v-257c0 -34 2 -53 5 -69c10 -48 32 -61 77 -61c7 0 10 0 19 1v-86c-15 -2 -26 -2 -36 -2c-89 0 -137 39 -154 126c-4 23 -6 55 -6 88v260h-70v88h70v140h95v-140h100v-88h-100zM171 -151h-33v101h95v-94c0 -63 -23 -124 -101 -139v30c46 19 56 53 56 85
c0 14 -7 17 -17 17z" />
    <glyph glyph-name="Tcaron" unicode="&#x164;" horiz-adv-x="432" 
d="M12 750h408v-95h-155v-655h-98v655h-155v95zM365 989l-110 -181h-78l-110 181h71l78 -120l78 120h71z" />
    <glyph glyph-name="tcaron" unicode="&#x165;" horiz-adv-x="413" 
d="M177 472v-257c0 -34 2 -53 5 -69c10 -48 32 -61 77 -61c7 0 10 0 19 1v-86c-15 -2 -26 -2 -36 -2c-89 0 -137 39 -154 126c-4 23 -6 55 -6 88v260h-70v88h70v140h95v-140h100v-88h-100zM361 684h-33v101h95v-94c0 -63 -23 -124 -101 -139v30c46 19 56 53 56 85
c0 14 -7 17 -17 17z" />
    <glyph glyph-name="Tbar" unicode="&#x166;" horiz-adv-x="448" 
d="M20 750h408v-95h-155v-223h131v-53h-131v-379h-98v379h-131v53h131v223h-155v95z" />
    <glyph glyph-name="tbar" unicode="&#x167;" horiz-adv-x="314" 
d="M92 344v128h-70v88h70v140h95v-140h100v-88h-100v-128h101v-53h-101v-76c0 -34 2 -53 5 -69c10 -48 32 -61 77 -61c7 0 10 0 19 1v-86c-15 -2 -26 -2 -36 -2c-89 0 -137 39 -154 126c-4 23 -6 55 -6 88v79h-70v53h70z" />
    <glyph glyph-name="Utilde" unicode="&#x168;" horiz-adv-x="507" 
d="M60 247v503h98v-502c0 -19 1 -48 5 -70c9 -47 34 -93 88 -93h5c54 0 79 46 88 93c4 22 5 51 5 70v502h98v-503c0 -28 -2 -61 -7 -89c-17 -95 -75 -168 -184 -168h-5c-109 0 -167 73 -184 168c-5 28 -7 61 -7 89zM144 819h-50c7 77 40 130 96 130c27 0 50 -12 72 -35
c33 -34 43 -43 65 -43c18 0 35 17 41 65h50c-6 -78 -40 -131 -96 -131c-27 0 -50 12 -72 35c-33 35 -43 43 -64 43c-19 0 -36 -16 -42 -64z" />
    <glyph glyph-name="utilde" unicode="&#x169;" horiz-adv-x="471" 
d="M226 79c43 0 69 35 80 75c5 20 9 42 9 80v326h95v-560h-60l-10 88c-27 -68 -78 -98 -135 -98c-82 0 -127 58 -141 137c-5 26 -6 54 -6 91v342h95v-344c0 -17 1 -39 4 -57c6 -39 23 -80 69 -80zM127 639h-50c7 77 40 130 96 130c27 0 50 -12 72 -35c33 -34 43 -43 65 -43
c18 0 35 17 41 65h50c-6 -78 -40 -131 -96 -131c-27 0 -50 12 -72 35c-33 35 -43 43 -64 43c-19 0 -36 -16 -42 -64z" />
    <glyph glyph-name="Umacron" unicode="&#x16a;" horiz-adv-x="507" 
d="M60 247v503h98v-502c0 -19 1 -48 5 -70c9 -47 34 -93 88 -93h5c54 0 79 46 88 93c4 22 5 51 5 70v502h98v-503c0 -28 -2 -61 -7 -89c-17 -95 -75 -168 -184 -168h-5c-109 0 -167 73 -184 168c-5 28 -7 61 -7 89zM383 887v-62h-258v62h258z" />
    <glyph glyph-name="umacron" unicode="&#x16b;" horiz-adv-x="471" 
d="M226 79c43 0 69 35 80 75c5 20 9 42 9 80v326h95v-560h-60l-10 88c-27 -68 -78 -98 -135 -98c-82 0 -127 58 -141 137c-5 26 -6 54 -6 91v342h95v-344c0 -17 1 -39 4 -57c6 -39 23 -80 69 -80zM365 707v-62h-258v62h258z" />
    <glyph glyph-name="Ubreve" unicode="&#x16c;" horiz-adv-x="507" 
d="M60 247v503h98v-502c0 -19 1 -48 5 -70c9 -47 34 -93 88 -93h5c54 0 79 46 88 93c4 22 5 51 5 70v502h98v-503c0 -28 -2 -61 -7 -89c-17 -95 -75 -168 -184 -168h-5c-109 0 -167 73 -184 168c-5 28 -7 61 -7 89zM253 803c-76 0 -131 52 -138 157h60
c9 -70 39 -100 78 -100s69 30 78 100h60c-7 -105 -62 -157 -138 -157z" />
    <glyph glyph-name="ubreve" unicode="&#x16d;" horiz-adv-x="471" 
d="M226 79c43 0 69 35 80 75c5 20 9 42 9 80v326h95v-560h-60l-10 88c-27 -68 -78 -98 -135 -98c-82 0 -127 58 -141 137c-5 26 -6 54 -6 91v342h95v-344c0 -17 1 -39 4 -57c6 -39 23 -80 69 -80zM235 623c-76 0 -131 52 -138 157h60c9 -70 39 -100 78 -100s69 30 78 100h60
c-7 -105 -62 -157 -138 -157z" />
    <glyph glyph-name="Uring" unicode="&#x16e;" horiz-adv-x="507" 
d="M60 247v503h98v-502c0 -19 1 -48 5 -70c9 -47 34 -93 88 -93h5c54 0 79 46 88 93c4 22 5 51 5 70v502h98v-503c0 -28 -2 -61 -7 -89c-17 -95 -75 -168 -184 -168h-5c-109 0 -167 73 -184 168c-5 28 -7 61 -7 89zM307 904c0 42 -23 70 -54 70s-54 -28 -54 -70
s23 -70 54 -70s54 28 54 70zM351 904c0 -63 -42 -110 -98 -110s-98 47 -98 110s42 110 98 110s98 -47 98 -110z" />
    <glyph glyph-name="uring" unicode="&#x16f;" horiz-adv-x="471" 
d="M226 79c43 0 69 35 80 75c5 20 9 42 9 80v326h95v-560h-60l-10 88c-27 -68 -78 -98 -135 -98c-82 0 -127 58 -141 137c-5 26 -6 54 -6 91v342h95v-344c0 -17 1 -39 4 -57c6 -39 23 -80 69 -80zM289 724c0 42 -23 70 -54 70s-54 -28 -54 -70s23 -70 54 -70s54 28 54 70z
M333 724c0 -63 -42 -110 -98 -110s-98 47 -98 110s42 110 98 110s98 -47 98 -110z" />
    <glyph glyph-name="Uhungarumlaut" unicode="&#x170;" horiz-adv-x="507" 
d="M60 247v503h98v-502c0 -19 1 -48 5 -70c9 -47 34 -93 88 -93h5c54 0 79 46 88 93c4 22 5 51 5 70v502h98v-503c0 -28 -2 -61 -7 -89c-17 -95 -75 -168 -184 -168h-5c-109 0 -167 73 -184 168c-5 28 -7 61 -7 89zM114 807l79 167h100v-3l-116 -164h-63zM284 807l79 167
h100v-3l-116 -164h-63z" />
    <glyph glyph-name="uhungarumlaut" unicode="&#x171;" horiz-adv-x="471" 
d="M226 79c43 0 69 35 80 75c5 20 9 42 9 80v326h95v-560h-60l-10 88c-27 -68 -78 -98 -135 -98c-82 0 -127 58 -141 137c-5 26 -6 54 -6 91v342h95v-344c0 -17 1 -39 4 -57c6 -39 23 -80 69 -80zM98 627l79 167h100v-3l-116 -164h-63zM268 627l79 167h100v-3l-116 -164h-63
z" />
    <glyph glyph-name="Uogonek" unicode="&#x172;" horiz-adv-x="507" 
d="M60 247v503h98v-502c0 -19 1 -48 5 -70c9 -47 34 -93 88 -93h5c54 0 79 46 88 93c4 22 5 51 5 70v502h98v-503c0 -28 -2 -61 -7 -89c-9 -48 -27 -91 -58 -121c-61 -60 -139 -100 -139 -165c0 -32 19 -51 51 -51c18 0 34 6 51 16l17 -40c-22 -15 -50 -26 -78 -26
c-52 0 -99 28 -99 92c0 49 27 90 74 127h-8c-109 0 -167 73 -184 168c-5 28 -7 61 -7 89z" />
    <glyph glyph-name="uogonek" unicode="&#x173;" horiz-adv-x="471" 
d="M226 79c43 0 69 35 80 75c5 20 9 42 9 80v326h95v-560c-60 -49 -87 -91 -87 -128c0 -32 19 -51 51 -51c18 0 34 6 51 16l17 -40c-22 -15 -50 -26 -78 -26c-52 0 -99 28 -99 92c0 53 32 97 85 136l-10 89c-27 -68 -78 -98 -135 -98c-82 0 -127 58 -141 137
c-5 26 -6 54 -6 91v342h95v-344c0 -17 1 -39 4 -57c6 -39 23 -80 69 -80z" />
    <glyph glyph-name="Wcircumflex" unicode="&#x174;" horiz-adv-x="681" 
d="M342 569h-3l-86 -569h-125l-114 750h102l76 -602h3l88 602h115l88 -602h3l76 602h102l-114 -750h-125zM301 989h78l109 -181h-70l-78 121l-78 -121h-70z" />
    <glyph glyph-name="wcircumflex" unicode="&#x175;" horiz-adv-x="577" 
d="M244 560h89l74 -418h3l66 418h94l-106 -560h-101l-73 405h-3l-73 -405h-101l-106 560h94l66 -418h3zM249 809h78l109 -181h-70l-78 121l-78 -121h-70z" />
    <glyph glyph-name="Ycircumflex" unicode="&#x176;" horiz-adv-x="440" 
d="M220 436l120 314h105l-176 -422v-328h-98v328l-176 422h105zM181 989h78l109 -181h-70l-78 121l-78 -121h-70z" />
    <glyph glyph-name="ycircumflex" unicode="&#x177;" horiz-adv-x="396" 
d="M48 -127c41 0 72 21 90 87l19 69l-149 531h95l99 -386h3l94 386h95l-158 -582c-37 -134 -89 -194 -171 -194c-27 0 -45 4 -63 9v86c13 -3 28 -6 46 -6zM164 809h78l109 -181h-70l-78 121l-78 -121h-70z" />
    <glyph glyph-name="Ydieresis" unicode="&#x178;" horiz-adv-x="440" 
d="M220 436l120 314h105l-176 -422v-328h-98v328l-176 422h105zM180 824h-94v100h94v-100zM354 824h-94v100h94v-100z" />
    <glyph glyph-name="Zacute" unicode="&#x179;" horiz-adv-x="454" 
d="M40 655v95h376v-87l-275 -568h280v-95h-391v88l275 567h-265zM162 807l82 167h104v-7l-122 -160h-64z" />
    <glyph glyph-name="zacute" unicode="&#x17a;" horiz-adv-x="396" 
d="M370 0h-343v77l224 395h-215v88h322v-79l-222 -393h234v-88zM141 627l82 167h104v-7l-122 -160h-64z" />
    <glyph glyph-name="Zdotaccent" unicode="&#x17b;" horiz-adv-x="454" 
d="M40 655v95h376v-87l-275 -568h280v-95h-391v88l275 567h-265zM280 823h-101v104h101v-104z" />
    <glyph glyph-name="zdotaccent" unicode="&#x17c;" horiz-adv-x="396" 
d="M370 0h-343v77l224 395h-215v88h322v-79l-222 -393h234v-88zM251 643h-101v104h101v-104z" />
    <glyph glyph-name="Zcaron" unicode="&#x17d;" horiz-adv-x="454" 
d="M40 655v95h376v-87l-275 -568h280v-95h-391v88l275 567h-265zM377 989l-110 -181h-78l-110 181h71l78 -120l78 120h71z" />
    <glyph glyph-name="zcaron" unicode="&#x17e;" horiz-adv-x="396" 
d="M370 0h-343v77l224 395h-215v88h322v-79l-222 -393h234v-88zM348 809l-110 -181h-78l-110 181h71l78 -120l78 120h71z" />
    <glyph glyph-name="longs" unicode="&#x17f;" horiz-adv-x="247" 
d="M175 603v-603h-95v472h-68v88h68v46c0 130 65 190 162 190c17 0 31 -1 45 -3v-89c-12 2 -21 3 -33 3c-54 0 -79 -27 -79 -104z" />
    <glyph glyph-name="florin" unicode="&#x192;" horiz-adv-x="490" 
d="M450 750v-750h-410v750h410zM415 688l-150 -312l150 -314v626zM225 376l-150 311v-625zM390 714h-290l145 -302zM100 36h290l-145 302z" />
    <glyph glyph-name="dotlessj" unicode="&#x237;" horiz-adv-x="220" 
d="M65 -44v604h94v-607c0 -130 -64 -190 -162 -190c-19 0 -32 1 -44 2v89c8 -1 19 -2 33 -2c54 0 79 27 79 104z" />
    <glyph glyph-name="circumflex" unicode="&#x2c6;" horiz-adv-x="438" 
d="M180 839h78l109 -181h-70l-78 121l-78 -121h-70z" />
    <glyph glyph-name="caron" unicode="&#x2c7;" horiz-adv-x="438" 
d="M368 839l-110 -181h-78l-110 181h71l78 -120l78 120h71z" />
    <glyph glyph-name="breve" unicode="&#x2d8;" horiz-adv-x="438" 
d="M219 653c-76 0 -131 52 -138 157h60c9 -70 39 -100 78 -100s69 30 78 100h60c-7 -105 -62 -157 -138 -157z" />
    <glyph glyph-name="dotaccent" unicode="&#x2d9;" horiz-adv-x="438" 
d="M270 673h-101v104h101v-104z" />
    <glyph glyph-name="ring" unicode="&#x2da;" horiz-adv-x="438" 
d="M273 754c0 42 -23 70 -54 70s-54 -28 -54 -70s23 -70 54 -70s54 28 54 70zM317 754c0 -63 -42 -110 -98 -110s-98 47 -98 110s42 110 98 110s98 -47 98 -110z" />
    <glyph glyph-name="ogonek" unicode="&#x2db;" horiz-adv-x="438" 
d="M248 18l31 -18c-60 -49 -87 -91 -87 -128c0 -32 19 -51 51 -51c18 0 34 6 51 16l17 -40c-22 -15 -50 -26 -78 -26c-52 0 -99 28 -99 92c0 61 44 112 114 155z" />
    <glyph glyph-name="tilde" unicode="&#x2dc;" horiz-adv-x="438" 
d="M107 669h-50c7 77 40 130 96 130c27 0 50 -12 72 -35c33 -34 43 -43 65 -43c18 0 35 17 41 65h50c-6 -78 -40 -131 -96 -131c-27 0 -50 12 -72 35c-33 35 -43 43 -64 43c-19 0 -36 -16 -42 -64z" />
    <glyph glyph-name="hungarumlaut" unicode="&#x2dd;" horiz-adv-x="438" 
d="M85 657l79 167h100v-3l-116 -164h-63zM255 657l79 167h100v-3l-116 -164h-63z" />
    <glyph glyph-name="Delta" unicode="&#x394;" horiz-adv-x="490" 
d="M450 750v-750h-410v750h410zM415 688l-150 -312l150 -314v626zM225 376l-150 311v-625zM390 714h-290l145 -302zM100 36h290l-145 302z" />
    <glyph glyph-name="Delta" unicode="&#x2206;" horiz-adv-x="490" 
d="M450 750v-750h-410v750h410zM415 688l-150 -312l150 -314v626zM225 376l-150 311v-625zM390 714h-290l145 -302zM100 36h290l-145 302z" />
    <glyph glyph-name="Omega" unicode="&#x3a9;" horiz-adv-x="490" 
d="M450 750v-750h-410v750h410zM415 688l-150 -312l150 -314v626zM225 376l-150 311v-625zM390 714h-290l145 -302zM100 36h290l-145 302z" />
    <glyph glyph-name="Omega" unicode="&#x2126;" horiz-adv-x="490" 
d="M450 750v-750h-410v750h410zM415 688l-150 -312l150 -314v626zM225 376l-150 311v-625zM390 714h-290l145 -302zM100 36h290l-145 302z" />
    <glyph glyph-name="pi" unicode="&#x3c0;" horiz-adv-x="490" 
d="M450 750v-750h-410v750h410zM415 688l-150 -312l150 -314v626zM225 376l-150 311v-625zM390 714h-290l145 -302zM100 36h290l-145 302z" />
    <glyph glyph-name="endash" unicode="&#x2013;" horiz-adv-x="451" 
d="M418 350h-385v78h385v-78z" />
    <glyph glyph-name="emdash" unicode="&#x2014;" horiz-adv-x="543" 
d="M510 350h-477v78h477v-78z" />
    <glyph glyph-name="quoteleft" unicode="&#x2018;" horiz-adv-x="193" 
d="M114 625h41v-136h-119v127c0 79 29 155 127 174v-38c-58 -23 -70 -66 -70 -106c0 -17 8 -21 21 -21z" />
    <glyph glyph-name="quotesinglbase" unicode="&#x201a;" horiz-adv-x="188" 
d="M77 0h-41v136h119v-127c0 -79 -29 -155 -127 -174v38c58 23 70 66 70 106c0 17 -8 21 -21 21z" />
    <glyph glyph-name="quotedblleft" unicode="&#x201c;" horiz-adv-x="385" 
d="M114 625h41v-136h-119v127c0 79 29 155 127 174v-38c-58 -23 -70 -66 -70 -106c0 -17 8 -21 21 -21zM306 625h41v-136h-119v127c0 79 29 155 127 174v-38c-58 -23 -70 -66 -70 -106c0 -17 8 -21 21 -21z" />
    <glyph glyph-name="quotedblright" unicode="&#x201d;" horiz-adv-x="380" 
d="M274 654h-41v136h119v-127c0 -79 -29 -155 -127 -174v38c58 23 70 66 70 106c0 17 -8 21 -21 21zM82 654h-41v136h119v-127c0 -79 -29 -155 -127 -174v38c58 23 70 66 70 106c0 17 -8 21 -21 21z" />
    <glyph glyph-name="quotedblbase" unicode="&#x201e;" horiz-adv-x="380" 
d="M269 0h-41v136h119v-127c0 -79 -29 -155 -127 -174v38c58 23 70 66 70 106c0 17 -8 21 -21 21zM77 0h-41v136h119v-127c0 -79 -29 -155 -127 -174v38c58 23 70 66 70 106c0 17 -8 21 -21 21z" />
    <glyph glyph-name="dagger" unicode="&#x2020;" horiz-adv-x="394" 
d="M228 471v-640h-62v640h-138v54h138v225h62v-225h138v-54h-138z" />
    <glyph glyph-name="daggerdbl" unicode="&#x2021;" horiz-adv-x="404" 
d="M33 110h138v361h-138v54h138v225h62v-225h138v-54h-138v-361h138v-54h-138v-225h-62v225h-138v54z" />
    <glyph glyph-name="bullet" unicode="&#x2022;" horiz-adv-x="258" 
d="M210 316h-162v194h162v-194z" />
    <glyph glyph-name="ellipsis" unicode="&#x2026;" horiz-adv-x="608" 
d="M151 0h-114v136h114v-136zM361 0h-114v136h114v-136zM571 0h-114v136h114v-136z" />
    <glyph glyph-name="perthousand" unicode="&#x2030;" horiz-adv-x="804" 
d="M138 704c-26 0 -49 -23 -49 -87v-32c0 -62 23 -86 49 -86s49 24 49 86v32c0 64 -23 87 -49 87zM138 442c-63 0 -110 50 -110 146v27c0 97 47 145 110 145s110 -48 110 -145v-27c0 -96 -47 -146 -110 -146zM378 750h60l-276 -750h-60zM401 252c-26 0 -49 -23 -49 -87v-32
c0 -62 23 -86 49 -86s49 24 49 86v32c0 64 -23 87 -49 87zM401 -10c-63 0 -110 50 -110 146v27c0 97 47 145 110 145s110 -48 110 -145v-27c0 -96 -47 -146 -110 -146zM666 252c-26 0 -49 -23 -49 -87v-32c0 -62 23 -86 49 -86s49 24 49 86v32c0 64 -23 87 -49 87zM666 -10
c-63 0 -110 50 -110 146v27c0 97 47 145 110 145s110 -48 110 -145v-27c0 -96 -47 -146 -110 -146z" />
    <glyph glyph-name="guilsinglleft" unicode="&#x2039;" horiz-adv-x="237" 
d="M199 58l-179 253l179 253v-116l-98 -137l98 -137v-116z" />
    <glyph glyph-name="guilsinglright" unicode="&#x203a;" horiz-adv-x="237" 
d="M217 311l-179 -253v116l98 137l-98 137v116z" />
    <glyph glyph-name="fraction" unicode="&#x2044;" horiz-adv-x="254" 
d="M-82 -110l352 953l66 -23l-352 -953z" />
    <glyph glyph-name="Euro" unicode="&#x20ac;" horiz-adv-x="506" 
d="M110 199v62h-89l13 57h76l-2 101h-87l13 57h76v75c0 138 85 209 181 209c93 0 176 -58 183 -202h-90c-9 91 -50 117 -92 117c-46 0 -91 -25 -91 -127v-72h172l-16 -57h-158l2 -101h131l-14 -57h-117v-59c0 -102 45 -127 91 -127c42 0 83 26 92 117h90
c-7 -144 -90 -202 -183 -202c-96 0 -181 71 -181 209z" />
    <glyph glyph-name="uni2120" unicode="&#x2120;" horiz-adv-x="486" 
d="M323 525l-63 171v-239h-34v293h51l61 -176l62 176h51v-293h-34v238l-63 -170h-31zM180 675h-33c-2 31 -16 48 -42 48c-29 0 -39 -20 -39 -42c0 -28 16 -44 38 -54l16 -8c34 -17 62 -41 62 -89s-33 -78 -77 -78c-47 0 -76 35 -81 80h33c4 -31 24 -49 48 -49
c23 0 42 12 42 46c0 30 -18 47 -46 61l-15 8c-30 16 -55 35 -55 83c0 47 32 73 74 73c41 0 73 -26 75 -79z" />
    <glyph glyph-name="trademark" unicode="&#x2122;" horiz-adv-x="482" 
d="M18 750h167v-34h-65v-259h-36v259h-66v34zM319 525l-63 171v-239h-34v293h51l61 -176l62 176h51v-293h-34v238l-63 -170h-31z" />
    <glyph glyph-name="partialdiff" unicode="&#x2202;" horiz-adv-x="490" 
d="M450 750v-750h-410v750h410zM415 688l-150 -312l150 -314v626zM225 376l-150 311v-625zM390 714h-290l145 -302zM100 36h290l-145 302z" />
    <glyph glyph-name="product" unicode="&#x220f;" horiz-adv-x="490" 
d="M450 750v-750h-410v750h410zM415 688l-150 -312l150 -314v626zM225 376l-150 311v-625zM390 714h-290l145 -302zM100 36h290l-145 302z" />
    <glyph glyph-name="summation" unicode="&#x2211;" horiz-adv-x="490" 
d="M450 750v-750h-410v750h410zM415 688l-150 -312l150 -314v626zM225 376l-150 311v-625zM390 714h-290l145 -302zM100 36h290l-145 302z" />
    <glyph glyph-name="minus" unicode="&#x2212;" horiz-adv-x="457" 
d="M422 261h-387v78h387v-78z" />
    <glyph glyph-name="radical" unicode="&#x221a;" horiz-adv-x="490" 
d="M450 750v-750h-410v750h410zM415 688l-150 -312l150 -314v626zM225 376l-150 311v-625zM390 714h-290l145 -302zM100 36h290l-145 302z" />
    <glyph glyph-name="infinity" unicode="&#x221e;" horiz-adv-x="490" 
d="M450 750v-750h-410v750h410zM415 688l-150 -312l150 -314v626zM225 376l-150 311v-625zM390 714h-290l145 -302zM100 36h290l-145 302z" />
    <glyph glyph-name="integral" unicode="&#x222b;" horiz-adv-x="490" 
d="M450 750v-750h-410v750h410zM415 688l-150 -312l150 -314v626zM225 376l-150 311v-625zM390 714h-290l145 -302zM100 36h290l-145 302z" />
    <glyph glyph-name="approxequal" unicode="&#x2248;" horiz-adv-x="490" 
d="M450 750v-750h-410v750h410zM415 688l-150 -312l150 -314v626zM225 376l-150 311v-625zM390 714h-290l145 -302zM100 36h290l-145 302z" />
    <glyph glyph-name="notequal" unicode="&#x2260;" horiz-adv-x="458" 
d="M140 0h-67l62 151h-95v79h127l58 141h-185v79h217l62 151h67l-62 -151h94v-79h-126l-58 -141h184v-79h-216z" />
    <glyph glyph-name="lessequal" unicode="&#x2264;" horiz-adv-x="461" 
d="M416 -1h-371v78h371v-78zM416 142l-368 223v87l368 223v-93l-305 -173l305 -174v-93z" />
    <glyph glyph-name="greaterequal" unicode="&#x2265;" horiz-adv-x="461" 
d="M416 -1h-371v78h371v-78zM413 365l-368 -223v93l305 174l-305 173v93l368 -223v-87z" />
    <glyph glyph-name="lozenge" unicode="&#x25ca;" horiz-adv-x="490" 
d="M450 750v-750h-410v750h410zM415 688l-150 -312l150 -314v626zM225 376l-150 311v-625zM390 714h-290l145 -302zM100 36h290l-145 302z" />
    <glyph glyph-name="commaaccentlow" horiz-adv-x="400" 
d="M184 -151h-33v101h95v-94c0 -63 -23 -124 -101 -139v30c46 19 56 53 56 85c0 14 -7 17 -17 17z" />
    <glyph glyph-name="commaacaron" horiz-adv-x="400" 
d="M186 684h-33v101h95v-94c0 -63 -23 -124 -101 -139v30c46 19 56 53 56 85c0 14 -7 17 -17 17z" />
    <glyph glyph-name="apple" horiz-adv-x="250" 
 />
    <glyph glyph-name="registered.001" horiz-adv-x="774" 
d="M48 375c0 213 116 385 339 385s339 -172 339 -385s-116 -385 -339 -385s-339 172 -339 385zM93 375c0 -189 95 -343 294 -343s294 154 294 343s-95 343 -294 343s-294 -154 -294 -343zM505 292l6 -82c2 -26 6 -44 19 -56v-4h-63c-10 12 -14 34 -15 54l-6 86
c-2 32 -13 50 -32 56c-7 2 -14 3 -29 3h-46v-199h-57v450h94c16 0 30 -1 40 -3c58 -10 93 -48 93 -116c0 -44 -15 -82 -61 -103v-1c43 -16 54 -40 57 -85zM383 543h-44v-139h45c12 0 19 1 25 3c26 7 41 32 41 71c0 40 -15 58 -41 63c-6 1 -14 2 -26 2z" />
    <glyph glyph-name="regsound" horiz-adv-x="774" 
d="M48 375c0 213 116 385 339 385s339 -172 339 -385s-116 -385 -339 -385s-339 172 -339 385zM93 375c0 -189 95 -343 294 -343s294 154 294 343s-95 343 -294 343s-294 -154 -294 -343zM340 369h52c10 0 21 1 29 4c30 11 49 41 49 78c0 34 -15 68 -48 80c-8 3 -18 4 -28 4
h-54v-166zM393 312h-53v-170h-57v450h109c17 0 33 -2 45 -5c59 -15 90 -69 90 -136c0 -63 -31 -118 -95 -135c-11 -3 -25 -4 -39 -4z" />
    <glyph glyph-name="exclam" unicode="!" horiz-adv-x="216" 
d="M148 236h-80l-13 514h106zM162 0h-108v123h108v-123z" />
    <glyph glyph-name="_0000" horiz-adv-x="500" 
 />
    <glyph glyph-name="quotedbl" unicode="&#x22;" horiz-adv-x="325" 
d="M38 750h97l-19 -259h-78v259zM206 750h97l-19 -259h-78v259z" />
    <glyph glyph-name="j" unicode="j" horiz-adv-x="220" 
d="M62 657v108h99v-108h-99zM64 -44v604h95v-607c0 -130 -64 -190 -162 -190c-19 0 -32 1 -44 2v89c8 -1 19 -2 33 -2c54 0 78 27 78 104z" />
    <glyph glyph-name="quoteright" unicode="&#x2019;" horiz-adv-x="188" 
d="M82 654h-41v136h119v-127c0 -79 -29 -155 -127 -174v38c58 23 70 66 70 106c0 17 -8 21 -21 21z" />
    </font>
</defs>
</svg>
