<?xml version="1.0" standalone="no"?>
<!DOCTYPE svg PUBLIC "-//W3C//DTD SVG 1.1//EN" "http://www.w3.org/Graphics/SVG/1.1/DTD/svg11.dtd" >
<svg xmlns="http://www.w3.org/2000/svg" width="100%" height="100%">
<metadata>
Created by FontXChange 20110222 at Tue Sep 27 23:25:23 2011
 By James Beall
Copyright (c) 2011 by GM. All rights reserved.
</metadata>
<defs>
<font id="Louis-CondensedDemi" horiz-adv-x="438" >
  <font-face 
    font-family="Louis"
    font-weight="500"
    font-stretch="normal"
    units-per-em="1000"
    panose-1="2 0 0 0 0 0 0 0 0 0"
    ascent="750"
    descent="-250"
    x-height="560"
    cap-height="750"
    bbox="-82 -284 780 1026"
    underline-thickness="50"
    underline-position="-50"
    stemh="113"
    stemv="115"
    unicode-range="U+0020-FB02"
  />
<missing-glyph horiz-adv-x="496" 
d="M456 750v-750h-416v750h416zM221 374l-133 279v-561zM275 374l133 -282v561zM118 700l130 -272l130 272h-260zM248 319l-128 -269h256z" />
    <glyph glyph-name="fi" unicode="fi" horiz-adv-x="479" 
d="M188 461c0 0 1 -33 1 -58v-403h-111v461h-66v99h66v43c0 132 66 193 166 193c29 0 54 -3 73 -6v-106c-21 3 -41 6 -62 6c-45 0 -66 -23 -66 -90v-40h229v-560h-111v461h-119z" />
    <glyph glyph-name="fl" unicode="fl" horiz-adv-x="500" 
d="M265 691c-55 0 -76 -23 -76 -90v-41h95v-103h-96s1 -33 1 -58v-399h-111v457h-66v103h66v43c0 132 66 193 186 193c44 0 118 -5 175 -11v-785h-111v688c-26 2 -47 3 -63 3z" />
    <glyph glyph-name=".notdef" horiz-adv-x="496" 
d="M456 750v-750h-416v750h416zM221 374l-133 279v-561zM275 374l133 -282v561zM118 700l130 -272l130 272h-260zM248 319l-128 -269h256z" />
    <glyph glyph-name="space" unicode=" " horiz-adv-x="175" 
 />
    <glyph glyph-name="exclam" unicode="!" horiz-adv-x="232" 
d="M165 236h-98l-12 514h122zM178 0h-124v134h124v-134z" />
    <glyph glyph-name="quotedbl" unicode="&#x22;" horiz-adv-x="335" 
d="M38 750h114l-17 -268h-97v268zM200 750h113l-16 -268h-97v268z" />
    <glyph glyph-name="numbersign" unicode="#" horiz-adv-x="466" 
d="M112 439h-79v73h84l15 188h88l-15 -188h80l14 188h88l-14 -188h73v-73h-79l-14 -178h80v-73h-85l-15 -188h-88l15 188h-80l-14 -188h-88l14 188h-72v73h78zM265 261l14 178h-79l-14 -178h79z" />
    <glyph glyph-name="dollar" unicode="$" horiz-adv-x="445" 
d="M407 518h-107c0 48 -14 85 -43 100v-192l5 -2c86 -39 151 -93 151 -203c0 -106 -65 -178 -156 -191v-100h-60v99c-105 13 -162 100 -165 207h108c1 -52 24 -92 57 -107v215l-14 7c-76 37 -136 78 -136 191c0 104 62 167 150 177v91h60v-91c90 -13 154 -79 150 -201z
M306 223c0 39 -19 66 -49 88v-181c29 13 49 45 49 93zM154 543c0 -40 16 -66 43 -85v163c-31 -12 -43 -45 -43 -78z" />
    <glyph glyph-name="percent" unicode="%" horiz-adv-x="563" 
d="M185 0h-78l277 750h78zM144 690c-23 0 -41 -20 -41 -78v-22c0 -57 18 -78 41 -78s41 21 41 78v22c0 58 -18 78 -41 78zM144 442c-67 0 -116 51 -116 150v18c0 100 49 150 116 150s116 -50 116 -150v-18c0 -99 -49 -150 -116 -150zM419 238c-23 0 -41 -20 -41 -78v-22
c0 -57 18 -78 41 -78s41 21 41 78v22c0 58 -18 78 -41 78zM419 -10c-67 0 -116 51 -116 150v18c0 100 49 150 116 150s116 -50 116 -150v-18c0 -99 -49 -150 -116 -150z" />
    <glyph glyph-name="ampersand" unicode="&#x26;" horiz-adv-x="504" 
d="M267 380l79 -123c9 36 15 78 17 111h105c-4 -67 -19 -145 -51 -221l92 -139v-8h-123l-34 52c-33 -39 -76 -61 -131 -61c-108 0 -191 80 -191 214c0 94 50 157 102 200c-35 49 -61 101 -61 172c0 123 76 183 155 183c93 0 158 -65 158 -169c0 -72 -38 -147 -117 -211z
M222 90c34 0 60 17 77 48l-115 179c-24 -26 -43 -58 -43 -112c0 -74 34 -115 81 -115zM180 581c0 -41 15 -79 37 -117c40 33 58 76 58 124c0 38 -15 71 -46 71c-34 0 -49 -33 -49 -78z" />
    <glyph glyph-name="quotesingle" unicode="'" horiz-adv-x="171" 
d="M38 750h111l-17 -268h-94v268z" />
    <glyph glyph-name="parenleft" unicode="(" horiz-adv-x="285" 
d="M51 335c0 166 34 338 138 516h98c-87 -168 -123 -339 -123 -516s36 -349 123 -517h-98c-104 178 -138 351 -138 517z" />
    <glyph glyph-name="parenright" unicode=")" horiz-adv-x="285" 
d="M234 335c0 -166 -34 -339 -138 -517h-98c87 168 123 340 123 517s-36 348 -123 516h98c104 -178 138 -350 138 -516z" />
    <glyph glyph-name="asterisk" unicode="*" horiz-adv-x="379" 
d="M142 752h95l-8 -135l107 46l29 -88l-124 -31l89 -114l-71 -54l-70 112l-69 -112l-71 54l89 114l-124 31l29 88l107 -46z" />
    <glyph glyph-name="plus" unicode="+" horiz-adv-x="499" 
d="M300 348h171v-96h-171v-232h-101v232h-171v96h171v232h101v-232z" />
    <glyph glyph-name="comma" unicode="," horiz-adv-x="204" 
d="M91 0h-55v141h135v-119c0 -83 -33 -172 -143 -187v52c60 19 74 62 74 101c0 9 -5 12 -11 12z" />
    <glyph glyph-name="hyphen" unicode="-" horiz-adv-x="359" 
d="M331 342h-303v96h303v-96z" />
    <glyph glyph-name="period" unicode="." horiz-adv-x="204" 
d="M167 0h-130v141h130v-141z" />
    <glyph glyph-name="slash" unicode="/" horiz-adv-x="334" 
d="M110 -77h-104l219 881h103z" />
    <glyph glyph-name="zero" unicode="0" horiz-adv-x="488" 
d="M435 517v-284c0 -42 -4 -73 -11 -100c-26 -94 -95 -143 -180 -143s-154 49 -180 143c-7 27 -11 58 -11 100v284c0 42 4 73 11 100c26 94 95 143 180 143s154 -49 180 -143c7 -27 11 -58 11 -100zM320 238v274c0 38 -3 64 -9 82c-12 37 -36 53 -67 53s-55 -16 -67 -53
c-6 -18 -9 -44 -9 -82v-274c0 -38 3 -64 9 -82c12 -37 36 -53 67 -53s55 16 67 53c6 18 9 44 9 82z" />
    <glyph glyph-name="one" unicode="1" horiz-adv-x="322" 
d="M10 462v150l133 138h105v-750h-115v585l-121 -123h-2z" />
    <glyph glyph-name="two" unicode="2" horiz-adv-x="444" 
d="M40 0v45c0 158 70 241 136 312l14 15c52 54 98 103 98 192c0 63 -26 88 -64 88c-40 0 -67 -27 -67 -108v-19h-114v19c0 138 75 216 181 216c100 0 181 -66 181 -196c0 -112 -65 -188 -139 -269l-10 -11c-39 -42 -91 -100 -95 -174h245v-110h-366z" />
    <glyph glyph-name="three" unicode="3" horiz-adv-x="453" 
d="M142 344v102h50c71 0 100 50 100 118c0 66 -30 90 -66 90c-48 0 -71 -37 -71 -103h-114c0 125 75 209 185 209c102 0 180 -67 180 -195c0 -62 -24 -123 -89 -166v-1c77 -42 103 -116 103 -184c0 -137 -85 -224 -197 -224c-121 0 -196 79 -196 217h114
c1 -77 30 -108 82 -108c47 0 82 37 82 123c0 71 -33 122 -113 122h-50z" />
    <glyph glyph-name="four" unicode="4" horiz-adv-x="459" 
d="M231 760h140v-468h78v-103h-78v-189h-111v189h-238v99zM133 292h127v295h-1z" />
    <glyph glyph-name="five" unicode="5" horiz-adv-x="468" 
d="M242 404c-31 0 -60 -23 -76 -58h-108v404h337v-112h-222v-162c25 25 59 37 90 37c80 0 136 -44 155 -137c5 -23 7 -52 7 -90v-57c0 -39 -3 -65 -8 -88c-22 -100 -91 -151 -181 -151c-105 0 -185 85 -186 232h115c0 -82 29 -120 71 -120c32 0 55 14 67 56c5 17 7 41 7 76
v44c0 32 -2 54 -5 70c-9 43 -30 56 -63 56z" />
    <glyph glyph-name="six" unicode="6" horiz-adv-x="479" 
d="M168 251v-13c0 -38 3 -64 9 -82c12 -37 36 -53 67 -53s55 16 67 53c6 18 9 44 9 82v8c0 30 -1 47 -3 62c-8 51 -30 72 -65 72c-45 0 -84 -49 -84 -129zM168 512v-79c29 45 77 55 112 55c67 0 123 -39 145 -130c6 -26 10 -57 10 -102v-23c0 -42 -4 -73 -11 -100
c-26 -94 -95 -143 -180 -143s-154 49 -180 143c-7 27 -11 58 -11 100v284c0 42 4 73 11 100c26 94 95 143 180 143c109 0 178 -82 189 -193h-116c-8 61 -42 80 -73 80s-55 -16 -67 -53c-6 -18 -9 -44 -9 -82z" />
    <glyph glyph-name="seven" unicode="7" horiz-adv-x="406" 
d="M213 0h-121c13 198 93 436 173 640h-249v110h370v-98c-90 -223 -159 -434 -173 -652z" />
    <glyph glyph-name="eight" unicode="8" horiz-adv-x="470" 
d="M235 -10c-119 0 -200 96 -200 223c0 72 33 146 98 186c-56 42 -83 105 -83 166c0 124 77 195 185 195s185 -71 185 -195c0 -61 -27 -124 -83 -166c65 -40 98 -114 98 -186c0 -127 -81 -223 -200 -223zM235 341c-58 0 -85 -60 -85 -120c0 -79 33 -125 85 -125
s85 46 85 125c0 60 -27 120 -85 120zM235 660c-43 0 -71 -36 -71 -98c0 -58 26 -108 71 -108s71 50 71 108c0 62 -28 98 -71 98z" />
    <glyph glyph-name="nine" unicode="9" horiz-adv-x="479" 
d="M311 499v13c0 38 -3 64 -9 82c-12 37 -36 53 -67 53s-55 -16 -67 -53c-6 -18 -9 -44 -9 -82v-8c0 -30 1 -47 3 -62c8 -51 30 -72 65 -72c45 0 84 49 84 129zM311 238v79c-29 -45 -77 -55 -112 -55c-67 0 -123 39 -145 130c-6 26 -10 57 -10 102v23c0 42 4 73 11 100
c26 94 95 143 180 143s154 -49 180 -143c7 -27 11 -58 11 -100v-284c0 -42 -4 -73 -11 -100c-26 -94 -95 -143 -180 -143c-109 0 -178 82 -189 193h116c8 -61 42 -80 73 -80s55 16 67 53c6 18 9 44 9 82z" />
    <glyph glyph-name="colon" unicode=":" horiz-adv-x="231" 
d="M180 0h-130v141h130v-141zM180 408h-130v141h130v-141z" />
    <glyph glyph-name="semicolon" unicode=";" horiz-adv-x="231" 
d="M183 408h-130v141h130v-141zM107 0h-55v141h135v-119c0 -83 -33 -172 -143 -187v52c60 19 74 62 74 101c0 9 -5 12 -11 12z" />
    <glyph glyph-name="less" unicode="&#x3c;" 
d="M402 25l-366 226v98l366 226v-113l-273 -162l273 -162v-113z" />
    <glyph glyph-name="equal" unicode="=" horiz-adv-x="450" 
d="M410 358h-370v96h370v-96zM410 146h-370v96h370v-96z" />
    <glyph glyph-name="greater" unicode="&#x3e;" 
d="M36 575l366 -226v-98l-366 -226v113l273 162l-273 162v113z" />
    <glyph glyph-name="question" unicode="?" horiz-adv-x="398" 
d="M238 236h-106c-1 14 -2 27 -2 40c0 98 42 148 79 191c27 31 50 64 50 115c0 48 -26 75 -62 75c-42 0 -66 -42 -66 -103v-19h-109v19c0 128 74 206 174 206c104 0 175 -63 175 -174c0 -79 -36 -127 -71 -167c-36 -42 -71 -83 -62 -183zM249 0h-124v134h124v-134z" />
    <glyph glyph-name="at" unicode="@" horiz-adv-x="735" 
d="M319 345l-10 -104c-4 -45 -7 -116 36 -116c35 0 69 63 75 119l10 97c7 62 -5 123 -45 123c-36 0 -58 -34 -66 -119zM332 34c-103 0 -134 103 -123 203l12 109c15 140 73 210 158 210c38 0 69 -21 86 -56l12 43h73l-38 -359c-5 -46 -8 -89 14 -92c47 -6 92 166 95 300
c5 223 -79 295 -218 295h-16c-124 0 -227 -111 -249 -330l-13 -132c-14 -141 27 -313 197 -313h13c58 0 132 23 177 60l21 -59c-48 -36 -129 -63 -201 -63h-14c-205 0 -287 181 -266 375l14 132c29 275 161 393 321 393h16c171 0 288 -91 283 -358
c-4 -183 -63 -371 -170 -362c-37 3 -69 32 -79 76c-27 -50 -68 -72 -105 -72z" />
    <glyph glyph-name="A" unicode="A" horiz-adv-x="466" 
d="M284 329l-50 260h-2l-50 -260h102zM306 750l158 -750h-117l-42 219h-144l-42 -219h-117l158 750h146z" />
    <glyph glyph-name="B" unicode="B" horiz-adv-x="494" 
d="M64 0v750h159c40 0 67 -4 91 -10c82 -22 127 -83 127 -185c0 -66 -27 -125 -85 -161c73 -36 103 -107 103 -176c0 -123 -61 -204 -178 -216c-10 -1 -21 -2 -41 -2h-176zM234 330h-55v-219h61c18 0 29 1 37 3c46 11 66 53 66 106c0 52 -18 90 -60 104c-11 4 -26 6 -49 6z
M227 639h-48v-200h47c21 0 35 2 46 6c36 13 55 47 55 102c0 47 -17 75 -50 86c-11 4 -29 6 -50 6z" />
    <glyph glyph-name="C" unicode="C" horiz-adv-x="481" 
d="M53 248v254c0 28 2 59 7 86c17 97 77 172 189 172h4c112 0 172 -75 189 -172c5 -26 7 -56 7 -83h-115c0 17 -2 40 -5 62c-7 42 -29 82 -76 82h-4c-47 0 -69 -40 -76 -82c-4 -23 -5 -48 -5 -66v-252c0 -18 1 -43 5 -66c7 -42 29 -82 76 -82h4c47 0 69 40 76 82
c3 22 5 47 5 67h115c0 -30 -2 -62 -7 -88c-17 -97 -77 -172 -189 -172h-4c-112 0 -172 75 -189 172c-5 27 -7 58 -7 86z" />
    <glyph glyph-name="D" unicode="D" horiz-adv-x="507" 
d="M339 260v230c0 18 -1 43 -5 66c-5 32 -19 63 -55 76c-11 4 -25 6 -49 6h-51v-526h51c24 0 38 2 49 6c36 13 50 44 55 76c4 23 5 48 5 66zM64 0v750h164c28 0 49 -2 66 -5c94 -18 139 -85 153 -167c5 -27 7 -58 7 -86v-234c0 -28 -2 -59 -7 -86
c-14 -82 -59 -149 -153 -167c-17 -3 -38 -5 -66 -5h-164z" />
    <glyph glyph-name="E" unicode="E" horiz-adv-x="452" 
d="M64 0v750h360v-111h-245v-199h203v-111h-203v-218h245v-111h-360z" />
    <glyph glyph-name="F" unicode="F" horiz-adv-x="447" 
d="M64 0v750h360v-111h-245v-199h203v-111h-203v-329h-115z" />
    <glyph glyph-name="G" unicode="G" horiz-adv-x="504" 
d="M241 -10c-113 0 -170 84 -184 188c-3 23 -4 47 -4 70v254c0 28 2 59 7 86c17 97 77 172 189 172h4c112 0 172 -75 189 -172c5 -26 7 -56 7 -83h-115c0 17 -2 40 -5 62c-7 42 -29 82 -76 82h-4c-47 0 -69 -40 -76 -82c-4 -23 -5 -48 -5 -66v-252c0 -18 1 -43 5 -66
c7 -42 29 -82 76 -82h4c49 0 71 40 78 82c3 22 5 47 5 67v26h-100v107h213v-383h-67l-16 67c-30 -53 -71 -77 -125 -77z" />
    <glyph glyph-name="H" unicode="H" horiz-adv-x="533" 
d="M64 0v750h115v-303h175v303h115v-750h-115v334h-175v-334h-115z" />
    <glyph glyph-name="I" unicode="I" horiz-adv-x="243" 
d="M64 0v750h115v-750h-115z" />
    <glyph glyph-name="J" unicode="J" horiz-adv-x="447" 
d="M148 276v-60c0 -22 2 -37 4 -50c6 -39 27 -65 58 -65c30 0 51 22 58 63c2 12 4 28 4 52v534h115v-534c0 -25 -1 -41 -3 -57c-13 -98 -69 -169 -174 -169c-101 0 -158 63 -173 165c-2 17 -4 34 -4 62v59h115z" />
    <glyph glyph-name="K" unicode="K" horiz-adv-x="494" 
d="M501 0h-126l-141 348l-55 -90v-258h-115v750h115v-306l1 -1s19 35 28 49l153 258h126l-180 -287z" />
    <glyph glyph-name="L" unicode="L" horiz-adv-x="445" 
d="M64 0v750h115v-638h248v-112h-363z" />
    <glyph glyph-name="M" unicode="M" horiz-adv-x="628" 
d="M314 327l122 423h128v-750h-109v425c0 25 1 58 1 58h-1l-98 -344h-86l-98 344h-1s1 -33 1 -58v-425h-109v750h128z" />
    <glyph glyph-name="N" unicode="N" horiz-adv-x="532" 
d="M359 254h1s-1 33 -1 58v438h109v-750h-127l-168 497h-1s1 -33 1 -58v-439h-109v750h127z" />
    <glyph glyph-name="O" unicode="O" horiz-adv-x="502" 
d="M168 501v-252c0 -18 1 -43 5 -66c7 -42 29 -82 76 -82h4c47 0 69 40 76 82c4 23 5 48 5 66v252c0 18 -1 43 -5 66c-7 42 -29 82 -76 82h-4c-47 0 -69 -40 -76 -82c-4 -23 -5 -48 -5 -66zM449 502v-254c0 -28 -2 -59 -7 -86c-17 -97 -77 -172 -189 -172h-4
c-112 0 -172 75 -189 172c-5 27 -7 58 -7 86v254c0 28 2 59 7 86c17 97 77 172 189 172h4c112 0 172 -75 189 -172c5 -27 7 -58 7 -86z" />
    <glyph glyph-name="P" unicode="P" horiz-adv-x="490" 
d="M179 399h52c23 0 36 2 47 6c46 16 64 62 64 112c0 46 -15 99 -63 116c-11 4 -23 6 -48 6h-52v-240zM233 287h-54v-287h-115v750h168c32 0 55 -3 75 -8c97 -26 150 -113 150 -225c0 -106 -51 -200 -159 -224c-17 -4 -37 -6 -65 -6z" />
    <glyph glyph-name="Q" unicode="Q" horiz-adv-x="502" 
d="M449 502v-254c0 -28 -2 -59 -7 -86c-9 -51 -30 -96 -64 -127c31 -13 73 -17 121 -18v-102c-110 5 -176 26 -227 76c-6 -1 -13 -1 -19 -1h-4c-112 0 -172 75 -189 172c-5 27 -7 58 -7 86v254c0 28 2 59 7 86c17 97 77 172 189 172h4c112 0 172 -75 189 -172
c5 -27 7 -58 7 -86zM168 501v-252c0 -18 1 -43 5 -66c7 -42 29 -82 76 -82h4c47 0 69 40 76 82c4 23 5 48 5 66v252c0 18 -1 43 -5 66c-7 42 -29 82 -76 82h-4c-47 0 -69 -40 -76 -82c-4 -23 -5 -48 -5 -66z" />
    <glyph glyph-name="R" unicode="R" horiz-adv-x="488" 
d="M435 237l8 -138c3 -44 10 -78 31 -97v-2h-119c-16 22 -23 56 -25 90l-9 132c-4 53 -19 81 -51 91c-11 3 -23 5 -47 5h-44v-318h-115v750h157c26 0 49 -2 67 -5c96 -17 154 -80 154 -194c0 -72 -32 -134 -99 -171v-1c59 -28 87 -68 92 -142zM217 639h-38v-212h41
c20 0 33 1 42 4c44 13 65 56 65 111c0 57 -23 85 -66 93c-10 2 -24 4 -44 4z" />
    <glyph glyph-name="S" unicode="S" horiz-adv-x="470" 
d="M429 534h-115c0 70 -24 120 -77 120c-55 0 -73 -46 -73 -92c0 -60 30 -90 77 -113l35 -17c91 -44 159 -106 159 -228c0 -131 -84 -214 -198 -214c-128 0 -200 102 -203 231h116c2 -74 38 -125 87 -125c48 0 83 39 83 110c0 62 -35 93 -96 124l-31 16
c-80 41 -143 89 -143 215c0 127 80 199 187 199c112 0 197 -75 192 -226z" />
    <glyph glyph-name="T" unicode="T" horiz-adv-x="441" 
d="M12 750h417v-111h-151v-639h-115v639h-151v111z" />
    <glyph glyph-name="U" unicode="U" horiz-adv-x="516" 
d="M175 750v-501c0 -18 1 -43 5 -66c7 -42 29 -82 76 -82h4c47 0 69 40 76 82c4 23 5 48 5 66v501h115v-502c0 -28 -2 -59 -7 -86c-17 -97 -77 -172 -189 -172h-4c-112 0 -172 75 -189 172c-5 27 -7 58 -7 86v502h115z" />
    <glyph glyph-name="V" unicode="V" horiz-adv-x="460" 
d="M119 750l110 -582h2l110 582h117l-158 -750h-140l-158 750h117z" />
    <glyph glyph-name="W" unicode="W" horiz-adv-x="688" 
d="M279 750h130l77 -548h2l66 548h120l-114 -750h-140l-75 519h-2l-75 -519h-140l-114 750h120l66 -548h2z" />
    <glyph glyph-name="X" unicode="X" horiz-adv-x="459" 
d="M126 0h-126l170 391l-152 359h126l86 -228l86 228h126l-152 -359l169 -391h-125l-104 264c-35 -84 -69 -180 -104 -264z" />
    <glyph glyph-name="Y" unicode="Y" horiz-adv-x="455" 
d="M228 462l109 288h123l-175 -423v-327h-115v327l-175 423h123l109 -288h1z" />
    <glyph glyph-name="Z" unicode="Z" horiz-adv-x="464" 
d="M40 639v111h386v-97l-262 -542h267v-111h-401v98l261 541h-251z" />
    <glyph glyph-name="bracketleft" unicode="[" horiz-adv-x="322" 
d="M73 -190v1049h239v-78h-130v-893h130v-78h-239z" />
    <glyph glyph-name="backslash" unicode="\" horiz-adv-x="334" 
d="M328 -77h-104l-218 881h103z" />
    <glyph glyph-name="bracketright" unicode="]" horiz-adv-x="322" 
d="M249 859v-1049h-239v78h130v893h-130v78h239z" />
    <glyph glyph-name="asciicircum" unicode="^" horiz-adv-x="382" 
d="M191 640l-74 -243h-99l122 363h102l122 -363h-99z" />
    <glyph glyph-name="underscore" unicode="_" horiz-adv-x="359" 
d="M361 -143h-363v82h363v-82z" />
    <glyph glyph-name="grave" unicode="`" 
d="M89 832v6h121l88 -181h-82z" />
    <glyph glyph-name="a" unicode="a" horiz-adv-x="443" 
d="M165 410h-109c14 98 76 160 167 160s146 -56 158 -160c2 -20 4 -48 4 -76v-334h-77l-9 65c-27 -50 -67 -75 -117 -75c-79 0 -144 64 -144 186c0 91 48 157 141 172c14 2 30 4 56 4h39v21c0 22 -2 37 -4 48c-7 34 -24 50 -51 50c-28 0 -48 -23 -54 -61zM148 178
c0 -58 18 -90 55 -90c36 0 57 37 66 81c4 20 6 44 6 72v19h-43c-21 0 -33 -2 -42 -6c-27 -12 -42 -39 -42 -76z" />
    <glyph glyph-name="b" unicode="b" horiz-adv-x="463" 
d="M172 324v-104c0 -39 14 -125 71 -125c38 0 55 33 62 69c3 17 4 34 4 59v117c0 11 -1 37 -3 52c-5 35 -20 72 -59 72c-36 0 -57 -32 -67 -68c-5 -18 -8 -38 -8 -72zM420 342v-120c0 -28 -1 -51 -4 -72c-13 -83 -54 -160 -150 -160c-52 0 -98 26 -119 73l-9 -63h-77v785
h111v-217c0 -25 -1 -50 -1 -50h1c24 33 58 52 101 52c82 0 125 -58 140 -137c5 -26 7 -54 7 -91z" />
    <glyph glyph-name="c" unicode="c" horiz-adv-x="425" 
d="M280 162l3 18h110c-3 -34 -11 -65 -18 -82c-26 -65 -77 -108 -156 -108c-100 0 -155 68 -171 164c-3 20 -5 41 -5 73v106c0 32 2 53 5 73c16 96 71 164 171 164c81 0 132 -45 157 -112c10 -28 16 -57 18 -88h-110c-1 10 -2 19 -4 28c-7 42 -27 67 -61 67s-54 -25 -61 -67
c-3 -17 -4 -36 -4 -67v-102c0 -31 1 -50 4 -67c7 -42 27 -67 61 -67s54 25 61 67z" />
    <glyph glyph-name="d" unicode="d" horiz-adv-x="463" 
d="M291 234v105c0 39 -14 125 -71 125c-38 0 -55 -33 -62 -69c-3 -17 -4 -34 -4 -59v-117c0 -11 1 -37 3 -52c5 -35 20 -72 59 -72c36 0 57 32 67 68c5 18 8 43 8 71zM291 578v207h111v-785h-77l-9 73c-24 -55 -67 -83 -119 -83c-100 0 -139 77 -150 160c-3 21 -4 44 -4 72
v120c0 37 3 66 8 91c16 75 57 137 139 137c43 0 77 -16 101 -42h1s-1 25 -1 50z" />
    <glyph glyph-name="e" unicode="e" horiz-adv-x="437" 
d="M219 92c40 0 59 38 62 75h110c-14 -109 -72 -177 -172 -177s-155 68 -171 164c-3 20 -5 41 -5 73v106c0 32 2 53 5 73c16 96 71 164 171 164s155 -68 170 -164c5 -29 6 -51 6 -103v-50h-241v-27c0 -31 1 -50 4 -67c7 -42 27 -67 61 -67zM158 400c-2 -15 -4 -30 -4 -53
h130c0 16 -1 36 -4 53c-7 42 -27 68 -61 68s-54 -26 -61 -68z" />
    <glyph glyph-name="f" unicode="f" horiz-adv-x="295" 
d="M286 457h-98s1 -33 1 -58v-399h-111v457h-66v103h66v43c0 132 66 193 166 193c21 0 40 -2 53 -4v-106c-14 2 -28 4 -42 4c-45 0 -66 -23 -66 -90v-40h97v-103z" />
    <glyph glyph-name="g" unicode="g" horiz-adv-x="463" 
d="M291 246v94c0 39 -14 125 -71 125c-38 0 -55 -33 -62 -69c-3 -17 -4 -34 -4 -59v-107c0 -11 1 -37 3 -52c5 -35 20 -72 59 -72c36 0 57 32 67 68c5 18 8 38 8 72zM43 228v110c0 28 1 51 4 72c13 83 54 160 150 160c52 0 98 -26 119 -73l9 63h77v-569c0 -37 -3 -62 -8 -85
c-21 -88 -81 -144 -168 -144c-90 0 -162 58 -174 175h110c8 -51 35 -73 64 -73c33 0 55 25 62 74c2 12 3 30 3 52v12c0 25 1 50 1 50h-1c-24 -33 -58 -52 -101 -52c-82 0 -125 58 -140 137c-5 26 -7 54 -7 91z" />
    <glyph glyph-name="h" unicode="h" horiz-adv-x="478" 
d="M420 0h-111v340c0 11 -1 37 -3 52c-5 35 -20 72 -59 72c-36 0 -57 -32 -67 -68c-5 -18 -8 -38 -8 -72v-324h-111v785h111v-217c0 -25 -1 -50 -1 -50h1c24 33 58 52 101 52c82 0 125 -58 140 -137c5 -26 7 -54 7 -91v-342z" />
    <glyph glyph-name="i" unicode="i" horiz-adv-x="233" 
d="M61 0v560h111v-560h-111zM59 645v120h115v-120h-115z" />
    <glyph glyph-name="j" unicode="j" horiz-adv-x="236" 
d="M62 645v120h115v-120h-115zM64 -41v601h111v-604c0 -132 -66 -193 -166 -193c-21 0 -40 2 -53 4v106c14 -2 28 -4 42 -4c45 0 66 23 66 90z" />
    <glyph glyph-name="k" unicode="k" 
d="M206 265l-34 -47v-218h-111v785h111v-409l129 184h125l-145 -198l157 -362h-124z" />
    <glyph glyph-name="l" unicode="l" horiz-adv-x="233" 
d="M61 0v785h111v-785h-111z" />
    <glyph glyph-name="m" unicode="m" horiz-adv-x="690" 
d="M402 330v-330h-111v346c0 26 0 48 -4 67c-6 27 -19 51 -49 51c-37 0 -55 -34 -62 -73c-3 -17 -4 -40 -4 -61v-330h-111v560h77l9 -68c24 53 70 78 117 78c60 0 94 -31 114 -75c25 51 72 75 118 75c72 0 109 -43 125 -102c9 -33 11 -72 11 -120v-348h-111v346
c0 26 0 48 -4 67c-6 27 -19 51 -49 51c-37 0 -55 -34 -62 -73c-3 -17 -4 -40 -4 -61z" />
    <glyph glyph-name="n" unicode="n" horiz-adv-x="478" 
d="M273 570c82 0 125 -57 140 -137c5 -26 7 -57 7 -91v-342h-111v340c0 11 -1 37 -3 52c-5 39 -20 72 -59 72c-36 0 -57 -32 -67 -68c-5 -18 -8 -38 -8 -72v-324h-111v560h77l10 -75c24 55 73 85 125 85z" />
    <glyph glyph-name="o" unicode="o" 
d="M154 331v-102c0 -31 1 -50 4 -67c7 -42 27 -67 61 -67s54 25 61 67c3 17 4 36 4 67v102c0 31 -1 50 -4 67c-7 42 -27 67 -61 67s-54 -25 -61 -67c-3 -17 -4 -36 -4 -67zM395 333v-106c0 -32 -2 -53 -5 -73c-16 -96 -71 -164 -171 -164s-155 68 -171 164
c-3 20 -5 41 -5 73v106c0 32 2 53 5 73c16 96 71 164 171 164s155 -68 171 -164c3 -20 5 -41 5 -73z" />
    <glyph glyph-name="p" unicode="p" horiz-adv-x="463" 
d="M172 326v-105c0 -39 14 -125 71 -125c38 0 55 33 62 69c3 17 4 34 4 59v117c0 11 -1 37 -3 52c-5 35 -20 72 -59 72c-36 0 -57 -32 -67 -68c-5 -18 -8 -43 -8 -71zM172 -18v-226h-111v804h77l9 -73c24 55 67 83 119 83c100 0 139 -77 150 -160c3 -21 4 -44 4 -72v-120
c0 -37 -3 -66 -8 -91c-16 -75 -57 -137 -139 -137c-43 0 -77 16 -101 42h-1s1 -25 1 -50z" />
    <glyph glyph-name="q" unicode="q" horiz-adv-x="463" 
d="M291 236v104c0 39 -14 125 -71 125c-38 0 -55 -33 -62 -69c-3 -17 -4 -34 -4 -59v-117c0 -11 1 -37 3 -52c5 -35 20 -72 59 -72c36 0 57 32 67 68c5 18 8 38 8 72zM43 218v120c0 28 1 51 4 72c13 83 54 160 150 160c52 0 98 -26 119 -73l9 63h77v-804h-111v236
c0 25 1 50 1 50h-1c-24 -33 -58 -52 -101 -52c-82 0 -125 58 -140 137c-5 26 -7 54 -7 91z" />
    <glyph glyph-name="r" unicode="r" horiz-adv-x="348" 
d="M267 464c-58 0 -83 -56 -91 -117c-3 -26 -4 -55 -4 -86v-261h-111v560h77l10 -81c26 64 73 91 125 91c22 0 46 -4 64 -10l-2 -112c-21 9 -43 16 -68 16z" />
    <glyph glyph-name="s" unicode="s" horiz-adv-x="393" 
d="M172 247c-91 29 -133 79 -133 166c0 96 60 157 155 157c94 0 152 -52 162 -159h-111c-4 42 -19 65 -51 65c-33 0 -48 -23 -48 -59c0 -43 18 -64 70 -82c75 -26 147 -73 147 -177c0 -105 -62 -168 -161 -168c-104 0 -169 59 -176 177h111c5 -54 24 -82 63 -82
c34 0 54 28 54 72c0 50 -25 72 -82 90z" />
    <glyph glyph-name="t" unicode="t" horiz-adv-x="307" 
d="M189 457v-241c0 -30 2 -49 5 -64c9 -40 27 -51 64 -51c9 0 20 1 29 2v-103c-13 -2 -29 -3 -41 -3c-95 0 -144 38 -161 130c-4 22 -6 53 -6 86v244h-67v103h67v140h110v-140h97v-103h-97z" />
    <glyph glyph-name="u" unicode="u" horiz-adv-x="478" 
d="M205 -10c-82 0 -125 57 -140 137c-5 26 -7 57 -7 91v342h111v-340c0 -11 1 -37 3 -52c5 -39 20 -72 59 -72c36 0 57 32 67 68c5 18 8 38 8 72v324h111v-560h-77l-10 75c-24 -55 -73 -85 -125 -85z" />
    <glyph glyph-name="v" unicode="v" horiz-adv-x="400" 
d="M201 166l81 394h116l-139 -560h-118l-139 560h116l81 -394h2z" />
    <glyph glyph-name="w" unicode="w" horiz-adv-x="583" 
d="M343 560l63 -375h1l58 375h111l-106 -560h-115l-63 363h-1l-63 -363h-115l-106 560h111l58 -375h1l63 375h103z" />
    <glyph glyph-name="x" unicode="x" horiz-adv-x="404" 
d="M15 560h119l68 -162l67 162h120l-132 -267l144 -293h-118l-81 188l-80 -188h-119l144 293z" />
    <glyph glyph-name="y" unicode="y" horiz-adv-x="408" 
d="M57 -110c34 0 59 21 76 81l18 65c-48 170 -101 353 -148 524h116l87 -353h1l83 353h116l-158 -576c-40 -145 -87 -200 -171 -200c-28 0 -51 5 -75 13v102c17 -5 34 -9 55 -9z" />
    <glyph glyph-name="z" unicode="z" horiz-adv-x="404" 
d="M378 0h-351v87l210 368h-201v105h331v-89l-209 -366h220v-105z" />
    <glyph glyph-name="braceleft" unicode="{" horiz-adv-x="353" 
d="M134 334c90 -38 100 -118 90 -199l-13 -114c-10 -87 11 -133 77 -133h55v-78h-68c-131 0 -188 77 -174 210l14 130c5 43 13 139 -65 139h-30v90h30c78 0 70 96 65 139l-14 130c-14 133 43 210 174 210h68v-78h-55c-66 0 -87 -46 -77 -133l13 -114c10 -81 0 -161 -90 -199
z" />
    <glyph glyph-name="bar" unicode="|" horiz-adv-x="300" 
d="M98 -190v1049h104v-1049h-104z" />
    <glyph glyph-name="braceright" unicode="}" horiz-adv-x="353" 
d="M219 334c-90 38 -100 118 -90 199l13 114c10 87 -11 133 -77 133h-55v78h68c131 0 188 -77 174 -210l-14 -130c-5 -43 -13 -139 65 -139h30v-90h-30c-78 0 -70 -96 -65 -139l14 -130c14 -133 -43 -210 -174 -210h-68v78h55c66 0 87 46 77 133l-13 114
c-10 81 0 161 90 199z" />
    <glyph glyph-name="asciitilde" unicode="~" horiz-adv-x="439" 
d="M105 328h-75c5 99 44 168 117 168c31 0 56 -12 82 -40c33 -35 49 -50 67 -50c20 0 34 17 38 74h75c-5 -99 -44 -168 -117 -168c-31 0 -56 12 -82 40c-33 35 -49 50 -67 50c-20 0 -34 -17 -38 -74z" />
    <glyph glyph-name="uni00A0" unicode="&#xa0;" horiz-adv-x="175" 
 />
    <glyph glyph-name="exclamdown" unicode="&#xa1;" horiz-adv-x="232" 
d="M67 324h98l12 -514h-122zM54 560h124v-134h-124v134z" />
    <glyph glyph-name="cent" unicode="&#xa2;" horiz-adv-x="428" 
d="M286 200l3 18h106c-3 -34 -11 -65 -18 -82c-23 -56 -64 -95 -125 -104v-102h-60v102c-82 12 -128 76 -142 162c-3 20 -5 41 -5 73v106c0 32 2 53 5 73c14 86 60 150 142 162v93h60v-94c63 -9 104 -49 126 -107c10 -28 16 -57 18 -88h-106c-1 10 -2 19 -4 28
c-5 28 -16 49 -34 59v-359c18 10 29 31 34 60zM156 200c5 -30 16 -51 36 -61v361c-20 -10 -31 -31 -36 -60c-3 -17 -4 -36 -4 -67v-106c0 -31 1 -50 4 -67z" />
    <glyph glyph-name="sterling" unicode="&#xa3;" horiz-adv-x="468" 
d="M427 553h-107c-4 82 -28 108 -61 108c-38 0 -62 -33 -62 -112v-140h138v-68h-138v-122c0 -71 -17 -100 -44 -118v-2h118c48 1 69 11 72 90h103c0 -155 -60 -189 -173 -189h-235v99c37 3 51 31 51 111v131h-61v68h61v138c0 140 72 213 169 213c93 0 167 -63 169 -207z" />
    <glyph glyph-name="yen" unicode="&#xa5;" horiz-adv-x="480" 
d="M295 0h-110v182h-147v71h147v94h-147v71h129l-147 332h118l102 -255l102 255h118l-147 -332h129v-71h-147v-94h147v-71h-147v-182z" />
    <glyph glyph-name="brokenbar" unicode="&#xa6;" horiz-adv-x="300" 
d="M98 -190v449h104v-449h-104zM98 410v449h104v-449h-104z" />
    <glyph glyph-name="section" unicode="&#xa7;" horiz-adv-x="425" 
d="M226 398l-36 16c-27 -7 -57 -42 -57 -80c0 -45 27 -71 68 -89l43 -19c25 7 49 43 49 82c0 43 -27 73 -67 90zM38 321c0 57 29 102 86 136c-53 37 -71 83 -71 136c0 103 69 157 154 157c87 0 156 -45 162 -158h-101c-5 45 -30 68 -60 68c-32 0 -57 -25 -57 -64
c0 -45 27 -74 76 -96l22 -10c82 -37 138 -82 138 -170c0 -56 -29 -103 -74 -138c43 -34 62 -79 62 -129c0 -115 -69 -172 -160 -172c-98 0 -169 53 -176 173h101c6 -63 35 -84 70 -84c34 0 64 26 64 76c0 52 -28 82 -77 101l-21 9c-116 50 -138 119 -138 165z" />
    <glyph glyph-name="dieresis" unicode="&#xa8;" 
d="M190 674h-110v116h110v-116zM358 674h-110v116h110v-116z" />
    <glyph glyph-name="copyright" unicode="&#xa9;" horiz-adv-x="774" 
d="M48 375c0 213 116 385 339 385s339 -172 339 -385s-116 -385 -339 -385s-339 172 -339 385zM99 375c0 -185 93 -336 288 -336s288 151 288 336s-93 336 -288 336s-288 -151 -288 -336zM255 305v140c0 18 2 38 5 55c11 63 50 112 123 112h12c73 0 112 -49 123 -112
c3 -16 5 -36 5 -54h-75c0 12 -1 26 -3 41c-5 27 -19 53 -50 53h-12c-31 0 -45 -26 -50 -53c-2 -15 -3 -31 -3 -43v-138c0 -12 1 -28 3 -43c5 -27 19 -53 50 -53h12c31 0 45 26 50 53c2 14 3 31 3 44h75c0 -20 -2 -41 -5 -57c-11 -64 -50 -112 -123 -112h-12
c-73 0 -112 48 -123 112c-3 17 -5 37 -5 55z" />
    <glyph glyph-name="ordfeminine" unicode="&#xaa;" horiz-adv-x="273" 
d="M105 664h-66c9 59 46 96 100 96c55 0 88 -34 95 -96c1 -12 3 -29 3 -46v-200h-47l-5 39c-16 -30 -40 -45 -70 -45c-48 0 -87 38 -87 112c0 54 29 94 85 103c8 1 18 2 34 2h23v13c0 13 -1 22 -2 29c-5 20 -15 30 -31 30c-17 0 -29 -14 -32 -37zM94 525
c0 -35 11 -54 33 -54s35 22 40 48c2 12 4 27 4 44v11h-26c-13 0 -20 -1 -25 -4c-17 -7 -26 -23 -26 -45z" />
    <glyph glyph-name="guillemotleft" unicode="&#xab;" horiz-adv-x="436" 
d="M20 310l195 274v-145l-92 -129l92 -129v-145zM203 310l195 274v-145l-92 -129l92 -129v-145z" />
    <glyph glyph-name="logicalnot" unicode="&#xac;" horiz-adv-x="496" 
d="M456 750v-750h-416v750h416zM221 374l-133 279v-561zM275 374l133 -282v561zM118 700l130 -272l130 272h-260zM248 319l-128 -269h256z" />
    <glyph glyph-name="registered" unicode="&#xae;" horiz-adv-x="426" 
d="M36 583c0 111 61 202 177 202s177 -91 177 -202s-61 -202 -177 -202s-177 91 -177 202zM66 583c0 -95 47 -174 147 -174s147 79 147 174s-47 174 -147 174s-147 -79 -147 -174zM299 469h-44l-44 96h-22v-96h-39v233h59c46 0 82 -22 82 -66c0 -32 -18 -55 -42 -64z
M209 667h-21v-67h25c20 0 37 12 37 36c0 22 -17 31 -41 31z" />
    <glyph glyph-name="macron" unicode="&#xaf;" 
d="M351 747v-72h-264v72h264z" />
    <glyph glyph-name="degree" unicode="&#xb0;" horiz-adv-x="258" 
d="M230 645c0 -65 -37 -116 -101 -116s-101 51 -101 116c0 64 37 116 101 116s101 -52 101 -116zM177 645c0 37 -18 67 -48 67s-48 -30 -48 -67c0 -38 18 -67 48 -67s48 29 48 67z" />
    <glyph glyph-name="plusminus" unicode="&#xb1;" horiz-adv-x="513" 
d="M307 478h171v-96h-171v-222h-101v222h-171v96h171v222h101v-222zM478 -3h-443v96h443v-96z" />
    <glyph glyph-name="twosuperior" unicode="&#xb2;" horiz-adv-x="496" 
d="M456 750v-750h-416v750h416zM221 374l-133 279v-561zM275 374l133 -282v561zM118 700l130 -272l130 272h-260zM248 319l-128 -269h256z" />
    <glyph glyph-name="threesuperior" unicode="&#xb3;" horiz-adv-x="496" 
d="M456 750v-750h-416v750h416zM221 374l-133 279v-561zM275 374l133 -282v561zM118 700l130 -272l130 272h-260zM248 319l-128 -269h256z" />
    <glyph glyph-name="acute" unicode="&#xb4;" 
d="M342 838v-6l-127 -175h-82l88 181h121z" />
    <glyph glyph-name="mu" unicode="&#xb5;" horiz-adv-x="481" 
d="M343 0l-7 61c-29 -51 -66 -71 -109 -71c-20 0 -43 8 -59 23c1 -15 2 -42 2 -60v-197h-109v804h111v-340c0 -11 1 -37 3 -52c5 -39 20 -72 59 -72c36 0 57 32 67 68c5 18 8 38 8 72v324h111v-560h-77z" />
    <glyph glyph-name="mu" unicode="&#x3bc;" horiz-adv-x="481" 
d="M343 0l-7 61c-29 -51 -66 -71 -109 -71c-20 0 -43 8 -59 23c1 -15 2 -42 2 -60v-197h-109v804h111v-340c0 -11 1 -37 3 -52c5 -39 20 -72 59 -72c36 0 57 32 67 68c5 18 8 38 8 72v324h111v-560h-77z" />
    <glyph glyph-name="paragraph" unicode="&#xb6;" horiz-adv-x="512" 
d="M202 -175v532c-89 2 -159 89 -159 195c0 110 72 198 182 198h217v-925h-87v857h-65v-857h-88z" />
    <glyph glyph-name="periodcentered" unicode="&#xb7;" horiz-adv-x="208" 
d="M169 325h-130v141h130v-141z" />
    <glyph glyph-name="cedilla" unicode="&#xb8;" 
d="M246 19l-18 -65c45 -13 88 -44 88 -99c0 -57 -43 -94 -91 -94c-56 0 -94 35 -96 93h58c3 -24 15 -37 35 -37c19 0 29 17 29 38c0 22 -14 41 -49 52l-20 6c-18 5 -25 15 -18 35l27 79z" />
    <glyph glyph-name="onesuperior" unicode="&#xb9;" horiz-adv-x="496" 
d="M456 750v-750h-416v750h416zM221 374l-133 279v-561zM275 374l133 -282v561zM118 700l130 -272l130 272h-260zM248 319l-128 -269h256z" />
    <glyph glyph-name="ordmasculine" unicode="&#xba;" horiz-adv-x="272" 
d="M97 617v-62c0 -18 1 -30 2 -40c4 -25 17 -40 37 -40s33 15 37 40c1 10 2 22 2 40v62c0 18 -1 30 -2 40c-4 25 -17 40 -37 40s-33 -15 -37 -40c-1 -10 -2 -22 -2 -40zM242 618v-64c0 -19 -1 -32 -3 -44c-7 -57 -43 -98 -103 -98s-96 41 -103 98c-2 12 -3 25 -3 44v64
c0 19 1 32 3 44c7 57 43 98 103 98s96 -41 103 -98c2 -12 3 -25 3 -44z" />
    <glyph glyph-name="guillemotright" unicode="&#xbb;" horiz-adv-x="436" 
d="M221 584l195 -274l-195 -274v145l92 129l-92 129v145zM38 584l195 -274l-195 -274v145l92 129l-92 129v145z" />
    <glyph glyph-name="onequarter" unicode="&#xbc;" horiz-adv-x="496" 
d="M456 750v-750h-416v750h416zM221 374l-133 279v-561zM275 374l133 -282v561zM118 700l130 -272l130 272h-260zM248 319l-128 -269h256z" />
    <glyph glyph-name="onehalf" unicode="&#xbd;" horiz-adv-x="496" 
d="M456 750v-750h-416v750h416zM221 374l-133 279v-561zM275 374l133 -282v561zM118 700l130 -272l130 272h-260zM248 319l-128 -269h256z" />
    <glyph glyph-name="threequarters" unicode="&#xbe;" horiz-adv-x="496" 
d="M456 750v-750h-416v750h416zM221 374l-133 279v-561zM275 374l133 -282v561zM118 700l130 -272l130 272h-260zM248 319l-128 -269h256z" />
    <glyph glyph-name="questiondown" unicode="&#xbf;" horiz-adv-x="399" 
d="M159 324h106c1 -14 2 -27 2 -40c0 -98 -42 -148 -79 -191c-27 -31 -50 -64 -50 -115c0 -48 26 -75 62 -75c42 0 66 42 66 103v19h109v-19c0 -128 -74 -206 -174 -206c-104 0 -175 63 -175 174c0 79 36 127 71 167c36 42 71 83 62 183zM148 560h124v-134h-124v134z" />
    <glyph glyph-name="Agrave" unicode="&#xc0;" horiz-adv-x="466" 
d="M284 329l-50 260h-2l-50 -260h102zM306 750l158 -750h-117l-42 219h-144l-42 -219h-117l158 750h146zM89 982v6h121l88 -181h-82z" />
    <glyph glyph-name="Aacute" unicode="&#xc1;" horiz-adv-x="466" 
d="M284 329l-50 260h-2l-50 -260h102zM306 750l158 -750h-117l-42 219h-144l-42 -219h-117l158 750h146zM375 988v-6l-127 -175h-82l88 181h121z" />
    <glyph glyph-name="Acircumflex" unicode="&#xc2;" horiz-adv-x="466" 
d="M284 329l-50 260h-2l-50 -260h102zM306 750l158 -750h-117l-42 219h-144l-42 -219h-117l158 750h146zM277 1002l118 -194h-92l-70 108l-70 -108h-92l118 194h88z" />
    <glyph glyph-name="Atilde" unicode="&#xc3;" horiz-adv-x="466" 
d="M284 329l-50 260h-2l-50 -260h102zM306 750l158 -750h-117l-42 219h-144l-42 -219h-117l158 750h146zM133 819h-65c4 84 38 143 102 143c27 0 49 -10 71 -34c29 -30 43 -43 59 -43c17 0 29 15 33 63h65c-4 -84 -38 -143 -102 -143c-27 0 -49 10 -71 34
c-29 30 -43 43 -59 43c-17 0 -29 -15 -33 -63z" />
    <glyph glyph-name="Adieresis" unicode="&#xc4;" horiz-adv-x="466" 
d="M284 329l-50 260h-2l-50 -260h102zM306 750l158 -750h-117l-42 219h-144l-42 -219h-117l158 750h146zM204 824h-110v116h110v-116zM372 824h-110v116h110v-116z" />
    <glyph glyph-name="Aring" unicode="&#xc5;" horiz-adv-x="466" 
d="M284 329l-50 260h-2l-50 -260h102zM306 750l158 -750h-117l-42 219h-144l-42 -219h-117l158 750h146zM128 910c0 67 45 116 105 116s105 -49 105 -116s-45 -116 -105 -116s-105 49 -105 116zM187 910c0 -38 20 -64 46 -64s46 26 46 64s-20 64 -46 64s-46 -26 -46 -64z
" />
    <glyph glyph-name="AE" unicode="&#xc6;" horiz-adv-x="696" 
d="M102 0h-120l246 750h440v-111h-219v-199h177v-111h-177v-218h219v-111h-334v227h-159zM308 640l-97 -302h123v302h-26z" />
    <glyph glyph-name="Ccedilla" unicode="&#xc7;" horiz-adv-x="481" 
d="M53 248v254c0 28 2 59 7 86c17 97 77 172 189 172h4c112 0 172 -75 189 -172c5 -26 7 -56 7 -83h-115c0 17 -2 40 -5 62c-7 42 -29 82 -76 82h-4c-47 0 -69 -40 -76 -82c-4 -23 -5 -48 -5 -66v-252c0 -18 1 -43 5 -66c7 -42 29 -82 76 -82h4c47 0 69 40 76 82
c3 22 5 47 5 67h115c0 -30 -2 -62 -7 -88c-17 -96 -75 -170 -184 -172l-10 -36c45 -13 88 -44 88 -99c0 -57 -43 -94 -91 -94c-56 0 -94 35 -96 93h58c3 -24 15 -37 35 -37c19 0 29 17 29 38c0 22 -14 41 -49 52l-20 6c-18 5 -25 15 -18 35l16 48c-81 18 -126 84 -140 166
c-5 27 -7 58 -7 86z" />
    <glyph glyph-name="Egrave" unicode="&#xc8;" horiz-adv-x="452" 
d="M64 0v750h360v-111h-245v-199h203v-111h-203v-218h245v-111h-360zM102 982v6h121l88 -181h-82z" />
    <glyph glyph-name="Eacute" unicode="&#xc9;" horiz-adv-x="452" 
d="M64 0v750h360v-111h-245v-199h203v-111h-203v-218h245v-111h-360zM365 988v-6l-127 -175h-82l88 181h121z" />
    <glyph glyph-name="Ecircumflex" unicode="&#xca;" horiz-adv-x="452" 
d="M64 0v750h360v-111h-245v-199h203v-111h-203v-218h245v-111h-360zM282 1002l118 -194h-92l-70 108l-70 -108h-92l118 194h88z" />
    <glyph glyph-name="Edieresis" unicode="&#xcb;" horiz-adv-x="452" 
d="M64 0v750h360v-111h-245v-199h203v-111h-203v-218h245v-111h-360zM209 824h-110v116h110v-116zM377 824h-110v116h110v-116z" />
    <glyph glyph-name="Igrave" unicode="&#xcc;" horiz-adv-x="243" 
d="M64 0v750h115v-750h-115zM-30 982v6h121l88 -181h-82z" />
    <glyph glyph-name="Iacute" unicode="&#xcd;" horiz-adv-x="243" 
d="M64 0v750h115v-750h-115zM273 988v-6l-127 -175h-82l88 181h121z" />
    <glyph glyph-name="Icircumflex" unicode="&#xce;" horiz-adv-x="243" 
d="M64 0v750h115v-750h-115zM165 1002l118 -194h-92l-70 108l-70 -108h-92l118 194h88z" />
    <glyph glyph-name="Idieresis" unicode="&#xcf;" horiz-adv-x="243" 
d="M64 0v750h115v-750h-115zM92 824h-110v116h110v-116zM260 824h-110v116h110v-116z" />
    <glyph glyph-name="Eth" unicode="&#xd0;" horiz-adv-x="535" 
d="M92 0v353h-78v83h78v314h164c28 0 49 -2 66 -5c94 -18 139 -85 153 -167c5 -27 7 -58 7 -86v-234c0 -28 -2 -59 -7 -86c-14 -82 -59 -149 -153 -167c-17 -3 -38 -5 -66 -5h-164zM367 260v230c0 18 -1 43 -5 66c-5 32 -19 63 -55 76c-11 4 -25 6 -49 6h-51v-202h91v-83
h-91v-241h51c24 0 38 2 49 6c36 13 50 44 55 76c4 23 5 48 5 66z" />
    <glyph glyph-name="Ntilde" unicode="&#xd1;" horiz-adv-x="532" 
d="M359 254h1s-1 33 -1 58v438h109v-750h-127l-168 497h-1s1 -33 1 -58v-439h-109v750h127zM166 819h-65c4 84 38 143 102 143c27 0 49 -10 71 -34c29 -30 43 -43 59 -43c17 0 29 15 33 63h65c-4 -84 -38 -143 -102 -143c-27 0 -49 10 -71 34c-29 30 -43 43 -59 43
c-17 0 -29 -15 -33 -63z" />
    <glyph glyph-name="Ograve" unicode="&#xd2;" horiz-adv-x="502" 
d="M168 501v-252c0 -18 1 -43 5 -66c7 -42 29 -82 76 -82h4c47 0 69 40 76 82c4 23 5 48 5 66v252c0 18 -1 43 -5 66c-7 42 -29 82 -76 82h-4c-47 0 -69 -40 -76 -82c-4 -23 -5 -48 -5 -66zM449 502v-254c0 -28 -2 -59 -7 -86c-17 -97 -77 -172 -189 -172h-4
c-112 0 -172 75 -189 172c-5 27 -7 58 -7 86v254c0 28 2 59 7 86c17 97 77 172 189 172h4c112 0 172 -75 189 -172c5 -27 7 -58 7 -86zM127 982v6h121l88 -181h-82z" />
    <glyph glyph-name="Oacute" unicode="&#xd3;" horiz-adv-x="502" 
d="M168 501v-252c0 -18 1 -43 5 -66c7 -42 29 -82 76 -82h4c47 0 69 40 76 82c4 23 5 48 5 66v252c0 18 -1 43 -5 66c-7 42 -29 82 -76 82h-4c-47 0 -69 -40 -76 -82c-4 -23 -5 -48 -5 -66zM449 502v-254c0 -28 -2 -59 -7 -86c-17 -97 -77 -172 -189 -172h-4
c-112 0 -172 75 -189 172c-5 27 -7 58 -7 86v254c0 28 2 59 7 86c17 97 77 172 189 172h4c112 0 172 -75 189 -172c5 -27 7 -58 7 -86zM366 988v-6l-127 -175h-82l88 181h121z" />
    <glyph glyph-name="Ocircumflex" unicode="&#xd4;" horiz-adv-x="502" 
d="M168 501v-252c0 -18 1 -43 5 -66c7 -42 29 -82 76 -82h4c47 0 69 40 76 82c4 23 5 48 5 66v252c0 18 -1 43 -5 66c-7 42 -29 82 -76 82h-4c-47 0 -69 -40 -76 -82c-4 -23 -5 -48 -5 -66zM449 502v-254c0 -28 -2 -59 -7 -86c-17 -97 -77 -172 -189 -172h-4
c-112 0 -172 75 -189 172c-5 27 -7 58 -7 86v254c0 28 2 59 7 86c17 97 77 172 189 172h4c112 0 172 -75 189 -172c5 -27 7 -58 7 -86zM295 992l118 -194h-92l-70 108l-70 -108h-92l118 194h88z" />
    <glyph glyph-name="Otilde" unicode="&#xd5;" horiz-adv-x="502" 
d="M168 501v-252c0 -18 1 -43 5 -66c7 -42 29 -82 76 -82h4c47 0 69 40 76 82c4 23 5 48 5 66v252c0 18 -1 43 -5 66c-7 42 -29 82 -76 82h-4c-47 0 -69 -40 -76 -82c-4 -23 -5 -48 -5 -66zM449 502v-254c0 -28 -2 -59 -7 -86c-17 -97 -77 -172 -189 -172h-4
c-112 0 -172 75 -189 172c-5 27 -7 58 -7 86v254c0 28 2 59 7 86c17 97 77 172 189 172h4c112 0 172 -75 189 -172c5 -27 7 -58 7 -86zM151 819h-65c4 84 38 143 102 143c27 0 49 -10 71 -34c29 -30 43 -43 59 -43c17 0 29 15 33 63h65c-4 -84 -38 -143 -102 -143
c-27 0 -49 10 -71 34c-29 30 -43 43 -59 43c-17 0 -29 -15 -33 -63z" />
    <glyph glyph-name="Odieresis" unicode="&#xd6;" horiz-adv-x="502" 
d="M168 501v-252c0 -18 1 -43 5 -66c7 -42 29 -82 76 -82h4c47 0 69 40 76 82c4 23 5 48 5 66v252c0 18 -1 43 -5 66c-7 42 -29 82 -76 82h-4c-47 0 -69 -40 -76 -82c-4 -23 -5 -48 -5 -66zM449 502v-254c0 -28 -2 -59 -7 -86c-17 -97 -77 -172 -189 -172h-4
c-112 0 -172 75 -189 172c-5 27 -7 58 -7 86v254c0 28 2 59 7 86c17 97 77 172 189 172h4c112 0 172 -75 189 -172c5 -27 7 -58 7 -86zM222 824h-110v116h110v-116zM390 824h-110v116h110v-116z" />
    <glyph glyph-name="multiply" unicode="&#xd7;" horiz-adv-x="446" 
d="M349 54l-126 170l-126 -170l-73 61l141 184l-141 185l72 62l127 -171l127 171l72 -62l-142 -185l142 -184z" />
    <glyph glyph-name="Oslash" unicode="&#xd8;" horiz-adv-x="502" 
d="M449 502v-254c0 -28 -2 -59 -7 -86c-17 -97 -77 -172 -189 -172h-4c-37 0 -68 8 -94 22l-18 -47h-76l37 99c-19 27 -32 61 -38 98c-5 27 -7 58 -7 86v254c0 28 2 59 7 86c17 97 77 172 189 172h4c37 0 68 -8 94 -23l18 48h76l-37 -100c19 -27 31 -61 38 -97
c5 -27 7 -58 7 -86zM168 501v-267l137 390c-12 15 -29 25 -52 25h-4c-47 0 -69 -40 -76 -82c-4 -23 -5 -48 -5 -66zM334 249v265l-137 -389c12 -14 29 -24 52 -24h4c47 0 69 40 76 82c4 23 5 48 5 66z" />
    <glyph glyph-name="Ugrave" unicode="&#xd9;" horiz-adv-x="516" 
d="M175 750v-501c0 -18 1 -43 5 -66c7 -42 29 -82 76 -82h4c47 0 69 40 76 82c4 23 5 48 5 66v501h115v-502c0 -28 -2 -59 -7 -86c-17 -97 -77 -172 -189 -172h-4c-112 0 -172 75 -189 172c-5 27 -7 58 -7 86v502h115zM124 982v6h121l88 -181h-82z" />
    <glyph glyph-name="Uacute" unicode="&#xda;" horiz-adv-x="516" 
d="M175 750v-501c0 -18 1 -43 5 -66c7 -42 29 -82 76 -82h4c47 0 69 40 76 82c4 23 5 48 5 66v501h115v-502c0 -28 -2 -59 -7 -86c-17 -97 -77 -172 -189 -172h-4c-112 0 -172 75 -189 172c-5 27 -7 58 -7 86v502h115zM393 988v-6l-127 -175h-82l88 181h121z" />
    <glyph glyph-name="Ucircumflex" unicode="&#xdb;" horiz-adv-x="516" 
d="M175 750v-501c0 -18 1 -43 5 -66c7 -42 29 -82 76 -82h4c47 0 69 40 76 82c4 23 5 48 5 66v501h115v-502c0 -28 -2 -59 -7 -86c-17 -97 -77 -172 -189 -172h-4c-112 0 -172 75 -189 172c-5 27 -7 58 -7 86v502h115zM302 1002l118 -194h-92l-70 108l-70 -108h-92l118 194
h88z" />
    <glyph glyph-name="Udieresis" unicode="&#xdc;" horiz-adv-x="516" 
d="M175 750v-501c0 -18 1 -43 5 -66c7 -42 29 -82 76 -82h4c47 0 69 40 76 82c4 23 5 48 5 66v501h115v-502c0 -28 -2 -59 -7 -86c-17 -97 -77 -172 -189 -172h-4c-112 0 -172 75 -189 172c-5 27 -7 58 -7 86v502h115zM229 824h-110v116h110v-116zM397 824h-110v116h110
v-116z" />
    <glyph glyph-name="Yacute" unicode="&#xdd;" horiz-adv-x="455" 
d="M228 462l109 288h123l-175 -423v-327h-115v327l-175 423h123l109 -288h1zM371 988v-6l-127 -175h-82l88 181h121z" />
    <glyph glyph-name="Thorn" unicode="&#xde;" horiz-adv-x="493" 
d="M179 259h52c23 0 36 2 47 6c46 16 64 62 64 112c0 46 -15 99 -63 116c-11 4 -23 6 -48 6h-52v-240zM233 147h-54v-147h-115v750h115v-140h53c32 0 55 -3 75 -8c97 -26 150 -113 150 -225c0 -106 -51 -200 -159 -224c-17 -4 -37 -6 -65 -6z" />
    <glyph glyph-name="germandbls" unicode="&#xdf;" horiz-adv-x="489" 
d="M201 1v96c18 -5 35 -8 55 -8c54 0 85 42 85 122c0 89 -47 135 -122 135h-10v91h16c57 0 95 44 95 120c0 68 -30 99 -72 99c-35 0 -60 -21 -71 -58c-4 -13 -6 -30 -6 -55v-543h-110v538c0 31 2 52 6 71c20 95 89 151 182 151c102 0 182 -67 182 -195
c0 -74 -29 -129 -86 -166c53 -22 106 -92 106 -190c0 -148 -78 -218 -176 -218c-27 0 -51 3 -74 10z" />
    <glyph glyph-name="agrave" unicode="&#xe0;" horiz-adv-x="443" 
d="M165 410h-109c14 98 76 160 167 160s146 -56 158 -160c2 -20 4 -48 4 -76v-334h-77l-9 65c-27 -50 -67 -75 -117 -75c-79 0 -144 64 -144 186c0 91 48 157 141 172c14 2 30 4 56 4h39v21c0 22 -2 37 -4 48c-7 34 -24 50 -51 50c-28 0 -48 -23 -54 -61zM148 178
c0 -58 18 -90 55 -90c36 0 57 37 66 81c4 20 6 44 6 72v19h-43c-21 0 -33 -2 -42 -6c-27 -12 -42 -39 -42 -76zM94 802v6h121l88 -181h-82z" />
    <glyph glyph-name="aacute" unicode="&#xe1;" horiz-adv-x="443" 
d="M165 410h-109c14 98 76 160 167 160s146 -56 158 -160c2 -20 4 -48 4 -76v-334h-77l-9 65c-27 -50 -67 -75 -117 -75c-79 0 -144 64 -144 186c0 91 48 157 141 172c14 2 30 4 56 4h39v21c0 22 -2 37 -4 48c-7 34 -24 50 -51 50c-28 0 -48 -23 -54 -61zM148 178
c0 -58 18 -90 55 -90c36 0 57 37 66 81c4 20 6 44 6 72v19h-43c-21 0 -33 -2 -42 -6c-27 -12 -42 -39 -42 -76zM341 808v-6l-127 -175h-82l88 181h121z" />
    <glyph glyph-name="acircumflex" unicode="&#xe2;" horiz-adv-x="443" 
d="M165 410h-109c14 98 76 160 167 160s146 -56 158 -160c2 -20 4 -48 4 -76v-334h-77l-9 65c-27 -50 -67 -75 -117 -75c-79 0 -144 64 -144 186c0 91 48 157 141 172c14 2 30 4 56 4h39v21c0 22 -2 37 -4 48c-7 34 -24 50 -51 50c-28 0 -48 -23 -54 -61zM148 178
c0 -58 18 -90 55 -90c36 0 57 37 66 81c4 20 6 44 6 72v19h-43c-21 0 -33 -2 -42 -6c-27 -12 -42 -39 -42 -76zM265 812l118 -194h-92l-70 108l-70 -108h-92l118 194h88z" />
    <glyph glyph-name="atilde" unicode="&#xe3;" horiz-adv-x="443" 
d="M165 410h-109c14 98 76 160 167 160s146 -56 158 -160c2 -20 4 -48 4 -76v-334h-77l-9 65c-27 -50 -67 -75 -117 -75c-79 0 -144 64 -144 186c0 91 48 157 141 172c14 2 30 4 56 4h39v21c0 22 -2 37 -4 48c-7 34 -24 50 -51 50c-28 0 -48 -23 -54 -61zM148 178
c0 -58 18 -90 55 -90c36 0 57 37 66 81c4 20 6 44 6 72v19h-43c-21 0 -33 -2 -42 -6c-27 -12 -42 -39 -42 -76zM123 639h-65c4 84 38 143 102 143c27 0 49 -10 71 -34c29 -30 43 -43 59 -43c17 0 29 15 33 63h65c-4 -84 -38 -143 -102 -143c-27 0 -49 10 -71 34
c-29 30 -43 43 -59 43c-17 0 -29 -15 -33 -63z" />
    <glyph glyph-name="adieresis" unicode="&#xe4;" horiz-adv-x="443" 
d="M165 410h-109c14 98 76 160 167 160s146 -56 158 -160c2 -20 4 -48 4 -76v-334h-77l-9 65c-27 -50 -67 -75 -117 -75c-79 0 -144 64 -144 186c0 91 48 157 141 172c14 2 30 4 56 4h39v21c0 22 -2 37 -4 48c-7 34 -24 50 -51 50c-28 0 -48 -23 -54 -61zM148 178
c0 -58 18 -90 55 -90c36 0 57 37 66 81c4 20 6 44 6 72v19h-43c-21 0 -33 -2 -42 -6c-27 -12 -42 -39 -42 -76zM192 644h-110v116h110v-116zM360 644h-110v116h110v-116z" />
    <glyph glyph-name="aring" unicode="&#xe5;" horiz-adv-x="443" 
d="M165 410h-109c14 98 76 160 167 160s146 -56 158 -160c2 -20 4 -48 4 -76v-334h-77l-9 65c-27 -50 -67 -75 -117 -75c-79 0 -144 64 -144 186c0 91 48 157 141 172c14 2 30 4 56 4h39v21c0 22 -2 37 -4 48c-7 34 -24 50 -51 50c-28 0 -48 -23 -54 -61zM148 178
c0 -58 18 -90 55 -90c36 0 57 37 66 81c4 20 6 44 6 72v19h-43c-21 0 -33 -2 -42 -6c-27 -12 -42 -39 -42 -76zM117 730c0 67 45 116 105 116s105 -49 105 -116s-45 -116 -105 -116s-105 49 -105 116zM176 730c0 -38 20 -64 46 -64s46 26 46 64s-20 64 -46 64
s-46 -26 -46 -64z" />
    <glyph glyph-name="ae" unicode="&#xe6;" horiz-adv-x="669" 
d="M451 92c40 0 59 38 62 75h110c-14 -109 -72 -177 -172 -177c-67 0 -109 30 -134 78c-29 -53 -85 -78 -135 -78c-79 0 -144 64 -144 186c0 91 48 154 141 169c14 2 30 4 56 4h39v24c0 22 -2 37 -4 48c-7 34 -24 50 -51 50c-28 0 -48 -23 -54 -61h-109
c14 98 76 160 167 160c53 0 89 -20 111 -57c24 35 61 57 117 57c100 0 155 -68 170 -164c5 -29 6 -48 6 -100v-49h-241v-31c0 -31 1 -50 4 -67c7 -42 27 -67 61 -67zM148 178c0 -58 18 -90 55 -90c36 0 57 37 66 81c4 20 6 44 6 72v16h-43c-21 0 -33 -2 -42 -6
c-27 -12 -42 -36 -42 -73zM390 400c-2 -15 -4 -28 -4 -51h130c0 16 -1 34 -4 51c-7 42 -27 68 -61 68s-54 -26 -61 -68z" />
    <glyph glyph-name="ccedilla" unicode="&#xe7;" horiz-adv-x="425" 
d="M280 162l3 18h110c-3 -34 -11 -65 -18 -82c-25 -63 -73 -105 -147 -108l-10 -36c45 -13 88 -44 88 -99c0 -57 -43 -94 -91 -94c-56 0 -94 35 -96 93h58c3 -24 15 -37 35 -37c19 0 29 17 29 38c0 22 -14 41 -49 52l-20 6c-18 5 -25 15 -18 35l16 48
c-69 18 -109 79 -122 158c-3 20 -5 41 -5 73v106c0 32 2 53 5 73c16 96 71 164 171 164c81 0 132 -45 157 -112c10 -28 16 -57 18 -88h-110c-1 10 -2 19 -4 28c-7 42 -27 67 -61 67s-54 -25 -61 -67c-3 -17 -4 -36 -4 -67v-102c0 -31 1 -50 4 -67c7 -42 27 -67 61 -67
s54 25 61 67z" />
    <glyph glyph-name="egrave" unicode="&#xe8;" horiz-adv-x="437" 
d="M219 92c40 0 59 38 62 75h110c-14 -109 -72 -177 -172 -177s-155 68 -171 164c-3 20 -5 41 -5 73v106c0 32 2 53 5 73c16 96 71 164 171 164s155 -68 170 -164c5 -29 6 -51 6 -103v-50h-241v-27c0 -31 1 -50 4 -67c7 -42 27 -67 61 -67zM158 400c-2 -15 -4 -30 -4 -53
h130c0 16 -1 36 -4 53c-7 42 -27 68 -61 68s-54 -26 -61 -68zM94 802v6h121l88 -181h-82z" />
    <glyph glyph-name="eacute" unicode="&#xe9;" horiz-adv-x="437" 
d="M219 92c40 0 59 38 62 75h110c-14 -109 -72 -177 -172 -177s-155 68 -171 164c-3 20 -5 41 -5 73v106c0 32 2 53 5 73c16 96 71 164 171 164s155 -68 170 -164c5 -29 6 -51 6 -103v-50h-241v-27c0 -31 1 -50 4 -67c7 -42 27 -67 61 -67zM158 400c-2 -15 -4 -30 -4 -53
h130c0 16 -1 36 -4 53c-7 42 -27 68 -61 68s-54 -26 -61 -68zM343 808v-6l-127 -175h-82l88 181h121z" />
    <glyph glyph-name="ecircumflex" unicode="&#xea;" horiz-adv-x="437" 
d="M219 92c40 0 59 38 62 75h110c-14 -109 -72 -177 -172 -177s-155 68 -171 164c-3 20 -5 41 -5 73v106c0 32 2 53 5 73c16 96 71 164 171 164s155 -68 170 -164c5 -29 6 -51 6 -103v-50h-241v-27c0 -31 1 -50 4 -67c7 -42 27 -67 61 -67zM158 400c-2 -15 -4 -30 -4 -53
h130c0 16 -1 36 -4 53c-7 42 -27 68 -61 68s-54 -26 -61 -68zM262 812l118 -194h-92l-70 108l-70 -108h-92l118 194h88z" />
    <glyph glyph-name="edieresis" unicode="&#xeb;" horiz-adv-x="437" 
d="M219 92c40 0 59 38 62 75h110c-14 -109 -72 -177 -172 -177s-155 68 -171 164c-3 20 -5 41 -5 73v106c0 32 2 53 5 73c16 96 71 164 171 164s155 -68 170 -164c5 -29 6 -51 6 -103v-50h-241v-27c0 -31 1 -50 4 -67c7 -42 27 -67 61 -67zM158 400c-2 -15 -4 -30 -4 -53
h130c0 16 -1 36 -4 53c-7 42 -27 68 -61 68s-54 -26 -61 -68zM189 644h-110v116h110v-116zM357 644h-110v116h110v-116z" />
    <glyph glyph-name="igrave" unicode="&#xec;" horiz-adv-x="233" 
d="M-37 802v6h121l88 -181h-82zM61 0v560h111v-560h-111z" />
    <glyph glyph-name="iacute" unicode="&#xed;" horiz-adv-x="233" 
d="M270 808v-6l-127 -175h-82l88 181h121zM61 0v560h111v-560h-111z" />
    <glyph glyph-name="icircumflex" unicode="&#xee;" horiz-adv-x="233" 
d="M160 852l108 -194h-92l-60 108l-60 -108h-92l108 194h88zM61 0v560h111v-560h-111z" />
    <glyph glyph-name="idieresis" unicode="&#xef;" horiz-adv-x="233" 
d="M87 644h-110v116h110v-116zM255 644h-110v116h110v-116zM61 0v560h111v-560h-111z" />
    <glyph glyph-name="eth" unicode="&#xf0;" 
d="M257 502c-7 27 -22 68 -37 99l-90 -46l-31 67l89 44l-1 3c-13 25 -28 50 -45 74l86 52c22 -32 39 -61 51 -82l80 41l32 -67l-78 -39c24 -51 43 -106 55 -153c17 -64 27 -132 27 -200v-68c0 -32 -2 -53 -5 -73c-16 -96 -71 -164 -171 -164s-155 68 -171 164
c-3 20 -5 41 -5 73v54c0 42 4 78 11 108c21 86 82 129 140 129c21 0 45 -6 63 -16zM154 279v-50c0 -31 1 -50 4 -67c7 -42 27 -67 61 -67s54 25 61 67c3 17 4 36 4 67v50c0 31 -1 50 -4 67c-7 42 -27 67 -61 67s-54 -25 -61 -67c-3 -17 -4 -36 -4 -67z" />
    <glyph glyph-name="ntilde" unicode="&#xf1;" horiz-adv-x="478" 
d="M273 570c82 0 125 -57 140 -137c5 -26 7 -57 7 -91v-342h-111v340c0 11 -1 37 -3 52c-5 39 -20 72 -59 72c-36 0 -57 -32 -67 -68c-5 -18 -8 -38 -8 -72v-324h-111v560h77l10 -75c24 55 73 85 125 85zM139 640h-65c4 84 38 143 102 143c27 0 49 -10 71 -34
c29 -30 43 -43 59 -43c17 0 29 15 33 63h65c-4 -84 -38 -143 -102 -143c-27 0 -49 10 -71 34c-29 30 -43 43 -59 43c-17 0 -29 -15 -33 -63z" />
    <glyph glyph-name="ograve" unicode="&#xf2;" 
d="M154 331v-102c0 -31 1 -50 4 -67c7 -42 27 -67 61 -67s54 25 61 67c3 17 4 36 4 67v102c0 31 -1 50 -4 67c-7 42 -27 67 -61 67s-54 -25 -61 -67c-3 -17 -4 -36 -4 -67zM395 333v-106c0 -32 -2 -53 -5 -73c-16 -96 -71 -164 -171 -164s-155 68 -171 164
c-3 20 -5 41 -5 73v106c0 32 2 53 5 73c16 96 71 164 171 164s155 -68 171 -164c3 -20 5 -41 5 -73zM105 802v6h121l88 -181h-82z" />
    <glyph glyph-name="oacute" unicode="&#xf3;" 
d="M154 331v-102c0 -31 1 -50 4 -67c7 -42 27 -67 61 -67s54 25 61 67c3 17 4 36 4 67v102c0 31 -1 50 -4 67c-7 42 -27 67 -61 67s-54 -25 -61 -67c-3 -17 -4 -36 -4 -67zM395 333v-106c0 -32 -2 -53 -5 -73c-16 -96 -71 -164 -171 -164s-155 68 -171 164
c-3 20 -5 41 -5 73v106c0 32 2 53 5 73c16 96 71 164 171 164s155 -68 171 -164c3 -20 5 -41 5 -73zM334 808v-6l-127 -175h-82l88 181h121z" />
    <glyph glyph-name="ocircumflex" unicode="&#xf4;" 
d="M154 331v-102c0 -31 1 -50 4 -67c7 -42 27 -67 61 -67s54 25 61 67c3 17 4 36 4 67v102c0 31 -1 50 -4 67c-7 42 -27 67 -61 67s-54 -25 -61 -67c-3 -17 -4 -36 -4 -67zM395 333v-106c0 -32 -2 -53 -5 -73c-16 -96 -71 -164 -171 -164s-155 68 -171 164
c-3 20 -5 41 -5 73v106c0 32 2 53 5 73c16 96 71 164 171 164s155 -68 171 -164c3 -20 5 -41 5 -73zM263 812l118 -194h-92l-70 108l-70 -108h-92l118 194h88z" />
    <glyph glyph-name="otilde" unicode="&#xf5;" 
d="M154 331v-102c0 -31 1 -50 4 -67c7 -42 27 -67 61 -67s54 25 61 67c3 17 4 36 4 67v102c0 31 -1 50 -4 67c-7 42 -27 67 -61 67s-54 -25 -61 -67c-3 -17 -4 -36 -4 -67zM395 333v-106c0 -32 -2 -53 -5 -73c-16 -96 -71 -164 -171 -164s-155 68 -171 164
c-3 20 -5 41 -5 73v106c0 32 2 53 5 73c16 96 71 164 171 164s155 -68 171 -164c3 -20 5 -41 5 -73zM119 639h-65c4 84 38 143 102 143c27 0 49 -10 71 -34c29 -30 43 -43 59 -43c17 0 29 15 33 63h65c-4 -84 -38 -143 -102 -143c-27 0 -49 10 -71 34c-29 30 -43 43 -59 43
c-17 0 -29 -15 -33 -63z" />
    <glyph glyph-name="odieresis" unicode="&#xf6;" 
d="M154 331v-102c0 -31 1 -50 4 -67c7 -42 27 -67 61 -67s54 25 61 67c3 17 4 36 4 67v102c0 31 -1 50 -4 67c-7 42 -27 67 -61 67s-54 -25 -61 -67c-3 -17 -4 -36 -4 -67zM395 333v-106c0 -32 -2 -53 -5 -73c-16 -96 -71 -164 -171 -164s-155 68 -171 164
c-3 20 -5 41 -5 73v106c0 32 2 53 5 73c16 96 71 164 171 164s155 -68 171 -164c3 -20 5 -41 5 -73zM190 644h-110v116h110v-116zM358 644h-110v116h110v-116z" />
    <glyph glyph-name="divide" unicode="&#xf7;" horiz-adv-x="472" 
d="M457 252h-442v96h442v-96zM292 436h-117v126h117v-126zM292 37h-117v127h117v-127z" />
    <glyph glyph-name="oslash" unicode="&#xf8;" 
d="M395 333v-106c0 -32 -2 -53 -5 -73c-16 -96 -71 -164 -171 -164c-25 0 -46 4 -65 11l-13 -36h-70l27 75c-26 29 -43 68 -50 114c-3 20 -5 41 -5 73v106c0 32 2 53 5 73c16 96 71 164 171 164c24 0 46 -4 65 -12l13 37h70l-27 -76c26 -28 42 -68 50 -113
c3 -20 5 -41 5 -73zM154 331v-142l93 268c-8 5 -17 8 -28 8c-34 0 -54 -25 -61 -67c-3 -17 -4 -36 -4 -67zM284 229v141l-94 -268c8 -5 18 -7 29 -7c34 0 54 25 61 67c3 17 4 36 4 67z" />
    <glyph glyph-name="ugrave" unicode="&#xf9;" horiz-adv-x="478" 
d="M205 -10c-82 0 -125 57 -140 137c-5 26 -7 57 -7 91v342h111v-340c0 -11 1 -37 3 -52c5 -39 20 -72 59 -72c36 0 57 32 67 68c5 18 8 38 8 72v324h111v-560h-77l-10 75c-24 -55 -73 -85 -125 -85zM115 802v6h121l88 -181h-82z" />
    <glyph glyph-name="uacute" unicode="&#xfa;" horiz-adv-x="478" 
d="M364 808v-6l-127 -175h-82l88 181h121zM205 -10c-82 0 -125 57 -140 137c-5 26 -7 57 -7 91v342h111v-340c0 -11 1 -37 3 -52c5 -39 20 -72 59 -72c36 0 57 32 67 68c5 18 8 38 8 72v324h111v-560h-77l-10 75c-24 -55 -73 -85 -125 -85z" />
    <glyph glyph-name="ucircumflex" unicode="&#xfb;" horiz-adv-x="478" 
d="M205 -10c-82 0 -125 57 -140 137c-5 26 -7 57 -7 91v342h111v-340c0 -11 1 -37 3 -52c5 -39 20 -72 59 -72c36 0 57 32 67 68c5 18 8 38 8 72v324h111v-560h-77l-10 75c-24 -55 -73 -85 -125 -85zM283 822l118 -194h-92l-70 108l-70 -108h-92l118 194h88z" />
    <glyph glyph-name="udieresis" unicode="&#xfc;" horiz-adv-x="478" 
d="M205 -10c-82 0 -125 57 -140 137c-5 26 -7 57 -7 91v342h111v-340c0 -11 1 -37 3 -52c5 -39 20 -72 59 -72c36 0 57 32 67 68c5 18 8 38 8 72v324h111v-560h-77l-10 75c-24 -55 -73 -85 -125 -85zM210 644h-110v116h110v-116zM378 644h-110v116h110v-116z" />
    <glyph glyph-name="yacute" unicode="&#xfd;" horiz-adv-x="408" 
d="M57 -110c34 0 59 21 76 81l18 65c-48 170 -101 353 -148 524h116l87 -353h1l83 353h116l-158 -576c-40 -145 -87 -200 -171 -200c-28 0 -51 5 -75 13v102c17 -5 34 -9 55 -9zM339 808v-6l-127 -175h-82l88 181h121z" />
    <glyph glyph-name="thorn" unicode="&#xfe;" horiz-adv-x="466" 
d="M175 326v-105c0 -39 14 -125 71 -125c38 0 55 33 62 69c3 17 4 34 4 59v117c0 11 -1 37 -3 52c-5 35 -20 72 -59 72c-36 0 -57 -32 -67 -68c-5 -18 -8 -43 -8 -71zM64 -244v1029h111v-217c0 -25 -1 -50 -1 -50h1c24 33 58 52 97 52c97 0 136 -77 147 -160
c3 -21 4 -44 4 -72v-120c0 -37 -3 -66 -8 -91c-16 -75 -57 -137 -139 -137c-43 0 -77 16 -101 42h-1s1 -25 1 -50v-226h-111z" />
    <glyph glyph-name="ydieresis" unicode="&#xff;" horiz-adv-x="408" 
d="M57 -110c34 0 59 21 76 81l18 65c-48 170 -101 353 -148 524h116l87 -353h1l83 353h116l-158 -576c-40 -145 -87 -200 -171 -200c-28 0 -51 5 -75 13v102c17 -5 34 -9 55 -9zM175 644h-110v116h110v-116zM343 644h-110v116h110v-116z" />
    <glyph glyph-name="Amacron" unicode="&#x100;" horiz-adv-x="466" 
d="M284 329l-50 260h-2l-50 -260h102zM306 750l158 -750h-117l-42 219h-144l-42 -219h-117l158 750h146zM365 897v-72h-264v72h264z" />
    <glyph glyph-name="amacron" unicode="&#x101;" horiz-adv-x="443" 
d="M165 410h-109c14 98 76 160 167 160s146 -56 158 -160c2 -20 4 -48 4 -76v-334h-77l-9 65c-27 -50 -67 -75 -117 -75c-79 0 -144 64 -144 186c0 91 48 157 141 172c14 2 30 4 56 4h39v21c0 22 -2 37 -4 48c-7 34 -24 50 -51 50c-28 0 -48 -23 -54 -61zM148 178
c0 -58 18 -90 55 -90c36 0 57 37 66 81c4 20 6 44 6 72v19h-43c-21 0 -33 -2 -42 -6c-27 -12 -42 -39 -42 -76zM353 717v-72h-264v72h264z" />
    <glyph glyph-name="Abreve" unicode="&#x102;" horiz-adv-x="466" 
d="M284 329l-50 260h-2l-50 -260h102zM306 750l158 -750h-117l-42 219h-144l-42 -219h-117l158 750h146zM233 803c-81 0 -138 57 -143 171h77c6 -68 31 -96 66 -96s60 28 66 96h77c-5 -114 -62 -171 -143 -171z" />
    <glyph glyph-name="abreve" unicode="&#x103;" horiz-adv-x="443" 
d="M165 410h-109c14 98 76 160 167 160s146 -56 158 -160c2 -20 4 -48 4 -76v-334h-77l-9 65c-27 -50 -67 -75 -117 -75c-79 0 -144 64 -144 186c0 91 48 157 141 172c14 2 30 4 56 4h39v21c0 22 -2 37 -4 48c-7 34 -24 50 -51 50c-28 0 -48 -23 -54 -61zM148 178
c0 -58 18 -90 55 -90c36 0 57 37 66 81c4 20 6 44 6 72v19h-43c-21 0 -33 -2 -42 -6c-27 -12 -42 -39 -42 -76zM221 623c-81 0 -138 57 -143 171h77c6 -68 31 -96 66 -96s60 28 66 96h77c-5 -114 -62 -171 -143 -171z" />
    <glyph glyph-name="Aogonek" unicode="&#x104;" horiz-adv-x="466" 
d="M306 750l158 -750c-64 -49 -91 -89 -91 -124c0 -25 13 -42 39 -42c20 0 35 6 54 19l23 -53c-22 -19 -58 -31 -87 -31c-56 0 -105 31 -105 98c0 42 20 79 55 111l-47 241h-144l-42 -219h-117l158 750h146zM284 329l-50 260h-2l-50 -260h102z" />
    <glyph glyph-name="aogonek" unicode="&#x105;" horiz-adv-x="443" 
d="M165 410h-109c14 98 76 160 167 160s146 -56 158 -160c2 -20 4 -48 4 -76v-334c-64 -49 -91 -89 -91 -124c0 -25 13 -42 39 -42c20 0 35 6 54 19l23 -53c-22 -19 -58 -31 -87 -31c-56 0 -105 31 -105 98c0 54 34 100 89 139l-8 59c-27 -50 -67 -75 -117 -75
c-79 0 -144 64 -144 186c0 91 48 157 141 172c14 2 30 4 56 4h39v21c0 22 -2 37 -4 48c-7 34 -24 50 -51 50c-28 0 -48 -23 -54 -61zM148 178c0 -58 18 -90 55 -90c36 0 57 37 66 81c4 20 6 44 6 72v19h-43c-21 0 -33 -2 -42 -6c-27 -12 -42 -39 -42 -76z" />
    <glyph glyph-name="Cacute" unicode="&#x106;" horiz-adv-x="481" 
d="M53 248v254c0 28 2 59 7 86c17 97 77 172 189 172h4c112 0 172 -75 189 -172c5 -26 7 -56 7 -83h-115c0 17 -2 40 -5 62c-7 42 -29 82 -76 82h-4c-47 0 -69 -40 -76 -82c-4 -23 -5 -48 -5 -66v-252c0 -18 1 -43 5 -66c7 -42 29 -82 76 -82h4c47 0 69 40 76 82
c3 22 5 47 5 67h115c0 -30 -2 -62 -7 -88c-17 -97 -77 -172 -189 -172h-4c-112 0 -172 75 -189 172c-5 27 -7 58 -7 86zM370 988v-6l-127 -175h-82l88 181h121z" />
    <glyph glyph-name="cacute" unicode="&#x107;" horiz-adv-x="425" 
d="M280 162l3 18h110c-3 -34 -11 -65 -18 -82c-26 -65 -77 -108 -156 -108c-100 0 -155 68 -171 164c-3 20 -5 41 -5 73v106c0 32 2 53 5 73c16 96 71 164 171 164c81 0 132 -45 157 -112c10 -28 16 -57 18 -88h-110c-1 10 -2 19 -4 28c-7 42 -27 67 -61 67s-54 -25 -61 -67
c-3 -17 -4 -36 -4 -67v-102c0 -31 1 -50 4 -67c7 -42 27 -67 61 -67s54 25 61 67zM337 808v-6l-127 -175h-82l88 181h121z" />
    <glyph glyph-name="Ccircumflex" unicode="&#x108;" horiz-adv-x="481" 
d="M53 248v254c0 28 2 59 7 86c17 97 77 172 189 172h4c112 0 172 -75 189 -172c5 -26 7 -56 7 -83h-115c0 17 -2 40 -5 62c-7 42 -29 82 -76 82h-4c-47 0 -69 -40 -76 -82c-4 -23 -5 -48 -5 -66v-252c0 -18 1 -43 5 -66c7 -42 29 -82 76 -82h4c47 0 69 40 76 82
c3 22 5 47 5 67h115c0 -30 -2 -62 -7 -88c-17 -97 -77 -172 -189 -172h-4c-112 0 -172 75 -189 172c-5 27 -7 58 -7 86zM296 1002l118 -194h-92l-70 108l-70 -108h-92l118 194h88z" />
    <glyph glyph-name="ccircumflex" unicode="&#x109;" horiz-adv-x="425" 
d="M280 162l3 18h110c-3 -34 -11 -65 -18 -82c-26 -65 -77 -108 -156 -108c-100 0 -155 68 -171 164c-3 20 -5 41 -5 73v106c0 32 2 53 5 73c16 96 71 164 171 164c81 0 132 -45 157 -112c10 -28 16 -57 18 -88h-110c-1 10 -2 19 -4 28c-7 42 -27 67 -61 67s-54 -25 -61 -67
c-3 -17 -4 -36 -4 -67v-102c0 -31 1 -50 4 -67c7 -42 27 -67 61 -67s54 25 61 67zM262 822l118 -194h-92l-70 108l-70 -108h-92l118 194h88z" />
    <glyph glyph-name="Cdotaccent" unicode="&#x10a;" horiz-adv-x="481" 
d="M53 248v254c0 28 2 59 7 86c17 97 77 172 189 172h4c112 0 172 -75 189 -172c5 -26 7 -56 7 -83h-115c0 17 -2 40 -5 62c-7 42 -29 82 -76 82h-4c-47 0 -69 -40 -76 -82c-4 -23 -5 -48 -5 -66v-252c0 -18 1 -43 5 -66c7 -42 29 -82 76 -82h4c47 0 69 40 76 82
c3 22 5 47 5 67h115c0 -30 -2 -62 -7 -88c-17 -97 -77 -172 -189 -172h-4c-112 0 -172 75 -189 172c-5 27 -7 58 -7 86zM309 823h-117v120h117v-120z" />
    <glyph glyph-name="cdotaccent" unicode="&#x10b;" horiz-adv-x="425" 
d="M280 162l3 18h110c-3 -34 -11 -65 -18 -82c-26 -65 -77 -108 -156 -108c-100 0 -155 68 -171 164c-3 20 -5 41 -5 73v106c0 32 2 53 5 73c16 96 71 164 171 164c81 0 132 -45 157 -112c10 -28 16 -57 18 -88h-110c-1 10 -2 19 -4 28c-7 42 -27 67 -61 67s-54 -25 -61 -67
c-3 -17 -4 -36 -4 -67v-102c0 -31 1 -50 4 -67c7 -42 27 -67 61 -67s54 25 61 67zM278 643h-117v120h117v-120z" />
    <glyph glyph-name="Ccaron" unicode="&#x10c;" horiz-adv-x="481" 
d="M53 248v254c0 28 2 59 7 86c17 97 77 172 189 172h4c112 0 172 -75 189 -172c5 -26 7 -56 7 -83h-115c0 17 -2 40 -5 62c-7 42 -29 82 -76 82h-4c-47 0 -69 -40 -76 -82c-4 -23 -5 -48 -5 -66v-252c0 -18 1 -43 5 -66c7 -42 29 -82 76 -82h4c47 0 69 40 76 82
c3 22 5 47 5 67h115c0 -30 -2 -62 -7 -88c-17 -97 -77 -172 -189 -172h-4c-112 0 -172 75 -189 172c-5 27 -7 58 -7 86zM206 808l-118 194h92l70 -108l70 108h92l-118 -194h-88z" />
    <glyph glyph-name="ccaron" unicode="&#x10d;" horiz-adv-x="425" 
d="M280 162l3 18h110c-3 -34 -11 -65 -18 -82c-26 -65 -77 -108 -156 -108c-100 0 -155 68 -171 164c-3 20 -5 41 -5 73v106c0 32 2 53 5 73c16 96 71 164 171 164c81 0 132 -45 157 -112c10 -28 16 -57 18 -88h-110c-1 10 -2 19 -4 28c-7 42 -27 67 -61 67s-54 -25 -61 -67
c-3 -17 -4 -36 -4 -67v-102c0 -31 1 -50 4 -67c7 -42 27 -67 61 -67s54 25 61 67zM173 628l-118 194h92l70 -108l70 108h92l-118 -194h-88z" />
    <glyph glyph-name="Dcaron" unicode="&#x10e;" horiz-adv-x="507" 
d="M339 260v230c0 18 -1 43 -5 66c-5 32 -19 63 -55 76c-11 4 -25 6 -49 6h-51v-526h51c24 0 38 2 49 6c36 13 50 44 55 76c4 23 5 48 5 66zM64 0v750h164c28 0 49 -2 66 -5c94 -18 139 -85 153 -167c5 -27 7 -58 7 -86v-234c0 -28 -2 -59 -7 -86
c-14 -82 -59 -149 -153 -167c-17 -3 -38 -5 -66 -5h-164zM191 808l-118 194h92l70 -108l70 108h92l-118 -194h-88z" />
    <glyph glyph-name="dcaron" unicode="&#x10f;" horiz-adv-x="545" 
d="M291 234v105c0 39 -14 125 -71 125c-38 0 -55 -33 -62 -69c-3 -17 -4 -34 -4 -59v-117c0 -11 1 -37 3 -52c5 -35 20 -72 59 -72c36 0 57 32 67 68c5 18 8 43 8 71zM291 578v207h111v-785h-77l-9 73c-24 -55 -67 -83 -119 -83c-100 0 -139 77 -150 160c-3 21 -4 44 -4 72
v120c0 37 3 66 8 91c16 75 57 137 139 137c43 0 77 -16 101 -42h1s-1 25 -1 50zM506 673h-44v112h108v-95c0 -62 -27 -127 -115 -139v41c48 15 59 48 59 71c0 7 -4 10 -8 10z" />
    <glyph glyph-name="Dcroat" unicode="&#x110;" horiz-adv-x="535" 
d="M92 0v353h-78v83h78v314h164c28 0 49 -2 66 -5c94 -18 139 -85 153 -167c5 -27 7 -58 7 -86v-234c0 -28 -2 -59 -7 -86c-14 -82 -59 -149 -153 -167c-17 -3 -38 -5 -66 -5h-164zM367 260v230c0 18 -1 43 -5 66c-5 32 -19 63 -55 76c-11 4 -25 6 -49 6h-51v-202h91v-83
h-91v-241h51c24 0 38 2 49 6c36 13 50 44 55 76c4 23 5 48 5 66z" />
    <glyph glyph-name="dcroat" unicode="&#x111;" horiz-adv-x="474" 
d="M291 578v64h-128v71h128v72h111v-72h72v-71h-72v-642h-77l-9 73c-24 -55 -67 -83 -119 -83c-100 0 -139 77 -150 160c-3 21 -4 44 -4 72v120c0 37 3 66 8 91c16 75 57 137 139 137c43 0 77 -16 101 -42h1s-1 25 -1 50zM291 234v105c0 39 -14 125 -71 125
c-38 0 -55 -33 -62 -69c-3 -17 -4 -34 -4 -59v-117c0 -11 1 -37 3 -52c5 -35 20 -72 59 -72c36 0 57 32 67 68c5 18 8 43 8 71z" />
    <glyph glyph-name="Emacron" unicode="&#x112;" horiz-adv-x="452" 
d="M64 0v750h360v-111h-245v-199h203v-111h-203v-218h245v-111h-360zM373 897v-72h-264v72h264z" />
    <glyph glyph-name="emacron" unicode="&#x113;" horiz-adv-x="437" 
d="M219 92c40 0 59 38 62 75h110c-14 -109 -72 -177 -172 -177s-155 68 -171 164c-3 20 -5 41 -5 73v106c0 32 2 53 5 73c16 96 71 164 171 164s155 -68 170 -164c5 -29 6 -51 6 -103v-50h-241v-27c0 -31 1 -50 4 -67c7 -42 27 -67 61 -67zM158 400c-2 -15 -4 -30 -4 -53
h130c0 16 -1 36 -4 53c-7 42 -27 68 -61 68s-54 -26 -61 -68zM350 717v-72h-264v72h264z" />
    <glyph glyph-name="Ebreve" unicode="&#x114;" horiz-adv-x="452" 
d="M64 0v750h360v-111h-245v-199h203v-111h-203v-218h245v-111h-360zM238 803c-81 0 -138 57 -143 171h77c6 -68 31 -96 66 -96s60 28 66 96h77c-5 -114 -62 -171 -143 -171z" />
    <glyph glyph-name="ebreve" unicode="&#x115;" horiz-adv-x="437" 
d="M219 92c40 0 59 38 62 75h110c-14 -109 -72 -177 -172 -177s-155 68 -171 164c-3 20 -5 41 -5 73v106c0 32 2 53 5 73c16 96 71 164 171 164s155 -68 170 -164c5 -29 6 -51 6 -103v-50h-241v-27c0 -31 1 -50 4 -67c7 -42 27 -67 61 -67zM158 400c-2 -15 -4 -30 -4 -53
h130c0 16 -1 36 -4 53c-7 42 -27 68 -61 68s-54 -26 -61 -68zM218 623c-81 0 -138 57 -143 171h77c6 -68 31 -96 66 -96s60 28 66 96h77c-5 -114 -62 -171 -143 -171z" />
    <glyph glyph-name="Edotaccent" unicode="&#x116;" horiz-adv-x="452" 
d="M64 0v750h360v-111h-245v-199h203v-111h-203v-218h245v-111h-360zM301 823h-117v120h117v-120z" />
    <glyph glyph-name="edotaccent" unicode="&#x117;" horiz-adv-x="437" 
d="M219 92c40 0 59 38 62 75h110c-14 -109 -72 -177 -172 -177s-155 68 -171 164c-3 20 -5 41 -5 73v106c0 32 2 53 5 73c16 96 71 164 171 164s155 -68 170 -164c5 -29 6 -51 6 -103v-50h-241v-27c0 -31 1 -50 4 -67c7 -42 27 -67 61 -67zM158 400c-2 -15 -4 -30 -4 -53
h130c0 16 -1 36 -4 53c-7 42 -27 68 -61 68s-54 -26 -61 -68zM277 643h-117v120h117v-120z" />
    <glyph glyph-name="Eogonek" unicode="&#x118;" horiz-adv-x="452" 
d="M64 0v750h360v-111h-245v-199h203v-111h-203v-218h245v-111c-64 -49 -91 -89 -91 -124c0 -25 13 -42 39 -42c20 0 35 6 54 19l23 -53c-22 -19 -58 -31 -87 -31c-56 0 -105 31 -105 98c0 51 31 95 81 133h-274z" />
    <glyph glyph-name="eogonek" unicode="&#x119;" horiz-adv-x="437" 
d="M219 92c40 0 59 38 62 75h110c-8 -60 -30 -105 -62 -137c-46 -46 -126 -88 -126 -154c0 -25 13 -42 39 -42c20 0 35 6 54 19l23 -53c-22 -19 -58 -31 -87 -31c-56 0 -105 31 -105 98c0 47 27 88 70 124c-86 9 -134 74 -149 163c-3 20 -5 41 -5 73v106c0 32 2 53 5 73
c16 96 71 164 171 164s155 -68 170 -164c5 -29 6 -51 6 -103v-50h-241v-27c0 -31 1 -50 4 -67c7 -42 27 -67 61 -67zM158 400c-2 -15 -4 -30 -4 -53h130c0 16 -1 36 -4 53c-7 42 -27 68 -61 68s-54 -26 -61 -68z" />
    <glyph glyph-name="Ecaron" unicode="&#x11a;" horiz-adv-x="452" 
d="M64 0v750h360v-111h-245v-199h203v-111h-203v-218h245v-111h-360zM192 808l-118 194h92l70 -108l70 108h92l-118 -194h-88z" />
    <glyph glyph-name="ecaron" unicode="&#x11b;" horiz-adv-x="437" 
d="M219 92c40 0 59 38 62 75h110c-14 -109 -72 -177 -172 -177s-155 68 -171 164c-3 20 -5 41 -5 73v106c0 32 2 53 5 73c16 96 71 164 171 164s155 -68 170 -164c5 -29 6 -51 6 -103v-50h-241v-27c0 -31 1 -50 4 -67c7 -42 27 -67 61 -67zM158 400c-2 -15 -4 -30 -4 -53
h130c0 16 -1 36 -4 53c-7 42 -27 68 -61 68s-54 -26 -61 -68zM174 628l-118 194h92l70 -108l70 108h92l-118 -194h-88z" />
    <glyph glyph-name="Gcircumflex" unicode="&#x11c;" horiz-adv-x="504" 
d="M241 -10c-113 0 -170 84 -184 188c-3 23 -4 47 -4 70v254c0 28 2 59 7 86c17 97 77 172 189 172h4c112 0 172 -75 189 -172c5 -26 7 -56 7 -83h-115c0 17 -2 40 -5 62c-7 42 -29 82 -76 82h-4c-47 0 -69 -40 -76 -82c-4 -23 -5 -48 -5 -66v-252c0 -18 1 -43 5 -66
c7 -42 29 -82 76 -82h4c49 0 71 40 78 82c3 22 5 47 5 67v26h-100v107h213v-383h-67l-16 67c-30 -53 -71 -77 -125 -77zM296 1002l118 -194h-92l-70 108l-70 -108h-92l118 194h88z" />
    <glyph glyph-name="gcircumflex" unicode="&#x11d;" horiz-adv-x="463" 
d="M291 246v94c0 39 -14 125 -71 125c-38 0 -55 -33 -62 -69c-3 -17 -4 -34 -4 -59v-107c0 -11 1 -37 3 -52c5 -35 20 -72 59 -72c36 0 57 32 67 68c5 18 8 38 8 72zM43 228v110c0 28 1 51 4 72c13 83 54 160 150 160c52 0 98 -26 119 -73l9 63h77v-569c0 -37 -3 -62 -8 -85
c-21 -88 -81 -144 -168 -144c-90 0 -162 58 -174 175h110c8 -51 35 -73 64 -73c33 0 55 25 62 74c2 12 3 30 3 52v12c0 25 1 50 1 50h-1c-24 -33 -58 -52 -101 -52c-82 0 -125 58 -140 137c-5 26 -7 54 -7 91zM275 822l118 -194h-92l-70 108l-70 -108h-92l118 194h88z" />
    <glyph glyph-name="Gbreve" unicode="&#x11e;" horiz-adv-x="504" 
d="M241 -10c-113 0 -170 84 -184 188c-3 23 -4 47 -4 70v254c0 28 2 59 7 86c17 97 77 172 189 172h4c112 0 172 -75 189 -172c5 -26 7 -56 7 -83h-115c0 17 -2 40 -5 62c-7 42 -29 82 -76 82h-4c-47 0 -69 -40 -76 -82c-4 -23 -5 -48 -5 -66v-252c0 -18 1 -43 5 -66
c7 -42 29 -82 76 -82h4c49 0 71 40 78 82c3 22 5 47 5 67v26h-100v107h213v-383h-67l-16 67c-30 -53 -71 -77 -125 -77zM252 803c-81 0 -138 57 -143 171h77c6 -68 31 -96 66 -96s60 28 66 96h77c-5 -114 -62 -171 -143 -171z" />
    <glyph glyph-name="gbreve" unicode="&#x11f;" horiz-adv-x="463" 
d="M291 246v94c0 39 -14 125 -71 125c-38 0 -55 -33 -62 -69c-3 -17 -4 -34 -4 -59v-107c0 -11 1 -37 3 -52c5 -35 20 -72 59 -72c36 0 57 32 67 68c5 18 8 38 8 72zM43 228v110c0 28 1 51 4 72c13 83 54 160 150 160c52 0 98 -26 119 -73l9 63h77v-569c0 -37 -3 -62 -8 -85
c-21 -88 -81 -144 -168 -144c-90 0 -162 58 -174 175h110c8 -51 35 -73 64 -73c33 0 55 25 62 74c2 12 3 30 3 52v12c0 25 1 50 1 50h-1c-24 -33 -58 -52 -101 -52c-82 0 -125 58 -140 137c-5 26 -7 54 -7 91zM227 623c-81 0 -138 57 -143 171h77c6 -68 31 -96 66 -96
s60 28 66 96h77c-5 -114 -62 -171 -143 -171z" />
    <glyph glyph-name="Gdotaccent" unicode="&#x120;" horiz-adv-x="504" 
d="M241 -10c-113 0 -170 84 -184 188c-3 23 -4 47 -4 70v254c0 28 2 59 7 86c17 97 77 172 189 172h4c112 0 172 -75 189 -172c5 -26 7 -56 7 -83h-115c0 17 -2 40 -5 62c-7 42 -29 82 -76 82h-4c-47 0 -69 -40 -76 -82c-4 -23 -5 -48 -5 -66v-252c0 -18 1 -43 5 -66
c7 -42 29 -82 76 -82h4c49 0 71 40 78 82c3 22 5 47 5 67v26h-100v107h213v-383h-67l-16 67c-30 -53 -71 -77 -125 -77zM311 823h-117v120h117v-120z" />
    <glyph glyph-name="gdotaccent" unicode="&#x121;" horiz-adv-x="463" 
d="M291 246v94c0 39 -14 125 -71 125c-38 0 -55 -33 -62 -69c-3 -17 -4 -34 -4 -59v-107c0 -11 1 -37 3 -52c5 -35 20 -72 59 -72c36 0 57 32 67 68c5 18 8 38 8 72zM43 228v110c0 28 1 51 4 72c13 83 54 160 150 160c52 0 98 -26 119 -73l9 63h77v-569c0 -37 -3 -62 -8 -85
c-21 -88 -81 -144 -168 -144c-90 0 -162 58 -174 175h110c8 -51 35 -73 64 -73c33 0 55 25 62 74c2 12 3 30 3 52v12c0 25 1 50 1 50h-1c-24 -33 -58 -52 -101 -52c-82 0 -125 58 -140 137c-5 26 -7 54 -7 91zM290 643h-117v120h117v-120z" />
    <glyph glyph-name="Gcommaaccent" unicode="&#x122;" horiz-adv-x="504" 
d="M241 -10c-113 0 -170 84 -184 188c-3 23 -4 47 -4 70v254c0 28 2 59 7 86c17 97 77 172 189 172h4c112 0 172 -75 189 -172c5 -26 7 -56 7 -83h-115c0 17 -2 40 -5 62c-7 42 -29 82 -76 82h-4c-47 0 -69 -40 -76 -82c-4 -23 -5 -48 -5 -66v-252c0 -18 1 -43 5 -66
c7 -42 29 -82 76 -82h4c49 0 71 40 78 82c3 22 5 47 5 67v26h-100v107h213v-383h-67l-16 67c-30 -53 -71 -77 -125 -77zM246 -162h-44v112h108v-95c0 -62 -27 -127 -115 -139v41c48 15 59 48 59 71c0 7 -4 10 -8 10z" />
    <glyph glyph-name="gcommaaccent" unicode="&#x123;" horiz-adv-x="463" 
d="M203 753h44v-112h-108v95c0 62 27 127 115 139v-41c-48 -15 -59 -48 -59 -71c0 -7 4 -10 8 -10zM291 246v94c0 39 -14 125 -71 125c-38 0 -55 -33 -62 -69c-3 -17 -4 -34 -4 -59v-107c0 -11 1 -37 3 -52c5 -35 20 -72 59 -72c36 0 57 32 67 68c5 18 8 38 8 72zM43 228
v110c0 28 1 51 4 72c13 83 54 160 150 160c52 0 98 -26 119 -73l9 63h77v-569c0 -37 -3 -62 -8 -85c-21 -88 -81 -144 -168 -144c-90 0 -162 58 -174 175h110c8 -51 35 -73 64 -73c33 0 55 25 62 74c2 12 3 30 3 52v12c0 25 1 50 1 50h-1c-24 -33 -58 -52 -101 -52
c-82 0 -125 58 -140 137c-5 26 -7 54 -7 91z" />
    <glyph glyph-name="Hcircumflex" unicode="&#x124;" horiz-adv-x="533" 
d="M64 0v750h115v-303h175v303h115v-750h-115v334h-175v-334h-115zM310 1012l118 -194h-92l-70 108l-70 -108h-92l118 194h88z" />
    <glyph glyph-name="hcircumflex" unicode="&#x125;" horiz-adv-x="478" 
d="M420 0h-111v340c0 11 -1 37 -3 52c-5 35 -20 72 -59 72c-36 0 -57 -32 -67 -68c-5 -18 -8 -38 -8 -72v-324h-111v785h111v-217c0 -25 -1 -50 -1 -50h1c24 33 58 52 101 52c82 0 125 -58 140 -137c5 -26 7 -54 7 -91v-342zM273 1022l118 -194h-92l-70 108l-70 -108h-92
l118 194h88z" />
    <glyph glyph-name="Hbar" unicode="&#x126;" horiz-adv-x="549" 
d="M72 0v560h-71v71h71v119h115v-119h175v119h115v-119h71v-71h-71v-560h-115v334h-175v-334h-115zM187 447h175v113h-175v-113z" />
    <glyph glyph-name="hbar" unicode="&#x127;" horiz-adv-x="489" 
d="M431 0h-111v340c0 11 -1 37 -3 52c-5 35 -20 72 -59 72c-36 0 -57 -32 -67 -68c-5 -18 -8 -38 -8 -72v-324h-111v642h-72v71h72v72h111v-72h128v-71h-128v-74c0 -25 -1 -50 -1 -50h1c24 33 58 52 101 52c82 0 125 -58 140 -137c5 -26 7 -54 7 -91v-342z" />
    <glyph glyph-name="Itilde" unicode="&#x128;" horiz-adv-x="243" 
d="M64 0v750h115v-750h-115zM24 819h-65c4 84 38 143 102 143c27 0 49 -10 71 -34c29 -30 43 -43 59 -43c17 0 29 15 33 63h65c-4 -84 -38 -143 -102 -143c-27 0 -49 10 -71 34c-29 30 -43 43 -59 43c-17 0 -29 -15 -33 -63z" />
    <glyph glyph-name="itilde" unicode="&#x129;" horiz-adv-x="233" 
d="M16 639h-65c4 84 38 143 102 143c27 0 49 -10 71 -34c29 -30 43 -43 59 -43c17 0 29 15 33 63h65c-4 -84 -38 -143 -102 -143c-27 0 -49 10 -71 34c-29 30 -43 43 -59 43c-17 0 -29 -15 -33 -63zM61 0v560h111v-560h-111z" />
    <glyph glyph-name="uni012A" unicode="&#x12a;" horiz-adv-x="243" 
d="M64 0v750h115v-750h-115zM253 897v-72h-264v72h264z" />
    <glyph glyph-name="imacron" unicode="&#x12b;" horiz-adv-x="233" 
d="M248 717v-72h-264v72h264zM61 0v560h111v-560h-111z" />
    <glyph glyph-name="Ibreve" unicode="&#x12c;" horiz-adv-x="243" 
d="M64 0v750h115v-750h-115zM121 803c-81 0 -138 57 -143 171h77c6 -68 31 -96 66 -96s60 28 66 96h77c-5 -114 -62 -171 -143 -171z" />
    <glyph glyph-name="uni012D" unicode="&#x12d;" horiz-adv-x="233" 
d="M116 623c-81 0 -138 57 -143 171h77c6 -68 31 -96 66 -96s60 28 66 96h77c-5 -114 -62 -171 -143 -171zM61 0v560h111v-560h-111z" />
    <glyph glyph-name="Iogonek" unicode="&#x12e;" horiz-adv-x="243" 
d="M12 -133c0 40 19 76 52 108v775h115v-750c-64 -49 -91 -89 -91 -124c0 -25 13 -42 39 -42c20 0 35 6 54 19l23 -53c-22 -19 -58 -31 -87 -31c-56 0 -105 31 -105 98z" />
    <glyph glyph-name="iogonek" unicode="&#x12f;" horiz-adv-x="233" 
d="M172 560v-560c-64 -49 -91 -89 -91 -124c0 -25 13 -42 39 -42c20 0 35 6 54 19l23 -53c-22 -19 -58 -31 -87 -31c-56 0 -105 31 -105 98c0 42 21 79 56 112v581h111zM59 645v120h115v-120h-115z" />
    <glyph glyph-name="Idotaccent" unicode="&#x130;" horiz-adv-x="243" 
d="M64 0v750h115v-750h-115zM180 823h-117v120h117v-120z" />
    <glyph glyph-name="dotlessi" unicode="&#x131;" horiz-adv-x="233" 
d="M61 0v560h111v-560h-111z" />
    <glyph glyph-name="IJ" unicode="&#x132;" horiz-adv-x="680" 
d="M64 0v750h115v-750h-115zM381 276v-60c0 -22 2 -37 4 -50c6 -39 27 -65 58 -65c30 0 51 22 58 63c2 12 4 28 4 52v534h115v-534c0 -25 -1 -41 -3 -57c-13 -98 -69 -169 -174 -169c-101 0 -158 63 -173 165c-2 17 -4 34 -4 62v59h115z" />
    <glyph glyph-name="ij" unicode="&#x133;" horiz-adv-x="469" 
d="M61 0v560h111v-560h-111zM59 645v120h115v-120h-115zM295 645v120h115v-120h-115zM297 -41v601h111v-604c0 -132 -66 -193 -166 -193c-21 0 -40 2 -53 4v106c14 -2 28 -4 42 -4c45 0 66 23 66 90z" />
    <glyph glyph-name="Jcircumflex" unicode="&#x134;" horiz-adv-x="447" 
d="M148 276v-60c0 -22 2 -37 4 -50c6 -39 27 -65 58 -65c30 0 51 22 58 63c2 12 4 28 4 52v534h115v-534c0 -25 -1 -41 -3 -57c-13 -98 -69 -169 -174 -169c-101 0 -158 63 -173 165c-2 17 -4 34 -4 62v59h115zM370 1002l118 -194h-92l-70 108l-70 -108h-92l118 194h88z" />
    <glyph glyph-name="jcircumflex" unicode="&#x135;" horiz-adv-x="236" 
d="M64 -41v601h111v-604c0 -132 -66 -193 -166 -193c-21 0 -40 2 -53 4v106c14 -2 28 -4 42 -4c45 0 66 23 66 90zM163 822l118 -194h-92l-70 108l-70 -108h-92l118 194h88z" />
    <glyph glyph-name="Kcommaaccent" unicode="&#x136;" horiz-adv-x="494" 
d="M501 0h-126l-141 348l-55 -90v-258h-115v750h115v-306l1 -1s19 35 28 49l153 258h126l-180 -287zM261 -162h-44v112h108v-95c0 -62 -27 -127 -115 -139v41c48 15 59 48 59 71c0 7 -4 10 -8 10z" />
    <glyph glyph-name="kcommaaccent" unicode="&#x137;" 
d="M206 265l-34 -47v-218h-111v785h111v-409l129 184h125l-145 -198l157 -362h-124zM231 -162h-44v112h108v-95c0 -62 -27 -127 -115 -139v41c48 15 59 48 59 71c0 7 -4 10 -8 10z" />
    <glyph glyph-name="kgreenlandic" unicode="&#x138;" 
d="M206 265l-34 -47v-218h-111v560h111v-184l129 184h125l-145 -198l157 -362h-124z" />
    <glyph glyph-name="Lacute" unicode="&#x139;" horiz-adv-x="445" 
d="M64 0v750h115v-638h248v-112h-363zM273 988v-6l-127 -175h-82l88 181h121z" />
    <glyph glyph-name="lacute" unicode="&#x13a;" horiz-adv-x="233" 
d="M61 0v785h111v-785h-111zM270 1018v-6l-127 -175h-82l88 181h121z" />
    <glyph glyph-name="Lcommaaccent" unicode="&#x13b;" horiz-adv-x="445" 
d="M64 0v750h115v-638h248v-112h-363zM236 -162h-44v112h108v-95c0 -62 -27 -127 -115 -139v41c48 15 59 48 59 71c0 7 -4 10 -8 10z" />
    <glyph glyph-name="lcommaaccent" unicode="&#x13c;" horiz-adv-x="233" 
d="M61 0v785h111v-785h-111zM107 -162h-44v112h108v-95c0 -62 -27 -127 -115 -139v41c48 15 59 48 59 71c0 7 -4 10 -8 10z" />
    <glyph glyph-name="Lcaron" unicode="&#x13d;" horiz-adv-x="445" 
d="M64 0v750h115v-638h248v-112h-363zM358 673h-44v112h108v-95c0 -62 -27 -127 -115 -139v41c48 15 59 48 59 71c0 7 -4 10 -8 10z" />
    <glyph glyph-name="lcaron" unicode="&#x13e;" horiz-adv-x="315" 
d="M61 0v785h111v-785h-111zM276 673h-44v112h108v-95c0 -62 -27 -127 -115 -139v41c48 15 59 48 59 71c0 7 -4 10 -8 10z" />
    <glyph glyph-name="Ldot" unicode="&#x13f;" horiz-adv-x="445" 
d="M64 0v750h115v-638h248v-112h-363zM401 348h-117v120h117v-120z" />
    <glyph glyph-name="ldot" unicode="&#x140;" horiz-adv-x="349" 
d="M61 0v785h111v-785h-111zM349 348h-117v120h117v-120z" />
    <glyph glyph-name="Lslash" unicode="&#x141;" horiz-adv-x="477" 
d="M337 562v-108l-126 -98v-244h248v-112h-363v268l-82 -65v110l82 64v373h115v-286z" />
    <glyph glyph-name="lslash" unicode="&#x142;" horiz-adv-x="305" 
d="M208 523l83 78v-110l-83 -78v-413h-111v313l-83 -78v110l83 78v362h111v-262z" />
    <glyph glyph-name="Nacute" unicode="&#x143;" horiz-adv-x="532" 
d="M359 254h1s-1 33 -1 58v438h109v-750h-127l-168 497h-1s1 -33 1 -58v-439h-109v750h127zM401 988v-6l-127 -175h-82l88 181h121z" />
    <glyph glyph-name="nacute" unicode="&#x144;" horiz-adv-x="478" 
d="M273 570c82 0 125 -57 140 -137c5 -26 7 -57 7 -91v-342h-111v340c0 11 -1 37 -3 52c-5 39 -20 72 -59 72c-36 0 -57 -32 -67 -68c-5 -18 -8 -38 -8 -72v-324h-111v560h77l10 -75c24 55 73 85 125 85zM354 808v-6l-127 -175h-82l88 181h121z" />
    <glyph glyph-name="Ncommaaccent" unicode="&#x145;" horiz-adv-x="532" 
d="M359 254h1s-1 33 -1 58v438h109v-750h-127l-168 497h-1s1 -33 1 -58v-439h-109v750h127zM255 -162h-44v112h108v-95c0 -62 -27 -127 -115 -139v41c48 15 59 48 59 71c0 7 -4 10 -8 10z" />
    <glyph glyph-name="ncommaaccent" unicode="&#x146;" horiz-adv-x="478" 
d="M273 570c82 0 125 -57 140 -137c5 -26 7 -57 7 -91v-342h-111v340c0 11 -1 37 -3 52c-5 39 -20 72 -59 72c-36 0 -57 -32 -67 -68c-5 -18 -8 -38 -8 -72v-324h-111v560h77l10 -75c24 55 73 85 125 85zM233 -162h-44v112h108v-95c0 -62 -27 -127 -115 -139v41
c48 15 59 48 59 71c0 7 -4 10 -8 10z" />
    <glyph glyph-name="Ncaron" unicode="&#x147;" horiz-adv-x="532" 
d="M359 254h1s-1 33 -1 58v438h109v-750h-127l-168 497h-1s1 -33 1 -58v-439h-109v750h127zM222 808l-118 194h92l70 -108l70 108h92l-118 -194h-88z" />
    <glyph glyph-name="ncaron" unicode="&#x148;" horiz-adv-x="478" 
d="M273 570c82 0 125 -57 140 -137c5 -26 7 -57 7 -91v-342h-111v340c0 11 -1 37 -3 52c-5 39 -20 72 -59 72c-36 0 -57 -32 -67 -68c-5 -18 -8 -38 -8 -72v-324h-111v560h77l10 -75c24 55 73 85 125 85zM195 628l-118 194h92l70 -108l70 108h92l-118 -194h-88z" />
    <glyph glyph-name="napostrophe" unicode="&#x149;" horiz-adv-x="590" 
d="M385 570c82 0 125 -57 140 -137c5 -26 7 -57 7 -91v-342h-111v340c0 11 -1 37 -3 52c-5 39 -20 72 -59 72c-36 0 -57 -32 -67 -68c-5 -18 -8 -38 -8 -72v-324h-111v560h77l10 -75c24 55 73 85 125 85zM63 649h-55v141h135v-119c0 -83 -33 -172 -143 -187v52
c60 19 74 62 74 101c0 9 -5 12 -11 12z" />
    <glyph glyph-name="Eng" unicode="&#x14a;" horiz-adv-x="532" 
d="M357 -41v41h-16l-168 497h-1s1 -33 1 -58v-439h-109v750h127l168 -496h1s-1 33 -1 58v438h109v-794c0 -132 -66 -193 -166 -193c-21 0 -40 2 -53 4v106c14 -2 28 -4 42 -4c45 0 66 23 66 90z" />
    <glyph glyph-name="eng" unicode="&#x14b;" horiz-adv-x="478" 
d="M309 -41v381c0 11 -1 37 -3 52c-5 39 -20 72 -59 72c-36 0 -57 -32 -67 -68c-5 -18 -8 -38 -8 -72v-324h-111v560h77l10 -75c24 55 73 85 125 85c82 0 125 -57 140 -137c5 -26 7 -57 7 -91v-386c0 -132 -66 -193 -166 -193c-21 0 -40 2 -53 4v106c14 -2 28 -4 42 -4
c45 0 66 23 66 90z" />
    <glyph glyph-name="Omacron" unicode="&#x14c;" horiz-adv-x="502" 
d="M168 501v-252c0 -18 1 -43 5 -66c7 -42 29 -82 76 -82h4c47 0 69 40 76 82c4 23 5 48 5 66v252c0 18 -1 43 -5 66c-7 42 -29 82 -76 82h-4c-47 0 -69 -40 -76 -82c-4 -23 -5 -48 -5 -66zM449 502v-254c0 -28 -2 -59 -7 -86c-17 -97 -77 -172 -189 -172h-4
c-112 0 -172 75 -189 172c-5 27 -7 58 -7 86v254c0 28 2 59 7 86c17 97 77 172 189 172h4c112 0 172 -75 189 -172c5 -27 7 -58 7 -86zM383 897v-72h-264v72h264z" />
    <glyph glyph-name="omacron" unicode="&#x14d;" 
d="M154 331v-102c0 -31 1 -50 4 -67c7 -42 27 -67 61 -67s54 25 61 67c3 17 4 36 4 67v102c0 31 -1 50 -4 67c-7 42 -27 67 -61 67s-54 -25 -61 -67c-3 -17 -4 -36 -4 -67zM395 333v-106c0 -32 -2 -53 -5 -73c-16 -96 -71 -164 -171 -164s-155 68 -171 164
c-3 20 -5 41 -5 73v106c0 32 2 53 5 73c16 96 71 164 171 164s155 -68 171 -164c3 -20 5 -41 5 -73zM351 717v-72h-264v72h264z" />
    <glyph glyph-name="Obreve" unicode="&#x14e;" horiz-adv-x="502" 
d="M168 501v-252c0 -18 1 -43 5 -66c7 -42 29 -82 76 -82h4c47 0 69 40 76 82c4 23 5 48 5 66v252c0 18 -1 43 -5 66c-7 42 -29 82 -76 82h-4c-47 0 -69 -40 -76 -82c-4 -23 -5 -48 -5 -66zM449 502v-254c0 -28 -2 -59 -7 -86c-17 -97 -77 -172 -189 -172h-4
c-112 0 -172 75 -189 172c-5 27 -7 58 -7 86v254c0 28 2 59 7 86c17 97 77 172 189 172h4c112 0 172 -75 189 -172c5 -27 7 -58 7 -86zM251 803c-81 0 -138 57 -143 171h77c6 -68 31 -96 66 -96s60 28 66 96h77c-5 -114 -62 -171 -143 -171z" />
    <glyph glyph-name="obreve" unicode="&#x14f;" 
d="M154 331v-102c0 -31 1 -50 4 -67c7 -42 27 -67 61 -67s54 25 61 67c3 17 4 36 4 67v102c0 31 -1 50 -4 67c-7 42 -27 67 -61 67s-54 -25 -61 -67c-3 -17 -4 -36 -4 -67zM395 333v-106c0 -32 -2 -53 -5 -73c-16 -96 -71 -164 -171 -164s-155 68 -171 164
c-3 20 -5 41 -5 73v106c0 32 2 53 5 73c16 96 71 164 171 164s155 -68 171 -164c3 -20 5 -41 5 -73zM219 623c-81 0 -138 57 -143 171h77c6 -68 31 -96 66 -96s60 28 66 96h77c-5 -114 -62 -171 -143 -171z" />
    <glyph glyph-name="Ohungarumlaut" unicode="&#x150;" horiz-adv-x="502" 
d="M168 501v-252c0 -18 1 -43 5 -66c7 -42 29 -82 76 -82h4c47 0 69 40 76 82c4 23 5 48 5 66v252c0 18 -1 43 -5 66c-7 42 -29 82 -76 82h-4c-47 0 -69 -40 -76 -82c-4 -23 -5 -48 -5 -66zM449 502v-254c0 -28 -2 -59 -7 -86c-17 -97 -77 -172 -189 -172h-4
c-112 0 -172 75 -189 172c-5 27 -7 58 -7 86v254c0 28 2 59 7 86c17 97 77 172 189 172h4c112 0 172 -75 189 -172c5 -27 7 -58 7 -86zM301 989v-3l-120 -179h-82l86 182h116zM465 989v-3l-120 -179h-82l86 182h116z" />
    <glyph glyph-name="ohungarumlaut" unicode="&#x151;" 
d="M154 331v-102c0 -31 1 -50 4 -67c7 -42 27 -67 61 -67s54 25 61 67c3 17 4 36 4 67v102c0 31 -1 50 -4 67c-7 42 -27 67 -61 67s-54 -25 -61 -67c-3 -17 -4 -36 -4 -67zM395 333v-106c0 -32 -2 -53 -5 -73c-16 -96 -71 -164 -171 -164s-155 68 -171 164
c-3 20 -5 41 -5 73v106c0 32 2 53 5 73c16 96 71 164 171 164s155 -68 171 -164c3 -20 5 -41 5 -73zM279 809v-3l-120 -179h-82l86 182h116zM443 809v-3l-120 -179h-82l86 182h116z" />
    <glyph glyph-name="OE" unicode="&#x152;" horiz-adv-x="687" 
d="M659 0h-410c-112 0 -172 75 -189 172c-5 27 -7 58 -7 86v234c0 28 2 59 7 86c17 97 77 172 189 172h410v-111h-220v-199h179v-111h-179v-218h220v-111zM249 111h75v528h-75c-47 0 -69 -40 -76 -82c-4 -23 -5 -48 -5 -66v-232c0 -18 1 -43 5 -66c7 -42 29 -82 76 -82z" />
    <glyph glyph-name="oe" unicode="&#x153;" horiz-adv-x="678" 
d="M460 92c40 0 59 38 62 75h110c-14 -109 -72 -177 -172 -177c-60 0 -97 24 -121 61c-23 -37 -60 -61 -120 -61c-100 0 -155 68 -171 164c-3 20 -5 41 -5 73v106c0 32 2 53 5 73c16 96 71 164 171 164c59 0 97 -24 120 -62c23 37 61 62 121 62c100 0 155 -68 170 -164
c5 -29 6 -51 6 -103v-50h-241v-27c0 -31 1 -50 4 -67c7 -42 27 -67 61 -67zM154 331v-102c0 -31 1 -50 4 -67c7 -42 27 -67 61 -67s54 25 61 67c3 17 4 36 4 67v102c0 31 -1 50 -4 67c-7 42 -27 67 -61 67s-54 -25 -61 -67c-3 -17 -4 -36 -4 -67zM399 400
c-2 -15 -4 -30 -4 -53h130c0 16 -1 36 -4 53c-7 42 -27 68 -61 68s-54 -26 -61 -68z" />
    <glyph glyph-name="Racute" unicode="&#x154;" horiz-adv-x="488" 
d="M435 237l8 -138c3 -44 10 -78 31 -97v-2h-119c-16 22 -23 56 -25 90l-9 132c-4 53 -19 81 -51 91c-11 3 -23 5 -47 5h-44v-318h-115v750h157c26 0 49 -2 67 -5c96 -17 154 -80 154 -194c0 -72 -32 -134 -99 -171v-1c59 -28 87 -68 92 -142zM217 639h-38v-212h41
c20 0 33 1 42 4c44 13 65 56 65 111c0 57 -23 85 -66 93c-10 2 -24 4 -44 4zM361 988v-6l-127 -175h-82l88 181h121z" />
    <glyph glyph-name="racute" unicode="&#x155;" horiz-adv-x="348" 
d="M267 464c-58 0 -83 -56 -91 -117c-3 -26 -4 -55 -4 -86v-261h-111v560h77l10 -81c26 64 73 91 125 91c22 0 46 -4 64 -10l-2 -112c-21 9 -43 16 -68 16zM323 808v-6l-127 -175h-82l88 181h121z" />
    <glyph glyph-name="Rcommaaccent" unicode="&#x156;" horiz-adv-x="488" 
d="M435 237l8 -138c3 -44 10 -78 31 -97v-2h-119c-16 22 -23 56 -25 90l-9 132c-4 53 -19 81 -51 91c-11 3 -23 5 -47 5h-44v-318h-115v750h157c26 0 49 -2 67 -5c96 -17 154 -80 154 -194c0 -72 -32 -134 -99 -171v-1c59 -28 87 -68 92 -142zM217 639h-38v-212h41
c20 0 33 1 42 4c44 13 65 56 65 111c0 57 -23 85 -66 93c-10 2 -24 4 -44 4zM258 -162h-44v112h108v-95c0 -62 -27 -127 -115 -139v41c48 15 59 48 59 71c0 7 -4 10 -8 10z" />
    <glyph glyph-name="rcommaaccent" unicode="&#x157;" horiz-adv-x="348" 
d="M267 464c-58 0 -83 -56 -91 -117c-3 -26 -4 -55 -4 -86v-261h-111v560h77l10 -81c26 64 73 91 125 91c22 0 46 -4 64 -10l-2 -112c-21 9 -43 16 -68 16zM106 -162h-44v112h108v-95c0 -62 -27 -127 -115 -139v41c48 15 59 48 59 71c0 7 -4 10 -8 10z" />
    <glyph glyph-name="Rcaron" unicode="&#x158;" horiz-adv-x="488" 
d="M435 237l8 -138c3 -44 10 -78 31 -97v-2h-119c-16 22 -23 56 -25 90l-9 132c-4 53 -19 81 -51 91c-11 3 -23 5 -47 5h-44v-318h-115v750h157c26 0 49 -2 67 -5c96 -17 154 -80 154 -194c0 -72 -32 -134 -99 -171v-1c59 -28 87 -68 92 -142zM217 639h-38v-212h41
c20 0 33 1 42 4c44 13 65 56 65 111c0 57 -23 85 -66 93c-10 2 -24 4 -44 4zM182 808l-118 194h92l70 -108l70 108h92l-118 -194h-88z" />
    <glyph glyph-name="rcaron" unicode="&#x159;" horiz-adv-x="348" 
d="M267 464c-58 0 -83 -56 -91 -117c-3 -26 -4 -55 -4 -86v-261h-111v560h77l10 -81c26 64 73 91 125 91c22 0 46 -4 64 -10l-2 -112c-21 9 -43 16 -68 16zM149 628l-118 194h92l70 -108l70 108h92l-118 -194h-88z" />
    <glyph glyph-name="Sacute" unicode="&#x15a;" horiz-adv-x="470" 
d="M429 534h-115c0 70 -24 120 -77 120c-55 0 -73 -46 -73 -92c0 -60 30 -90 77 -113l35 -17c91 -44 159 -106 159 -228c0 -131 -84 -214 -198 -214c-128 0 -200 102 -203 231h116c2 -74 38 -125 87 -125c48 0 83 39 83 110c0 62 -35 93 -96 124l-31 16
c-80 41 -143 89 -143 215c0 127 80 199 187 199c112 0 197 -75 192 -226zM357 988v-6l-127 -175h-82l88 181h121z" />
    <glyph glyph-name="sacute" unicode="&#x15b;" horiz-adv-x="393" 
d="M172 247c-91 29 -133 79 -133 166c0 96 60 157 155 157c94 0 152 -52 162 -159h-111c-4 42 -19 65 -51 65c-33 0 -48 -23 -48 -59c0 -43 18 -64 70 -82c75 -26 147 -73 147 -177c0 -105 -62 -168 -161 -168c-104 0 -169 59 -176 177h111c5 -54 24 -82 63 -82
c34 0 54 28 54 72c0 50 -25 72 -82 90zM311 808v-6l-127 -175h-82l88 181h121z" />
    <glyph glyph-name="Scircumflex" unicode="&#x15c;" horiz-adv-x="470" 
d="M429 534h-115c0 70 -24 120 -77 120c-55 0 -73 -46 -73 -92c0 -60 30 -90 77 -113l35 -17c91 -44 159 -106 159 -228c0 -131 -84 -214 -198 -214c-128 0 -200 102 -203 231h116c2 -74 38 -125 87 -125c48 0 83 39 83 110c0 62 -35 93 -96 124l-31 16
c-80 41 -143 89 -143 215c0 127 80 199 187 199c112 0 197 -75 192 -226zM281 1002l118 -194h-92l-70 108l-70 -108h-92l118 194h88z" />
    <glyph glyph-name="scircumflex" unicode="&#x15d;" horiz-adv-x="393" 
d="M172 247c-91 29 -133 79 -133 166c0 96 60 157 155 157c94 0 152 -52 162 -159h-111c-4 42 -19 65 -51 65c-33 0 -48 -23 -48 -59c0 -43 18 -64 70 -82c75 -26 147 -73 147 -177c0 -105 -62 -168 -161 -168c-104 0 -169 59 -176 177h111c5 -54 24 -82 63 -82
c34 0 54 28 54 72c0 50 -25 72 -82 90zM241 822l118 -194h-92l-70 108l-70 -108h-92l118 194h88z" />
    <glyph glyph-name="Scedilla" unicode="&#x15e;" horiz-adv-x="470" 
d="M429 534h-115c0 70 -24 120 -77 120c-55 0 -73 -46 -73 -92c0 -60 30 -90 77 -113l35 -17c91 -44 159 -106 159 -228c0 -131 -84 -213 -197 -214l-10 -36c45 -13 88 -44 88 -99c0 -57 -43 -94 -91 -94c-56 0 -94 35 -96 93h58c3 -24 15 -37 35 -37c19 0 29 17 29 38
c0 22 -14 41 -49 52l-20 6c-18 5 -25 15 -18 35l17 49c-93 25 -145 115 -147 224h116c2 -74 38 -125 87 -125c48 0 83 39 83 110c0 62 -35 93 -96 124l-31 16c-80 41 -143 89 -143 215c0 127 80 199 187 199c112 0 197 -75 192 -226z" />
    <glyph glyph-name="scedilla" unicode="&#x15f;" horiz-adv-x="393" 
d="M172 247c-91 29 -133 79 -133 166c0 96 60 157 155 157c94 0 152 -52 162 -159h-111c-4 42 -19 65 -51 65c-33 0 -48 -23 -48 -59c0 -43 18 -64 70 -82c75 -26 147 -73 147 -177c0 -105 -62 -167 -160 -168l-10 -36c45 -13 88 -44 88 -99c0 -57 -43 -94 -91 -94
c-56 0 -94 35 -96 93h58c3 -24 15 -37 35 -37c19 0 29 17 29 38c0 22 -14 41 -49 52l-20 6c-18 5 -25 15 -18 35l16 49c-70 18 -114 75 -119 170h111c5 -54 24 -82 63 -82c34 0 54 28 54 72c0 50 -25 72 -82 90z" />
    <glyph glyph-name="Scaron" unicode="&#x160;" horiz-adv-x="470" 
d="M429 534h-115c0 70 -24 120 -77 120c-55 0 -73 -46 -73 -92c0 -60 30 -90 77 -113l35 -17c91 -44 159 -106 159 -228c0 -131 -84 -214 -198 -214c-128 0 -200 102 -203 231h116c2 -74 38 -125 87 -125c48 0 83 39 83 110c0 62 -35 93 -96 124l-31 16
c-80 41 -143 89 -143 215c0 127 80 199 187 199c112 0 197 -75 192 -226zM191 808l-118 194h92l70 -108l70 108h92l-118 -194h-88z" />
    <glyph glyph-name="scaron" unicode="&#x161;" horiz-adv-x="393" 
d="M172 247c-91 29 -133 79 -133 166c0 96 60 157 155 157c94 0 152 -52 162 -159h-111c-4 42 -19 65 -51 65c-33 0 -48 -23 -48 -59c0 -43 18 -64 70 -82c75 -26 147 -73 147 -177c0 -105 -62 -168 -161 -168c-104 0 -169 59 -176 177h111c5 -54 24 -82 63 -82
c34 0 54 28 54 72c0 50 -25 72 -82 90zM152 628l-118 194h92l70 -108l70 108h92l-118 -194h-88z" />
    <glyph glyph-name="Tcommaaccent" unicode="&#x162;" horiz-adv-x="441" 
d="M12 750h417v-111h-151v-639h-115v639h-151v111zM212 -162h-44v112h108v-95c0 -62 -27 -127 -115 -139v41c48 15 59 48 59 71c0 7 -4 10 -8 10z" />
    <glyph glyph-name="tcommaaccent" unicode="&#x163;" horiz-adv-x="307" 
d="M189 457v-241c0 -30 2 -49 5 -64c9 -40 27 -51 64 -51c9 0 20 1 29 2v-103c-13 -2 -29 -3 -41 -3c-95 0 -144 38 -161 130c-4 22 -6 53 -6 86v244h-67v103h67v140h110v-140h97v-103h-97zM176 -162h-44v112h108v-95c0 -62 -27 -127 -115 -139v41c48 15 59 48 59 71
c0 7 -4 10 -8 10z" />
    <glyph glyph-name="Tcaron" unicode="&#x164;" horiz-adv-x="441" 
d="M12 750h417v-111h-151v-639h-115v639h-151v111zM176 808l-118 194h92l70 -108l70 108h92l-118 -194h-88z" />
    <glyph glyph-name="tcaron" unicode="&#x165;" horiz-adv-x="421" 
d="M189 457v-241c0 -30 2 -49 5 -64c9 -40 27 -51 64 -51c9 0 20 1 29 2v-103c-13 -2 -29 -3 -41 -3c-95 0 -144 38 -161 130c-4 22 -6 53 -6 86v244h-67v103h67v140h110v-140h97v-103h-97zM382 673h-44v112h108v-95c0 -62 -27 -127 -115 -139v41c48 15 59 48 59 71
c0 7 -4 10 -8 10z" />
    <glyph glyph-name="Tbar" unicode="&#x166;" horiz-adv-x="441" 
d="M12 750h417v-111h-151v-199h127v-71h-127v-369h-115v369h-127v71h127v199h-151v111z" />
    <glyph glyph-name="tbar" unicode="&#x167;" horiz-adv-x="323" 
d="M199 457v-104h97v-71h-97v-66c0 -30 2 -49 5 -64c9 -40 27 -51 64 -51c9 0 20 1 29 2v-103c-13 -2 -29 -3 -41 -3c-95 0 -144 38 -161 130c-4 22 -6 53 -6 86v69h-67v71h67v104h-67v103h67v140h110v-140h97v-103h-97z" />
    <glyph glyph-name="Utilde" unicode="&#x168;" horiz-adv-x="516" 
d="M175 750v-501c0 -18 1 -43 5 -66c7 -42 29 -82 76 -82h4c47 0 69 40 76 82c4 23 5 48 5 66v501h115v-502c0 -28 -2 -59 -7 -86c-17 -97 -77 -172 -189 -172h-4c-112 0 -172 75 -189 172c-5 27 -7 58 -7 86v502h115zM158 819h-65c4 84 38 143 102 143c27 0 49 -10 71 -34
c29 -30 43 -43 59 -43c17 0 29 15 33 63h65c-4 -84 -38 -143 -102 -143c-27 0 -49 10 -71 34c-29 30 -43 43 -59 43c-17 0 -29 -15 -33 -63z" />
    <glyph glyph-name="utilde" unicode="&#x169;" horiz-adv-x="478" 
d="M205 -10c-82 0 -125 57 -140 137c-5 26 -7 57 -7 91v342h111v-340c0 -11 1 -37 3 -52c5 -39 20 -72 59 -72c36 0 57 32 67 68c5 18 8 38 8 72v324h111v-560h-77l-10 75c-24 -55 -73 -85 -125 -85zM139 639h-65c4 84 38 143 102 143c27 0 49 -10 71 -34
c29 -30 43 -43 59 -43c17 0 29 15 33 63h65c-4 -84 -38 -143 -102 -143c-27 0 -49 10 -71 34c-29 30 -43 43 -59 43c-17 0 -29 -15 -33 -63z" />
    <glyph glyph-name="Umacron" unicode="&#x16a;" horiz-adv-x="516" 
d="M175 750v-501c0 -18 1 -43 5 -66c7 -42 29 -82 76 -82h4c47 0 69 40 76 82c4 23 5 48 5 66v501h115v-502c0 -28 -2 -59 -7 -86c-17 -97 -77 -172 -189 -172h-4c-112 0 -172 75 -189 172c-5 27 -7 58 -7 86v502h115zM390 897v-72h-264v72h264z" />
    <glyph glyph-name="umacron" unicode="&#x16b;" horiz-adv-x="478" 
d="M205 -10c-82 0 -125 57 -140 137c-5 26 -7 57 -7 91v342h111v-340c0 -11 1 -37 3 -52c5 -39 20 -72 59 -72c36 0 57 32 67 68c5 18 8 38 8 72v324h111v-560h-77l-10 75c-24 -55 -73 -85 -125 -85zM371 717v-72h-264v72h264z" />
    <glyph glyph-name="Ubreve" unicode="&#x16c;" horiz-adv-x="516" 
d="M175 750v-501c0 -18 1 -43 5 -66c7 -42 29 -82 76 -82h4c47 0 69 40 76 82c4 23 5 48 5 66v501h115v-502c0 -28 -2 -59 -7 -86c-17 -97 -77 -172 -189 -172h-4c-112 0 -172 75 -189 172c-5 27 -7 58 -7 86v502h115zM258 803c-81 0 -138 57 -143 171h77
c6 -68 31 -96 66 -96s60 28 66 96h77c-5 -114 -62 -171 -143 -171z" />
    <glyph glyph-name="ubreve" unicode="&#x16d;" horiz-adv-x="478" 
d="M205 -10c-82 0 -125 57 -140 137c-5 26 -7 57 -7 91v342h111v-340c0 -11 1 -37 3 -52c5 -39 20 -72 59 -72c36 0 57 32 67 68c5 18 8 38 8 72v324h111v-560h-77l-10 75c-24 -55 -73 -85 -125 -85zM239 623c-81 0 -138 57 -143 171h77c6 -68 31 -96 66 -96s60 28 66 96h77
c-5 -114 -62 -171 -143 -171z" />
    <glyph glyph-name="Uring" unicode="&#x16e;" horiz-adv-x="516" 
d="M175 750v-501c0 -18 1 -43 5 -66c7 -42 29 -82 76 -82h4c47 0 69 40 76 82c4 23 5 48 5 66v501h115v-502c0 -28 -2 -59 -7 -86c-17 -97 -77 -172 -189 -172h-4c-112 0 -172 75 -189 172c-5 27 -7 58 -7 86v502h115zM153 910c0 67 45 116 105 116s105 -49 105 -116
s-45 -116 -105 -116s-105 49 -105 116zM212 910c0 -38 20 -64 46 -64s46 26 46 64s-20 64 -46 64s-46 -26 -46 -64z" />
    <glyph glyph-name="uring" unicode="&#x16f;" horiz-adv-x="478" 
d="M205 -10c-82 0 -125 57 -140 137c-5 26 -7 57 -7 91v342h111v-340c0 -11 1 -37 3 -52c5 -39 20 -72 59 -72c36 0 57 32 67 68c5 18 8 38 8 72v324h111v-560h-77l-10 75c-24 -55 -73 -85 -125 -85zM134 730c0 67 45 116 105 116s105 -49 105 -116s-45 -116 -105 -116
s-105 49 -105 116zM193 730c0 -38 20 -64 46 -64s46 26 46 64s-20 64 -46 64s-46 -26 -46 -64z" />
    <glyph glyph-name="Uhungarumlaut" unicode="&#x170;" horiz-adv-x="516" 
d="M175 750v-501c0 -18 1 -43 5 -66c7 -42 29 -82 76 -82h4c47 0 69 40 76 82c4 23 5 48 5 66v501h115v-502c0 -28 -2 -59 -7 -86c-17 -97 -77 -172 -189 -172h-4c-112 0 -172 75 -189 172c-5 27 -7 58 -7 86v502h115zM307 989v-3l-120 -179h-82l86 182h116zM471 989v-3
l-120 -179h-82l86 182h116z" />
    <glyph glyph-name="uhungarumlaut" unicode="&#x171;" horiz-adv-x="478" 
d="M205 -10c-82 0 -125 57 -140 137c-5 26 -7 57 -7 91v342h111v-340c0 -11 1 -37 3 -52c5 -39 20 -72 59 -72c36 0 57 32 67 68c5 18 8 38 8 72v324h111v-560h-77l-10 75c-24 -55 -73 -85 -125 -85zM290 809v-3l-120 -179h-82l86 182h116zM454 809v-3l-120 -179h-82l86 182
h116z" />
    <glyph glyph-name="Uogonek" unicode="&#x172;" horiz-adv-x="516" 
d="M175 750v-501c0 -18 1 -43 5 -66c7 -42 29 -82 76 -82h4c47 0 69 40 76 82c4 23 5 48 5 66v501h115v-502c0 -28 -2 -59 -7 -86c-8 -42 -24 -79 -47 -109c-41 -53 -148 -102 -148 -177c0 -25 13 -42 39 -42c20 0 35 6 54 19l23 -53c-22 -19 -58 -31 -87 -31
c-56 0 -105 31 -105 98c0 46 26 87 68 123c-106 4 -163 77 -179 172c-5 27 -7 58 -7 86v502h115z" />
    <glyph glyph-name="uogonek" unicode="&#x173;" horiz-adv-x="478" 
d="M205 -10c-82 0 -125 57 -140 137c-5 26 -7 57 -7 91v342h111v-340c0 -11 1 -37 3 -52c5 -39 20 -72 59 -72c36 0 57 32 67 68c5 18 8 38 8 72v324h111v-560c-64 -49 -91 -89 -91 -124c0 -25 13 -42 39 -42c20 0 35 6 54 19l23 -53c-22 -19 -58 -31 -87 -31
c-56 0 -105 31 -105 98c0 54 34 100 89 139l-9 69c-24 -55 -73 -85 -125 -85z" />
    <glyph glyph-name="Wcircumflex" unicode="&#x174;" horiz-adv-x="688" 
d="M279 750h130l77 -548h2l66 548h120l-114 -750h-140l-75 519h-2l-75 -519h-140l-114 750h120l66 -548h2zM388 1002l118 -194h-92l-70 108l-70 -108h-92l118 194h88z" />
    <glyph glyph-name="wcircumflex" unicode="&#x175;" horiz-adv-x="583" 
d="M343 560l63 -375h1l58 375h111l-106 -560h-115l-63 363h-1l-63 -363h-115l-106 560h111l58 -375h1l63 375h103zM335 822l118 -194h-92l-70 108l-70 -108h-92l118 194h88z" />
    <glyph glyph-name="Ycircumflex" unicode="&#x176;" horiz-adv-x="455" 
d="M228 462l109 288h123l-175 -423v-327h-115v327l-175 423h123l109 -288h1zM271 1002l118 -194h-92l-70 108l-70 -108h-92l118 194h88z" />
    <glyph glyph-name="ycircumflex" unicode="&#x177;" horiz-adv-x="408" 
d="M57 -110c34 0 59 21 76 81l18 65c-48 170 -101 353 -148 524h116l87 -353h1l83 353h116l-158 -576c-40 -145 -87 -200 -171 -200c-28 0 -51 5 -75 13v102c17 -5 34 -9 55 -9zM248 822l118 -194h-92l-70 108l-70 -108h-92l118 194h88z" />
    <glyph glyph-name="Ydieresis" unicode="&#x178;" horiz-adv-x="455" 
d="M228 462l109 288h123l-175 -423v-327h-115v327l-175 423h123l109 -288h1zM198 824h-110v116h110v-116zM366 824h-110v116h110v-116z" />
    <glyph glyph-name="Zacute" unicode="&#x179;" horiz-adv-x="464" 
d="M40 639v111h386v-97l-262 -542h267v-111h-401v98l261 541h-251zM362 988v-6l-127 -175h-82l88 181h121z" />
    <glyph glyph-name="zacute" unicode="&#x17a;" horiz-adv-x="404" 
d="M378 0h-351v87l210 368h-201v105h331v-89l-209 -366h220v-105zM339 808v-6l-127 -175h-82l88 181h121z" />
    <glyph glyph-name="Zdotaccent" unicode="&#x17b;" horiz-adv-x="464" 
d="M40 639v111h386v-97l-262 -542h267v-111h-401v98l261 541h-251zM291 823h-117v120h117v-120z" />
    <glyph glyph-name="zdotaccent" unicode="&#x17c;" horiz-adv-x="404" 
d="M378 0h-351v87l210 368h-201v105h331v-89l-209 -366h220v-105zM259 643h-117v120h117v-120z" />
    <glyph glyph-name="Zcaron" unicode="&#x17d;" horiz-adv-x="464" 
d="M40 639v111h386v-97l-262 -542h267v-111h-401v98l261 541h-251zM188 808l-118 194h92l70 -108l70 108h92l-118 -194h-88z" />
    <glyph glyph-name="zcaron" unicode="&#x17e;" horiz-adv-x="404" 
d="M378 0h-351v87l210 368h-201v105h331v-89l-209 -366h220v-105zM157 628l-118 194h92l70 -108l70 108h92l-118 -194h-88z" />
    <glyph glyph-name="longs" unicode="&#x17f;" horiz-adv-x="257" 
d="M189 600v-600h-111v457h-66v103h66v43c0 132 66 193 166 193c21 0 40 -2 53 -4v-106c-14 2 -28 4 -42 4c-45 0 -66 -23 -66 -90z" />
    <glyph glyph-name="florin" unicode="&#x192;" horiz-adv-x="496" 
d="M456 750v-750h-416v750h416zM221 374l-133 279v-561zM275 374l133 -282v561zM118 700l130 -272l130 272h-260zM248 319l-128 -269h256z" />
    <glyph glyph-name="dotlessj" unicode="&#x237;" horiz-adv-x="236" 
d="M64 -41v601h111v-604c0 -132 -66 -193 -166 -193c-21 0 -40 2 -53 4v106c14 -2 28 -4 42 -4c45 0 66 23 66 90z" />
    <glyph glyph-name="circumflex" unicode="&#x2c6;" 
d="M263 852l118 -194h-92l-70 108l-70 -108h-92l118 194h88z" />
    <glyph glyph-name="caron" unicode="&#x2c7;" 
d="M175 658l-118 194h92l70 -108l70 108h92l-118 -194h-88z" />
    <glyph glyph-name="breve" unicode="&#x2d8;" 
d="M219 653c-81 0 -138 57 -143 171h77c6 -68 31 -96 66 -96s60 28 66 96h77c-5 -114 -62 -171 -143 -171z" />
    <glyph glyph-name="dotaccent" unicode="&#x2d9;" 
d="M277 673h-117v120h117v-120z" />
    <glyph glyph-name="ring" unicode="&#x2da;" 
d="M114 760c0 67 45 116 105 116s105 -49 105 -116s-45 -116 -105 -116s-105 49 -105 116zM173 760c0 -38 20 -64 46 -64s46 26 46 64s-20 64 -46 64s-46 -26 -46 -64z" />
    <glyph glyph-name="ogonek" unicode="&#x2db;" 
d="M246 27l46 -27c-64 -49 -91 -89 -91 -124c0 -25 13 -42 39 -42c20 0 35 6 54 19l23 -53c-22 -19 -58 -31 -87 -31c-56 0 -105 31 -105 98c0 63 49 116 121 160z" />
    <glyph glyph-name="tilde" unicode="&#x2dc;" 
d="M119 669h-65c4 84 38 143 102 143c27 0 49 -10 71 -34c29 -30 43 -43 59 -43c17 0 29 15 33 63h65c-4 -84 -38 -143 -102 -143c-27 0 -49 10 -71 34c-29 30 -43 43 -59 43c-17 0 -29 -15 -33 -63z" />
    <glyph glyph-name="hungarumlaut" unicode="&#x2dd;" 
d="M280 839v-3l-120 -179h-82l86 182h116zM444 839v-3l-120 -179h-82l86 182h116z" />
    <glyph glyph-name="Delta" unicode="&#x394;" horiz-adv-x="496" 
d="M456 750v-750h-416v750h416zM221 374l-133 279v-561zM275 374l133 -282v561zM118 700l130 -272l130 272h-260zM248 319l-128 -269h256z" />
    <glyph glyph-name="Delta" unicode="&#x2206;" horiz-adv-x="496" 
d="M456 750v-750h-416v750h416zM221 374l-133 279v-561zM275 374l133 -282v561zM118 700l130 -272l130 272h-260zM248 319l-128 -269h256z" />
    <glyph glyph-name="Omega" unicode="&#x3a9;" horiz-adv-x="496" 
d="M456 750v-750h-416v750h416zM221 374l-133 279v-561zM275 374l133 -282v561zM118 700l130 -272l130 272h-260zM248 319l-128 -269h256z" />
    <glyph glyph-name="Omega" unicode="&#x2126;" horiz-adv-x="496" 
d="M456 750v-750h-416v750h416zM221 374l-133 279v-561zM275 374l133 -282v561zM118 700l130 -272l130 272h-260zM248 319l-128 -269h256z" />
    <glyph glyph-name="pi" unicode="&#x3c0;" horiz-adv-x="496" 
d="M456 750v-750h-416v750h416zM221 374l-133 279v-561zM275 374l133 -282v561zM118 700l130 -272l130 272h-260zM248 319l-128 -269h256z" />
    <glyph glyph-name="endash" unicode="&#x2013;" horiz-adv-x="461" 
d="M428 342h-395v96h395v-96z" />
    <glyph glyph-name="emdash" unicode="&#x2014;" horiz-adv-x="551" 
d="M518 342h-485v96h485v-96z" />
    <glyph glyph-name="quoteleft" unicode="&#x2018;" horiz-adv-x="209" 
d="M116 625h55v-141h-135v119c0 83 33 172 143 187v-52c-60 -19 -74 -62 -74 -101c0 -9 5 -12 11 -12z" />
    <glyph glyph-name="quoteright" unicode="&#x2019;" horiz-adv-x="204" 
d="M96 649h-55v141h135v-119c0 -83 -33 -172 -143 -187v52c60 19 74 62 74 101c0 9 -5 12 -11 12z" />
    <glyph glyph-name="quotesinglbase" unicode="&#x201a;" horiz-adv-x="204" 
d="M91 0h-55v141h135v-119c0 -83 -33 -172 -143 -187v52c60 19 74 62 74 101c0 9 -5 12 -11 12z" />
    <glyph glyph-name="quotedblleft" unicode="&#x201c;" horiz-adv-x="399" 
d="M116 625h55v-141h-135v119c0 83 33 172 143 187v-52c-60 -19 -74 -62 -74 -101c0 -9 5 -12 11 -12zM306 625h55v-141h-135v119c0 83 33 172 143 187v-52c-60 -19 -74 -62 -74 -101c0 -9 5 -12 11 -12z" />
    <glyph glyph-name="quotedblright" unicode="&#x201d;" horiz-adv-x="394" 
d="M286 649h-55v141h135v-119c0 -83 -33 -172 -143 -187v52c60 19 74 62 74 101c0 9 -5 12 -11 12zM96 649h-55v141h135v-119c0 -83 -33 -172 -143 -187v52c60 19 74 62 74 101c0 9 -5 12 -11 12z" />
    <glyph glyph-name="quotedblbase" unicode="&#x201e;" horiz-adv-x="394" 
d="M281 0h-55v141h135v-119c0 -83 -33 -172 -143 -187v52c60 19 74 62 74 101c0 9 -5 12 -11 12zM91 0h-55v141h135v-119c0 -83 -33 -172 -143 -187v52c60 19 74 62 74 101c0 9 -5 12 -11 12z" />
    <glyph glyph-name="dagger" unicode="&#x2020;" horiz-adv-x="402" 
d="M241 457v-626h-80v626h-133v72h133v221h80v-221h133v-72h-133z" />
    <glyph glyph-name="daggerdbl" unicode="&#x2021;" horiz-adv-x="412" 
d="M246 457v-333h133v-72h-133v-221h-80v221h-133v72h133v333h-133v72h133v221h80v-221h133v-72h-133z" />
    <glyph glyph-name="bullet" unicode="&#x2022;" horiz-adv-x="273" 
d="M225 310h-177v207h177v-207z" />
    <glyph glyph-name="ellipsis" unicode="&#x2026;" horiz-adv-x="620" 
d="M167 0h-130v141h130v-141zM375 0h-130v141h130v-141zM583 0h-130v141h130v-141z" />
    <glyph glyph-name="perthousand" unicode="&#x2030;" horiz-adv-x="808" 
d="M172 0h-72l277 750h72zM144 690c-23 0 -41 -20 -41 -78v-22c0 -57 18 -78 41 -78s41 21 41 78v22c0 58 -18 78 -41 78zM144 442c-67 0 -116 51 -116 150v18c0 100 49 150 116 150s116 -50 116 -150v-18c0 -99 -49 -150 -116 -150zM399 238c-23 0 -41 -20 -41 -78v-22
c0 -57 18 -78 41 -78s41 21 41 78v22c0 58 -18 78 -41 78zM399 -10c-67 0 -116 51 -116 150v18c0 100 49 150 116 150s116 -50 116 -150v-18c0 -99 -49 -150 -116 -150zM664 238c-23 0 -41 -20 -41 -78v-22c0 -57 18 -78 41 -78s41 21 41 78v22c0 58 -18 78 -41 78zM664 -10
c-67 0 -116 51 -116 150v18c0 100 49 150 116 150s116 -50 116 -150v-18c0 -99 -49 -150 -116 -150z" />
    <glyph glyph-name="guilsinglleft" unicode="&#x2039;" horiz-adv-x="253" 
d="M20 310l195 274v-145l-92 -129l92 -129v-145z" />
    <glyph glyph-name="guilsinglright" unicode="&#x203a;" horiz-adv-x="253" 
d="M38 584l195 -274l-195 -274v145l92 129l-92 129v145z" />
    <glyph glyph-name="fraction" unicode="&#x2044;" horiz-adv-x="269" 
d="M-82 -106l352 954l81 -31l-352 -953z" />
    <glyph glyph-name="Euro" unicode="&#x20ac;" horiz-adv-x="514" 
d="M111 202v52h-89l18 71h70v87h-88l18 71h71v65c0 140 88 212 186 212c94 0 182 -62 185 -215h-110c-5 96 -42 113 -76 113c-38 0 -77 -22 -77 -113v-62h169l-20 -71h-150v-87h131l-18 -71h-112v-49c0 -91 39 -113 77 -113c34 0 71 17 76 113h110
c-3 -153 -91 -215 -185 -215c-98 0 -186 72 -186 212z" />
    <glyph glyph-name="uni2120" unicode="&#x2120;" horiz-adv-x="500" 
d="M191 660h-52c0 28 -10 48 -30 48c-21 0 -28 -17 -28 -34c0 -22 11 -34 29 -42l15 -7c39 -17 68 -42 68 -92c0 -55 -35 -88 -84 -88c-54 0 -85 43 -87 97h54c0 -29 15 -50 34 -50c17 0 31 12 31 38c0 24 -13 37 -36 49l-14 7c-33 17 -62 37 -62 88c0 52 34 82 80 82
c48 0 84 -32 82 -96zM325 524l-44 124v-198h-53v300h66l52 -154l53 154h66v-300h-53v197l-44 -123h-43z" />
    <glyph glyph-name="trademark" unicode="&#x2122;" horiz-adv-x="488" 
d="M18 750h172v-50h-58v-250h-55v250h-59v50zM313 524l-44 124v-198h-53v300h66l52 -154l53 154h66v-300h-53v197l-44 -123h-43z" />
    <glyph glyph-name="partialdiff" unicode="&#x2202;" horiz-adv-x="496" 
d="M456 750v-750h-416v750h416zM221 374l-133 279v-561zM275 374l133 -282v561zM118 700l130 -272l130 272h-260zM248 319l-128 -269h256z" />
    <glyph glyph-name="product" unicode="&#x220f;" horiz-adv-x="496" 
d="M456 750v-750h-416v750h416zM221 374l-133 279v-561zM275 374l133 -282v561zM118 700l130 -272l130 272h-260zM248 319l-128 -269h256z" />
    <glyph glyph-name="summation" unicode="&#x2211;" horiz-adv-x="496" 
d="M456 750v-750h-416v750h416zM221 374l-133 279v-561zM275 374l133 -282v561zM118 700l130 -272l130 272h-260zM248 319l-128 -269h256z" />
    <glyph glyph-name="minus" unicode="&#x2212;" horiz-adv-x="463" 
d="M428 252h-393v96h393v-96z" />
    <glyph glyph-name="radical" unicode="&#x221a;" horiz-adv-x="496" 
d="M456 750v-750h-416v750h416zM221 374l-133 279v-561zM275 374l133 -282v561zM118 700l130 -272l130 272h-260zM248 319l-128 -269h256z" />
    <glyph glyph-name="infinity" unicode="&#x221e;" horiz-adv-x="496" 
d="M456 750v-750h-416v750h416zM221 374l-133 279v-561zM275 374l133 -282v561zM118 700l130 -272l130 272h-260zM248 319l-128 -269h256z" />
    <glyph glyph-name="integral" unicode="&#x222b;" horiz-adv-x="496" 
d="M456 750v-750h-416v750h416zM221 374l-133 279v-561zM275 374l133 -282v561zM118 700l130 -272l130 272h-260zM248 319l-128 -269h256z" />
    <glyph glyph-name="approxequal" unicode="&#x2248;" horiz-adv-x="496" 
d="M456 750v-750h-416v750h416zM221 374l-133 279v-561zM275 374l133 -282v561zM118 700l130 -272l130 272h-260zM248 319l-128 -269h256z" />
    <glyph glyph-name="notequal" unicode="&#x2260;" horiz-adv-x="465" 
d="M152 0h-87l61 146h-86v96h125l48 116h-173v96h212l60 147h87l-61 -147h87v-96h-126l-48 -116h174v-96h-213c-20 -47 -41 -99 -60 -146z" />
    <glyph glyph-name="lessequal" unicode="&#x2264;" horiz-adv-x="468" 
d="M423 -1h-378v95h378v-95zM423 129l-375 227v96l375 227v-114l-283 -161l283 -161v-114z" />
    <glyph glyph-name="greaterequal" unicode="&#x2265;" horiz-adv-x="468" 
d="M423 -1h-378v95h378v-95zM420 356l-375 -227v114l283 161l-283 161v114l375 -227v-96z" />
    <glyph glyph-name="lozenge" unicode="&#x25ca;" horiz-adv-x="496" 
d="M456 750v-750h-416v750h416zM221 374l-133 279v-561zM275 374l133 -282v561zM118 700l130 -272l130 272h-260zM248 319l-128 -269h256z" />
    <glyph glyph-name="commaaccentlow" horiz-adv-x="400" 
d="M189 -162h-44v112h108v-95c0 -62 -27 -127 -115 -139v41c48 15 59 48 59 71c0 7 -4 10 -8 10z" />
    <glyph glyph-name="commaacaron" horiz-adv-x="400" 
d="M189 673h-44v112h108v-95c0 -62 -27 -127 -115 -139v41c48 15 59 48 59 71c0 7 -4 10 -8 10z" />
    <glyph glyph-name="apple" horiz-adv-x="947" 
 />
    <glyph glyph-name="registered.001" horiz-adv-x="774" 
d="M48 375c0 213 116 385 339 385s339 -172 339 -385s-116 -385 -339 -385s-339 172 -339 385zM99 375c0 -185 93 -336 288 -336s288 151 288 336s-93 336 -288 336s-288 -151 -288 -336zM508 292l6 -82c2 -26 6 -44 19 -56v-4h-79c-10 12 -14 34 -15 54l-6 78
c-2 32 -11 49 -30 55c-7 2 -14 3 -29 3h-20v-190h-75v450h100c16 0 30 -1 40 -3c58 -10 93 -48 93 -116c0 -44 -19 -81 -63 -103v-1c39 -16 56 -40 59 -85zM371 531h-17v-124h19c12 0 19 1 25 3c26 7 39 31 39 64c0 34 -14 50 -40 55c-6 1 -14 2 -26 2z" />
    <glyph glyph-name="regsound" horiz-adv-x="774" 
d="M48 375c0 213 116 385 339 385s339 -172 339 -385s-116 -385 -339 -385s-339 172 -339 385zM99 375c0 -185 93 -336 288 -336s288 151 288 336s-93 336 -288 336s-288 -151 -288 -336zM358 381h28c14 0 21 2 28 4c28 10 38 36 38 66c0 28 -9 59 -37 69c-7 2 -14 3 -29 3
h-28v-142zM393 312h-35v-170h-75v450h109c20 0 33 -2 45 -5c59 -15 90 -69 90 -136c0 -63 -31 -118 -95 -135c-11 -3 -22 -4 -39 -4z" />
    <glyph glyph-name="CR" horiz-adv-x="175" 
 />
    <glyph glyph-name="_0000" horiz-adv-x="500" 
 />
    </font>
</defs>
</svg>
