<?xml version="1.0" standalone="no"?>
<!DOCTYPE svg PUBLIC "-//W3C//DTD SVG 1.1//EN" "http://www.w3.org/Graphics/SVG/1.1/DTD/svg11.dtd" >
<svg xmlns="http://www.w3.org/2000/svg" width="100%" height="100%">
<metadata>
Created by FontXChange 20110222 at Mon Oct 31 21:30:31 2011
 By James Beall
Copyright (c) 2011 by GM. All rights reserved.
</metadata>
<defs>
<font id="Louis-Bold" horiz-adv-x="580" >
  <font-face 
    font-family="Louis"
    font-weight="450"
    font-stretch="normal"
    units-per-em="1000"
    panose-1="0 0 0 0 0 0 0 0 0 0"
    ascent="750"
    descent="-250"
    x-height="560"
    cap-height="750"
    bbox="-102 -287 1157 1041"
    underline-thickness="50"
    underline-position="-50"
    stemh="140"
    stemv="146"
    unicode-range="U+0020-FB02"
  />
<missing-glyph 
d="M540 750v-750h-500v750h500zM261 374l-171 281v-562zM319 374l171 -281v562zM120 700l170 -279l170 279h-340zM290 326l-169 -276h337z" />
    <glyph glyph-name="fi" unicode="fi" horiz-adv-x="611" 
d="M399 0v439h-157v-439h-141v439h-83v121h83v33c0 142 83 203 217 203c27 0 62 -2 71 -3v-132c-12 1 -38 2 -50 2c-66 0 -97 -18 -97 -79v-24h298v-560h-141z" />
    <glyph glyph-name="fl" unicode="fl" horiz-adv-x="628" 
d="M557 0h-141v661c-29 2 -57 2 -77 2c-66 0 -97 -18 -97 -79v-24h113v-121h-113v-439h-141v439h-83v121h83v33c0 142 83 203 217 203c65 0 175 -5 239 -11v-785z" />
    <glyph glyph-name=".notdef" 
d="M540 750v-750h-500v750h500zM261 374l-171 281v-562zM319 374l171 -281v562zM120 700l170 -279l170 279h-340zM290 326l-169 -276h337z" />
    <glyph glyph-name="space" unicode=" " horiz-adv-x="220" 
 />
    <glyph glyph-name="exclam" unicode="!" horiz-adv-x="284" 
d="M197 251h-110l-23 499h156zM218 0h-152v157h152v-157z" />
    <glyph glyph-name="quotedbl" unicode="&#x22;" horiz-adv-x="416" 
d="M48 750h142l-27 -284h-115v284zM246 750h142l-27 -284h-115v284z" />
    <glyph glyph-name="numbersign" unicode="#" horiz-adv-x="576" 
d="M266 700l-19 -179h115l19 179h95l-19 -179h88v-88h-97l-18 -166h99v-88h-108l-18 -179h-95l18 179h-115l-18 -179h-95l18 179h-86v88h95l18 166h-97v88h106l19 179h95zM238 433l-18 -166h115l18 166h-115z" />
    <glyph glyph-name="dollar" unicode="$" horiz-adv-x="576" 
d="M174 246c2 -51 38 -98 91 -107v191c-114 43 -193 81 -193 209c0 106 80 171 193 182v89h60v-90c113 -10 196 -79 191 -213h-122c0 47 -22 93 -69 101v-171c110 -37 196 -95 196 -213c0 -112 -84 -184 -196 -196v-98h-60v98c-134 9 -209 100 -211 218h120zM398 225
c0 41 -32 68 -73 84v-168c41 11 73 39 73 84zM193 539c0 -45 34 -68 72 -82v152c-53 -10 -72 -41 -72 -70z" />
    <glyph glyph-name="percent" unicode="%" horiz-adv-x="576" 
d="M149 0h-84l361 750h84zM98 604v-9c0 -44 18 -69 48 -69s48 25 48 69v9c0 44 -18 69 -48 69s-48 -25 -48 -69zM4 595v9c0 96 61 156 142 156s142 -60 142 -156v-9c0 -96 -61 -157 -142 -157s-142 61 -142 157zM381 156v-9c0 -44 18 -69 48 -69s48 25 48 69v9
c0 44 -18 69 -48 69s-48 -25 -48 -69zM287 147v9c0 96 61 156 142 156s142 -60 142 -156v-9c0 -96 -61 -157 -142 -157s-142 61 -142 157z" />
    <glyph glyph-name="ampersand" unicode="&#x26;" horiz-adv-x="655" 
d="M273 115c36 0 70 14 93 34l-138 160c-29 -22 -56 -58 -56 -100c0 -61 43 -94 101 -94zM221 569c0 -28 19 -71 48 -106c53 31 79 78 79 113c0 28 -21 60 -62 60c-45 0 -65 -32 -65 -67zM653 15v-15h-163l-47 56c-43 -35 -101 -65 -167 -65c-135 0 -238 83 -238 218
c0 92 56 152 117 193c-35 45 -65 99 -65 169c0 123 94 189 192 189c119 0 197 -68 197 -176c0 -70 -45 -151 -136 -210l102 -119c11 34 22 84 24 123h131c-8 -82 -33 -166 -65 -228z" />
    <glyph glyph-name="quotesingle" unicode="'" horiz-adv-x="218" 
d="M48 750h142l-27 -284h-115v284z" />
    <glyph glyph-name="parenleft" unicode="(" horiz-adv-x="372" 
d="M61 334c0 168 46 342 182 517h121c-118 -171 -167 -343 -167 -517s49 -345 167 -516h-121c-136 175 -182 348 -182 516z" />
    <glyph glyph-name="parenright" unicode=")" horiz-adv-x="372" 
d="M311 335c0 -168 -46 -342 -182 -517h-121c118 171 167 343 167 517s-49 345 -167 516h121c136 -175 182 -348 182 -516z" />
    <glyph glyph-name="asterisk" unicode="*" horiz-adv-x="466" 
d="M178 760h110l-12 -143l133 54l33 -102l-140 -34c32 -38 64 -72 94 -108l-89 -65l-74 121l-74 -121l-89 65l94 108c-47 12 -96 22 -140 34l33 102l133 -54z" />
    <glyph glyph-name="plus" unicode="+" horiz-adv-x="576" 
d="M348 359h203v-118h-203v-221h-120v221h-203v118h203v221h120v-221z" />
    <glyph glyph-name="comma" unicode="," horiz-adv-x="255" 
d="M41 0v173h171v-131c0 -28 -2 -58 -8 -81c-17 -72 -65 -135 -166 -149v61c73 23 91 73 91 113c0 11 -6 14 -13 14h-75z" />
    <glyph glyph-name="hyphen" unicode="-" horiz-adv-x="442" 
d="M404 331h-366v118h366v-118z" />
    <glyph glyph-name="period" unicode="." horiz-adv-x="265" 
d="M49 0v173h167v-173h-167z" />
    <glyph glyph-name="slash" unicode="/" horiz-adv-x="440" 
d="M133 -77h-117l292 881h116z" />
    <glyph glyph-name="zero" unicode="0" horiz-adv-x="606" 
d="M397 244v262c0 23 -2 45 -8 60c-13 33 -46 53 -86 53s-73 -20 -86 -53c-6 -15 -8 -37 -8 -60v-262c0 -23 2 -45 8 -60c13 -33 46 -53 86 -53s73 20 86 53c6 15 8 37 8 60zM543 507v-264c0 -40 -4 -75 -12 -100c-29 -94 -122 -153 -228 -153s-199 59 -228 153
c-8 25 -12 60 -12 100v264c0 40 4 75 12 100c29 94 122 153 228 153s199 -59 228 -153c8 -25 12 -60 12 -100z" />
    <glyph glyph-name="one" unicode="1" horiz-adv-x="403" 
d="M20 454v162l174 134h125v-750h-146v572z" />
    <glyph glyph-name="two" unicode="2" horiz-adv-x="558" 
d="M52 0v60c0 158 83 243 167 310c76 60 144 109 144 187c0 48 -32 73 -80 73c-40 0 -84 -17 -84 -92v-22h-142v22c0 33 7 67 16 90c32 80 112 132 210 132c127 0 226 -78 226 -201c0 -116 -81 -196 -164 -262c-53 -42 -130 -103 -136 -160h301v-137h-458z" />
    <glyph glyph-name="three" unicode="3" horiz-adv-x="572" 
d="M192 331v128h62c78 0 110 44 110 93c0 45 -37 76 -83 76c-60 0 -89 -34 -89 -88h-143c0 129 94 220 232 220c137 0 228 -82 228 -190c0 -67 -27 -131 -101 -170c85 -38 118 -123 118 -187c0 -125 -105 -223 -247 -223c-151 0 -245 90 -245 231h142c1 -65 37 -96 103 -96
c59 0 102 39 102 102c0 51 -38 104 -127 104h-62z" />
    <glyph glyph-name="four" unicode="4" horiz-adv-x="591" 
d="M301 760h171v-452h99v-131h-99v-177h-145v177h-295v118zM188 308h139v251h-1z" />
    <glyph glyph-name="five" unicode="5" horiz-adv-x="587" 
d="M62 232h145c2 -71 35 -102 87 -102c39 0 73 20 86 54c5 13 8 35 8 57v40c0 18 -2 40 -5 52c-10 35 -39 53 -82 53c-45 0 -78 -24 -97 -55l-132 1v418h425v-137h-280v-137c31 28 72 47 123 47c91 0 162 -54 186 -152c6 -23 8 -54 8 -81v-52c0 -40 -4 -72 -12 -96
c-30 -96 -106 -152 -227 -152c-133 0 -229 92 -233 242z" />
    <glyph glyph-name="six" unicode="6" horiz-adv-x="597" 
d="M543 263v-20c0 -40 -4 -75 -12 -100c-29 -94 -122 -153 -228 -153s-199 59 -228 153c-8 25 -12 60 -12 100v264c0 40 4 75 12 100c29 94 121 153 227 153c114 0 214 -62 232 -200h-153c-12 46 -41 61 -79 61c-40 0 -72 -21 -85 -54c-6 -15 -8 -38 -8 -61v-74
c36 39 84 56 132 56c90 0 165 -47 192 -141c7 -23 10 -47 10 -84zM397 244v9c0 24 -2 39 -6 52c-9 32 -38 47 -77 47c-56 0 -105 -39 -105 -104v-4c0 -23 2 -45 8 -60c13 -33 46 -53 86 -53s73 20 86 53c6 15 8 37 8 60z" />
    <glyph glyph-name="seven" unicode="7" horiz-adv-x="518" 
d="M272 0h-155c18 194 110 425 207 613h-298v137h462v-115c-112 -210 -199 -439 -216 -635z" />
    <glyph glyph-name="eight" unicode="8" horiz-adv-x="590" 
d="M295 -10c-157 0 -250 103 -250 228c0 81 44 150 109 180c-57 36 -92 99 -92 164c0 123 92 198 233 198s233 -75 233 -198c0 -65 -35 -128 -92 -164c65 -30 109 -100 109 -180c0 -125 -93 -228 -250 -228zM295 325c-71 0 -105 -48 -105 -97c0 -65 40 -108 105 -108
s105 43 105 108c0 49 -34 97 -105 97zM295 638c-52 0 -88 -28 -88 -78c0 -47 32 -86 88 -86s88 39 88 86c0 50 -36 78 -88 78z" />
    <glyph glyph-name="nine" unicode="9" horiz-adv-x="597" 
d="M54 487v20c0 40 4 75 12 100c29 94 122 153 228 153s199 -59 228 -153c8 -25 12 -60 12 -100v-264c0 -40 -4 -75 -12 -100c-29 -94 -121 -153 -227 -153c-114 0 -214 62 -232 200h153c12 -45 41 -61 79 -61c40 0 72 21 85 54c6 15 8 38 8 61v74c-36 -39 -84 -56 -132 -56
c-90 0 -165 47 -192 141c-7 23 -10 47 -10 84zM200 506v-9c0 -24 2 -39 6 -52c9 -32 38 -47 77 -47c56 0 105 39 105 104v4c0 23 -2 45 -8 60c-13 33 -46 53 -86 53s-73 -20 -86 -53c-6 -15 -8 -37 -8 -60z" />
    <glyph glyph-name="colon" unicode=":" horiz-adv-x="282" 
d="M58 387v173h167v-173h-167zM58 0v173h167v-173h-167z" />
    <glyph glyph-name="semicolon" unicode=";" horiz-adv-x="282" 
d="M57 0v173h171v-131c0 -28 -2 -58 -8 -81c-17 -72 -65 -135 -166 -149v61c73 23 91 73 91 113c0 11 -6 14 -13 14h-75zM57 387v173h167v-173h-167z" />
    <glyph glyph-name="less" unicode="&#x3c;" horiz-adv-x="561" 
d="M511 446l-333 -146l333 -146v-130l-461 215v122l461 215v-130z" />
    <glyph glyph-name="equal" unicode="=" horiz-adv-x="546" 
d="M501 351h-456v118h456v-118zM501 131h-456v118h456v-118z" />
    <glyph glyph-name="greater" unicode="&#x3e;" horiz-adv-x="561" 
d="M383 300l-333 146v130l461 -215v-122l-461 -215v130z" />
    <glyph glyph-name="question" unicode="?" horiz-adv-x="506" 
d="M301 252h-130c-55 201 154 228 154 323c0 38 -33 61 -79 61c-50 0 -82 -40 -82 -87v-23h-134v23c0 123 96 211 216 211c147 0 223 -84 223 -180c0 -179 -206 -147 -168 -328zM317 0h-152v157h152v-157z" />
    <glyph glyph-name="at" unicode="@" horiz-adv-x="932" 
d="M387 338l-12 -92c-6 -43 -3 -107 60 -107c53 0 101 59 109 112l11 86c8 57 -10 114 -71 114c-53 0 -89 -54 -97 -113zM420 34c-117 0 -170 97 -153 208l14 101c20 139 97 213 203 213c47 0 88 -26 114 -72l19 59h74l-50 -356c-4 -29 -11 -88 36 -88c71 0 117 158 121 288
c7 220 -126 293 -292 293h-23c-163 0 -304 -99 -328 -324l-14 -132c-18 -172 73 -304 265 -304h12c84 0 175 25 226 56l25 -64c-63 -35 -166 -62 -256 -62h-12c-227 0 -364 144 -340 375l14 132c28 278 203 393 408 393h23c206 0 369 -93 362 -363
c-5 -184 -73 -365 -206 -357c-51 3 -88 34 -104 85c-40 -57 -91 -81 -138 -81z" />
    <glyph glyph-name="A" unicode="A" horiz-adv-x="612" 
d="M367 329l-60 237h-4l-58 -237h122zM403 193h-194l-50 -193h-149l210 750h172l210 -750h-149z" />
    <glyph glyph-name="B" unicode="B" horiz-adv-x="621" 
d="M74 750h233c47 0 82 -4 109 -12c84 -26 136 -88 136 -183c0 -69 -35 -124 -102 -161c88 -34 126 -105 126 -176c0 -96 -53 -173 -140 -204c-26 -9 -55 -14 -106 -14h-256v750zM317 317h-97v-178h104c25 0 46 4 59 11c30 15 47 44 47 78c0 36 -20 66 -55 81
c-13 5 -33 8 -58 8zM308 610h-88v-165h87c24 0 37 3 49 9c30 13 51 42 51 81c0 36 -19 58 -50 69c-13 4 -28 6 -49 6z" />
    <glyph glyph-name="C" unicode="C" horiz-adv-x="613" 
d="M411 183c8 17 11 47 11 87h148c-1 -62 -8 -104 -19 -133c-37 -96 -131 -147 -229 -147h-10c-97 0 -191 52 -230 147c-13 31 -19 68 -19 115v246c0 47 6 84 19 115c39 95 133 147 230 147h8c98 0 194 -52 231 -147c12 -30 19 -72 20 -127h-148c-1 34 -4 63 -12 80
c-17 38 -55 54 -89 54h-12c-35 0 -71 -16 -89 -54c-8 -16 -12 -43 -12 -68v-244c0 -28 4 -54 12 -71c18 -38 54 -53 89 -53h12c34 0 71 14 89 53z" />
    <glyph glyph-name="D" unicode="D" horiz-adv-x="633" 
d="M219 140h96c51 0 81 16 99 54c8 17 11 42 11 70v221c0 28 -3 53 -11 70c-18 38 -48 54 -99 54h-96v-469zM311 0h-237v750h237c118 0 202 -52 240 -147c12 -31 19 -68 19 -115v-226c0 -47 -7 -84 -19 -115c-38 -95 -122 -147 -240 -147z" />
    <glyph glyph-name="E" unicode="E" horiz-adv-x="565" 
d="M74 0v750h453v-135h-307v-163h253v-135h-253v-182h307v-135h-453z" />
    <glyph glyph-name="F" unicode="F" horiz-adv-x="562" 
d="M74 0v750h455v-135h-309v-164h253v-135h-253v-316h-146z" />
    <glyph glyph-name="G" unicode="G" horiz-adv-x="635" 
d="M309 -10h-7c-87 0 -181 52 -220 147c-13 31 -19 68 -19 115v246c0 47 6 84 19 115c39 95 133 147 230 147h8c98 0 194 -52 231 -147c10 -26 17 -61 19 -105h-148c-2 24 -5 45 -11 58c-17 38 -55 54 -89 54h-12c-35 0 -71 -16 -89 -54c-8 -16 -12 -43 -12 -68v-244
c0 -28 4 -54 12 -71c18 -38 56 -53 91 -53h7c54 0 105 35 105 119v19h-113v129h257v-397h-63l-24 83h-1c-35 -60 -98 -93 -171 -93z" />
    <glyph glyph-name="H" unicode="H" horiz-adv-x="666" 
d="M74 0v750h146v-289h226v289h146v-750h-146v321h-226v-321h-146z" />
    <glyph glyph-name="I" unicode="I" horiz-adv-x="294" 
d="M74 0v750h146v-750h-146z" />
    <glyph glyph-name="J" unicode="J" horiz-adv-x="567" 
d="M188 291v-51c0 -33 5 -57 14 -73c14 -25 38 -38 68 -38c31 0 54 14 68 38c9 16 14 39 14 69v514h145v-515c0 -47 -8 -85 -21 -117c-34 -80 -108 -128 -206 -128c-97 0 -170 47 -205 128c-14 32 -22 70 -22 126v47h145z" />
    <glyph glyph-name="K" unicode="K" horiz-adv-x="631" 
d="M255 510l194 240h170l-244 -294l253 -456h-167l-183 344l-59 -77v-267h-145v750h145v-283l1 -1s19 24 35 44z" />
    <glyph glyph-name="L" unicode="L" horiz-adv-x="562" 
d="M74 0v750h146v-610h314v-140h-460z" />
    <glyph glyph-name="M" unicode="M" horiz-adv-x="784" 
d="M574 477l-140 -340h-84l-140 340h-1s1 -33 1 -58v-419h-136v750h159l159 -400l159 400h159v-750h-136v419c0 25 1 58 1 58h-1z" />
    <glyph glyph-name="N" unicode="N" horiz-adv-x="666" 
d="M210 479h-1s1 -33 1 -58v-421h-136v750h153l229 -479h1s-1 33 -1 58v421h136v-750h-154z" />
    <glyph glyph-name="O" unicode="O" horiz-adv-x="631" 
d="M422 254v242c0 30 -3 55 -11 72c-18 38 -55 53 -90 53h-11c-36 0 -72 -15 -90 -53c-9 -17 -11 -42 -11 -72v-242c0 -30 2 -55 11 -72c18 -38 54 -53 90 -53h11c35 0 72 15 90 53c8 17 11 42 11 72zM63 252v246c0 47 6 84 18 115c39 96 133 147 229 147h11
c96 0 189 -52 228 -147c13 -31 19 -68 19 -115v-246c0 -47 -6 -84 -19 -115c-39 -95 -132 -147 -228 -147h-11c-96 0 -190 51 -229 147c-12 31 -18 68 -18 115z" />
    <glyph glyph-name="P" unicode="P" horiz-adv-x="627" 
d="M220 414h96c37 0 55 5 70 13c30 16 49 48 49 84c0 38 -19 70 -49 86c-15 9 -33 13 -70 13h-96v-196zM322 275h-102v-275h-146v750h243c53 0 91 -7 118 -17c88 -33 146 -115 146 -222c0 -105 -58 -186 -146 -220c-27 -11 -68 -16 -113 -16z" />
    <glyph glyph-name="Q" unicode="Q" horiz-adv-x="631" 
d="M353 -8c-11 -1 -22 -2 -32 -2h-11c-96 0 -190 51 -229 147c-12 31 -18 68 -18 115v246c0 47 6 84 18 115c39 96 133 147 229 147h11c96 0 189 -52 228 -147c13 -31 19 -68 19 -115v-246c0 -47 -6 -84 -19 -115c-13 -32 -32 -59 -56 -81c37 -13 86 -17 135 -18v-124
c-126 4 -207 27 -275 78zM422 254v242c0 30 -3 55 -11 72c-18 38 -55 53 -90 53h-11c-36 0 -72 -15 -90 -53c-9 -17 -11 -42 -11 -72v-242c0 -30 2 -55 11 -72c18 -38 54 -53 90 -53h11c35 0 72 15 90 53c8 17 11 42 11 72z" />
    <glyph glyph-name="R" unicode="R" horiz-adv-x="621" 
d="M296 611h-77v-172h81c69 0 107 39 107 94c0 41 -23 64 -60 73c-13 3 -31 5 -51 5zM286 306h-67v-306h-145v750h231c34 0 64 -3 88 -8c98 -22 161 -86 161 -191c0 -76 -40 -138 -114 -172v-1c65 -23 99 -65 105 -142l11 -134c3 -38 14 -75 42 -96v-6h-156
c-19 20 -27 57 -30 90l-10 118c-6 71 -40 98 -116 98z" />
    <glyph glyph-name="S" unicode="S" horiz-adv-x="601" 
d="M544 524h-143c0 60 -35 102 -104 102c-60 0 -90 -31 -90 -72c0 -45 30 -70 78 -87l64 -22c117 -40 204 -107 204 -233c0 -133 -106 -222 -250 -222c-165 0 -258 101 -262 243h144c3 -65 51 -110 115 -110c61 0 107 31 107 87c0 50 -46 79 -98 98l-63 23
c-103 38 -185 85 -185 222c0 131 108 207 242 207c140 0 248 -71 241 -236z" />
    <glyph glyph-name="T" unicode="T" horiz-adv-x="565" 
d="M20 750h525v-140h-189v-610h-146v610h-190v140z" />
    <glyph glyph-name="U" unicode="U" horiz-adv-x="645" 
d="M70 750h146v-496c0 -30 2 -55 11 -72c18 -38 54 -53 90 -53h11c35 0 72 15 90 53c8 17 11 42 11 72v496h146v-498c0 -47 -6 -84 -19 -115c-39 -95 -132 -147 -228 -147h-11c-96 0 -190 51 -229 147c-12 31 -18 68 -18 115v498z" />
    <glyph glyph-name="V" unicode="V" horiz-adv-x="614" 
d="M161 750l144 -571h2l146 571h151l-209 -750h-176l-209 750h151z" />
    <glyph glyph-name="W" unicode="W" horiz-adv-x="918" 
d="M570 0l-111 510l-111 -510h-171l-153 750h155l85 -522h6l115 522h148l115 -522h6l85 522h155l-153 -750h-171z" />
    <glyph glyph-name="X" unicode="X" horiz-adv-x="628" 
d="M173 0h-166l226 395l-201 355h167l114 -225l115 225h167l-200 -355l226 -395h-167l-141 266z" />
    <glyph glyph-name="Y" unicode="Y" horiz-adv-x="618" 
d="M1 750h165l141 -276h2l143 276h165l-235 -421v-329h-146v328z" />
    <glyph glyph-name="Z" unicode="Z" horiz-adv-x="597" 
d="M52 610v140h490v-117l-317 -494h327v-139h-509v117l317 493h-308z" />
    <glyph glyph-name="bracketleft" unicode="[" horiz-adv-x="395" 
d="M83 -190v1049h299v-93h-169v-863h169v-93h-299z" />
    <glyph glyph-name="backslash" unicode="\" horiz-adv-x="440" 
d="M424 -77h-117l-291 881h116z" />
    <glyph glyph-name="bracketright" unicode="]" horiz-adv-x="395" 
d="M312 859v-1049h-299v93h169v863h-169v93h299z" />
    <glyph glyph-name="asciicircum" unicode="^" horiz-adv-x="508" 
d="M355 390l-101 243l-101 -243h-125l167 370h118l167 -370h-125z" />
    <glyph glyph-name="underscore" unicode="_" horiz-adv-x="442" 
d="M444 -160h-446v104h446v-104z" />
    <glyph glyph-name="grave" unicode="`" horiz-adv-x="536" 
d="M99 832l1 12h155l117 -187h-97z" />
    <glyph glyph-name="a" unicode="a" horiz-adv-x="558" 
d="M198 401h-135c18 113 102 169 220 169c103 0 166 -45 193 -120c10 -27 14 -67 14 -103v-347h-86l-15 86h-1c-30 -55 -80 -96 -157 -96c-102 0 -183 62 -183 186c0 81 43 137 114 162c27 9 59 14 103 14h84v14c0 58 -21 93 -76 93c-44 0 -68 -24 -75 -58zM188 181
c0 -44 22 -72 70 -72c53 0 92 46 92 116v23h-75c-16 0 -35 -2 -45 -6c-27 -10 -42 -32 -42 -61z" />
    <glyph glyph-name="b" unicode="b" 
d="M212 316v-71c0 -20 2 -37 5 -50c11 -40 42 -72 84 -72c40 0 68 24 79 61c4 14 6 30 6 56v83c0 25 -2 44 -7 58c-11 36 -37 55 -74 55c-36 0 -69 -29 -84 -64c-6 -14 -9 -29 -9 -56zM211 509h1c36 41 81 61 133 61c81 0 148 -53 172 -143c7 -24 10 -61 10 -91v-104
c0 -34 -3 -67 -9 -91c-25 -100 -98 -151 -190 -151c-61 0 -118 29 -151 81h-1l-12 -71h-93v785h141v-218c0 -25 -1 -58 -1 -58z" />
    <glyph glyph-name="c" unicode="c" horiz-adv-x="541" 
d="M485 435c7 -21 13 -47 15 -77h-143c-1 10 -3 18 -6 26c-12 34 -39 53 -74 53s-62 -19 -74 -53c-6 -16 -9 -37 -9 -64v-80c0 -27 3 -48 9 -64c12 -34 39 -53 74 -53s62 19 74 53c2 5 3 11 5 18h143c-2 -27 -7 -50 -14 -69c-30 -86 -108 -135 -208 -135s-177 50 -208 135
c-9 27 -16 62 -16 104v102c0 42 7 77 16 104c31 85 108 135 208 135s177 -50 208 -135z" />
    <glyph glyph-name="d" unicode="d" 
d="M368 245v71c0 20 -2 37 -5 50c-11 40 -42 72 -84 72c-40 0 -68 -24 -79 -61c-4 -14 -6 -30 -6 -56v-83c0 -25 2 -44 7 -58c11 -36 37 -55 74 -55c36 0 69 29 84 64c6 14 9 29 9 56zM237 570c50 0 94 -15 131 -51h1s-1 33 -1 58v208h141v-785h-93l-12 71h-1
c-33 -52 -90 -81 -151 -81c-92 0 -165 51 -190 151c-6 24 -9 57 -9 91v97c0 34 3 67 9 91c25 100 98 150 175 150z" />
    <glyph glyph-name="e" unicode="e" horiz-adv-x="553" 
d="M501 242h-307v-14c0 -27 3 -48 9 -64c12 -34 39 -53 74 -53c37 0 63 22 76 61h143c-2 -17 -6 -34 -11 -47c-30 -86 -108 -135 -208 -135s-177 50 -208 135c-9 27 -16 62 -16 104v102c0 42 7 77 16 104c31 85 108 135 208 135s177 -50 208 -135c9 -27 16 -62 16 -104v-89z
M194 348h166c-1 22 -4 38 -9 51c-12 34 -39 53 -74 53s-62 -19 -74 -53c-5 -13 -8 -30 -9 -51z" />
    <glyph glyph-name="f" unicode="f" horiz-adv-x="382" 
d="M379 793v-132c-12 1 -28 2 -40 2c-66 0 -97 -18 -97 -79v-24h123v-121h-123v-439h-141v439h-83v121h83v33c0 142 83 203 217 203c27 0 52 -2 61 -3z" />
    <glyph glyph-name="g" unicode="g" 
d="M366 254v61c0 20 -2 37 -5 50c-11 40 -41 72 -83 72c-40 0 -67 -24 -78 -61c-4 -14 -6 -30 -6 -56v-73c0 -25 2 -44 7 -58c11 -36 36 -55 73 -55c36 0 68 29 83 64c6 14 9 29 9 56zM368 -7v10c0 25 1 58 1 58h-1c-36 -41 -81 -61 -133 -61c-81 0 -148 53 -172 143
c-7 24 -10 61 -10 91v94c0 34 3 67 9 91c25 100 98 151 190 151c61 0 118 -29 151 -81h1l12 71h93v-554c0 -34 -3 -66 -10 -89c-28 -97 -108 -155 -214 -155c-114 0 -204 65 -225 187h138c9 -39 44 -63 87 -63c50 0 83 36 83 107z" />
    <glyph glyph-name="h" unicode="h" horiz-adv-x="595" 
d="M527 0h-141v323c0 25 -2 44 -7 58c-11 36 -37 55 -74 55c-36 0 -69 -29 -84 -64c-6 -14 -9 -29 -9 -56v-316h-141v785h141v-218c0 -25 -1 -58 -1 -58h1c36 41 81 61 133 61c81 0 148 -53 172 -143c7 -24 10 -61 10 -91v-336z" />
    <glyph glyph-name="i" unicode="i" horiz-adv-x="277" 
d="M68 0v560h141v-560h-141zM68 640v141h141v-141h-141z" />
    <glyph glyph-name="j" unicode="j" horiz-adv-x="287" 
d="M78 640v141h141v-141h-141zM78 -19v579h141v-583c0 -152 -83 -213 -207 -213c-27 0 -49 2 -58 3v132c12 -1 25 -2 37 -2c59 0 87 23 87 84z" />
    <glyph glyph-name="k" unicode="k" horiz-adv-x="560" 
d="M554 0h-167l-136 270l-39 -42v-228h-141v785h141v-395l159 170h176l-192 -199z" />
    <glyph glyph-name="l" unicode="l" horiz-adv-x="283" 
d="M71 0v785h141v-785h-141z" />
    <glyph glyph-name="m" unicode="m" horiz-adv-x="886" 
d="M327 570c66 0 119 -29 151 -79c33 50 89 79 152 79c91 0 155 -53 179 -143c6 -24 9 -61 9 -91v-336h-141v323c0 49 -10 113 -74 113c-35 0 -65 -29 -79 -64c-5 -12 -9 -25 -9 -45v-327h-141v323c0 49 -10 113 -74 113c-35 0 -65 -29 -79 -64c-6 -14 -9 -29 -9 -56v-316
h-141v560h89l13 -71h1c33 52 89 81 153 81z" />
    <glyph glyph-name="n" unicode="n" horiz-adv-x="595" 
d="M333 570c93 0 160 -53 184 -143c7 -24 10 -61 10 -91v-336h-141v323c0 25 -2 44 -7 58c-11 36 -37 55 -74 55c-36 0 -69 -29 -84 -64c-6 -14 -9 -29 -9 -56v-316h-141v560h93l12 -71h1c33 52 90 81 156 81z" />
    <glyph glyph-name="o" unicode="o" horiz-adv-x="554" 
d="M501 331v-102c0 -42 -7 -77 -16 -104c-31 -85 -108 -135 -208 -135s-177 50 -208 135c-9 27 -16 62 -16 104v102c0 42 7 77 16 104c31 85 108 135 208 135s177 -50 208 -135c9 -27 16 -62 16 -104zM360 240v80c0 27 -3 48 -9 64c-12 34 -39 53 -74 53s-62 -19 -74 -53
c-6 -16 -9 -37 -9 -64v-80c0 -27 3 -48 9 -64c12 -34 39 -53 74 -53s62 19 74 53c6 16 9 37 9 64z" />
    <glyph glyph-name="p" unicode="p" 
d="M212 315v-71c0 -20 2 -37 5 -50c11 -40 42 -72 84 -72c40 0 68 24 79 61c4 14 6 30 6 56v83c0 25 -2 44 -7 58c-11 36 -37 55 -74 55c-36 0 -69 -29 -84 -64c-6 -14 -9 -29 -9 -56zM343 -10c-50 0 -94 15 -131 51h-1s1 -33 1 -58v-227h-141v804h93l12 -71h1
c33 52 90 81 151 81c92 0 165 -51 190 -151c6 -24 9 -57 9 -91v-97c0 -34 -3 -67 -9 -91c-25 -100 -98 -150 -175 -150z" />
    <glyph glyph-name="q" unicode="q" 
d="M368 244v71c0 20 -2 37 -5 50c-11 40 -42 72 -84 72c-40 0 -68 -24 -79 -61c-4 -14 -6 -30 -6 -56v-83c0 -25 2 -44 7 -58c11 -36 37 -55 74 -55c36 0 69 29 84 64c6 14 9 29 9 56zM369 51h-1c-36 -41 -81 -61 -133 -61c-81 0 -148 53 -172 143c-7 24 -10 61 -10 91v104
c0 34 3 67 9 91c25 100 98 151 190 151c61 0 118 -29 151 -81h1l12 71h93v-804h-141v237c0 25 1 58 1 58z" />
    <glyph glyph-name="r" unicode="r" horiz-adv-x="446" 
d="M212 278v-278h-141v560h93l15 -86h1c40 64 94 96 161 96c29 0 60 -4 84 -10l-3 -141c-25 9 -52 13 -82 13c-67 0 -128 -63 -128 -154z" />
    <glyph glyph-name="s" unicode="s" horiz-adv-x="503" 
d="M36 170h138c11 -46 40 -68 80 -68s70 23 69 59c-1 39 -25 59 -95 72c-164 31 -177 122 -177 172c0 101 93 165 198 165c115 0 194 -57 206 -163h-138c-8 38 -36 51 -69 51c-34 0 -61 -17 -61 -46c0 -30 22 -50 83 -62c105 -21 193 -69 193 -185
c0 -105 -89 -175 -204 -175c-118 0 -207 53 -223 180z" />
    <glyph glyph-name="t" unicode="t" horiz-adv-x="404" 
d="M106 221v218h-88v121h88v140h141v-140h119v-121h-119v-212c0 -57 11 -101 81 -101c12 0 26 1 43 3v-129c-19 -2 -41 -3 -55 -3c-116 0 -182 39 -203 136c-5 23 -7 53 -7 88z" />
    <glyph glyph-name="u" unicode="u" horiz-adv-x="595" 
d="M262 -10c-93 0 -160 53 -184 143c-7 24 -10 61 -10 91v336h141v-323c0 -25 2 -44 7 -58c11 -36 37 -55 74 -55c36 0 69 29 84 64c6 14 9 29 9 56v316h141v-560h-93l-12 71h-1c-33 -52 -90 -81 -156 -81z" />
    <glyph glyph-name="v" unicode="v" horiz-adv-x="528" 
d="M521 560l-183 -560h-148l-183 560h148l108 -387h2l107 387h149z" />
    <glyph glyph-name="w" unicode="w" horiz-adv-x="786" 
d="M624 560h147l-148 -560h-139l-90 342h-2l-90 -342h-140l-147 560h146l76 -363h2l92 363h123l92 -362h2z" />
    <glyph glyph-name="x" unicode="x" horiz-adv-x="530" 
d="M26 560h155l84 -158l83 158h157l-166 -268l181 -292h-157l-98 183l-99 -183h-156l181 292z" />
    <glyph glyph-name="y" unicode="y" horiz-adv-x="548" 
d="M204 21l-196 539h149l120 -369h2l113 369h149l-207 -585c-47 -132 -122 -191 -227 -191c-37 0 -71 5 -100 13v133c28 -6 53 -12 86 -12c59 0 87 33 104 83z" />
    <glyph glyph-name="z" unicode="z" horiz-adv-x="518" 
d="M482 0h-446v111l246 316h-237v133h421v-112l-245 -315h261v-133z" />
    <glyph glyph-name="braceleft" unicode="{" horiz-adv-x="445" 
d="M30 277v113h29c68 0 109 27 91 141l-18 115c-25 159 71 211 214 211h89v-93h-49c-68 0 -140 -8 -122 -122l18 -109c15 -92 -2 -169 -94 -200c92 -31 108 -107 94 -199l-18 -112c-18 -114 54 -120 122 -120h49v-93h-89c-143 0 -238 50 -214 209l18 118
c17 114 -23 141 -91 141h-29z" />
    <glyph glyph-name="bar" unicode="|" horiz-adv-x="340" 
d="M108 -190v1049h124v-1049h-124z" />
    <glyph glyph-name="braceright" unicode="}" horiz-adv-x="445" 
d="M415 390v-113h-29c-68 0 -108 -27 -91 -141l18 -118c24 -159 -71 -209 -214 -209h-89v93h49c68 0 140 6 122 120l-18 112c-14 92 2 168 94 199c-92 31 -109 108 -94 200l18 109c18 114 -54 122 -122 122h-49v93h89c143 0 239 -52 214 -211l-18 -115
c-18 -114 23 -141 91 -141h29z" />
    <glyph glyph-name="asciitilde" unicode="~" horiz-adv-x="573" 
d="M285 341c-50 36 -70 51 -95 50c-29 -1 -43 -19 -49 -74h-101c6 98 42 188 140 190c34 1 69 -12 108 -39c50 -36 70 -51 95 -50c29 1 43 19 49 74h101c-6 -98 -42 -188 -140 -190c-34 -1 -69 12 -108 39z" />
    <glyph glyph-name="uni00A0" unicode="&#xa0;" horiz-adv-x="220" 
 />
    <glyph glyph-name="exclamdown" unicode="&#xa1;" horiz-adv-x="284" 
d="M87 309h110l23 -499h-156zM66 560h152v-157h-152v157z" />
    <glyph glyph-name="cent" unicode="&#xa2;" horiz-adv-x="576" 
d="M380 207c3 7 6 17 7 27h130c-2 -27 -7 -50 -14 -69c-27 -77 -93 -125 -178 -134v-101h-60v101c-86 9 -150 57 -178 134c-9 27 -16 62 -16 104v102c0 42 7 77 16 104c27 75 91 123 175 133v93h60v-93c87 -8 153 -56 181 -133c7 -21 13 -47 15 -77h-130c-1 13 -4 25 -8 35
c-11 27 -30 46 -55 54v-334c25 8 44 27 55 54zM210 207c10 -27 29 -46 55 -54v334c-26 -8 -45 -27 -55 -54c-7 -17 -10 -40 -10 -69v-88c0 -29 3 -52 10 -69z" />
    <glyph glyph-name="sterling" unicode="&#xa3;" horiz-adv-x="576" 
d="M185 117h156c45 0 84 22 88 97h121c-3 -172 -88 -214 -200 -214h-309v117c43 0 62 24 62 102v122h-81v70h81v130c0 138 88 219 209 219c117 0 207 -72 213 -210h-126c-7 67 -34 93 -85 93s-84 -32 -84 -92v-140h160v-70h-160v-107c0 -75 -20 -101 -45 -115v-2z" />
    <glyph glyph-name="yen" unicode="&#xa5;" horiz-adv-x="576" 
d="M545 177h-188v-177h-138v177h-188v80h188v86h-188v80h161l-195 327h155l136 -249l136 249h155l-194 -327h160v-80h-188v-86h188v-80z" />
    <glyph glyph-name="brokenbar" unicode="&#xa6;" horiz-adv-x="340" 
d="M108 -190v449h124v-449h-124zM108 410v449h124v-449h-124z" />
    <glyph glyph-name="section" unicode="&#xa7;" horiz-adv-x="537" 
d="M292 386l-47 15c-40 -5 -73 -35 -74 -68c-1 -32 24 -59 79 -76l58 -17c38 5 62 34 63 68c0 33 -26 60 -79 78zM48 321c0 56 34 106 97 134c-71 44 -77 95 -77 128c0 101 80 167 193 167c109 0 191 -55 203 -172h-122c-9 44 -37 64 -84 64c-44 0 -70 -25 -70 -56
c0 -35 28 -59 95 -79l29 -9c103 -32 177 -87 177 -180c0 -52 -29 -105 -84 -134c48 -31 68 -75 68 -124c0 -112 -88 -179 -201 -179c-123 0 -208 64 -224 187h123c12 -54 46 -80 99 -80c48 0 78 30 79 67c1 42 -32 67 -99 85l-26 7c-152 40 -176 124 -176 174z" />
    <glyph glyph-name="dieresis" unicode="&#xa8;" horiz-adv-x="536" 
d="M221 674h-125v131h125v-131zM440 674h-125v131h125v-131z" />
    <glyph glyph-name="copyright" unicode="&#xa9;" horiz-adv-x="854" 
d="M495 264c5 12 8 33 8 59h95c-1 -41 -7 -70 -13 -87c-23 -65 -88 -101 -152 -101h-6c-64 0 -126 36 -152 99c-9 21 -12 45 -12 77v130c0 32 3 55 12 77c26 63 88 99 152 99h6c64 0 129 -37 152 -99c7 -19 12 -46 13 -84h-95c-1 26 -4 46 -8 55c-10 25 -36 36 -62 36h-6
c-25 0 -51 -11 -62 -36c-6 -13 -8 -28 -8 -48v-130c0 -19 2 -35 8 -47c11 -25 37 -37 62 -37h6c26 0 52 12 62 37zM58 375c0 213 146 385 369 385s369 -172 369 -385s-146 -385 -369 -385s-369 172 -369 385zM109 375c0 -185 123 -336 318 -336s318 151 318 336
s-123 336 -318 336s-318 -151 -318 -336z" />
    <glyph glyph-name="ordfeminine" unicode="&#xaa;" horiz-adv-x="349" 
d="M128 659h-81c11 67 61 101 132 101c62 0 100 -27 116 -72c6 -16 8 -40 8 -62v-208h-51l-9 52h-1c-18 -33 -48 -58 -94 -58c-61 0 -110 37 -110 112c0 48 26 83 68 97c17 5 36 8 62 8h51v9c0 34 -13 55 -46 55c-26 0 -41 -14 -45 -34zM122 527c0 -27 13 -44 42 -44
c32 0 55 28 55 70v14h-45c-9 0 -21 -1 -27 -4c-16 -6 -25 -19 -25 -36z" />
    <glyph glyph-name="guillemotleft" unicode="&#xab;" horiz-adv-x="564" 
d="M281 41l-255 265l255 265v-145l-123 -120l123 -120v-145zM516 41l-255 265l255 265v-145l-123 -120l123 -120v-145z" />
    <glyph glyph-name="logicalnot" unicode="&#xac;" 
d="M540 750v-750h-500v750h500zM261 374l-171 281v-562zM319 374l171 -281v562zM120 700l170 -279l170 279h-340zM290 326l-169 -276h337z" />
    <glyph glyph-name="registered" unicode="&#xae;" horiz-adv-x="486" 
d="M343 469h-54l-44 88h-30v-88h-48v233h83c48 0 85 -24 85 -70c0 -32 -16 -56 -44 -67zM250 657h-36v-56h40c16 0 31 10 31 31c0 17 -15 25 -35 25zM46 583c0 111 81 202 197 202s197 -91 197 -202s-81 -202 -197 -202s-197 91 -197 202zM76 583c0 -95 67 -174 167 -174
s167 79 167 174s-67 174 -167 174s-167 -79 -167 -174z" />
    <glyph glyph-name="macron" unicode="&#xaf;" horiz-adv-x="536" 
d="M433 770v-95h-331v95h331z" />
    <glyph glyph-name="degree" unicode="&#xb0;" horiz-adv-x="322" 
d="M284 638c0 -68 -55 -123 -123 -123s-123 55 -123 123s55 123 123 123s123 -55 123 -123zM221 638c0 35 -27 63 -60 63s-60 -28 -60 -63s27 -63 60 -63s60 28 60 63z" />
    <glyph glyph-name="plusminus" unicode="&#xb1;" horiz-adv-x="576" 
d="M348 489h203v-118h-203v-211h-120v211h-203v118h203v211h120v-211zM551 -10h-526v118h526v-118z" />
    <glyph glyph-name="twosuperior" unicode="&#xb2;" 
d="M540 750v-750h-500v750h500zM261 374l-171 281v-562zM319 374l171 -281v562zM120 700l170 -279l170 279h-340zM290 326l-169 -276h337z" />
    <glyph glyph-name="threesuperior" unicode="&#xb3;" 
d="M540 750v-750h-500v750h500zM261 374l-171 281v-562zM319 374l171 -281v562zM120 700l170 -279l170 279h-340zM290 326l-169 -276h337z" />
    <glyph glyph-name="acute" unicode="&#xb4;" horiz-adv-x="536" 
d="M436 844l1 -12l-176 -175h-97l117 187h155z" />
    <glyph glyph-name="mu" unicode="&#xb5;" horiz-adv-x="598" 
d="M71 -244v804h141v-323c0 -25 2 -44 7 -58c11 -36 37 -55 74 -55c36 0 69 29 84 64c6 14 9 29 9 56v316h141v-560h-93l-12 71h-1c-35 -51 -81 -81 -143 -81c-27 0 -55 7 -80 21c1 -9 3 -43 3 -68v-187h-130z" />
    <glyph glyph-name="mu" unicode="&#x3bc;" horiz-adv-x="598" 
d="M71 -244v804h141v-323c0 -25 2 -44 7 -58c11 -36 37 -55 74 -55c36 0 69 29 84 64c6 14 9 29 9 56v316h141v-560h-93l-12 71h-1c-35 -51 -81 -81 -143 -81c-27 0 -55 7 -80 21c1 -9 3 -43 3 -68v-187h-130z" />
    <glyph glyph-name="paragraph" unicode="&#xb6;" horiz-adv-x="634" 
d="M278 331h-15c-116 0 -210 94 -210 208c0 117 94 211 210 211h291v-925h-94v842h-86v-842h-96v506z" />
    <glyph glyph-name="periodcentered" unicode="&#xb7;" horiz-adv-x="265" 
d="M49 310v173h167v-173h-167z" />
    <glyph glyph-name="cedilla" unicode="&#xb8;" horiz-adv-x="536" 
d="M146 -142h77c6 -20 21 -32 43 -32c21 0 33 14 33 30c0 19 -14 33 -48 43l-24 7c-28 8 -38 17 -27 47l31 79l66 -11l-16 -64c54 -16 101 -45 101 -101c0 -63 -49 -100 -112 -100c-66 0 -119 39 -124 102z" />
    <glyph glyph-name="onesuperior" unicode="&#xb9;" 
d="M540 750v-750h-500v750h500zM261 374l-171 281v-562zM319 374l171 -281v562zM120 700l170 -279l170 279h-340zM290 326l-169 -276h337z" />
    <glyph glyph-name="ordmasculine" unicode="&#xba;" horiz-adv-x="348" 
d="M308 617v-62c0 -25 -4 -46 -9 -62c-19 -51 -65 -81 -125 -81s-106 30 -125 81c-5 16 -9 37 -9 62v62c0 25 4 46 9 62c19 51 65 81 125 81s106 -30 125 -81c5 -16 9 -37 9 -62zM224 562v48c0 16 -2 29 -6 38c-7 21 -23 32 -44 32s-37 -11 -44 -32c-4 -9 -6 -22 -6 -38v-48
c0 -16 2 -29 6 -38c7 -21 23 -32 44 -32s37 11 44 32c4 9 6 22 6 38z" />
    <glyph glyph-name="guillemotright" unicode="&#xbb;" horiz-adv-x="564" 
d="M283 571l255 -265l-255 -265v145l123 120l-123 120v145zM48 571l255 -265l-255 -265v145l123 120l-123 120v145z" />
    <glyph glyph-name="onequarter" unicode="&#xbc;" 
d="M540 750v-750h-500v750h500zM261 374l-171 281v-562zM319 374l171 -281v562zM120 700l170 -279l170 279h-340zM290 326l-169 -276h337z" />
    <glyph glyph-name="onehalf" unicode="&#xbd;" 
d="M540 750v-750h-500v750h500zM261 374l-171 281v-562zM319 374l171 -281v562zM120 700l170 -279l170 279h-340zM290 326l-169 -276h337z" />
    <glyph glyph-name="threequarters" unicode="&#xbe;" 
d="M540 750v-750h-500v750h500zM261 374l-171 281v-562zM319 374l171 -281v562zM120 700l170 -279l170 279h-340zM290 326l-169 -276h337z" />
    <glyph glyph-name="questiondown" unicode="&#xbf;" horiz-adv-x="509" 
d="M204 308h130c55 -201 -154 -228 -154 -323c0 -38 33 -61 79 -61c50 0 82 40 82 87v23h134v-23c0 -123 -96 -211 -216 -211c-147 0 -223 84 -223 180c0 179 206 147 168 328zM188 560h152v-157h-152v157z" />
    <glyph glyph-name="Agrave" unicode="&#xc0;" horiz-adv-x="612" 
d="M367 329l-60 237h-4l-58 -237h122zM403 193h-194l-50 -193h-149l210 750h172l210 -750h-149zM117 982l1 12h155l117 -187h-97z" />
    <glyph glyph-name="Aacute" unicode="&#xc1;" horiz-adv-x="612" 
d="M367 329l-60 237h-4l-58 -237h122zM403 193h-194l-50 -193h-149l210 750h172l210 -750h-149zM494 994l1 -12l-176 -175h-97l117 187h155z" />
    <glyph glyph-name="Acircumflex" unicode="&#xc2;" horiz-adv-x="612" 
d="M367 329l-60 237h-4l-58 -237h122zM403 193h-194l-50 -193h-149l210 750h172l210 -750h-149zM258 1013h96l167 -205h-116l-99 113l-99 -113h-116z" />
    <glyph glyph-name="Atilde" unicode="&#xc3;" horiz-adv-x="612" 
d="M367 329l-60 237h-4l-58 -237h122zM403 193h-194l-50 -193h-149l210 750h172l210 -750h-149zM296 838c-37 27 -45 39 -72 38c-12 0 -31 -11 -35 -54h-88c6 100 55 157 125 157c30 0 60 -11 91 -34c37 -27 45 -39 72 -38c12 0 31 11 35 54h88c-6 -100 -55 -157 -125 -157
c-30 0 -60 11 -91 34z" />
    <glyph glyph-name="Adieresis" unicode="&#xc4;" horiz-adv-x="612" 
d="M367 329l-60 237h-4l-58 -237h122zM403 193h-194l-50 -193h-149l210 750h172l210 -750h-149zM259 824h-125v131h125v-131zM478 824h-125v131h125v-131z" />
    <glyph glyph-name="Aring" unicode="&#xc5;" horiz-adv-x="612" 
d="M367 329l-60 237h-4l-58 -237h122zM403 193h-194l-50 -193h-149l210 750h172l210 -750h-149zM306 867c29 0 47 24 47 50s-18 50 -47 50s-47 -24 -47 -50s18 -50 47 -50zM306 1041c68 0 123 -55 123 -124s-55 -124 -123 -124s-123 55 -123 124s55 124 123 124z" />
    <glyph glyph-name="AE" unicode="&#xc6;" horiz-adv-x="909" 
d="M453 0v219h-214l-92 -219h-157l331 750h550v-135h-272v-163h218v-135h-218v-182h272v-135h-418zM410 621l-113 -266h156v266h-43z" />
    <glyph glyph-name="Ccedilla" unicode="&#xc7;" horiz-adv-x="613" 
d="M177 -142h77c6 -20 21 -32 43 -32c21 0 33 14 33 30c0 19 -14 33 -48 43l-24 7c-28 8 -38 17 -27 47l17 45c-72 17 -136 65 -166 139c-13 31 -19 68 -19 115v246c0 47 6 84 19 115c39 95 133 147 230 147h8c98 0 194 -52 231 -147c12 -30 19 -72 20 -127h-148
c-1 34 -4 63 -12 80c-17 38 -55 54 -89 54h-12c-35 0 -71 -16 -89 -54c-8 -16 -12 -43 -12 -68v-244c0 -28 4 -54 12 -71c18 -38 54 -53 89 -53h12c34 0 71 14 89 53c8 17 11 47 11 87h148c-1 -62 -8 -104 -19 -133c-37 -96 -131 -147 -229 -147h-2l-8 -33
c54 -16 101 -45 101 -101c0 -63 -49 -100 -112 -100c-66 0 -119 39 -124 102z" />
    <glyph glyph-name="Egrave" unicode="&#xc8;" horiz-adv-x="565" 
d="M74 0v750h453v-135h-307v-163h253v-135h-253v-182h307v-135h-453zM128 982l1 12h155l117 -187h-97z" />
    <glyph glyph-name="Eacute" unicode="&#xc9;" horiz-adv-x="565" 
d="M74 0v750h453v-135h-307v-163h253v-135h-253v-182h307v-135h-453zM471 994l1 -12l-176 -175h-97l117 187h155z" />
    <glyph glyph-name="Ecircumflex" unicode="&#xca;" horiz-adv-x="565" 
d="M74 0v750h453v-135h-307v-163h253v-135h-253v-182h307v-135h-453zM252 1013h96l167 -205h-116l-99 113l-99 -113h-116z" />
    <glyph glyph-name="Edieresis" unicode="&#xcb;" horiz-adv-x="565" 
d="M74 0v750h453v-135h-307v-163h253v-135h-253v-182h307v-135h-453zM249 824h-125v131h125v-131zM468 824h-125v131h125v-131z" />
    <glyph glyph-name="Igrave" unicode="&#xcc;" horiz-adv-x="294" 
d="M74 0v750h146v-750h-146zM-52 982l1 12h155l117 -187h-97z" />
    <glyph glyph-name="Iacute" unicode="&#xcd;" horiz-adv-x="294" 
d="M74 0v750h146v-750h-146zM349 994l1 -12l-176 -175h-97l117 187h155z" />
    <glyph glyph-name="Icircumflex" unicode="&#xce;" horiz-adv-x="294" 
d="M74 0v750h146v-750h-146zM99 1013h96l167 -205h-116l-99 113l-99 -113h-116z" />
    <glyph glyph-name="Idieresis" unicode="&#xcf;" horiz-adv-x="294" 
d="M74 0v750h146v-750h-146zM100 824h-125v131h125v-131zM319 824h-125v131h125v-131z" />
    <glyph glyph-name="Eth" unicode="&#xd0;" horiz-adv-x="667" 
d="M345 0h-237v342h-96v106h96v302h237c118 0 202 -52 240 -147c12 -31 19 -68 19 -115v-226c0 -47 -7 -84 -19 -115c-38 -95 -122 -147 -240 -147zM253 140h96c51 0 81 16 99 54c8 17 11 42 11 70v221c0 28 -3 53 -11 70c-18 38 -48 54 -99 54h-96v-161h121v-106h-121v-202
z" />
    <glyph glyph-name="Ntilde" unicode="&#xd1;" horiz-adv-x="666" 
d="M210 479h-1s1 -33 1 -58v-421h-136v750h153l229 -479h1s-1 33 -1 58v421h136v-750h-154zM320 838c-37 27 -45 39 -72 38c-12 0 -31 -11 -35 -54h-88c6 100 55 157 125 157c30 0 60 -11 91 -34c37 -27 45 -39 72 -38c12 0 31 11 35 54h88c-6 -100 -55 -157 -125 -157
c-30 0 -60 11 -91 34z" />
    <glyph glyph-name="Ograve" unicode="&#xd2;" horiz-adv-x="631" 
d="M422 254v242c0 30 -3 55 -11 72c-18 38 -55 53 -90 53h-11c-36 0 -72 -15 -90 -53c-9 -17 -11 -42 -11 -72v-242c0 -30 2 -55 11 -72c18 -38 54 -53 90 -53h11c35 0 72 15 90 53c8 17 11 42 11 72zM63 252v246c0 47 6 84 18 115c39 96 133 147 229 147h11
c96 0 189 -52 228 -147c13 -31 19 -68 19 -115v-246c0 -47 -6 -84 -19 -115c-39 -95 -132 -147 -228 -147h-11c-96 0 -190 51 -229 147c-12 31 -18 68 -18 115zM152 982l1 12h155l117 -187h-97z" />
    <glyph glyph-name="Oacute" unicode="&#xd3;" horiz-adv-x="631" 
d="M422 254v242c0 30 -3 55 -11 72c-18 38 -55 53 -90 53h-11c-36 0 -72 -15 -90 -53c-9 -17 -11 -42 -11 -72v-242c0 -30 2 -55 11 -72c18 -38 54 -53 90 -53h11c35 0 72 15 90 53c8 17 11 42 11 72zM63 252v246c0 47 6 84 18 115c39 96 133 147 229 147h11
c96 0 189 -52 228 -147c13 -31 19 -68 19 -115v-246c0 -47 -6 -84 -19 -115c-39 -95 -132 -147 -228 -147h-11c-96 0 -190 51 -229 147c-12 31 -18 68 -18 115zM476 994l1 -12l-176 -175h-97l117 187h155z" />
    <glyph glyph-name="Ocircumflex" unicode="&#xd4;" horiz-adv-x="631" 
d="M422 254v242c0 30 -3 55 -11 72c-18 38 -55 53 -90 53h-11c-36 0 -72 -15 -90 -53c-9 -17 -11 -42 -11 -72v-242c0 -30 2 -55 11 -72c18 -38 54 -53 90 -53h11c35 0 72 15 90 53c8 17 11 42 11 72zM63 252v246c0 47 6 84 18 115c39 96 133 147 229 147h11
c96 0 189 -52 228 -147c13 -31 19 -68 19 -115v-246c0 -47 -6 -84 -19 -115c-39 -95 -132 -147 -228 -147h-11c-96 0 -190 51 -229 147c-12 31 -18 68 -18 115zM267 1003h96l167 -205h-116l-99 113l-99 -113h-116z" />
    <glyph glyph-name="Otilde" unicode="&#xd5;" horiz-adv-x="631" 
d="M422 254v242c0 30 -3 55 -11 72c-18 38 -55 53 -90 53h-11c-36 0 -72 -15 -90 -53c-9 -17 -11 -42 -11 -72v-242c0 -30 2 -55 11 -72c18 -38 54 -53 90 -53h11c35 0 72 15 90 53c8 17 11 42 11 72zM63 252v246c0 47 6 84 18 115c39 96 133 147 229 147h11
c96 0 189 -52 228 -147c13 -31 19 -68 19 -115v-246c0 -47 -6 -84 -19 -115c-39 -95 -132 -147 -228 -147h-11c-96 0 -190 51 -229 147c-12 31 -18 68 -18 115zM307 838c-37 27 -45 39 -72 38c-12 0 -31 -11 -35 -54h-88c6 100 55 157 125 157c30 0 60 -11 91 -34
c37 -27 45 -39 72 -38c12 0 31 11 35 54h88c-6 -100 -55 -157 -125 -157c-30 0 -60 11 -91 34z" />
    <glyph glyph-name="Odieresis" unicode="&#xd6;" horiz-adv-x="631" 
d="M422 254v242c0 30 -3 55 -11 72c-18 38 -55 53 -90 53h-11c-36 0 -72 -15 -90 -53c-9 -17 -11 -42 -11 -72v-242c0 -30 2 -55 11 -72c18 -38 54 -53 90 -53h11c35 0 72 15 90 53c8 17 11 42 11 72zM63 252v246c0 47 6 84 18 115c39 96 133 147 229 147h11
c96 0 189 -52 228 -147c13 -31 19 -68 19 -115v-246c0 -47 -6 -84 -19 -115c-39 -95 -132 -147 -228 -147h-11c-96 0 -190 51 -229 147c-12 31 -18 68 -18 115zM268 824h-125v131h125v-131zM487 824h-125v131h125v-131z" />
    <glyph glyph-name="multiply" unicode="&#xd7;" horiz-adv-x="576" 
d="M289 218l-174 -174l-81 81l174 174l-174 174l81 81l174 -174l174 174l80 -81l-173 -174l173 -174l-80 -81z" />
    <glyph glyph-name="Oslash" unicode="&#xd8;" horiz-adv-x="631" 
d="M63 252v246c0 47 6 84 18 115c39 96 133 147 229 147h11c41 0 82 -10 118 -28l25 53h86l-47 -101c19 -20 35 -44 46 -71c13 -31 19 -68 19 -115v-246c0 -47 -6 -84 -19 -115c-39 -95 -132 -147 -228 -147h-11c-42 0 -82 9 -119 27l-24 -52h-86l46 100
c-19 20 -35 44 -46 72c-12 31 -18 68 -18 115zM209 496v-257l170 365c-17 12 -38 17 -58 17h-11c-36 0 -72 -15 -90 -53c-9 -17 -11 -42 -11 -72zM422 254v256l-171 -365c17 -11 38 -16 59 -16h11c35 0 72 15 90 53c8 17 11 42 11 72z" />
    <glyph glyph-name="Ugrave" unicode="&#xd9;" horiz-adv-x="645" 
d="M70 750h146v-496c0 -30 2 -55 11 -72c18 -38 54 -53 90 -53h11c35 0 72 15 90 53c8 17 11 42 11 72v496h146v-498c0 -47 -6 -84 -19 -115c-39 -95 -132 -147 -228 -147h-11c-96 0 -190 51 -229 147c-12 31 -18 68 -18 115v498zM139 982l1 12h155l117 -187h-97z" />
    <glyph glyph-name="Uacute" unicode="&#xda;" horiz-adv-x="645" 
d="M70 750h146v-496c0 -30 2 -55 11 -72c18 -38 54 -53 90 -53h11c35 0 72 15 90 53c8 17 11 42 11 72v496h146v-498c0 -47 -6 -84 -19 -115c-39 -95 -132 -147 -228 -147h-11c-96 0 -190 51 -229 147c-12 31 -18 68 -18 115v498zM510 994l1 -12l-176 -175h-97l117 187h155z
" />
    <glyph glyph-name="Ucircumflex" unicode="&#xdb;" horiz-adv-x="645" 
d="M70 750h146v-496c0 -30 2 -55 11 -72c18 -38 54 -53 90 -53h11c35 0 72 15 90 53c8 17 11 42 11 72v496h146v-498c0 -47 -6 -84 -19 -115c-39 -95 -132 -147 -228 -147h-11c-96 0 -190 51 -229 147c-12 31 -18 68 -18 115v498zM274 1013h96l167 -205h-116l-99 113
l-99 -113h-116z" />
    <glyph glyph-name="Udieresis" unicode="&#xdc;" horiz-adv-x="645" 
d="M70 750h146v-496c0 -30 2 -55 11 -72c18 -38 54 -53 90 -53h11c35 0 72 15 90 53c8 17 11 42 11 72v496h146v-498c0 -47 -6 -84 -19 -115c-39 -95 -132 -147 -228 -147h-11c-96 0 -190 51 -229 147c-12 31 -18 68 -18 115v498zM275 824h-125v131h125v-131zM494 824h-125
v131h125v-131z" />
    <glyph glyph-name="Yacute" unicode="&#xdd;" horiz-adv-x="618" 
d="M507 994l1 -12l-176 -175h-97l117 187h155zM1 750h165l141 -276h2l143 276h165l-235 -421v-329h-146v328z" />
    <glyph glyph-name="Thorn" unicode="&#xde;" horiz-adv-x="627" 
d="M322 142h-102v-142h-146v750h146v-133h97c53 0 91 -7 118 -17c88 -33 146 -115 146 -222c0 -105 -58 -186 -146 -220c-27 -11 -68 -16 -113 -16zM220 281h96c37 0 55 5 70 13c30 16 49 48 49 84c0 38 -19 70 -49 86c-15 9 -33 13 -70 13h-96v-196z" />
    <glyph glyph-name="germandbls" unicode="&#xdf;" horiz-adv-x="624" 
d="M365 -10c-45 0 -81 4 -112 11v124c25 -8 51 -12 82 -12c59 0 104 36 104 105c0 76 -64 115 -139 115h-25v117h35c51 0 102 37 102 99c0 50 -40 82 -98 82c-74 0 -106 -50 -106 -112v-519h-137v515c0 131 86 245 250 245c131 0 225 -77 225 -195c0 -77 -37 -131 -100 -166
c64 -20 130 -89 130 -190c0 -148 -95 -219 -211 -219z" />
    <glyph glyph-name="agrave" unicode="&#xe0;" horiz-adv-x="558" 
d="M198 401h-135c18 113 102 169 220 169c103 0 166 -45 193 -120c10 -27 14 -67 14 -103v-347h-86l-15 86h-1c-30 -55 -80 -96 -157 -96c-102 0 -183 62 -183 186c0 81 43 137 114 162c27 9 59 14 103 14h84v14c0 58 -21 93 -76 93c-44 0 -68 -24 -75 -58zM188 181
c0 -44 22 -72 70 -72c53 0 92 46 92 116v23h-75c-16 0 -35 -2 -45 -6c-27 -10 -42 -32 -42 -61zM113 802l1 12h155l117 -187h-97z" />
    <glyph glyph-name="aacute" unicode="&#xe1;" horiz-adv-x="558" 
d="M198 401h-135c18 113 102 169 220 169c103 0 166 -45 193 -120c10 -27 14 -67 14 -103v-347h-86l-15 86h-1c-30 -55 -80 -96 -157 -96c-102 0 -183 62 -183 186c0 81 43 137 114 162c27 9 59 14 103 14h84v14c0 58 -21 93 -76 93c-44 0 -68 -24 -75 -58zM188 181
c0 -44 22 -72 70 -72c53 0 92 46 92 116v23h-75c-16 0 -35 -2 -45 -6c-27 -10 -42 -32 -42 -61zM452 814l1 -12l-176 -175h-97l117 187h155z" />
    <glyph glyph-name="acircumflex" unicode="&#xe2;" horiz-adv-x="558" 
d="M198 401h-135c18 113 102 169 220 169c103 0 166 -45 193 -120c10 -27 14 -67 14 -103v-347h-86l-15 86h-1c-30 -55 -80 -96 -157 -96c-102 0 -183 62 -183 186c0 81 43 137 114 162c27 9 59 14 103 14h84v14c0 58 -21 93 -76 93c-44 0 -68 -24 -75 -58zM188 181
c0 -44 22 -72 70 -72c53 0 92 46 92 116v23h-75c-16 0 -35 -2 -45 -6c-27 -10 -42 -32 -42 -61zM232 823h96l167 -205h-116l-99 113l-99 -113h-116z" />
    <glyph glyph-name="atilde" unicode="&#xe3;" horiz-adv-x="558" 
d="M198 401h-135c18 113 102 169 220 169c103 0 166 -45 193 -120c10 -27 14 -67 14 -103v-347h-86l-15 86h-1c-30 -55 -80 -96 -157 -96c-102 0 -183 62 -183 186c0 81 43 137 114 162c27 9 59 14 103 14h84v14c0 58 -21 93 -76 93c-44 0 -68 -24 -75 -58zM188 181
c0 -44 22 -72 70 -72c53 0 92 46 92 116v23h-75c-16 0 -35 -2 -45 -6c-27 -10 -42 -32 -42 -61zM271 658c-37 27 -45 39 -72 38c-12 0 -31 -11 -35 -54h-88c6 100 55 157 125 157c30 0 60 -11 91 -34c37 -27 45 -39 72 -38c12 0 31 11 35 54h88c-6 -100 -55 -157 -125 -157
c-30 0 -60 11 -91 34z" />
    <glyph glyph-name="adieresis" unicode="&#xe4;" horiz-adv-x="558" 
d="M198 401h-135c18 113 102 169 220 169c103 0 166 -45 193 -120c10 -27 14 -67 14 -103v-347h-86l-15 86h-1c-30 -55 -80 -96 -157 -96c-102 0 -183 62 -183 186c0 81 43 137 114 162c27 9 59 14 103 14h84v14c0 58 -21 93 -76 93c-44 0 -68 -24 -75 -58zM188 181
c0 -44 22 -72 70 -72c53 0 92 46 92 116v23h-75c-16 0 -35 -2 -45 -6c-27 -10 -42 -32 -42 -61zM230 644h-125v131h125v-131zM449 644h-125v131h125v-131z" />
    <glyph glyph-name="aring" unicode="&#xe5;" horiz-adv-x="558" 
d="M198 401h-135c18 113 102 169 220 169c103 0 166 -45 193 -120c10 -27 14 -67 14 -103v-347h-86l-15 86h-1c-30 -55 -80 -96 -157 -96c-102 0 -183 62 -183 186c0 81 43 137 114 162c27 9 59 14 103 14h84v14c0 58 -21 93 -76 93c-44 0 -68 -24 -75 -58zM188 181
c0 -44 22 -72 70 -72c53 0 92 46 92 116v23h-75c-16 0 -35 -2 -45 -6c-27 -10 -42 -32 -42 -61zM283 687c29 0 47 24 47 50s-18 50 -47 50s-47 -24 -47 -50s18 -50 47 -50zM283 861c68 0 123 -55 123 -124s-55 -124 -123 -124s-123 55 -123 124s55 124 123 124z" />
    <glyph glyph-name="ae" unicode="&#xe6;" horiz-adv-x="848" 
d="M198 401h-135c18 113 102 169 210 169c77 0 125 -30 152 -81c32 47 85 81 162 81c129 0 209 -110 209 -255v-67h-305v-20c0 -27 3 -48 9 -64c12 -34 39 -53 74 -53c37 0 63 22 76 61h141c-2 -17 -6 -34 -11 -47c-30 -86 -106 -135 -196 -135c-91 0 -148 41 -178 107
c-34 -65 -98 -107 -175 -107c-102 0 -183 62 -183 186c0 81 43 137 114 162c27 9 59 14 103 14h84v14c0 58 -21 93 -76 93c-44 0 -68 -24 -75 -58zM188 181c0 -44 22 -72 70 -72c53 0 92 46 92 116v23h-75c-16 0 -35 -2 -45 -6c-27 -10 -42 -32 -42 -61zM491 352h166
c-1 20 -4 34 -9 47c-12 34 -39 53 -74 53s-62 -19 -74 -53c-5 -13 -8 -28 -9 -47z" />
    <glyph glyph-name="ccedilla" unicode="&#xe7;" horiz-adv-x="541" 
d="M141 -142h77c6 -20 21 -32 43 -32c21 0 33 14 33 30c0 19 -14 33 -48 43l-24 7c-28 8 -38 17 -27 47l17 45c-68 16 -119 61 -143 127c-9 27 -16 62 -16 104v102c0 42 7 77 16 104c31 85 108 135 208 135s177 -50 208 -135c7 -21 13 -47 15 -77h-143c-1 10 -3 18 -6 26
c-12 34 -39 53 -74 53s-62 -19 -74 -53c-6 -16 -9 -37 -9 -64v-80c0 -27 3 -48 9 -64c12 -34 39 -53 74 -53s62 19 74 53c2 5 3 11 5 18h143c-2 -27 -7 -50 -14 -69c-30 -84 -105 -133 -201 -135l-8 -33c54 -16 101 -45 101 -101c0 -63 -49 -100 -112 -100
c-66 0 -119 39 -124 102z" />
    <glyph glyph-name="egrave" unicode="&#xe8;" horiz-adv-x="553" 
d="M501 242h-307v-14c0 -27 3 -48 9 -64c12 -34 39 -53 74 -53c37 0 63 22 76 61h143c-2 -17 -6 -34 -11 -47c-30 -86 -108 -135 -208 -135s-177 50 -208 135c-9 27 -16 62 -16 104v102c0 42 7 77 16 104c31 85 108 135 208 135s177 -50 208 -135c9 -27 16 -62 16 -104v-89z
M194 348h166c-1 22 -4 38 -9 51c-12 34 -39 53 -74 53s-62 -19 -74 -53c-5 -13 -8 -30 -9 -51zM108 802l1 12h155l117 -187h-97z" />
    <glyph glyph-name="eacute" unicode="&#xe9;" horiz-adv-x="553" 
d="M501 242h-307v-14c0 -27 3 -48 9 -64c12 -34 39 -53 74 -53c37 0 63 22 76 61h143c-2 -17 -6 -34 -11 -47c-30 -86 -108 -135 -208 -135s-177 50 -208 135c-9 27 -16 62 -16 104v102c0 42 7 77 16 104c31 85 108 135 208 135s177 -50 208 -135c9 -27 16 -62 16 -104v-89z
M194 348h166c-1 22 -4 38 -9 51c-12 34 -39 53 -74 53s-62 -19 -74 -53c-5 -13 -8 -30 -9 -51zM437 814l1 -12l-176 -175h-97l117 187h155z" />
    <glyph glyph-name="ecircumflex" unicode="&#xea;" horiz-adv-x="553" 
d="M501 242h-307v-14c0 -27 3 -48 9 -64c12 -34 39 -53 74 -53c37 0 63 22 76 61h143c-2 -17 -6 -34 -11 -47c-30 -86 -108 -135 -208 -135s-177 50 -208 135c-9 27 -16 62 -16 104v102c0 42 7 77 16 104c31 85 108 135 208 135s177 -50 208 -135c9 -27 16 -62 16 -104v-89z
M194 348h166c-1 22 -4 38 -9 51c-12 34 -39 53 -74 53s-62 -19 -74 -53c-5 -13 -8 -30 -9 -51zM225 823h96l167 -205h-116l-99 113l-99 -113h-116z" />
    <glyph glyph-name="edieresis" unicode="&#xeb;" horiz-adv-x="543" 
d="M503 242h-307v-14c0 -27 3 -48 9 -64c12 -34 39 -53 74 -53c37 0 63 22 76 61h143c-2 -17 -6 -34 -11 -47c-30 -86 -108 -135 -208 -135s-177 50 -208 135c-9 27 -16 62 -16 104v102c0 42 7 77 16 104c31 85 108 135 208 135s177 -50 208 -135c9 -27 16 -62 16 -104v-89z
M196 348h166c-1 22 -4 38 -9 51c-12 34 -39 53 -74 53s-62 -19 -74 -53c-5 -13 -8 -30 -9 -51zM228 644h-125v131h125v-131zM447 644h-125v131h125v-131z" />
    <glyph glyph-name="igrave" unicode="&#xec;" horiz-adv-x="269" 
d="M64 0v560h141v-560h-141zM-69 802l1 12h155l117 -187h-97z" />
    <glyph glyph-name="iacute" unicode="&#xed;" horiz-adv-x="269" 
d="M64 0v560h141v-560h-141zM337 814l1 -12l-176 -175h-97l117 187h155z" />
    <glyph glyph-name="icircumflex" unicode="&#xee;" horiz-adv-x="269" 
d="M64 0v560h141v-560h-141zM86 833h96l167 -205h-116l-99 113l-99 -113h-116z" />
    <glyph glyph-name="idieresis" unicode="&#xef;" horiz-adv-x="269" 
d="M64 0v560h141v-560h-141zM87 644h-125v131h125v-131zM306 644h-125v131h125v-131z" />
    <glyph glyph-name="eth" unicode="&#xf0;" horiz-adv-x="551" 
d="M250 511c13 0 55 -5 81 -24c-7 35 -34 84 -52 110l-117 -44l-28 80l95 36c-15 22 -33 48 -55 72l115 52c25 -27 44 -51 63 -77l110 42l29 -79l-91 -35c21 -39 48 -93 64 -137c23 -65 35 -125 35 -203v-75c0 -42 -7 -77 -16 -104c-31 -85 -108 -135 -208 -135
s-177 50 -208 135c-9 27 -16 62 -16 104v45c0 42 7 77 16 104c31 85 103 133 183 133zM358 240v23c0 27 -3 48 -9 64c-12 34 -39 53 -74 53s-62 -19 -74 -53c-6 -16 -9 -37 -9 -64v-23c0 -27 3 -48 9 -64c12 -34 39 -53 74 -53s62 19 74 53c6 16 9 37 9 64z" />
    <glyph glyph-name="ntilde" unicode="&#xf1;" horiz-adv-x="595" 
d="M333 570c93 0 160 -53 184 -143c7 -24 10 -61 10 -91v-336h-141v323c0 25 -2 44 -7 58c-11 36 -37 55 -74 55c-36 0 -69 -29 -84 -64c-6 -14 -9 -29 -9 -56v-316h-141v560h93l12 -71h1c33 52 90 81 156 81zM283 660c-37 27 -45 39 -72 38c-12 0 -31 -11 -35 -54h-88
c6 100 55 157 125 157c30 0 60 -11 91 -34c37 -27 45 -39 72 -38c12 0 31 11 35 54h88c-6 -100 -55 -157 -125 -157c-30 0 -60 11 -91 34z" />
    <glyph glyph-name="ograve" unicode="&#xf2;" horiz-adv-x="554" 
d="M501 331v-102c0 -42 -7 -77 -16 -104c-31 -85 -108 -135 -208 -135s-177 50 -208 135c-9 27 -16 62 -16 104v102c0 42 7 77 16 104c31 85 108 135 208 135s177 -50 208 -135c9 -27 16 -62 16 -104zM360 240v80c0 27 -3 48 -9 64c-12 34 -39 53 -74 53s-62 -19 -74 -53
c-6 -16 -9 -37 -9 -64v-80c0 -27 3 -48 9 -64c12 -34 39 -53 74 -53s62 19 74 53c6 16 9 37 9 64zM112 802l1 12h155l117 -187h-97z" />
    <glyph glyph-name="oacute" unicode="&#xf3;" horiz-adv-x="554" 
d="M501 331v-102c0 -42 -7 -77 -16 -104c-31 -85 -108 -135 -208 -135s-177 50 -208 135c-9 27 -16 62 -16 104v102c0 42 7 77 16 104c31 85 108 135 208 135s177 -50 208 -135c9 -27 16 -62 16 -104zM360 240v80c0 27 -3 48 -9 64c-12 34 -39 53 -74 53s-62 -19 -74 -53
c-6 -16 -9 -37 -9 -64v-80c0 -27 3 -48 9 -64c12 -34 39 -53 74 -53s62 19 74 53c6 16 9 37 9 64zM443 814l1 -12l-176 -175h-97l117 187h155z" />
    <glyph glyph-name="ocircumflex" unicode="&#xf4;" horiz-adv-x="554" 
d="M501 331v-102c0 -42 -7 -77 -16 -104c-31 -85 -108 -135 -208 -135s-177 50 -208 135c-9 27 -16 62 -16 104v102c0 42 7 77 16 104c31 85 108 135 208 135s177 -50 208 -135c9 -27 16 -62 16 -104zM360 240v80c0 27 -3 48 -9 64c-12 34 -39 53 -74 53s-62 -19 -74 -53
c-6 -16 -9 -37 -9 -64v-80c0 -27 3 -48 9 -64c12 -34 39 -53 74 -53s62 19 74 53c6 16 9 37 9 64zM229 823h96l167 -205h-116l-99 113l-99 -113h-116z" />
    <glyph glyph-name="otilde" unicode="&#xf5;" horiz-adv-x="554" 
d="M501 331v-102c0 -42 -7 -77 -16 -104c-31 -85 -108 -135 -208 -135s-177 50 -208 135c-9 27 -16 62 -16 104v102c0 42 7 77 16 104c31 85 108 135 208 135s177 -50 208 -135c9 -27 16 -62 16 -104zM360 240v80c0 27 -3 48 -9 64c-12 34 -39 53 -74 53s-62 -19 -74 -53
c-6 -16 -9 -37 -9 -64v-80c0 -27 3 -48 9 -64c12 -34 39 -53 74 -53s62 19 74 53c6 16 9 37 9 64zM267 658c-37 27 -45 39 -72 38c-12 0 -31 -11 -35 -54h-88c6 100 55 157 125 157c30 0 60 -11 91 -34c37 -27 45 -39 72 -38c12 0 31 11 35 54h88
c-6 -100 -55 -157 -125 -157c-30 0 -60 11 -91 34z" />
    <glyph glyph-name="odieresis" unicode="&#xf6;" horiz-adv-x="554" 
d="M501 331v-102c0 -42 -7 -77 -16 -104c-31 -85 -108 -135 -208 -135s-177 50 -208 135c-9 27 -16 62 -16 104v102c0 42 7 77 16 104c31 85 108 135 208 135s177 -50 208 -135c9 -27 16 -62 16 -104zM360 240v80c0 27 -3 48 -9 64c-12 34 -39 53 -74 53s-62 -19 -74 -53
c-6 -16 -9 -37 -9 -64v-80c0 -27 3 -48 9 -64c12 -34 39 -53 74 -53s62 19 74 53c6 16 9 37 9 64zM230 644h-125v131h125v-131zM449 644h-125v131h125v-131z" />
    <glyph glyph-name="divide" unicode="&#xf7;" horiz-adv-x="576" 
d="M551 241h-526v118h526v-118zM350 433h-129v137h129v-137zM350 30h-129v137h129v-137z" />
    <glyph glyph-name="oslash" unicode="&#xf8;" horiz-adv-x="554" 
d="M501 331v-102c0 -42 -7 -77 -16 -104c-31 -85 -108 -135 -208 -135c-37 0 -71 7 -101 20l-22 -45h-70l39 78c-24 22 -42 49 -54 82c-9 27 -16 62 -16 104v102c0 42 7 77 16 104c31 85 108 135 208 135c37 0 72 -7 102 -21l23 46h70l-40 -80c23 -21 41 -48 53 -80
c9 -27 16 -62 16 -104zM194 320v-80c0 -23 2 -41 6 -55l121 239c-13 9 -27 13 -44 13c-35 0 -62 -19 -74 -53c-6 -16 -9 -37 -9 -64zM360 240v80c0 21 -2 38 -6 53l-120 -239c12 -7 27 -11 43 -11c35 0 62 19 74 53c6 16 9 37 9 64z" />
    <glyph glyph-name="ugrave" unicode="&#xf9;" horiz-adv-x="595" 
d="M262 -10c-93 0 -160 53 -184 143c-7 24 -10 61 -10 91v336h141v-323c0 -25 2 -44 7 -58c11 -36 37 -55 74 -55c36 0 69 29 84 64c6 14 9 29 9 56v316h141v-560h-93l-12 71h-1c-33 -52 -90 -81 -156 -81zM121 802l1 12h155l117 -187h-97z" />
    <glyph glyph-name="uacute" unicode="&#xfa;" horiz-adv-x="595" 
d="M262 -10c-93 0 -160 53 -184 143c-7 24 -10 61 -10 91v336h141v-323c0 -25 2 -44 7 -58c11 -36 37 -55 74 -55c36 0 69 29 84 64c6 14 9 29 9 56v316h141v-560h-93l-12 71h-1c-33 -52 -90 -81 -156 -81zM477 814l1 -12l-176 -175h-97l117 187h155z" />
    <glyph glyph-name="ucircumflex" unicode="&#xfb;" horiz-adv-x="595" 
d="M262 -10c-93 0 -160 53 -184 143c-7 24 -10 61 -10 91v336h141v-323c0 -25 2 -44 7 -58c11 -36 37 -55 74 -55c36 0 69 29 84 64c6 14 9 29 9 56v316h141v-560h-93l-12 71h-1c-33 -52 -90 -81 -156 -81zM249 833h96l167 -205h-116l-99 113l-99 -113h-116z" />
    <glyph glyph-name="udieresis" unicode="&#xfc;" horiz-adv-x="595" 
d="M262 -10c-93 0 -160 53 -184 143c-7 24 -10 61 -10 91v336h141v-323c0 -25 2 -44 7 -58c11 -36 37 -55 74 -55c36 0 69 29 84 64c6 14 9 29 9 56v316h141v-560h-93l-12 71h-1c-33 -52 -90 -81 -156 -81zM250 644h-125v131h125v-131zM469 644h-125v131h125v-131z" />
    <glyph glyph-name="yacute" unicode="&#xfd;" horiz-adv-x="548" 
d="M204 21l-196 539h149l120 -369h2l113 369h149l-207 -585c-47 -132 -122 -191 -227 -191c-37 0 -71 5 -100 13v133c28 -6 53 -12 86 -12c59 0 87 33 104 83zM468 814l1 -12l-176 -175h-97l117 187h155z" />
    <glyph glyph-name="thorn" unicode="&#xfe;" horiz-adv-x="582" 
d="M214 315v-71c0 -20 2 -37 5 -50c11 -40 42 -72 84 -72c40 0 68 24 79 61c4 14 6 30 6 56v83c0 25 -2 44 -7 58c-11 36 -37 55 -74 55c-36 0 -69 -29 -84 -64c-6 -14 -9 -29 -9 -56zM73 -244v1029h141v-218c0 -25 -1 -58 -1 -58h1c36 41 81 61 133 61
c81 0 148 -53 172 -143c7 -24 10 -61 10 -91v-105c0 -34 -3 -67 -9 -91c-25 -100 -98 -150 -175 -150c-50 0 -94 15 -131 51h-1s1 -33 1 -58v-227h-141z" />
    <glyph glyph-name="ydieresis" unicode="&#xff;" horiz-adv-x="548" 
d="M204 21l-196 539h149l120 -369h2l113 369h149l-207 -585c-47 -132 -122 -191 -227 -191c-37 0 -71 5 -100 13v133c28 -6 53 -12 86 -12c59 0 87 33 104 83zM227 644h-125v131h125v-131zM446 644h-125v131h125v-131z" />
    <glyph glyph-name="Amacron" unicode="&#x100;" horiz-adv-x="612" 
d="M472 920v-95h-331v95h331zM367 329l-60 237h-4l-58 -237h122zM403 193h-194l-50 -193h-149l210 750h172l210 -750h-149z" />
    <glyph glyph-name="amacron" unicode="&#x101;" horiz-adv-x="558" 
d="M198 401h-135c18 113 102 169 220 169c103 0 166 -45 193 -120c10 -27 14 -67 14 -103v-347h-86l-15 86h-1c-30 -55 -80 -96 -157 -96c-102 0 -183 62 -183 186c0 81 43 137 114 162c27 9 59 14 103 14h84v14c0 58 -21 93 -76 93c-44 0 -68 -24 -75 -58zM188 181
c0 -44 22 -72 70 -72c53 0 92 46 92 116v23h-75c-16 0 -35 -2 -45 -6c-27 -10 -42 -32 -42 -61zM455 740v-95h-331v95h331z" />
    <glyph glyph-name="Abreve" unicode="&#x102;" horiz-adv-x="612" 
d="M367 329l-60 237h-4l-58 -237h122zM403 193h-194l-50 -193h-149l210 750h172l210 -750h-149zM306 803c-108 0 -174 71 -179 182h91c7 -51 29 -84 88 -84s81 33 88 84h91c-5 -111 -71 -182 -179 -182z" />
    <glyph glyph-name="abreve" unicode="&#x103;" horiz-adv-x="558" 
d="M198 401h-135c18 113 102 169 220 169c103 0 166 -45 193 -120c10 -27 14 -67 14 -103v-347h-86l-15 86h-1c-30 -55 -80 -96 -157 -96c-102 0 -183 62 -183 186c0 81 43 137 114 162c27 9 59 14 103 14h84v14c0 58 -21 93 -76 93c-44 0 -68 -24 -75 -58zM188 181
c0 -44 22 -72 70 -72c53 0 92 46 92 116v23h-75c-16 0 -35 -2 -45 -6c-27 -10 -42 -32 -42 -61zM279 623c-108 0 -174 71 -179 182h91c7 -51 29 -84 88 -84s81 33 88 84h91c-5 -111 -71 -182 -179 -182z" />
    <glyph glyph-name="Aogonek" unicode="&#x104;" horiz-adv-x="612" 
d="M403 193h-194l-50 -193h-149l210 750h172l210 -750c-33 -14 -59 -28 -78 -43c-37 -29 -52 -59 -52 -83c0 -23 19 -40 47 -40c22 0 43 6 65 19l28 -61c-27 -19 -70 -31 -104 -31c-68 0 -129 34 -132 102c-2 48 26 90 79 126zM367 329l-60 237h-4l-58 -237h122z" />
    <glyph glyph-name="aogonek" unicode="&#x105;" horiz-adv-x="558" 
d="M198 401h-135c18 113 102 169 220 169c103 0 166 -45 193 -120c10 -27 14 -67 14 -103v-347c-77 -50 -111 -89 -111 -126c0 -23 19 -40 47 -40c22 0 43 6 65 19l28 -61c-27 -19 -70 -31 -104 -31c-68 0 -129 34 -132 102c-2 58 40 108 119 149l-13 74h-1
c-30 -55 -80 -96 -157 -96c-102 0 -183 62 -183 186c0 81 43 137 114 162c27 9 59 14 103 14h84v14c0 58 -21 93 -76 93c-44 0 -68 -24 -75 -58zM188 181c0 -44 22 -72 70 -72c53 0 92 46 92 116v23h-75c-16 0 -35 -2 -45 -6c-27 -10 -42 -32 -42 -61z" />
    <glyph glyph-name="Cacute" unicode="&#x106;" horiz-adv-x="613" 
d="M411 183c8 17 11 47 11 87h148c-1 -62 -8 -104 -19 -133c-37 -96 -131 -147 -229 -147h-10c-97 0 -191 52 -230 147c-13 31 -19 68 -19 115v246c0 47 6 84 19 115c39 95 133 147 230 147h8c98 0 194 -52 231 -147c12 -30 19 -72 20 -127h-148c-1 34 -4 63 -12 80
c-17 38 -55 54 -89 54h-12c-35 0 -71 -16 -89 -54c-8 -16 -12 -43 -12 -68v-244c0 -28 4 -54 12 -71c18 -38 54 -53 89 -53h12c34 0 71 14 89 53zM477 994l1 -12l-176 -175h-97l117 187h155z" />
    <glyph glyph-name="cacute" unicode="&#x107;" horiz-adv-x="541" 
d="M485 435c7 -21 13 -47 15 -77h-143c-1 10 -3 18 -6 26c-12 34 -39 53 -74 53s-62 -19 -74 -53c-6 -16 -9 -37 -9 -64v-80c0 -27 3 -48 9 -64c12 -34 39 -53 74 -53s62 19 74 53c2 5 3 11 5 18h143c-2 -27 -7 -50 -14 -69c-30 -86 -108 -135 -208 -135s-177 50 -208 135
c-9 27 -16 62 -16 104v102c0 42 7 77 16 104c31 85 108 135 208 135s177 -50 208 -135zM439 814l1 -12l-176 -175h-97l117 187h155z" />
    <glyph glyph-name="Ccircumflex" unicode="&#x108;" horiz-adv-x="613" 
d="M411 183c8 17 11 47 11 87h148c-1 -62 -8 -104 -19 -133c-37 -96 -131 -147 -229 -147h-10c-97 0 -191 52 -230 147c-13 31 -19 68 -19 115v246c0 47 6 84 19 115c39 95 133 147 230 147h8c98 0 194 -52 231 -147c12 -30 19 -72 20 -127h-148c-1 34 -4 63 -12 80
c-17 38 -55 54 -89 54h-12c-35 0 -71 -16 -89 -54c-8 -16 -12 -43 -12 -68v-244c0 -28 4 -54 12 -71c18 -38 54 -53 89 -53h12c34 0 71 14 89 53zM262 1013h96l167 -205h-116l-99 113l-99 -113h-116z" />
    <glyph glyph-name="ccircumflex" unicode="&#x109;" horiz-adv-x="541" 
d="M485 435c7 -21 13 -47 15 -77h-143c-1 10 -3 18 -6 26c-12 34 -39 53 -74 53s-62 -19 -74 -53c-6 -16 -9 -37 -9 -64v-80c0 -27 3 -48 9 -64c12 -34 39 -53 74 -53s62 19 74 53c2 5 3 11 5 18h143c-2 -27 -7 -50 -14 -69c-30 -86 -108 -135 -208 -135s-177 50 -208 135
c-9 27 -16 62 -16 104v102c0 42 7 77 16 104c31 85 108 135 208 135s177 -50 208 -135zM227 833h96l167 -205h-116l-99 113l-99 -113h-116z" />
    <glyph glyph-name="Cdotaccent" unicode="&#x10a;" horiz-adv-x="613" 
d="M411 183c8 17 11 47 11 87h148c-1 -62 -8 -104 -19 -133c-37 -96 -131 -147 -229 -147h-10c-97 0 -191 52 -230 147c-13 31 -19 68 -19 115v246c0 47 6 84 19 115c39 95 133 147 230 147h8c98 0 194 -52 231 -147c12 -30 19 -72 20 -127h-148c-1 34 -4 63 -12 80
c-17 38 -55 54 -89 54h-12c-35 0 -71 -16 -89 -54c-8 -16 -12 -43 -12 -68v-244c0 -28 4 -54 12 -71c18 -38 54 -53 89 -53h12c34 0 71 14 89 53zM377 823h-141v139h141v-139z" />
    <glyph glyph-name="cdotaccent" unicode="&#x10b;" horiz-adv-x="541" 
d="M485 435c7 -21 13 -47 15 -77h-143c-1 10 -3 18 -6 26c-12 34 -39 53 -74 53s-62 -19 -74 -53c-6 -16 -9 -37 -9 -64v-80c0 -27 3 -48 9 -64c12 -34 39 -53 74 -53s62 19 74 53c2 5 3 11 5 18h143c-2 -27 -7 -50 -14 -69c-30 -86 -108 -135 -208 -135s-177 50 -208 135
c-9 27 -16 62 -16 104v102c0 42 7 77 16 104c31 85 108 135 208 135s177 -50 208 -135zM341 643h-141v139h141v-139z" />
    <glyph glyph-name="Ccaron" unicode="&#x10c;" horiz-adv-x="613" 
d="M411 183c8 17 11 47 11 87h148c-1 -62 -8 -104 -19 -133c-37 -96 -131 -147 -229 -147h-10c-97 0 -191 52 -230 147c-13 31 -19 68 -19 115v246c0 47 6 84 19 115c39 95 133 147 230 147h8c98 0 194 -52 231 -147c12 -30 19 -72 20 -127h-148c-1 34 -4 63 -12 80
c-17 38 -55 54 -89 54h-12c-35 0 -71 -16 -89 -54c-8 -16 -12 -43 -12 -68v-244c0 -28 4 -54 12 -71c18 -38 54 -53 89 -53h12c34 0 71 14 89 53zM356 808h-96l-167 205h116l99 -113l99 113h116z" />
    <glyph glyph-name="ccaron" unicode="&#x10d;" horiz-adv-x="541" 
d="M485 435c7 -21 13 -47 15 -77h-143c-1 10 -3 18 -6 26c-12 34 -39 53 -74 53s-62 -19 -74 -53c-6 -16 -9 -37 -9 -64v-80c0 -27 3 -48 9 -64c12 -34 39 -53 74 -53s62 19 74 53c2 5 3 11 5 18h143c-2 -27 -7 -50 -14 -69c-30 -86 -108 -135 -208 -135s-177 50 -208 135
c-9 27 -16 62 -16 104v102c0 42 7 77 16 104c31 85 108 135 208 135s177 -50 208 -135zM319 628h-96l-167 205h116l99 -113l99 113h116z" />
    <glyph glyph-name="Dcaron" unicode="&#x10e;" horiz-adv-x="633" 
d="M219 140h96c51 0 81 16 99 54c8 17 11 42 11 70v221c0 28 -3 53 -11 70c-18 38 -48 54 -99 54h-96v-469zM311 0h-237v750h237c118 0 202 -52 240 -147c12 -31 19 -68 19 -115v-226c0 -47 -7 -84 -19 -115c-38 -95 -122 -147 -240 -147zM346 808h-96l-167 205h116l99 -113
l99 113h116z" />
    <glyph glyph-name="dcaron" unicode="&#x10f;" horiz-adv-x="675" 
d="M368 245v71c0 20 -2 37 -5 50c-11 40 -42 72 -84 72c-40 0 -68 -24 -79 -61c-4 -14 -6 -30 -6 -56v-83c0 -25 2 -44 7 -58c11 -36 37 -55 74 -55c36 0 69 29 84 64c6 14 9 29 9 56zM237 570c50 0 94 -15 131 -51h1s-1 33 -1 58v208h141v-785h-93l-12 71h-1
c-33 -52 -90 -81 -151 -81c-92 0 -165 51 -190 151c-6 24 -9 57 -9 91v97c0 34 3 67 9 91c25 100 98 150 175 150zM574 666v119h121v-86c0 -19 -1 -39 -5 -55c-12 -49 -45 -86 -113 -96v43c50 15 59 49 59 66c0 8 -5 9 -9 9h-53z" />
    <glyph glyph-name="Dcroat" unicode="&#x110;" horiz-adv-x="666" 
d="M345 0h-237v342h-96v106h96v302h237c118 0 202 -52 240 -147c12 -31 19 -68 19 -115v-226c0 -47 -7 -84 -19 -115c-38 -95 -122 -147 -240 -147zM253 140h96c51 0 81 16 99 54c8 17 11 42 11 70v221c0 28 -3 53 -11 70c-18 38 -48 54 -99 54h-96v-161h121v-106h-121v-202
z" />
    <glyph glyph-name="dcroat" unicode="&#x111;" horiz-adv-x="588" 
d="M237 570c50 0 94 -15 131 -51h1s-1 33 -1 58v61h-167v75h167v72h141v-72h89v-75h-89v-638h-93l-12 71h-1c-33 -52 -90 -81 -151 -81c-92 0 -165 51 -190 151c-6 24 -9 57 -9 91v97c0 34 3 67 9 91c25 100 98 150 175 150zM368 245v71c0 20 -2 37 -5 50
c-11 40 -42 72 -84 72c-40 0 -68 -24 -79 -61c-4 -14 -6 -30 -6 -56v-83c0 -25 2 -44 7 -58c11 -36 37 -55 74 -55c36 0 69 29 84 64c6 14 9 29 9 56z" />
    <glyph glyph-name="Emacron" unicode="&#x112;" horiz-adv-x="565" 
d="M74 0v750h453v-135h-307v-163h253v-135h-253v-182h307v-135h-453zM465 920v-95h-331v95h331z" />
    <glyph glyph-name="emacron" unicode="&#x113;" horiz-adv-x="553" 
d="M501 242h-307v-14c0 -27 3 -48 9 -64c12 -34 39 -53 74 -53c37 0 63 22 76 61h143c-2 -17 -6 -34 -11 -47c-30 -86 -108 -135 -208 -135s-177 50 -208 135c-9 27 -16 62 -16 104v102c0 42 7 77 16 104c31 85 108 135 208 135s177 -50 208 -135c9 -27 16 -62 16 -104v-89z
M194 348h166c-1 22 -4 38 -9 51c-12 34 -39 53 -74 53s-62 -19 -74 -53c-5 -13 -8 -30 -9 -51zM442 740v-95h-331v95h331z" />
    <glyph glyph-name="Ebreve" unicode="&#x114;" horiz-adv-x="565" 
d="M74 0v750h453v-135h-307v-163h253v-135h-253v-182h307v-135h-453zM304 803c-108 0 -174 71 -179 182h91c7 -51 29 -84 88 -84s81 33 88 84h91c-5 -111 -71 -182 -179 -182z" />
    <glyph glyph-name="ebreve" unicode="&#x115;" horiz-adv-x="553" 
d="M501 242h-307v-14c0 -27 3 -48 9 -64c12 -34 39 -53 74 -53c37 0 63 22 76 61h143c-2 -17 -6 -34 -11 -47c-30 -86 -108 -135 -208 -135s-177 50 -208 135c-9 27 -16 62 -16 104v102c0 42 7 77 16 104c31 85 108 135 208 135s177 -50 208 -135c9 -27 16 -62 16 -104v-89z
M194 348h166c-1 22 -4 38 -9 51c-12 34 -39 53 -74 53s-62 -19 -74 -53c-5 -13 -8 -30 -9 -51zM277 623c-108 0 -174 71 -179 182h91c7 -51 29 -84 88 -84s81 33 88 84h91c-5 -111 -71 -182 -179 -182z" />
    <glyph glyph-name="Edotaccent" unicode="&#x116;" horiz-adv-x="565" 
d="M74 0v750h453v-135h-307v-163h253v-135h-253v-182h307v-135h-453zM378 823h-141v139h141v-139z" />
    <glyph glyph-name="edotaccent" unicode="&#x117;" horiz-adv-x="553" 
d="M501 242h-307v-14c0 -27 3 -48 9 -64c12 -34 39 -53 74 -53c37 0 63 22 76 61h143c-2 -17 -6 -34 -11 -47c-30 -86 -108 -135 -208 -135s-177 50 -208 135c-9 27 -16 62 -16 104v102c0 42 7 77 16 104c31 85 108 135 208 135s177 -50 208 -135c9 -27 16 -62 16 -104v-89z
M194 348h166c-1 22 -4 38 -9 51c-12 34 -39 53 -74 53s-62 -19 -74 -53c-5 -13 -8 -30 -9 -51zM347 643h-141v139h141v-139z" />
    <glyph glyph-name="Eogonek" unicode="&#x118;" horiz-adv-x="565" 
d="M74 0v750h453v-135h-307v-163h253v-135h-253v-182h307v-135c-21 -4 -45 -17 -69 -36c-40 -33 -57 -63 -57 -90c0 -23 19 -40 47 -40c22 0 43 6 65 19l28 -61c-27 -19 -70 -31 -104 -31c-68 0 -129 34 -132 102c-2 53 32 98 96 137h-327z" />
    <glyph glyph-name="eogonek" unicode="&#x119;" horiz-adv-x="553" 
d="M501 242h-307v-14c0 -27 3 -48 9 -64c12 -34 39 -53 74 -53c37 0 63 22 76 61h143c-2 -17 -6 -34 -11 -47c-16 -47 -42 -79 -87 -106c-107 -64 -139 -108 -139 -145c0 -23 19 -40 47 -40c22 0 43 6 65 19l28 -61c-27 -19 -70 -31 -104 -31c-68 0 -129 34 -132 102
c-2 49 27 92 83 129c-85 9 -150 57 -177 133c-9 27 -16 62 -16 104v102c0 42 7 77 16 104c31 85 108 135 208 135s177 -50 208 -135c9 -27 16 -62 16 -104v-89zM194 348h166c-1 22 -4 38 -9 51c-12 34 -39 53 -74 53s-62 -19 -74 -53c-5 -13 -8 -30 -9 -51z" />
    <glyph glyph-name="Ecaron" unicode="&#x11a;" horiz-adv-x="565" 
d="M74 0v750h453v-135h-307v-163h253v-135h-253v-182h307v-135h-453zM352 808h-96l-167 205h116l99 -113l99 113h116z" />
    <glyph glyph-name="ecaron" unicode="&#x11b;" horiz-adv-x="553" 
d="M501 242h-307v-14c0 -27 3 -48 9 -64c12 -34 39 -53 74 -53c37 0 63 22 76 61h143c-2 -17 -6 -34 -11 -47c-30 -86 -108 -135 -208 -135s-177 50 -208 135c-9 27 -16 62 -16 104v102c0 42 7 77 16 104c31 85 108 135 208 135s177 -50 208 -135c9 -27 16 -62 16 -104v-89z
M194 348h166c-1 22 -4 38 -9 51c-12 34 -39 53 -74 53s-62 -19 -74 -53c-5 -13 -8 -30 -9 -51zM326 628h-96l-167 205h116l99 -113l99 113h116z" />
    <glyph glyph-name="Gcircumflex" unicode="&#x11c;" horiz-adv-x="635" 
d="M309 -10h-7c-87 0 -181 52 -220 147c-13 31 -19 68 -19 115v246c0 47 6 84 19 115c39 95 133 147 230 147h8c98 0 194 -52 231 -147c10 -26 17 -61 19 -105h-148c-2 24 -5 45 -11 58c-17 38 -55 54 -89 54h-12c-35 0 -71 -16 -89 -54c-8 -16 -12 -43 -12 -68v-244
c0 -28 4 -54 12 -71c18 -38 56 -53 91 -53h7c54 0 105 35 105 119v19h-113v129h257v-397h-63l-24 83h-1c-35 -60 -98 -93 -171 -93zM268 1013h96l167 -205h-116l-99 113l-99 -113h-116z" />
    <glyph glyph-name="gcircumflex" unicode="&#x11d;" horiz-adv-x="564" 
d="M366 254v61c0 20 -2 37 -5 50c-11 40 -41 72 -83 72c-40 0 -67 -24 -78 -61c-4 -14 -6 -30 -6 -56v-73c0 -25 2 -44 7 -58c11 -36 36 -55 73 -55c36 0 68 29 83 64c6 14 9 29 9 56zM368 -7v10c0 25 1 58 1 58h-1c-36 -41 -81 -61 -133 -61c-81 0 -148 53 -172 143
c-7 24 -10 61 -10 91v94c0 34 3 67 9 91c25 100 98 151 190 151c61 0 118 -29 151 -81h1l12 71h93v-554c0 -34 -3 -66 -10 -89c-28 -97 -108 -155 -214 -155c-114 0 -204 65 -225 187h138c9 -39 44 -63 87 -63c50 0 83 36 83 107zM244 833h96l167 -205h-116l-99 113
l-99 -113h-116z" />
    <glyph glyph-name="Gbreve" unicode="&#x11e;" horiz-adv-x="635" 
d="M309 -10h-7c-87 0 -181 52 -220 147c-13 31 -19 68 -19 115v246c0 47 6 84 19 115c39 95 133 147 230 147h8c98 0 194 -52 231 -147c10 -26 17 -61 19 -105h-148c-2 24 -5 45 -11 58c-17 38 -55 54 -89 54h-12c-35 0 -71 -16 -89 -54c-8 -16 -12 -43 -12 -68v-244
c0 -28 4 -54 12 -71c18 -38 56 -53 91 -53h7c54 0 105 35 105 119v19h-113v129h257v-397h-63l-24 83h-1c-35 -60 -98 -93 -171 -93zM316 803c-108 0 -174 71 -179 182h91c7 -51 29 -84 88 -84s81 33 88 84h91c-5 -111 -71 -182 -179 -182z" />
    <glyph glyph-name="gbreve" unicode="&#x11f;" 
d="M366 254v61c0 20 -2 37 -5 50c-11 40 -41 72 -83 72c-40 0 -67 -24 -78 -61c-4 -14 -6 -30 -6 -56v-73c0 -25 2 -44 7 -58c11 -36 36 -55 73 -55c36 0 68 29 83 64c6 14 9 29 9 56zM368 -7v10c0 25 1 58 1 58h-1c-36 -41 -81 -61 -133 -61c-81 0 -148 53 -172 143
c-7 24 -10 61 -10 91v94c0 34 3 67 9 91c25 100 98 151 190 151c61 0 118 -29 151 -81h1l12 71h93v-554c0 -34 -3 -66 -10 -89c-28 -97 -108 -155 -214 -155c-114 0 -204 65 -225 187h138c9 -39 44 -63 87 -63c50 0 83 36 83 107zM289 623c-108 0 -174 71 -179 182h91
c7 -51 29 -84 88 -84s81 33 88 84h91c-5 -111 -71 -182 -179 -182z" />
    <glyph glyph-name="Gdotaccent" unicode="&#x120;" horiz-adv-x="635" 
d="M309 -10h-7c-87 0 -181 52 -220 147c-13 31 -19 68 -19 115v246c0 47 6 84 19 115c39 95 133 147 230 147h8c98 0 194 -52 231 -147c10 -26 17 -61 19 -105h-148c-2 24 -5 45 -11 58c-17 38 -55 54 -89 54h-12c-35 0 -71 -16 -89 -54c-8 -16 -12 -43 -12 -68v-244
c0 -28 4 -54 12 -71c18 -38 56 -53 91 -53h7c54 0 105 35 105 119v19h-113v129h257v-397h-63l-24 83h-1c-35 -60 -98 -93 -171 -93zM388 823h-141v139h141v-139z" />
    <glyph glyph-name="gdotaccent" unicode="&#x121;" 
d="M366 254v61c0 20 -2 37 -5 50c-11 40 -41 72 -83 72c-40 0 -67 -24 -78 -61c-4 -14 -6 -30 -6 -56v-73c0 -25 2 -44 7 -58c11 -36 36 -55 73 -55c36 0 68 29 83 64c6 14 9 29 9 56zM368 -7v10c0 25 1 58 1 58h-1c-36 -41 -81 -61 -133 -61c-81 0 -148 53 -172 143
c-7 24 -10 61 -10 91v94c0 34 3 67 9 91c25 100 98 151 190 151c61 0 118 -29 151 -81h1l12 71h93v-554c0 -34 -3 -66 -10 -89c-28 -97 -108 -155 -214 -155c-114 0 -204 65 -225 187h138c9 -39 44 -63 87 -63c50 0 83 36 83 107zM355 643h-141v139h141v-139z" />
    <glyph glyph-name="Gcommaaccent" unicode="&#x122;" horiz-adv-x="635" 
d="M309 -10h-7c-87 0 -181 52 -220 147c-13 31 -19 68 -19 115v246c0 47 6 84 19 115c39 95 133 147 230 147h8c98 0 194 -52 231 -147c10 -26 17 -61 19 -105h-148c-2 24 -5 45 -11 58c-17 38 -55 54 -89 54h-12c-35 0 -71 -16 -89 -54c-8 -16 -12 -43 -12 -68v-244
c0 -28 4 -54 12 -71c18 -38 56 -53 91 -53h7c54 0 105 35 105 119v19h-113v129h257v-397h-63l-24 83h-1c-35 -60 -98 -93 -171 -93zM255 -169v119h121v-86c0 -19 -1 -39 -5 -55c-12 -49 -45 -86 -113 -96v43c50 15 59 49 59 66c0 8 -5 9 -9 9h-53z" />
    <glyph glyph-name="gcommaaccent" unicode="&#x123;" 
d="M334 760v-119h-121v86c0 19 1 39 5 55c12 49 45 86 113 96v-43c-50 -15 -59 -49 -59 -66c0 -8 5 -9 9 -9h53zM366 254v61c0 20 -2 37 -5 50c-11 40 -41 72 -83 72c-40 0 -67 -24 -78 -61c-4 -14 -6 -30 -6 -56v-73c0 -25 2 -44 7 -58c11 -36 36 -55 73 -55
c36 0 68 29 83 64c6 14 9 29 9 56zM368 -7v10c0 25 1 58 1 58h-1c-36 -41 -81 -61 -133 -61c-81 0 -148 53 -172 143c-7 24 -10 61 -10 91v94c0 34 3 67 9 91c25 100 98 151 190 151c61 0 118 -29 151 -81h1l12 71h93v-554c0 -34 -3 -66 -10 -89
c-28 -97 -108 -155 -214 -155c-114 0 -204 65 -225 187h138c9 -39 44 -63 87 -63c50 0 83 36 83 107z" />
    <glyph glyph-name="Hcircumflex" unicode="&#x124;" horiz-adv-x="666" 
d="M74 0v750h146v-289h226v289h146v-750h-146v321h-226v-321h-146zM285 1023h96l167 -205h-116l-99 113l-99 -113h-116z" />
    <glyph glyph-name="hcircumflex" unicode="&#x125;" horiz-adv-x="595" 
d="M527 0h-141v323c0 25 -2 44 -7 58c-11 36 -37 55 -74 55c-36 0 -69 -29 -84 -64c-6 -14 -9 -29 -9 -56v-316h-141v785h141v-218c0 -25 -1 -58 -1 -58h1c36 41 81 61 133 61c81 0 148 -53 172 -143c7 -24 10 -61 10 -91v-336zM238 1033h96l167 -205h-116l-99 113l-99 -113
h-116z" />
    <glyph glyph-name="Hbar" unicode="&#x126;" horiz-adv-x="666" 
d="M74 0v560h-94v75h94v115h146v-115h226v115h146v-115h94v-75h-94v-560h-146v321h-226v-321h-146zM220 461h226v99h-226v-99z" />
    <glyph glyph-name="hbar" unicode="&#x127;" horiz-adv-x="603" 
d="M535 0h-141v323c0 25 -2 44 -7 58c-11 36 -37 55 -74 55c-36 0 -69 -29 -84 -64c-6 -14 -9 -29 -9 -56v-316h-141v638h-89v75h89v72h141v-72h167v-75h-167v-71c0 -25 -1 -58 -1 -58h1c36 41 81 61 133 61c81 0 148 -53 172 -143c7 -24 10 -61 10 -91v-336z" />
    <glyph glyph-name="Itilde" unicode="&#x128;" horiz-adv-x="294" 
d="M74 0v750h146v-750h-146zM140 838c-37 27 -45 39 -72 38c-12 0 -31 -11 -35 -54h-88c6 100 55 157 125 157c30 0 60 -11 91 -34c37 -27 45 -39 72 -38c12 0 31 11 35 54h88c-6 -100 -55 -157 -125 -157c-30 0 -60 11 -91 34z" />
    <glyph glyph-name="itilde" unicode="&#x129;" horiz-adv-x="277" 
d="M68 0v560h141v-560h-141zM128 658c-37 27 -45 39 -72 38c-12 0 -31 -11 -35 -54h-88c6 100 55 157 125 157c30 0 60 -11 91 -34c37 -27 45 -39 72 -38c12 0 31 11 35 54h88c-6 -100 -55 -157 -125 -157c-30 0 -60 11 -91 34z" />
    <glyph glyph-name="uni012A" unicode="&#x12a;" horiz-adv-x="294" 
d="M74 0v750h146v-750h-146zM313 920v-95h-331v95h331z" />
    <glyph glyph-name="imacron" unicode="&#x12b;" horiz-adv-x="277" 
d="M68 0v560h141v-560h-141zM304 740v-95h-331v95h331z" />
    <glyph glyph-name="Ibreve" unicode="&#x12c;" horiz-adv-x="294" 
d="M74 0v750h146v-750h-146zM147 803c-108 0 -174 71 -179 182h91c7 -51 29 -84 88 -84s81 33 88 84h91c-5 -111 -71 -182 -179 -182z" />
    <glyph glyph-name="uni012D" unicode="&#x12d;" horiz-adv-x="277" 
d="M68 0v560h141v-560h-141zM138 623c-108 0 -174 71 -179 182h91c7 -51 29 -84 88 -84s81 33 88 84h91c-5 -111 -71 -182 -179 -182z" />
    <glyph glyph-name="Iogonek" unicode="&#x12e;" horiz-adv-x="294" 
d="M220 750v-750c-77 -50 -111 -89 -111 -126c0 -23 19 -40 47 -40c22 0 43 6 65 19l28 -61c-27 -19 -70 -31 -104 -31c-68 0 -129 34 -132 102c-2 42 20 80 61 113v774h146z" />
    <glyph glyph-name="iogonek" unicode="&#x12f;" horiz-adv-x="277" 
d="M209 560v-560c-77 -48 -111 -89 -111 -126c0 -23 19 -40 47 -40c22 0 43 6 65 19l28 -61c-27 -19 -70 -31 -104 -31c-68 0 -129 34 -132 102c-2 44 21 83 66 117v580h141zM68 640v141h141v-141h-141z" />
    <glyph glyph-name="Idotaccent" unicode="&#x130;" horiz-adv-x="294" 
d="M74 0v750h146v-750h-146zM218 823h-141v139h141v-139z" />
    <glyph glyph-name="dotlessi" unicode="&#x131;" horiz-adv-x="277" 
d="M68 0v560h141v-560h-141z" />
    <glyph glyph-name="IJ" unicode="&#x132;" horiz-adv-x="851" 
d="M74 0v750h146v-750h-146zM472 291v-51c0 -33 5 -57 14 -73c14 -25 38 -38 68 -38c31 0 54 14 68 38c9 16 14 39 14 69v514h145v-515c0 -47 -8 -85 -21 -117c-34 -80 -108 -128 -206 -128c-97 0 -170 47 -205 128c-14 32 -22 70 -22 126v47h145z" />
    <glyph glyph-name="ij" unicode="&#x133;" horiz-adv-x="564" 
d="M68 0v560h141v-560h-141zM68 640v141h141v-141h-141zM355 640v141h141v-141h-141zM355 -19v579h141v-583c0 -152 -83 -213 -207 -213c-27 0 -49 2 -58 3v132c12 -1 25 -2 37 -2c59 0 87 23 87 84z" />
    <glyph glyph-name="Jcircumflex" unicode="&#x134;" horiz-adv-x="567" 
d="M188 291v-51c0 -33 5 -57 14 -73c14 -25 38 -38 68 -38c31 0 54 14 68 38c9 16 14 39 14 69v514h145v-515c0 -47 -8 -85 -21 -117c-34 -80 -108 -128 -206 -128c-97 0 -170 47 -205 128c-14 32 -22 70 -22 126v47h145zM376 1013h96l167 -205h-116l-99 113l-99 -113h-116z
" />
    <glyph glyph-name="jcircumflex" unicode="&#x135;" horiz-adv-x="287" 
d="M78 -19v579h141v-583c0 -152 -83 -213 -207 -213c-27 0 -49 2 -58 3v132c12 -1 25 -2 37 -2c59 0 87 23 87 84zM98 833h96l167 -205h-116l-99 113l-99 -113h-116z" />
    <glyph glyph-name="Kcommaaccent" unicode="&#x136;" horiz-adv-x="631" 
d="M255 510l194 240h170l-244 -294l253 -456h-167l-183 344l-59 -77v-267h-145v750h145v-283l1 -1s19 24 35 44zM266 -169v119h121v-86c0 -19 -1 -39 -5 -55c-12 -49 -45 -86 -113 -96v43c50 15 59 49 59 66c0 8 -5 9 -9 9h-53z" />
    <glyph glyph-name="kcommaaccent" unicode="&#x137;" horiz-adv-x="560" 
d="M554 0h-167l-136 270l-39 -42v-228h-141v785h141v-395l159 170h176l-192 -199zM229 -169v119h121v-86c0 -19 -1 -39 -5 -55c-12 -49 -45 -86 -113 -96v43c50 15 59 49 59 66c0 8 -5 9 -9 9h-53z" />
    <glyph glyph-name="kgreenlandic" unicode="&#x138;" horiz-adv-x="560" 
d="M554 0h-167l-136 270l-39 -42v-228h-141v560h141v-170l159 170h176l-192 -199z" />
    <glyph glyph-name="Lacute" unicode="&#x139;" horiz-adv-x="562" 
d="M74 0v750h146v-610h314v-140h-460zM351 994l1 -12l-176 -175h-97l117 187h155z" />
    <glyph glyph-name="lacute" unicode="&#x13a;" horiz-adv-x="283" 
d="M71 0v785h141v-785h-141zM348 1024l1 -12l-176 -175h-97l117 187h155z" />
    <glyph glyph-name="Lcommaaccent" unicode="&#x13b;" horiz-adv-x="562" 
d="M74 0v750h146v-610h314v-140h-460zM249 -169v119h121v-86c0 -19 -1 -39 -5 -55c-12 -49 -45 -86 -113 -96v43c50 15 59 49 59 66c0 8 -5 9 -9 9h-53z" />
    <glyph glyph-name="lcommaaccent" unicode="&#x13c;" horiz-adv-x="283" 
d="M71 0v785h141v-785h-141zM81 -169v119h121v-86c0 -19 -1 -39 -5 -55c-12 -49 -45 -86 -113 -96v43c50 15 59 49 59 66c0 8 -5 9 -9 9h-53z" />
    <glyph glyph-name="Lcaron" unicode="&#x13d;" horiz-adv-x="562" 
d="M74 0v750h146v-610h314v-140h-460zM370 666v119h121v-86c0 -19 -1 -39 -5 -55c-12 -49 -45 -86 -113 -96v43c50 15 59 49 59 66c0 8 -5 9 -9 9h-53z" />
    <glyph glyph-name="lcaron" unicode="&#x13e;" horiz-adv-x="378" 
d="M71 0v785h141v-785h-141zM277 666v119h121v-86c0 -19 -1 -39 -5 -55c-12 -49 -45 -86 -113 -96v43c50 15 59 49 59 66c0 8 -5 9 -9 9h-53z" />
    <glyph glyph-name="Ldot" unicode="&#x13f;" horiz-adv-x="562" 
d="M74 0v750h146v-610h314v-140h-460zM498 348h-141v139h141v-139z" />
    <glyph glyph-name="ldot" unicode="&#x140;" horiz-adv-x="423" 
d="M71 0v785h141v-785h-141zM433 348h-141v139h141v-139z" />
    <glyph glyph-name="Lslash" unicode="&#x141;" horiz-adv-x="605" 
d="M117 0v268l-104 -60v118l104 60v364h146v-280l141 82v-118l-141 -82v-212h314v-140h-460z" />
    <glyph glyph-name="lslash" unicode="&#x142;" horiz-adv-x="370" 
d="M357 482l-102 -72v-410h-140v311l-102 -72v116l102 72v358h140v-259l102 72v-116z" />
    <glyph glyph-name="Nacute" unicode="&#x143;" horiz-adv-x="666" 
d="M210 479h-1s1 -33 1 -58v-421h-136v750h153l229 -479h1s-1 33 -1 58v421h136v-750h-154zM526 994l1 -12l-176 -175h-97l117 187h155z" />
    <glyph glyph-name="nacute" unicode="&#x144;" horiz-adv-x="595" 
d="M333 570c93 0 160 -53 184 -143c7 -24 10 -61 10 -91v-336h-141v323c0 25 -2 44 -7 58c-11 36 -37 55 -74 55c-36 0 -69 -29 -84 -64c-6 -14 -9 -29 -9 -56v-316h-141v560h93l12 -71h1c33 52 90 81 156 81zM468 814l1 -12l-176 -175h-97l117 187h155z" />
    <glyph glyph-name="Ncommaaccent" unicode="&#x145;" horiz-adv-x="666" 
d="M210 479h-1s1 -33 1 -58v-421h-136v750h153l229 -479h1s-1 33 -1 58v421h136v-750h-154zM275 -169v119h121v-86c0 -19 -1 -39 -5 -55c-12 -49 -45 -86 -113 -96v43c50 15 59 49 59 66c0 8 -5 9 -9 9h-53z" />
    <glyph glyph-name="ncommaaccent" unicode="&#x146;" horiz-adv-x="595" 
d="M333 570c93 0 160 -53 184 -143c7 -24 10 -61 10 -91v-336h-141v323c0 25 -2 44 -7 58c-11 36 -37 55 -74 55c-36 0 -69 -29 -84 -64c-6 -14 -9 -29 -9 -56v-316h-141v560h93l12 -71h1c33 52 90 81 156 81zM237 -169v119h121v-86c0 -19 -1 -39 -5 -55
c-12 -49 -45 -86 -113 -96v43c50 15 59 49 59 66c0 8 -5 9 -9 9h-53z" />
    <glyph glyph-name="Ncaron" unicode="&#x147;" horiz-adv-x="666" 
d="M210 479h-1s1 -33 1 -58v-421h-136v750h153l229 -479h1s-1 33 -1 58v421h136v-750h-154zM385 808h-96l-167 205h116l99 -113l99 113h116z" />
    <glyph glyph-name="ncaron" unicode="&#x148;" horiz-adv-x="595" 
d="M333 570c93 0 160 -53 184 -143c7 -24 10 -61 10 -91v-336h-141v323c0 25 -2 44 -7 58c-11 36 -37 55 -74 55c-36 0 -69 -29 -84 -64c-6 -14 -9 -29 -9 -56v-316h-141v560h93l12 -71h1c33 52 90 81 156 81zM355 628h-96l-167 205h116l99 -113l99 113h116z" />
    <glyph glyph-name="napostrophe" unicode="&#x149;" horiz-adv-x="742" 
d="M480 570c93 0 160 -53 184 -143c7 -24 10 -61 10 -91v-336h-141v323c0 25 -2 44 -7 58c-11 36 -37 55 -74 55c-36 0 -69 -29 -84 -64c-6 -14 -9 -29 -9 -56v-316h-141v560h93l12 -71h1c33 52 90 81 156 81zM13 642v164h163v-124c0 -27 -2 -56 -8 -77
c-16 -69 -62 -129 -158 -142v58c70 22 87 69 87 107c0 11 -6 14 -13 14h-71z" />
    <glyph glyph-name="Eng" unicode="&#x14a;" horiz-adv-x="666" 
d="M456 -19v19h-18l-228 479h-1s1 -33 1 -58v-421h-136v750h153l229 -479h1s-1 33 -1 58v421h136v-773c0 -152 -83 -213 -207 -213c-27 0 -49 2 -58 3v132c12 -1 27 -2 39 -2c59 0 90 23 90 84z" />
    <glyph glyph-name="eng" unicode="&#x14b;" horiz-adv-x="595" 
d="M386 -19v342c0 25 -2 44 -7 58c-11 36 -37 55 -74 55c-36 0 -69 -29 -84 -64c-6 -14 -9 -29 -9 -56v-316h-141v560h93l12 -71h1c33 52 90 81 156 81c93 0 160 -53 184 -143c7 -24 10 -61 10 -91v-359c0 -152 -83 -213 -207 -213c-27 0 -49 2 -58 3v132c12 -1 25 -2 37 -2
c59 0 87 23 87 84z" />
    <glyph glyph-name="Omacron" unicode="&#x14c;" horiz-adv-x="631" 
d="M422 254v242c0 30 -3 55 -11 72c-18 38 -55 53 -90 53h-11c-36 0 -72 -15 -90 -53c-9 -17 -11 -42 -11 -72v-242c0 -30 2 -55 11 -72c18 -38 54 -53 90 -53h11c35 0 72 15 90 53c8 17 11 42 11 72zM63 252v246c0 47 6 84 18 115c39 96 133 147 229 147h11
c96 0 189 -52 228 -147c13 -31 19 -68 19 -115v-246c0 -47 -6 -84 -19 -115c-39 -95 -132 -147 -228 -147h-11c-96 0 -190 51 -229 147c-12 31 -18 68 -18 115zM481 920v-95h-331v95h331z" />
    <glyph glyph-name="omacron" unicode="&#x14d;" horiz-adv-x="554" 
d="M501 331v-102c0 -42 -7 -77 -16 -104c-31 -85 -108 -135 -208 -135s-177 50 -208 135c-9 27 -16 62 -16 104v102c0 42 7 77 16 104c31 85 108 135 208 135s177 -50 208 -135c9 -27 16 -62 16 -104zM360 240v80c0 27 -3 48 -9 64c-12 34 -39 53 -74 53s-62 -19 -74 -53
c-6 -16 -9 -37 -9 -64v-80c0 -27 3 -48 9 -64c12 -34 39 -53 74 -53s62 19 74 53c6 16 9 37 9 64zM443 740v-95h-331v95h331z" />
    <glyph glyph-name="Obreve" unicode="&#x14e;" horiz-adv-x="631" 
d="M422 254v242c0 30 -3 55 -11 72c-18 38 -55 53 -90 53h-11c-36 0 -72 -15 -90 -53c-9 -17 -11 -42 -11 -72v-242c0 -30 2 -55 11 -72c18 -38 54 -53 90 -53h11c35 0 72 15 90 53c8 17 11 42 11 72zM63 252v246c0 47 6 84 18 115c39 96 133 147 229 147h11
c96 0 189 -52 228 -147c13 -31 19 -68 19 -115v-246c0 -47 -6 -84 -19 -115c-39 -95 -132 -147 -228 -147h-11c-96 0 -190 51 -229 147c-12 31 -18 68 -18 115zM315 803c-108 0 -174 71 -179 182h91c7 -51 29 -84 88 -84s81 33 88 84h91c-5 -111 -71 -182 -179 -182z" />
    <glyph glyph-name="obreve" unicode="&#x14f;" horiz-adv-x="554" 
d="M501 331v-102c0 -42 -7 -77 -16 -104c-31 -85 -108 -135 -208 -135s-177 50 -208 135c-9 27 -16 62 -16 104v102c0 42 7 77 16 104c31 85 108 135 208 135s177 -50 208 -135c9 -27 16 -62 16 -104zM360 240v80c0 27 -3 48 -9 64c-12 34 -39 53 -74 53s-62 -19 -74 -53
c-6 -16 -9 -37 -9 -64v-80c0 -27 3 -48 9 -64c12 -34 39 -53 74 -53s62 19 74 53c6 16 9 37 9 64zM277 623c-108 0 -174 71 -179 182h91c7 -51 29 -84 88 -84s81 33 88 84h91c-5 -111 -71 -182 -179 -182z" />
    <glyph glyph-name="Ohungarumlaut" unicode="&#x150;" horiz-adv-x="631" 
d="M422 254v242c0 30 -3 55 -11 72c-18 38 -55 53 -90 53h-11c-36 0 -72 -15 -90 -53c-9 -17 -11 -42 -11 -72v-242c0 -30 2 -55 11 -72c18 -38 54 -53 90 -53h11c35 0 72 15 90 53c8 17 11 42 11 72zM63 252v246c0 47 6 84 18 115c39 96 133 147 229 147h11
c96 0 189 -52 228 -147c13 -31 19 -68 19 -115v-246c0 -47 -6 -84 -19 -115c-39 -95 -132 -147 -228 -147h-11c-96 0 -190 51 -229 147c-12 31 -18 68 -18 115zM392 994l1 -12l-156 -175h-97l117 187h135zM602 994l1 -12l-156 -175h-97l117 187h135z" />
    <glyph glyph-name="ohungarumlaut" unicode="&#x151;" horiz-adv-x="554" 
d="M501 331v-102c0 -42 -7 -77 -16 -104c-31 -85 -108 -135 -208 -135s-177 50 -208 135c-9 27 -16 62 -16 104v102c0 42 7 77 16 104c31 85 108 135 208 135s177 -50 208 -135c9 -27 16 -62 16 -104zM360 240v80c0 27 -3 48 -9 64c-12 34 -39 53 -74 53s-62 -19 -74 -53
c-6 -16 -9 -37 -9 -64v-80c0 -27 3 -48 9 -64c12 -34 39 -53 74 -53s62 19 74 53c6 16 9 37 9 64zM352 814l1 -12l-156 -175h-97l117 187h135zM562 814l1 -12l-156 -175h-97l117 187h135z" />
    <glyph glyph-name="OE" unicode="&#x152;" horiz-adv-x="882" 
d="M844 0h-524c-31 0 -66 4 -92 13c-64 21 -119 66 -147 134c-12 31 -18 68 -18 115v226c0 47 6 84 18 115c28 68 83 113 147 134c26 9 61 13 92 13h524v-135h-279v-163h225v-135h-225v-182h279v-135zM419 135v480h-99c-22 0 -39 -3 -52 -8c-20 -8 -37 -22 -48 -45
c-9 -17 -11 -42 -11 -72v-230c0 -30 2 -55 11 -72c11 -23 28 -37 48 -45c13 -5 30 -8 52 -8h99z" />
    <glyph glyph-name="oe" unicode="&#x153;" horiz-adv-x="860" 
d="M808 242h-307v-14c0 -27 3 -48 9 -64c12 -34 39 -53 74 -53c37 0 63 22 76 61h143c-12 -104 -95 -182 -199 -182c-87 0 -142 33 -173 87c-30 -53 -81 -87 -164 -87c-100 0 -167 50 -198 135c-9 27 -16 62 -16 104v102c0 42 7 77 16 104c31 85 98 135 198 135
c81 0 133 -34 164 -88c30 53 83 88 167 88c137 0 210 -107 210 -239v-89zM360 240v80c0 27 -3 48 -9 64c-12 34 -39 53 -74 53s-62 -19 -74 -53c-6 -16 -9 -37 -9 -64v-80c0 -27 3 -48 9 -64c12 -34 39 -53 74 -53s62 19 74 53c6 16 9 37 9 64zM501 348h166
c-1 22 -4 38 -9 51c-12 34 -39 53 -74 53s-62 -19 -74 -53c-5 -13 -8 -30 -9 -51z" />
    <glyph glyph-name="Racute" unicode="&#x154;" horiz-adv-x="621" 
d="M296 611h-77v-172h81c69 0 107 39 107 94c0 41 -23 64 -60 73c-13 3 -31 5 -51 5zM286 306h-67v-306h-145v750h231c34 0 64 -3 88 -8c98 -22 161 -86 161 -191c0 -76 -40 -138 -114 -172v-1c65 -23 99 -65 105 -142l11 -134c3 -38 14 -75 42 -96v-6h-156
c-19 20 -27 57 -30 90l-10 118c-6 71 -40 98 -116 98zM462 994l1 -12l-176 -175h-97l117 187h155z" />
    <glyph glyph-name="racute" unicode="&#x155;" horiz-adv-x="446" 
d="M212 278v-278h-141v560h93l15 -86h1c40 64 94 96 161 96c29 0 60 -4 84 -10l-3 -141c-25 9 -52 13 -82 13c-67 0 -128 -63 -128 -154zM412 814l1 -12l-176 -175h-97l117 187h155z" />
    <glyph glyph-name="Rcommaaccent" unicode="&#x156;" horiz-adv-x="621" 
d="M296 611h-77v-172h81c69 0 107 39 107 94c0 41 -23 64 -60 73c-13 3 -31 5 -51 5zM286 306h-67v-306h-145v750h231c34 0 64 -3 88 -8c98 -22 161 -86 161 -191c0 -76 -40 -138 -114 -172v-1c65 -23 99 -65 105 -142l11 -134c3 -38 14 -75 42 -96v-6h-156
c-19 20 -27 57 -30 90l-10 118c-6 71 -40 98 -116 98zM258 -169v119h121v-86c0 -19 -1 -39 -5 -55c-12 -49 -45 -86 -113 -96v43c50 15 59 49 59 66c0 8 -5 9 -9 9h-53z" />
    <glyph glyph-name="rcommaaccent" unicode="&#x157;" horiz-adv-x="446" 
d="M212 278v-278h-141v560h93l15 -86h1c40 64 94 96 161 96c29 0 60 -4 84 -10l-3 -141c-25 9 -52 13 -82 13c-67 0 -128 -63 -128 -154zM80 -169v119h121v-86c0 -19 -1 -39 -5 -55c-12 -49 -45 -86 -113 -96v43c50 15 59 49 59 66c0 8 -5 9 -9 9h-53z" />
    <glyph glyph-name="Rcaron" unicode="&#x158;" horiz-adv-x="621" 
d="M296 611h-77v-172h81c69 0 107 39 107 94c0 41 -23 64 -60 73c-13 3 -31 5 -51 5zM286 306h-67v-306h-145v750h231c34 0 64 -3 88 -8c98 -22 161 -86 161 -191c0 -76 -40 -138 -114 -172v-1c65 -23 99 -65 105 -142l11 -134c3 -38 14 -75 42 -96v-6h-156
c-19 20 -27 57 -30 90l-10 118c-6 71 -40 98 -116 98zM351 808h-96l-167 205h116l99 -113l99 113h116z" />
    <glyph glyph-name="rcaron" unicode="&#x159;" horiz-adv-x="446" 
d="M212 278v-278h-141v560h93l15 -86h1c40 64 94 96 161 96c29 0 60 -4 84 -10l-3 -141c-25 9 -52 13 -82 13c-67 0 -128 -63 -128 -154zM301 628h-96l-167 205h116l99 -113l99 113h116z" />
    <glyph glyph-name="Sacute" unicode="&#x15a;" horiz-adv-x="601" 
d="M544 524h-143c0 60 -35 102 -104 102c-60 0 -90 -31 -90 -72c0 -45 30 -70 78 -87l64 -22c117 -40 204 -107 204 -233c0 -133 -106 -222 -250 -222c-165 0 -258 101 -262 243h144c3 -65 51 -110 115 -110c61 0 107 31 107 87c0 50 -46 79 -98 98l-63 23
c-103 38 -185 85 -185 222c0 131 108 207 242 207c140 0 248 -71 241 -236zM471 994l1 -12l-176 -175h-97l117 187h155z" />
    <glyph glyph-name="sacute" unicode="&#x15b;" horiz-adv-x="503" 
d="M36 170h138c11 -46 40 -68 80 -68s70 23 69 59c-1 39 -25 59 -95 72c-164 31 -177 122 -177 172c0 101 93 165 198 165c115 0 194 -57 206 -163h-138c-8 38 -36 51 -69 51c-34 0 -61 -17 -61 -46c0 -30 22 -50 83 -62c105 -21 193 -69 193 -185
c0 -105 -89 -175 -204 -175c-118 0 -207 53 -223 180zM431 814l1 -12l-176 -175h-97l117 187h155z" />
    <glyph glyph-name="Scircumflex" unicode="&#x15c;" horiz-adv-x="601" 
d="M544 524h-143c0 60 -35 102 -104 102c-60 0 -90 -31 -90 -72c0 -45 30 -70 78 -87l64 -22c117 -40 204 -107 204 -233c0 -133 -106 -222 -250 -222c-165 0 -258 101 -262 243h144c3 -65 51 -110 115 -110c61 0 107 31 107 87c0 50 -46 79 -98 98l-63 23
c-103 38 -185 85 -185 222c0 131 108 207 242 207c140 0 248 -71 241 -236zM252 1013h96l167 -205h-116l-99 113l-99 -113h-116z" />
    <glyph glyph-name="scircumflex" unicode="&#x15d;" horiz-adv-x="503" 
d="M36 170h138c11 -46 40 -68 80 -68s70 23 69 59c-1 39 -25 59 -95 72c-164 31 -177 122 -177 172c0 101 93 165 198 165c115 0 194 -57 206 -163h-138c-8 38 -36 51 -69 51c-34 0 -61 -17 -61 -46c0 -30 22 -50 83 -62c105 -21 193 -69 193 -185
c0 -105 -89 -175 -204 -175c-118 0 -207 53 -223 180zM203 833h96l167 -205h-116l-99 113l-99 -113h-116z" />
    <glyph glyph-name="Scedilla" unicode="&#x15e;" horiz-adv-x="601" 
d="M163 -142h77c6 -20 21 -32 43 -32c21 0 33 14 33 30c0 19 -14 33 -48 43l-24 7c-28 8 -38 17 -27 47l17 44c-122 24 -190 115 -193 236h144c3 -65 51 -110 115 -110c61 0 107 31 107 87c0 50 -46 79 -98 98l-63 23c-103 38 -185 85 -185 222c0 131 108 207 242 207
c140 0 248 -71 241 -236h-143c0 60 -35 102 -104 102c-60 0 -90 -31 -90 -72c0 -45 30 -70 78 -87l64 -22c117 -40 204 -107 204 -233c0 -132 -105 -220 -247 -222l-8 -33c54 -16 101 -45 101 -101c0 -63 -49 -100 -112 -100c-66 0 -119 39 -124 102z" />
    <glyph glyph-name="scedilla" unicode="&#x15f;" horiz-adv-x="503" 
d="M128 -142h77c6 -20 21 -32 43 -32c21 0 33 14 33 30c0 19 -14 33 -48 43l-24 7c-28 8 -38 17 -27 47l16 43c-87 15 -149 70 -162 174h138c11 -46 40 -68 80 -68s70 23 69 59c-1 39 -25 59 -95 72c-164 31 -177 122 -177 172c0 101 93 165 198 165c115 0 194 -57 206 -163
h-138c-8 38 -36 51 -69 51c-34 0 -61 -17 -61 -46c0 -30 22 -50 83 -62c105 -21 193 -69 193 -185c0 -101 -83 -170 -192 -175l-8 -33c54 -16 101 -45 101 -101c0 -63 -49 -100 -112 -100c-66 0 -119 39 -124 102z" />
    <glyph glyph-name="Scaron" unicode="&#x160;" horiz-adv-x="601" 
d="M544 524h-143c0 60 -35 102 -104 102c-60 0 -90 -31 -90 -72c0 -45 30 -70 78 -87l64 -22c117 -40 204 -107 204 -233c0 -133 -106 -222 -250 -222c-165 0 -258 101 -262 243h144c3 -65 51 -110 115 -110c61 0 107 31 107 87c0 50 -46 79 -98 98l-63 23
c-103 38 -185 85 -185 222c0 131 108 207 242 207c140 0 248 -71 241 -236zM349 808h-96l-167 205h116l99 -113l99 113h116z" />
    <glyph glyph-name="scaron" unicode="&#x161;" horiz-adv-x="503" 
d="M36 170h138c11 -46 40 -68 80 -68s70 23 69 59c-1 39 -25 59 -95 72c-164 31 -177 122 -177 172c0 101 93 165 198 165c115 0 194 -57 206 -163h-138c-8 38 -36 51 -69 51c-34 0 -61 -17 -61 -46c0 -30 22 -50 83 -62c105 -21 193 -69 193 -185
c0 -105 -89 -175 -204 -175c-118 0 -207 53 -223 180zM306 628h-96l-167 205h116l99 -113l99 113h116z" />
    <glyph glyph-name="Tcommaaccent" unicode="&#x162;" horiz-adv-x="565" 
d="M20 750h525v-140h-189v-610h-146v610h-190v140zM222 -169v119h121v-86c0 -19 -1 -39 -5 -55c-12 -49 -45 -86 -113 -96v43c50 15 59 49 59 66c0 8 -5 9 -9 9h-53z" />
    <glyph glyph-name="tcommaaccent" unicode="&#x163;" horiz-adv-x="404" 
d="M106 221v218h-88v121h88v140h141v-140h119v-121h-119v-212c0 -57 11 -101 81 -101c12 0 26 1 43 3v-129c-19 -2 -41 -3 -55 -3c-116 0 -182 39 -203 136c-5 23 -7 53 -7 88zM173 -169v119h121v-86c0 -19 -1 -39 -5 -55c-12 -49 -45 -86 -113 -96v43c50 15 59 49 59 66
c0 8 -5 9 -9 9h-53z" />
    <glyph glyph-name="Tcaron" unicode="&#x164;" horiz-adv-x="565" 
d="M20 750h525v-140h-189v-610h-146v610h-190v140zM330 808h-96l-167 205h116l99 -113l99 113h116z" />
    <glyph glyph-name="tcaron" unicode="&#x165;" horiz-adv-x="504" 
d="M106 221v218h-88v121h88v140h141v-140h119v-121h-119v-212c0 -57 11 -101 81 -101c12 0 26 1 43 3v-129c-19 -2 -41 -3 -55 -3c-116 0 -182 39 -203 136c-5 23 -7 53 -7 88zM413 666v119h121v-86c0 -19 -1 -39 -5 -55c-12 -49 -45 -86 -113 -96v43c50 15 59 49 59 66
c0 8 -5 9 -9 9h-53z" />
    <glyph glyph-name="Tbar" unicode="&#x166;" horiz-adv-x="565" 
d="M20 750h525v-140h-189v-170h157v-75h-157v-365h-146v365h-158v75h158v170h-190v140z" />
    <glyph glyph-name="tbar" unicode="&#x167;" horiz-adv-x="414" 
d="M116 221v61h-88v75h88v82h-88v121h88v140h141v-140h119v-121h-119v-82h119v-75h-119v-55c0 -57 11 -101 81 -101c12 0 26 1 43 3v-129c-19 -2 -41 -3 -55 -3c-116 0 -182 39 -203 136c-5 23 -7 53 -7 88z" />
    <glyph glyph-name="Utilde" unicode="&#x168;" horiz-adv-x="645" 
d="M70 750h146v-496c0 -30 2 -55 11 -72c18 -38 54 -53 90 -53h11c35 0 72 15 90 53c8 17 11 42 11 72v496h146v-498c0 -47 -6 -84 -19 -115c-39 -95 -132 -147 -228 -147h-11c-96 0 -190 51 -229 147c-12 31 -18 68 -18 115v498zM313 838c-37 27 -45 39 -72 38
c-12 0 -31 -11 -35 -54h-88c6 100 55 157 125 157c30 0 60 -11 91 -34c37 -27 45 -39 72 -38c12 0 31 11 35 54h88c-6 -100 -55 -157 -125 -157c-30 0 -60 11 -91 34z" />
    <glyph glyph-name="utilde" unicode="&#x169;" horiz-adv-x="595" 
d="M262 -10c-93 0 -160 53 -184 143c-7 24 -10 61 -10 91v336h141v-323c0 -25 2 -44 7 -58c11 -36 37 -55 74 -55c36 0 69 29 84 64c6 14 9 29 9 56v316h141v-560h-93l-12 71h-1c-33 -52 -90 -81 -156 -81zM291 658c-37 27 -45 39 -72 38c-12 0 -31 -11 -35 -54h-88
c6 100 55 157 125 157c30 0 60 -11 91 -34c37 -27 45 -39 72 -38c12 0 31 11 35 54h88c-6 -100 -55 -157 -125 -157c-30 0 -60 11 -91 34z" />
    <glyph glyph-name="Umacron" unicode="&#x16a;" horiz-adv-x="645" 
d="M70 750h146v-496c0 -30 2 -55 11 -72c18 -38 54 -53 90 -53h11c35 0 72 15 90 53c8 17 11 42 11 72v496h146v-498c0 -47 -6 -84 -19 -115c-39 -95 -132 -147 -228 -147h-11c-96 0 -190 51 -229 147c-12 31 -18 68 -18 115v498zM488 920v-95h-331v95h331z" />
    <glyph glyph-name="umacron" unicode="&#x16b;" horiz-adv-x="595" 
d="M262 -10c-93 0 -160 53 -184 143c-7 24 -10 61 -10 91v336h141v-323c0 -25 2 -44 7 -58c11 -36 37 -55 74 -55c36 0 69 29 84 64c6 14 9 29 9 56v316h141v-560h-93l-12 71h-1c-33 -52 -90 -81 -156 -81zM463 740v-95h-331v95h331z" />
    <glyph glyph-name="Ubreve" unicode="&#x16c;" horiz-adv-x="645" 
d="M70 750h146v-496c0 -30 2 -55 11 -72c18 -38 54 -53 90 -53h11c35 0 72 15 90 53c8 17 11 42 11 72v496h146v-498c0 -47 -6 -84 -19 -115c-39 -95 -132 -147 -228 -147h-11c-96 0 -190 51 -229 147c-12 31 -18 68 -18 115v498zM322 803c-108 0 -174 71 -179 182h91
c7 -51 29 -84 88 -84s81 33 88 84h91c-5 -111 -71 -182 -179 -182z" />
    <glyph glyph-name="ubreve" unicode="&#x16d;" horiz-adv-x="595" 
d="M262 -10c-93 0 -160 53 -184 143c-7 24 -10 61 -10 91v336h141v-323c0 -25 2 -44 7 -58c11 -36 37 -55 74 -55c36 0 69 29 84 64c6 14 9 29 9 56v316h141v-560h-93l-12 71h-1c-33 -52 -90 -81 -156 -81zM297 623c-108 0 -174 71 -179 182h91c7 -51 29 -84 88 -84
s81 33 88 84h91c-5 -111 -71 -182 -179 -182z" />
    <glyph glyph-name="Uring" unicode="&#x16e;" horiz-adv-x="645" 
d="M70 750h146v-496c0 -30 2 -55 11 -72c18 -38 54 -53 90 -53h11c35 0 72 15 90 53c8 17 11 42 11 72v496h146v-498c0 -47 -6 -84 -19 -115c-39 -95 -132 -147 -228 -147h-11c-96 0 -190 51 -229 147c-12 31 -18 68 -18 115v498zM322 867c29 0 47 24 47 50s-18 50 -47 50
s-47 -24 -47 -50s18 -50 47 -50zM322 1041c68 0 123 -55 123 -124s-55 -124 -123 -124s-123 55 -123 124s55 124 123 124z" />
    <glyph glyph-name="uring" unicode="&#x16f;" horiz-adv-x="595" 
d="M262 -10c-93 0 -160 53 -184 143c-7 24 -10 61 -10 91v336h141v-323c0 -25 2 -44 7 -58c11 -36 37 -55 74 -55c36 0 69 29 84 64c6 14 9 29 9 56v316h141v-560h-93l-12 71h-1c-33 -52 -90 -81 -156 -81zM297 687c29 0 47 24 47 50s-18 50 -47 50s-47 -24 -47 -50
s18 -50 47 -50zM297 861c68 0 123 -55 123 -124s-55 -124 -123 -124s-123 55 -123 124s55 124 123 124z" />
    <glyph glyph-name="Uhungarumlaut" unicode="&#x170;" horiz-adv-x="645" 
d="M70 750h146v-496c0 -30 2 -55 11 -72c18 -38 54 -53 90 -53h11c35 0 72 15 90 53c8 17 11 42 11 72v496h146v-498c0 -47 -6 -84 -19 -115c-39 -95 -132 -147 -228 -147h-11c-96 0 -190 51 -229 147c-12 31 -18 68 -18 115v498zM391 994l1 -12l-156 -175h-97l117 187h135z
M601 994l1 -12l-156 -175h-97l117 187h135z" />
    <glyph glyph-name="uhungarumlaut" unicode="&#x171;" horiz-adv-x="595" 
d="M262 -10c-93 0 -160 53 -184 143c-7 24 -10 61 -10 91v336h141v-323c0 -25 2 -44 7 -58c11 -36 37 -55 74 -55c36 0 69 29 84 64c6 14 9 29 9 56v316h141v-560h-93l-12 71h-1c-33 -52 -90 -81 -156 -81zM361 814l1 -12l-156 -175h-97l117 187h135zM571 814l1 -12
l-156 -175h-97l117 187h135z" />
    <glyph glyph-name="Uogonek" unicode="&#x172;" horiz-adv-x="645" 
d="M70 750h146v-496c0 -30 2 -55 11 -72c18 -38 54 -53 90 -53h11c35 0 72 15 90 53c8 17 11 42 11 72v496h146v-498c0 -47 -6 -84 -19 -115c-21 -51 -58 -90 -102 -115c-109 -63 -144 -111 -144 -148c0 -23 19 -40 47 -40c22 0 43 6 65 19l28 -61c-27 -19 -70 -31 -104 -31
c-68 0 -129 34 -132 102c-2 49 27 91 82 128c-89 7 -172 57 -208 146c-12 31 -18 68 -18 115v498z" />
    <glyph glyph-name="uogonek" unicode="&#x173;" horiz-adv-x="595" 
d="M262 -10c-93 0 -160 53 -184 143c-7 24 -10 61 -10 91v336h141v-323c0 -25 2 -44 7 -58c11 -36 37 -55 74 -55c36 0 69 29 84 64c6 14 9 29 9 56v316h141v-560c-77 -50 -111 -89 -111 -126c0 -23 19 -40 47 -40c22 0 43 6 65 19l28 -61c-27 -19 -70 -31 -104 -31
c-68 0 -129 34 -132 102c-2 57 38 104 113 143l-11 65h-1c-33 -52 -90 -81 -156 -81z" />
    <glyph glyph-name="Wcircumflex" unicode="&#x174;" horiz-adv-x="918" 
d="M570 0l-111 510l-111 -510h-171l-153 750h155l85 -522h6l115 522h148l115 -522h6l85 522h155l-153 -750h-171zM411 1013h96l167 -205h-116l-99 113l-99 -113h-116z" />
    <glyph glyph-name="wcircumflex" unicode="&#x175;" horiz-adv-x="786" 
d="M624 560h147l-148 -560h-139l-90 342h-2l-90 -342h-140l-147 560h146l76 -363h2l92 363h123l92 -362h2zM345 833h96l167 -205h-116l-99 113l-99 -113h-116z" />
    <glyph glyph-name="Ycircumflex" unicode="&#x176;" horiz-adv-x="618" 
d="M1 750h165l141 -276h2l143 276h165l-235 -421v-329h-146v328zM261 1013h96l167 -205h-116l-99 113l-99 -113h-116z" />
    <glyph glyph-name="ycircumflex" unicode="&#x177;" horiz-adv-x="548" 
d="M204 21l-196 539h149l120 -369h2l113 369h149l-207 -585c-47 -132 -122 -191 -227 -191c-37 0 -71 5 -100 13v133c28 -6 53 -12 86 -12c59 0 87 33 104 83zM226 833h96l167 -205h-116l-99 113l-99 -113h-116z" />
    <glyph glyph-name="Ydieresis" unicode="&#x178;" horiz-adv-x="618" 
d="M1 750h165l141 -276h2l143 276h165l-235 -421v-329h-146v328zM262 824h-125v131h125v-131zM481 824h-125v131h125v-131z" />
    <glyph glyph-name="Zacute" unicode="&#x179;" horiz-adv-x="597" 
d="M52 610v140h490v-117l-317 -494h327v-139h-509v117l317 493h-308zM472 994l1 -12l-176 -175h-97l117 187h155z" />
    <glyph glyph-name="zacute" unicode="&#x17a;" horiz-adv-x="518" 
d="M482 0h-446v111l246 316h-237v133h421v-112l-245 -315h261v-133zM431 814l1 -12l-176 -175h-97l117 187h155z" />
    <glyph glyph-name="Zdotaccent" unicode="&#x17b;" horiz-adv-x="597" 
d="M52 610v140h490v-117l-317 -494h327v-139h-509v117l317 493h-308zM369 823h-141v139h141v-139z" />
    <glyph glyph-name="zdotaccent" unicode="&#x17c;" horiz-adv-x="518" 
d="M482 0h-446v111l246 316h-237v133h421v-112l-245 -315h261v-133zM330 643h-141v139h141v-139z" />
    <glyph glyph-name="Zcaron" unicode="&#x17d;" horiz-adv-x="597" 
d="M52 610v140h490v-117l-317 -494h327v-139h-509v117l317 493h-308zM349 808h-96l-167 205h116l99 -113l99 113h116z" />
    <glyph glyph-name="zcaron" unicode="&#x17e;" horiz-adv-x="518" 
d="M482 0h-446v111l246 316h-237v133h421v-112l-245 -315h261v-133zM305 628h-96l-167 205h116l99 -113l99 113h116z" />
    <glyph glyph-name="longs" unicode="&#x17f;" horiz-adv-x="334" 
d="M242 584v-584h-141v439h-83v121h83v33c0 142 83 203 217 203c27 0 52 -2 61 -3v-132c-12 1 -28 2 -40 2c-66 0 -97 -18 -97 -79z" />
    <glyph glyph-name="florin" unicode="&#x192;" 
d="M540 750v-750h-500v750h500zM261 374l-171 281v-562zM319 374l171 -281v562zM120 700l170 -279l170 279h-340zM290 326l-169 -276h337z" />
    <glyph glyph-name="dotlessj" unicode="&#x237;" horiz-adv-x="287" 
d="M78 -19v579h141v-583c0 -152 -83 -213 -207 -213c-27 0 -49 2 -58 3v132c12 -1 25 -2 37 -2c59 0 87 23 87 84z" />
    <glyph glyph-name="circumflex" unicode="&#x2c6;" horiz-adv-x="536" 
d="M220 863h96l167 -205h-116l-99 113l-99 -113h-116z" />
    <glyph glyph-name="caron" unicode="&#x2c7;" horiz-adv-x="536" 
d="M316 658h-96l-167 205h116l99 -113l99 113h116z" />
    <glyph glyph-name="breve" unicode="&#x2d8;" horiz-adv-x="536" 
d="M268 653c-108 0 -174 71 -179 182h91c7 -51 29 -84 88 -84s81 33 88 84h91c-5 -111 -71 -182 -179 -182z" />
    <glyph glyph-name="dotaccent" unicode="&#x2d9;" horiz-adv-x="536" 
d="M338 673h-141v139h141v-139z" />
    <glyph glyph-name="ring" unicode="&#x2da;" horiz-adv-x="536" 
d="M268 717c29 0 47 24 47 50s-18 50 -47 50s-47 -24 -47 -50s18 -50 47 -50zM268 891c68 0 123 -55 123 -124s-55 -124 -123 -124s-123 55 -123 124s55 124 123 124z" />
    <glyph glyph-name="ogonek" unicode="&#x2db;" horiz-adv-x="536" 
d="M292 27l59 -27c-77 -50 -111 -89 -111 -126c0 -23 19 -40 47 -40c22 0 43 6 65 19l28 -61c-27 -19 -70 -31 -104 -31c-68 0 -129 34 -132 102c-2 65 50 120 148 164z" />
    <glyph glyph-name="tilde" unicode="&#x2dc;" horiz-adv-x="536" 
d="M258 688c-37 27 -45 39 -72 38c-12 0 -31 -11 -35 -54h-88c6 100 55 157 125 157c30 0 60 -11 91 -34c37 -27 45 -39 72 -38c12 0 31 11 35 54h88c-6 -100 -55 -157 -125 -157c-30 0 -60 11 -91 34z" />
    <glyph glyph-name="hungarumlaut" unicode="&#x2dd;" horiz-adv-x="536" 
d="M341 844l1 -12l-156 -175h-97l117 187h135zM551 844l1 -12l-156 -175h-97l117 187h135z" />
    <glyph glyph-name="Delta" unicode="&#x394;" 
d="M540 750v-750h-500v750h500zM261 374l-171 281v-562zM319 374l171 -281v562zM120 700l170 -279l170 279h-340zM290 326l-169 -276h337z" />
    <glyph glyph-name="Delta" unicode="&#x2206;" 
d="M540 750v-750h-500v750h500zM261 374l-171 281v-562zM319 374l171 -281v562zM120 700l170 -279l170 279h-340zM290 326l-169 -276h337z" />
    <glyph glyph-name="Omega" unicode="&#x3a9;" 
d="M540 750v-750h-500v750h500zM261 374l-171 281v-562zM319 374l171 -281v562zM120 700l170 -279l170 279h-340zM290 326l-169 -276h337z" />
    <glyph glyph-name="Omega" unicode="&#x2126;" 
d="M540 750v-750h-500v750h500zM261 374l-171 281v-562zM319 374l171 -281v562zM120 700l170 -279l170 279h-340zM290 326l-169 -276h337z" />
    <glyph glyph-name="pi" unicode="&#x3c0;" 
d="M540 750v-750h-500v750h500zM261 374l-171 281v-562zM319 374l171 -281v562zM120 700l170 -279l170 279h-340zM290 326l-169 -276h337z" />
    <glyph glyph-name="uni0400" unicode="&#x400;" horiz-adv-x="565" 
d="M74 0v750h453v-135h-307v-163h253v-135h-253v-182h307v-135h-453zM125 982l1 12h155l117 -187h-97z" />
    <glyph glyph-name="afii10023" unicode="&#x401;" horiz-adv-x="565" 
d="M74 0v750h453v-135h-307v-163h253v-135h-253v-182h307v-135h-453zM247 824h-125v131h125v-131zM466 824h-125v131h125v-131z" />
    <glyph glyph-name="afii10051" unicode="&#x402;" horiz-adv-x="760" 
d="M20 750h517v-140h-194v-135h112c45 0 86 -5 113 -16c88 -34 146 -115 146 -220c0 -107 -58 -189 -146 -222c-27 -10 -65 -17 -118 -17h-19v140h18c37 0 55 4 70 13c30 16 49 48 49 86c0 36 -19 68 -49 84c-15 8 -33 13 -70 13h-106v-336h-146v610h-177v140z" />
    <glyph glyph-name="afii10052" unicode="&#x403;" horiz-adv-x="549" 
d="M74 0v750h447v-140h-301v-610h-146zM466 994l1 -12l-176 -175h-97l117 187h155z" />
    <glyph glyph-name="afii10053" unicode="&#x404;" horiz-adv-x="618" 
d="M424 234h148c-4 -139 -92 -244 -249 -244h-9c-99 0 -193 52 -232 147c-13 31 -19 68 -19 115v246c0 47 6 84 19 115c39 95 133 147 232 147h7c148 0 244 -96 251 -239h-148c-6 53 -38 99 -105 99h-5c-39 0 -75 -16 -93 -54c-8 -16 -12 -43 -12 -68v-48h219v-135h-219v-61
c0 -28 4 -54 12 -71c18 -38 54 -53 93 -53h7c65 0 100 43 103 104z" />
    <glyph glyph-name="afii10054" unicode="&#x405;" horiz-adv-x="601" 
d="M544 524h-143c0 60 -35 102 -104 102c-60 0 -90 -31 -90 -72c0 -45 30 -70 78 -87l64 -22c117 -40 204 -107 204 -233c0 -133 -106 -222 -250 -222c-165 0 -258 101 -262 243h144c3 -65 51 -110 115 -110c61 0 107 31 107 87c0 50 -46 79 -98 98l-63 23
c-103 38 -185 85 -185 222c0 131 108 207 242 207c140 0 248 -71 241 -236z" />
    <glyph glyph-name="afii10055" unicode="&#x406;" horiz-adv-x="294" 
d="M74 0v750h146v-750h-146z" />
    <glyph glyph-name="afii10056" unicode="&#x407;" horiz-adv-x="294" 
d="M74 0v750h146v-750h-146zM100 824h-125v131h125v-131zM319 824h-125v131h125v-131z" />
    <glyph glyph-name="afii10057" unicode="&#x408;" horiz-adv-x="567" 
d="M188 291v-51c0 -33 5 -57 14 -73c14 -25 38 -38 68 -38c31 0 54 14 68 38c9 16 14 39 14 69v514h145v-515c0 -47 -8 -85 -21 -117c-34 -80 -108 -128 -206 -128c-97 0 -170 47 -205 128c-14 32 -22 70 -22 126v47h145z" />
    <glyph glyph-name="afii10058" unicode="&#x409;" horiz-adv-x="945" 
d="M558 475h82c45 0 86 -5 113 -16c88 -34 146 -115 146 -220c0 -107 -58 -189 -146 -222c-27 -10 -65 -17 -118 -17h-223v610h-125l-15 -260c-9 -152 -35 -338 -266 -352v140c98 6 115 114 120 218l21 394h411v-275zM634 336h-76v-196h76c37 0 55 4 70 13
c30 16 49 48 49 86c0 36 -19 68 -49 84c-15 8 -33 13 -70 13z" />
    <glyph glyph-name="afii10059" unicode="&#x40a;" horiz-adv-x="929" 
d="M74 0v750h146v-275h176v275h146v-275h82c45 0 86 -5 113 -16c88 -34 146 -115 146 -220c0 -107 -58 -189 -146 -222c-27 -10 -65 -17 -118 -17h-223v336h-176v-336h-146zM618 336h-76v-196h76c37 0 55 4 70 13c30 16 49 48 49 86c0 36 -19 68 -49 84c-15 8 -33 13 -70 13
z" />
    <glyph glyph-name="afii10060" unicode="&#x40b;" horiz-adv-x="761" 
d="M343 329v-329h-146v610h-177v140h517v-140h-194v-142c34 4 74 7 120 7c135 0 217 -65 235 -193c3 -18 5 -48 5 -80v-202h-146v200c0 26 -1 50 -3 59c-9 47 -37 76 -116 76c-38 0 -63 -2 -95 -6z" />
    <glyph glyph-name="afii10061" unicode="&#x40c;" horiz-adv-x="652" 
d="M73 0v750h146v-289h59c64 0 90 28 102 88l10 51c22 110 63 157 158 157c18 0 43 -2 75 -7v-131c-17 3 -27 4 -41 4c-32 0 -50 -20 -57 -66l-4 -26c-12 -76 -43 -133 -89 -166l217 -365h-170l-184 321h-76v-321h-146zM528 994l1 -12l-176 -175h-97l117 187h155z" />
    <glyph glyph-name="uni040D" unicode="&#x40d;" horiz-adv-x="666" 
d="M452 483h1s-1 -33 -1 -58v-425h140v750h-153l-225 -483h-1s1 33 1 58v425h-140v-750h154zM164 982l1 12h155l117 -187h-97z" />
    <glyph glyph-name="afii10062" unicode="&#x40e;" horiz-adv-x="599" 
d="M134 129c54 0 78 19 99 64l-219 557h154l140 -381h2l127 381h154l-217 -587c-46 -125 -114 -173 -217 -173c-43 0 -72 4 -100 13v136c22 -5 42 -10 77 -10zM308 803c-108 0 -174 71 -179 182h95c7 -58 28 -95 84 -95s77 37 84 95h95c-5 -111 -71 -182 -179 -182z" />
    <glyph glyph-name="afii10145" unicode="&#x40f;" horiz-adv-x="658" 
d="M584 750v-750h-185v-234h-140v234h-185v750h146v-610h218v610h146z" />
    <glyph glyph-name="afii10017" unicode="&#x410;" horiz-adv-x="612" 
d="M367 329l-60 237h-4l-58 -237h122zM403 193h-194l-50 -193h-149l210 750h172l210 -750h-149z" />
    <glyph glyph-name="afii10018" unicode="&#x411;" horiz-adv-x="637" 
d="M220 475h112c45 0 86 -5 113 -16c88 -34 146 -115 146 -220c0 -107 -58 -189 -146 -222c-27 -10 -65 -17 -118 -17h-253v750h457v-140h-311v-135zM326 336h-106v-196h106c37 0 55 4 70 13c30 16 49 48 49 86c0 36 -19 68 -49 84c-15 8 -33 13 -70 13z" />
    <glyph glyph-name="afii10019" unicode="&#x412;" horiz-adv-x="621" 
d="M74 750h233c47 0 82 -4 109 -12c84 -26 136 -88 136 -183c0 -69 -35 -124 -102 -161c88 -34 126 -105 126 -176c0 -96 -53 -173 -140 -204c-26 -9 -55 -14 -106 -14h-256v750zM317 317h-97v-178h104c25 0 46 4 59 11c30 15 47 44 47 78c0 36 -20 66 -55 81
c-13 5 -33 8 -58 8zM308 610h-88v-165h87c24 0 37 3 49 9c30 13 51 42 51 81c0 36 -19 58 -50 69c-13 4 -28 6 -49 6z" />
    <glyph glyph-name="afii10020" unicode="&#x413;" horiz-adv-x="549" 
d="M74 0v750h447v-140h-301v-610h-146z" />
    <glyph glyph-name="afii10021" unicode="&#x414;" horiz-adv-x="790" 
d="M776 140v-374h-140v234h-482v-234h-140v374h58c79 0 96 112 102 216l21 394h461v-610h120zM335 610l-15 -260c-5 -79 -18 -155 -69 -210h259v470h-175z" />
    <glyph glyph-name="afii10022" unicode="&#x415;" horiz-adv-x="565" 
d="M74 0v750h453v-135h-307v-163h253v-135h-253v-182h307v-135h-453z" />
    <glyph glyph-name="afii10024" unicode="&#x416;" horiz-adv-x="992" 
d="M423 750h146v-289h49c64 0 90 28 102 88l10 51c22 110 63 157 158 157c18 0 43 -2 75 -7v-131c-17 3 -27 4 -41 4c-32 0 -50 -20 -57 -66l-4 -26c-12 -76 -43 -133 -89 -166l217 -365h-170l-184 321h-66v-321h-146v321h-66l-184 -321h-170l217 365c-46 33 -77 90 -89 166
l-4 26c-7 46 -25 66 -57 66c-14 0 -24 -1 -41 -4v131c32 5 57 7 75 7c95 0 136 -47 158 -157l10 -51c12 -60 38 -88 102 -88h49v289z" />
    <glyph glyph-name="afii10025" unicode="&#x417;" horiz-adv-x="593" 
d="M538 551c0 -68 -31 -132 -107 -173c81 -43 114 -106 114 -176c0 -124 -101 -212 -248 -212c-156 0 -257 100 -257 237h144c1 -62 39 -101 110 -101c61 0 106 35 106 92c0 53 -39 97 -129 97h-95v127h92c90 0 124 47 124 99c0 53 -43 82 -101 82c-68 0 -106 -39 -107 -101
h-144c0 137 101 238 257 238c139 0 241 -85 241 -209z" />
    <glyph glyph-name="afii10026" unicode="&#x418;" horiz-adv-x="666" 
d="M453 483h-1l-224 -483h-154v750h140v-425c0 -25 -1 -58 -1 -58h1l225 483h153v-750h-140v425c0 25 1 58 1 58z" />
    <glyph glyph-name="afii10027" unicode="&#x419;" horiz-adv-x="666" 
d="M452 483h1s-1 -33 -1 -58v-425h140v750h-153l-225 -483h-1s1 33 1 58v425h-140v-750h154zM335 803c-108 0 -174 71 -179 182h95c7 -58 28 -95 84 -95s77 37 84 95h95c-5 -111 -71 -182 -179 -182z" />
    <glyph glyph-name="afii10028" unicode="&#x41a;" horiz-adv-x="652" 
d="M73 0v750h146v-289h59c64 0 90 28 102 88l10 51c22 110 63 157 158 157c18 0 43 -2 75 -7v-131c-17 3 -27 4 -41 4c-32 0 -50 -20 -57 -66l-4 -26c-12 -76 -43 -133 -89 -166l217 -365h-170l-184 321h-76v-321h-146z" />
    <glyph glyph-name="afii10029" unicode="&#x41b;" horiz-adv-x="674" 
d="M149 750h451v-750h-146v610h-165l-15 -260c-9 -152 -35 -338 -266 -352v140c98 6 115 114 120 218z" />
    <glyph glyph-name="afii10030" unicode="&#x41c;" horiz-adv-x="784" 
d="M574 477l-140 -340h-84l-140 340h-1s1 -33 1 -58v-419h-136v750h159l159 -400l159 400h159v-750h-136v419c0 25 1 58 1 58h-1z" />
    <glyph glyph-name="afii10031" unicode="&#x41d;" horiz-adv-x="666" 
d="M74 0v750h146v-289h226v289h146v-750h-146v321h-226v-321h-146z" />
    <glyph glyph-name="afii10032" unicode="&#x41e;" horiz-adv-x="631" 
d="M422 254v242c0 30 -3 55 -11 72c-18 38 -55 53 -90 53h-11c-36 0 -72 -15 -90 -53c-9 -17 -11 -42 -11 -72v-242c0 -30 2 -55 11 -72c18 -38 54 -53 90 -53h11c35 0 72 15 90 53c8 17 11 42 11 72zM63 252v246c0 47 6 84 18 115c39 96 133 147 229 147h11
c96 0 189 -52 228 -147c13 -31 19 -68 19 -115v-246c0 -47 -6 -84 -19 -115c-39 -95 -132 -147 -228 -147h-11c-96 0 -190 51 -229 147c-12 31 -18 68 -18 115z" />
    <glyph glyph-name="afii10033" unicode="&#x41f;" horiz-adv-x="658" 
d="M74 0v750h510v-750h-146v610h-218v-610h-146z" />
    <glyph glyph-name="afii10034" unicode="&#x420;" horiz-adv-x="627" 
d="M220 414h96c37 0 55 5 70 13c30 16 49 48 49 84c0 38 -19 70 -49 86c-15 9 -33 13 -70 13h-96v-196zM322 275h-102v-275h-146v750h243c53 0 91 -7 118 -17c88 -33 146 -115 146 -222c0 -105 -58 -186 -146 -220c-27 -11 -68 -16 -113 -16z" />
    <glyph glyph-name="afii10035" unicode="&#x421;" horiz-adv-x="613" 
d="M411 183c8 17 11 47 11 87h148c-1 -62 -8 -104 -19 -133c-37 -96 -131 -147 -229 -147h-10c-97 0 -191 52 -230 147c-13 31 -19 68 -19 115v246c0 47 6 84 19 115c39 95 133 147 230 147h8c98 0 194 -52 231 -147c12 -30 19 -72 20 -127h-148c-1 34 -4 63 -12 80
c-17 38 -55 54 -89 54h-12c-35 0 -71 -16 -89 -54c-8 -16 -12 -43 -12 -68v-244c0 -28 4 -54 12 -71c18 -38 54 -53 89 -53h12c34 0 71 14 89 53z" />
    <glyph glyph-name="afii10036" unicode="&#x422;" horiz-adv-x="565" 
d="M20 750h525v-140h-189v-610h-146v610h-190v140z" />
    <glyph glyph-name="afii10037" unicode="&#x423;" horiz-adv-x="599" 
d="M134 129c54 0 78 19 99 64l-219 557h154l140 -381h2l127 381h154l-217 -587c-46 -125 -114 -173 -217 -173c-43 0 -72 4 -100 13v136c22 -5 42 -10 77 -10z" />
    <glyph glyph-name="afii10038" unicode="&#x424;" horiz-adv-x="796" 
d="M325 230v290h-24c-44 0 -81 -13 -98 -51c-8 -17 -11 -41 -11 -72v-44c0 -31 3 -55 11 -72c17 -38 54 -51 98 -51h24zM471 -40h-146v130h-21c-123 0 -211 56 -244 152c-9 27 -14 58 -14 111v44c0 53 5 84 14 111c33 96 121 152 244 152h21v130h146v-130h21
c123 0 211 -56 244 -152c9 -27 14 -58 14 -111v-44c0 -53 -5 -84 -14 -111c-33 -96 -121 -152 -244 -152h-21v-130zM471 520v-290h24c44 0 81 13 98 51c8 17 11 41 11 72v44c0 31 -3 55 -11 72c-17 38 -54 51 -98 51h-24z" />
    <glyph glyph-name="afii10039" unicode="&#x425;" horiz-adv-x="628" 
d="M173 0h-166l226 395l-201 355h167l114 -225l115 225h167l-200 -355l226 -395h-167l-141 266z" />
    <glyph glyph-name="afii10040" unicode="&#x426;" horiz-adv-x="718" 
d="M564 0h-490v750h146v-610h218v610h146v-610h120v-374h-140v234z" />
    <glyph glyph-name="afii10041" unicode="&#x427;" horiz-adv-x="638" 
d="M418 0v270c-34 -4 -74 -7 -120 -7c-135 0 -217 65 -235 193c-3 18 -5 48 -5 80v214h146v-212c0 -26 1 -50 3 -59c9 -47 37 -76 116 -76c38 0 63 2 95 6v341h146v-750h-146z" />
    <glyph glyph-name="afii10042" unicode="&#x428;" horiz-adv-x="886" 
d="M812 750v-750h-738v750h146v-610h150v610h146v-610h150v610h146z" />
    <glyph glyph-name="afii10043" unicode="&#x429;" horiz-adv-x="946" 
d="M792 0h-718v750h146v-610h150v610h146v-610h150v610h146v-610h120v-374h-140v234z" />
    <glyph glyph-name="afii10044" unicode="&#x42a;" horiz-adv-x="778" 
d="M361 750v-275h112c45 0 86 -5 113 -16c88 -34 146 -115 146 -220c0 -107 -58 -189 -146 -222c-27 -10 -65 -17 -118 -17h-253v610h-195v140h341zM467 336h-106v-196h106c37 0 55 4 70 13c30 16 49 48 49 86c0 36 -19 68 -49 84c-15 8 -33 13 -70 13z" />
    <glyph glyph-name="afii10045" unicode="&#x42b;" horiz-adv-x="858" 
d="M296 336h-76v-196h76c37 0 55 4 70 13c30 16 49 48 49 86c0 36 -19 68 -49 84c-15 8 -33 13 -70 13zM220 475h82c45 0 86 -5 113 -16c88 -34 146 -115 146 -220c0 -107 -58 -189 -146 -222c-27 -10 -65 -17 -118 -17h-223v750h146v-275zM638 0v750h146v-750h-146z" />
    <glyph glyph-name="afii10046" unicode="&#x42c;" horiz-adv-x="637" 
d="M326 336h-106v-196h106c37 0 55 4 70 13c30 16 49 48 49 86c0 36 -19 68 -49 84c-15 8 -33 13 -70 13zM220 475h112c45 0 86 -5 113 -16c88 -34 146 -115 146 -220c0 -107 -58 -189 -146 -222c-27 -10 -65 -17 -118 -17h-253v750h146v-275z" />
    <glyph glyph-name="afii10047" unicode="&#x42d;" horiz-adv-x="618" 
d="M46 234h148c3 -61 38 -104 103 -104h7c39 0 75 15 93 53c8 17 12 43 12 71v61h-219v135h219v48c0 25 -4 52 -12 68c-18 38 -54 54 -93 54h-5c-67 0 -99 -46 -105 -99h-148c7 143 103 239 251 239h7c99 0 193 -52 232 -147c13 -31 19 -68 19 -115v-246
c0 -47 -6 -84 -19 -115c-39 -95 -133 -147 -232 -147h-9c-157 0 -245 105 -249 244z" />
    <glyph glyph-name="afii10048" unicode="&#x42e;" horiz-adv-x="884" 
d="M574 -10c-96 0 -190 51 -229 147c-12 31 -18 68 -18 115v64h-107v-316h-146v750h146v-294h107v42c0 47 6 84 18 115c39 96 133 147 229 147s189 -52 228 -147c13 -31 19 -68 19 -115v-246c0 -47 -6 -84 -19 -115c-39 -95 -132 -147 -228 -147zM574 621
c-36 0 -72 -15 -90 -53c-9 -17 -11 -42 -11 -72v-242c0 -30 2 -55 11 -72c18 -38 54 -53 90 -53c35 0 72 15 90 53c8 17 11 42 11 72v242c0 30 -3 55 -11 72c-18 38 -55 53 -90 53z" />
    <glyph glyph-name="afii10049" unicode="&#x42f;" horiz-adv-x="621" 
d="M402 611h-77c-20 0 -38 -2 -51 -5c-37 -9 -60 -32 -60 -73c0 -55 38 -94 107 -94h81v172zM402 306h-67c-76 0 -110 -27 -116 -98l-10 -118c-3 -33 -11 -70 -30 -90h-156v6c28 21 39 58 42 96l11 134c6 77 40 119 105 142v1c-74 34 -114 96 -114 172c0 105 63 169 161 191
c24 5 54 8 88 8h231v-750h-145v306z" />
    <glyph glyph-name="afii10065" unicode="&#x430;" horiz-adv-x="558" 
d="M198 401h-135c18 113 102 169 220 169c103 0 166 -45 193 -120c10 -27 14 -67 14 -103v-347h-86l-15 86h-1c-30 -55 -80 -96 -157 -96c-102 0 -183 62 -183 186c0 81 43 137 114 162c27 9 59 14 103 14h84v14c0 58 -21 93 -76 93c-44 0 -68 -24 -75 -58zM188 181
c0 -44 22 -72 70 -72c53 0 92 46 92 116v23h-75c-16 0 -35 -2 -45 -6c-27 -10 -42 -32 -42 -61z" />
    <glyph glyph-name="afii10066" unicode="&#x431;" horiz-adv-x="557" 
d="M197 282v-42c0 -27 3 -48 9 -64c12 -34 39 -53 74 -53s62 19 74 53c6 16 9 37 9 64v56c0 66 -25 103 -74 103c-61 0 -92 -56 -92 -117zM197 490v-15c29 37 77 57 125 57c99 0 156 -65 175 -153c5 -22 7 -50 7 -80v-70c0 -42 -7 -77 -16 -104c-31 -85 -108 -135 -208 -135
s-177 50 -208 135c-9 27 -16 62 -16 104v261c0 146 53 240 181 270c17 4 45 9 72 12l156 17v-133l-135 -16c-25 -3 -45 -7 -57 -11c-53 -16 -76 -52 -76 -139z" />
    <glyph glyph-name="afii10067" unicode="&#x432;" horiz-adv-x="554" 
d="M71 560h213c42 0 72 -3 93 -9c73 -19 119 -68 119 -142c0 -48 -23 -87 -72 -115c67 -27 91 -76 91 -127c0 -74 -46 -133 -122 -157c-22 -7 -53 -10 -91 -10h-231v560zM289 229h-77v-110h81c18 0 30 1 43 5c21 7 38 21 38 51s-22 45 -44 50c-14 3 -26 4 -41 4zM279 441
h-67v-100h65c15 0 31 2 41 6c20 7 36 22 36 48c0 27 -17 39 -36 43c-11 2 -21 3 -39 3z" />
    <glyph glyph-name="afii10068" unicode="&#x433;" horiz-adv-x="491" 
d="M71 0v560h396v-121h-255v-439h-141z" />
    <glyph glyph-name="afii10069" unicode="&#x434;" horiz-adv-x="686" 
d="M166 560h406v-439h104v-321h-132v200h-402v-200h-132v321h48c75 0 85 77 89 146zM299 442l-12 -181c-4 -64 -16 -110 -50 -140h194v321h-132z" />
    <glyph glyph-name="afii10070" unicode="&#x435;" horiz-adv-x="553" 
d="M501 242h-307v-14c0 -27 3 -48 9 -64c12 -34 39 -53 74 -53c37 0 63 22 76 61h143c-2 -17 -6 -34 -11 -47c-30 -86 -108 -135 -208 -135s-177 50 -208 135c-9 27 -16 62 -16 104v102c0 42 7 77 16 104c31 85 108 135 208 135s177 -50 208 -135c9 -27 16 -62 16 -104v-89z
M194 348h166c-1 22 -4 38 -9 51c-12 34 -39 53 -74 53s-62 -19 -74 -53c-5 -13 -8 -30 -9 -51z" />
    <glyph glyph-name="afii10072" unicode="&#x436;" horiz-adv-x="851" 
d="M37 444v115c27 4 47 6 67 6c84 0 122 -35 141 -114l8 -36c10 -43 23 -63 77 -63h25v208h141v-208h25c54 0 67 20 77 63l8 36c19 79 57 114 141 114c20 0 40 -2 67 -6v-115c-14 2 -21 3 -34 3c-28 0 -41 -16 -48 -53l-2 -11c-9 -51 -33 -91 -69 -113l185 -270h-164
l-151 231h-35v-231h-141v231h-35l-151 -231h-164l185 270c-36 22 -60 62 -69 113l-2 11c-7 37 -20 53 -48 53c-13 0 -20 -1 -34 -3z" />
    <glyph glyph-name="afii10073" unicode="&#x437;" horiz-adv-x="512" 
d="M467 413c0 -54 -24 -99 -90 -131c69 -33 96 -77 96 -132c0 -95 -82 -160 -217 -160c-133 0 -219 77 -219 184h139c0 -40 28 -66 82 -66c45 0 76 24 76 60c0 37 -30 62 -97 62h-57v105h55c68 0 93 28 93 64c0 35 -30 53 -73 53c-51 0 -79 -25 -79 -66h-139
c0 107 87 184 220 184c127 0 210 -61 210 -157z" />
    <glyph glyph-name="afii10074" unicode="&#x438;" horiz-adv-x="600" 
d="M393 341h-1l-176 -341h-145v560h139v-272c0 -25 -3 -69 -3 -69h1l177 341h144v-560h-139v272c0 25 3 69 3 69z" />
    <glyph glyph-name="afii10075" unicode="&#x439;" horiz-adv-x="600" 
d="M392 341h1s-3 -44 -3 -69v-272h139v560h-144l-177 -341h-1s3 44 3 69v272h-139v-560h145zM300 623c-108 0 -174 71 -179 182h95c7 -58 28 -95 84 -95s77 37 84 95h95c-5 -111 -71 -182 -179 -182z" />
    <glyph glyph-name="afii10076" unicode="&#x43a;" horiz-adv-x="582" 
d="M545 559v-115c-14 2 -21 3 -34 3c-28 0 -41 -16 -48 -53l-2 -11c-9 -51 -33 -91 -69 -113l185 -270h-164l-151 231h-50v-231h-141v560h141v-208h40c54 0 67 20 77 63l8 36c19 79 57 114 141 114c20 0 40 -2 67 -6z" />
    <glyph glyph-name="afii10077" unicode="&#x43b;" horiz-adv-x="596" 
d="M124 560h401v-560h-141v439h-127l-12 -178c-9 -131 -37 -261 -235 -261v125c81 3 91 71 95 142z" />
    <glyph glyph-name="afii10078" unicode="&#x43c;" horiz-adv-x="698" 
d="M390 98h-82l-105 239h-1s3 -46 3 -71v-266h-134v560h147l131 -302l131 302h147v-560h-134v266c0 25 3 71 3 71h-1z" />
    <glyph glyph-name="afii10079" unicode="&#x43d;" horiz-adv-x="591" 
d="M71 0v560h141v-208h167v208h141v-560h-141v231h-167v-231h-141z" />
    <glyph glyph-name="afii10080" unicode="&#x43e;" horiz-adv-x="554" 
d="M501 331v-102c0 -42 -7 -77 -16 -104c-31 -85 -108 -135 -208 -135s-177 50 -208 135c-9 27 -16 62 -16 104v102c0 42 7 77 16 104c31 85 108 135 208 135s177 -50 208 -135c9 -27 16 -62 16 -104zM360 240v80c0 27 -3 48 -9 64c-12 34 -39 53 -74 53s-62 -19 -74 -53
c-6 -16 -9 -37 -9 -64v-80c0 -27 3 -48 9 -64c12 -34 39 -53 74 -53s62 19 74 53c6 16 9 37 9 64z" />
    <glyph glyph-name="afii10081" unicode="&#x43f;" horiz-adv-x="586" 
d="M71 0v560h444v-560h-141v439h-162v-439h-141z" />
    <glyph glyph-name="afii10082" unicode="&#x440;" 
d="M212 315v-71c0 -20 2 -37 5 -50c11 -40 42 -72 84 -72c40 0 68 24 79 61c4 14 6 30 6 56v83c0 25 -2 44 -7 58c-11 36 -37 55 -74 55c-36 0 -69 -29 -84 -64c-6 -14 -9 -29 -9 -56zM343 -10c-50 0 -94 15 -131 51h-1s1 -33 1 -58v-227h-141v804h93l12 -71h1
c33 52 90 81 151 81c92 0 165 -51 190 -151c6 -24 9 -57 9 -91v-97c0 -34 -3 -67 -9 -91c-25 -100 -98 -150 -175 -150z" />
    <glyph glyph-name="afii10083" unicode="&#x441;" horiz-adv-x="541" 
d="M485 435c7 -21 13 -47 15 -77h-143c-1 10 -3 18 -6 26c-12 34 -39 53 -74 53s-62 -19 -74 -53c-6 -16 -9 -37 -9 -64v-80c0 -27 3 -48 9 -64c12 -34 39 -53 74 -53s62 19 74 53c2 5 3 11 5 18h143c-2 -27 -7 -50 -14 -69c-30 -86 -108 -135 -208 -135s-177 50 -208 135
c-9 27 -16 62 -16 104v102c0 42 7 77 16 104c31 85 108 135 208 135s177 -50 208 -135z" />
    <glyph glyph-name="afii10084" unicode="&#x442;" horiz-adv-x="501" 
d="M18 560h465v-121h-162v-439h-141v439h-162v121z" />
    <glyph glyph-name="afii10085" unicode="&#x443;" horiz-adv-x="548" 
d="M204 21l-196 539h149l120 -369h2l113 369h149l-207 -585c-47 -132 -122 -191 -227 -191c-37 0 -71 5 -100 13v133c28 -6 53 -12 86 -12c59 0 87 33 104 83z" />
    <glyph glyph-name="afii10086" unicode="&#x444;" horiz-adv-x="712" 
d="M292 -244v234h-5c-110 0 -187 50 -218 135c-9 27 -16 62 -16 104v102c0 42 7 77 16 104c31 85 108 135 218 135h5v215h128v-215h5c110 0 187 -50 218 -135c9 -27 16 -62 16 -104v-102c0 -42 -7 -77 -16 -104c-31 -85 -108 -135 -218 -135h-5v-234h-128zM425 437h-5v-314
h5c45 0 72 19 84 53c6 16 9 37 9 64v80c0 27 -3 48 -9 64c-12 34 -39 53 -84 53zM203 176c12 -34 39 -53 84 -53h5v314h-5c-45 0 -72 -19 -84 -53c-6 -16 -9 -37 -9 -64v-80c0 -27 3 -48 9 -64z" />
    <glyph glyph-name="afii10087" unicode="&#x445;" horiz-adv-x="530" 
d="M26 560h155l84 -158l83 158h157l-166 -268l181 -292h-157l-98 183l-99 -183h-156l181 292z" />
    <glyph glyph-name="afii10088" unicode="&#x446;" horiz-adv-x="627" 
d="M485 0h-414v560h141v-439h161v439h141v-439h103v-321h-132v200z" />
    <glyph glyph-name="afii10089" unicode="&#x447;" horiz-adv-x="564" 
d="M352 0v196c-25 -2 -57 -4 -88 -4c-117 0 -196 49 -216 158c-3 16 -4 41 -4 63v147h141v-145c0 -19 1 -38 4 -49c10 -40 38 -53 98 -53c25 0 48 2 65 5v242h141v-560h-141z" />
    <glyph glyph-name="afii10090" unicode="&#x448;" horiz-adv-x="794" 
d="M723 560v-560h-652v560h141v-439h114v439h141v-439h115v439h141z" />
    <glyph glyph-name="afii10091" unicode="&#x449;" horiz-adv-x="836" 
d="M694 0h-623v560h141v-439h114v439h141v-439h115v439h141v-439h103v-321h-132v200z" />
    <glyph glyph-name="afii10092" unicode="&#x44a;" horiz-adv-x="662" 
d="M390 0h-212v439h-160v121h301v-197h71c28 0 50 -2 68 -5c92 -16 158 -74 158 -176c0 -103 -66 -161 -158 -177c-18 -3 -40 -5 -68 -5zM319 242v-121h66c18 0 37 1 47 4c26 7 45 24 45 57c0 32 -19 49 -45 56c-10 3 -29 4 -47 4h-66z" />
    <glyph glyph-name="afii10093" unicode="&#x44b;" horiz-adv-x="776" 
d="M212 242v-121h56c18 0 37 1 47 4c26 7 45 24 45 57c0 32 -19 49 -45 56c-10 3 -29 4 -47 4h-56zM273 0h-202v560h141v-197h61c28 0 50 -2 68 -5c92 -16 158 -74 158 -176c0 -103 -66 -161 -158 -177c-18 -3 -40 -5 -68 -5zM564 0v560h141v-560h-141z" />
    <glyph glyph-name="afii10094" unicode="&#x44c;" horiz-adv-x="565" 
d="M212 242v-121h76c18 0 37 1 47 4c26 7 45 24 45 57c0 32 -19 49 -45 56c-10 3 -29 4 -47 4h-76zM293 0h-222v560h141v-197h81c28 0 50 -2 68 -5c92 -16 158 -74 158 -176c0 -103 -66 -161 -158 -177c-18 -3 -40 -5 -68 -5z" />
    <glyph glyph-name="afii10095" unicode="&#x44d;" horiz-adv-x="541" 
d="M56 435c30 86 108 135 208 135s177 -50 208 -135c9 -27 16 -62 16 -104v-102c0 -42 -7 -77 -16 -104c-31 -85 -108 -135 -208 -135s-178 49 -208 135c-5 14 -9 31 -12 51h146c10 -34 39 -53 74 -53c58 0 83 43 83 103h-150v106h150c0 65 -26 105 -83 105
c-35 0 -65 -19 -77 -61h-144c3 22 7 42 13 59z" />
    <glyph glyph-name="afii10096" unicode="&#x44e;" horiz-adv-x="769" 
d="M71 0v560h141v-219h76c1 37 6 69 15 94c29 86 103 135 199 135s171 -49 199 -135c9 -27 15 -62 15 -104v-102c0 -42 -6 -77 -15 -104c-28 -86 -103 -135 -199 -135s-170 49 -199 135c-9 25 -14 57 -15 95h-76v-220h-141zM502 123c31 0 54 19 65 53c5 16 8 37 8 64v80
c0 27 -3 48 -8 64c-11 34 -34 53 -65 53s-54 -19 -65 -53c-5 -16 -8 -37 -8 -64v-80c0 -27 3 -48 8 -64c11 -34 34 -53 65 -53z" />
    <glyph glyph-name="afii10097" unicode="&#x44f;" horiz-adv-x="552" 
d="M342 442h-63c-16 0 -30 -1 -39 -3c-25 -5 -42 -20 -42 -47c0 -25 10 -44 38 -51c9 -2 24 -4 41 -4h65v105zM202 159l-7 -71c-4 -41 -13 -70 -32 -88h-143v2c20 15 32 45 36 89l8 80c5 57 25 89 80 107c-61 27 -88 72 -88 128c0 94 65 136 145 149c20 3 42 5 71 5h209
v-560h-139v219h-54c-57 0 -82 -16 -86 -60z" />
    <glyph glyph-name="uni0450" unicode="&#x450;" horiz-adv-x="553" 
d="M501 242h-307v-14c0 -27 3 -48 9 -64c12 -34 39 -53 74 -53c37 0 63 22 76 61h143c-2 -17 -6 -34 -11 -47c-30 -86 -108 -135 -208 -135s-177 50 -208 135c-9 27 -16 62 -16 104v102c0 42 7 77 16 104c31 85 108 135 208 135s177 -50 208 -135c9 -27 16 -62 16 -104v-89z
M194 348h166c-1 22 -4 38 -9 51c-12 34 -39 53 -74 53s-62 -19 -74 -53c-5 -13 -8 -30 -9 -51zM106 802l1 12h155l117 -187h-97z" />
    <glyph glyph-name="afii10071" unicode="&#x451;" horiz-adv-x="553" 
d="M501 242h-307v-14c0 -27 3 -48 9 -64c12 -34 39 -53 74 -53c37 0 63 22 76 61h143c-2 -17 -6 -34 -11 -47c-30 -86 -108 -135 -208 -135s-177 50 -208 135c-9 27 -16 62 -16 104v102c0 42 7 77 16 104c31 85 108 135 208 135s177 -50 208 -135c9 -27 16 -62 16 -104v-89z
M194 348h166c-1 22 -4 38 -9 51c-12 34 -39 53 -74 53s-62 -19 -74 -53c-5 -13 -8 -30 -9 -51zM229 644h-125v131h125v-131zM448 644h-125v131h125v-131z" />
    <glyph glyph-name="afii10099" unicode="&#x452;" horiz-adv-x="603" 
d="M79 713v72h141v-72h157v-75h-157v-71c0 -25 -1 -58 -1 -58h1c36 41 81 61 133 61c81 0 148 -53 172 -143c7 -24 10 -61 10 -91v-359c0 -152 -83 -213 -207 -213c-27 0 -49 2 -58 3v132c12 -1 25 -2 37 -2c59 0 87 23 87 84v342c0 25 -2 44 -7 58c-11 36 -37 55 -74 55
c-36 0 -69 -29 -84 -64c-6 -14 -9 -29 -9 -56v-316h-141v638h-89v75h89z" />
    <glyph glyph-name="afii10100" unicode="&#x453;" horiz-adv-x="491" 
d="M71 0v560h396v-121h-255v-439h-141zM429 814l1 -12l-176 -175h-97l117 187h155z" />
    <glyph glyph-name="afii10101" unicode="&#x454;" horiz-adv-x="541" 
d="M485 435c6 -17 10 -37 13 -59h-144c-12 42 -42 61 -77 61c-57 0 -83 -40 -83 -105h150v-106h-150c0 -60 25 -103 83 -103c35 0 64 19 74 53h146c-3 -20 -7 -37 -12 -51c-30 -86 -108 -135 -208 -135s-177 50 -208 135c-9 27 -16 62 -16 104v102c0 42 7 77 16 104
c31 85 108 135 208 135s178 -49 208 -135z" />
    <glyph glyph-name="afii10102" unicode="&#x455;" horiz-adv-x="503" 
d="M36 170h138c11 -46 40 -68 80 -68s70 23 69 59c-1 39 -25 59 -95 72c-164 31 -177 122 -177 172c0 101 93 165 198 165c115 0 194 -57 206 -163h-138c-8 38 -36 51 -69 51c-34 0 -61 -17 -61 -46c0 -30 22 -50 83 -62c105 -21 193 -69 193 -185
c0 -105 -89 -175 -204 -175c-118 0 -207 53 -223 180z" />
    <glyph glyph-name="afii10103" unicode="&#x456;" horiz-adv-x="277" 
d="M68 0v560h141v-560h-141zM68 640v141h141v-141h-141z" />
    <glyph glyph-name="afii10104" unicode="&#x457;" horiz-adv-x="269" 
d="M64 0v560h141v-560h-141zM87 644h-125v131h125v-131zM306 644h-125v131h125v-131z" />
    <glyph glyph-name="afii10105" unicode="&#x458;" horiz-adv-x="287" 
d="M78 640v141h141v-141h-141zM78 -19v579h141v-583c0 -152 -83 -213 -207 -213c-27 0 -49 2 -58 3v132c12 -1 25 -2 37 -2c59 0 87 23 87 84z" />
    <glyph glyph-name="afii10106" unicode="&#x459;" horiz-adv-x="828" 
d="M556 0h-202v439h-97l-12 -178c-9 -131 -37 -261 -235 -261v125c81 3 91 71 95 142l19 293h371v-197h61c28 0 50 -2 68 -5c92 -16 158 -74 158 -176c0 -103 -66 -161 -158 -177c-18 -3 -40 -5 -68 -5zM495 242v-121h56c18 0 37 1 47 4c26 7 45 24 45 57
c0 32 -19 49 -45 56c-10 3 -29 4 -47 4h-56z" />
    <glyph glyph-name="afii10107" unicode="&#x45a;" horiz-adv-x="823" 
d="M551 0h-202v242h-137v-242h-141v560h141v-197h137v197h141v-197h61c28 0 50 -2 68 -5c92 -16 158 -74 158 -176c0 -103 -66 -161 -158 -177c-18 -3 -40 -5 -68 -5zM490 242v-121h56c18 0 37 1 47 4c26 7 45 24 45 57c0 32 -19 49 -45 56c-10 3 -29 4 -47 4h-56z" />
    <glyph glyph-name="afii10108" unicode="&#x45b;" horiz-adv-x="603" 
d="M535 0h-141v323c0 25 -2 44 -7 58c-11 36 -37 55 -74 55c-36 0 -69 -29 -84 -64c-6 -14 -9 -29 -9 -56v-316h-141v638h-89v75h89v72h141v-72h167v-75h-167v-71c0 -25 -1 -58 -1 -58h1c36 41 81 61 133 61c81 0 148 -53 172 -143c7 -24 10 -61 10 -91v-336z" />
    <glyph glyph-name="afii10109" unicode="&#x45c;" horiz-adv-x="582" 
d="M545 559v-115c-14 2 -21 3 -34 3c-28 0 -41 -16 -48 -53l-2 -11c-9 -51 -33 -91 -69 -113l185 -270h-164l-151 231h-50v-231h-141v560h141v-208h40c54 0 67 20 77 63l8 36c19 79 57 114 141 114c20 0 40 -2 67 -6zM482 814l1 -12l-176 -175h-97l117 187h155z" />
    <glyph glyph-name="uni045D" unicode="&#x45d;" horiz-adv-x="600" 
d="M392 341h1s-3 -44 -3 -69v-272h139v560h-144l-177 -341h-1s3 44 3 69v272h-139v-560h145zM132 802l1 12h155l117 -187h-97z" />
    <glyph glyph-name="afii10110" unicode="&#x45e;" horiz-adv-x="548" 
d="M204 21l-196 539h149l120 -369h2l113 369h149l-207 -585c-47 -132 -122 -191 -227 -191c-37 0 -71 5 -100 13v133c28 -6 53 -12 86 -12c59 0 87 33 104 83zM278 623c-108 0 -174 71 -179 182h95c7 -58 28 -95 84 -95s77 37 84 95h95c-5 -111 -71 -182 -179 -182z" />
    <glyph glyph-name="afii10193" unicode="&#x45f;" horiz-adv-x="586" 
d="M515 560v-560h-156v-200h-132v200h-156v560h141v-439h162v439h141z" />
    <glyph glyph-name="uni0460" unicode="&#x460;" horiz-adv-x="894" 
d="M447 112c-35 -86 -95 -122 -166 -122c-114 0 -223 104 -223 397c0 116 23 257 64 363h151c-38 -104 -67 -247 -67 -364c0 -184 37 -253 89 -253c47 0 79 50 79 149v229h146v-229c0 -99 32 -149 79 -149c52 0 89 69 89 253c0 117 -29 260 -67 364h151
c41 -106 64 -247 64 -363c0 -293 -109 -397 -223 -397c-71 0 -131 36 -166 122z" />
    <glyph glyph-name="uni0461" unicode="&#x461;" horiz-adv-x="758" 
d="M309 389h140v-181c0 -65 21 -98 54 -98c36 0 61 53 61 177c0 83 -23 191 -57 273h146c34 -82 52 -188 52 -272c0 -219 -89 -298 -187 -298c-57 0 -108 23 -139 86c-31 -63 -82 -86 -139 -86c-98 0 -187 79 -187 298c0 84 18 190 52 272h146c-34 -82 -57 -190 -57 -273
c0 -124 25 -177 61 -177c33 0 54 33 54 98v181z" />
    <glyph glyph-name="afii10146" unicode="&#x462;" horiz-adv-x="745" 
d="M328 475h112c45 0 86 -5 113 -16c88 -34 146 -115 146 -220c0 -107 -58 -189 -146 -222c-27 -10 -65 -17 -118 -17h-253v570h-168v75h168v105h146v-105h186v-75h-186v-95zM434 336h-106v-196h106c37 0 55 4 70 13c30 16 49 48 49 86c0 36 -19 68 -49 84
c-15 8 -33 13 -70 13z" />
    <glyph glyph-name="afii10194" unicode="&#x463;" horiz-adv-x="627" 
d="M355 0h-222v428h-123v75h123v57h141v-57h150v-75h-150v-65h81c28 0 50 -2 68 -5c92 -16 158 -74 158 -176c0 -103 -66 -161 -158 -177c-18 -3 -40 -5 -68 -5zM274 242v-121h76c18 0 37 1 47 4c26 7 45 24 45 57c0 32 -19 49 -45 56c-10 3 -29 4 -47 4h-76z" />
    <glyph glyph-name="uni0464" unicode="&#x464;" horiz-adv-x="870" 
d="M576 760c146 0 243 -96 250 -239h-148c-6 53 -38 99 -103 99c-37 0 -72 -16 -90 -54c-8 -16 -12 -43 -12 -68v-48h209v-135h-209v-61c0 -28 4 -54 12 -71c18 -38 53 -53 92 -53c64 0 98 43 101 104h148c-4 -139 -92 -244 -249 -244c-99 0 -192 52 -231 147
c-13 31 -19 68 -19 115v63h-107v-315h-146v750h146v-300h107v48c0 47 6 84 19 115c39 95 133 147 230 147z" />
    <glyph glyph-name="uni0465" unicode="&#x465;" horiz-adv-x="766" 
d="M71 0v560h141v-228h76c0 41 7 76 16 103c31 85 108 135 203 135s173 -49 203 -135c6 -17 10 -37 13 -59h-144c-12 42 -41 61 -72 61c-52 0 -78 -40 -78 -105h148v-106h-148c0 -60 25 -103 78 -103c31 0 59 19 69 53h146c-3 -20 -7 -37 -12 -51
c-30 -86 -108 -135 -203 -135s-172 50 -203 135c-9 26 -16 60 -16 101h-76v-226h-141z" />
    <glyph glyph-name="uni0466" unicode="&#x466;" horiz-adv-x="696" 
d="M409 272v-272h-122v272h-46l-88 -272h-149l248 750h192l248 -750h-149l-88 272h-46zM418 393l-69 218h-2l-69 -218h140z" />
    <glyph glyph-name="uni0467" unicode="&#x467;" horiz-adv-x="616" 
d="M364 182v-182h-112v182h-40l-63 -182h-144l214 560h178l214 -560h-144l-63 182h-40zM247 290h122l-60 164h-2z" />
    <glyph glyph-name="uni0468" unicode="&#x468;" horiz-adv-x="969" 
d="M74 0v750h146v-357h187l118 357h192l248 -750h-149l-88 272h-46v-272h-122v272h-46l-88 -272h-149l90 272h-147v-272h-146zM551 393h140l-69 218h-2z" />
    <glyph glyph-name="uni0469" unicode="&#x469;" horiz-adv-x="868" 
d="M71 0v560h141v-270h156l103 270h178l214 -560h-144l-63 182h-40v-182h-112v182h-40l-63 -182h-144l69 182h-114v-182h-141zM499 290h122l-60 164h-2z" />
    <glyph glyph-name="_106" unicode="&#x46a;" horiz-adv-x="774" 
d="M457 312v-312h-140v312h-9c-38 0 -76 -14 -94 -51c-9 -17 -12 -43 -12 -73v-188h-146v192c0 47 5 83 18 115c27 65 84 118 178 134l-193 289v20h656v-20l-192 -289c94 -16 150 -69 177 -134c13 -32 18 -68 18 -115v-192h-146v188c0 30 -3 56 -12 73c-18 37 -56 51 -94 51
h-9zM481 634h-188l93 -161h2z" />
    <glyph glyph-name="uni046B" unicode="&#x46b;" horiz-adv-x="680" 
d="M406 234v-234h-132v234c-43 -1 -65 -19 -74 -37c-5 -10 -7 -25 -7 -44v-153h-139v151c0 32 4 62 16 89c19 43 62 81 141 93l-154 216v11h566v-11l-154 -216c79 -12 122 -50 141 -93c12 -27 16 -57 16 -89v-151h-139v153c0 19 -2 34 -7 44c-9 18 -31 36 -74 37zM410 460
h-141l71 -108z" />
    <glyph glyph-name="uni046C" unicode="&#x46c;" horiz-adv-x="1052" 
d="M334 0v187c0 63 10 100 48 138c-15 -2 -32 -3 -48 -3h-114v-322h-146v750h146v-307h308l-191 287v20h656v-20l-192 -289c94 -16 150 -69 177 -134c13 -32 18 -68 18 -115v-192h-146v188c0 30 -3 56 -12 73c-18 37 -56 51 -94 51h-9v-312h-140v312h-9
c-38 0 -76 -14 -94 -51c-9 -17 -12 -43 -12 -73v-188h-146zM759 634h-188l93 -161h2z" />
    <glyph glyph-name="uni046D" unicode="&#x46d;" horiz-adv-x="929" 
d="M303 0v141c0 43 10 69 35 92c-15 -2 -38 -4 -57 -4h-69v-229h-141v560h141v-227h248l-154 216v11h566v-11l-154 -216c79 -12 122 -50 141 -93c12 -27 16 -57 16 -89v-151h-139v153c0 19 -2 34 -7 44c-9 18 -31 36 -74 37v-234h-132v234c-43 -1 -65 -19 -74 -37
c-5 -10 -7 -25 -7 -44v-153h-139zM659 460h-141l71 -108z" />
    <glyph glyph-name="uni046E" unicode="&#x46e;" horiz-adv-x="590" 
d="M401 824l-54 -69c116 -21 191 -104 191 -209c0 -67 -32 -127 -108 -169c80 -43 112 -104 112 -172c0 -124 -95 -198 -238 -210l-58 -5c-69 -6 -85 -28 -85 -59c0 -30 23 -49 54 -49c63 0 117 45 201 45c21 0 39 -1 56 -4v-129c-21 3 -33 4 -58 4c-71 0 -124 -41 -196 -41
c-109 0 -192 58 -192 176c0 95 48 177 210 189l53 4c60 5 108 33 108 92c0 53 -39 95 -129 95h-96v129h96c90 0 124 46 124 95c0 56 -43 87 -103 87c-63 0 -100 -33 -108 -88h-141c9 128 80 197 195 217l-158 193h121l93 -115l43 57c40 53 79 64 123 64c13 0 29 0 45 -2v-89
c-10 1 -18 2 -30 2c-29 0 -49 -10 -71 -39z" />
    <glyph glyph-name="uni046F" unicode="&#x46f;" horiz-adv-x="529" 
d="M325 563l-124 -1l-130 165h114l80 -105l31 47c36 55 74 64 117 64c12 0 29 -1 44 -2v-89c-10 1 -20 2 -32 2c-28 0 -48 -10 -69 -39zM485 153c0 -91 -78 -146 -202 -156l-69 -5c-38 -3 -52 -22 -52 -48c0 -23 17 -38 45 -38c49 0 99 31 158 31c19 0 36 -2 60 -8v-107
c-24 3 -37 5 -60 5c-55 0 -95 -29 -161 -29c-101 0 -171 52 -171 155c0 84 50 137 180 149l65 6c38 4 68 25 68 64c0 36 -30 58 -97 58h-61v105h59c68 0 93 28 93 64c0 35 -34 53 -77 53c-51 0 -87 -25 -87 -66h-135c0 107 91 184 224 184c127 0 214 -61 214 -157
c0 -54 -24 -99 -90 -131c69 -33 96 -76 96 -129z" />
    <glyph glyph-name="uni0470" unicode="&#x470;" horiz-adv-x="794" 
d="M467 750v-346h17c38 0 76 14 94 51c9 17 12 43 12 73v222h146v-232c0 -47 -5 -83 -18 -115c-32 -77 -105 -139 -225 -139h-26v-264h-140v264h-26c-120 0 -193 62 -225 139c-13 32 -18 68 -18 115v232h146v-222c0 -30 3 -56 12 -73c18 -37 56 -51 94 -51h17v346h140z" />
    <glyph glyph-name="uni0471" unicode="&#x471;" horiz-adv-x="748" 
d="M290 123h23v662h135v-660h8c86 0 96 87 96 194c0 85 -14 183 -24 241h139c12 -59 26 -144 26 -243c0 -207 -72 -327 -232 -327h-13v-234h-135v234h-23c-100 0 -177 50 -208 135c-9 27 -16 62 -16 104v331h141v-320c0 -27 3 -48 9 -64c12 -34 39 -53 74 -53z" />
    <glyph glyph-name="afii10147" unicode="&#x472;" horiz-adv-x="631" 
d="M63 252v246c0 47 6 84 18 115c39 96 133 147 229 147h11c96 0 189 -52 228 -147c13 -31 19 -68 19 -115v-246c0 -47 -6 -84 -19 -115c-39 -95 -132 -147 -228 -147h-11c-96 0 -190 51 -229 147c-12 31 -18 68 -18 115zM422 254v77c-12 -19 -31 -28 -53 -28
c-56 0 -75 59 -119 59c-17 0 -37 -13 -41 -49v-59c0 -30 2 -55 11 -72c18 -38 54 -53 90 -53h11c35 0 72 15 90 53c8 17 11 42 11 72zM422 453v43c0 30 -3 55 -11 72c-18 38 -55 53 -90 53h-11c-36 0 -72 -15 -90 -53c-9 -17 -11 -42 -11 -72v-62c11 18 29 29 52 29
c57 0 76 -59 120 -59c17 0 38 13 41 49z" />
    <glyph glyph-name="afii10195" unicode="&#x473;" horiz-adv-x="554" 
d="M501 331v-102c0 -42 -7 -77 -16 -104c-31 -85 -108 -135 -208 -135s-177 50 -208 135c-9 27 -16 62 -16 104v102c0 42 7 77 16 104c31 85 108 135 208 135s177 -50 208 -135c9 -27 16 -62 16 -104zM194 320v-2c10 15 23 24 43 24c44 0 61 -43 91 -43c13 0 29 7 32 33
c-1 21 -4 38 -9 52c-12 34 -39 53 -74 53s-62 -19 -74 -53c-6 -16 -9 -37 -9 -64zM360 240c-10 -16 -24 -24 -43 -24c-44 0 -61 43 -91 43c-14 0 -29 -8 -32 -33c1 -20 4 -37 9 -50c12 -34 39 -53 74 -53s62 19 74 53c6 16 9 37 9 64z" />
    <glyph glyph-name="afii10148" unicode="&#x474;" horiz-adv-x="663" 
d="M534 538l-149 -538h-166l-209 750h151l139 -555h2l100 394c27 107 82 161 183 161c25 0 52 -1 73 -3v-128c-12 1 -24 2 -38 2c-48 0 -70 -24 -86 -83z" />
    <glyph glyph-name="afii10196" unicode="&#x475;" horiz-adv-x="568" 
d="M451 371l-123 -371h-138l-183 560h148l108 -387h2l76 253c30 101 84 134 169 134c21 0 41 -1 54 -2v-120c-2 0 -22 1 -34 1c-40 0 -62 -18 -79 -68z" />
    <glyph glyph-name="uni0476" unicode="&#x476;" horiz-adv-x="663" 
d="M251 982l1 12h135l117 -187h-97zM41 982l1 12h135l117 -187h-97zM534 538l-149 -538h-166l-209 750h151l139 -555h2l100 394c27 107 82 161 183 161c25 0 52 -1 73 -3v-128c-12 1 -24 2 -38 2c-48 0 -70 -24 -86 -83z" />
    <glyph glyph-name="uni0477" unicode="&#x477;" horiz-adv-x="568" 
d="M199 832l1 12h135l117 -187h-97zM-11 832l1 12h135l117 -187h-97zM451 371l-123 -371h-138l-183 560h148l108 -387h2l76 253c30 101 84 134 169 134c21 0 41 -1 54 -2v-120c-2 0 -22 1 -34 1c-40 0 -62 -18 -79 -68z" />
    <glyph glyph-name="uni0478" unicode="&#x478;" horiz-adv-x="1164" 
d="M422 254v242c0 30 -3 55 -11 72c-18 38 -55 53 -90 53h-11c-36 0 -72 -15 -90 -53c-9 -17 -11 -42 -11 -72v-242c0 -30 2 -55 11 -72c18 -38 54 -53 90 -53h11c35 0 72 15 90 53c8 17 11 42 11 72zM63 252v246c0 47 6 84 18 115c39 96 133 147 229 147h11
c96 0 189 -52 228 -147c13 -31 19 -68 19 -115v-246c0 -47 -6 -84 -19 -115c-39 -95 -132 -147 -228 -147h-11c-96 0 -190 51 -229 147c-12 31 -18 68 -18 115zM820 21l-196 539h149l120 -369h2l113 369h149l-207 -585c-47 -132 -122 -191 -227 -191c-37 0 -71 5 -100 13
v133c28 -6 53 -12 86 -12c59 0 87 33 104 83z" />
    <glyph glyph-name="uni0479" unicode="&#x479;" horiz-adv-x="1076" 
d="M501 331v-102c0 -42 -7 -77 -16 -104c-31 -85 -108 -135 -208 -135s-177 50 -208 135c-9 27 -16 62 -16 104v102c0 42 7 77 16 104c31 85 108 135 208 135s177 -50 208 -135c9 -27 16 -62 16 -104zM360 240v80c0 27 -3 48 -9 64c-12 34 -39 53 -74 53s-62 -19 -74 -53
c-6 -16 -9 -37 -9 -64v-80c0 -27 3 -48 9 -64c12 -34 39 -53 74 -53s62 19 74 53c6 16 9 37 9 64zM732 21l-196 539h149l120 -369h2l113 369h149l-207 -585c-47 -132 -122 -191 -227 -191c-37 0 -71 5 -100 13v133c28 -6 53 -12 86 -12c59 0 87 33 104 83z" />
    <glyph glyph-name="uni047A" unicode="&#x47a;" horiz-adv-x="631" 
d="M63 252v246c0 47 6 84 18 115c32 80 103 129 181 143c3 27 25 49 54 49s51 -22 54 -50c77 -14 146 -64 179 -142c13 -31 19 -68 19 -115v-246c0 -47 -6 -84 -18 -115c-32 -80 -103 -129 -181 -143c-3 -27 -25 -49 -54 -49s-51 22 -54 50c-77 14 -146 64 -179 142
c-13 31 -19 68 -19 115zM422 254v242c0 30 -3 55 -11 72c-10 20 -26 34 -43 43c-6 -24 -26 -41 -52 -41s-46 18 -52 42c-18 -9 -34 -23 -44 -44c-9 -17 -11 -42 -11 -72v-242c0 -30 3 -55 11 -72c10 -20 26 -34 43 -43c6 24 26 41 52 41s46 -18 52 -42c18 9 34 23 44 44
c9 17 11 42 11 72z" />
    <glyph glyph-name="uni047B" unicode="&#x47b;" horiz-adv-x="554" 
d="M53 229v102c0 42 7 77 16 104c25 70 82 116 157 130c2 28 21 50 51 50c28 0 47 -22 51 -50c75 -14 132 -60 157 -130c9 -27 16 -62 16 -104v-102c0 -42 -7 -77 -16 -104c-25 -70 -82 -116 -157 -130c-2 -28 -21 -50 -51 -50c-28 0 -47 22 -51 50c-75 14 -132 60 -157 130
c-9 27 -16 62 -16 104zM360 240v80c0 27 -3 48 -9 64c-6 15 -14 28 -25 37c-7 -23 -24 -40 -49 -40c-26 0 -43 17 -49 40c-11 -9 -20 -22 -25 -37c-6 -16 -9 -37 -9 -64v-80c0 -27 3 -48 9 -64c6 -15 14 -28 25 -37c7 23 24 40 49 40c26 0 43 -17 49 -40c11 9 20 22 25 37
c6 16 9 37 9 64z" />
    <glyph glyph-name="uni047C" unicode="&#x47c;" horiz-adv-x="894" 
d="M447 112c-35 -86 -95 -122 -166 -122c-114 0 -223 104 -223 397c0 116 23 257 64 363h151c-38 -104 -67 -247 -67 -364c0 -184 37 -253 89 -253c47 0 79 50 79 149v229h146v-229c0 -99 32 -149 79 -149c52 0 89 69 89 253c0 117 -29 260 -67 364h151
c41 -106 64 -247 64 -363c0 -293 -109 -397 -223 -397c-71 0 -131 36 -166 122zM262 800v128h250v48h120v-128h-250v-48h-120z" />
    <glyph glyph-name="uni047D" unicode="&#x47d;" horiz-adv-x="758" 
d="M309 389h140v-181c0 -65 21 -98 54 -98c36 0 61 53 61 177c0 83 -23 191 -57 273h146c34 -82 52 -188 52 -272c0 -219 -89 -298 -187 -298c-57 0 -108 23 -139 86c-31 -63 -82 -86 -139 -86c-98 0 -187 79 -187 298c0 84 18 190 52 272h146c-34 -82 -57 -190 -57 -273
c0 -124 25 -177 61 -177c33 0 54 33 54 98v181zM194 650v128h250v48h120v-128h-250v-48h-120z" />
    <glyph glyph-name="uni047E" unicode="&#x47e;" horiz-adv-x="894" 
d="M409 853h-75l-10 -46h-65v133h375v-133h-65l-10 46h-75l-10 -46h-55zM447 112c-35 -86 -95 -122 -166 -122c-114 0 -223 104 -223 397c0 116 23 257 64 363h151c-38 -104 -67 -247 -67 -364c0 -184 37 -253 89 -253c47 0 79 50 79 149v229h146v-229
c0 -99 32 -149 79 -149c52 0 89 69 89 253c0 117 -29 260 -67 364h151c41 -106 64 -247 64 -363c0 -293 -109 -397 -223 -397c-71 0 -131 36 -166 122z" />
    <glyph glyph-name="uni047F" unicode="&#x47f;" horiz-adv-x="758" 
d="M341 693h-75l-10 -46h-65v133h375v-133h-65l-10 46h-75l-10 -46h-55zM309 389h140v-181c0 -65 21 -98 54 -98c36 0 61 53 61 177c0 83 -23 191 -57 273h146c34 -82 52 -188 52 -272c0 -219 -89 -298 -187 -298c-57 0 -108 23 -139 86c-31 -63 -82 -86 -139 -86
c-98 0 -187 79 -187 298c0 84 18 190 52 272h146c-34 -82 -57 -190 -57 -273c0 -124 25 -177 61 -177c33 0 54 33 54 98v181z" />
    <glyph glyph-name="uni0480" unicode="&#x480;" horiz-adv-x="629" 
d="M298 -10c-94 0 -179 48 -216 146c-12 31 -19 69 -19 116v246c0 47 6 84 19 115c39 95 133 147 230 147h8c98 0 194 -52 231 -147c12 -30 19 -72 20 -127h-148c-1 34 -4 63 -12 80c-17 38 -55 54 -89 54h-12c-35 0 -71 -16 -89 -54c-8 -16 -12 -43 -12 -68v-244
c0 -28 4 -54 12 -71c18 -38 58 -56 93 -56h4c34 0 74 17 92 56c8 17 12 47 12 87h149v-504h-140v282c-37 -40 -87 -58 -133 -58z" />
    <glyph glyph-name="uni0481" unicode="&#x481;" horiz-adv-x="548" 
d="M499 -200h-132v234c-35 -31 -79 -44 -125 -44c-88 0 -155 53 -179 143c-7 24 -10 62 -10 95v103c0 42 7 77 16 104c31 85 108 135 208 135s177 -50 208 -135c7 -21 13 -47 15 -77h-143c-1 10 -3 18 -6 26c-12 34 -39 53 -74 53s-62 -19 -74 -53c-6 -16 -9 -37 -9 -64v-80
c0 -27 3 -48 9 -64c12 -34 39 -53 74 -53s62 19 74 53c2 5 3 11 5 18h143v-394z" />
    <glyph glyph-name="uni0482" unicode="&#x482;" horiz-adv-x="587" 
d="M206 314l76 165l-146 69l44 93l145 -67l91 192l98 -47l-89 -192l146 -68l-44 -93l-145 68l-77 -166l146 -68l-44 -94l-145 68l-91 -192l-98 46l89 192l-146 69l44 92z" />
    <glyph glyph-name="uni0483" unicode="&#x483;" horiz-adv-x="500" 
d="M65 650v128h250v48h120v-128h-250v-48h-120z" />
    <glyph glyph-name="uni0484" unicode="&#x484;" horiz-adv-x="500" 
d="M322 733c-26 0 -46 -15 -68 -30c-20 -14 -39 -27 -68 -36c-22 -7 -54 -10 -91 -10h-62v94h59c33 0 50 3 64 10c16 7 31 18 46 30c33 26 68 52 123 52c81 0 137 -63 145 -173h-102c-8 45 -26 63 -46 63z" />
    <glyph glyph-name="uni0485" unicode="&#x485;" horiz-adv-x="500" 
d="M160 775h280v-79h-280v-49h-95v177h95v-49z" />
    <glyph glyph-name="uni0486" unicode="&#x486;" horiz-adv-x="500" 
d="M60 775h280v49h95v-177h-95v49h-280v79z" />
    <glyph glyph-name="uni0487" unicode="&#x487;" horiz-adv-x="500" 
d="M178 733c-20 0 -38 -18 -46 -63h-102c8 110 64 173 145 173c55 0 90 -26 123 -52c15 -12 30 -23 46 -30c14 -7 31 -10 64 -10h59v-94h-62c-37 0 -69 3 -91 10c-29 9 -48 22 -68 36c-22 15 -42 30 -68 30z" />
    <glyph glyph-name="uni0488" unicode="&#x488;" horiz-adv-x="833" 
d="M408 660c59 0 98 -41 101 -103h-44c-5 34 -27 56 -57 56s-52 -22 -57 -56h-44c3 62 42 103 101 103zM408 111c59 0 98 -41 101 -103h-44c-5 34 -27 56 -57 56s-52 -22 -57 -56h-44c3 62 42 103 101 103zM133 386c59 0 98 -41 101 -103h-44c-5 34 -27 56 -57 56
s-52 -22 -57 -56h-44c3 62 42 103 101 103zM683 386c59 0 98 -41 101 -103h-44c-5 34 -27 56 -57 56s-52 -22 -57 -56h-44c3 62 42 103 101 103zM221 546c59 0 98 -41 101 -103h-44c-5 34 -27 56 -57 56s-52 -22 -57 -56h-44c3 62 42 103 101 103zM595 546
c59 0 98 -41 101 -103h-44c-5 34 -27 56 -57 56s-52 -22 -57 -56h-44c3 62 42 103 101 103zM221 221c59 0 98 -41 101 -103h-44c-5 34 -27 56 -57 56s-52 -22 -57 -56h-44c3 62 42 103 101 103zM595 221c59 0 98 -41 101 -103h-44c-5 34 -27 56 -57 56s-52 -22 -57 -56h-44
c3 62 42 103 101 103z" />
    <glyph glyph-name="uni0489" unicode="&#x489;" horiz-adv-x="833" 
d="M364 64v86h88v-69c0 -52 -22 -106 -94 -116v38c36 11 45 35 45 57c0 3 -1 4 -3 4h-36zM452 622v-86h-88v69c0 52 22 106 94 116v-38c-36 -11 -45 -36 -45 -57c0 -3 1 -4 3 -4h36zM687 299h-86v88h69c52 0 106 -22 116 -94h-38c-11 36 -36 45 -57 45c-3 0 -4 -1 -4 -3v-36
zM129 387h86v-88h-69c-52 0 -106 22 -116 94h38c11 -36 35 -45 57 -45c3 0 4 1 4 3v36zM574 114l-61 61l63 63l49 -49c23 -23 40 -50 40 -83c0 -20 -7 -41 -26 -65l-26 26c7 13 10 24 10 33c0 16 -9 30 -19 39c-2 1 -3 2 -4 1zM242 572l61 -61l-63 -63l-49 49
c-23 23 -40 50 -40 83c0 19 7 41 26 65l26 -26c-7 -13 -10 -24 -10 -33c0 -17 9 -30 19 -39c1 -2 3 -2 4 -1zM637 509l-61 -61l-63 63l49 49c23 23 50 40 83 40c19 0 41 -7 65 -26l-26 -26c-13 7 -24 10 -33 10c-17 0 -30 -9 -39 -19c-2 -2 -2 -3 -1 -4zM179 177l61 61
l63 -63l-49 -49c-23 -23 -50 -40 -83 -40c-20 0 -41 7 -65 26l26 26c13 -7 24 -10 33 -10c16 0 30 9 39 19c2 2 2 3 1 4z" />
    <glyph glyph-name="uni048A" unicode="&#x48a;" horiz-adv-x="724" 
d="M558 0h-106v425c0 25 1 58 1 58h-1l-224 -483h-154v750h140v-425c0 -25 -1 -58 -1 -58h1l225 483h153v-610h126l-81 -374h-129zM335 803c-108 0 -174 71 -179 182h95c7 -58 28 -95 84 -95s77 37 84 95h95c-5 -111 -71 -182 -179 -182z" />
    <glyph glyph-name="uni048B" unicode="&#x48b;" horiz-adv-x="642" 
d="M487 0h-97v272c0 25 3 69 3 69h-1l-176 -341h-145v560h139v-272c0 -25 -3 -69 -3 -69h1l177 341h144v-439h107l-71 -321h-121zM300 623c-108 0 -174 71 -179 182h95c7 -58 28 -95 84 -95s77 37 84 95h95c-5 -111 -71 -182 -179 -182z" />
    <glyph glyph-name="uni048C" unicode="&#x48c;" horiz-adv-x="706" 
d="M289 475h112c45 0 86 -5 113 -16c88 -34 146 -115 146 -220c0 -107 -58 -189 -146 -222c-27 -10 -65 -17 -118 -17h-253v560h-123v75h123v115h146v-115h141v-75h-141v-85zM395 336h-106v-196h106c37 0 55 4 70 13c30 16 49 48 49 86c0 36 -19 68 -49 84
c-15 8 -33 13 -70 13z" />
    <glyph glyph-name="uni048D" unicode="&#x48d;" horiz-adv-x="607" 
d="M335 0h-222v418h-101v75h101v67h141v-67h110v-75h-110v-55h81c28 0 50 -2 68 -5c92 -16 158 -74 158 -176c0 -103 -66 -161 -158 -177c-18 -3 -40 -5 -68 -5zM254 242v-121h76c18 0 37 1 47 4c26 7 45 24 45 57c0 32 -19 49 -45 56c-10 3 -29 4 -47 4h-76z" />
    <glyph glyph-name="uni048E" unicode="&#x48e;" horiz-adv-x="627" 
d="M322 275h-102v-275h-146v750h243c53 0 91 -7 118 -17c88 -33 146 -115 146 -222c0 -97 -49 -173 -125 -211l38 -65l-57 -32l-45 76c-21 -3 -45 -4 -70 -4zM220 414h94l-33 58l57 31l45 -78l3 2c30 16 49 48 49 84c0 38 -19 70 -49 86c-15 9 -33 13 -70 13h-96v-196z" />
    <glyph glyph-name="uni048F" unicode="&#x48f;" 
d="M343 -10c-50 0 -94 15 -131 51h-1s1 -33 1 -58v-227h-141v804h93l12 -71h1c33 52 90 81 151 81c92 0 165 -51 190 -151c6 -24 9 -57 9 -91v-97c0 -34 -3 -67 -9 -91c-14 -54 -41 -93 -75 -118l42 -71l-57 -32l-44 76c-14 -3 -27 -5 -41 -5zM212 315v-71
c0 -20 2 -37 5 -50c11 -40 42 -72 84 -72h9l-38 66l57 31l37 -65c6 8 11 18 14 29c4 14 6 30 6 56v83c0 25 -2 44 -7 58c-11 36 -37 55 -74 55c-36 0 -69 -29 -84 -64c-6 -14 -9 -29 -9 -56z" />
    <glyph glyph-name="afii10050" unicode="&#x490;" horiz-adv-x="539" 
d="M74 0v750h307v233h140v-373h-301v-610h-146z" />
    <glyph glyph-name="afii10098" unicode="&#x491;" horiz-adv-x="491" 
d="M71 0v560h262v200h134v-321h-255v-439h-141z" />
    <glyph glyph-name="uni0492" unicode="&#x492;" horiz-adv-x="596" 
d="M121 0v353h-108v80h108v317h447v-140h-301v-177h184v-80h-184v-353h-146z" />
    <glyph glyph-name="uni0493" unicode="&#x493;" horiz-adv-x="530" 
d="M110 0v238h-94v75h94v247h396v-121h-255v-126h159v-75h-159v-238h-141z" />
    <glyph glyph-name="uni0494" unicode="&#x494;" horiz-adv-x="648" 
d="M74 0v750h447v-140h-301v-131c35 4 75 8 125 8c140 0 222 -67 240 -195c3 -18 5 -46 5 -78v-184c0 -157 -81 -271 -234 -271c-71 0 -140 27 -193 82l95 102c25 -27 62 -44 96 -44c52 0 90 40 90 125v188c0 26 -2 48 -4 57c-10 48 -36 78 -120 78c-43 0 -68 -2 -100 -7
v-340h-146z" />
    <glyph glyph-name="uni0495" unicode="&#x495;" horiz-adv-x="562" 
d="M71 0v560h396v-121h-255v-94c26 3 57 5 83 5c112 0 191 -49 211 -158c3 -16 4 -41 4 -63v-152c0 -152 -83 -213 -207 -213c-27 0 -49 2 -58 3v132c12 -1 25 -2 37 -2c59 0 87 23 87 84v146c0 19 -1 38 -4 49c-10 40 -38 53 -93 53c-21 0 -43 -2 -60 -5v-224h-141z" />
    <glyph glyph-name="uni0496" unicode="&#x496;" horiz-adv-x="1032" 
d="M423 750h146v-289h49c64 0 90 28 102 88l10 51c22 110 63 157 158 157c18 0 43 -2 75 -7v-131c-17 3 -27 4 -41 4c-32 0 -50 -20 -57 -66l-4 -26c-12 -76 -43 -133 -89 -166l134 -225h111v-374h-140v234h-58l-184 321h-66v-321h-146v321h-66l-184 -321h-170l217 365
c-46 33 -77 90 -89 166l-4 26c-7 46 -25 66 -57 66c-14 0 -24 -1 -41 -4v131c32 5 57 7 75 7c95 0 136 -47 158 -157l10 -51c12 -60 38 -88 102 -88h49v289z" />
    <glyph glyph-name="uni0497" unicode="&#x497;" horiz-adv-x="873" 
d="M35 444v115c27 4 47 6 67 6c84 0 122 -35 141 -114l8 -36c10 -43 23 -63 77 -63h25v208h141v-208h25c54 0 67 20 77 63l8 36c19 79 57 114 141 114c20 0 40 -2 67 -6v-115c-14 2 -21 3 -34 3c-28 0 -41 -16 -48 -53l-2 -11c-9 -51 -33 -91 -69 -113l102 -149h100v-321
h-132v200h-49l-151 231h-35v-231h-141v231h-35l-151 -231h-164l185 270c-36 22 -60 62 -69 113l-2 11c-7 37 -20 53 -48 53c-13 0 -20 -1 -34 -3z" />
    <glyph glyph-name="uni0498" unicode="&#x498;" horiz-adv-x="593" 
d="M538 551c0 -68 -31 -132 -107 -173c81 -43 114 -106 114 -176c0 -106 -73 -185 -186 -206c29 -41 50 -86 49 -129c-1 -64 -50 -105 -121 -105c-38 0 -77 11 -102 24l21 71c19 -9 46 -17 69 -17c25 0 40 14 40 45c0 28 -17 65 -43 106c-142 9 -232 106 -232 236h144
c1 -62 39 -101 110 -101c61 0 106 35 106 92c0 53 -39 97 -129 97h-95v127h92c90 0 124 47 124 99c0 53 -43 82 -101 82c-68 0 -106 -39 -107 -101h-144c0 137 101 238 257 238c139 0 241 -85 241 -209z" />
    <glyph glyph-name="uni0499" unicode="&#x499;" horiz-adv-x="512" 
d="M467 413c0 -54 -24 -99 -90 -131c69 -33 96 -77 96 -132c0 -79 -57 -137 -154 -154c28 -41 50 -87 49 -129c-1 -64 -50 -105 -121 -105c-38 0 -77 11 -102 24l21 71c19 -9 46 -17 69 -17c25 0 40 14 40 45c0 28 -17 65 -43 106c-119 9 -195 82 -195 183h139
c0 -40 28 -66 82 -66c45 0 76 24 76 60c0 37 -30 62 -97 62h-57v105h55c68 0 93 28 93 64c0 35 -30 53 -73 53c-51 0 -79 -25 -79 -66h-139c0 107 87 184 220 184c127 0 210 -61 210 -157z" />
    <glyph glyph-name="uni049A" unicode="&#x49a;" horiz-adv-x="703" 
d="M74 0v750h146v-289h59c64 0 90 28 102 88l10 51c22 110 63 157 158 157c18 0 43 -2 75 -7v-131c-17 3 -27 4 -41 4c-32 0 -50 -20 -57 -66l-4 -26c-12 -76 -43 -133 -89 -166l134 -225h121v-374h-140v234h-68l-184 321h-76v-321h-146z" />
    <glyph glyph-name="uni049B" unicode="&#x49b;" horiz-adv-x="607" 
d="M545 559v-115c-14 2 -21 3 -34 3c-28 0 -41 -16 -48 -53l-2 -11c-9 -51 -33 -91 -69 -113l102 -150l1 1h97v-321h-132v200h-47l-151 231h-50v-231h-141v560h141v-208h40c54 0 67 20 77 63l8 36c19 79 57 114 141 114c20 0 40 -2 67 -6z" />
    <glyph glyph-name="uni049C" unicode="&#x49c;" horiz-adv-x="682" 
d="M73 0v750h146v-289h53v178h60v-177c47 7 67 35 78 87l10 51c22 110 63 157 158 157c18 0 43 -2 75 -7v-131c-17 3 -27 4 -41 4c-32 0 -50 -20 -57 -66l-4 -26c-12 -76 -43 -133 -89 -166l217 -365h-170l-177 309v-165h-60v177h-53v-321h-146z" />
    <glyph glyph-name="uni049D" unicode="&#x49d;" horiz-adv-x="610" 
d="M575 559v-115c-14 2 -21 3 -34 3c-28 0 -41 -16 -48 -53l-2 -11c-9 -51 -33 -91 -69 -113l185 -270h-164l-131 200v-116h-56v147h-44v-231h-141v560h141v-208h44v159h56v-156c29 7 39 26 47 60l8 36c19 79 57 114 141 114c20 0 40 -2 67 -6z" />
    <glyph glyph-name="uni049E" unicode="&#x49e;" horiz-adv-x="696" 
d="M117 665v85h146v-85h92v-75h-92v-129h59c64 0 90 28 102 88l10 51c22 110 63 157 158 157c18 0 43 -2 75 -7v-131c-17 3 -27 4 -41 4c-32 0 -50 -20 -57 -66l-4 -26c-12 -76 -43 -133 -89 -166l217 -365h-170l-184 321h-76v-321h-146v590h-105v75h105z" />
    <glyph glyph-name="uni049F" unicode="&#x49f;" horiz-adv-x="613" 
d="M104 498v62h141v-62h70v-75h-70v-71h40c54 0 67 20 77 63l8 36c19 79 57 114 141 114c20 0 40 -2 67 -6v-115c-14 2 -21 3 -34 3c-28 0 -41 -16 -48 -53l-2 -11c-9 -51 -33 -91 -69 -113l185 -270h-164l-151 231h-50v-231h-141v423h-89v75h89z" />
    <glyph glyph-name="uni04A0" unicode="&#x4a0;" horiz-adv-x="793" 
d="M214 0v610h-194v140h340v-289h59c64 0 90 28 102 88l10 51c22 110 63 157 158 157c18 0 43 -2 75 -7v-131c-17 3 -27 4 -41 4c-32 0 -50 -20 -57 -66l-4 -26c-12 -76 -43 -133 -89 -166l217 -365h-170l-184 321h-76v-321h-146z" />
    <glyph glyph-name="uni04A1" unicode="&#x4a1;" horiz-adv-x="687" 
d="M652 559v-115c-14 2 -21 3 -34 3c-28 0 -41 -16 -48 -53l-2 -11c-9 -51 -33 -91 -69 -113l185 -270h-164l-151 231h-50v-231h-141v439h-160v121h301v-208h40c54 0 67 20 77 63l8 36c19 79 57 114 141 114c20 0 40 -2 67 -6z" />
    <glyph glyph-name="uni04A2" unicode="&#x4a2;" horiz-adv-x="726" 
d="M572 0h-126v321h-226v-321h-146v750h146v-289h226v289h146v-610h120v-374h-140v234z" />
    <glyph glyph-name="uni04A3" unicode="&#x4a3;" horiz-adv-x="633" 
d="M491 0h-112v231h-167v-231h-141v560h141v-208h167v208h141v-439h103v-321h-132v200z" />
    <glyph glyph-name="uni04A4" unicode="&#x4a4;" horiz-adv-x="807" 
d="M74 0v750h146v-289h226v289h341v-140h-195v-610h-146v321h-226v-321h-146z" />
    <glyph glyph-name="uni04A5" unicode="&#x4a5;" horiz-adv-x="698" 
d="M520 439v-439h-141v231h-167v-231h-141v560h141v-208h167v208h301v-121h-160z" />
    <glyph glyph-name="uni04A6" unicode="&#x4a6;" horiz-adv-x="1001" 
d="M797 24v188c0 26 -2 48 -4 57c-10 48 -36 78 -120 78c-43 0 -68 -2 -100 -7v-340h-146v610h-207v-610h-146v750h499v-271c35 4 75 8 125 8c140 0 222 -67 240 -195c3 -18 5 -46 5 -78v-184c0 -157 -81 -271 -234 -271c-71 0 -140 27 -193 82l95 102c25 -27 62 -44 96 -44
c52 0 90 40 90 125z" />
    <glyph glyph-name="uni04A7" unicode="&#x4a7;" horiz-adv-x="855" 
d="M662 -19v164c0 19 -1 38 -4 49c-10 40 -38 53 -93 53c-21 0 -43 -2 -60 -5v-242h-141v439h-152v-439h-141v560h434v-197c26 3 57 5 83 5c112 0 191 -49 211 -158c3 -16 4 -41 4 -63v-170c0 -152 -83 -213 -207 -213c-27 0 -49 2 -58 3v132c12 -1 25 -2 37 -2
c59 0 87 23 87 84z" />
    <glyph glyph-name="uni04A8" unicode="&#x4a8;" horiz-adv-x="702" 
d="M573 -6c37 0 75 8 112 23v-126c-40 -14 -83 -21 -120 -21c-119 0 -188 49 -222 120h-26c-102 0 -195 52 -235 148c-12 31 -19 68 -19 115v244c0 47 7 84 19 115c40 96 133 148 230 148h8c118 0 219 -82 244 -213h-150c-14 44 -53 73 -94 73h-8c-36 0 -73 -17 -91 -54
c-8 -17 -12 -43 -12 -71v-246c0 -30 3 -57 12 -74c18 -37 56 -59 96 -59h6v186c0 112 47 194 161 194c105 0 164 -71 164 -194v-66c0 -104 -49 -195 -147 -230c23 -9 48 -12 72 -12zM457 305v-183c38 13 55 56 55 112v71c0 35 -5 63 -28 63c-20 0 -27 -23 -27 -63z" />
    <glyph glyph-name="uni04A9" unicode="&#x4a9;" horiz-adv-x="603" 
d="M495 7c29 0 60 5 92 19v-106c-38 -11 -76 -17 -106 -17c-106 0 -156 40 -187 90h-19c-95 0 -172 39 -206 112c-11 23 -16 52 -16 87v179c0 35 5 64 16 87c34 73 111 112 202 112h6c101 0 187 -60 212 -172h-139c-12 32 -42 54 -77 54h-6c-28 0 -53 -12 -66 -35
c-6 -11 -9 -28 -9 -47v-181c0 -20 3 -39 9 -49c15 -24 42 -38 73 -38v107c0 86 40 149 139 149c91 0 143 -54 143 -149v-30c0 -69 -32 -136 -118 -164c17 -6 41 -8 57 -8zM390 215v-106c32 7 48 33 48 66v40c0 20 -8 33 -25 33c-15 0 -23 -10 -23 -33z" />
    <glyph glyph-name="uni04AA" unicode="&#x4aa;" horiz-adv-x="613" 
d="M411 183c8 17 11 47 11 87h148c-1 -62 -8 -104 -19 -133c-31 -80 -100 -128 -179 -142c28 -41 49 -86 48 -128c-1 -64 -50 -105 -121 -105c-38 0 -77 11 -102 24l21 71c19 -9 46 -17 69 -17c25 0 40 14 40 45c0 28 -17 66 -43 107c-87 8 -167 59 -202 145
c-13 31 -19 68 -19 115v246c0 47 6 84 19 115c39 95 133 147 230 147h8c98 0 194 -52 231 -147c12 -30 19 -72 20 -127h-148c-1 34 -4 63 -12 80c-17 38 -55 54 -89 54h-12c-35 0 -71 -16 -89 -54c-8 -16 -12 -43 -12 -68v-244c0 -28 4 -54 12 -71c18 -38 54 -53 89 -53h12
c34 0 71 14 89 53z" />
    <glyph glyph-name="uni04AB" unicode="&#x4ab;" horiz-adv-x="541" 
d="M485 435c7 -21 13 -47 15 -77h-143c-1 10 -3 18 -6 26c-12 34 -39 53 -74 53s-62 -19 -74 -53c-6 -16 -9 -37 -9 -64v-80c0 -27 3 -48 9 -64c12 -34 39 -53 74 -53s62 19 74 53c2 5 3 11 5 18h143c-2 -27 -7 -50 -14 -69c-25 -71 -82 -117 -158 -130
c28 -41 49 -86 48 -128c-1 -64 -50 -105 -121 -105c-38 0 -77 11 -102 24l21 71c19 -9 46 -17 69 -17c25 0 40 14 40 45c0 29 -17 67 -44 108c-81 11 -142 58 -169 132c-9 27 -16 62 -16 104v102c0 42 7 77 16 104c31 85 108 135 208 135s177 -50 208 -135z" />
    <glyph glyph-name="uni04AC" unicode="&#x4ac;" horiz-adv-x="565" 
d="M336 0h-126v610h-190v140h525v-140h-189v-470h120v-374h-140v234z" />
    <glyph glyph-name="uni04AD" unicode="&#x4ad;" horiz-adv-x="501" 
d="M292 0h-112v439h-162v121h465v-121h-162v-318h103v-321h-132v200z" />
    <glyph glyph-name="uni04AE" unicode="&#x4ae;" horiz-adv-x="618" 
d="M1 750h165l141 -276h2l143 276h165l-235 -421v-329h-146v328z" />
    <glyph glyph-name="uni04AF" unicode="&#x4af;" horiz-adv-x="528" 
d="M521 560l-187 -560v-244h-141v244l-186 560h148l108 -387h2l107 387h149z" />
    <glyph glyph-name="uni04B0" unicode="&#x4b0;" horiz-adv-x="618" 
d="M1 750h165l141 -276h2l143 276h165l-235 -421v-29h166v-80h-166v-220h-146v220h-165v80h165v28z" />
    <glyph glyph-name="uni04B1" unicode="&#x4b1;" horiz-adv-x="528" 
d="M521 560l-187 -560h124v-75h-124v-169h-141v169h-124v75h124l-186 560h148l108 -387h2l107 387h149z" />
    <glyph glyph-name="uni04B2" unicode="&#x4b2;" horiz-adv-x="674" 
d="M454 0l-141 266l-140 -266h-166l226 395l-201 355h167l114 -225l115 225h167l-200 -355l146 -255h121v-374h-140v234h-68z" />
    <glyph glyph-name="uni04B3" unicode="&#x4b3;" horiz-adv-x="555" 
d="M411 0h-48l-98 183l-99 -183h-156l181 292l-165 268h155l84 -158l83 158h157l-166 -268l105 -171h99v-321h-132v200z" />
    <glyph glyph-name="uni04B4" unicode="&#x4b4;" horiz-adv-x="820" 
d="M20 750h425v-140h-139v-470h234v610h146v-610h120v-374h-140v234h-506v610h-140v140z" />
    <glyph glyph-name="uni04B5" unicode="&#x4b5;" horiz-adv-x="696" 
d="M18 560h355v-121h-102v-318h171v439h141v-439h103v-321h-132v200h-424v439h-112v121z" />
    <glyph glyph-name="uni04B6" unicode="&#x4b6;" horiz-adv-x="698" 
d="M418 0v270c-34 -4 -74 -7 -120 -7c-135 0 -217 65 -235 193c-3 18 -5 48 -5 80v214h146v-212c0 -26 1 -50 3 -59c9 -47 37 -76 116 -76c38 0 63 2 95 6v341h146v-610h120v-374h-140v234h-126z" />
    <glyph glyph-name="uni04B7" unicode="&#x4b7;" horiz-adv-x="606" 
d="M352 0v196c-25 -2 -57 -4 -88 -4c-117 0 -196 49 -216 158c-3 16 -4 41 -4 63v147h141v-145c0 -19 1 -38 4 -49c10 -40 38 -53 98 -53c25 0 48 2 65 5v242h141v-439h103v-321h-132v200h-112z" />
    <glyph glyph-name="uni04B8" unicode="&#x4b8;" horiz-adv-x="658" 
d="M438 0v270c-24 -3 -52 -6 -85 -7v-148h-60v148c-136 4 -213 69 -230 193c-3 18 -5 48 -5 80v214h146v-212c0 -26 1 -50 3 -59c7 -39 28 -66 86 -74v152h60v-154c35 0 58 2 85 6v341h146v-750h-146z" />
    <glyph glyph-name="uni04B9" unicode="&#x4b9;" horiz-adv-x="584" 
d="M372 0v196c-18 -2 -39 -3 -64 -4v-112h-56v112c-114 6 -185 55 -204 158c-3 16 -4 41 -4 63v147h141v-145c0 -19 1 -38 4 -49c7 -30 25 -45 63 -51v129h56v-131c28 0 49 2 64 5v242h141v-560h-141z" />
    <glyph glyph-name="uni04BA" unicode="&#x4ba;" horiz-adv-x="638" 
d="M220 750v-270c34 4 74 7 120 7c135 0 217 -65 235 -193c3 -18 5 -48 5 -80v-214h-146v212c0 26 -1 50 -3 59c-9 47 -37 76 -116 76c-38 0 -63 -2 -95 -6v-341h-146v750h146z" />
    <glyph glyph-name="uni04BB" unicode="&#x4bb;" horiz-adv-x="564" 
d="M212 560v-196c25 2 57 4 88 4c117 0 196 -49 216 -158c3 -16 4 -41 4 -63v-147h-141v145c0 19 -1 38 -4 49c-10 40 -38 53 -98 53c-25 0 -48 -2 -65 -5v-242h-141v560h141z" />
    <glyph glyph-name="uni04BC" unicode="&#x4bc;" horiz-adv-x="778" 
d="M715 480v-153h-361v-75c0 -25 4 -52 12 -68c18 -38 54 -54 89 -54h12c34 0 71 16 89 54c5 11 9 28 11 47h148c-3 -39 -9 -69 -19 -94c-38 -95 -133 -147 -231 -147h-8c-97 0 -191 52 -230 147c-13 31 -19 68 -19 115v75h-11c-135 0 -189 75 -189 166c0 20 1 38 4 59h130
c-2 -14 -4 -26 -4 -42c0 -25 10 -52 60 -52h10v40c0 47 6 84 19 115c39 95 133 147 230 147h10c98 0 192 -51 229 -147c11 -29 18 -71 19 -133zM556 567c-18 39 -55 53 -89 53h-12c-35 0 -71 -15 -89 -53c-8 -17 -12 -43 -12 -71v-38h213v22c0 40 -3 70 -11 87z" />
    <glyph glyph-name="uni04BD" unicode="&#x4bd;" horiz-adv-x="666" 
d="M614 242h-307v-14c0 -27 3 -48 9 -64c12 -34 39 -53 74 -53c37 0 63 22 76 61h143c-2 -17 -6 -34 -11 -47c-30 -86 -108 -135 -208 -135s-177 50 -208 135c-9 27 -16 62 -16 104v13h-5c-109 0 -153 61 -153 137c0 20 1 34 3 51h106c-2 -11 -4 -21 -4 -37
c0 -23 8 -45 49 -45h4c2 34 8 63 16 87c31 85 108 135 208 135s177 -50 208 -135c9 -27 16 -62 16 -104v-89zM307 348h166c-1 22 -4 38 -9 51c-12 34 -39 53 -74 53s-62 -19 -74 -53c-5 -13 -8 -30 -9 -51z" />
    <glyph glyph-name="uni04BE" unicode="&#x4be;" horiz-adv-x="778" 
d="M715 480v-153h-361v-75c0 -25 4 -52 12 -68c18 -38 54 -54 89 -54h12c34 0 71 16 89 54c5 11 9 28 11 47h148c-3 -39 -9 -69 -19 -94c-30 -74 -94 -122 -167 -139v-232h-140v233c-71 18 -133 65 -162 138c-13 31 -19 68 -19 115v75h-11c-135 0 -189 75 -189 166
c0 20 1 38 4 59h130c-2 -14 -4 -26 -4 -42c0 -25 10 -52 60 -52h10v40c0 47 6 84 19 115c39 95 133 147 230 147h10c98 0 192 -51 229 -147c11 -29 18 -71 19 -133zM556 567c-18 39 -55 53 -89 53h-12c-35 0 -71 -15 -89 -53c-8 -17 -12 -43 -12 -71v-38h213v22
c0 40 -3 70 -11 87z" />
    <glyph glyph-name="uni04BF" unicode="&#x4bf;" horiz-adv-x="666" 
d="M614 242h-307v-14c0 -27 3 -48 9 -64c12 -34 39 -53 74 -53c37 0 63 22 76 61h143c-2 -17 -6 -34 -11 -47c-24 -69 -80 -114 -152 -129v-196h-132v201c-62 19 -110 62 -132 124c-9 27 -16 62 -16 104v13h-5c-109 0 -153 61 -153 137c0 20 1 34 3 51h106
c-2 -11 -4 -21 -4 -37c0 -23 8 -45 49 -45h4c2 34 8 63 16 87c31 85 108 135 208 135s177 -50 208 -135c9 -27 16 -62 16 -104v-89zM307 348h166c-1 22 -4 38 -9 51c-12 34 -39 53 -74 53s-62 -19 -74 -53c-5 -13 -8 -30 -9 -51z" />
    <glyph glyph-name="uni04C0" unicode="&#x4c0;" horiz-adv-x="294" 
d="M74 0v750h146v-750h-146z" />
    <glyph glyph-name="uni04C1" unicode="&#x4c1;" horiz-adv-x="992" 
d="M423 750h146v-289h49c64 0 90 28 102 88l10 51c22 110 63 157 158 157c18 0 43 -2 75 -7v-131c-17 3 -27 4 -41 4c-32 0 -50 -20 -57 -66l-4 -26c-12 -76 -43 -133 -89 -166l217 -365h-170l-184 321h-66v-321h-146v321h-66l-184 -321h-170l217 365c-46 33 -77 90 -89 166
l-4 26c-7 46 -25 66 -57 66c-14 0 -24 -1 -41 -4v131c32 5 57 7 75 7c95 0 136 -47 158 -157l10 -51c12 -60 38 -88 102 -88h49v289zM496 803c-108 0 -174 71 -179 182h95c7 -58 28 -95 84 -95s77 37 84 95h95c-5 -111 -71 -182 -179 -182z" />
    <glyph glyph-name="uni04C2" unicode="&#x4c2;" horiz-adv-x="851" 
d="M37 444v115c27 4 47 6 67 6c84 0 122 -35 141 -114l8 -36c10 -43 23 -63 77 -63h25v208h141v-208h25c54 0 67 20 77 63l8 36c19 79 57 114 141 114c20 0 40 -2 67 -6v-115c-14 2 -21 3 -34 3c-28 0 -41 -16 -48 -53l-2 -11c-9 -51 -33 -91 -69 -113l185 -270h-164
l-151 231h-35v-231h-141v231h-35l-151 -231h-164l185 270c-36 22 -60 62 -69 113l-2 11c-7 37 -20 53 -48 53c-13 0 -20 -1 -34 -3zM425 623c-108 0 -174 71 -179 182h95c7 -58 28 -95 84 -95s77 37 84 95h95c-5 -111 -71 -182 -179 -182z" />
    <glyph glyph-name="uni04C3" unicode="&#x4c3;" horiz-adv-x="667" 
d="M492 24c0 95 -70 206 -162 297h-111v-321h-146v750h146v-289h59c64 0 90 28 102 88l10 51c22 110 63 157 158 157c18 0 43 -2 75 -7v-131c-17 3 -27 4 -41 4c-32 0 -50 -20 -57 -66l-4 -26c-10 -62 -30 -105 -61 -136c109 -115 179 -237 179 -365
c0 -157 -82 -271 -235 -271c-71 0 -140 29 -193 84l95 102c25 -27 62 -46 96 -46c52 0 90 40 90 125z" />
    <glyph glyph-name="uni04C4" unicode="&#x4c4;" horiz-adv-x="582" 
d="M414 15c0 70 -48 150 -123 216h-79v-231h-141v560h141v-208h40c54 0 67 20 77 63l8 36c19 79 57 114 141 114c20 0 40 -2 67 -6v-115c-14 2 -21 3 -34 3c-28 0 -41 -16 -48 -53l-2 -11c-7 -41 -23 -72 -47 -94c90 -91 132 -176 132 -266c0 -132 -77 -216 -197 -216
c-60 0 -120 28 -162 70l80 88c25 -21 52 -35 80 -35c35 0 67 24 67 85z" />
    <glyph glyph-name="uni04C5" unicode="&#x4c5;" horiz-adv-x="736" 
d="M570 0h-116v610h-165l-15 -260c-9 -152 -35 -338 -266 -352v140c98 6 115 114 120 218l21 394h451v-610h130l-81 -374h-129z" />
    <glyph glyph-name="uni04C6" unicode="&#x4c6;" horiz-adv-x="638" 
d="M483 0h-99v439h-127l-12 -178c-9 -131 -37 -261 -235 -261v125c81 3 91 71 95 142l19 293h401v-439h107l-71 -321h-121z" />
    <glyph glyph-name="uni04C7" unicode="&#x4c7;" horiz-adv-x="666" 
d="M446 -19v340h-226v-321h-146v750h146v-289h226v289h146v-773c0 -152 -83 -213 -207 -213c-27 0 -54 2 -63 3v132c12 -1 25 -2 37 -2c59 0 87 23 87 84z" />
    <glyph glyph-name="uni04C8" unicode="&#x4c8;" horiz-adv-x="591" 
d="M379 -19v250h-167v-231h-141v560h141v-208h167v208h141v-583c0 -152 -83 -213 -207 -213c-27 0 -49 2 -58 3v132c12 -1 25 -2 37 -2c59 0 87 23 87 84z" />
    <glyph glyph-name="uni04C9" unicode="&#x4c9;" horiz-adv-x="728" 
d="M562 0h-116v321h-226v-321h-146v750h146v-289h226v289h146v-610h130l-81 -374h-129z" />
    <glyph glyph-name="uni04CA" unicode="&#x4ca;" horiz-adv-x="633" 
d="M478 0h-99v231h-167v-231h-141v560h141v-208h167v208h141v-439h107l-71 -321h-121z" />
    <glyph glyph-name="uni04CB" unicode="&#x4cb;" horiz-adv-x="638" 
d="M418 140v130c-34 -4 -74 -7 -120 -7c-135 0 -217 65 -235 193c-3 18 -5 48 -5 80v214h146v-212c0 -26 1 -50 3 -59c9 -47 37 -76 116 -76c38 0 63 2 95 6v341h146v-750h-126v-234h-140v374h120z" />
    <glyph glyph-name="uni04CC" unicode="&#x4cc;" horiz-adv-x="561" 
d="M352 121v90c-25 -2 -57 -4 -88 -4c-117 0 -196 49 -216 158c-3 16 -4 41 -4 63v132h141v-130c0 -19 1 -38 4 -49c10 -40 38 -53 98 -53c25 0 48 2 65 5v227h141v-560h-112v-200h-132v321h103z" />
    <glyph glyph-name="uni04CD" unicode="&#x4cd;" horiz-adv-x="846" 
d="M574 477l-140 -340h-84l-140 340h-1s1 -33 1 -58v-419h-136v750h159l159 -400l159 400h159v-610h130l-81 -374h-129l50 234h-106v419c0 25 1 58 1 58h-1z" />
    <glyph glyph-name="uni04CE" unicode="&#x4ce;" horiz-adv-x="740" 
d="M493 0v266c0 25 3 71 3 71h-1l-105 -239h-82l-105 239h-1s3 -46 3 -71v-266h-134v560h147l131 -302l131 302h147v-439h107l-71 -321h-121l43 200h-92z" />
    <glyph glyph-name="uni04CF" unicode="&#x4cf;" horiz-adv-x="277" 
d="M68 0v560h141v-560h-141z" />
    <glyph glyph-name="uni04D0" unicode="&#x4d0;" horiz-adv-x="612" 
d="M367 329l-60 237h-4l-58 -237h122zM403 193h-194l-50 -193h-149l210 750h172l210 -750h-149zM306 803c-108 0 -174 71 -179 182h95c7 -58 28 -95 84 -95s77 37 84 95h95c-5 -111 -71 -182 -179 -182z" />
    <glyph glyph-name="uni04D1" unicode="&#x4d1;" horiz-adv-x="558" 
d="M198 401h-135c18 113 102 169 220 169c103 0 166 -45 193 -120c10 -27 14 -67 14 -103v-347h-86l-15 86h-1c-30 -55 -80 -96 -157 -96c-102 0 -183 62 -183 186c0 81 43 137 114 162c27 9 59 14 103 14h84v14c0 58 -21 93 -76 93c-44 0 -68 -24 -75 -58zM188 181
c0 -44 22 -72 70 -72c53 0 92 46 92 116v23h-75c-16 0 -35 -2 -45 -6c-27 -10 -42 -32 -42 -61zM279 623c-108 0 -174 71 -179 182h95c7 -58 28 -95 84 -95s77 37 84 95h95c-5 -111 -71 -182 -179 -182z" />
    <glyph glyph-name="uni04D2" unicode="&#x4d2;" horiz-adv-x="612" 
d="M367 329l-60 237h-4l-58 -237h122zM403 193h-194l-50 -193h-149l210 750h172l210 -750h-149zM259 824h-125v131h125v-131zM478 824h-125v131h125v-131z" />
    <glyph glyph-name="uni04D3" unicode="&#x4d3;" horiz-adv-x="558" 
d="M198 401h-135c18 113 102 169 220 169c103 0 166 -45 193 -120c10 -27 14 -67 14 -103v-347h-86l-15 86h-1c-30 -55 -80 -96 -157 -96c-102 0 -183 62 -183 186c0 81 43 137 114 162c27 9 59 14 103 14h84v14c0 58 -21 93 -76 93c-44 0 -68 -24 -75 -58zM188 181
c0 -44 22 -72 70 -72c53 0 92 46 92 116v23h-75c-16 0 -35 -2 -45 -6c-27 -10 -42 -32 -42 -61zM232 644h-125v131h125v-131zM451 644h-125v131h125v-131z" />
    <glyph glyph-name="uni04D4" unicode="&#x4d4;" horiz-adv-x="909" 
d="M453 0v219h-214l-92 -219h-157l331 750h550v-135h-272v-163h218v-135h-218v-182h272v-135h-418zM410 621l-113 -266h156v266h-43z" />
    <glyph glyph-name="uni04D5" unicode="&#x4d5;" horiz-adv-x="848" 
d="M198 401h-135c18 113 102 169 210 169c77 0 125 -30 152 -81c32 47 85 81 162 81c129 0 209 -110 209 -255v-67h-305v-20c0 -27 3 -48 9 -64c12 -34 39 -53 74 -53c37 0 63 22 76 61h141c-2 -17 -6 -34 -11 -47c-30 -86 -106 -135 -196 -135c-91 0 -148 41 -178 107
c-34 -65 -98 -107 -175 -107c-102 0 -183 62 -183 186c0 81 43 137 114 162c27 9 59 14 103 14h84v14c0 58 -21 93 -76 93c-44 0 -68 -24 -75 -58zM188 181c0 -44 22 -72 70 -72c53 0 92 46 92 116v23h-75c-16 0 -35 -2 -45 -6c-27 -10 -42 -32 -42 -61zM491 352h166
c-1 20 -4 34 -9 47c-12 34 -39 53 -74 53s-62 -19 -74 -53c-5 -13 -8 -28 -9 -47z" />
    <glyph glyph-name="uni04D6" unicode="&#x4d6;" horiz-adv-x="565" 
d="M74 0v750h453v-135h-307v-163h253v-135h-253v-182h307v-135h-453zM300 803c-108 0 -174 71 -179 182h95c7 -58 28 -95 84 -95s77 37 84 95h95c-5 -111 -71 -182 -179 -182z" />
    <glyph glyph-name="uni04D7" unicode="&#x4d7;" horiz-adv-x="553" 
d="M501 242h-307v-14c0 -27 3 -48 9 -64c12 -34 39 -53 74 -53c37 0 63 22 76 61h143c-2 -17 -6 -34 -11 -47c-30 -86 -108 -135 -208 -135s-177 50 -208 135c-9 27 -16 62 -16 104v102c0 42 7 77 16 104c31 85 108 135 208 135s177 -50 208 -135c9 -27 16 -62 16 -104v-89z
M194 348h166c-1 22 -4 38 -9 51c-12 34 -39 53 -74 53s-62 -19 -74 -53c-5 -13 -8 -30 -9 -51zM276 623c-108 0 -174 71 -179 182h95c7 -58 28 -95 84 -95s77 37 84 95h95c-5 -111 -71 -182 -179 -182z" />
    <glyph glyph-name="uni04D8" unicode="&#x4d8;" horiz-adv-x="633" 
d="M63 270v153h361v75c0 25 -4 52 -12 68c-18 38 -54 54 -89 54h-12c-34 0 -71 -16 -89 -54c-5 -11 -9 -28 -11 -47h-148c3 39 9 69 19 94c38 95 133 147 231 147h8c97 0 191 -52 230 -147c13 -31 19 -68 19 -115v-246c0 -47 -6 -84 -19 -115c-39 -95 -133 -147 -230 -147
h-10c-98 0 -192 51 -229 147c-11 29 -18 71 -19 133zM222 183c18 -39 55 -53 89 -53h12c35 0 71 15 89 53c8 17 12 43 12 71v38h-213v-22c0 -40 3 -70 11 -87z" />
    <glyph glyph-name="afii10846" unicode="&#x4d9;" horiz-adv-x="553" 
d="M52 318h307v14c0 27 -3 48 -9 64c-12 34 -39 53 -74 53c-37 0 -63 -22 -76 -61h-143c2 17 6 34 11 47c30 86 108 135 208 135s177 -50 208 -135c9 -27 16 -62 16 -104v-102c0 -42 -7 -77 -16 -104c-31 -85 -108 -135 -208 -135s-177 50 -208 135c-9 27 -16 62 -16 104v89
zM359 212h-166c1 -22 4 -38 9 -51c12 -34 39 -53 74 -53s62 19 74 53c5 13 8 30 9 51z" />
    <glyph glyph-name="uni04DA" unicode="&#x4da;" horiz-adv-x="633" 
d="M63 270v153h361v75c0 25 -4 52 -12 68c-18 38 -54 54 -89 54h-12c-34 0 -71 -16 -89 -54c-5 -11 -9 -28 -11 -47h-148c3 39 9 69 19 94c38 95 133 147 231 147h8c97 0 191 -52 230 -147c13 -31 19 -68 19 -115v-246c0 -47 -6 -84 -19 -115c-39 -95 -133 -147 -230 -147
h-10c-98 0 -192 51 -229 147c-11 29 -18 71 -19 133zM222 183c18 -39 55 -53 89 -53h12c35 0 71 15 89 53c8 17 12 43 12 71v38h-213v-22c0 -40 3 -70 11 -87zM269 824h-125v131h125v-131zM488 824h-125v131h125v-131z" />
    <glyph glyph-name="uni04DB" unicode="&#x4db;" horiz-adv-x="553" 
d="M52 318h307v14c0 27 -3 48 -9 64c-12 34 -39 53 -74 53c-37 0 -63 -22 -76 -61h-143c2 17 6 34 11 47c30 86 108 135 208 135s177 -50 208 -135c9 -27 16 -62 16 -104v-102c0 -42 -7 -77 -16 -104c-31 -85 -108 -135 -208 -135s-177 50 -208 135c-9 27 -16 62 -16 104v89
zM359 212h-166c1 -22 4 -38 9 -51c12 -34 39 -53 74 -53s62 19 74 53c5 13 8 30 9 51zM229 644h-125v131h125v-131zM448 644h-125v131h125v-131z" />
    <glyph glyph-name="uni04DC" unicode="&#x4dc;" horiz-adv-x="992" 
d="M423 750h146v-289h49c64 0 90 28 102 88l10 51c22 110 63 157 158 157c18 0 43 -2 75 -7v-131c-17 3 -27 4 -41 4c-32 0 -50 -20 -57 -66l-4 -26c-12 -76 -43 -133 -89 -166l217 -365h-170l-184 321h-66v-321h-146v321h-66l-184 -321h-170l217 365c-46 33 -77 90 -89 166
l-4 26c-7 46 -25 66 -57 66c-14 0 -24 -1 -41 -4v131c32 5 57 7 75 7c95 0 136 -47 158 -157l10 -51c12 -60 38 -88 102 -88h49v289zM449 824h-125v131h125v-131zM668 824h-125v131h125v-131z" />
    <glyph glyph-name="uni04DD" unicode="&#x4dd;" horiz-adv-x="851" 
d="M37 444v115c27 4 47 6 67 6c84 0 122 -35 141 -114l8 -36c10 -43 23 -63 77 -63h25v208h141v-208h25c54 0 67 20 77 63l8 36c19 79 57 114 141 114c20 0 40 -2 67 -6v-115c-14 2 -21 3 -34 3c-28 0 -41 -16 -48 -53l-2 -11c-9 -51 -33 -91 -69 -113l185 -270h-164
l-151 231h-35v-231h-141v231h-35l-151 -231h-164l185 270c-36 22 -60 62 -69 113l-2 11c-7 37 -20 53 -48 53c-13 0 -20 -1 -34 -3zM378 644h-125v131h125v-131zM597 644h-125v131h125v-131z" />
    <glyph glyph-name="uni04DE" unicode="&#x4de;" horiz-adv-x="593" 
d="M538 551c0 124 -102 209 -241 209c-156 0 -257 -101 -257 -238h144c1 62 39 101 107 101c58 0 101 -29 101 -82c0 -52 -34 -99 -124 -99h-92v-127h95c90 0 129 -44 129 -97c0 -57 -45 -92 -106 -92c-71 0 -109 39 -110 101h-144c0 -137 101 -237 257 -237
c147 0 248 88 248 212c0 70 -33 133 -114 176c76 41 107 105 107 173zM249 824h-125v131h125v-131zM468 824h-125v131h125v-131z" />
    <glyph glyph-name="uni04DF" unicode="&#x4df;" horiz-adv-x="512" 
d="M467 413c0 96 -83 157 -210 157c-133 0 -220 -77 -220 -184h139c0 41 28 66 79 66c43 0 73 -18 73 -53c0 -36 -25 -64 -93 -64h-55v-105h57c67 0 97 -25 97 -62c0 -36 -31 -60 -76 -60c-54 0 -82 26 -82 66h-139c0 -107 86 -184 219 -184c135 0 217 65 217 160
c0 55 -27 99 -96 132c66 32 90 77 90 131zM209 644h-125v131h125v-131zM428 644h-125v131h125v-131z" />
    <glyph glyph-name="uni04E0" unicode="&#x4e0;" horiz-adv-x="578" 
d="M192 350l-28 103l151 157h-270v140h478v-117l-167 -171c102 -19 176 -92 176 -217v-5c0 -137 -95 -249 -257 -249c-142 0 -250 100 -250 252h145c0 -74 41 -114 105 -114c72 0 111 48 111 112v4c0 64 -39 105 -130 105h-64z" />
    <glyph glyph-name="uni04E1" unicode="&#x4e1;" horiz-adv-x="533" 
d="M259 -225c-144 0 -231 109 -237 244h135c4 -57 36 -111 102 -111c70 0 98 56 99 117c0 57 -29 118 -129 118h-57l-32 98l162 186h-260v133h443v-110l-178 -200c124 -22 192 -100 192 -227c0 -128 -83 -248 -240 -248z" />
    <glyph glyph-name="uni04E2" unicode="&#x4e2;" horiz-adv-x="666" 
d="M452 483h1s-1 -33 -1 -58v-425h140v750h-153l-225 -483h-1s1 33 1 58v425h-140v-750h154zM499 920v-95h-331v95h331z" />
    <glyph glyph-name="uni04E3" unicode="&#x4e3;" horiz-adv-x="600" 
d="M392 341h1s-3 -44 -3 -69v-272h139v560h-144l-177 -341h-1s3 44 3 69v272h-139v-560h145zM466 740v-95h-331v95h331z" />
    <glyph glyph-name="uni04E4" unicode="&#x4e4;" horiz-adv-x="666" 
d="M452 483h1s-1 -33 -1 -58v-425h140v750h-153l-225 -483h-1s1 33 1 58v425h-140v-750h154zM286 824h-125v131h125v-131zM505 824h-125v131h125v-131z" />
    <glyph glyph-name="uni04E5" unicode="&#x4e5;" horiz-adv-x="600" 
d="M392 341h1s-3 -44 -3 -69v-272h139v560h-144l-177 -341h-1s3 44 3 69v272h-139v-560h145zM253 644h-125v131h125v-131zM472 644h-125v131h125v-131z" />
    <glyph glyph-name="uni04E6" unicode="&#x4e6;" horiz-adv-x="631" 
d="M422 254v242c0 30 -3 55 -11 72c-18 38 -55 53 -90 53h-11c-36 0 -72 -15 -90 -53c-9 -17 -11 -42 -11 -72v-242c0 -30 2 -55 11 -72c18 -38 54 -53 90 -53h11c35 0 72 15 90 53c8 17 11 42 11 72zM63 252v246c0 47 6 84 18 115c39 96 133 147 229 147h11
c96 0 189 -52 228 -147c13 -31 19 -68 19 -115v-246c0 -47 -6 -84 -19 -115c-39 -95 -132 -147 -228 -147h-11c-96 0 -190 51 -229 147c-12 31 -18 68 -18 115zM268 824h-125v131h125v-131zM487 824h-125v131h125v-131z" />
    <glyph glyph-name="uni04E7" unicode="&#x4e7;" horiz-adv-x="554" 
d="M501 331v-102c0 -42 -7 -77 -16 -104c-31 -85 -108 -135 -208 -135s-177 50 -208 135c-9 27 -16 62 -16 104v102c0 42 7 77 16 104c31 85 108 135 208 135s177 -50 208 -135c9 -27 16 -62 16 -104zM360 240v80c0 27 -3 48 -9 64c-12 34 -39 53 -74 53s-62 -19 -74 -53
c-6 -16 -9 -37 -9 -64v-80c0 -27 3 -48 9 -64c12 -34 39 -53 74 -53s62 19 74 53c6 16 9 37 9 64zM230 644h-125v131h125v-131zM449 644h-125v131h125v-131z" />
    <glyph glyph-name="uni04E8" unicode="&#x4e8;" horiz-adv-x="631" 
d="M63 252v246c0 47 6 84 18 115c39 96 133 147 229 147h11c96 0 189 -52 228 -147c13 -31 19 -68 19 -115v-246c0 -47 -6 -84 -19 -115c-39 -95 -132 -147 -228 -147h-11c-96 0 -190 51 -229 147c-12 31 -18 68 -18 115zM422 254v58h-213v-58c0 -30 2 -55 11 -72
c18 -38 54 -53 90 -53h11c35 0 72 15 90 53c8 17 11 42 11 72zM209 496v-53h213v53c0 30 -3 55 -11 72c-18 38 -55 53 -90 53h-11c-36 0 -72 -15 -90 -53c-9 -17 -11 -42 -11 -72z" />
    <glyph glyph-name="uni04E9" unicode="&#x4e9;" horiz-adv-x="554" 
d="M501 331v-102c0 -42 -7 -77 -16 -104c-31 -85 -108 -135 -208 -135s-177 50 -208 135c-9 27 -16 62 -16 104v102c0 42 7 77 16 104c31 85 108 135 208 135s177 -50 208 -135c9 -27 16 -62 16 -104zM351 176c5 14 8 32 9 55h-166c0 -23 3 -41 9 -55c13 -34 39 -53 74 -53
s62 19 74 53zM203 384c-5 -13 -8 -28 -9 -47h165c-1 19 -4 34 -8 47c-12 34 -39 53 -74 53s-62 -19 -74 -53z" />
    <glyph glyph-name="uni04EA" unicode="&#x4ea;" horiz-adv-x="631" 
d="M63 252v246c0 47 6 84 18 115c39 96 133 147 229 147h11c96 0 189 -52 228 -147c13 -31 19 -68 19 -115v-246c0 -47 -6 -84 -19 -115c-39 -95 -132 -147 -228 -147h-11c-96 0 -190 51 -229 147c-12 31 -18 68 -18 115zM422 254v58h-213v-58c0 -30 2 -55 11 -72
c18 -38 54 -53 90 -53h11c35 0 72 15 90 53c8 17 11 42 11 72zM209 496v-53h213v53c0 30 -3 55 -11 72c-18 38 -55 53 -90 53h-11c-36 0 -72 -15 -90 -53c-9 -17 -11 -42 -11 -72zM268 824h-125v131h125v-131zM487 824h-125v131h125v-131z" />
    <glyph glyph-name="uni04EB" unicode="&#x4eb;" horiz-adv-x="554" 
d="M501 331v-102c0 -42 -7 -77 -16 -104c-31 -85 -108 -135 -208 -135s-177 50 -208 135c-9 27 -16 62 -16 104v102c0 42 7 77 16 104c31 85 108 135 208 135s177 -50 208 -135c9 -27 16 -62 16 -104zM351 176c5 14 8 32 9 55h-166c0 -23 3 -41 9 -55c13 -34 39 -53 74 -53
s62 19 74 53zM203 384c-5 -13 -8 -28 -9 -47h165c-1 19 -4 34 -8 47c-12 34 -39 53 -74 53s-62 -19 -74 -53zM230 644h-125v131h125v-131zM449 644h-125v131h125v-131z" />
    <glyph glyph-name="uni04EC" unicode="&#x4ec;" horiz-adv-x="618" 
d="M194 234h-148c4 -139 92 -244 249 -244h9c99 0 193 52 232 147c13 31 19 68 19 115v246c0 47 -6 84 -19 115c-39 95 -133 147 -232 147h-7c-148 0 -244 -96 -251 -239h148c6 53 38 99 105 99h5c39 0 75 -16 93 -54c8 -16 12 -43 12 -68v-48h-219v-135h219v-61
c0 -28 -4 -54 -12 -71c-18 -38 -54 -53 -93 -53h-7c-65 0 -100 43 -103 104zM262 824h-125v131h125v-131zM481 824h-125v131h125v-131z" />
    <glyph glyph-name="uni04ED" unicode="&#x4ed;" horiz-adv-x="541" 
d="M56 435c-6 -17 -10 -37 -13 -59h144c12 42 42 61 77 61c57 0 83 -40 83 -105h-150v-106h150c0 -60 -25 -103 -83 -103c-35 0 -64 19 -74 53h-146c3 -20 7 -37 12 -51c30 -86 108 -135 208 -135s177 50 208 135c9 27 16 62 16 104v102c0 42 -7 77 -16 104
c-31 85 -108 135 -208 135s-178 -49 -208 -135zM223 644h-125v131h125v-131zM442 644h-125v131h125v-131z" />
    <glyph glyph-name="uni04EE" unicode="&#x4ee;" horiz-adv-x="599" 
d="M134 129c54 0 78 19 99 64l-219 557h154l140 -381h2l127 381h154l-217 -587c-46 -125 -114 -173 -217 -173c-43 0 -72 4 -100 13v136c22 -5 42 -10 77 -10zM474 920v-95h-331v95h331z" />
    <glyph glyph-name="uni04EF" unicode="&#x4ef;" horiz-adv-x="548" 
d="M204 21l-196 539h149l120 -369h2l113 369h149l-207 -585c-47 -132 -122 -191 -227 -191c-37 0 -71 5 -100 13v133c28 -6 53 -12 86 -12c59 0 87 33 104 83zM443 740v-95h-331v95h331z" />
    <glyph glyph-name="uni04F0" unicode="&#x4f0;" horiz-adv-x="599" 
d="M134 129c54 0 78 19 99 64l-219 557h154l140 -381h2l127 381h154l-217 -587c-46 -125 -114 -173 -217 -173c-43 0 -72 4 -100 13v136c22 -5 42 -10 77 -10zM261 824h-125v131h125v-131zM480 824h-125v131h125v-131z" />
    <glyph glyph-name="uni04F1" unicode="&#x4f1;" horiz-adv-x="548" 
d="M204 21l-196 539h149l120 -369h2l113 369h149l-207 -585c-47 -132 -122 -191 -227 -191c-37 0 -71 5 -100 13v133c28 -6 53 -12 86 -12c59 0 87 33 104 83zM230 644h-125v131h125v-131zM449 644h-125v131h125v-131z" />
    <glyph glyph-name="uni04F2" unicode="&#x4f2;" horiz-adv-x="599" 
d="M134 129c54 0 78 19 99 64l-219 557h154l140 -381h2l127 381h154l-217 -587c-46 -125 -114 -173 -217 -173c-43 0 -72 4 -100 13v136c22 -5 42 -10 77 -10zM378 994l1 -12l-156 -175h-97l117 187h135zM588 994l1 -12l-156 -175h-97l117 187h135z" />
    <glyph glyph-name="uni04F3" unicode="&#x4f3;" horiz-adv-x="548" 
d="M204 21l-196 539h149l120 -369h2l113 369h149l-207 -585c-47 -132 -122 -191 -227 -191c-37 0 -71 5 -100 13v133c28 -6 53 -12 86 -12c59 0 87 33 104 83zM353 814l1 -12l-156 -175h-97l117 187h135zM563 814l1 -12l-156 -175h-97l117 187h135z" />
    <glyph glyph-name="uni04F4" unicode="&#x4f4;" horiz-adv-x="638" 
d="M418 0v270c-34 -4 -74 -7 -120 -7c-135 0 -217 65 -235 193c-3 18 -5 48 -5 80v214h146v-212c0 -26 1 -50 3 -59c9 -47 37 -76 116 -76c38 0 63 2 95 6v341h146v-750h-146zM264 824h-125v131h125v-131zM483 824h-125v131h125v-131z" />
    <glyph glyph-name="uni04F5" unicode="&#x4f5;" horiz-adv-x="564" 
d="M352 0v196c-25 -2 -57 -4 -88 -4c-117 0 -196 49 -216 158c-3 16 -4 41 -4 63v147h141v-145c0 -19 1 -38 4 -49c10 -40 38 -53 98 -53c25 0 48 2 65 5v242h141v-560h-141zM223 644h-125v131h125v-131zM442 644h-125v131h125v-131z" />
    <glyph glyph-name="uni04F6" unicode="&#x4f6;" horiz-adv-x="637" 
d="M74 0v750h447v-140h-301v-470h120v-374h-140v234h-126z" />
    <glyph glyph-name="uni04F7" unicode="&#x4f7;" horiz-adv-x="491" 
d="M71 0v560h396v-121h-255v-318h103v-321h-132v200h-112z" />
    <glyph glyph-name="uni04F8" unicode="&#x4f8;" horiz-adv-x="858" 
d="M296 336h-76v-196h76c37 0 55 4 70 13c30 16 49 48 49 86c0 36 -19 68 -49 84c-15 8 -33 13 -70 13zM220 475h82c45 0 86 -5 113 -16c88 -34 146 -115 146 -220c0 -107 -58 -189 -146 -222c-27 -10 -65 -17 -118 -17h-223v750h146v-275zM638 0v750h146v-750h-146z
M382 824h-125v131h125v-131zM601 824h-125v131h125v-131z" />
    <glyph glyph-name="uni04F9" unicode="&#x4f9;" horiz-adv-x="776" 
d="M212 242v-121h56c18 0 37 1 47 4c26 7 45 24 45 57c0 32 -19 49 -45 56c-10 3 -29 4 -47 4h-56zM273 0h-202v560h141v-197h61c28 0 50 -2 68 -5c92 -16 158 -74 158 -176c0 -103 -66 -161 -158 -177c-18 -3 -40 -5 -68 -5zM564 0v560h141v-560h-141zM341 644h-125v131
h125v-131zM560 644h-125v131h125v-131z" />
    <glyph glyph-name="uni04FA" unicode="&#x4fa;" horiz-adv-x="596" 
d="M387 140v-163c0 -152 -83 -213 -217 -213c-33 0 -57 2 -66 3v126c12 -1 26 -2 46 -2c69 0 98 26 98 87v22h-127v353h-108v80h108v317h447v-140h-301v-177h184v-80h-184v-213h120z" />
    <glyph glyph-name="uni04FB" unicode="&#x4fb;" horiz-adv-x="530" 
d="M110 0v238h-94v75h94v247h396v-121h-255v-126h159v-75h-159v-117h107v-138c0 -150 -80 -207 -203 -207c-31 0 -56 2 -64 3v116c11 -1 27 -2 45 -2c64 0 92 25 92 91v16h-118z" />
    <glyph glyph-name="uni04FC" unicode="&#x4fc;" horiz-adv-x="659" 
d="M505 0h-51l-141 266l-140 -266h-166l226 395l-201 355h167l114 -225l115 225h167l-200 -355l146 -255h103v-163c0 -152 -83 -213 -217 -213c-33 0 -57 2 -66 3v126c12 -1 26 -2 46 -2c69 0 98 26 98 87v22z" />
    <glyph glyph-name="uni04FD" unicode="&#x4fd;" horiz-adv-x="559" 
d="M414 0h-51l-98 183l-99 -183h-156l181 292l-165 268h155l84 -158l83 158h157l-166 -268l106 -171h99v-138c0 -150 -80 -207 -203 -207c-31 0 -56 2 -64 3v116c11 -1 27 -2 45 -2c64 0 92 25 92 91v16z" />
    <glyph glyph-name="uni04FE" unicode="&#x4fe;" horiz-adv-x="638" 
d="M178 0h-166l207 355h-164v80h164l-182 315h167l114 -225l115 225h167l-182 -315h165v-80h-164l207 -355h-167l-141 266z" />
    <glyph glyph-name="uni04FF" unicode="&#x4ff;" horiz-adv-x="540" 
d="M31 560h155l84 -158l83 158h157l-143 -231h130v-75h-130l158 -254h-157l-98 183l-99 -183h-156l157 254h-130v75h131z" />
    <glyph glyph-name="endash" unicode="&#x2013;" horiz-adv-x="582" 
d="M539 331h-496v118h496v-118z" />
    <glyph glyph-name="emdash" unicode="&#x2014;" horiz-adv-x="702" 
d="M659 331h-616v118h616v-118z" />
    <glyph glyph-name="quoteleft" unicode="&#x2018;" horiz-adv-x="247" 
d="M203 627v-164h-163v124c0 27 2 56 8 77c16 69 62 129 158 142v-58c-70 -22 -87 -69 -87 -107c0 -11 6 -14 13 -14h71z" />
    <glyph glyph-name="quoteright" unicode="&#x2019;" horiz-adv-x="244" 
d="M43 642v164h163v-124c0 -27 -2 -56 -8 -77c-16 -69 -62 -129 -158 -142v58c70 22 87 69 87 107c0 11 -6 14 -13 14h-71z" />
    <glyph glyph-name="quotesinglbase" unicode="&#x201a;" horiz-adv-x="255" 
d="M41 0v173h171v-131c0 -28 -2 -58 -8 -81c-17 -72 -65 -135 -166 -149v61c73 23 91 73 91 113c0 11 -6 14 -13 14h-75z" />
    <glyph glyph-name="quotedblleft" unicode="&#x201c;" horiz-adv-x="467" 
d="M203 627v-164h-163v124c0 27 2 56 8 77c16 69 61 129 157 142v-58c-69 -22 -86 -69 -86 -107c0 -11 6 -14 12 -14h72zM423 627v-164h-162v124c0 27 1 56 7 77c16 69 62 129 158 142v-58c-70 -22 -87 -69 -87 -107c0 -11 6 -14 13 -14h71z" />
    <glyph glyph-name="quotedblright" unicode="&#x201d;" horiz-adv-x="464" 
d="M263 642v164h163v-124c0 -27 -2 -56 -8 -77c-16 -69 -62 -129 -157 -142v58c69 22 86 69 86 107c0 11 -6 14 -12 14h-72zM43 642v164h162v-124c0 -27 -1 -56 -7 -77c-16 -69 -62 -129 -158 -142v58c69 22 87 69 87 107c0 11 -6 14 -13 14h-71z" />
    <glyph glyph-name="quotedblbase" unicode="&#x201e;" horiz-adv-x="487" 
d="M273 0v173h171v-131c0 -28 -2 -58 -8 -81c-17 -72 -65 -135 -166 -149v61c73 23 91 73 91 113c0 11 -6 14 -13 14h-75zM41 0v173h171v-131c0 -28 -2 -58 -8 -81c-17 -72 -65 -135 -166 -149v61c73 23 91 73 91 113c0 11 -6 14 -13 14h-75z" />
    <glyph glyph-name="dagger" unicode="&#x2020;" horiz-adv-x="514" 
d="M302 450v-619h-90v619h-174v87h174v213h90v-213h174v-87h-174z" />
    <glyph glyph-name="daggerdbl" unicode="&#x2021;" horiz-adv-x="524" 
d="M217 131v319h-174v87h174v213h90v-213h174v-87h-174v-319h174v-87h-174v-213h-90v213h-174v87h174z" />
    <glyph glyph-name="bullet" unicode="&#x2022;" horiz-adv-x="345" 
d="M287 295h-229v237h229v-237z" />
    <glyph glyph-name="ellipsis" unicode="&#x2026;" horiz-adv-x="749" 
d="M49 0v173h167v-173h-167zM291 0v173h167v-173h-167zM533 0v173h167v-173h-167z" />
    <glyph glyph-name="perthousand" unicode="&#x2030;" horiz-adv-x="958" 
d="M182 0h-84l361 750h84zM127 604v-9c0 -44 18 -69 48 -69s48 25 48 69v9c0 44 -18 69 -48 69s-48 -25 -48 -69zM33 595v9c0 96 61 156 142 156s142 -60 142 -156v-9c0 -96 -61 -157 -142 -157s-142 61 -142 157zM418 156v-9c0 -44 18 -69 48 -69s48 25 48 69v9
c0 44 -18 69 -48 69s-48 -25 -48 -69zM324 147v9c0 96 61 156 142 156s142 -60 142 -156v-9c0 -96 -61 -157 -142 -157s-142 61 -142 157zM735 156v-9c0 -44 18 -69 48 -69s48 25 48 69v9c0 44 -18 69 -48 69s-48 -25 -48 -69zM641 147v9c0 96 61 156 142 156
s142 -60 142 -156v-9c0 -96 -61 -157 -142 -157s-142 61 -142 157z" />
    <glyph glyph-name="guilsinglleft" unicode="&#x2039;" horiz-adv-x="329" 
d="M281 41l-255 265l255 265v-145l-123 -120l123 -120v-145z" />
    <glyph glyph-name="guilsinglright" unicode="&#x203a;" horiz-adv-x="329" 
d="M303 306l-255 -265v145l123 120l-123 120v145z" />
    <glyph glyph-name="fraction" unicode="&#x2044;" horiz-adv-x="342" 
d="M-19 -130l-83 38l462 940l84 -39z" />
    <glyph glyph-name="Euro" unicode="&#x20ac;" horiz-adv-x="576" 
d="M227 484h213l-29 -80h-185v-70h164l-28 -80h-135v-18c0 -88 49 -127 103 -127c45 0 88 24 102 96h129c-11 -142 -112 -215 -233 -215c-120 0 -229 92 -229 243v21h-90l26 80h63v70h-89l26 80h64v33c0 151 109 243 231 243c116 0 222 -74 231 -217h-128
c-13 72 -57 98 -105 98c-52 0 -101 -41 -101 -127v-30z" />
    <glyph glyph-name="uni2120" unicode="&#x2120;" horiz-adv-x="590" 
d="M237 655h-59c0 25 -15 47 -47 47c-29 0 -38 -15 -38 -29c0 -20 17 -28 32 -33l32 -11c43 -15 83 -40 83 -93c0 -54 -45 -89 -105 -89c-68 0 -108 43 -109 99h59c1 -30 25 -47 51 -47s44 15 44 38c0 18 -20 30 -38 36l-33 11c-37 12 -75 30 -75 87c0 53 44 83 101 83
c58 0 104 -31 102 -99zM399 450l-66 207v-207h-52v300h72l66 -219l68 219h72v-301h-52v207l-66 -206h-42z" />
    <glyph glyph-name="trademark" unicode="&#x2122;" horiz-adv-x="587" 
d="M16 750h218v-56h-78v-244h-60v244h-80v56zM384 450l-66 207v-207h-52v300h72l66 -219l68 219h72v-301h-52v207l-66 -206h-42z" />
    <glyph glyph-name="partialdiff" unicode="&#x2202;" 
d="M540 750v-750h-500v750h500zM261 374l-171 281v-562zM319 374l171 -281v562zM120 700l170 -279l170 279h-340zM290 326l-169 -276h337z" />
    <glyph glyph-name="product" unicode="&#x220f;" 
d="M540 750v-750h-500v750h500zM261 374l-171 281v-562zM319 374l171 -281v562zM120 700l170 -279l170 279h-340zM290 326l-169 -276h337z" />
    <glyph glyph-name="summation" unicode="&#x2211;" 
d="M540 750v-750h-500v750h500zM261 374l-171 281v-562zM319 374l171 -281v562zM120 700l170 -279l170 279h-340zM290 326l-169 -276h337z" />
    <glyph glyph-name="minus" unicode="&#x2212;" horiz-adv-x="576" 
d="M531 241h-486v118h486v-118z" />
    <glyph glyph-name="radical" unicode="&#x221a;" 
d="M540 750v-750h-500v750h500zM261 374l-171 281v-562zM319 374l171 -281v562zM120 700l170 -279l170 279h-340zM290 326l-169 -276h337z" />
    <glyph glyph-name="infinity" unicode="&#x221e;" 
d="M540 750v-750h-500v750h500zM261 374l-171 281v-562zM319 374l171 -281v562zM120 700l170 -279l170 279h-340zM290 326l-169 -276h337z" />
    <glyph glyph-name="integral" unicode="&#x222b;" 
d="M540 750v-750h-500v750h500zM261 374l-171 281v-562zM319 374l171 -281v562zM120 700l170 -279l170 279h-340zM290 326l-169 -276h337z" />
    <glyph glyph-name="approxequal" unicode="&#x2248;" 
d="M540 750v-750h-500v750h500zM261 374l-171 281v-562zM319 374l171 -281v562zM120 700l170 -279l170 279h-340zM290 326l-169 -276h337z" />
    <glyph glyph-name="notequal" unicode="&#x2260;" horiz-adv-x="576" 
d="M526 131h-283l-72 -131h-96l72 131h-97v118h161l56 102h-217v118h282l73 132h96l-73 -132h98v-118h-163l-56 -102h219v-118z" />
    <glyph glyph-name="lessequal" unicode="&#x2264;" horiz-adv-x="576" 
d="M523 563l-333 -146l333 -146v-130l-461 215v122l461 215v-130zM523 -10h-465v118h465v-118z" />
    <glyph glyph-name="greaterequal" unicode="&#x2265;" horiz-adv-x="576" 
d="M391 417l-333 146v130l461 -215v-122l-461 -215v130zM523 -10h-465v118h465v-118z" />
    <glyph glyph-name="lozenge" unicode="&#x25ca;" 
d="M540 750v-750h-500v750h500zM261 374l-171 281v-562zM319 374l171 -281v562zM120 700l170 -279l170 279h-340zM290 326l-169 -276h337z" />
    <glyph glyph-name="brevecyrillic" horiz-adv-x="536" 
d="M268 653c-108 0 -174 71 -179 182h95c7 -58 28 -95 84 -95s77 37 84 95h95c-5 -111 -71 -182 -179 -182z" />
    <glyph glyph-name="apple" horiz-adv-x="400" 
 />
    <glyph glyph-name="registered.001" horiz-adv-x="854" 
d="M619 153l-4 -11h-91c-19 19 -24 46 -26 68l-5 70c-3 33 -24 45 -62 45h-55v-183h-95v472h144c23 0 42 -2 56 -5c67 -16 111 -59 111 -130c0 -43 -22 -79 -68 -103c41 -18 61 -51 64 -96l4 -68c1 -23 8 -44 27 -59zM421 524h-45v-109h49c47 0 72 25 72 61
c0 38 -39 48 -76 48zM58 375c0 213 146 385 369 385s369 -172 369 -385s-146 -385 -369 -385s-369 172 -369 385zM109 375c0 -185 123 -336 318 -336s318 151 318 336s-123 336 -318 336s-318 -151 -318 -336z" />
    <glyph glyph-name="regsound" horiz-adv-x="854" 
d="M392 382h57c25 0 37 4 47 9c17 9 29 31 29 54c0 25 -12 47 -29 56c-10 5 -22 9 -47 9h-57v-128zM446 293h-54v-165h-94v472h148c32 0 59 -4 78 -11c54 -21 95 -78 95 -144c0 -67 -37 -121 -96 -143c-18 -7 -41 -9 -77 -9zM58 375c0 213 146 385 369 385
s369 -172 369 -385s-146 -385 -369 -385s-369 172 -369 385zM109 375c0 -185 123 -336 318 -336s318 151 318 336s-123 336 -318 336s-318 -151 -318 -336z" />
    <glyph glyph-name="CR" horiz-adv-x="220" 
 />
    <glyph glyph-name="_0000" horiz-adv-x="500" 
 />
    <glyph glyph-name="commaaccentlow" horiz-adv-x="500" 
d="M189 -169v119h121v-86c0 -19 -1 -39 -5 -55c-12 -49 -45 -86 -113 -96v43c50 15 59 49 59 66c0 8 -5 9 -9 9h-53z" />
    <glyph glyph-name="commaacaron" horiz-adv-x="191" 
d="M38 666v119h121v-86c0 -19 -1 -39 -5 -55c-12 -49 -45 -86 -113 -96v43c50 15 59 49 59 66c0 8 -5 9 -9 9h-53z" />
    </font>
</defs>
</svg>
